<svg width="73" height="45" viewBox="0 0 73 45" fill="none" xmlns="http://www.w3.org/2000/svg">
<path d="M14.4528 5.15104C14.3365 4.53524 14.8087 3.96539 15.4354 3.96539H57.2244C57.8612 3.96539 58.3358 4.55269 58.2021 5.1753L50.8984 39.1942C50.7995 39.6551 50.3921 39.9843 49.9207 39.9843H21.8627C21.382 39.9843 20.9693 39.6423 20.88 39.17L14.4528 5.15104Z" fill="#B4771A"/>
<path d="M14.5783 5.815C14.4636 5.20784 14.4062 4.90426 14.4817 4.66474C14.5602 4.41579 14.7329 4.20739 14.963 4.08405C15.1843 3.96539 15.4933 3.96539 16.1112 3.96539H56.5314C57.1633 3.96539 57.4792 3.96539 57.703 4.08735C57.9355 4.21408 58.1082 4.42786 58.1833 4.68178C58.2556 4.92615 58.1893 5.23505 58.0566 5.85285L50.9934 38.7518C50.9032 39.1723 50.858 39.3826 50.7505 39.5424C50.6384 39.7091 50.4787 39.8382 50.2922 39.9128C50.1134 39.9843 49.8983 39.9843 49.4682 39.9843H22.3268C21.8865 39.9843 21.6664 39.9843 21.4848 39.9102C21.2953 39.8329 21.1342 39.6993 21.0231 39.5276C20.9165 39.3628 20.8756 39.1465 20.7939 38.7139L14.5783 5.815Z" fill="url(#paint0_linear_36_1747)"/>
<path d="M14.5783 5.815C14.4636 5.20784 14.4062 4.90426 14.4817 4.66474C14.5602 4.41579 14.7329 4.20739 14.963 4.08405C15.1843 3.96539 15.4933 3.96539 16.1112 3.96539H56.5314C57.1633 3.96539 57.4792 3.96539 57.703 4.08735C57.9355 4.21408 58.1082 4.42786 58.1833 4.68178C58.2556 4.92615 58.1893 5.23505 58.0566 5.85285L50.9934 38.7518C50.9032 39.1723 50.858 39.3826 50.7505 39.5424C50.6384 39.7091 50.4787 39.8382 50.2922 39.9128C50.1134 39.9843 49.8983 39.9843 49.4682 39.9843H22.3268C21.8865 39.9843 21.6664 39.9843 21.4848 39.9102C21.2953 39.8329 21.1342 39.6993 21.0231 39.5276C20.9165 39.3628 20.8756 39.1465 20.7939 38.7139L14.5783 5.815Z" fill="url(#paint1_linear_36_1747)"/>
<path d="M11.898 1.12662C11.8218 0.528926 12.2875 0 12.89 0H59.4426C60.0619 0 60.5323 0.557232 60.4284 1.16778L59.5315 6.43766C59.4497 6.91829 59.0332 7.26988 58.5457 7.26988H13.5627C13.0593 7.26988 12.6345 6.89578 12.5707 6.3965L11.898 1.12662Z" fill="url(#paint2_linear_36_1747)"/>
<g filter="url(#filter0_d_36_1747)">
<path d="M16.0588 1.11691C15.9888 0.522397 16.4533 0 17.0519 0H55.9035C56.5176 0 56.9867 0.548377 56.8914 1.15506L56.1637 5.79143C56.0873 6.27789 55.6682 6.63636 55.1758 6.63636H17.5977C17.0906 6.63636 16.6638 6.25686 16.6046 5.75328L16.0588 1.11691Z" fill="url(#paint3_linear_36_1747)"/>
</g>
<path d="M26.5905 37.7252C26.4951 37.7252 26.4171 37.6862 26.3565 37.6082C26.3045 37.5215 26.2785 37.4175 26.2785 37.2962L26.3045 35.1122C26.3305 34.0548 26.3435 33.2358 26.3435 32.6552C26.3435 30.6358 26.2308 29.0888 26.0055 28.0142C26.1355 27.8148 26.3001 27.7152 26.4995 27.7152C26.8201 27.7152 27.1105 27.7888 27.3705 27.9362C27.6391 28.0748 27.8601 28.2655 28.0335 28.5082C28.3715 29.0108 28.5405 29.5742 28.5405 30.1982C28.5405 30.8482 28.4018 31.4288 28.1245 31.9402C27.8471 32.4515 27.4441 32.8502 26.9155 33.1362L26.9415 34.4492L26.9675 35.1382C26.9761 35.2855 26.9805 35.4978 26.9805 35.7752C27.0065 36.3558 27.0195 36.8282 27.0195 37.1922C27.0195 37.3568 26.9848 37.4868 26.9155 37.5822C26.8461 37.6775 26.7378 37.7252 26.5905 37.7252ZM26.8895 32.5122C27.2275 32.1915 27.4745 31.8578 27.6305 31.5112C27.7951 31.1558 27.8775 30.7572 27.8775 30.3152V30.3022C27.8775 30.1028 27.8558 29.8515 27.8125 29.5482C27.7865 29.4442 27.7388 29.3402 27.6695 29.2362C27.6001 29.1322 27.5611 29.0715 27.5525 29.0542C27.4918 28.9675 27.3315 28.8332 27.0715 28.6512L26.7335 28.4042C26.7335 28.8462 26.7595 29.5308 26.8115 30.4582L26.8895 32.5122ZM31.9086 37.8682C31.5966 37.7642 31.2109 37.7122 30.7516 37.7122C30.6129 37.7988 30.4656 37.8422 30.3096 37.8422C30.2056 37.8422 30.1146 37.7945 30.0366 37.6992C29.9673 37.6125 29.9326 37.5172 29.9326 37.4132C29.9326 36.6852 29.9629 35.7145 30.0236 34.5012C30.0756 33.2098 30.1016 32.2435 30.1016 31.6022V31.5112C30.0496 30.9652 30.0236 30.5578 30.0236 30.2892C30.0236 29.4658 30.1753 29.0542 30.4786 29.0542C30.5653 29.0542 30.6389 29.0888 30.6996 29.1582C30.7689 29.2188 30.8036 29.2925 30.8036 29.3792C30.8036 29.4832 30.7906 29.6478 30.7646 29.8732C30.7386 30.0898 30.7256 30.2545 30.7256 30.3672C30.7256 30.9478 30.7299 31.4722 30.7386 31.9402C30.7473 32.3995 30.7516 32.9195 30.7516 33.5002C30.7083 33.6302 30.6866 33.8122 30.6866 34.0462V34.2022L30.6606 35.2292C30.6433 35.5325 30.6346 35.8792 30.6346 36.2692C30.6346 36.8672 30.7776 37.1662 31.0636 37.1662C31.0809 37.1662 31.1069 37.1662 31.1416 37.1662C31.1849 37.1575 31.2413 37.1532 31.3106 37.1532C31.3886 37.1445 31.4883 37.1402 31.6096 37.1402C32.0776 37.1402 32.3116 37.2702 32.3116 37.5302C32.3116 37.6168 32.2726 37.6905 32.1946 37.7512C32.1166 37.8118 32.0213 37.8508 31.9086 37.8682ZM35.9461 37.7772C35.7468 37.7772 35.5994 37.7468 35.5041 37.6862C35.4088 37.6255 35.3611 37.5128 35.3611 37.3482C35.3611 37.0882 35.3178 36.6462 35.2311 36.0222L35.1791 35.7492L33.8921 35.5542C33.8401 35.7535 33.7664 36.1565 33.6711 36.7632C33.6191 37.1878 33.5368 37.4695 33.4241 37.6082C33.3634 37.6862 33.2768 37.7252 33.1641 37.7252C33.0601 37.7252 32.9648 37.6948 32.8781 37.6342C32.7914 37.5648 32.7481 37.4825 32.7481 37.3872L32.7741 37.3222L32.7871 37.2702C33.3591 35.0428 33.7924 32.8458 34.0871 30.6792C34.0871 30.6445 34.0914 30.5882 34.1001 30.5102C34.1088 30.4235 34.1174 30.3022 34.1261 30.1462C34.1521 29.8255 34.1781 29.5698 34.2041 29.3792C34.2388 29.1885 34.2908 29.0455 34.3601 28.9502H34.8021C34.9234 28.9502 35.0274 28.9805 35.1141 29.0412C35.2008 29.0932 35.2441 29.1712 35.2441 29.2752C35.2441 29.9338 35.3351 30.9132 35.5171 32.2132C35.6904 33.5478 35.7771 34.4838 35.7771 35.0212C35.7771 35.0732 35.7988 35.2075 35.8421 35.4242C35.8854 35.6235 35.9071 35.7535 35.9071 35.8142C35.9071 35.8748 35.9504 36.1348 36.0371 36.5942C36.1151 37.0102 36.1541 37.2788 36.1541 37.4002V37.4132C36.1541 37.6038 36.0848 37.7252 35.9461 37.7772ZM35.0881 35.2812C35.0621 35.1512 35.0491 34.9908 35.0491 34.8002C35.0491 34.0202 34.9798 33.0235 34.8411 31.8102L34.7111 30.4582C34.3384 32.4948 34.0828 34.0332 33.9441 35.0732C34.0741 35.1598 34.4554 35.2292 35.0881 35.2812ZM40.8189 37.6992C40.7149 37.6992 40.6369 37.6732 40.5849 37.6212C40.5329 37.5605 40.4939 37.4608 40.4679 37.3222L40.3899 37.0752V37.0492V37.0102C40.3899 36.7242 40.0909 35.7492 39.4929 34.0852C38.9035 32.4212 38.4399 31.1905 38.1019 30.3932V36.9322L38.1539 37.0232C38.1625 37.0405 38.1799 37.0708 38.2059 37.1142C38.2319 37.1575 38.2449 37.2008 38.2449 37.2442C38.2449 37.3568 38.2059 37.4522 38.1279 37.5302C38.0499 37.6082 37.9545 37.6472 37.8419 37.6472C37.5645 37.6472 37.4259 37.3828 37.4259 36.8542L37.4129 34.6312C37.4042 33.9638 37.3999 33.2185 37.3999 32.3952C37.3999 32.1178 37.4129 31.7148 37.4389 31.1862C37.4649 30.6402 37.4779 30.2372 37.4779 29.9772C37.4779 29.5698 37.6339 29.2492 37.9459 29.0152V29.0932C37.9979 29.0758 38.0325 29.0672 38.0499 29.0672C38.2492 29.0672 38.5005 29.4138 38.8039 30.1072C39.0465 30.6618 39.2632 31.2468 39.4539 31.8622C39.6532 32.4775 39.9132 33.3528 40.2339 34.4882L40.3639 34.9562C40.5632 35.6582 40.7149 36.1608 40.8189 36.4642C40.9922 34.6008 41.0789 32.3995 41.0789 29.8602V29.6912C41.0702 29.6392 41.0659 29.5828 41.0659 29.5222C41.0659 29.2622 41.1699 29.1322 41.3779 29.1322C41.4992 29.1322 41.5902 29.1798 41.6509 29.2752C41.7202 29.3705 41.7549 29.4918 41.7549 29.6392V30.6142C41.7375 31.9488 41.6855 33.3962 41.5989 34.9562C41.5122 36.5162 41.4082 37.3958 41.2869 37.5952C41.0355 37.6645 40.8795 37.6992 40.8189 37.6992ZM44.2186 37.4522L44.2056 36.9452C44.1969 36.7978 44.1926 36.6332 44.1926 36.4512L44.2056 36.0092C44.1796 35.9138 44.1146 34.9648 44.0106 33.1622C43.9066 31.3595 43.8459 30.2025 43.8286 29.6912C43.3259 29.6738 43.0052 29.6218 42.8666 29.5352C42.7712 29.4658 42.7236 29.3878 42.7236 29.3012C42.7236 29.2318 42.7669 29.1712 42.8536 29.1192C42.9489 29.0585 43.0442 29.0282 43.1396 29.0282C43.3822 29.0282 43.6769 29.0455 44.0236 29.0802C44.3529 29.1235 44.6476 29.1452 44.9076 29.1452H45.0116H45.1156C45.3842 29.1452 45.5186 29.2492 45.5186 29.4572C45.5186 29.5612 45.4752 29.6478 45.3886 29.7172C45.3019 29.7778 45.2022 29.8082 45.0896 29.8082C45.0116 29.8082 44.8989 29.7952 44.7516 29.7692L44.4916 29.7172L44.4786 29.7822L44.4656 29.8472C44.4656 30.6185 44.5392 31.8492 44.6866 33.5392C44.8252 35.1252 44.8946 36.3558 44.8946 37.2312C44.8946 37.3352 44.8469 37.4262 44.7516 37.5042C44.6649 37.5822 44.5652 37.6212 44.4526 37.6212L44.2186 37.4522Z" fill="white"/>
<path d="M32.8874 26C32.7487 26 32.6447 25.974 32.5754 25.922C32.5147 25.87 32.4844 25.7833 32.4844 25.662V23.959C32.3717 23.881 32.1594 23.8117 31.8474 23.751C31.5354 23.6903 31.2407 23.6513 30.9634 23.634C30.8681 23.816 30.7987 24.037 30.7554 24.297L30.7034 24.557C30.6947 24.6177 30.6687 24.752 30.6254 24.96C30.5821 25.168 30.5344 25.35 30.4824 25.506C30.4304 25.6533 30.3784 25.7703 30.3264 25.857C29.9971 25.857 29.8064 25.7703 29.7544 25.597C29.8497 25.4583 29.9581 25.051 30.0794 24.375L30.5084 21.996C30.6991 20.8693 30.8724 19.9073 31.0284 19.11C31.1931 18.3127 31.3664 17.6453 31.5484 17.108C31.7477 16.51 31.9384 16.211 32.1204 16.211C32.3024 16.211 32.4411 16.2457 32.5364 16.315C32.5364 16.6617 32.6187 17.498 32.7834 18.824C32.9567 20.124 33.0434 21.0123 33.0434 21.489C33.0434 21.9483 33.0911 22.607 33.1864 23.465C33.2731 24.3403 33.3164 25.038 33.3164 25.558C33.3164 25.8527 33.1734 26 32.8874 26ZM32.2114 23.205C32.2807 23.205 32.3674 23.192 32.4714 23.166C32.4454 22.7847 32.4021 22.3123 32.3414 21.749C32.1421 19.7903 32.0424 18.59 32.0424 18.148V18.044C31.9557 18.1307 31.8344 18.525 31.6784 19.227C31.5311 19.9203 31.3924 20.6657 31.2624 21.463C31.1324 22.2603 31.0631 22.789 31.0544 23.049C31.4184 23.153 31.8041 23.205 32.2114 23.205ZM35.2873 26.078C35.062 26.078 34.9493 25.5103 34.9493 24.375L34.9753 22.321C34.984 21.7143 34.9883 21.034 34.9883 20.28C34.9883 20.0027 34.9623 19.5737 34.9103 18.993C34.867 18.3603 34.8453 17.9747 34.8453 17.836C34.8453 17.7233 34.893 17.6237 34.9883 17.537C35.0837 17.4503 35.1877 17.407 35.3003 17.407C35.6037 17.407 35.894 17.4763 36.1713 17.615C36.4573 17.745 36.7087 17.9313 36.9253 18.174C37.3847 18.7027 37.688 19.2833 37.8353 19.916C37.9133 20.2367 37.9523 20.553 37.9523 20.865C37.9523 20.9777 37.948 21.0817 37.9393 21.177L37.9263 21.528V22.243C37.9263 22.7977 37.909 23.2353 37.8743 23.556C37.8223 23.9893 37.7227 24.375 37.5753 24.713C37.402 25.077 37.1507 25.402 36.8213 25.688C36.6653 25.818 36.466 25.948 36.2233 26.078H35.2873ZM35.8593 25.415C36.0327 25.415 36.193 25.3717 36.3403 25.285C36.4877 25.1897 36.6133 25.064 36.7173 24.908C36.804 24.7693 36.882 24.596 36.9513 24.388C37.0293 24.1713 37.0857 23.9633 37.1203 23.764C37.1983 23.374 37.246 22.9753 37.2633 22.568C37.272 22.464 37.2763 22.3123 37.2763 22.113C37.2763 19.4957 36.7693 18.1307 35.7553 18.018C35.6947 18.408 35.6643 18.8587 35.6643 19.37C35.6643 19.916 35.699 20.8693 35.7683 22.23C35.829 23.4347 35.8593 24.3923 35.8593 25.103V25.415ZM39.7815 26.078C39.5561 26.078 39.4435 25.5103 39.4435 24.375L39.4695 22.321C39.4781 21.7143 39.4825 21.034 39.4825 20.28C39.4825 20.0027 39.4565 19.5737 39.4045 18.993C39.3611 18.3603 39.3395 17.9747 39.3395 17.836C39.3395 17.7233 39.3871 17.6237 39.4825 17.537C39.5778 17.4503 39.6818 17.407 39.7945 17.407C40.0978 17.407 40.3881 17.4763 40.6655 17.615C40.9515 17.745 41.2028 17.9313 41.4195 18.174C41.8788 18.7027 42.1821 19.2833 42.3295 19.916C42.4075 20.2367 42.4465 20.553 42.4465 20.865C42.4465 20.9777 42.4421 21.0817 42.4335 21.177L42.4205 21.528V22.243C42.4205 22.7977 42.4031 23.2353 42.3685 23.556C42.3165 23.9893 42.2168 24.375 42.0695 24.713C41.8961 25.077 41.6448 25.402 41.3155 25.688C41.1595 25.818 40.9601 25.948 40.7175 26.078H39.7815ZM40.3535 25.415C40.5268 25.415 40.6871 25.3717 40.8345 25.285C40.9818 25.1897 41.1075 25.064 41.2115 24.908C41.2981 24.7693 41.3761 24.596 41.4455 24.388C41.5235 24.1713 41.5798 23.9633 41.6145 23.764C41.6925 23.374 41.7401 22.9753 41.7575 22.568C41.7661 22.464 41.7705 22.3123 41.7705 22.113C41.7705 19.4957 41.2635 18.1307 40.2495 18.018C40.1888 18.408 40.1585 18.8587 40.1585 19.37C40.1585 19.916 40.1931 20.8693 40.2625 22.23C40.3231 23.4347 40.3535 24.3923 40.3535 25.103V25.415Z" fill="white"/>
<path d="M31.0982 11.3595C31.0957 11.0821 31.1681 10.8361 31.3155 10.6215C31.4631 10.4281 31.6542 10.3304 31.8889 10.3283C32.2302 10.3252 32.7526 10.2884 33.4559 10.218C34.0525 10.1273 34.5641 10.08 34.9907 10.0761L35.2147 10.0741L35.1752 9.24239C35.1073 8.81632 35.0725 8.50729 35.0707 8.3153C35.0624 7.39801 35.3996 6.93626 36.0822 6.93007C36.2955 6.92813 36.4881 6.99039 36.6599 7.11683C36.832 7.26461 36.9189 7.44516 36.9209 7.65849L36.8653 8.58703L36.81 9.54757C36.8117 9.73956 36.8353 9.98469 36.8807 10.283L37.9998 10.1768C38.5538 10.1078 38.9588 10.0721 39.2148 10.0698C40.4095 10.0589 41.0099 10.3948 41.0161 11.0775C41.0182 11.3121 40.9239 11.505 40.7333 11.6561C40.564 11.8069 40.3513 11.8835 40.0953 11.8859L39.7114 11.8893L38.9117 11.9286C38.6984 11.9305 38.5278 11.9428 38.4 11.9652C37.9947 11.9689 37.6323 12.0042 37.3129 12.0711C37.1426 12.1153 37.0257 12.1591 36.9621 12.2023C36.8771 12.2457 36.835 12.2995 36.8355 12.3635L36.9068 13.1628C36.952 13.4398 36.9765 13.7916 36.9804 14.2182C36.9903 15.3062 36.6752 15.8531 36.0352 15.8589C35.7792 15.8612 35.5651 15.7778 35.3929 15.6087C35.2421 15.4394 35.1655 15.2267 35.1631 14.9707C35.1614 14.7787 35.1906 14.4691 35.2507 14.0419L35.306 13.0814C35.2998 12.3987 35.0407 12.0597 34.5287 12.0644C34.3154 12.0663 33.8892 12.1235 33.2502 12.236C32.6112 12.3485 32.1851 12.4057 31.9717 12.4076C31.7158 12.4099 31.5015 12.3052 31.3289 12.0934C31.1776 11.8814 31.1007 11.6368 31.0982 11.3595Z" fill="white"/>
<defs>
<filter id="filter0_d_36_1747" x="12.0518" y="0" width="48.852" height="14.6364" filterUnits="userSpaceOnUse" color-interpolation-filters="sRGB">
<feFlood flood-opacity="0" result="BackgroundImageFix"/>
<feColorMatrix in="SourceAlpha" type="matrix" values="0 0 0 0 0 0 0 0 0 0 0 0 0 0 0 0 0 0 127 0" result="hardAlpha"/>
<feOffset dy="4"/>
<feGaussianBlur stdDeviation="2"/>
<feComposite in2="hardAlpha" operator="out"/>
<feColorMatrix type="matrix" values="0 0 0 0 0 0 0 0 0 0 0 0 0 0 0 0 0 0 0.25 0"/>
<feBlend mode="normal" in2="BackgroundImageFix" result="effect1_dropShadow_36_1747"/>
<feBlend mode="normal" in="SourceGraphic" in2="effect1_dropShadow_36_1747" result="shape"/>
</filter>
<linearGradient id="paint0_linear_36_1747" x1="36.5" y1="25.1141" x2="50.2879" y2="29.514" gradientUnits="userSpaceOnUse">
<stop stop-color="#A8690A" stop-opacity="0.81"/>
<stop offset="0.939762" stop-color="#6D4303"/>
</linearGradient>
<linearGradient id="paint1_linear_36_1747" x1="38.0466" y1="25.1141" x2="21.4182" y2="30.6942" gradientUnits="userSpaceOnUse">
<stop stop-color="#C28427" stop-opacity="0.4"/>
<stop offset="1" stop-color="#885508"/>
</linearGradient>
<linearGradient id="paint2_linear_36_1747" x1="11.7542" y1="0" x2="60.6271" y2="0" gradientUnits="userSpaceOnUse">
<stop offset="0.00865841" stop-color="#744704"/>
<stop offset="0.510756" stop-color="#CD851A"/>
<stop offset="1" stop-color="#724603"/>
</linearGradient>
<linearGradient id="paint3_linear_36_1747" x1="13.2727" y1="0" x2="59.0636" y2="0" gradientUnits="userSpaceOnUse">
<stop offset="0.00865841" stop-color="#744704"/>
<stop offset="0.510756" stop-color="#CD851A"/>
<stop offset="1" stop-color="#724603"/>
</linearGradient>
</defs>
</svg>
