<svg width="303" height="210" viewBox="0 0 303 210" fill="none" xmlns="http://www.w3.org/2000/svg">
<path d="M163.156 95.7229L164.752 95.4116L164.482 96.6637L163.156 95.7229Z" fill="#377431"/>
<path d="M163.156 91.7229L164.752 91.4116L164.482 92.6637L163.156 91.7229Z" fill="#377431"/>
<path d="M164.156 87.7229L165.752 87.4116L165.482 88.6637L164.156 87.7229Z" fill="#377431"/>
<path d="M164.156 83.7229L165.752 83.4116L165.482 84.6637L164.156 83.7229Z" fill="#377431"/>
<path d="M165.156 80.7229L166.752 80.4116L166.482 81.6637L165.156 80.7229Z" fill="#377431"/>
<path d="M165.156 77.7229L166.752 77.4116L166.482 78.6637L165.156 77.7229Z" fill="#377431"/>
<path d="M166.156 75.7229L167.752 75.4116L167.482 76.6637L166.156 75.7229Z" fill="#377431"/>
<path d="M166.156 73.7229L167.752 73.4116L167.482 74.6637L166.156 73.7229Z" fill="#377431"/>
<path d="M166.156 71.7229L167.752 71.4116L167.482 72.6637L166.156 71.7229Z" fill="#377431"/>
<path d="M167.156 68.7229L168.752 68.4116L168.482 69.6637L167.156 68.7229Z" fill="#377431"/>
<path d="M167.156 66.7229L168.752 66.4116L168.482 67.6637L167.156 66.7229Z" fill="#377431"/>
<path d="M168.726 62.0217L169.917 63.1287L168.746 63.6478L168.726 62.0217Z" fill="#377431"/>
<path d="M115 64.5C115 64.5 127.606 84.375 131 92C134.394 99.625 138.5 111 138.5 111L143.318 132.625L148.423 153.5H135C135 153.5 138.212 131 135 118C131.788 105 115 64.5 115 64.5Z" fill="#377431"/>
<path d="M190.833 85.6841C190.833 85.6841 179.344 100.926 176.103 106.867C172.861 112.809 168.799 121.736 168.799 121.736L163.491 138.901L158 155.441L168.85 156.318C168.85 156.318 167.725 137.921 171.17 127.622C174.616 117.324 190.833 85.6841 190.833 85.6841Z" fill="#377431"/>
<path d="M141 57.5C141 57.5 147.357 71.4834 149.25 80.9902C151.124 90.4037 150.357 95.914 150.625 105.493C150.893 115.059 150.357 120.431 150.625 129.997C150.893 139.576 152 154.5 152 154.5H143.75L142.375 129.997C142.375 129.997 143.854 110.685 143.75 105.493C143.646 100.302 143.75 80.9902 143.75 80.9902L141 57.5Z" fill="#377431"/>
<path d="M161.392 57.5C161.392 57.5 157.997 72.133 157.495 81.6875C156.999 91.1339 158.287 96.4292 158.794 105.875C159.302 115.321 160.093 130.062 160.093 130.062L161.392 154.25H151V130.062L152.696 105.875C152.696 105.875 153.425 91.0317 154.897 81.6875C156.419 72.0262 161.392 57.5 161.392 57.5Z" fill="#377431"/>
<path d="M169.356 57C169.356 57 168.343 99.0267 169.356 118C170.363 136.865 170.696 154.25 170.696 154.25H160.304C160.304 154.25 160.349 136.865 161.356 118C162.369 99.0267 169.356 57 169.356 57Z" fill="#377431"/>
<path d="M118.453 103.332C118.453 103.332 127.423 117.878 131.927 127.821C136.4 137.696 141.399 153.914 141.399 153.914L131.545 157.214L129.568 136.521L118.453 103.332Z" fill="#377431"/>
<path d="M115 64.5C115 64.5 127.606 84.375 131 92C134.394 99.625 138.5 111 138.5 111L143.318 132.625L148.423 153.5H135C135 153.5 138.212 131 135 118C131.788 105 115 64.5 115 64.5Z" fill="#377431"/>
<path d="M190.833 85.6841C190.833 85.6841 179.344 100.926 176.103 106.867C172.861 112.809 168.799 121.736 168.799 121.736L163.491 138.901L158 155.441L168.85 156.318C168.85 156.318 167.725 137.921 171.17 127.622C174.616 117.324 190.833 85.6841 190.833 85.6841Z" fill="#377431"/>
<path d="M141 57.5C141 57.5 147.357 71.4834 149.25 80.9902C151.124 90.4037 150.357 95.914 150.625 105.493C150.893 115.059 150.357 120.431 150.625 129.997C150.893 139.576 152 154.5 152 154.5H143.75L142.375 129.997C142.375 129.997 143.854 110.685 143.75 105.493C143.646 100.302 143.75 80.9902 143.75 80.9902L141 57.5Z" fill="#377431"/>
<path d="M161.392 57.5C161.392 57.5 157.997 72.133 157.495 81.6875C156.999 91.1339 158.287 96.4292 158.794 105.875C159.302 115.321 160.093 130.062 160.093 130.062L161.392 154.25H151V130.062L152.696 105.875C152.696 105.875 153.425 91.0317 154.897 81.6875C156.419 72.0262 161.392 57.5 161.392 57.5Z" fill="#377431"/>
<path d="M169.356 57C169.356 57 168.343 99.0267 169.356 118C170.363 136.865 170.696 154.25 170.696 154.25H160.304C160.304 154.25 160.349 136.865 161.356 118C162.369 99.0267 169.356 57 169.356 57Z" fill="#377431"/>
<path d="M118.453 103.332C118.453 103.332 127.423 117.878 131.927 127.821C136.4 137.696 141.399 153.914 141.399 153.914L131.545 157.214L129.568 136.521L118.453 103.332Z" fill="#377431"/>
<ellipse cx="145.5" cy="117" rx="0.5" ry="1" fill="#A0E79A"/>
<ellipse cx="146.5" cy="119" rx="0.5" ry="1" fill="#A0E79A"/>
<ellipse cx="144.5" cy="126" rx="0.5" ry="1" fill="#A0E79A"/>
<ellipse cx="146.5" cy="124" rx="0.5" ry="1" fill="#A0E79A"/>
<ellipse cx="147.5" cy="131" rx="0.5" ry="1" fill="#A0E79A"/>
<ellipse cx="147.5" cy="137" rx="0.5" ry="1" fill="#A0E79A"/>
<ellipse cx="144.5" cy="138" rx="0.5" ry="1" fill="#A0E79A"/>
<ellipse cx="147.5" cy="116" rx="0.5" ry="1" fill="#A0E79A"/>
<ellipse cx="148.5" cy="112" rx="0.5" ry="1" fill="#A0E79A"/>
<ellipse cx="146.5" cy="113" rx="0.5" ry="1" fill="#A0E79A"/>
<ellipse cx="145.5" cy="110" rx="0.5" ry="1" fill="#A0E79A"/>
<ellipse cx="147.5" cy="108" rx="0.5" ry="1" fill="#A0E79A"/>
<ellipse cx="146.5" cy="104" rx="0.5" ry="1" fill="#A0E79A"/>
<ellipse cx="145.5" cy="102" rx="0.5" ry="1" fill="#A0E79A"/>
<ellipse cx="146.5" cy="102" rx="0.5" ry="1" fill="#A0E79A"/>
<ellipse cx="148.5" cy="100" rx="0.5" ry="1" fill="#A0E79A"/>
<ellipse cx="147.5" cy="96" rx="0.5" ry="1" fill="#A0E79A"/>
<ellipse cx="146.5" cy="98" rx="0.5" ry="1" fill="#A0E79A"/>
<ellipse cx="145.5" cy="92" rx="0.5" ry="1" fill="#A0E79A"/>
<ellipse cx="148.5" cy="93" rx="0.5" ry="1" fill="#A0E79A"/>
<ellipse cx="147.5" cy="89" rx="0.5" ry="1" fill="#A0E79A"/>
<ellipse cx="147.5" cy="87" rx="0.5" ry="1" fill="#A0E79A"/>
<ellipse cx="146.5" cy="87" rx="0.5" ry="1" fill="#A0E79A"/>
<ellipse cx="144.5" cy="84" rx="0.5" ry="1" fill="#A0E79A"/>
<ellipse cx="147.5" cy="82" rx="0.5" ry="1" fill="#A0E79A"/>
<ellipse cx="146.5" cy="79" rx="0.5" ry="1" fill="#A0E79A"/>
<ellipse cx="153.5" cy="131" rx="0.5" ry="1" fill="#A0E79A"/>
<ellipse cx="154.5" cy="130" rx="0.5" ry="1" fill="#A0E79A"/>
<ellipse cx="154.5" cy="132" rx="0.5" ry="1" fill="#A0E79A"/>
<ellipse cx="158.5" cy="136" rx="0.5" ry="1" fill="#A0E79A"/>
<ellipse cx="155.5" cy="137" rx="0.5" ry="1" fill="#A0E79A"/>
<ellipse cx="156.5" cy="132" rx="0.5" ry="1" fill="#A0E79A"/>
<ellipse cx="158.5" cy="130" rx="0.5" ry="1" fill="#A0E79A"/>
<ellipse cx="158.5" cy="128" rx="0.5" ry="1" fill="#A0E79A"/>
<ellipse cx="154.5" cy="125" rx="0.5" ry="1" fill="#A0E79A"/>
<ellipse cx="152.5" cy="123" rx="0.5" ry="1" fill="#A0E79A"/>
<ellipse cx="155.5" cy="121" rx="0.5" ry="1" fill="#A0E79A"/>
<ellipse cx="156.5" cy="120" rx="0.5" ry="1" fill="#A0E79A"/>
<ellipse cx="156.5" cy="116" rx="0.5" ry="1" fill="#A0E79A"/>
<ellipse cx="157.5" cy="113" rx="0.5" ry="1" fill="#A0E79A"/>
<ellipse cx="153.5" cy="116" rx="0.5" ry="1" fill="#A0E79A"/>
<ellipse cx="154.5" cy="113" rx="0.5" ry="1" fill="#A0E79A"/>
<ellipse cx="154.5" cy="108" rx="0.5" ry="1" fill="#A0E79A"/>
<ellipse cx="156.5" cy="110" rx="0.5" ry="1" fill="#A0E79A"/>
<ellipse cx="157.5" cy="105" rx="0.5" ry="1" fill="#A0E79A"/>
<ellipse cx="157.5" cy="103" rx="0.5" ry="1" fill="#A0E79A"/>
<ellipse cx="154.5" cy="101" rx="0.5" ry="1" fill="#A0E79A"/>
<ellipse cx="167.5" cy="81" rx="0.5" ry="1" fill="#A0E79A"/>
<ellipse cx="166.5" cy="88" rx="0.5" ry="1" fill="#A0E79A"/>
<ellipse cx="167.5" cy="90" rx="0.5" ry="1" fill="#A0E79A"/>
<ellipse cx="164.5" cy="97" rx="0.5" ry="1" fill="#A0E79A"/>
<ellipse cx="166.5" cy="98" rx="0.5" ry="1" fill="#A0E79A"/>
<ellipse cx="167.5" cy="104" rx="0.5" ry="1" fill="#A0E79A"/>
<ellipse cx="166.5" cy="104" rx="0.5" ry="1" fill="#A0E79A"/>
<ellipse cx="167.5" cy="106" rx="0.5" ry="1" fill="#A0E79A"/>
<ellipse cx="164.5" cy="111" rx="0.5" ry="1" fill="#A0E79A"/>
<ellipse cx="163.5" cy="113" rx="0.5" ry="1" fill="#A0E79A"/>
<ellipse cx="167.5" cy="119" rx="0.5" ry="1" fill="#A0E79A"/>
<ellipse cx="166.5" cy="120" rx="0.5" ry="1" fill="#A0E79A"/>
<ellipse cx="163.5" cy="124" rx="0.5" ry="1" fill="#A0E79A"/>
<ellipse cx="164.5" cy="126" rx="0.5" ry="1" fill="#A0E79A"/>
<ellipse cx="166.5" cy="115" rx="0.5" ry="1" fill="#A0E79A"/>
<ellipse cx="163.5" cy="134" rx="0.5" ry="1" fill="#A0E79A"/>
<ellipse cx="156.5" cy="100" rx="0.5" ry="1" fill="#A0E79A"/>
<ellipse cx="155.5" cy="94" rx="0.5" ry="1" fill="#A0E79A"/>
<ellipse cx="138.983" cy="129.227" rx="0.5" ry="1" transform="rotate(-17.0145 138.983 129.227)" fill="#A0E79A"/>
<ellipse cx="139.646" cy="127.978" rx="0.5" ry="1" transform="rotate(-17.0145 139.646 127.978)" fill="#A0E79A"/>
<ellipse cx="140.31" cy="126.729" rx="0.5" ry="1" transform="rotate(-17.0145 140.31 126.729)" fill="#A0E79A"/>
<ellipse cx="139.061" cy="126.066" rx="0.5" ry="1" transform="rotate(-17.0145 139.061 126.066)" fill="#A0E79A"/>
<ellipse cx="138.5" cy="121" rx="0.5" ry="1" transform="rotate(-15.367 138.5 121)" fill="#A0E79A"/>
<ellipse cx="136.747" cy="118.097" rx="0.5" ry="1" transform="rotate(-15.367 136.747 118.097)" fill="#A0E79A"/>
<ellipse cx="136.747" cy="115.097" rx="0.5" ry="1" transform="rotate(-15.367 136.747 115.097)" fill="#A0E79A"/>
<ellipse cx="123.747" cy="114.097" rx="0.5" ry="1" transform="rotate(-15.367 123.747 114.097)" fill="#A0E79A"/>
<ellipse cx="125.747" cy="123.097" rx="0.5" ry="1" transform="rotate(-15.367 125.747 123.097)" fill="#A0E79A"/>
<ellipse cx="126.747" cy="121.097" rx="0.5" ry="1" transform="rotate(-15.367 126.747 121.097)" fill="#A0E79A"/>
<ellipse cx="129.747" cy="130.097" rx="0.5" ry="1" transform="rotate(-15.367 129.747 130.097)" fill="#A0E79A"/>
<ellipse cx="129.747" cy="127.097" rx="0.5" ry="1" transform="rotate(-15.367 129.747 127.097)" fill="#A0E79A"/>
<ellipse cx="133.747" cy="136.097" rx="0.5" ry="1" transform="rotate(-15.367 133.747 136.097)" fill="#A0E79A"/>
<ellipse cx="132.747" cy="137.097" rx="0.5" ry="1" transform="rotate(-15.367 132.747 137.097)" fill="#A0E79A"/>
<ellipse cx="131.747" cy="134.097" rx="0.5" ry="1" transform="rotate(-15.367 131.747 134.097)" fill="#A0E79A"/>
<ellipse cx="0.5" cy="1" rx="0.5" ry="1" transform="matrix(-0.964248 -0.265001 -0.265001 0.964248 171.494 120.265)" fill="#A0E79A"/>
<ellipse cx="0.5" cy="1" rx="0.5" ry="1" transform="matrix(-0.964248 -0.265001 -0.265001 0.964248 168.494 123.265)" fill="#A0E79A"/>
<ellipse cx="0.5" cy="1" rx="0.5" ry="1" transform="matrix(-0.964248 -0.265001 -0.265001 0.964248 169.494 125.265)" fill="#A0E79A"/>
<ellipse cx="0.5" cy="1" rx="0.5" ry="1" transform="matrix(-0.964248 -0.265001 -0.265001 0.964248 175.494 115.265)" fill="#A0E79A"/>
<ellipse cx="0.5" cy="1" rx="0.5" ry="1" transform="matrix(-0.964248 -0.265001 -0.265001 0.964248 173.494 116.265)" fill="#A0E79A"/>
<ellipse cx="0.5" cy="1" rx="0.5" ry="1" transform="matrix(-0.964248 -0.265001 -0.265001 0.964248 174.494 113.265)" fill="#A0E79A"/>
<ellipse cx="0.5" cy="1" rx="0.5" ry="1" transform="matrix(-0.964248 -0.265001 -0.265001 0.964248 178.494 108.265)" fill="#A0E79A"/>
<ellipse cx="136.747" cy="110.097" rx="0.5" ry="1" transform="rotate(-15.367 136.747 110.097)" fill="#A0E79A"/>
<ellipse cx="135.747" cy="111.097" rx="0.5" ry="1" transform="rotate(-15.367 135.747 111.097)" fill="#A0E79A"/>
<ellipse cx="133.747" cy="109.097" rx="0.5" ry="1" transform="rotate(-15.367 133.747 109.097)" fill="#A0E79A"/>
<ellipse cx="134.747" cy="105.097" rx="0.5" ry="1" transform="rotate(-15.367 134.747 105.097)" fill="#A0E79A"/>
<ellipse cx="131.747" cy="100.097" rx="0.5" ry="1" transform="rotate(-15.367 131.747 100.097)" fill="#A0E79A"/>
<ellipse cx="129.747" cy="95.0968" rx="0.5" ry="1" transform="rotate(-15.367 129.747 95.0968)" fill="#A0E79A"/>
<ellipse cx="130.747" cy="94.0968" rx="0.5" ry="1" transform="rotate(-15.367 130.747 94.0968)" fill="#A0E79A"/>
<ellipse cx="126.747" cy="90.0968" rx="0.5" ry="1" transform="rotate(-15.367 126.747 90.0968)" fill="#A0E79A"/>
<ellipse cx="125.747" cy="86.0968" rx="0.5" ry="1" transform="rotate(-15.367 125.747 86.0968)" fill="#A0E79A"/>
<ellipse cx="138.747" cy="136.097" rx="0.5" ry="1" transform="rotate(-15.367 138.747 136.097)" fill="#A0E79A"/>
<ellipse cx="140.747" cy="133.097" rx="0.5" ry="1" transform="rotate(-15.367 140.747 133.097)" fill="#A0E79A"/>
<path d="M125.1 113.412L124.692 114.176L124.235 113.44L125.1 113.412Z" fill="#377431"/>
<path d="M125.184 124.833L125.722 124.154L126.041 124.96L125.184 124.833Z" fill="#377431"/>
<path d="M126.118 115.442L125.658 116.176L125.252 115.41L126.118 115.442Z" fill="#377431"/>
<path d="M124.151 121.779L124.735 121.139L124.997 121.965L124.151 121.779Z" fill="#377431"/>
<path d="M127.118 117.442L126.658 118.176L126.252 117.41L127.118 117.442Z" fill="#377431"/>
<path d="M123.151 118.779L123.735 118.139L123.997 118.965L123.151 118.779Z" fill="#377431"/>
<path d="M128.118 119.442L127.658 120.176L127.252 119.41L128.118 119.442Z" fill="#377431"/>
<path d="M122.151 115.779L122.735 115.139L122.997 115.965L122.151 115.779Z" fill="#377431"/>
<path d="M129.074 121.374L128.738 122.172L128.215 121.482L129.074 121.374Z" fill="#377431"/>
<path d="M121.226 112.898L121.699 112.173L122.091 112.945L121.226 112.898Z" fill="#377431"/>
<path d="M130.099 123.398L129.763 124.197L129.24 123.507L130.099 123.398Z" fill="#377431"/>
<path d="M131.099 125.398L130.763 126.197L130.24 125.507L131.099 125.398Z" fill="#377431"/>
<path d="M132.099 127.398L131.763 128.197L131.24 127.507L132.099 127.398Z" fill="#377431"/>
<path d="M133.099 129.398L132.763 130.197L132.24 129.507L133.099 129.398Z" fill="#377431"/>
<path d="M134.099 131.398L133.763 132.197L133.24 131.507L134.099 131.398Z" fill="#377431"/>
<path d="M135.099 134.398L134.763 135.197L134.24 134.507L135.099 134.398Z" fill="#377431"/>
<path d="M136.099 137.398L135.763 138.197L135.24 137.507L136.099 137.398Z" fill="#377431"/>
<path d="M120.226 109.898L120.699 109.173L121.091 109.945L120.226 109.898Z" fill="#377431"/>
<path d="M119.226 106.898L119.699 106.173L120.091 106.945L119.226 106.898Z" fill="#377431"/>
<path d="M122.118 108.446L121.644 109.171L121.253 108.398L122.118 108.446Z" fill="#377431"/>
<path d="M142.315 65.722L142.451 67.09L141.265 66.6084L142.315 65.722Z" fill="#377431"/>
<path d="M141.892 63.2217L141.947 64.0859L141.171 63.702L141.892 63.2217Z" fill="#377431"/>
<path d="M142.892 70.2217L142.947 71.0859L142.171 70.702L142.892 70.2217Z" fill="#377431"/>
<path d="M142.892 73.2217L142.947 74.0859L142.171 73.702L142.892 73.2217Z" fill="#377431"/>
<path d="M143.892 78.2217L143.947 79.0859L143.171 78.702L143.892 78.2217Z" fill="#377431"/>
<path d="M143.892 80.2217L143.947 81.0859L143.171 80.702L143.892 80.2217Z" fill="#377431"/>
<path d="M143.892 83.2217L143.947 84.0859L143.171 83.702L143.892 83.2217Z" fill="#377431"/>
<path d="M143.892 86.2217L143.947 87.0859L143.171 86.702L143.892 86.2217Z" fill="#377431"/>
<path d="M143.892 89.2217L143.947 90.0859L143.171 89.702L143.892 89.2217Z" fill="#377431"/>
<path d="M143.892 92.2217L143.947 93.0859L143.171 92.702L143.892 92.2217Z" fill="#377431"/>
<path d="M143.892 99.2217L143.947 100.086L143.171 99.702L143.892 99.2217Z" fill="#377431"/>
<path d="M143.892 103.222L143.947 104.086L143.171 103.702L143.892 103.222Z" fill="#377431"/>
<path d="M143.892 107.222L143.947 108.086L143.171 107.702L143.892 107.222Z" fill="#377431"/>
<path d="M143.892 111.222L143.947 112.086L143.171 111.702L143.892 111.222Z" fill="#377431"/>
<path d="M143.892 114.222L143.947 115.086L143.171 114.702L143.892 114.222Z" fill="#377431"/>
<path d="M143.286 122.327L142.244 121.688L143.481 121.12L143.286 122.327Z" fill="#377431"/>
<path d="M143.279 125.559L142.237 124.919L143.474 124.352L143.279 125.559Z" fill="#377431"/>
<path d="M143.279 127.559L142.237 126.919L143.474 126.352L143.279 127.559Z" fill="#377431"/>
<path d="M143.279 118.559L142.237 117.919L143.474 117.352L143.279 118.559Z" fill="#377431"/>
<path d="M143.892 95.2217L143.947 96.0859L143.171 95.702L143.892 95.2217Z" fill="#377431"/>
<path d="M144.118 63.4464L143.644 64.1709L143.253 63.3977L144.118 63.4464Z" fill="#377431"/>
<path d="M146.118 68.4464L145.644 69.1709L145.253 68.3977L146.118 68.4464Z" fill="#377431"/>
<path d="M147.118 71.4464L146.644 72.1709L146.253 71.3977L147.118 71.4464Z" fill="#377431"/>
<path d="M148.118 74.4464L147.644 75.1709L147.253 74.3977L148.118 74.4464Z" fill="#377431"/>
<path d="M149.118 77.4464L148.519 78.2337L148.129 77.4605L149.118 77.4464Z" fill="#377431"/>
<path d="M156.118 77.4464L155.644 78.1709L155.253 77.3977L156.118 77.4464Z" fill="#377431"/>
<path d="M157.071 73.3708L156.733 74.1679L156.211 73.4763L157.071 73.3708Z" fill="#377431"/>
<path d="M156.143 79.0893L155.655 80.2395L154.903 79.2415L156.143 79.0893Z" fill="#377431"/>
<path d="M155.586 81.5762L155.098 82.7264L154.346 81.7284L155.586 81.5762Z" fill="#377431"/>
<path d="M155.385 84.39L155.255 85.7209L154.167 84.9435L155.385 84.39Z" fill="#377431"/>
<path d="M154.673 87.4922L154.531 88.9515L153.338 88.099L154.673 87.4922Z" fill="#377431"/>
<path d="M154.673 90.4922L154.531 91.9515L153.338 91.099L154.673 90.4922Z" fill="#377431"/>
<path d="M154.584 93.4284L154.424 95.0769L153.076 94.1139L154.584 93.4284Z" fill="#377431"/>
<path d="M153.89 96.556L153.73 98.2044L152.382 97.2415L153.89 96.556Z" fill="#377431"/>
<path d="M153.89 100.556L153.73 102.204L152.382 101.242L153.89 100.556Z" fill="#377431"/>
<path d="M153.89 103.556L153.73 105.204L152.382 104.242L153.89 103.556Z" fill="#377431"/>
<path d="M153.89 106.556L153.73 108.204L152.382 107.242L153.89 106.556Z" fill="#377431"/>
<path d="M152.89 110.556L152.73 112.204L151.382 111.242L152.89 110.556Z" fill="#377431"/>
<path d="M158.027 71.3036L157.608 72.2918L156.962 71.4344L158.027 71.3036Z" fill="#377431"/>
<path d="M158.363 69.495L157.943 70.4832L157.297 69.6258L158.363 69.495Z" fill="#377431"/>
<path d="M158.791 67.2817L158.541 67.8526L158.173 67.3647L158.791 67.2817Z" fill="#377431"/>
<path d="M158.791 66.2817L158.541 66.8526L158.173 66.3647L158.791 66.2817Z" fill="#377431"/>
<path d="M159.791 63.2817L159.541 63.8526L159.173 63.3647L159.791 63.2817Z" fill="#377431"/>
<path d="M157.429 75.0227L156.782 76.5485L155.784 75.2246L157.429 75.0227Z" fill="#377431"/>
<path d="M149.118 79.4464L148.644 80.1709L148.253 79.3977L149.118 79.4464Z" fill="#377431"/>
<path d="M150.118 82.4464L149.644 83.1709L149.253 82.3977L150.118 82.4464Z" fill="#377431"/>
<path d="M151.172 91.6755L150.418 92.1028L150.425 91.2368L151.172 91.6755Z" fill="#377431"/>
<path d="M151.004 86.5077L149.821 86.9316L149.828 86.0656L151.004 86.5077Z" fill="#377431"/>
<path d="M151.004 93.5077L150.25 93.9349L150.257 93.0689L151.004 93.5077Z" fill="#377431"/>
<path d="M151.004 95.5077L150.25 95.9349L150.257 95.0689L151.004 95.5077Z" fill="#377431"/>
<path d="M151.004 99.5077L150.25 99.9349L150.257 99.0689L151.004 99.5077Z" fill="#377431"/>
<path d="M151.004 103.508L150.25 103.935L150.257 103.069L151.004 103.508Z" fill="#377431"/>
<path d="M151.004 106.508L150.25 106.935L150.257 106.069L151.004 106.508Z" fill="#377431"/>
<path d="M151.004 109.508L150.25 109.935L150.257 109.069L151.004 109.508Z" fill="#377431"/>
<path d="M151.335 112.51L150.333 112.936L150.34 112.07L151.335 112.51Z" fill="#377431"/>
<path d="M151.335 115.51L150.333 115.936L150.34 115.07L151.335 115.51Z" fill="#377431"/>
<path d="M151.335 118.51L150.333 118.936L150.34 118.07L151.335 118.51Z" fill="#377431"/>
<path d="M151.335 121.51L150.333 121.936L150.34 121.07L151.335 121.51Z" fill="#377431"/>
<path d="M151.335 125.51L150.333 125.936L150.34 125.07L151.335 125.51Z" fill="#377431"/>
<path d="M150.335 84.5102L149.333 84.9356L149.34 84.0696L150.335 84.5102Z" fill="#377431"/>
<path d="M150.717 89.5055L150.179 89.9344L150.185 89.0684L150.717 89.5055Z" fill="#377431"/>
<path d="M150.717 97.5055L150.179 97.9344L150.185 97.0684L150.717 97.5055Z" fill="#377431"/>
<path d="M150.717 101.505L150.179 101.934L150.185 101.068L150.717 101.505Z" fill="#377431"/>
<path d="M150.717 104.505L150.179 104.934L150.185 104.068L150.717 104.505Z" fill="#377431"/>
<path d="M151.063 111.508L150.265 111.935L150.272 111.069L151.063 111.508Z" fill="#377431"/>
<path d="M151.063 107.508L150.265 107.935L150.272 107.069L151.063 107.508Z" fill="#377431"/>
<path d="M142.734 75.7162L143.709 75.1218L143.846 75.977L142.734 75.7162Z" fill="#377431"/>
<path d="M143.463 105.655L144.15 105.106L144.287 105.962L143.463 105.655Z" fill="#377431"/>
<path d="M143.486 101.59L143.868 101.09L144.004 101.945L143.486 101.59Z" fill="#377431"/>
<path d="M143.431 109.548L144.086 109.185L143.989 110.046L143.431 109.548Z" fill="#377431"/>
<path d="M143.056 113.497L143.711 113.135L143.614 113.995L143.056 113.497Z" fill="#377431"/>
<path d="M143.056 116.497L143.711 116.135L143.614 116.995L143.056 116.497Z" fill="#377431"/>
<path d="M142.794 120.467L143.646 120.127L143.549 120.988L142.794 120.467Z" fill="#377431"/>
<path d="M140.113 117.425L139.436 118.043L139.224 117.203L140.113 117.425Z" fill="#377431"/>
<path d="M141.375 122.432L140.542 123.09L140.329 122.25L141.375 122.432Z" fill="#377431"/>
<path d="M159.375 104.485L158.542 105.142L158.329 104.303L159.375 104.485Z" fill="#377431"/>
<path d="M159.375 109.485L158.542 110.142L158.329 109.303L159.375 109.485Z" fill="#377431"/>
<path d="M160.016 112.448L158.655 113.155L158.581 111.905L160.016 112.448Z" fill="#377431"/>
<path d="M159.906 115.721L158.545 116.428L158.472 115.179L159.906 115.721Z" fill="#377431"/>
<path d="M159.906 118.721L158.545 119.428L158.472 118.179L159.906 118.721Z" fill="#377431"/>
<path d="M160.454 122.748L159.423 123.284L159.368 122.337L160.454 122.748Z" fill="#377431"/>
<path d="M160.444 125.546L159.413 126.082L159.357 125.136L160.444 125.546Z" fill="#377431"/>
<path d="M160.444 128.546L159.413 129.082L159.357 128.136L160.444 128.546Z" fill="#377431"/>
<path d="M160.444 132.546L159.413 133.082L159.357 132.136L160.444 132.546Z" fill="#377431"/>
<path d="M160.444 120.546L159.413 121.082L159.357 120.136L160.444 120.546Z" fill="#377431"/>
<path d="M159.375 107.485L158.542 108.142L158.329 107.303L159.375 107.485Z" fill="#377431"/>
<path d="M153.146 108.134L152.892 109.164L152.209 108.631L153.146 108.134Z" fill="#377431"/>
<path d="M151.155 114.706L152.184 114.445L152.036 115.299L151.155 114.706Z" fill="#377431"/>
<path d="M151.085 119.493L152.114 119.231L151.966 120.085L151.085 119.493Z" fill="#377431"/>
<path d="M151.085 123.493L152.114 123.231L151.966 124.085L151.085 123.493Z" fill="#377431"/>
<path d="M150.692 127.424L152.038 127.082L151.845 128.2L150.692 127.424Z" fill="#377431"/>
<path d="M151.085 117.493L152.114 117.231L151.966 118.085L151.085 117.493Z" fill="#377431"/>
<path d="M159.375 101.485L158.542 102.142L158.329 101.303L159.375 101.485Z" fill="#377431"/>
<path d="M158.828 98.37L157.655 99.1134L157.443 98.2739L158.828 98.37Z" fill="#377431"/>
<path d="M158.291 95.6205L157.521 96.262L157.309 95.4225L158.291 95.6205Z" fill="#377431"/>
<path d="M158.291 93.4847L157.521 94.1263L157.309 93.2868L158.291 93.4847Z" fill="#377431"/>
<path d="M157.779 90.6819L156.439 90.9739L156.531 90.1128L157.779 90.6819Z" fill="#377431"/>
<path d="M157.779 88.6819L156.439 88.9739L156.531 88.1128L157.779 88.6819Z" fill="#377431"/>
<path d="M157.779 86.6819L156.439 86.9739L156.531 86.1128L157.779 86.6819Z" fill="#377431"/>
<path d="M157.779 83.6819L156.439 83.9739L156.531 83.1128L157.779 83.6819Z" fill="#377431"/>
<path d="M157.779 81.6819L156.439 81.9739L156.531 81.1128L157.779 81.6819Z" fill="#377431"/>
<path d="M158.058 80.3489L157.255 80.92L157.394 79.6209L158.058 80.3489Z" fill="#377431"/>
<path d="M157.825 84.7903L157.212 85.2699L157.327 84.1916L157.825 84.7903Z" fill="#377431"/>
<path d="M157.942 78.5444L157.229 78.945L157.33 78.002L157.942 78.5444Z" fill="#377431"/>
<path d="M158.942 72.639L158.229 73.0396L158.33 72.0966L158.942 72.639Z" fill="#377431"/>
<path d="M159.942 67.639L159.229 68.0396L159.33 67.0966L159.942 67.639Z" fill="#377431"/>
<path d="M158.476 75.6962L157.362 76.0539L157.463 75.1109L158.476 75.6962Z" fill="#377431"/>
<path d="M159.476 70.6962L158.362 71.0539L158.463 70.1109L159.476 70.6962Z" fill="#377431"/>
<path d="M159.476 68.6962L158.362 69.0539L158.463 68.1109L159.476 68.6962Z" fill="#377431"/>
<path d="M160.476 65.6962L159.362 66.0539L159.463 65.1109L160.476 65.6962Z" fill="#377431"/>
<path d="M145.096 65.2945L143.81 66.2834L143.504 64.9868L145.096 65.2945Z" fill="#377431"/>
<path d="M120.118 105.446L119.644 106.171L119.253 105.398L120.118 105.446Z" fill="#377431"/>
<path d="M128.142 133.763L128.738 133.135L128.984 133.966L128.142 133.763Z" fill="#377431"/>
<path d="M129.142 136.763L129.738 136.135L129.984 136.966L129.142 136.763Z" fill="#377431"/>
<path d="M123.118 110.446L122.644 111.171L122.253 110.398L123.118 110.446Z" fill="#377431"/>
<path d="M127.142 130.763L127.738 130.135L127.984 130.966L127.142 130.763Z" fill="#377431"/>
<path d="M124.118 111.446L123.644 112.171L123.253 111.398L124.118 111.446Z" fill="#377431"/>
<path d="M169.35 82.5063L168.337 82.9345L168.341 82.0685L169.35 82.5063Z" fill="#377431"/>
<path d="M169.35 80.5065L168.337 80.9347L168.341 80.0686L169.35 80.5065Z" fill="#377431"/>
<path d="M175.384 119.197L174.312 118.953L174.821 118.252L175.384 119.197Z" fill="#377431"/>
<path d="M177.384 115.197L176.312 114.953L176.821 114.252L177.384 115.197Z" fill="#377431"/>
<path d="M179.384 110.197L178.312 109.953L178.821 109.252L179.384 110.197Z" fill="#377431"/>
<path d="M180.777 107.307L179.4 106.994L180.054 106.094L180.777 107.307Z" fill="#377431"/>
<path d="M182.384 104.197L181.312 103.953L181.821 103.252L182.384 104.197Z" fill="#377431"/>
<path d="M181.384 105.197L180.312 104.953L180.821 104.252L181.384 105.197Z" fill="#377431"/>
<path d="M183.384 102.197L182.312 101.953L182.821 101.252L183.384 102.197Z" fill="#377431"/>
<path d="M181.285 98.4111L182.362 98.6303L181.869 99.3424L181.285 98.4111Z" fill="#377431"/>
<path d="M182.285 96.4111L183.362 96.6303L182.869 97.3424L182.285 96.4111Z" fill="#377431"/>
<path d="M183.285 95.4111L184.362 95.6303L183.869 96.3424L183.285 95.4111Z" fill="#377431"/>
<path d="M183.285 94.4111L184.362 94.6303L183.869 95.3424L183.285 94.4111Z" fill="#377431"/>
<path d="M184.285 93.4111L185.362 93.6303L184.869 94.3424L184.285 93.4111Z" fill="#377431"/>
<path d="M185.285 92.4111L186.362 92.6303L185.869 93.3424L185.285 92.4111Z" fill="#377431"/>
<path d="M186.285 91.4111L187.362 91.6303L186.869 92.3424L186.285 91.4111Z" fill="#377431"/>
<path d="M180.285 99.4111L181.362 99.6303L180.869 100.342L180.285 99.4111Z" fill="#377431"/>
<path d="M179.285 100.411L180.362 100.63L179.869 101.342L179.285 100.411Z" fill="#377431"/>
<path d="M178.285 102.411L179.362 102.63L178.869 103.342L178.285 102.411Z" fill="#377431"/>
<path d="M177.285 103.411L178.362 103.63L177.869 104.342L177.285 103.411Z" fill="#377431"/>
<path d="M176.285 105.411L177.362 105.63L176.869 106.342L176.285 105.411Z" fill="#377431"/>
<path d="M175.285 107.411L176.362 107.63L175.869 108.342L175.285 107.411Z" fill="#377431"/>
<path d="M174.285 109.411L175.362 109.63L174.869 110.342L174.285 109.411Z" fill="#377431"/>
<path d="M173.285 110.411L174.362 110.63L173.869 111.342L173.285 110.411Z" fill="#377431"/>
<path d="M172.285 112.411L173.362 112.63L172.869 113.342L172.285 112.411Z" fill="#377431"/>
<path d="M173.285 111.411L174.362 111.63L173.869 112.342L173.285 111.411Z" fill="#377431"/>
<path d="M171.285 115.411L172.362 115.63L171.869 116.342L171.285 115.411Z" fill="#377431"/>
<path d="M171.285 114.411L172.362 114.63L171.869 115.342L171.285 114.411Z" fill="#377431"/>
<path d="M170.285 116.411L171.362 116.63L170.869 117.342L170.285 116.411Z" fill="#377431"/>
<path d="M169.285 119.411L170.362 119.63L169.869 120.342L169.285 119.411Z" fill="#377431"/>
<path d="M184.384 99.1971L183.312 98.9527L183.821 98.2524L184.384 99.1971Z" fill="#377431"/>
<path d="M185.384 97.1971L184.312 96.9527L184.821 96.2524L185.384 97.1971Z" fill="#377431"/>
<path d="M186.384 95.1971L185.312 94.9527L185.821 94.2524L186.384 95.1971Z" fill="#377431"/>
<path d="M187.384 93.1971L186.312 92.9527L186.821 92.2524L187.384 93.1971Z" fill="#377431"/>
<path d="M170.999 137.269L169.499 137.903L169.505 136.621L170.999 137.269Z" fill="#377431"/>
<path d="M170.999 133.75L169.499 134.384L169.505 133.102L170.999 133.75Z" fill="#377431"/>
<path d="M170.999 130.75L169.499 131.384L169.505 130.102L170.999 130.75Z" fill="#377431"/>
<path d="M171.859 128.254L170.245 128.042L170.899 126.939L171.859 128.254Z" fill="#377431"/>
<path d="M172.477 125.156L170.546 125.253L171.635 123.416L172.477 125.156Z" fill="#377431"/>
<path d="M174.477 121.156L172.546 121.253L173.635 119.416L174.477 121.156Z" fill="#377431"/>
<path d="M176.477 117.156L174.546 117.253L175.635 115.416L176.477 117.156Z" fill="#377431"/>
<path d="M178.477 113.156L176.546 113.253L177.635 111.416L178.477 113.156Z" fill="#377431"/>
<path d="M169.999 111.269L168.499 111.903L168.505 110.621L169.999 111.269Z" fill="#377431"/>
<path d="M170.35 114.506L168.966 115.092L168.972 113.908L170.35 114.506Z" fill="#377431"/>
<path d="M160.932 121.606L162.489 121.137L162.346 122.409L160.932 121.606Z" fill="#377431"/>
<path d="M161.083 113.735L162.64 113.265L162.496 114.538L161.083 113.735Z" fill="#377431"/>
<path d="M161.083 110.735L162.64 110.265L162.496 111.538L161.083 110.735Z" fill="#377431"/>
<path d="M161.083 107.735L162.64 107.265L162.496 108.538L161.083 107.735Z" fill="#377431"/>
<path d="M161.083 109.735L162.64 109.265L162.496 110.538L161.083 109.735Z" fill="#377431"/>
<path d="M162.083 102.735L163.64 102.265L163.496 103.538L162.083 102.735Z" fill="#377431"/>
<path d="M162.099 98.6362L163.695 98.325L163.425 99.577L162.099 98.6362Z" fill="#377431"/>
<path d="M162.156 100.723L163.752 100.412L163.482 101.664L162.156 100.723Z" fill="#377431"/>
<path d="M162.156 104.723L163.752 104.412L163.482 105.664L162.156 104.723Z" fill="#377431"/>
<path d="M160.076 127.679L161.515 127.245L161.383 128.421L160.076 127.679Z" fill="#377431"/>
<path d="M160.076 130.679L161.515 130.245L161.383 131.421L160.076 130.679Z" fill="#377431"/>
<path d="M161.076 115.679L162.515 115.245L162.383 116.421L161.076 115.679Z" fill="#377431"/>
<path d="M161.076 117.679L162.515 117.245L162.383 118.421L161.076 117.679Z" fill="#377431"/>
<path d="M160.076 119.679L161.515 119.245L161.383 120.421L160.076 119.679Z" fill="#377431"/>
<path d="M160.076 123.679L161.515 123.245L161.383 124.421L160.076 123.679Z" fill="#377431"/>
<path d="M169.35 97.5065L168.337 97.9347L168.341 97.0686L169.35 97.5065Z" fill="#377431"/>
<path d="M169.35 99.5065L168.337 99.9347L168.341 99.0686L169.35 99.5065Z" fill="#377431"/>
<path d="M169.35 104.506L168.337 104.935L168.341 104.069L169.35 104.506Z" fill="#377431"/>
<path d="M169.999 106.269L168.499 106.903L168.505 105.621L169.999 106.269Z" fill="#377431"/>
<path d="M169.35 93.5065L168.337 93.9347L168.341 93.0686L169.35 93.5065Z" fill="#377431"/>
<path d="M169.35 88.5065L168.337 88.9347L168.341 88.0686L169.35 88.5065Z" fill="#377431"/>
<path d="M169.35 76.5065L168.337 76.9347L168.341 76.0686L169.35 76.5065Z" fill="#377431"/>
<path d="M169.35 74.5065L168.337 74.9347L168.341 74.0686L169.35 74.5065Z" fill="#377431"/>
<path d="M169.35 71.5065L168.337 71.9347L168.341 71.0686L169.35 71.5065Z" fill="#377431"/>
<path d="M169.933 66.5092L168.482 67.1227L168.488 65.8819L169.933 66.5092Z" fill="#377431"/>
<path d="M169.934 69.7257L168.483 70.3391L168.489 69.0983L169.934 69.7257Z" fill="#377431"/>
<path d="M169.934 72.7257L168.483 73.3391L168.489 72.0983L169.934 72.7257Z" fill="#377431"/>
<path d="M169.934 85.7257L168.483 86.3391L168.489 85.0983L169.934 85.7257Z" fill="#377431"/>
<path d="M169.934 95.7257L168.483 96.3391L168.489 95.0983L169.934 95.7257Z" fill="#377431"/>
<path d="M169.934 101.726L168.483 102.339L168.489 101.098L169.934 101.726Z" fill="#377431"/>
<path d="M169.934 108.726L168.483 109.339L168.489 108.098L169.934 108.726Z" fill="#377431"/>
<path d="M169.934 78.7257L168.483 79.3391L168.489 78.0983L169.934 78.7257Z" fill="#377431"/>
<path d="M169.934 90.7257L168.483 91.3391L168.489 90.0983L169.934 90.7257Z" fill="#377431"/>
<path d="M126.142 127.763L126.738 127.135L126.984 127.966L126.142 127.763Z" fill="#377431"/>
<path d="M117.094 69.0133L116.237 68.8864L116.776 68.2079L117.094 69.0133Z" fill="#377431"/>
<path d="M118.736 71.2013L118.253 70.4824L119.118 70.4236L118.736 71.2013Z" fill="#377431"/>
<path d="M120.567 74.0316L120.084 73.3127L120.948 73.254L120.567 74.0316Z" fill="#377431"/>
<path d="M121.567 76.0316L121.084 75.3127L121.948 75.254L121.567 76.0316Z" fill="#377431"/>
<path d="M122.567 77.0316L122.084 76.3127L122.948 76.254L122.567 77.0316Z" fill="#377431"/>
<path d="M123.567 79.0316L123.084 78.3127L123.948 78.254L123.567 79.0316Z" fill="#377431"/>
<path d="M124.567 81.0316L124.084 80.3127L124.948 80.254L124.567 81.0316Z" fill="#377431"/>
<path d="M125.567 82.0316L125.084 81.3127L125.948 81.254L125.567 82.0316Z" fill="#377431"/>
<path d="M126.567 84.0316L126.084 83.3127L126.948 83.254L126.567 84.0316Z" fill="#377431"/>
<path d="M127.567 86.0316L127.084 85.3127L127.948 85.254L127.567 86.0316Z" fill="#377431"/>
<path d="M128.567 88.0316L128.084 87.3127L128.948 87.254L128.567 88.0316Z" fill="#377431"/>
<path d="M129.567 90.0316L129.084 89.3127L129.948 89.254L129.567 90.0316Z" fill="#377431"/>
<path d="M130.567 91.0316L130.084 90.3127L130.948 90.254L130.567 91.0316Z" fill="#377431"/>
<path d="M131.498 94.04L131.133 93.2549L131.995 93.331L131.498 94.04Z" fill="#377431"/>
<path d="M132.498 96.04L132.133 95.2549L132.995 95.331L132.498 96.04Z" fill="#377431"/>
<path d="M133.498 98.04L133.133 97.2549L133.995 97.331L133.498 98.04Z" fill="#377431"/>
<path d="M134.498 101.04L134.133 100.255L134.995 100.331L134.498 101.04Z" fill="#377431"/>
<path d="M135.498 103.04L135.133 102.255L135.995 102.331L135.498 103.04Z" fill="#377431"/>
<path d="M136.498 106.04L136.133 105.255L136.995 105.331L136.498 106.04Z" fill="#377431"/>
<path d="M137.498 109.04L137.133 108.255L137.995 108.331L137.498 109.04Z" fill="#377431"/>
<path d="M138.498 111.04L138.133 110.255L138.995 110.331L138.498 111.04Z" fill="#377431"/>
<path d="M138.397 113.098L138.509 112.239L139.197 112.766L138.397 113.098Z" fill="#377431"/>
<path d="M139.398 115.056L139.206 114.148L139.896 114.272L139.398 115.056Z" fill="#377431"/>
<path d="M139.492 116.073L139.199 115.258L140.052 115.412L139.492 116.073Z" fill="#377431"/>
<path d="M140.492 120.073L140.199 119.258L141.052 119.412L140.492 120.073Z" fill="#377431"/>
<path d="M141.492 125.073L141.199 124.258L142.052 124.412L141.492 125.073Z" fill="#377431"/>
<path d="M117.567 69.0316L117.084 68.3127L117.948 68.254L117.567 69.0316Z" fill="#377431"/>
<path d="M118.094 71.0133L117.237 70.8864L117.776 70.2079L118.094 71.0133Z" fill="#377431"/>
<path d="M119.094 74.0133L118.237 73.8864L118.776 73.2079L119.094 74.0133Z" fill="#377431"/>
<path d="M120.094 76.0133L119.237 75.8864L119.776 75.2079L120.094 76.0133Z" fill="#377431"/>
<path d="M121.094 79.0133L120.237 78.8864L120.776 78.2079L121.094 79.0133Z" fill="#377431"/>
<path d="M122.094 81.0133L121.237 80.8864L121.776 80.2079L122.094 81.0133Z" fill="#377431"/>
<path d="M123.094 84.0133L122.237 83.8864L122.776 83.2079L123.094 84.0133Z" fill="#377431"/>
<path d="M124.094 86.0133L123.237 85.8864L123.776 85.2079L124.094 86.0133Z" fill="#377431"/>
<path d="M125.094 89.0133L124.237 88.8864L124.776 88.2079L125.094 89.0133Z" fill="#377431"/>
<path d="M126.094 91.0133L125.237 90.8864L125.776 90.2079L126.094 91.0133Z" fill="#377431"/>
<path d="M127.094 94.0133L126.237 93.8864L126.776 93.2079L127.094 94.0133Z" fill="#377431"/>
<path d="M128.094 96.0133L127.237 95.8864L127.776 95.2079L128.094 96.0133Z" fill="#377431"/>
<path d="M129.094 100.013L128.237 99.8864L128.776 99.2079L129.094 100.013Z" fill="#377431"/>
<path d="M130.094 102.013L129.237 101.886L129.776 101.208L130.094 102.013Z" fill="#377431"/>
<path d="M131.094 105.013L130.237 104.886L130.776 104.208L131.094 105.013Z" fill="#377431"/>
<path d="M132.094 107.013L131.237 106.886L131.776 106.208L132.094 107.013Z" fill="#377431"/>
<path d="M133.094 111.013L132.237 110.886L132.776 110.208L133.094 111.013Z" fill="#377431"/>
<path d="M134.094 113.013L133.237 112.886L133.776 112.208L134.094 113.013Z" fill="#377431"/>
<path d="M134.094 114.013L133.237 113.886L133.776 113.208L134.094 114.013Z" fill="#377431"/>
<path d="M135.094 117.013L134.237 116.886L134.776 116.208L135.094 117.013Z" fill="#377431"/>
<path d="M136.094 121.013L135.237 120.886L135.776 120.208L136.094 121.013Z" fill="#377431"/>
<path d="M136.094 122.013L135.237 121.886L135.776 121.208L136.094 122.013Z" fill="#377431"/>
<path d="M136.731 127.902L136.008 127.587L136.643 127.118L136.731 127.902Z" fill="#377431"/>
<path d="M136.472 124.628L135.299 124.116L136.329 123.356L136.472 124.628Z" fill="#377431"/>
<path d="M136.75 129.422L136.127 129.15L136.675 128.746L136.75 129.422Z" fill="#377431"/>
<path d="M136.782 131.865L136.159 131.593L136.706 131.189L136.782 131.865Z" fill="#377431"/>
<path d="M136.782 133.865L136.159 133.593L136.706 133.189L136.782 133.865Z" fill="#377431"/>
<path d="M136.782 135.865L136.159 135.593L136.706 135.189L136.782 135.865Z" fill="#377431"/>
<path d="M135.834 120.114L135.155 119.577L135.959 119.257L135.834 120.114Z" fill="#377431"/>
<path d="M133.094 110.013L132.237 109.886L132.776 109.208L133.094 110.013Z" fill="#377431"/>
<path d="M129.094 99.0133L128.237 98.8864L128.776 98.2079L129.094 99.0133Z" fill="#377431"/>
<path d="M141.893 61.2235L141.949 62.0877L141.173 61.7038L141.893 61.2235Z" fill="#377431"/>
<path d="M143.118 61.4464L142.644 62.1709L142.253 61.3977L143.118 61.4464Z" fill="#377431"/>
<path d="M160.855 61.4209L160.391 61.8372L160.258 61.2409L160.855 61.4209Z" fill="#377431"/>
<g filter="url(#filter0_f_209_119964)">
<path d="M211 198C211 202.971 184.585 205.5 152 205.5C119.415 205.5 93 202.971 93 198C93 193.029 119.415 189 152 189C184.585 189 211 193.029 211 198Z" fill="#D9D9D9"/>
</g>
<path d="M116.242 145.198C116.117 144.579 116.59 144 117.222 144H186.245C186.887 144 187.363 144.597 187.219 145.224L175.178 197.724C175.074 198.178 174.67 198.5 174.203 198.5H127.818C127.342 198.5 126.932 198.164 126.838 197.698L116.242 145.198Z" fill="#B4771A"/>
<path d="M116.377 145.869C116.254 145.256 116.192 144.95 116.266 144.708C116.342 144.456 116.515 144.245 116.746 144.12C116.969 144 117.281 144 117.906 144H185.542C186.182 144 186.502 144 186.727 144.124C186.961 144.253 187.133 144.469 187.206 144.726C187.277 144.973 187.205 145.285 187.062 145.909L175.278 197.289C175.183 197.702 175.135 197.909 175.028 198.066C174.915 198.23 174.756 198.357 174.571 198.43C174.394 198.5 174.182 198.5 173.757 198.5H128.277C127.841 198.5 127.624 198.5 127.444 198.427C127.256 198.351 127.095 198.22 126.984 198.051C126.877 197.888 126.834 197.675 126.747 197.249L116.377 145.869Z" fill="url(#paint0_linear_209_119964)"/>
<path d="M116.377 145.869C116.254 145.256 116.192 144.95 116.266 144.708C116.342 144.456 116.515 144.245 116.746 144.12C116.969 144 117.281 144 117.906 144H185.542C186.182 144 186.502 144 186.727 144.124C186.961 144.253 187.133 144.469 187.206 144.726C187.277 144.973 187.205 145.285 187.062 145.909L175.278 197.289C175.183 197.702 175.135 197.909 175.028 198.066C174.915 198.23 174.756 198.357 174.571 198.43C174.394 198.5 174.182 198.5 173.757 198.5H128.277C127.841 198.5 127.624 198.5 127.444 198.427C127.256 198.351 127.095 198.22 126.984 198.051C126.877 197.888 126.834 197.675 126.747 197.249L116.377 145.869Z" fill="url(#paint1_linear_209_119964)"/>
<g filter="url(#filter1_d_209_119964)">
<path d="M112.155 139.135C112.073 138.535 112.54 138 113.146 138H189.802C190.426 138 190.897 138.565 190.786 139.179L189.149 148.179C189.063 148.654 188.649 149 188.165 149H114.373C113.873 149 113.45 148.631 113.382 148.135L112.155 139.135Z" fill="url(#paint2_linear_209_119964)"/>
</g>
<defs>
<filter id="filter0_f_209_119964" x="89" y="185" width="126" height="24.5" filterUnits="userSpaceOnUse" color-interpolation-filters="sRGB">
<feFlood flood-opacity="0" result="BackgroundImageFix"/>
<feBlend mode="normal" in="SourceGraphic" in2="BackgroundImageFix" result="shape"/>
<feGaussianBlur stdDeviation="2" result="effect1_foregroundBlur_209_119964"/>
</filter>
<filter id="filter1_d_209_119964" x="108.145" y="138" width="86.6566" height="19" filterUnits="userSpaceOnUse" color-interpolation-filters="sRGB">
<feFlood flood-opacity="0" result="BackgroundImageFix"/>
<feColorMatrix in="SourceAlpha" type="matrix" values="0 0 0 0 0 0 0 0 0 0 0 0 0 0 0 0 0 0 127 0" result="hardAlpha"/>
<feOffset dy="4"/>
<feGaussianBlur stdDeviation="2"/>
<feComposite in2="hardAlpha" operator="out"/>
<feColorMatrix type="matrix" values="0 0 0 0 0 0 0 0 0 0 0 0 0 0 0 0 0 0 0.25 0"/>
<feBlend mode="normal" in2="BackgroundImageFix" result="effect1_dropShadow_209_119964"/>
<feBlend mode="normal" in="SourceGraphic" in2="effect1_dropShadow_209_119964" result="shape"/>
</filter>
<linearGradient id="paint0_linear_209_119964" x1="152" y1="176" x2="174" y2="183.5" gradientUnits="userSpaceOnUse">
<stop stop-color="#A8690A" stop-opacity="0.81"/>
<stop offset="0.939762" stop-color="#6D4303"/>
</linearGradient>
<linearGradient id="paint1_linear_209_119964" x1="154.5" y1="176" x2="128" y2="185.5" gradientUnits="userSpaceOnUse">
<stop stop-color="#C28427" stop-opacity="0.4"/>
<stop offset="1" stop-color="#885508"/>
</linearGradient>
<linearGradient id="paint2_linear_209_119964" x1="112" y1="138" x2="191" y2="138" gradientUnits="userSpaceOnUse">
<stop offset="0.00865841" stop-color="#744704"/>
<stop offset="0.510756" stop-color="#CD851A"/>
<stop offset="1" stop-color="#724603"/>
</linearGradient>
</defs>
</svg>
