<svg width="303" height="271" viewBox="0 0 303 271" fill="none" xmlns="http://www.w3.org/2000/svg">
<path d="M162.156 99.7229L163.752 99.4116L163.482 100.664L162.156 99.7229Z" fill="#377431"/>
<path d="M162.156 95.7229L163.752 95.4116L163.482 96.6637L162.156 95.7229Z" fill="#377431"/>
<path d="M163.156 91.7229L164.752 91.4116L164.482 92.6637L163.156 91.7229Z" fill="#377431"/>
<path d="M163.156 87.7229L164.752 87.4116L164.482 88.6637L163.156 87.7229Z" fill="#377431"/>
<path d="M164.156 84.7229L165.752 84.4116L165.482 85.6637L164.156 84.7229Z" fill="#377431"/>
<path d="M164.156 81.7229L165.752 81.4116L165.482 82.6637L164.156 81.7229Z" fill="#377431"/>
<path d="M165.156 79.7229L166.752 79.4116L166.482 80.6637L165.156 79.7229Z" fill="#377431"/>
<path d="M165.156 77.7229L166.752 77.4116L166.482 78.6637L165.156 77.7229Z" fill="#377431"/>
<path d="M165.156 75.7229L166.752 75.4116L166.482 76.6637L165.156 75.7229Z" fill="#377431"/>
<path d="M166.156 72.7229L167.752 72.4116L167.482 73.6637L166.156 72.7229Z" fill="#377431"/>
<path d="M166.156 70.7229L167.752 70.4116L167.482 71.6637L166.156 70.7229Z" fill="#377431"/>
<path d="M167.726 66.0217L168.917 67.1287L167.746 67.6478L167.726 66.0217Z" fill="#377431"/>
<path d="M114 68.5C114 68.5 126.606 88.375 130 96C133.394 103.625 137.5 115 137.5 115L142.318 136.625L147.423 157.5H134C134 157.5 137.212 135 134 122C130.788 109 114 68.5 114 68.5Z" fill="#377431"/>
<path d="M189.833 89.6841C189.833 89.6841 178.344 104.926 175.103 110.867C171.861 116.809 167.799 125.736 167.799 125.736L162.491 142.901L157 159.441L167.85 160.318C167.85 160.318 166.725 141.921 170.17 131.622C173.616 121.324 189.833 89.6841 189.833 89.6841Z" fill="#377431"/>
<path d="M140 61.5C140 61.5 146.357 75.4834 148.25 84.9902C150.124 94.4037 149.357 99.914 149.625 109.493C149.893 119.059 149.357 124.431 149.625 133.997C149.893 143.576 151 158.5 151 158.5H142.75L141.375 133.997C141.375 133.997 142.854 114.685 142.75 109.493C142.646 104.302 142.75 84.9902 142.75 84.9902L140 61.5Z" fill="#377431"/>
<path d="M160.392 61.5C160.392 61.5 156.997 76.133 156.495 85.6875C155.999 95.1339 157.287 100.429 157.794 109.875C158.302 119.321 159.093 134.062 159.093 134.062L160.392 158.25H150V134.062L151.696 109.875C151.696 109.875 152.425 95.0317 153.897 85.6875C155.419 76.0262 160.392 61.5 160.392 61.5Z" fill="#377431"/>
<path d="M168.356 61C168.356 61 167.343 103.027 168.356 122C169.363 140.865 169.696 158.25 169.696 158.25H159.304C159.304 158.25 159.349 140.865 160.356 122C161.369 103.027 168.356 61 168.356 61Z" fill="#377431"/>
<path d="M117.453 107.332C117.453 107.332 126.423 121.878 130.927 131.821C135.4 141.696 140.399 157.914 140.399 157.914L130.545 161.214L128.568 140.521L117.453 107.332Z" fill="#377431"/>
<path d="M114 68.5C114 68.5 126.606 88.375 130 96C133.394 103.625 137.5 115 137.5 115L142.318 136.625L147.423 157.5H134C134 157.5 137.212 135 134 122C130.788 109 114 68.5 114 68.5Z" fill="#377431"/>
<path d="M189.833 89.6841C189.833 89.6841 178.344 104.926 175.103 110.867C171.861 116.809 167.799 125.736 167.799 125.736L162.491 142.901L157 159.441L167.85 160.318C167.85 160.318 166.725 141.921 170.17 131.622C173.616 121.324 189.833 89.6841 189.833 89.6841Z" fill="#377431"/>
<path d="M140 61.5C140 61.5 146.357 75.4834 148.25 84.9902C150.124 94.4037 149.357 99.914 149.625 109.493C149.893 119.059 149.357 124.431 149.625 133.997C149.893 143.576 151 158.5 151 158.5H142.75L141.375 133.997C141.375 133.997 142.854 114.685 142.75 109.493C142.646 104.302 142.75 84.9902 142.75 84.9902L140 61.5Z" fill="#377431"/>
<path d="M160.392 61.5C160.392 61.5 156.997 76.133 156.495 85.6875C155.999 95.1339 157.287 100.429 157.794 109.875C158.302 119.321 159.093 134.062 159.093 134.062L160.392 158.25H150V134.062L151.696 109.875C151.696 109.875 152.425 95.0317 153.897 85.6875C155.419 76.0262 160.392 61.5 160.392 61.5Z" fill="#377431"/>
<path d="M168.356 61C168.356 61 167.343 103.027 168.356 122C169.363 140.865 169.696 158.25 169.696 158.25H159.304C159.304 158.25 159.349 140.865 160.356 122C161.369 103.027 168.356 61 168.356 61Z" fill="#377431"/>
<path d="M117.453 107.332C117.453 107.332 126.423 121.878 130.927 131.821C135.4 141.696 140.399 157.914 140.399 157.914L130.545 161.214L128.568 140.521L117.453 107.332Z" fill="#377431"/>
<ellipse cx="144.5" cy="121" rx="0.5" ry="1" fill="#A0E79A"/>
<ellipse cx="145.5" cy="123" rx="0.5" ry="1" fill="#A0E79A"/>
<ellipse cx="143.5" cy="130" rx="0.5" ry="1" fill="#A0E79A"/>
<ellipse cx="145.5" cy="128" rx="0.5" ry="1" fill="#A0E79A"/>
<ellipse cx="146.5" cy="135" rx="0.5" ry="1" fill="#A0E79A"/>
<ellipse cx="146.5" cy="141" rx="0.5" ry="1" fill="#A0E79A"/>
<ellipse cx="143.5" cy="142" rx="0.5" ry="1" fill="#A0E79A"/>
<ellipse cx="146.5" cy="120" rx="0.5" ry="1" fill="#A0E79A"/>
<ellipse cx="147.5" cy="116" rx="0.5" ry="1" fill="#A0E79A"/>
<ellipse cx="145.5" cy="117" rx="0.5" ry="1" fill="#A0E79A"/>
<ellipse cx="144.5" cy="114" rx="0.5" ry="1" fill="#A0E79A"/>
<ellipse cx="146.5" cy="112" rx="0.5" ry="1" fill="#A0E79A"/>
<ellipse cx="145.5" cy="108" rx="0.5" ry="1" fill="#A0E79A"/>
<ellipse cx="144.5" cy="106" rx="0.5" ry="1" fill="#A0E79A"/>
<ellipse cx="145.5" cy="106" rx="0.5" ry="1" fill="#A0E79A"/>
<ellipse cx="147.5" cy="104" rx="0.5" ry="1" fill="#A0E79A"/>
<ellipse cx="146.5" cy="100" rx="0.5" ry="1" fill="#A0E79A"/>
<ellipse cx="145.5" cy="102" rx="0.5" ry="1" fill="#A0E79A"/>
<ellipse cx="144.5" cy="96" rx="0.5" ry="1" fill="#A0E79A"/>
<ellipse cx="147.5" cy="97" rx="0.5" ry="1" fill="#A0E79A"/>
<ellipse cx="146.5" cy="93" rx="0.5" ry="1" fill="#A0E79A"/>
<ellipse cx="146.5" cy="91" rx="0.5" ry="1" fill="#A0E79A"/>
<ellipse cx="145.5" cy="91" rx="0.5" ry="1" fill="#A0E79A"/>
<ellipse cx="143.5" cy="88" rx="0.5" ry="1" fill="#A0E79A"/>
<ellipse cx="146.5" cy="86" rx="0.5" ry="1" fill="#A0E79A"/>
<ellipse cx="145.5" cy="83" rx="0.5" ry="1" fill="#A0E79A"/>
<ellipse cx="152.5" cy="135" rx="0.5" ry="1" fill="#A0E79A"/>
<ellipse cx="153.5" cy="134" rx="0.5" ry="1" fill="#A0E79A"/>
<ellipse cx="153.5" cy="136" rx="0.5" ry="1" fill="#A0E79A"/>
<ellipse cx="157.5" cy="140" rx="0.5" ry="1" fill="#A0E79A"/>
<ellipse cx="154.5" cy="141" rx="0.5" ry="1" fill="#A0E79A"/>
<ellipse cx="155.5" cy="136" rx="0.5" ry="1" fill="#A0E79A"/>
<ellipse cx="157.5" cy="134" rx="0.5" ry="1" fill="#A0E79A"/>
<ellipse cx="157.5" cy="132" rx="0.5" ry="1" fill="#A0E79A"/>
<ellipse cx="153.5" cy="129" rx="0.5" ry="1" fill="#A0E79A"/>
<ellipse cx="151.5" cy="127" rx="0.5" ry="1" fill="#A0E79A"/>
<ellipse cx="154.5" cy="125" rx="0.5" ry="1" fill="#A0E79A"/>
<ellipse cx="155.5" cy="124" rx="0.5" ry="1" fill="#A0E79A"/>
<ellipse cx="155.5" cy="120" rx="0.5" ry="1" fill="#A0E79A"/>
<ellipse cx="156.5" cy="117" rx="0.5" ry="1" fill="#A0E79A"/>
<ellipse cx="152.5" cy="120" rx="0.5" ry="1" fill="#A0E79A"/>
<ellipse cx="153.5" cy="117" rx="0.5" ry="1" fill="#A0E79A"/>
<ellipse cx="153.5" cy="112" rx="0.5" ry="1" fill="#A0E79A"/>
<ellipse cx="155.5" cy="114" rx="0.5" ry="1" fill="#A0E79A"/>
<ellipse cx="156.5" cy="109" rx="0.5" ry="1" fill="#A0E79A"/>
<ellipse cx="156.5" cy="107" rx="0.5" ry="1" fill="#A0E79A"/>
<ellipse cx="153.5" cy="105" rx="0.5" ry="1" fill="#A0E79A"/>
<ellipse cx="166.5" cy="85" rx="0.5" ry="1" fill="#A0E79A"/>
<ellipse cx="165.5" cy="92" rx="0.5" ry="1" fill="#A0E79A"/>
<ellipse cx="166.5" cy="94" rx="0.5" ry="1" fill="#A0E79A"/>
<ellipse cx="163.5" cy="101" rx="0.5" ry="1" fill="#A0E79A"/>
<ellipse cx="165.5" cy="102" rx="0.5" ry="1" fill="#A0E79A"/>
<ellipse cx="166.5" cy="108" rx="0.5" ry="1" fill="#A0E79A"/>
<ellipse cx="165.5" cy="108" rx="0.5" ry="1" fill="#A0E79A"/>
<ellipse cx="166.5" cy="110" rx="0.5" ry="1" fill="#A0E79A"/>
<ellipse cx="163.5" cy="115" rx="0.5" ry="1" fill="#A0E79A"/>
<ellipse cx="162.5" cy="117" rx="0.5" ry="1" fill="#A0E79A"/>
<ellipse cx="166.5" cy="123" rx="0.5" ry="1" fill="#A0E79A"/>
<ellipse cx="165.5" cy="124" rx="0.5" ry="1" fill="#A0E79A"/>
<ellipse cx="162.5" cy="128" rx="0.5" ry="1" fill="#A0E79A"/>
<ellipse cx="163.5" cy="130" rx="0.5" ry="1" fill="#A0E79A"/>
<ellipse cx="165.5" cy="119" rx="0.5" ry="1" fill="#A0E79A"/>
<ellipse cx="162.5" cy="138" rx="0.5" ry="1" fill="#A0E79A"/>
<ellipse cx="155.5" cy="104" rx="0.5" ry="1" fill="#A0E79A"/>
<ellipse cx="154.5" cy="98" rx="0.5" ry="1" fill="#A0E79A"/>
<ellipse cx="137.983" cy="133.227" rx="0.5" ry="1" transform="rotate(-17.0145 137.983 133.227)" fill="#A0E79A"/>
<ellipse cx="138.646" cy="131.978" rx="0.5" ry="1" transform="rotate(-17.0145 138.646 131.978)" fill="#A0E79A"/>
<ellipse cx="139.31" cy="130.729" rx="0.5" ry="1" transform="rotate(-17.0145 139.31 130.729)" fill="#A0E79A"/>
<ellipse cx="138.061" cy="130.066" rx="0.5" ry="1" transform="rotate(-17.0145 138.061 130.066)" fill="#A0E79A"/>
<ellipse cx="137.5" cy="125" rx="0.5" ry="1" transform="rotate(-15.367 137.5 125)" fill="#A0E79A"/>
<ellipse cx="135.747" cy="122.097" rx="0.5" ry="1" transform="rotate(-15.367 135.747 122.097)" fill="#A0E79A"/>
<ellipse cx="135.747" cy="119.097" rx="0.5" ry="1" transform="rotate(-15.367 135.747 119.097)" fill="#A0E79A"/>
<ellipse cx="122.747" cy="118.097" rx="0.5" ry="1" transform="rotate(-15.367 122.747 118.097)" fill="#A0E79A"/>
<ellipse cx="124.747" cy="127.097" rx="0.5" ry="1" transform="rotate(-15.367 124.747 127.097)" fill="#A0E79A"/>
<ellipse cx="125.747" cy="125.097" rx="0.5" ry="1" transform="rotate(-15.367 125.747 125.097)" fill="#A0E79A"/>
<ellipse cx="128.747" cy="134.097" rx="0.5" ry="1" transform="rotate(-15.367 128.747 134.097)" fill="#A0E79A"/>
<ellipse cx="128.747" cy="131.097" rx="0.5" ry="1" transform="rotate(-15.367 128.747 131.097)" fill="#A0E79A"/>
<ellipse cx="132.747" cy="140.097" rx="0.5" ry="1" transform="rotate(-15.367 132.747 140.097)" fill="#A0E79A"/>
<ellipse cx="131.747" cy="141.097" rx="0.5" ry="1" transform="rotate(-15.367 131.747 141.097)" fill="#A0E79A"/>
<ellipse cx="130.747" cy="138.097" rx="0.5" ry="1" transform="rotate(-15.367 130.747 138.097)" fill="#A0E79A"/>
<ellipse cx="0.5" cy="1" rx="0.5" ry="1" transform="matrix(-0.964248 -0.265001 -0.265001 0.964248 170.494 124.265)" fill="#A0E79A"/>
<ellipse cx="0.5" cy="1" rx="0.5" ry="1" transform="matrix(-0.964248 -0.265001 -0.265001 0.964248 167.494 127.265)" fill="#A0E79A"/>
<ellipse cx="0.5" cy="1" rx="0.5" ry="1" transform="matrix(-0.964248 -0.265001 -0.265001 0.964248 168.494 129.265)" fill="#A0E79A"/>
<ellipse cx="0.5" cy="1" rx="0.5" ry="1" transform="matrix(-0.964248 -0.265001 -0.265001 0.964248 174.494 119.265)" fill="#A0E79A"/>
<ellipse cx="0.5" cy="1" rx="0.5" ry="1" transform="matrix(-0.964248 -0.265001 -0.265001 0.964248 172.494 120.265)" fill="#A0E79A"/>
<ellipse cx="0.5" cy="1" rx="0.5" ry="1" transform="matrix(-0.964248 -0.265001 -0.265001 0.964248 173.494 117.265)" fill="#A0E79A"/>
<ellipse cx="0.5" cy="1" rx="0.5" ry="1" transform="matrix(-0.964248 -0.265001 -0.265001 0.964248 177.494 112.265)" fill="#A0E79A"/>
<ellipse cx="135.747" cy="114.097" rx="0.5" ry="1" transform="rotate(-15.367 135.747 114.097)" fill="#A0E79A"/>
<ellipse cx="134.747" cy="115.097" rx="0.5" ry="1" transform="rotate(-15.367 134.747 115.097)" fill="#A0E79A"/>
<ellipse cx="132.747" cy="113.097" rx="0.5" ry="1" transform="rotate(-15.367 132.747 113.097)" fill="#A0E79A"/>
<ellipse cx="133.747" cy="109.097" rx="0.5" ry="1" transform="rotate(-15.367 133.747 109.097)" fill="#A0E79A"/>
<ellipse cx="130.747" cy="104.097" rx="0.5" ry="1" transform="rotate(-15.367 130.747 104.097)" fill="#A0E79A"/>
<ellipse cx="128.747" cy="99.0968" rx="0.5" ry="1" transform="rotate(-15.367 128.747 99.0968)" fill="#A0E79A"/>
<ellipse cx="129.747" cy="98.0968" rx="0.5" ry="1" transform="rotate(-15.367 129.747 98.0968)" fill="#A0E79A"/>
<ellipse cx="125.747" cy="94.0968" rx="0.5" ry="1" transform="rotate(-15.367 125.747 94.0968)" fill="#A0E79A"/>
<ellipse cx="124.747" cy="90.0968" rx="0.5" ry="1" transform="rotate(-15.367 124.747 90.0968)" fill="#A0E79A"/>
<ellipse cx="137.747" cy="140.097" rx="0.5" ry="1" transform="rotate(-15.367 137.747 140.097)" fill="#A0E79A"/>
<ellipse cx="139.747" cy="137.097" rx="0.5" ry="1" transform="rotate(-15.367 139.747 137.097)" fill="#A0E79A"/>
<path d="M124.1 117.412L123.692 118.176L123.235 117.44L124.1 117.412Z" fill="#377431"/>
<path d="M124.184 128.833L124.722 128.154L125.041 128.96L124.184 128.833Z" fill="#377431"/>
<path d="M125.118 119.442L124.658 120.176L124.252 119.41L125.118 119.442Z" fill="#377431"/>
<path d="M123.151 125.779L123.735 125.139L123.997 125.965L123.151 125.779Z" fill="#377431"/>
<path d="M126.118 121.442L125.658 122.176L125.252 121.41L126.118 121.442Z" fill="#377431"/>
<path d="M122.151 122.779L122.735 122.139L122.997 122.965L122.151 122.779Z" fill="#377431"/>
<path d="M127.118 123.442L126.658 124.176L126.252 123.41L127.118 123.442Z" fill="#377431"/>
<path d="M121.151 119.779L121.735 119.139L121.997 119.965L121.151 119.779Z" fill="#377431"/>
<path d="M128.074 125.374L127.738 126.172L127.215 125.482L128.074 125.374Z" fill="#377431"/>
<path d="M120.226 116.898L120.699 116.173L121.091 116.945L120.226 116.898Z" fill="#377431"/>
<path d="M129.099 127.398L128.763 128.197L128.24 127.507L129.099 127.398Z" fill="#377431"/>
<path d="M130.099 129.398L129.763 130.197L129.24 129.507L130.099 129.398Z" fill="#377431"/>
<path d="M131.099 131.398L130.763 132.197L130.24 131.507L131.099 131.398Z" fill="#377431"/>
<path d="M132.099 133.398L131.763 134.197L131.24 133.507L132.099 133.398Z" fill="#377431"/>
<path d="M133.099 135.398L132.763 136.197L132.24 135.507L133.099 135.398Z" fill="#377431"/>
<path d="M134.099 138.398L133.763 139.197L133.24 138.507L134.099 138.398Z" fill="#377431"/>
<path d="M135.099 141.398L134.763 142.197L134.24 141.507L135.099 141.398Z" fill="#377431"/>
<path d="M119.226 113.898L119.699 113.173L120.091 113.945L119.226 113.898Z" fill="#377431"/>
<path d="M118.226 110.898L118.699 110.173L119.091 110.945L118.226 110.898Z" fill="#377431"/>
<path d="M121.118 112.446L120.644 113.171L120.253 112.398L121.118 112.446Z" fill="#377431"/>
<path d="M141.315 69.722L141.451 71.09L140.265 70.6084L141.315 69.722Z" fill="#377431"/>
<path d="M140.892 67.2217L140.947 68.0859L140.171 67.702L140.892 67.2217Z" fill="#377431"/>
<path d="M141.892 74.2217L141.947 75.0859L141.171 74.702L141.892 74.2217Z" fill="#377431"/>
<path d="M141.892 77.2217L141.947 78.0859L141.171 77.702L141.892 77.2217Z" fill="#377431"/>
<path d="M142.892 82.2217L142.947 83.0859L142.171 82.702L142.892 82.2217Z" fill="#377431"/>
<path d="M142.892 84.2217L142.947 85.0859L142.171 84.702L142.892 84.2217Z" fill="#377431"/>
<path d="M142.892 87.2217L142.947 88.0859L142.171 87.702L142.892 87.2217Z" fill="#377431"/>
<path d="M142.892 90.2217L142.947 91.0859L142.171 90.702L142.892 90.2217Z" fill="#377431"/>
<path d="M142.892 93.2217L142.947 94.0859L142.171 93.702L142.892 93.2217Z" fill="#377431"/>
<path d="M142.892 96.2217L142.947 97.0859L142.171 96.702L142.892 96.2217Z" fill="#377431"/>
<path d="M142.892 103.222L142.947 104.086L142.171 103.702L142.892 103.222Z" fill="#377431"/>
<path d="M142.892 107.222L142.947 108.086L142.171 107.702L142.892 107.222Z" fill="#377431"/>
<path d="M142.892 111.222L142.947 112.086L142.171 111.702L142.892 111.222Z" fill="#377431"/>
<path d="M142.892 115.222L142.947 116.086L142.171 115.702L142.892 115.222Z" fill="#377431"/>
<path d="M142.892 118.222L142.947 119.086L142.171 118.702L142.892 118.222Z" fill="#377431"/>
<path d="M142.286 126.327L141.244 125.688L142.481 125.12L142.286 126.327Z" fill="#377431"/>
<path d="M142.279 129.559L141.237 128.919L142.474 128.352L142.279 129.559Z" fill="#377431"/>
<path d="M142.279 131.559L141.237 130.919L142.474 130.352L142.279 131.559Z" fill="#377431"/>
<path d="M142.279 122.559L141.237 121.919L142.474 121.352L142.279 122.559Z" fill="#377431"/>
<path d="M142.892 99.2217L142.947 100.086L142.171 99.702L142.892 99.2217Z" fill="#377431"/>
<path d="M143.118 67.4464L142.644 68.1709L142.253 67.3977L143.118 67.4464Z" fill="#377431"/>
<path d="M145.118 72.4464L144.644 73.1709L144.253 72.3977L145.118 72.4464Z" fill="#377431"/>
<path d="M146.118 75.4464L145.644 76.1709L145.253 75.3977L146.118 75.4464Z" fill="#377431"/>
<path d="M147.118 78.4464L146.644 79.1709L146.253 78.3977L147.118 78.4464Z" fill="#377431"/>
<path d="M148.118 81.4464L147.519 82.2337L147.129 81.4605L148.118 81.4464Z" fill="#377431"/>
<path d="M155.118 81.4464L154.644 82.1709L154.253 81.3977L155.118 81.4464Z" fill="#377431"/>
<path d="M156.071 77.3708L155.733 78.1679L155.211 77.4763L156.071 77.3708Z" fill="#377431"/>
<path d="M155.143 83.0893L154.655 84.2395L153.903 83.2415L155.143 83.0893Z" fill="#377431"/>
<path d="M154.586 85.5762L154.098 86.7264L153.346 85.7284L154.586 85.5762Z" fill="#377431"/>
<path d="M154.385 88.39L154.255 89.7209L153.167 88.9435L154.385 88.39Z" fill="#377431"/>
<path d="M153.673 91.4922L153.531 92.9515L152.338 92.099L153.673 91.4922Z" fill="#377431"/>
<path d="M153.673 94.4922L153.531 95.9515L152.338 95.099L153.673 94.4922Z" fill="#377431"/>
<path d="M153.584 97.4284L153.424 99.0769L152.076 98.1139L153.584 97.4284Z" fill="#377431"/>
<path d="M152.89 100.556L152.73 102.204L151.382 101.242L152.89 100.556Z" fill="#377431"/>
<path d="M152.89 104.556L152.73 106.204L151.382 105.242L152.89 104.556Z" fill="#377431"/>
<path d="M152.89 107.556L152.73 109.204L151.382 108.242L152.89 107.556Z" fill="#377431"/>
<path d="M152.89 110.556L152.73 112.204L151.382 111.242L152.89 110.556Z" fill="#377431"/>
<path d="M151.89 114.556L151.73 116.204L150.382 115.242L151.89 114.556Z" fill="#377431"/>
<path d="M157.027 75.3036L156.608 76.2918L155.962 75.4344L157.027 75.3036Z" fill="#377431"/>
<path d="M157.363 73.495L156.943 74.4832L156.297 73.6258L157.363 73.495Z" fill="#377431"/>
<path d="M157.791 71.2817L157.541 71.8526L157.173 71.3647L157.791 71.2817Z" fill="#377431"/>
<path d="M157.791 70.2817L157.541 70.8526L157.173 70.3647L157.791 70.2817Z" fill="#377431"/>
<path d="M158.791 67.2817L158.541 67.8526L158.173 67.3647L158.791 67.2817Z" fill="#377431"/>
<path d="M156.429 79.0227L155.782 80.5485L154.784 79.2246L156.429 79.0227Z" fill="#377431"/>
<path d="M148.118 83.4464L147.644 84.1709L147.253 83.3977L148.118 83.4464Z" fill="#377431"/>
<path d="M149.118 86.4464L148.644 87.1709L148.253 86.3977L149.118 86.4464Z" fill="#377431"/>
<path d="M150.172 95.6755L149.418 96.1028L149.425 95.2368L150.172 95.6755Z" fill="#377431"/>
<path d="M150.004 90.5077L148.821 90.9316L148.828 90.0656L150.004 90.5077Z" fill="#377431"/>
<path d="M150.004 97.5077L149.25 97.9349L149.257 97.0689L150.004 97.5077Z" fill="#377431"/>
<path d="M150.004 99.5077L149.25 99.9349L149.257 99.0689L150.004 99.5077Z" fill="#377431"/>
<path d="M150.004 103.508L149.25 103.935L149.257 103.069L150.004 103.508Z" fill="#377431"/>
<path d="M150.004 107.508L149.25 107.935L149.257 107.069L150.004 107.508Z" fill="#377431"/>
<path d="M150.004 110.508L149.25 110.935L149.257 110.069L150.004 110.508Z" fill="#377431"/>
<path d="M150.004 113.508L149.25 113.935L149.257 113.069L150.004 113.508Z" fill="#377431"/>
<path d="M150.335 116.51L149.333 116.936L149.34 116.07L150.335 116.51Z" fill="#377431"/>
<path d="M150.335 119.51L149.333 119.936L149.34 119.07L150.335 119.51Z" fill="#377431"/>
<path d="M150.335 122.51L149.333 122.936L149.34 122.07L150.335 122.51Z" fill="#377431"/>
<path d="M150.335 125.51L149.333 125.936L149.34 125.07L150.335 125.51Z" fill="#377431"/>
<path d="M150.335 129.51L149.333 129.936L149.34 129.07L150.335 129.51Z" fill="#377431"/>
<path d="M149.335 88.5102L148.333 88.9356L148.34 88.0696L149.335 88.5102Z" fill="#377431"/>
<path d="M149.717 93.5055L149.179 93.9344L149.185 93.0684L149.717 93.5055Z" fill="#377431"/>
<path d="M149.717 101.505L149.179 101.934L149.185 101.068L149.717 101.505Z" fill="#377431"/>
<path d="M149.717 105.505L149.179 105.934L149.185 105.068L149.717 105.505Z" fill="#377431"/>
<path d="M149.717 108.505L149.179 108.934L149.185 108.068L149.717 108.505Z" fill="#377431"/>
<path d="M150.063 115.508L149.265 115.935L149.272 115.069L150.063 115.508Z" fill="#377431"/>
<path d="M150.063 111.508L149.265 111.935L149.272 111.069L150.063 111.508Z" fill="#377431"/>
<path d="M141.734 79.7162L142.709 79.1218L142.846 79.977L141.734 79.7162Z" fill="#377431"/>
<path d="M142.463 109.655L143.15 109.106L143.287 109.962L142.463 109.655Z" fill="#377431"/>
<path d="M142.486 105.59L142.868 105.09L143.004 105.945L142.486 105.59Z" fill="#377431"/>
<path d="M142.431 113.548L143.086 113.185L142.989 114.046L142.431 113.548Z" fill="#377431"/>
<path d="M142.056 117.497L142.711 117.135L142.614 117.995L142.056 117.497Z" fill="#377431"/>
<path d="M142.056 120.497L142.711 120.135L142.614 120.995L142.056 120.497Z" fill="#377431"/>
<path d="M141.794 124.467L142.646 124.127L142.549 124.988L141.794 124.467Z" fill="#377431"/>
<path d="M139.113 121.425L138.436 122.043L138.224 121.203L139.113 121.425Z" fill="#377431"/>
<path d="M140.375 126.432L139.542 127.09L139.329 126.25L140.375 126.432Z" fill="#377431"/>
<path d="M158.375 108.485L157.542 109.142L157.329 108.303L158.375 108.485Z" fill="#377431"/>
<path d="M158.375 113.485L157.542 114.142L157.329 113.303L158.375 113.485Z" fill="#377431"/>
<path d="M159.016 116.448L157.655 117.155L157.581 115.905L159.016 116.448Z" fill="#377431"/>
<path d="M158.906 119.721L157.545 120.428L157.472 119.179L158.906 119.721Z" fill="#377431"/>
<path d="M158.906 122.721L157.545 123.428L157.472 122.179L158.906 122.721Z" fill="#377431"/>
<path d="M159.454 126.748L158.423 127.284L158.368 126.337L159.454 126.748Z" fill="#377431"/>
<path d="M159.444 129.546L158.413 130.082L158.357 129.136L159.444 129.546Z" fill="#377431"/>
<path d="M159.444 132.546L158.413 133.082L158.357 132.136L159.444 132.546Z" fill="#377431"/>
<path d="M159.444 136.546L158.413 137.082L158.357 136.136L159.444 136.546Z" fill="#377431"/>
<path d="M159.444 124.546L158.413 125.082L158.357 124.136L159.444 124.546Z" fill="#377431"/>
<path d="M158.375 111.485L157.542 112.142L157.329 111.303L158.375 111.485Z" fill="#377431"/>
<path d="M152.146 112.134L151.892 113.164L151.209 112.631L152.146 112.134Z" fill="#377431"/>
<path d="M150.155 118.706L151.184 118.445L151.036 119.299L150.155 118.706Z" fill="#377431"/>
<path d="M150.085 123.493L151.114 123.231L150.966 124.085L150.085 123.493Z" fill="#377431"/>
<path d="M150.085 127.493L151.114 127.231L150.966 128.085L150.085 127.493Z" fill="#377431"/>
<path d="M149.692 131.424L151.038 131.082L150.845 132.2L149.692 131.424Z" fill="#377431"/>
<path d="M150.085 121.493L151.114 121.231L150.966 122.085L150.085 121.493Z" fill="#377431"/>
<path d="M158.375 105.485L157.542 106.142L157.329 105.303L158.375 105.485Z" fill="#377431"/>
<path d="M157.828 102.37L156.655 103.113L156.443 102.274L157.828 102.37Z" fill="#377431"/>
<path d="M157.291 99.6205L156.521 100.262L156.309 99.4225L157.291 99.6205Z" fill="#377431"/>
<path d="M157.291 97.4847L156.521 98.1263L156.309 97.2868L157.291 97.4847Z" fill="#377431"/>
<path d="M156.779 94.6819L155.439 94.9739L155.531 94.1128L156.779 94.6819Z" fill="#377431"/>
<path d="M156.779 92.6819L155.439 92.9739L155.531 92.1128L156.779 92.6819Z" fill="#377431"/>
<path d="M156.779 90.6819L155.439 90.9739L155.531 90.1128L156.779 90.6819Z" fill="#377431"/>
<path d="M156.779 87.6819L155.439 87.9739L155.531 87.1128L156.779 87.6819Z" fill="#377431"/>
<path d="M156.779 85.6819L155.439 85.9739L155.531 85.1128L156.779 85.6819Z" fill="#377431"/>
<path d="M157.058 84.3489L156.255 84.92L156.394 83.6209L157.058 84.3489Z" fill="#377431"/>
<path d="M156.825 88.7903L156.212 89.2699L156.327 88.1916L156.825 88.7903Z" fill="#377431"/>
<path d="M156.942 82.5444L156.229 82.945L156.33 82.002L156.942 82.5444Z" fill="#377431"/>
<path d="M157.942 76.639L157.229 77.0396L157.33 76.0966L157.942 76.639Z" fill="#377431"/>
<path d="M158.942 71.639L158.229 72.0396L158.33 71.0966L158.942 71.639Z" fill="#377431"/>
<path d="M157.476 79.6962L156.362 80.0539L156.463 79.1109L157.476 79.6962Z" fill="#377431"/>
<path d="M158.476 74.6962L157.362 75.0539L157.463 74.1109L158.476 74.6962Z" fill="#377431"/>
<path d="M158.476 72.6962L157.362 73.0539L157.463 72.1109L158.476 72.6962Z" fill="#377431"/>
<path d="M159.476 69.6962L158.362 70.0539L158.463 69.1109L159.476 69.6962Z" fill="#377431"/>
<path d="M144.096 69.2945L142.81 70.2834L142.504 68.9868L144.096 69.2945Z" fill="#377431"/>
<path d="M119.118 109.446L118.644 110.171L118.253 109.398L119.118 109.446Z" fill="#377431"/>
<path d="M127.142 137.763L127.738 137.135L127.984 137.966L127.142 137.763Z" fill="#377431"/>
<path d="M128.142 140.763L128.738 140.135L128.984 140.966L128.142 140.763Z" fill="#377431"/>
<path d="M122.118 114.446L121.644 115.171L121.253 114.398L122.118 114.446Z" fill="#377431"/>
<path d="M126.142 134.763L126.738 134.135L126.984 134.966L126.142 134.763Z" fill="#377431"/>
<path d="M123.118 115.446L122.644 116.171L122.253 115.398L123.118 115.446Z" fill="#377431"/>
<path d="M168.35 86.5063L167.337 86.9345L167.341 86.0685L168.35 86.5063Z" fill="#377431"/>
<path d="M168.35 84.5065L167.337 84.9347L167.341 84.0686L168.35 84.5065Z" fill="#377431"/>
<path d="M174.384 123.197L173.312 122.953L173.821 122.252L174.384 123.197Z" fill="#377431"/>
<path d="M176.384 119.197L175.312 118.953L175.821 118.252L176.384 119.197Z" fill="#377431"/>
<path d="M178.384 114.197L177.312 113.953L177.821 113.252L178.384 114.197Z" fill="#377431"/>
<path d="M179.777 111.307L178.4 110.994L179.054 110.094L179.777 111.307Z" fill="#377431"/>
<path d="M181.384 108.197L180.312 107.953L180.821 107.252L181.384 108.197Z" fill="#377431"/>
<path d="M180.384 109.197L179.312 108.953L179.821 108.252L180.384 109.197Z" fill="#377431"/>
<path d="M182.384 106.197L181.312 105.953L181.821 105.252L182.384 106.197Z" fill="#377431"/>
<path d="M180.285 102.411L181.362 102.63L180.869 103.342L180.285 102.411Z" fill="#377431"/>
<path d="M181.285 100.411L182.362 100.63L181.869 101.342L181.285 100.411Z" fill="#377431"/>
<path d="M182.285 99.4111L183.362 99.6303L182.869 100.342L182.285 99.4111Z" fill="#377431"/>
<path d="M182.285 98.4111L183.362 98.6303L182.869 99.3424L182.285 98.4111Z" fill="#377431"/>
<path d="M183.285 97.4111L184.362 97.6303L183.869 98.3424L183.285 97.4111Z" fill="#377431"/>
<path d="M184.285 96.4111L185.362 96.6303L184.869 97.3424L184.285 96.4111Z" fill="#377431"/>
<path d="M185.285 95.4111L186.362 95.6303L185.869 96.3424L185.285 95.4111Z" fill="#377431"/>
<path d="M179.285 103.411L180.362 103.63L179.869 104.342L179.285 103.411Z" fill="#377431"/>
<path d="M178.285 104.411L179.362 104.63L178.869 105.342L178.285 104.411Z" fill="#377431"/>
<path d="M177.285 106.411L178.362 106.63L177.869 107.342L177.285 106.411Z" fill="#377431"/>
<path d="M176.285 107.411L177.362 107.63L176.869 108.342L176.285 107.411Z" fill="#377431"/>
<path d="M175.285 109.411L176.362 109.63L175.869 110.342L175.285 109.411Z" fill="#377431"/>
<path d="M174.285 111.411L175.362 111.63L174.869 112.342L174.285 111.411Z" fill="#377431"/>
<path d="M173.285 113.411L174.362 113.63L173.869 114.342L173.285 113.411Z" fill="#377431"/>
<path d="M172.285 114.411L173.362 114.63L172.869 115.342L172.285 114.411Z" fill="#377431"/>
<path d="M171.285 116.411L172.362 116.63L171.869 117.342L171.285 116.411Z" fill="#377431"/>
<path d="M172.285 115.411L173.362 115.63L172.869 116.342L172.285 115.411Z" fill="#377431"/>
<path d="M170.285 119.411L171.362 119.63L170.869 120.342L170.285 119.411Z" fill="#377431"/>
<path d="M170.285 118.411L171.362 118.63L170.869 119.342L170.285 118.411Z" fill="#377431"/>
<path d="M169.285 120.411L170.362 120.63L169.869 121.342L169.285 120.411Z" fill="#377431"/>
<path d="M168.285 123.411L169.362 123.63L168.869 124.342L168.285 123.411Z" fill="#377431"/>
<path d="M183.384 103.197L182.312 102.953L182.821 102.252L183.384 103.197Z" fill="#377431"/>
<path d="M184.384 101.197L183.312 100.953L183.821 100.252L184.384 101.197Z" fill="#377431"/>
<path d="M185.384 99.1971L184.312 98.9527L184.821 98.2524L185.384 99.1971Z" fill="#377431"/>
<path d="M186.384 97.1971L185.312 96.9527L185.821 96.2524L186.384 97.1971Z" fill="#377431"/>
<path d="M169.999 141.269L168.499 141.903L168.505 140.621L169.999 141.269Z" fill="#377431"/>
<path d="M169.999 137.75L168.499 138.384L168.505 137.102L169.999 137.75Z" fill="#377431"/>
<path d="M169.999 134.75L168.499 135.384L168.505 134.102L169.999 134.75Z" fill="#377431"/>
<path d="M170.859 132.254L169.245 132.042L169.899 130.939L170.859 132.254Z" fill="#377431"/>
<path d="M171.477 129.156L169.546 129.253L170.635 127.416L171.477 129.156Z" fill="#377431"/>
<path d="M173.477 125.156L171.546 125.253L172.635 123.416L173.477 125.156Z" fill="#377431"/>
<path d="M175.477 121.156L173.546 121.253L174.635 119.416L175.477 121.156Z" fill="#377431"/>
<path d="M177.477 117.156L175.546 117.253L176.635 115.416L177.477 117.156Z" fill="#377431"/>
<path d="M168.999 115.269L167.499 115.903L167.505 114.621L168.999 115.269Z" fill="#377431"/>
<path d="M169.35 118.506L167.966 119.092L167.972 117.908L169.35 118.506Z" fill="#377431"/>
<path d="M159.932 125.606L161.489 125.137L161.346 126.409L159.932 125.606Z" fill="#377431"/>
<path d="M160.083 117.735L161.64 117.265L161.496 118.538L160.083 117.735Z" fill="#377431"/>
<path d="M160.083 114.735L161.64 114.265L161.496 115.538L160.083 114.735Z" fill="#377431"/>
<path d="M160.083 111.735L161.64 111.265L161.496 112.538L160.083 111.735Z" fill="#377431"/>
<path d="M160.083 113.735L161.64 113.265L161.496 114.538L160.083 113.735Z" fill="#377431"/>
<path d="M161.083 106.735L162.64 106.265L162.496 107.538L161.083 106.735Z" fill="#377431"/>
<path d="M161.099 102.636L162.695 102.325L162.425 103.577L161.099 102.636Z" fill="#377431"/>
<path d="M161.156 104.723L162.752 104.412L162.482 105.664L161.156 104.723Z" fill="#377431"/>
<path d="M161.156 108.723L162.752 108.412L162.482 109.664L161.156 108.723Z" fill="#377431"/>
<path d="M159.076 131.679L160.515 131.245L160.383 132.421L159.076 131.679Z" fill="#377431"/>
<path d="M159.076 134.679L160.515 134.245L160.383 135.421L159.076 134.679Z" fill="#377431"/>
<path d="M160.076 119.679L161.515 119.245L161.383 120.421L160.076 119.679Z" fill="#377431"/>
<path d="M160.076 121.679L161.515 121.245L161.383 122.421L160.076 121.679Z" fill="#377431"/>
<path d="M159.076 123.679L160.515 123.245L160.383 124.421L159.076 123.679Z" fill="#377431"/>
<path d="M159.076 127.679L160.515 127.245L160.383 128.421L159.076 127.679Z" fill="#377431"/>
<path d="M168.35 101.506L167.337 101.935L167.341 101.069L168.35 101.506Z" fill="#377431"/>
<path d="M168.35 103.506L167.337 103.935L167.341 103.069L168.35 103.506Z" fill="#377431"/>
<path d="M168.35 108.506L167.337 108.935L167.341 108.069L168.35 108.506Z" fill="#377431"/>
<path d="M168.999 110.269L167.499 110.903L167.505 109.621L168.999 110.269Z" fill="#377431"/>
<path d="M168.35 97.5065L167.337 97.9347L167.341 97.0686L168.35 97.5065Z" fill="#377431"/>
<path d="M168.35 92.5065L167.337 92.9347L167.341 92.0686L168.35 92.5065Z" fill="#377431"/>
<path d="M168.35 80.5065L167.337 80.9347L167.341 80.0686L168.35 80.5065Z" fill="#377431"/>
<path d="M168.35 78.5065L167.337 78.9347L167.341 78.0686L168.35 78.5065Z" fill="#377431"/>
<path d="M168.35 75.5065L167.337 75.9347L167.341 75.0686L168.35 75.5065Z" fill="#377431"/>
<path d="M168.933 70.5092L167.482 71.1227L167.488 69.8819L168.933 70.5092Z" fill="#377431"/>
<path d="M168.934 73.7257L167.483 74.3391L167.489 73.0983L168.934 73.7257Z" fill="#377431"/>
<path d="M168.934 76.7257L167.483 77.3391L167.489 76.0983L168.934 76.7257Z" fill="#377431"/>
<path d="M168.934 89.7257L167.483 90.3391L167.489 89.0983L168.934 89.7257Z" fill="#377431"/>
<path d="M168.934 99.7257L167.483 100.339L167.489 99.0983L168.934 99.7257Z" fill="#377431"/>
<path d="M168.934 105.726L167.483 106.339L167.489 105.098L168.934 105.726Z" fill="#377431"/>
<path d="M168.934 112.726L167.483 113.339L167.489 112.098L168.934 112.726Z" fill="#377431"/>
<path d="M168.934 82.7257L167.483 83.3391L167.489 82.0983L168.934 82.7257Z" fill="#377431"/>
<path d="M168.934 94.7257L167.483 95.3391L167.489 94.0983L168.934 94.7257Z" fill="#377431"/>
<path d="M125.142 131.763L125.738 131.135L125.984 131.966L125.142 131.763Z" fill="#377431"/>
<path d="M116.094 73.0133L115.237 72.8864L115.776 72.2079L116.094 73.0133Z" fill="#377431"/>
<path d="M117.736 75.2013L117.253 74.4824L118.118 74.4236L117.736 75.2013Z" fill="#377431"/>
<path d="M119.567 78.0316L119.084 77.3127L119.948 77.254L119.567 78.0316Z" fill="#377431"/>
<path d="M120.567 80.0316L120.084 79.3127L120.948 79.254L120.567 80.0316Z" fill="#377431"/>
<path d="M121.567 81.0316L121.084 80.3127L121.948 80.254L121.567 81.0316Z" fill="#377431"/>
<path d="M122.567 83.0316L122.084 82.3127L122.948 82.254L122.567 83.0316Z" fill="#377431"/>
<path d="M123.567 85.0316L123.084 84.3127L123.948 84.254L123.567 85.0316Z" fill="#377431"/>
<path d="M124.567 86.0316L124.084 85.3127L124.948 85.254L124.567 86.0316Z" fill="#377431"/>
<path d="M125.567 88.0316L125.084 87.3127L125.948 87.254L125.567 88.0316Z" fill="#377431"/>
<path d="M126.567 90.0316L126.084 89.3127L126.948 89.254L126.567 90.0316Z" fill="#377431"/>
<path d="M127.567 92.0316L127.084 91.3127L127.948 91.254L127.567 92.0316Z" fill="#377431"/>
<path d="M128.567 94.0316L128.084 93.3127L128.948 93.254L128.567 94.0316Z" fill="#377431"/>
<path d="M129.567 95.0316L129.084 94.3127L129.948 94.254L129.567 95.0316Z" fill="#377431"/>
<path d="M130.498 98.04L130.133 97.2549L130.995 97.331L130.498 98.04Z" fill="#377431"/>
<path d="M131.498 100.04L131.133 99.2549L131.995 99.331L131.498 100.04Z" fill="#377431"/>
<path d="M132.498 102.04L132.133 101.255L132.995 101.331L132.498 102.04Z" fill="#377431"/>
<path d="M133.498 105.04L133.133 104.255L133.995 104.331L133.498 105.04Z" fill="#377431"/>
<path d="M134.498 107.04L134.133 106.255L134.995 106.331L134.498 107.04Z" fill="#377431"/>
<path d="M135.498 110.04L135.133 109.255L135.995 109.331L135.498 110.04Z" fill="#377431"/>
<path d="M136.498 113.04L136.133 112.255L136.995 112.331L136.498 113.04Z" fill="#377431"/>
<path d="M137.498 115.04L137.133 114.255L137.995 114.331L137.498 115.04Z" fill="#377431"/>
<path d="M137.397 117.098L137.509 116.239L138.197 116.766L137.397 117.098Z" fill="#377431"/>
<path d="M138.398 119.056L138.206 118.148L138.896 118.272L138.398 119.056Z" fill="#377431"/>
<path d="M138.492 120.073L138.199 119.258L139.052 119.412L138.492 120.073Z" fill="#377431"/>
<path d="M139.492 124.073L139.199 123.258L140.052 123.412L139.492 124.073Z" fill="#377431"/>
<path d="M140.492 129.073L140.199 128.258L141.052 128.412L140.492 129.073Z" fill="#377431"/>
<path d="M116.567 73.0316L116.084 72.3127L116.948 72.254L116.567 73.0316Z" fill="#377431"/>
<path d="M117.094 75.0133L116.237 74.8864L116.776 74.2079L117.094 75.0133Z" fill="#377431"/>
<path d="M118.094 78.0133L117.237 77.8864L117.776 77.2079L118.094 78.0133Z" fill="#377431"/>
<path d="M119.094 80.0133L118.237 79.8864L118.776 79.2079L119.094 80.0133Z" fill="#377431"/>
<path d="M120.094 83.0133L119.237 82.8864L119.776 82.2079L120.094 83.0133Z" fill="#377431"/>
<path d="M121.094 85.0133L120.237 84.8864L120.776 84.2079L121.094 85.0133Z" fill="#377431"/>
<path d="M122.094 88.0133L121.237 87.8864L121.776 87.2079L122.094 88.0133Z" fill="#377431"/>
<path d="M123.094 90.0133L122.237 89.8864L122.776 89.2079L123.094 90.0133Z" fill="#377431"/>
<path d="M124.094 93.0133L123.237 92.8864L123.776 92.2079L124.094 93.0133Z" fill="#377431"/>
<path d="M125.094 95.0133L124.237 94.8864L124.776 94.2079L125.094 95.0133Z" fill="#377431"/>
<path d="M126.094 98.0133L125.237 97.8864L125.776 97.2079L126.094 98.0133Z" fill="#377431"/>
<path d="M127.094 100.013L126.237 99.8864L126.776 99.2079L127.094 100.013Z" fill="#377431"/>
<path d="M128.094 104.013L127.237 103.886L127.776 103.208L128.094 104.013Z" fill="#377431"/>
<path d="M129.094 106.013L128.237 105.886L128.776 105.208L129.094 106.013Z" fill="#377431"/>
<path d="M130.094 109.013L129.237 108.886L129.776 108.208L130.094 109.013Z" fill="#377431"/>
<path d="M131.094 111.013L130.237 110.886L130.776 110.208L131.094 111.013Z" fill="#377431"/>
<path d="M132.094 115.013L131.237 114.886L131.776 114.208L132.094 115.013Z" fill="#377431"/>
<path d="M133.094 117.013L132.237 116.886L132.776 116.208L133.094 117.013Z" fill="#377431"/>
<path d="M133.094 118.013L132.237 117.886L132.776 117.208L133.094 118.013Z" fill="#377431"/>
<path d="M134.094 121.013L133.237 120.886L133.776 120.208L134.094 121.013Z" fill="#377431"/>
<path d="M135.094 125.013L134.237 124.886L134.776 124.208L135.094 125.013Z" fill="#377431"/>
<path d="M135.094 126.013L134.237 125.886L134.776 125.208L135.094 126.013Z" fill="#377431"/>
<path d="M135.731 131.902L135.008 131.587L135.643 131.118L135.731 131.902Z" fill="#377431"/>
<path d="M135.472 128.628L134.299 128.116L135.329 127.356L135.472 128.628Z" fill="#377431"/>
<path d="M135.75 133.422L135.127 133.15L135.675 132.746L135.75 133.422Z" fill="#377431"/>
<path d="M135.782 135.865L135.159 135.593L135.706 135.189L135.782 135.865Z" fill="#377431"/>
<path d="M135.782 137.865L135.159 137.593L135.706 137.189L135.782 137.865Z" fill="#377431"/>
<path d="M135.782 139.865L135.159 139.593L135.706 139.189L135.782 139.865Z" fill="#377431"/>
<path d="M134.834 124.114L134.155 123.577L134.959 123.257L134.834 124.114Z" fill="#377431"/>
<path d="M132.094 114.013L131.237 113.886L131.776 113.208L132.094 114.013Z" fill="#377431"/>
<path d="M128.094 103.013L127.237 102.886L127.776 102.208L128.094 103.013Z" fill="#377431"/>
<path d="M140.893 65.2235L140.949 66.0877L140.173 65.7038L140.893 65.2235Z" fill="#377431"/>
<path d="M142.118 65.4464L141.644 66.1709L141.253 65.3977L142.118 65.4464Z" fill="#377431"/>
<path d="M159.855 65.4209L159.391 65.8372L159.258 65.2409L159.855 65.4209Z" fill="#377431"/>
<g filter="url(#filter0_f_61_73753)">
<path d="M210 202C210 206.971 183.585 209.5 151 209.5C118.415 209.5 92 206.971 92 202C92 197.029 118.415 193 151 193C183.585 193 210 197.029 210 202Z" fill="#D9D9D9"/>
</g>
<path d="M115.242 149.198C115.117 148.579 115.59 148 116.222 148H185.245C185.887 148 186.363 148.597 186.219 149.224L174.178 201.724C174.074 202.178 173.67 202.5 173.203 202.5H126.818C126.342 202.5 125.932 202.164 125.838 201.698L115.242 149.198Z" fill="#B4771A"/>
<path d="M115.377 149.869C115.254 149.256 115.192 148.95 115.266 148.708C115.342 148.456 115.515 148.245 115.746 148.12C115.969 148 116.281 148 116.906 148H184.542C185.182 148 185.502 148 185.727 148.124C185.961 148.253 186.133 148.469 186.206 148.726C186.277 148.973 186.205 149.285 186.062 149.909L174.278 201.289C174.183 201.702 174.135 201.909 174.028 202.066C173.915 202.23 173.756 202.357 173.571 202.43C173.394 202.5 173.182 202.5 172.757 202.5H127.277C126.841 202.5 126.624 202.5 126.444 202.427C126.256 202.351 126.095 202.22 125.984 202.051C125.877 201.888 125.834 201.675 125.747 201.249L115.377 149.869Z" fill="url(#paint0_linear_61_73753)"/>
<path d="M115.377 149.869C115.254 149.256 115.192 148.95 115.266 148.708C115.342 148.456 115.515 148.245 115.746 148.12C115.969 148 116.281 148 116.906 148H184.542C185.182 148 185.502 148 185.727 148.124C185.961 148.253 186.133 148.469 186.206 148.726C186.277 148.973 186.205 149.285 186.062 149.909L174.278 201.289C174.183 201.702 174.135 201.909 174.028 202.066C173.915 202.23 173.756 202.357 173.571 202.43C173.394 202.5 173.182 202.5 172.757 202.5H127.277C126.841 202.5 126.624 202.5 126.444 202.427C126.256 202.351 126.095 202.22 125.984 202.051C125.877 201.888 125.834 201.675 125.747 201.249L115.377 149.869Z" fill="url(#paint1_linear_61_73753)"/>
<g filter="url(#filter1_d_61_73753)">
<path d="M111.155 143.135C111.073 142.535 111.54 142 112.146 142H188.802C189.426 142 189.897 142.565 189.786 143.179L188.149 152.179C188.063 152.654 187.649 153 187.165 153H113.373C112.873 153 112.45 152.631 112.382 152.135L111.155 143.135Z" fill="url(#paint2_linear_61_73753)"/>
</g>
<defs>
<filter id="filter0_f_61_73753" x="88" y="189" width="126" height="24.5" filterUnits="userSpaceOnUse" color-interpolation-filters="sRGB">
<feFlood flood-opacity="0" result="BackgroundImageFix"/>
<feBlend mode="normal" in="SourceGraphic" in2="BackgroundImageFix" result="shape"/>
<feGaussianBlur stdDeviation="2" result="effect1_foregroundBlur_61_73753"/>
</filter>
<filter id="filter1_d_61_73753" x="107.145" y="142" width="86.6567" height="19" filterUnits="userSpaceOnUse" color-interpolation-filters="sRGB">
<feFlood flood-opacity="0" result="BackgroundImageFix"/>
<feColorMatrix in="SourceAlpha" type="matrix" values="0 0 0 0 0 0 0 0 0 0 0 0 0 0 0 0 0 0 127 0" result="hardAlpha"/>
<feOffset dy="4"/>
<feGaussianBlur stdDeviation="2"/>
<feComposite in2="hardAlpha" operator="out"/>
<feColorMatrix type="matrix" values="0 0 0 0 0 0 0 0 0 0 0 0 0 0 0 0 0 0 0.25 0"/>
<feBlend mode="normal" in2="BackgroundImageFix" result="effect1_dropShadow_61_73753"/>
<feBlend mode="normal" in="SourceGraphic" in2="effect1_dropShadow_61_73753" result="shape"/>
</filter>
<linearGradient id="paint0_linear_61_73753" x1="151" y1="180" x2="173" y2="187.5" gradientUnits="userSpaceOnUse">
<stop stop-color="#A8690A" stop-opacity="0.81"/>
<stop offset="0.939762" stop-color="#6D4303"/>
</linearGradient>
<linearGradient id="paint1_linear_61_73753" x1="153.5" y1="180" x2="127" y2="189.5" gradientUnits="userSpaceOnUse">
<stop stop-color="#C28427" stop-opacity="0.4"/>
<stop offset="1" stop-color="#885508"/>
</linearGradient>
<linearGradient id="paint2_linear_61_73753" x1="111" y1="142" x2="190" y2="142" gradientUnits="userSpaceOnUse">
<stop offset="0.00865841" stop-color="#744704"/>
<stop offset="0.510756" stop-color="#CD851A"/>
<stop offset="1" stop-color="#724603"/>
</linearGradient>
</defs>
</svg>
