<svg width="32" height="34" viewBox="0 0 32 34" fill="none" xmlns="http://www.w3.org/2000/svg">
<path d="M27.4258 14.9204L21.2401 10.8917L27.2872 7.32578L27.4258 14.9204Z" fill="#377D87"/>
<mask id="path-2-inside-1_103_117492" fill="white">
<path fill-rule="evenodd" clip-rule="evenodd" d="M24.9037 10.1993L25.6941 9.55838C22.6323 4.55464 16.4864 2.53842 11.049 5.07544C4.94674 7.92266 2.04771 15.4264 4.57378 21.8356C7.09986 28.2448 14.0945 31.1323 20.1967 28.2851C24.0081 26.5067 26.5699 22.9118 27.3406 18.9016C27.132 18.9128 26.8984 18.9252 26.6368 18.9392C26.5335 18.9447 26.4346 18.95 26.3399 18.9551C25.5819 22.5567 23.2496 25.7592 19.83 27.3547C14.2476 29.9594 7.81149 27.3282 5.48 21.4128C3.14851 15.4973 5.83327 8.61046 11.4156 6.00579C16.4133 3.67394 22.0953 5.53855 24.9037 10.1993Z"/>
</mask>
<path fill-rule="evenodd" clip-rule="evenodd" d="M24.9037 10.1993L25.6941 9.55838C22.6323 4.55464 16.4864 2.53842 11.049 5.07544C4.94674 7.92266 2.04771 15.4264 4.57378 21.8356C7.09986 28.2448 14.0945 31.1323 20.1967 28.2851C24.0081 26.5067 26.5699 22.9118 27.3406 18.9016C27.132 18.9128 26.8984 18.9252 26.6368 18.9392C26.5335 18.9447 26.4346 18.95 26.3399 18.9551C25.5819 22.5567 23.2496 25.7592 19.83 27.3547C14.2476 29.9594 7.81149 27.3282 5.48 21.4128C3.14851 15.4973 5.83327 8.61046 11.4156 6.00579C16.4133 3.67394 22.0953 5.53855 24.9037 10.1993Z" fill="black"/>
<path d="M24.9037 10.1993L24.0702 10.7696L24.6257 11.6914L25.4823 10.9968L24.9037 10.1993ZM25.6941 9.55838L26.2727 10.3559L27.0024 9.76418L26.524 8.98241L25.6941 9.55838ZM11.049 5.07544L10.6823 4.1451L11.049 5.07544ZM27.3406 18.9016L28.2988 19.0621L28.5382 17.8166L27.3318 17.881L27.3406 18.9016ZM26.6368 18.9392L26.628 17.9186L26.628 17.9186L26.6368 18.9392ZM26.3399 18.9551L26.3311 17.9345L25.5539 17.976L25.3855 18.7759L26.3399 18.9551ZM11.4156 6.00579L11.049 5.07544L11.4156 6.00579ZM25.4823 10.9968L26.2727 10.3559L25.1155 8.76085L24.3251 9.40176L25.4823 10.9968ZM26.524 8.98241C23.224 3.58929 16.5825 1.39215 10.6823 4.1451L11.4156 6.00579C16.3903 3.6847 22.0406 5.51998 24.8641 10.1344L26.524 8.98241ZM10.6823 4.1451C4.06021 7.23487 0.946904 15.3556 3.66757 22.2584L5.48 21.4128C3.14851 15.4973 5.83327 8.61046 11.4156 6.00579L10.6823 4.1451ZM3.66757 22.2584C6.38824 29.1613 13.9413 32.3052 20.5634 29.2154L19.83 27.3547C14.2476 29.9594 7.81149 27.3282 5.48 21.4128L3.66757 22.2584ZM20.5634 29.2154C24.6975 27.2865 27.467 23.3899 28.2988 19.0621L26.3825 18.7412C25.6728 22.4337 23.3187 25.7269 19.83 27.3547L20.5634 29.2154ZM27.3318 17.881C27.1232 17.8922 26.8896 17.9046 26.628 17.9186L26.6456 19.9598C26.9072 19.9458 27.1409 19.9333 27.3495 19.9222L27.3318 17.881ZM26.628 17.9186C26.5247 17.9241 26.4258 17.9294 26.3311 17.9345L26.3487 19.9756C26.4434 19.9706 26.5423 19.9653 26.6456 19.9598L26.628 17.9186ZM20.1967 28.2851C23.9326 26.542 26.4709 23.0465 27.2943 19.1342L25.3855 18.7759C24.6929 22.0669 22.5667 24.9764 19.4633 26.4244L20.1967 28.2851ZM4.57378 21.8356C7.10008 28.2453 14.095 31.132 20.1967 28.2851L19.4633 26.4244C14.4003 28.7867 8.52289 26.4111 6.38621 20.9899L4.57378 21.8356ZM11.049 5.07544C4.94725 7.92242 2.04749 15.4259 4.57378 21.8356L6.38621 20.9899C4.24952 15.5688 6.71928 9.29849 11.7823 6.93614L11.049 5.07544ZM25.7371 9.62899C22.6914 4.57439 16.5111 2.52686 11.049 5.07544L11.7823 6.93614C16.3155 4.82102 21.4992 6.5027 24.0702 10.7696L25.7371 9.62899Z" fill="#377D87" mask="url(#path-2-inside-1_103_117492)"/>
<path d="M20.3355 20.2531C20.3355 22.518 19.1723 25.1947 15.4704 25.1947C12.9114 25.1947 10.5647 24.3711 10.5647 20.2531C10.5647 17.5764 12.4461 15.5175 15.4704 7.28156C18.4947 15.5175 20.3355 18.1751 20.3355 20.2531Z" fill="#95ECFF"/>
<path d="M15.4703 17.0966C13.6711 17.0966 12.2134 18.5543 12.2134 20.3535C12.2134 22.1527 13.6711 23.6104 15.4703 23.6104C17.2695 23.6104 18.7272 22.1527 18.7272 20.3535C18.7272 18.5543 17.2695 17.0966 15.4703 17.0966ZM16.685 21.2071L16.4223 21.5355C16.4051 21.557 16.3838 21.575 16.3596 21.5883C16.3354 21.6016 16.3089 21.61 16.2814 21.6131C16.254 21.6161 16.2262 21.6137 16.1997 21.606C16.1732 21.5984 16.1485 21.5855 16.1269 21.5683L15.2471 20.9153C15.1856 20.8661 15.1359 20.8037 15.1018 20.7327C15.0677 20.6617 15.05 20.584 15.0501 20.5052V18.4624C15.0501 18.4067 15.0722 18.3532 15.1116 18.3138C15.151 18.2744 15.2045 18.2523 15.2602 18.2523H15.6804C15.7362 18.2523 15.7896 18.2744 15.829 18.3138C15.8684 18.3532 15.8906 18.4067 15.8906 18.4624V20.3535L16.6523 20.9117C16.6738 20.9289 16.6918 20.9502 16.7051 20.9744C16.7184 20.9986 16.7268 21.0252 16.7298 21.0526C16.7329 21.0801 16.7305 21.1078 16.7228 21.1344C16.7151 21.1609 16.7022 21.1856 16.685 21.2071Z" fill="#377D87"/>
</svg>
