<svg width="303" height="210" viewBox="0 0 303 210" fill="none" xmlns="http://www.w3.org/2000/svg">
<ellipse cx="152" cy="138" rx="36" ry="5" fill="url(#paint0_linear_209_119240)"/>
<g filter="url(#filter0_f_209_119240)">
<path d="M211 198C211 202.971 184.585 205.5 152 205.5C119.415 205.5 93 202.971 93 198C93 193.029 119.415 189 152 189C184.585 189 211 193.029 211 198Z" fill="#D9D9D9"/>
</g>
<path d="M116.242 145.198C116.117 144.579 116.59 144 117.222 144H186.245C186.887 144 187.363 144.597 187.219 145.224L175.178 197.724C175.074 198.178 174.67 198.5 174.203 198.5H127.818C127.342 198.5 126.932 198.164 126.838 197.698L116.242 145.198Z" fill="#B4771A"/>
<path d="M116.377 145.869C116.254 145.256 116.192 144.95 116.266 144.708C116.342 144.456 116.515 144.245 116.746 144.12C116.969 144 117.281 144 117.906 144H185.542C186.182 144 186.502 144 186.727 144.124C186.961 144.253 187.133 144.469 187.206 144.726C187.277 144.973 187.205 145.285 187.062 145.909L175.278 197.289C175.183 197.702 175.135 197.909 175.028 198.066C174.915 198.23 174.756 198.357 174.571 198.43C174.394 198.5 174.182 198.5 173.757 198.5H128.277C127.841 198.5 127.624 198.5 127.444 198.427C127.256 198.351 127.095 198.22 126.984 198.051C126.877 197.888 126.834 197.675 126.747 197.249L116.377 145.869Z" fill="url(#paint1_linear_209_119240)"/>
<path d="M116.377 145.869C116.254 145.256 116.192 144.95 116.266 144.708C116.342 144.456 116.515 144.245 116.746 144.12C116.969 144 117.281 144 117.906 144H185.542C186.182 144 186.502 144 186.727 144.124C186.961 144.253 187.133 144.469 187.206 144.726C187.277 144.973 187.205 145.285 187.062 145.909L175.278 197.289C175.183 197.702 175.135 197.909 175.028 198.066C174.915 198.23 174.756 198.357 174.571 198.43C174.394 198.5 174.182 198.5 173.757 198.5H128.277C127.841 198.5 127.624 198.5 127.444 198.427C127.256 198.351 127.095 198.22 126.984 198.051C126.877 197.888 126.834 197.675 126.747 197.249L116.377 145.869Z" fill="url(#paint2_linear_209_119240)"/>
<g filter="url(#filter1_d_209_119240)">
<path d="M112.155 139.135C112.073 138.535 112.54 138 113.146 138H189.802C190.426 138 190.897 138.565 190.786 139.179L189.149 148.179C189.063 148.654 188.649 149 188.165 149H114.373C113.873 149 113.45 148.631 113.382 148.135L112.155 139.135Z" fill="url(#paint3_linear_209_119240)"/>
</g>
<path d="M182.039 129.292C183.411 128.829 184.893 129.988 184.695 131.423V131.423C184.659 131.685 184.684 131.956 184.768 132.206V132.206C185.146 133.322 184.307 134.475 183.129 134.459L166.077 134.221C164.943 134.205 164.049 133.25 164.108 132.117L164.173 130.868V130.868C164.232 129.739 165.333 128.955 166.429 129.232C168.928 129.863 173.079 130.766 175.905 130.62C177.98 130.512 180.261 129.892 182.039 129.292Z" fill="#7ECF57"/>
<path d="M182.114 132.171C181.982 132.043 181.756 131.949 181.406 131.881C181.299 131.566 181.428 131.328 181.564 131.077C181.578 131.052 181.591 131.027 181.605 131.001C181.678 130.864 181.757 130.7 181.729 130.526C181.699 130.343 181.561 130.192 181.314 130.053C181.312 130.052 181.31 130.051 181.309 130.05C181.344 130.052 181.382 130.054 181.419 130.056C181.511 130.06 181.61 130.061 181.698 130.052C181.779 130.044 181.878 130.025 181.948 129.965C181.987 129.931 182.016 129.885 182.025 129.827C182.033 129.772 182.021 129.718 182 129.67C181.976 129.613 181.936 129.553 181.879 129.486C182.555 129.266 183.559 129.286 184.255 130.056C184.465 130.288 184.52 130.629 184.559 131.052C184.563 131.099 184.567 131.147 184.571 131.196C184.603 131.57 184.638 131.987 184.799 132.367C184.983 132.801 184.859 133.213 184.615 133.554C184.369 133.899 184.014 134.152 183.783 134.25C183.697 134.287 183.633 134.309 183.588 134.32C183.601 134.293 183.618 134.261 183.639 134.226C183.654 134.199 183.67 134.173 183.686 134.146L183.686 134.145C183.702 134.118 183.719 134.09 183.734 134.064C183.763 134.013 183.795 133.955 183.81 133.904C183.817 133.88 183.826 133.841 183.817 133.798C183.812 133.774 183.801 133.748 183.78 133.725C183.759 133.702 183.734 133.689 183.71 133.681C183.666 133.668 183.623 133.674 183.591 133.681C183.557 133.689 183.518 133.702 183.476 133.72C183.322 133.786 183.218 133.803 183.139 133.798C183.062 133.793 182.998 133.767 182.923 133.721C182.89 133.702 182.855 133.677 182.816 133.651C182.684 133.561 182.511 133.442 182.251 133.366C182.169 133.27 182.154 133.172 182.164 133.064C182.171 133.002 182.185 132.938 182.203 132.867C182.205 132.858 182.207 132.849 182.21 132.84C182.225 132.78 182.242 132.714 182.252 132.649C182.276 132.495 182.267 132.32 182.114 132.171ZM183.511 134.332C183.511 134.332 183.512 134.332 183.514 134.332C183.512 134.332 183.511 134.332 183.511 134.332Z" stroke="#A0E79A" stroke-width="0.25"/>
<path d="M125.659 134.871C124.419 135.027 123.342 134.021 123.413 132.773L123.588 129.694C123.651 128.583 124.609 127.737 125.72 127.812L145.233 129.129C145.666 129.159 146.052 129.411 146.253 129.795V129.795C146.34 129.962 146.388 130.146 146.394 130.334L146.399 130.495C146.429 131.497 145.692 132.357 144.697 132.482L125.659 134.871Z" fill="#7ECF57"/>
<path d="M126.108 131.352C126.183 131.56 126.361 131.781 126.678 132.037C126.675 132.514 126.45 132.758 126.23 132.995C126.207 133.02 126.185 133.044 126.163 133.068C126.042 133.202 125.918 133.355 125.885 133.557C125.852 133.763 125.916 133.992 126.099 134.277C126.124 134.315 126.145 134.35 126.164 134.381C126.158 134.377 126.152 134.374 126.146 134.37L126.146 134.37C126.106 134.346 126.064 134.321 126.021 134.297C125.935 134.248 125.841 134.198 125.754 134.167C125.675 134.138 125.565 134.11 125.469 134.153C125.351 134.205 125.319 134.326 125.322 134.444C125.325 134.529 125.346 134.633 125.384 134.761C124.68 134.709 123.722 134.215 123.33 132.921C123.209 132.518 123.285 132.061 123.4 131.536C123.413 131.476 123.426 131.416 123.44 131.355C123.544 130.889 123.658 130.379 123.643 129.855C123.623 129.213 123.903 128.765 124.254 128.472C124.609 128.175 125.032 128.043 125.279 128.035C125.41 128.031 125.487 128.041 125.528 128.054C125.525 128.06 125.52 128.068 125.513 128.079C125.486 128.117 125.446 128.161 125.398 128.211C125.374 128.235 125.349 128.26 125.324 128.285L125.324 128.285C125.299 128.31 125.273 128.335 125.249 128.36C125.203 128.408 125.154 128.461 125.123 128.512C125.108 128.537 125.091 128.572 125.086 128.613C125.08 128.66 125.092 128.713 125.133 128.754C125.169 128.79 125.214 128.805 125.25 128.812C125.288 128.82 125.331 128.822 125.378 128.821C125.543 128.816 125.644 128.844 125.714 128.886C125.784 128.928 125.838 128.993 125.895 129.088C125.92 129.129 125.945 129.176 125.973 129.228C126.066 129.401 126.186 129.624 126.405 129.837C126.459 130.02 126.434 130.167 126.38 130.305C126.351 130.38 126.313 130.453 126.271 130.529C126.266 130.539 126.26 130.549 126.254 130.559C126.218 130.625 126.18 130.694 126.148 130.765C126.072 130.934 126.026 131.125 126.108 131.352ZM125.552 128.063C125.552 128.063 125.551 128.063 125.551 128.062L125.552 128.063Z" stroke="#A0E79A" stroke-width="0.25"/>
<path d="M129.123 120.953C128.036 120.337 127.773 118.886 128.575 117.929L129.469 116.862C130.183 116.009 131.457 115.903 132.302 116.627L143.464 126.179C143.719 126.397 143.842 126.732 143.789 127.064V127.064C143.766 127.208 143.711 127.344 143.627 127.464L143.556 127.566C143.111 128.202 142.255 128.395 141.58 128.012L129.123 120.953Z" fill="#73C54D"/>
<path d="M130.532 118.7C130.481 118.869 130.489 119.09 130.565 119.391C130.352 119.667 130.112 119.712 129.869 119.757C129.844 119.762 129.818 119.767 129.793 119.772C129.656 119.799 129.501 119.837 129.381 119.954C129.261 120.07 129.194 120.244 129.173 120.498C129.171 120.494 129.17 120.489 129.168 120.485C129.137 120.415 129.101 120.339 129.06 120.277C129.024 120.222 128.963 120.145 128.872 120.124C128.758 120.099 128.672 120.171 128.617 120.249C128.583 120.297 128.551 120.362 128.52 120.442C128.128 120.081 127.792 119.355 128.135 118.407C128.242 118.108 128.496 117.864 128.811 117.59C128.846 117.56 128.882 117.529 128.919 117.497C129.199 117.256 129.509 116.99 129.744 116.654C130.023 116.254 130.396 116.109 130.742 116.09C131.094 116.07 131.412 116.182 131.563 116.288C131.617 116.326 131.653 116.356 131.676 116.379C131.647 116.387 131.61 116.394 131.567 116.401C131.541 116.405 131.515 116.409 131.487 116.413L131.487 116.413C131.46 116.417 131.432 116.421 131.406 116.425C131.355 116.433 131.297 116.444 131.251 116.463C131.228 116.472 131.197 116.488 131.171 116.515C131.141 116.547 131.12 116.593 131.128 116.648C131.134 116.694 131.16 116.73 131.18 116.753C131.202 116.777 131.23 116.8 131.261 116.822C131.363 116.893 131.408 116.953 131.429 117.005C131.451 117.058 131.455 117.117 131.447 117.201C131.443 117.236 131.437 117.276 131.431 117.32C131.408 117.469 131.379 117.666 131.415 117.902C131.367 118.029 131.289 118.103 131.198 118.16C131.146 118.192 131.09 118.219 131.029 118.247C131.021 118.25 131.013 118.254 131.005 118.258C130.953 118.282 130.895 118.308 130.842 118.338C130.713 118.409 130.589 118.512 130.532 118.7Z" stroke="#A0E79A" stroke-width="0.25"/>
<path d="M161.025 104.182C161.071 103.112 161.952 102.267 163.024 102.267C163.633 102.267 164.201 102.267 164.401 102.267C164.876 102.267 167.221 103.194 167.451 103.285C167.464 103.29 167.475 103.295 167.488 103.3L168.327 103.656C169.224 104.036 169.717 105.008 169.493 105.956L163.695 130.537C163.574 131.049 163.196 131.463 162.696 131.63V131.63C162.47 131.705 162.228 131.727 161.992 131.692L161.648 131.641C160.635 131.491 159.899 130.6 159.943 129.577L161.025 104.182Z" fill="#73C54D"/>
<path d="M161.575 104.926C161.536 104.943 161.5 104.958 161.466 104.972C161.499 104.94 161.534 104.907 161.566 104.875C161.652 104.79 161.739 104.697 161.803 104.608C161.834 104.564 161.863 104.516 161.882 104.468C161.901 104.421 161.914 104.362 161.901 104.301C161.87 104.158 161.729 104.11 161.599 104.097C161.487 104.087 161.337 104.096 161.141 104.126C161.211 103.493 161.367 102.983 161.686 102.653C162.025 102.304 162.576 102.13 163.506 102.282L163.516 102.284L163.526 102.284C164.007 102.284 164.737 102.434 165.478 102.65C166.217 102.866 166.953 103.143 167.444 103.389L167.452 103.392L167.461 103.395C168.947 103.891 169.459 104.654 169.376 105.26C169.356 105.406 169.335 105.501 169.314 105.561C169.283 105.513 169.249 105.447 169.212 105.37C169.194 105.332 169.177 105.294 169.159 105.254L169.158 105.253C169.14 105.214 169.122 105.174 169.104 105.137C169.07 105.065 169.032 104.991 168.994 104.939C168.976 104.915 168.947 104.882 168.907 104.861C168.885 104.85 168.856 104.841 168.821 104.844C168.785 104.847 168.755 104.861 168.733 104.88C168.693 104.914 168.673 104.961 168.662 104.996C168.649 105.036 168.639 105.085 168.631 105.142C168.602 105.356 168.543 105.484 168.47 105.569C168.396 105.656 168.297 105.712 168.163 105.766C168.104 105.789 168.038 105.812 167.966 105.836C167.726 105.917 167.424 106.02 167.11 106.251C166.855 106.284 166.664 106.22 166.494 106.118C166.404 106.064 166.319 105.999 166.231 105.93C166.22 105.921 166.208 105.912 166.196 105.903C166.121 105.843 166.043 105.781 165.962 105.727C165.769 105.599 165.546 105.505 165.255 105.558C164.982 105.608 164.669 105.783 164.275 106.135C163.649 106.031 163.379 105.682 163.122 105.351C163.096 105.318 163.071 105.285 163.045 105.252C162.901 105.071 162.741 104.89 162.503 104.81C162.262 104.728 161.968 104.758 161.575 104.926Z" stroke="#A0E79A" stroke-width="0.25"/>
<path d="M150.189 103.466C150.138 102.218 148.968 101.322 147.749 101.598L142.697 102.741C141.612 102.987 140.936 104.072 141.193 105.154L147.107 130.043C147.235 130.583 147.635 131.017 148.162 131.189V131.189C148.391 131.263 148.634 131.285 148.872 131.253L149.514 131.165C150.536 131.025 151.284 130.131 151.241 129.101L150.189 103.466Z" fill="#73C54D"/>
<path d="M145.866 105.48C146.138 105.53 146.452 105.705 146.846 106.057C147.472 105.954 147.742 105.605 147.998 105.274C148.024 105.24 148.05 105.207 148.076 105.174C148.22 104.993 148.38 104.812 148.618 104.732C148.859 104.651 149.153 104.68 149.546 104.849C149.659 104.897 149.747 104.932 149.817 104.956C149.786 104.919 149.752 104.878 149.715 104.834L149.714 104.833C149.676 104.788 149.635 104.74 149.595 104.692C149.516 104.594 149.435 104.489 149.378 104.388C149.326 104.294 149.274 104.172 149.304 104.056C149.34 103.918 149.468 103.856 149.612 103.836C149.73 103.82 149.888 103.827 150.091 103.858C150.058 102.762 149.822 102.216 149.412 101.928C149.193 101.775 148.913 101.686 148.557 101.636C148.201 101.586 147.78 101.577 147.285 101.577L147.277 101.577L147.269 101.576C146.725 101.506 146.156 101.702 145.519 101.958C145.447 101.987 145.373 102.017 145.3 102.047C144.732 102.277 144.118 102.527 143.458 102.617C142.616 102.732 141.959 103.12 141.595 103.59C141.232 104.057 141.162 104.597 141.459 105.054C141.552 105.196 141.629 105.28 141.69 105.326C141.75 105.371 141.787 105.375 141.807 105.372C141.829 105.37 141.857 105.356 141.893 105.319C141.928 105.282 141.962 105.23 141.996 105.168C142.027 105.109 142.054 105.048 142.08 104.99L142.084 104.981L142.086 104.977C142.109 104.924 142.137 104.862 142.165 104.822C142.173 104.811 142.184 104.797 142.199 104.784C142.212 104.772 142.236 104.754 142.27 104.747C142.36 104.729 142.412 104.795 142.428 104.823C142.446 104.853 142.457 104.891 142.465 104.926C142.474 104.963 142.482 105.009 142.49 105.064C142.519 105.278 142.578 105.406 142.651 105.492C142.725 105.578 142.823 105.635 142.957 105.688C143.017 105.711 143.083 105.734 143.155 105.758C143.395 105.84 143.697 105.942 144.01 106.173C144.266 106.207 144.456 106.142 144.627 106.04C144.717 105.986 144.802 105.922 144.889 105.853C144.901 105.844 144.913 105.834 144.924 105.825C144.999 105.766 145.078 105.704 145.159 105.649C145.352 105.521 145.575 105.427 145.866 105.48Z" fill="#73C54D" stroke="#A0E79A" stroke-width="0.25"/>
<path d="M137.233 107.163C137.164 105.665 135.459 104.729 134.203 105.55L134.154 105.582C133.765 105.837 133.289 105.922 132.835 105.818V105.818C131.497 105.512 130.36 106.827 130.858 108.107L138.446 127.634C138.856 128.689 140.058 129.194 141.098 128.748L142.84 128.002L142.92 127.968C144.114 127.456 144.52 125.954 143.781 124.885C142.072 122.412 139.378 118.218 138.402 115.049C137.636 112.563 137.341 109.497 137.233 107.163Z" fill="#7ECF57"/>
<path d="M136.787 108.438C136.818 108.464 136.847 108.488 136.872 108.508C136.863 108.487 136.853 108.465 136.843 108.442L136.843 108.441C136.822 108.394 136.8 108.344 136.779 108.293C136.737 108.191 136.695 108.082 136.669 107.982C136.645 107.888 136.627 107.775 136.663 107.68C136.683 107.627 136.719 107.58 136.775 107.55C136.828 107.521 136.888 107.512 136.948 107.515C137.027 107.519 137.12 107.543 137.231 107.586C137.211 106.726 136.774 105.571 135.593 105.096C135.237 104.953 134.824 105.035 134.334 105.167C134.279 105.181 134.224 105.197 134.167 105.212C133.734 105.331 133.255 105.463 132.766 105.439C132.192 105.411 131.581 105.822 131.181 106.324C130.983 106.572 130.847 106.831 130.796 107.05C130.744 107.272 130.784 107.42 130.884 107.501C131.128 107.7 131.269 107.716 131.34 107.698C131.41 107.68 131.465 107.615 131.504 107.515C131.51 107.499 131.515 107.483 131.52 107.467C131.525 107.381 131.531 107.323 131.537 107.287C131.539 107.278 131.541 107.267 131.545 107.256C131.546 107.251 131.549 107.244 131.552 107.236L131.552 107.236C131.555 107.23 131.563 107.211 131.582 107.194C131.592 107.184 131.612 107.168 131.641 107.162C131.675 107.154 131.708 107.161 131.733 107.177C131.772 107.2 131.785 107.236 131.787 107.242L131.788 107.242C131.795 107.262 131.796 107.28 131.797 107.286L131.797 107.286C131.8 107.329 131.793 107.414 131.768 107.507C131.759 107.709 131.783 107.837 131.823 107.928C131.862 108.017 131.921 108.081 132.005 108.148C132.042 108.178 132.085 108.208 132.131 108.242C132.288 108.353 132.491 108.497 132.681 108.757C132.835 108.816 132.96 108.791 133.083 108.731C133.152 108.698 133.218 108.654 133.29 108.605C133.3 108.599 133.309 108.592 133.319 108.586C133.38 108.544 133.446 108.498 133.513 108.461C133.673 108.372 133.864 108.313 134.084 108.419C134.279 108.512 134.476 108.725 134.7 109.096C135.117 109.091 135.34 108.837 135.568 108.578C135.59 108.552 135.613 108.527 135.636 108.501C135.761 108.362 135.907 108.212 136.105 108.173C136.312 108.133 136.531 108.22 136.787 108.438Z" fill="#7ECF57" stroke="#A0E79A" stroke-width="0.25"/>
<path d="M151.911 106.868C151.511 105.34 152.868 103.823 154.411 104.16L154.8 104.245C155.103 104.311 155.418 104.306 155.719 104.23L155.783 104.213C157.122 103.874 158.393 104.96 158.267 106.336L156.351 127.109C156.246 128.239 155.225 129.055 154.1 128.908L152.212 128.662L152.103 128.647C150.818 128.479 150.02 127.152 150.436 125.925C151.422 123.017 152.92 118.073 153.01 114.648C153.079 112.032 152.491 109.09 151.911 106.868Z" fill="#7ECF57"/>
<path d="M152.858 108.16C152.836 108.194 152.815 108.224 152.796 108.251C152.799 108.228 152.802 108.204 152.806 108.179L152.806 108.178C152.813 108.127 152.82 108.072 152.827 108.018C152.84 107.909 152.851 107.792 152.849 107.689C152.846 107.592 152.832 107.478 152.772 107.396C152.739 107.351 152.691 107.315 152.629 107.301C152.57 107.288 152.51 107.296 152.453 107.315C152.377 107.341 152.291 107.391 152.194 107.465C152.05 107.035 151.866 106.449 151.877 105.893C151.883 105.578 151.953 105.282 152.121 105.032C152.289 104.784 152.563 104.57 153 104.433L153.021 104.426L153.038 104.413C153.184 104.3 153.364 104.244 153.576 104.224C153.79 104.203 154.029 104.219 154.288 104.242C154.33 104.245 154.373 104.249 154.416 104.253C154.893 104.297 155.427 104.346 155.915 104.182C156.46 104 156.949 104.191 157.337 104.517C157.728 104.845 158 105.296 158.097 105.585C158.143 105.725 158.164 105.818 158.17 105.877C158.128 105.856 158.076 105.824 158.017 105.783C157.987 105.762 157.956 105.741 157.925 105.719L157.925 105.718C157.894 105.697 157.863 105.674 157.832 105.654C157.775 105.614 157.711 105.573 157.655 105.551C157.628 105.541 157.586 105.528 157.54 105.534C157.515 105.538 157.487 105.547 157.462 105.567C157.437 105.586 157.421 105.611 157.411 105.636C157.393 105.681 157.396 105.728 157.401 105.765C157.407 105.805 157.419 105.85 157.436 105.901C157.5 106.094 157.512 106.224 157.498 106.322C157.485 106.418 157.445 106.496 157.382 106.583C157.355 106.622 157.322 106.663 157.286 106.707C157.165 106.857 157.01 107.051 156.897 107.352C156.765 107.451 156.638 107.461 156.503 107.436C156.428 107.423 156.352 107.399 156.269 107.372C156.259 107.368 156.248 107.364 156.237 107.361C156.166 107.337 156.09 107.311 156.016 107.294C155.838 107.251 155.638 107.246 155.455 107.408C155.293 107.55 155.16 107.809 155.046 108.227C154.643 108.335 154.359 108.151 154.07 107.964C154.041 107.945 154.012 107.926 153.983 107.908C153.826 107.808 153.644 107.703 153.443 107.72C153.233 107.737 153.046 107.88 152.858 108.16ZM158.169 105.93C158.169 105.93 158.169 105.928 158.17 105.927C158.17 105.929 158.169 105.93 158.169 105.93Z" fill="#7ECF57" stroke="#A0E79A" stroke-width="0.25"/>
<path d="M157.5 112.783C157.531 111.204 159.248 110.112 160.641 110.855L160.993 111.043C161.267 111.189 161.571 111.269 161.881 111.277L161.948 111.279C163.328 111.315 164.257 112.707 163.762 113.996L156.281 133.47C155.875 134.529 154.669 135.038 153.627 134.591L151.877 133.841L151.776 133.798C150.585 133.288 150.176 131.794 150.91 130.726C152.648 128.194 155.431 123.842 156.447 120.57C157.223 118.071 157.456 115.079 157.5 112.783Z" fill="#7ECF57"/>
<path d="M160.559 114.017C160.365 114.11 160.167 114.322 159.944 114.694C159.527 114.689 159.303 114.435 159.076 114.176C159.053 114.15 159.03 114.124 159.007 114.099C158.883 113.96 158.736 113.81 158.539 113.771C158.332 113.731 158.113 113.818 157.856 114.036C157.825 114.062 157.797 114.086 157.772 114.106C157.781 114.085 157.79 114.063 157.801 114.04L157.801 114.039C157.821 113.992 157.843 113.941 157.865 113.891C157.907 113.789 157.949 113.68 157.975 113.58C157.999 113.486 158.016 113.373 157.981 113.278C157.961 113.225 157.925 113.178 157.869 113.147C157.816 113.118 157.756 113.11 157.695 113.113C157.617 113.117 157.523 113.141 157.413 113.184C157.433 112.324 157.87 111.169 159.051 110.694C159.407 110.551 159.82 110.633 160.309 110.764C160.364 110.779 160.42 110.795 160.477 110.81C160.91 110.929 161.389 111.061 161.878 111.037C162.451 111.009 162.918 111.355 163.255 111.811C163.593 112.268 163.776 112.807 163.791 113.104C163.798 113.263 163.788 113.355 163.774 113.403C163.76 113.395 163.743 113.383 163.722 113.366C163.674 113.327 163.619 113.271 163.559 113.206C163.53 113.174 163.501 113.141 163.471 113.108L163.47 113.107C163.44 113.074 163.41 113.04 163.381 113.008C163.325 112.947 163.265 112.886 163.209 112.845C163.182 112.825 163.146 112.803 163.106 112.793C163.06 112.782 162.999 112.785 162.948 112.829C162.905 112.867 162.889 112.919 162.882 112.958C162.874 113.001 162.873 113.05 162.875 113.104C162.885 113.307 162.861 113.435 162.821 113.526C162.782 113.615 162.722 113.679 162.639 113.746C162.602 113.776 162.559 113.806 162.512 113.839C162.355 113.951 162.153 114.095 161.963 114.355C161.809 114.413 161.684 114.388 161.561 114.329C161.492 114.295 161.425 114.252 161.353 114.203C161.344 114.196 161.335 114.19 161.325 114.183C161.264 114.141 161.198 114.096 161.131 114.059C160.971 113.97 160.78 113.911 160.559 114.017Z" fill="#7ECF57" stroke="#A0E79A" stroke-width="0.25"/>
<path d="M138.491 111.607C138.373 110.371 139.398 109.328 140.635 109.423L144.063 109.687C145.087 109.765 145.884 110.606 145.909 111.632L146.4 131.745C146.427 132.868 145.524 133.793 144.4 133.793H142.942H142.423C141.391 133.793 140.529 133.009 140.432 131.983L138.491 111.607Z" fill="#85DE5B"/>
<path d="M142.208 112.356C141.987 112.429 141.749 112.608 141.469 112.936C140.961 112.919 140.708 112.671 140.463 112.431C140.438 112.407 140.413 112.382 140.388 112.358C140.251 112.226 140.095 112.092 139.885 112.052C139.671 112.01 139.428 112.07 139.123 112.254C139.071 112.285 139.026 112.311 138.987 112.333C138.995 112.319 139.004 112.305 139.013 112.291L139.014 112.29C139.04 112.249 139.068 112.205 139.095 112.161C139.149 112.072 139.204 111.975 139.24 111.884C139.273 111.802 139.305 111.689 139.264 111.589C139.214 111.467 139.091 111.429 138.967 111.43C138.868 111.43 138.74 111.453 138.58 111.5C138.496 111.062 138.627 110.65 138.944 110.293C139.294 109.898 139.87 109.569 140.63 109.363C141.062 109.298 141.549 109.397 142.098 109.52C142.133 109.528 142.168 109.536 142.204 109.544C142.72 109.66 143.282 109.787 143.864 109.787C144.546 109.787 145.094 110.125 145.435 110.522C145.605 110.72 145.719 110.93 145.773 111.112C145.828 111.299 145.812 111.434 145.762 111.509C145.602 111.746 145.502 111.777 145.463 111.776C145.422 111.775 145.37 111.739 145.309 111.647C145.281 111.605 145.257 111.561 145.235 111.519C145.233 111.515 145.231 111.51 145.228 111.505C145.211 111.473 145.19 111.432 145.171 111.406C145.164 111.398 145.152 111.384 145.135 111.372C145.119 111.36 145.081 111.338 145.029 111.348C144.977 111.359 144.951 111.395 144.94 111.413C144.929 111.432 144.924 111.451 144.921 111.462C144.911 111.505 144.908 111.574 144.908 111.659C144.908 111.834 144.875 111.941 144.828 112.015C144.78 112.089 144.709 112.145 144.607 112.202C144.562 112.228 144.511 112.253 144.456 112.281C144.27 112.374 144.031 112.492 143.799 112.717C143.603 112.769 143.446 112.738 143.3 112.676C143.221 112.643 143.146 112.6 143.067 112.553C143.056 112.547 143.046 112.541 143.035 112.535C142.967 112.495 142.895 112.452 142.822 112.417C142.647 112.332 142.448 112.278 142.208 112.356Z" stroke="#A0E79A" stroke-width="0.25"/>
<path d="M154.829 111.607C154.946 110.371 153.922 109.328 152.684 109.423L149.256 109.687C148.233 109.765 147.435 110.606 147.41 111.632L146.92 131.745C146.892 132.868 147.795 133.793 148.919 133.793H150.377H150.897C151.928 133.793 152.79 133.009 152.888 131.983L154.829 111.607Z" fill="#85DE5B"/>
<path d="M148.156 111.651C148.156 111.651 148.156 111.652 148.157 111.654C148.156 111.652 148.156 111.651 148.156 111.651ZM151.113 112.436C151.334 112.509 151.572 112.688 151.852 113.016C152.36 112.999 152.613 112.751 152.858 112.511C152.883 112.487 152.908 112.462 152.933 112.438C153.07 112.306 153.226 112.172 153.436 112.132C153.65 112.09 153.893 112.15 154.198 112.334C154.25 112.365 154.295 112.391 154.334 112.413C154.326 112.399 154.317 112.385 154.308 112.371L154.307 112.37C154.281 112.329 154.253 112.285 154.226 112.241C154.172 112.152 154.117 112.055 154.081 111.964C154.048 111.882 154.016 111.769 154.057 111.669C154.107 111.547 154.23 111.509 154.354 111.51C154.454 111.51 154.582 111.533 154.744 111.581C154.828 111.137 154.586 110.601 154.177 110.144C153.958 109.9 153.698 109.688 153.435 109.538C153.174 109.389 152.918 109.305 152.699 109.303C152.436 109.342 152.157 109.397 151.858 109.455C151.653 109.495 151.438 109.537 151.214 109.577C150.665 109.674 150.073 109.755 149.457 109.755V109.756L149.447 109.755C148.612 109.687 148.126 110.045 147.854 110.481C147.574 110.928 147.519 111.46 147.566 111.717C147.595 111.882 147.629 111.983 147.66 112.041C147.674 112.069 147.685 112.081 147.691 112.086C147.698 112.084 147.712 112.076 147.734 112.056C147.771 112.023 147.811 111.973 147.855 111.91C147.893 111.856 147.93 111.797 147.965 111.74C147.97 111.733 147.975 111.725 147.979 111.718C148.017 111.657 148.058 111.594 148.094 111.55C148.111 111.53 148.136 111.502 148.167 111.484C148.184 111.474 148.21 111.462 148.243 111.461C148.279 111.459 148.314 111.472 148.342 111.495C148.386 111.532 148.399 111.587 148.404 111.614C148.41 111.649 148.413 111.691 148.413 111.739C148.413 111.914 148.446 112.021 148.493 112.095C148.541 112.169 148.612 112.225 148.714 112.282C148.759 112.308 148.81 112.333 148.865 112.361C149.051 112.454 149.29 112.572 149.522 112.797C149.719 112.849 149.875 112.818 150.021 112.756C150.1 112.723 150.175 112.68 150.254 112.633C150.265 112.627 150.275 112.621 150.286 112.615C150.354 112.575 150.426 112.532 150.499 112.497C150.674 112.412 150.873 112.358 151.113 112.436ZM147.696 112.09C147.696 112.09 147.696 112.089 147.695 112.089L147.696 112.09Z" stroke="#A0E79A" stroke-width="0.25"/>
<path d="M150.224 117.497C150.819 116.303 152.391 115.984 153.389 116.87L155.056 118.348C155.825 119.03 155.951 120.186 155.347 121.019L146.115 133.733C145.454 134.644 144.172 134.83 143.279 134.145L142.457 133.514L142.423 133.489C141.542 132.812 141.378 131.547 142.046 130.66C143.35 128.931 145.405 126.132 146.741 123.956C147.917 122.041 149.279 119.397 150.224 117.497Z" fill="#81D858"/>
<path d="M152.743 119.389C152.555 119.32 152.303 119.311 151.953 119.374C151.624 119.102 151.575 118.818 151.528 118.538C151.523 118.509 151.518 118.481 151.513 118.452C151.484 118.294 151.444 118.123 151.318 117.984C151.19 117.844 150.993 117.755 150.693 117.713C150.674 117.71 150.657 117.708 150.64 117.705C150.664 117.697 150.688 117.689 150.713 117.68C150.793 117.651 150.88 117.617 150.952 117.577C150.987 117.556 151.024 117.532 151.054 117.502C151.084 117.473 151.114 117.433 151.127 117.381C151.156 117.262 151.082 117.168 150.999 117.105C150.941 117.06 150.861 117.016 150.757 116.971C151.174 116.55 152.024 116.213 153.128 116.686C153.475 116.834 153.754 117.145 154.06 117.521C154.095 117.563 154.13 117.606 154.165 117.65C154.437 117.986 154.733 118.353 155.11 118.642C155.57 118.995 155.731 119.434 155.747 119.828C155.763 120.229 155.628 120.58 155.503 120.742C155.445 120.818 155.402 120.861 155.374 120.882C155.372 120.878 155.371 120.874 155.369 120.869C155.357 120.831 155.347 120.78 155.339 120.719C155.335 120.69 155.331 120.66 155.327 120.629L155.327 120.628C155.323 120.597 155.319 120.566 155.314 120.536C155.306 120.478 155.295 120.414 155.275 120.363C155.265 120.338 155.25 120.305 155.223 120.278C155.193 120.247 155.147 120.223 155.092 120.227C155.043 120.23 155.004 120.254 154.977 120.275C154.949 120.298 154.923 120.327 154.898 120.36C154.814 120.469 154.743 120.516 154.681 120.537C154.617 120.558 154.545 120.557 154.448 120.541C154.406 120.534 154.359 120.524 154.309 120.513C154.137 120.476 153.914 120.427 153.645 120.45C153.49 120.382 153.401 120.283 153.334 120.17C153.298 120.108 153.268 120.042 153.237 119.971C153.233 119.962 153.229 119.952 153.225 119.943C153.198 119.881 153.17 119.816 153.137 119.754C153.059 119.607 152.949 119.465 152.743 119.389Z" fill="#81D858" stroke="#A0E79A" stroke-width="0.25"/>
<path d="M148.896 116.524C148.807 115.193 147.478 114.295 146.216 114.728L144.109 115.451C143.136 115.785 142.575 116.803 142.812 117.805L146.443 133.092C146.703 134.187 147.814 134.852 148.902 134.563L149.903 134.297L149.944 134.286C151.018 134.001 151.656 132.897 151.38 131.82C150.842 129.723 150.022 126.349 149.626 123.826C149.277 121.606 149.037 118.642 148.896 116.524Z" fill="#81D858"/>
<path d="M145.843 117.302C146.043 117.31 146.279 117.399 146.578 117.592C146.986 117.468 147.14 117.223 147.292 116.984C147.308 116.959 147.323 116.935 147.339 116.91C147.426 116.776 147.529 116.633 147.699 116.553C147.871 116.473 148.087 116.467 148.38 116.544C148.398 116.548 148.416 116.553 148.432 116.557C148.413 116.54 148.394 116.523 148.374 116.505C148.311 116.448 148.244 116.383 148.194 116.318C148.168 116.285 148.145 116.249 148.128 116.21C148.112 116.171 148.099 116.123 148.107 116.07C148.126 115.949 148.23 115.891 148.332 115.864C148.402 115.845 148.493 115.835 148.606 115.834C148.383 115.285 147.728 114.647 146.528 114.658C146.15 114.662 145.773 114.841 145.346 115.07C145.297 115.096 145.249 115.123 145.199 115.149C144.82 115.355 144.405 115.579 143.946 115.701C143.385 115.85 143.067 116.193 142.901 116.551C142.732 116.915 142.722 117.291 142.775 117.489C142.799 117.582 142.822 117.637 142.84 117.668C142.843 117.665 142.846 117.661 142.85 117.657C142.876 117.627 142.904 117.584 142.935 117.531C142.95 117.506 142.965 117.479 142.981 117.452L142.981 117.452C142.997 117.425 143.013 117.397 143.028 117.371C143.058 117.321 143.093 117.266 143.131 117.227C143.15 117.207 143.177 117.183 143.212 117.168C143.252 117.151 143.303 117.147 143.353 117.171C143.397 117.193 143.423 117.23 143.44 117.26C143.457 117.292 143.47 117.329 143.481 117.369C143.516 117.502 143.563 117.572 143.613 117.616C143.664 117.66 143.73 117.687 143.826 117.709C143.868 117.719 143.914 117.727 143.966 117.737C144.138 117.768 144.362 117.809 144.602 117.934C144.771 117.931 144.892 117.874 144.997 117.795C145.054 117.752 145.107 117.703 145.163 117.649C145.171 117.642 145.178 117.635 145.185 117.627C145.233 117.581 145.285 117.531 145.339 117.487C145.467 117.381 145.624 117.293 145.843 117.302Z" fill="#81D858" stroke="#A0E79A" stroke-width="0.25"/>
<path d="M127.292 128.311C126.089 127.711 124.58 128.589 124.58 129.933V129.933C124.58 130.179 124.523 130.424 124.413 130.644V130.644C123.924 131.622 124.549 132.789 125.634 132.924L141.196 134.85C142.322 134.989 143.338 134.165 143.435 133.035L143.521 132.027V132.027C143.61 130.982 142.697 130.121 141.654 130.236C139.276 130.5 135.344 130.803 132.764 130.31C130.87 129.948 128.851 129.088 127.292 128.311Z" fill="#85DE5B"/>
<path d="M126.853 130.941C126.992 130.839 127.212 130.781 127.54 130.763C127.673 130.493 127.586 130.262 127.494 130.016C127.484 129.991 127.475 129.966 127.466 129.941C127.417 129.806 127.364 129.642 127.412 129.483C127.462 129.321 127.601 129.201 127.829 129.106C127.808 129.104 127.786 129.102 127.764 129.1C127.679 129.092 127.588 129.081 127.508 129.062C127.434 129.044 127.342 129.013 127.284 128.947C127.251 128.909 127.229 128.861 127.229 128.804C127.228 128.751 127.247 128.701 127.272 128.658C127.301 128.611 127.343 128.563 127.398 128.512C126.807 128.229 125.893 128.126 125.163 128.739C124.943 128.923 124.85 129.227 124.761 129.611C124.751 129.654 124.741 129.698 124.731 129.742C124.655 130.082 124.569 130.463 124.372 130.793C124.149 131.165 124.21 131.556 124.39 131.899C124.572 132.245 124.865 132.522 125.064 132.641C125.128 132.679 125.177 132.705 125.215 132.722C125.208 132.7 125.198 132.675 125.187 132.648C125.176 132.622 125.165 132.595 125.154 132.568L125.153 132.568C125.142 132.541 125.13 132.513 125.119 132.487C125.099 132.437 125.077 132.379 125.07 132.329C125.066 132.305 125.062 132.265 125.077 132.225C125.085 132.203 125.099 132.179 125.123 132.159C125.146 132.14 125.173 132.13 125.197 132.126C125.242 132.119 125.283 132.131 125.311 132.141C125.342 132.153 125.377 132.171 125.413 132.193C125.546 132.272 125.638 132.3 125.709 132.305C125.779 132.311 125.84 132.295 125.914 132.263C125.946 132.249 125.981 132.232 126.02 132.212C126.152 132.146 126.328 132.059 126.576 132.022C126.66 131.946 126.685 131.861 126.689 131.763C126.691 131.706 126.686 131.646 126.679 131.579C126.678 131.57 126.677 131.561 126.676 131.552C126.67 131.495 126.663 131.432 126.662 131.371C126.659 131.225 126.69 131.061 126.853 130.941ZM125.299 132.75C125.299 132.749 125.298 132.749 125.296 132.749C125.298 132.75 125.299 132.75 125.299 132.75Z" stroke="#A0E79A" stroke-width="0.25"/>
<path d="M122.7 119.356C121.773 118.382 120.055 118.694 119.597 119.958V119.958C119.514 120.189 119.376 120.4 119.198 120.57V120.57C118.406 121.323 118.596 122.633 119.571 123.129L133.547 130.238C134.559 130.753 135.795 130.324 136.27 129.294L136.694 128.375V128.375C137.134 127.423 136.568 126.302 135.549 126.056C133.223 125.494 129.423 124.441 127.164 123.099C125.507 122.113 123.901 120.618 122.7 119.356Z" fill="#7ECF57"/>
<path d="M121.391 121.68C121.557 121.631 121.783 121.651 122.099 121.746C122.315 121.537 122.312 121.291 122.309 121.027C122.309 121.001 122.309 120.974 122.309 120.948C122.308 120.804 122.314 120.632 122.414 120.499C122.516 120.363 122.687 120.298 122.934 120.287C122.915 120.278 122.895 120.269 122.875 120.259C122.798 120.223 122.716 120.181 122.647 120.135C122.584 120.093 122.508 120.033 122.476 119.951C122.458 119.905 122.453 119.852 122.472 119.798C122.49 119.748 122.524 119.708 122.563 119.676C122.606 119.641 122.662 119.61 122.731 119.581C122.272 119.113 121.447 118.705 120.552 119.033C120.283 119.132 120.092 119.386 119.877 119.717C119.853 119.754 119.829 119.792 119.805 119.83C119.617 120.123 119.407 120.452 119.109 120.695C118.773 120.97 118.698 121.358 118.75 121.742C118.803 122.129 118.984 122.49 119.131 122.669C119.178 122.726 119.216 122.767 119.245 122.796C119.246 122.773 119.245 122.746 119.244 122.717C119.243 122.689 119.241 122.66 119.24 122.631L119.24 122.63C119.238 122.601 119.236 122.571 119.235 122.543C119.233 122.489 119.233 122.427 119.242 122.377C119.247 122.354 119.257 122.315 119.284 122.282C119.3 122.264 119.321 122.246 119.35 122.236C119.379 122.226 119.407 122.225 119.432 122.23C119.475 122.238 119.51 122.263 119.533 122.283C119.559 122.305 119.585 122.333 119.612 122.366C119.71 122.486 119.787 122.544 119.852 122.573C119.915 122.602 119.978 122.608 120.058 122.603C120.093 122.601 120.132 122.596 120.176 122.591C120.322 122.574 120.517 122.552 120.763 122.601C120.868 122.558 120.921 122.487 120.958 122.396C120.979 122.343 120.995 122.285 121.011 122.22C121.013 122.211 121.015 122.203 121.017 122.194C121.031 122.138 121.046 122.076 121.065 122.019C121.113 121.88 121.197 121.737 121.391 121.68ZM119.315 122.851C119.315 122.851 119.314 122.85 119.312 122.85C119.314 122.851 119.315 122.851 119.315 122.851Z" stroke="#A0E79A" stroke-width="0.25"/>
<path d="M179.488 118.939C180.415 117.965 182.134 118.277 182.591 119.54V119.54C182.675 119.772 182.812 119.983 182.99 120.152V120.152C183.783 120.905 183.592 122.216 182.618 122.711L168.641 129.821C167.63 130.335 166.394 129.906 165.919 128.877L165.494 127.958V127.958C165.055 127.005 165.62 125.885 166.64 125.639C168.966 125.077 172.766 124.023 175.024 122.681C176.682 121.696 178.288 120.2 179.488 118.939Z" fill="#7ECF57"/>
<path d="M180.797 121.262C180.631 121.213 180.405 121.234 180.09 121.328C179.873 121.12 179.876 120.873 179.879 120.61C179.88 120.584 179.88 120.557 179.88 120.53C179.88 120.386 179.874 120.214 179.774 120.081C179.673 119.946 179.501 119.881 179.254 119.869C179.274 119.86 179.293 119.851 179.313 119.842C179.391 119.805 179.473 119.764 179.542 119.718C179.605 119.676 179.68 119.616 179.713 119.534C179.731 119.487 179.735 119.435 179.716 119.381C179.699 119.33 179.664 119.29 179.625 119.259C179.583 119.224 179.527 119.193 179.457 119.164C179.917 118.696 180.741 118.288 181.636 118.616C181.906 118.715 182.097 118.968 182.311 119.3C182.335 119.336 182.359 119.374 182.384 119.412C182.571 119.706 182.782 120.035 183.08 120.278C183.415 120.552 183.491 120.941 183.439 121.324C183.386 121.712 183.204 122.072 183.058 122.252C183.011 122.309 182.973 122.35 182.943 122.379C182.943 122.355 182.943 122.329 182.944 122.3C182.946 122.272 182.947 122.243 182.949 122.214L182.949 122.213C182.95 122.184 182.952 122.154 182.953 122.125C182.955 122.071 182.956 122.009 182.946 121.96C182.942 121.936 182.932 121.898 182.904 121.865C182.889 121.847 182.867 121.829 182.838 121.819C182.81 121.808 182.781 121.808 182.757 121.813C182.713 121.821 182.678 121.846 182.655 121.866C182.63 121.887 182.604 121.916 182.577 121.949C182.479 122.068 182.402 122.127 182.337 122.156C182.273 122.184 182.211 122.19 182.13 122.186C182.095 122.184 182.056 122.179 182.013 122.174C181.866 122.157 181.671 122.134 181.425 122.184C181.32 122.141 181.267 122.07 181.231 121.979C181.209 121.926 181.194 121.868 181.178 121.802C181.176 121.794 181.173 121.785 181.171 121.777C181.158 121.721 181.143 121.659 181.123 121.601C181.076 121.463 180.992 121.32 180.797 121.262ZM182.873 122.434C182.873 122.434 182.874 122.433 182.876 122.432C182.874 122.433 182.873 122.434 182.873 122.434Z" stroke="#A0E79A" stroke-width="0.25"/>
<path d="M173.052 118.571C174.088 117.716 175.757 118.231 176.06 119.541V119.541C176.115 119.78 176.226 120.007 176.383 120.196V120.196C177.08 121.039 176.733 122.317 175.706 122.692L160.978 128.075C159.912 128.464 158.737 127.89 158.388 126.811L158.077 125.848V125.848C157.755 124.85 158.451 123.805 159.493 123.683C161.869 123.404 165.768 122.813 168.171 121.752C169.935 120.972 171.708 119.68 173.052 118.571Z" fill="#7ECF57"/>
<path d="M174.072 121.035C173.913 120.967 173.686 120.96 173.362 121.016C173.172 120.783 173.205 120.539 173.239 120.278C173.243 120.251 173.246 120.225 173.249 120.199C173.267 120.056 173.282 119.884 173.199 119.74C173.114 119.594 172.951 119.509 172.707 119.467C172.728 119.461 172.749 119.454 172.769 119.447C172.851 119.42 172.937 119.389 173.011 119.351C173.079 119.317 173.161 119.267 173.203 119.189C173.226 119.145 173.237 119.093 173.225 119.038C173.213 118.986 173.184 118.942 173.149 118.905C173.111 118.866 173.059 118.828 172.993 118.791C173.506 118.382 174.374 118.076 175.222 118.509C175.478 118.639 175.637 118.914 175.811 119.268C175.83 119.308 175.85 119.348 175.869 119.389C176.02 119.703 176.19 120.054 176.456 120.332C176.757 120.644 176.785 121.039 176.687 121.414C176.588 121.792 176.365 122.128 176.198 122.288C176.144 122.34 176.102 122.376 176.069 122.401C176.071 122.378 176.075 122.351 176.08 122.323C176.084 122.295 176.089 122.267 176.094 122.238L176.094 122.237C176.099 122.208 176.105 122.179 176.109 122.15C176.118 122.097 176.126 122.036 176.122 121.985C176.12 121.961 176.115 121.922 176.092 121.886C176.079 121.866 176.059 121.846 176.032 121.832C176.005 121.819 175.977 121.815 175.952 121.816C175.907 121.82 175.87 121.84 175.845 121.857C175.817 121.876 175.787 121.9 175.757 121.93C175.645 122.037 175.561 122.086 175.494 122.107C175.427 122.127 175.364 122.126 175.285 122.112C175.25 122.105 175.212 122.096 175.17 122.086C175.026 122.052 174.836 122.006 174.585 122.026C174.486 121.97 174.442 121.893 174.417 121.799C174.402 121.744 174.393 121.684 174.385 121.617C174.384 121.608 174.383 121.6 174.382 121.591C174.375 121.534 174.368 121.47 174.355 121.411C174.325 121.268 174.258 121.116 174.072 121.035ZM175.993 122.447C175.993 122.447 175.994 122.447 175.996 122.446C175.994 122.447 175.993 122.447 175.993 122.447Z" stroke="#A0E79A" stroke-width="0.25"/>
<path d="M173.501 110.516C174.428 109.542 176.146 109.854 176.604 111.118V111.118C176.687 111.349 176.825 111.56 177.003 111.73V111.73C177.796 112.483 177.605 113.793 176.63 114.289L162.654 121.398C161.643 121.913 160.407 121.484 159.931 120.454L159.507 119.535V119.535C159.067 118.583 159.633 117.462 160.653 117.216C162.979 116.654 166.778 115.601 169.037 114.259C170.694 113.273 172.3 111.778 173.501 110.516Z" fill="#7ECF57"/>
<path d="M174.809 112.84C174.644 112.791 174.418 112.811 174.102 112.906C173.886 112.697 173.889 112.451 173.892 112.187C173.892 112.161 173.892 112.134 173.892 112.108C173.893 111.964 173.887 111.792 173.787 111.659C173.685 111.523 173.513 111.458 173.267 111.447C173.286 111.438 173.306 111.429 173.326 111.419C173.403 111.383 173.485 111.341 173.554 111.295C173.617 111.253 173.693 111.193 173.725 111.111C173.743 111.065 173.747 111.012 173.729 110.959C173.711 110.908 173.677 110.868 173.638 110.836C173.595 110.801 173.539 110.77 173.469 110.741C173.929 110.273 174.754 109.866 175.649 110.193C175.918 110.292 176.109 110.546 176.324 110.877C176.348 110.914 176.372 110.952 176.396 110.99C176.584 111.283 176.794 111.612 177.092 111.855C177.428 112.13 177.503 112.518 177.451 112.902C177.398 113.289 177.216 113.65 177.07 113.829C177.023 113.886 176.985 113.927 176.956 113.956C176.955 113.933 176.956 113.906 176.957 113.877C176.958 113.849 176.96 113.821 176.961 113.791L176.961 113.79C176.963 113.761 176.964 113.731 176.966 113.703C176.968 113.649 176.968 113.587 176.959 113.537C176.954 113.514 176.944 113.475 176.917 113.442C176.901 113.424 176.88 113.406 176.851 113.396C176.822 113.386 176.794 113.385 176.769 113.39C176.725 113.398 176.691 113.423 176.668 113.443C176.642 113.465 176.616 113.493 176.589 113.526C176.491 113.646 176.414 113.704 176.349 113.733C176.286 113.762 176.223 113.768 176.143 113.763C176.108 113.761 176.069 113.756 176.025 113.751C175.879 113.734 175.684 113.712 175.438 113.761C175.333 113.719 175.28 113.647 175.243 113.556C175.221 113.503 175.206 113.445 175.19 113.38C175.188 113.371 175.186 113.363 175.184 113.354C175.17 113.298 175.155 113.236 175.136 113.179C175.088 113.04 175.004 112.897 174.809 112.84ZM176.886 114.011C176.886 114.011 176.887 114.01 176.889 114.01C176.887 114.011 176.886 114.011 176.886 114.011Z" stroke="#A0E79A" stroke-width="0.25"/>
<path d="M126.529 127.828C125.358 127.392 124.869 126.002 125.509 124.929L126.727 122.89C127.297 121.934 128.538 121.628 129.487 122.208L144.433 131.347C144.768 131.552 144.972 131.916 144.972 132.308V132.308C144.972 132.479 144.934 132.647 144.86 132.8L144.796 132.931C144.4 133.748 143.448 134.129 142.598 133.813L126.529 127.828Z" fill="#81D858"/>
<path d="M128.14 125.112C128.113 125.312 128.163 125.564 128.309 125.901C128.109 126.274 127.831 126.373 127.557 126.472C127.529 126.482 127.5 126.492 127.472 126.502C127.319 126.559 127.153 126.63 127.039 126.782C126.924 126.937 126.879 127.151 126.907 127.457C126.909 127.48 126.911 127.501 126.912 127.52C126.894 127.492 126.876 127.462 126.857 127.433C126.809 127.358 126.754 127.278 126.697 127.215C126.645 127.159 126.566 127.087 126.465 127.081C126.342 127.073 126.262 127.162 126.215 127.26C126.182 127.327 126.156 127.415 126.134 127.526C125.599 127.186 125.051 126.397 125.277 125.209C125.347 124.839 125.598 124.506 125.91 124.132C125.946 124.09 125.982 124.048 126.018 124.005C126.298 123.674 126.604 123.311 126.812 122.883C127.063 122.363 127.473 122.123 127.873 122.036C128.281 121.947 128.673 122.018 128.872 122.114C128.965 122.159 129.02 122.195 129.05 122.221C129.047 122.222 129.044 122.224 129.041 122.225C129.005 122.244 128.955 122.263 128.895 122.283C128.866 122.292 128.836 122.302 128.805 122.311L128.805 122.311C128.774 122.321 128.743 122.33 128.713 122.34C128.656 122.359 128.594 122.382 128.546 122.411C128.523 122.425 128.492 122.447 128.47 122.479C128.444 122.517 128.431 122.568 128.447 122.623C128.462 122.669 128.494 122.702 128.521 122.724C128.549 122.747 128.584 122.767 128.622 122.786C128.756 122.85 128.822 122.914 128.859 122.974C128.897 123.036 128.913 123.107 128.919 123.207C128.921 123.25 128.922 123.298 128.922 123.35C128.924 123.528 128.927 123.758 129.013 124.022C128.98 124.186 128.901 124.291 128.802 124.378C128.747 124.425 128.687 124.467 128.621 124.511C128.613 124.516 128.604 124.522 128.595 124.528C128.539 124.565 128.479 124.605 128.423 124.649C128.29 124.754 128.17 124.891 128.14 125.112Z" stroke="#A0E79A" stroke-width="0.25"/>
<path d="M173.977 124.094C175.143 123.643 176.431 124.36 176.663 125.587L177.188 128.353C177.395 129.447 176.669 130.499 175.574 130.695L157.081 133.994C156.669 134.068 156.249 133.922 155.972 133.609V133.609C155.852 133.473 155.764 133.312 155.715 133.138L155.673 132.988C155.411 132.058 155.9 131.081 156.802 130.733L173.977 124.094Z" fill="#81D858"/>
<path d="M174.46 127.457C174.341 127.279 174.124 127.114 173.768 126.949C173.661 126.505 173.814 126.226 173.964 125.953C173.979 125.925 173.995 125.897 174.01 125.869C174.092 125.715 174.173 125.543 174.156 125.345C174.139 125.143 174.025 124.942 173.787 124.718C173.761 124.693 173.737 124.67 173.715 124.649C173.716 124.649 173.716 124.649 173.717 124.649L173.717 124.649C173.76 124.662 173.806 124.676 173.852 124.689C173.943 124.715 174.043 124.739 174.132 124.749C174.213 124.757 174.324 124.758 174.406 124.694C174.505 124.616 174.507 124.493 174.476 124.383C174.454 124.305 174.411 124.214 174.347 124.105C175.017 123.993 176.022 124.233 176.687 125.348C176.894 125.695 176.929 126.139 176.944 126.657C176.945 126.716 176.947 126.775 176.948 126.835C176.959 127.297 176.971 127.8 177.108 128.288C177.275 128.882 177.118 129.365 176.859 129.72C176.596 130.08 176.232 130.302 176.004 130.366C175.888 130.398 175.815 130.408 175.774 130.407C175.775 130.401 175.778 130.394 175.781 130.386C175.796 130.344 175.823 130.294 175.857 130.236C175.874 130.207 175.891 130.179 175.909 130.15L175.909 130.149C175.927 130.12 175.945 130.09 175.961 130.061C175.993 130.006 176.027 129.945 176.044 129.889C176.052 129.862 176.061 129.824 176.056 129.784C176.05 129.738 176.026 129.69 175.976 129.66C175.934 129.634 175.887 129.63 175.851 129.632C175.814 129.634 175.772 129.642 175.728 129.654C175.575 129.697 175.476 129.694 175.402 129.671C175.327 129.648 175.262 129.601 175.187 129.526C175.154 129.493 175.119 129.455 175.082 129.414C174.954 129.273 174.79 129.092 174.536 128.943C174.444 128.786 174.432 128.644 174.451 128.504C174.46 128.427 174.479 128.35 174.501 128.269C174.503 128.259 174.506 128.248 174.509 128.237C174.528 128.167 174.547 128.093 174.561 128.019C174.592 127.843 174.591 127.652 174.46 127.457Z" stroke="#A0E79A" stroke-width="0.25"/>
<path d="M169.606 127.828C170.777 127.392 171.265 126.002 170.625 124.929L169.408 122.89C168.838 121.934 167.597 121.628 166.647 122.208L151.701 131.347C151.366 131.552 151.162 131.916 151.162 132.308V132.308C151.162 132.479 151.201 132.647 151.275 132.8L151.339 132.931C151.735 133.748 152.686 134.129 153.537 133.813L169.606 127.828Z" fill="#81D858"/>
<path d="M167.994 125.112C168.022 125.312 167.972 125.564 167.826 125.901C168.025 126.274 168.303 126.373 168.578 126.472C168.606 126.482 168.634 126.492 168.662 126.502C168.816 126.559 168.982 126.63 169.095 126.782C169.211 126.937 169.255 127.151 169.228 127.457C169.226 127.48 169.224 127.501 169.223 127.52C169.24 127.492 169.259 127.462 169.277 127.433C169.326 127.358 169.38 127.278 169.438 127.215C169.49 127.159 169.569 127.087 169.669 127.081C169.793 127.073 169.873 127.162 169.92 127.26C169.952 127.327 169.979 127.415 170.001 127.526C170.536 127.186 171.083 126.397 170.858 125.209C170.788 124.839 170.537 124.506 170.224 124.132C170.189 124.09 170.153 124.048 170.117 124.005C169.837 123.674 169.531 123.311 169.323 122.883C169.071 122.363 168.662 122.123 168.261 122.036C167.854 121.947 167.461 122.018 167.263 122.114C167.17 122.159 167.115 122.195 167.085 122.221C167.088 122.222 167.091 122.224 167.094 122.225C167.13 122.244 167.18 122.263 167.24 122.283C167.269 122.292 167.299 122.302 167.329 122.311L167.33 122.311C167.36 122.321 167.392 122.33 167.421 122.34C167.478 122.359 167.541 122.382 167.588 122.411C167.612 122.425 167.642 122.447 167.665 122.479C167.69 122.517 167.704 122.568 167.687 122.623C167.673 122.669 167.641 122.702 167.614 122.724C167.586 122.747 167.551 122.767 167.512 122.786C167.379 122.85 167.312 122.914 167.275 122.974C167.238 123.036 167.222 123.107 167.216 123.207C167.213 123.25 167.213 123.298 167.212 123.35C167.21 123.528 167.208 123.758 167.122 124.022C167.155 124.186 167.234 124.291 167.333 124.378C167.387 124.425 167.448 124.467 167.513 124.511C167.522 124.516 167.531 124.522 167.539 124.528C167.596 124.565 167.656 124.605 167.712 124.649C167.844 124.754 167.964 124.891 167.994 125.112Z" stroke="#A0E79A" stroke-width="0.25"/>
<path d="M129.489 119.263C128.599 118.387 128.72 116.918 129.743 116.2L132.313 114.396C133.224 113.756 134.481 113.983 135.111 114.901L146.269 131.16C146.516 131.52 146.558 131.982 146.38 132.381V132.381C146.303 132.554 146.187 132.707 146.042 132.829L145.918 132.933C145.145 133.583 144.004 133.538 143.284 132.83L129.489 119.263Z" fill="#85DE5B"/>
<path d="M134.084 115.145C134.084 115.145 134.084 115.145 134.086 115.145C134.084 115.145 134.084 115.145 134.084 115.145ZM132.565 117.433C132.447 117.622 132.384 117.9 132.38 118.311C132.001 118.607 131.667 118.581 131.341 118.556C131.308 118.553 131.275 118.551 131.242 118.549C131.06 118.536 130.863 118.534 130.683 118.634C130.499 118.737 130.358 118.93 130.248 119.252C130.232 119.297 130.218 119.337 130.205 119.372C130.204 119.364 130.203 119.356 130.202 119.348L130.201 119.347C130.195 119.301 130.189 119.252 130.181 119.203C130.166 119.105 130.147 119 130.118 118.911C130.091 118.83 130.044 118.726 129.95 118.677C129.836 118.617 129.721 118.667 129.63 118.744C129.56 118.803 129.484 118.893 129.4 119.017C128.833 118.441 128.777 117.392 129.577 116.232C129.876 116.002 130.238 115.798 130.632 115.575C130.687 115.544 130.743 115.513 130.8 115.481C131.262 115.218 131.755 114.927 132.206 114.548C132.704 114.129 133.307 114.032 133.785 114.106C134.025 114.143 134.227 114.221 134.366 114.318C134.508 114.416 134.564 114.518 134.564 114.598C134.564 114.836 134.508 114.916 134.475 114.941C134.442 114.967 134.39 114.972 134.312 114.954C134.275 114.945 134.241 114.933 134.207 114.922L134.207 114.922L134.207 114.921C134.191 114.916 134.174 114.91 134.158 114.906L134.158 114.906C134.147 114.902 134.118 114.894 134.087 114.896C134.07 114.898 134.032 114.904 134 114.936C133.965 114.972 133.961 115.015 133.963 115.041C133.965 115.065 133.973 115.083 133.978 115.094C133.983 115.105 133.989 115.116 133.995 115.126C134.017 115.16 134.056 115.209 134.11 115.273C134.217 115.401 134.257 115.498 134.268 115.58C134.279 115.662 134.261 115.745 134.222 115.849C134.205 115.895 134.183 115.944 134.16 115.999C134.081 116.18 133.98 116.414 133.948 116.72C133.837 116.877 133.705 116.95 133.562 116.994C133.484 117.018 133.403 117.033 133.317 117.047C133.305 117.049 133.294 117.051 133.282 117.053C133.208 117.066 133.129 117.079 133.053 117.098C132.873 117.143 132.693 117.227 132.565 117.433Z" stroke="#A0E79A" stroke-width="0.25"/>
<path d="M167.572 113.596C168.409 112.668 169.881 112.726 170.643 113.716L172.314 115.888C172.988 116.764 172.824 118.02 171.948 118.693L156.273 130.749C155.949 130.998 155.519 131.065 155.135 130.925V130.925C154.956 130.86 154.795 130.753 154.666 130.614L154.563 130.503C153.922 129.812 153.915 128.745 154.546 128.045L167.572 113.596Z" fill="#85DE5B"/>
<path d="M169.412 116.43C169.224 116.33 168.951 116.289 168.554 116.316C168.265 115.977 168.283 115.657 168.301 115.341C168.303 115.309 168.305 115.276 168.306 115.244C168.314 115.068 168.314 114.875 168.21 114.705C168.104 114.531 167.909 114.408 167.592 114.325C167.556 114.315 167.524 114.306 167.495 114.298C167.5 114.297 167.505 114.296 167.511 114.295L167.512 114.294C167.557 114.285 167.604 114.275 167.652 114.264C167.748 114.242 167.849 114.216 167.935 114.181C168.013 114.149 168.111 114.097 168.156 114.005C168.212 113.89 168.161 113.778 168.082 113.693C168.027 113.634 167.948 113.574 167.843 113.509C168.412 113.077 169.446 112.799 170.546 113.465C170.886 113.671 171.112 114.046 171.353 114.5C171.38 114.551 171.408 114.603 171.435 114.655C171.647 115.06 171.88 115.502 172.22 115.869C172.632 116.313 172.7 116.817 172.617 117.26C172.533 117.709 172.294 118.087 172.11 118.257C172.018 118.342 171.955 118.387 171.915 118.408C171.914 118.403 171.913 118.398 171.913 118.392C171.909 118.348 171.912 118.29 171.917 118.222C171.92 118.189 171.924 118.155 171.927 118.12L171.927 118.119C171.931 118.085 171.934 118.05 171.937 118.016C171.942 117.952 171.946 117.881 171.937 117.823C171.933 117.794 171.924 117.756 171.901 117.721C171.874 117.681 171.829 117.649 171.77 117.646C171.72 117.644 171.677 117.663 171.646 117.681C171.614 117.701 171.58 117.728 171.545 117.76C171.422 117.874 171.327 117.921 171.247 117.937C171.167 117.954 171.087 117.943 170.985 117.913C170.941 117.9 170.893 117.883 170.84 117.865C170.661 117.802 170.431 117.721 170.132 117.713C169.981 117.62 169.91 117.502 169.866 117.369C169.841 117.296 169.825 117.219 169.809 117.137C169.807 117.126 169.805 117.115 169.803 117.104C169.789 117.033 169.775 116.957 169.755 116.885C169.706 116.713 169.62 116.541 169.412 116.43ZM171.883 118.42C171.883 118.42 171.884 118.42 171.884 118.42L171.883 118.42Z" stroke="#A0E79A" stroke-width="0.25"/>
<path d="M164.999 119.263C165.89 118.387 165.769 116.918 164.746 116.2L162.176 114.396C161.265 113.756 160.007 113.983 159.378 114.901L148.22 131.16C147.972 131.52 147.93 131.983 148.109 132.381V132.381C148.186 132.554 148.302 132.707 148.447 132.829L148.571 132.933C149.344 133.583 150.484 133.538 151.204 132.83L164.999 119.263Z" fill="#85DE5B"/>
<path d="M161.924 117.433C162.041 117.622 162.105 117.9 162.109 118.311C162.488 118.607 162.822 118.581 163.148 118.556C163.181 118.553 163.214 118.551 163.247 118.549C163.429 118.536 163.626 118.534 163.806 118.634C163.989 118.737 164.13 118.93 164.241 119.252C164.257 119.297 164.271 119.337 164.284 119.372C164.285 119.364 164.286 119.356 164.287 119.348L164.287 119.347C164.294 119.301 164.3 119.252 164.308 119.203C164.322 119.105 164.342 119 164.371 118.911C164.398 118.83 164.445 118.726 164.538 118.677C164.653 118.618 164.768 118.667 164.859 118.744C164.924 118.799 164.994 118.88 165.071 118.991C165.471 118.402 165.68 117.335 164.901 116.216C164.658 115.868 164.249 115.643 163.762 115.405C163.707 115.379 163.651 115.352 163.595 115.324C163.16 115.115 162.687 114.887 162.282 114.548C161.787 114.131 161.257 114.072 160.807 114.166C160.35 114.262 159.981 114.514 159.821 114.704C159.735 114.806 159.694 114.873 159.679 114.914C159.686 114.915 159.696 114.916 159.709 114.917C159.756 114.92 159.816 114.916 159.886 114.909C159.92 114.906 159.955 114.901 159.99 114.897L159.991 114.897C160.026 114.893 160.062 114.889 160.097 114.885C160.163 114.878 160.235 114.873 160.295 114.88C160.324 114.884 160.363 114.892 160.398 114.914C160.438 114.938 160.472 114.981 160.479 115.039C160.486 115.089 160.469 115.134 160.453 115.167C160.435 115.201 160.41 115.237 160.379 115.273C160.272 115.401 160.232 115.498 160.221 115.58C160.21 115.662 160.228 115.745 160.267 115.849C160.284 115.895 160.306 115.944 160.329 115.999C160.408 116.18 160.509 116.414 160.541 116.72C160.652 116.877 160.784 116.95 160.927 116.994C161.005 117.018 161.086 117.033 161.172 117.047C161.183 117.049 161.195 117.051 161.206 117.053C161.281 117.066 161.36 117.079 161.435 117.098C161.616 117.143 161.796 117.227 161.924 117.433ZM159.672 114.938C159.672 114.938 159.672 114.937 159.672 114.937L159.672 114.938Z" stroke="#A0E79A" stroke-width="0.25"/>
<path d="M137.732 127.367C136.842 126.491 136.963 125.022 137.985 124.304L138.047 124.261C138.958 123.621 140.215 123.848 140.845 124.766L147.017 133.759C147.164 133.973 147.189 134.248 147.083 134.485V134.485C147.037 134.588 146.968 134.679 146.882 134.752L146.808 134.814C146.348 135.2 145.67 135.173 145.242 134.752L137.732 127.367Z" fill="#85DE5B"/>
<path d="M138.824 125.569C138.75 125.689 138.712 125.858 138.707 126.093C138.506 126.241 138.33 126.228 138.143 126.213C138.124 126.212 138.104 126.21 138.084 126.209C137.976 126.202 137.845 126.199 137.723 126.266C137.624 126.322 137.546 126.416 137.485 126.552C137.478 126.52 137.47 126.489 137.46 126.459C137.444 126.41 137.411 126.33 137.336 126.291C137.241 126.241 137.149 126.286 137.089 126.337C137.06 126.361 137.03 126.394 136.999 126.433C136.799 126.089 136.715 125.511 137.139 124.901C137.274 124.707 137.506 124.578 137.796 124.436C137.829 124.42 137.862 124.404 137.896 124.388C138.153 124.264 138.441 124.125 138.687 123.919C138.968 123.683 139.266 123.65 139.521 123.703C139.783 123.758 139.992 123.902 140.079 124.006C140.092 124.022 140.103 124.035 140.113 124.048C140.104 124.047 140.094 124.046 140.085 124.045C140.065 124.043 140.044 124.04 140.023 124.038L140.023 124.038C140.002 124.035 139.98 124.033 139.959 124.031C139.92 124.027 139.872 124.023 139.83 124.028C139.809 124.031 139.778 124.037 139.748 124.055C139.713 124.076 139.683 124.114 139.676 124.166C139.671 124.21 139.685 124.248 139.697 124.271C139.71 124.297 139.728 124.321 139.747 124.344C139.807 124.415 139.825 124.464 139.83 124.5C139.835 124.538 139.827 124.578 139.805 124.637C139.796 124.661 139.784 124.688 139.771 124.719C139.725 124.824 139.662 124.969 139.641 125.153C139.584 125.229 139.519 125.264 139.446 125.287C139.403 125.3 139.357 125.308 139.306 125.317C139.3 125.318 139.293 125.319 139.286 125.32C139.242 125.328 139.193 125.336 139.146 125.348C139.031 125.377 138.91 125.431 138.824 125.569Z" stroke="#A0E79A" stroke-width="0.25"/>
<path d="M167.661 128.311C168.864 127.711 170.373 128.589 170.373 129.933V129.933C170.373 130.179 170.43 130.424 170.54 130.644V130.644C171.029 131.622 170.404 132.789 169.319 132.924L153.757 134.85C152.631 134.989 151.615 134.165 151.518 133.035L151.432 132.027V132.027C151.343 130.982 152.256 130.121 153.299 130.236C155.677 130.5 159.609 130.803 162.189 130.31C164.083 129.948 166.102 129.088 167.661 128.311Z" fill="#85DE5B"/>
<path d="M168.1 130.941C167.961 130.839 167.741 130.781 167.413 130.763C167.28 130.493 167.367 130.262 167.459 130.016C167.469 129.991 167.478 129.966 167.487 129.941C167.536 129.806 167.589 129.642 167.541 129.483C167.491 129.321 167.352 129.201 167.124 129.106C167.145 129.104 167.167 129.102 167.189 129.1C167.274 129.092 167.365 129.081 167.445 129.062C167.519 129.044 167.611 129.013 167.669 128.947C167.702 128.909 167.724 128.861 167.724 128.804C167.725 128.751 167.706 128.701 167.681 128.658C167.652 128.611 167.61 128.563 167.555 128.512C168.146 128.229 169.06 128.126 169.79 128.739C170.01 128.923 170.103 129.227 170.192 129.611C170.202 129.654 170.212 129.698 170.222 129.742C170.298 130.082 170.384 130.463 170.581 130.793C170.804 131.165 170.743 131.556 170.563 131.899C170.381 132.245 170.088 132.522 169.889 132.641C169.825 132.679 169.776 132.705 169.738 132.722C169.745 132.7 169.755 132.675 169.766 132.648C169.777 132.622 169.788 132.595 169.799 132.568L169.8 132.568C169.811 132.541 169.823 132.513 169.834 132.487C169.854 132.437 169.876 132.379 169.883 132.329C169.887 132.305 169.891 132.265 169.876 132.225C169.868 132.203 169.854 132.179 169.83 132.159C169.807 132.14 169.78 132.13 169.756 132.126C169.711 132.119 169.67 132.131 169.642 132.141C169.611 132.153 169.576 132.171 169.54 132.193C169.407 132.272 169.315 132.3 169.244 132.305C169.174 132.311 169.113 132.295 169.039 132.263C169.007 132.249 168.972 132.232 168.933 132.212C168.801 132.146 168.625 132.059 168.377 132.022C168.293 131.946 168.268 131.861 168.264 131.763C168.262 131.706 168.267 131.646 168.274 131.579C168.275 131.57 168.276 131.561 168.277 131.552C168.283 131.495 168.29 131.432 168.291 131.371C168.294 131.225 168.263 131.061 168.1 130.941ZM169.654 132.75C169.654 132.749 169.655 132.749 169.657 132.749C169.655 132.75 169.654 132.75 169.654 132.75Z" stroke="#A0E79A" stroke-width="0.25"/>
<defs>
<filter id="filter0_f_209_119240" x="89" y="185" width="126" height="24.5" filterUnits="userSpaceOnUse" color-interpolation-filters="sRGB">
<feFlood flood-opacity="0" result="BackgroundImageFix"/>
<feBlend mode="normal" in="SourceGraphic" in2="BackgroundImageFix" result="shape"/>
<feGaussianBlur stdDeviation="2" result="effect1_foregroundBlur_209_119240"/>
</filter>
<filter id="filter1_d_209_119240" x="108.145" y="138" width="86.6566" height="19" filterUnits="userSpaceOnUse" color-interpolation-filters="sRGB">
<feFlood flood-opacity="0" result="BackgroundImageFix"/>
<feColorMatrix in="SourceAlpha" type="matrix" values="0 0 0 0 0 0 0 0 0 0 0 0 0 0 0 0 0 0 127 0" result="hardAlpha"/>
<feOffset dy="4"/>
<feGaussianBlur stdDeviation="2"/>
<feComposite in2="hardAlpha" operator="out"/>
<feColorMatrix type="matrix" values="0 0 0 0 0 0 0 0 0 0 0 0 0 0 0 0 0 0 0.25 0"/>
<feBlend mode="normal" in2="BackgroundImageFix" result="effect1_dropShadow_209_119240"/>
<feBlend mode="normal" in="SourceGraphic" in2="effect1_dropShadow_209_119240" result="shape"/>
</filter>
<linearGradient id="paint0_linear_209_119240" x1="152" y1="133" x2="152" y2="147" gradientUnits="userSpaceOnUse">
<stop stop-color="#F7F5F5"/>
<stop offset="1" stop-color="#565454"/>
</linearGradient>
<linearGradient id="paint1_linear_209_119240" x1="152" y1="176" x2="174" y2="183.5" gradientUnits="userSpaceOnUse">
<stop stop-color="#A8690A" stop-opacity="0.81"/>
<stop offset="0.939762" stop-color="#6D4303"/>
</linearGradient>
<linearGradient id="paint2_linear_209_119240" x1="154.5" y1="176" x2="128" y2="185.5" gradientUnits="userSpaceOnUse">
<stop stop-color="#C28427" stop-opacity="0.4"/>
<stop offset="1" stop-color="#885508"/>
</linearGradient>
<linearGradient id="paint3_linear_209_119240" x1="112" y1="138" x2="191" y2="138" gradientUnits="userSpaceOnUse">
<stop offset="0.00865841" stop-color="#744704"/>
<stop offset="0.510756" stop-color="#CD851A"/>
<stop offset="1" stop-color="#724603"/>
</linearGradient>
</defs>
</svg>
