<svg width="303" height="271" viewBox="0 0 303 271" fill="none" xmlns="http://www.w3.org/2000/svg">
<ellipse cx="151" cy="120" rx="36" ry="5" fill="url(#paint0_linear_61_71434)"/>
<g filter="url(#filter0_f_61_71434)">
<path d="M210 180C210 184.971 183.585 187.5 151 187.5C118.415 187.5 92 184.971 92 180C92 175.029 118.415 171 151 171C183.585 171 210 175.029 210 180Z" fill="#D9D9D9"/>
</g>
<path d="M115.242 127.198C115.117 126.579 115.59 126 116.222 126H185.245C185.887 126 186.363 126.597 186.219 127.224L174.178 179.724C174.074 180.178 173.67 180.5 173.203 180.5H126.818C126.342 180.5 125.932 180.164 125.838 179.698L115.242 127.198Z" fill="#B4771A"/>
<path d="M115.377 127.869C115.254 127.256 115.192 126.95 115.266 126.708C115.342 126.456 115.515 126.245 115.746 126.12C115.969 126 116.281 126 116.906 126H184.542C185.182 126 185.502 126 185.727 126.124C185.961 126.253 186.133 126.469 186.206 126.726C186.277 126.973 186.205 127.285 186.062 127.909L174.278 179.289C174.183 179.702 174.135 179.909 174.028 180.066C173.915 180.23 173.756 180.357 173.571 180.43C173.394 180.5 173.182 180.5 172.757 180.5H127.277C126.841 180.5 126.624 180.5 126.444 180.427C126.256 180.351 126.095 180.22 125.984 180.051C125.877 179.888 125.834 179.675 125.747 179.249L115.377 127.869Z" fill="url(#paint1_linear_61_71434)"/>
<path d="M115.377 127.869C115.254 127.256 115.192 126.95 115.266 126.708C115.342 126.456 115.515 126.245 115.746 126.12C115.969 126 116.281 126 116.906 126H184.542C185.182 126 185.502 126 185.727 126.124C185.961 126.253 186.133 126.469 186.206 126.726C186.277 126.973 186.205 127.285 186.062 127.909L174.278 179.289C174.183 179.702 174.135 179.909 174.028 180.066C173.915 180.23 173.756 180.357 173.571 180.43C173.394 180.5 173.182 180.5 172.757 180.5H127.277C126.841 180.5 126.624 180.5 126.444 180.427C126.256 180.351 126.095 180.22 125.984 180.051C125.877 179.888 125.834 179.675 125.747 179.249L115.377 127.869Z" fill="url(#paint2_linear_61_71434)"/>
<g filter="url(#filter1_d_61_71434)">
<path d="M111.155 121.135C111.073 120.535 111.54 120 112.146 120H188.802C189.426 120 189.897 120.565 189.786 121.179L188.149 130.179C188.063 130.654 187.649 131 187.165 131H113.373C112.873 131 112.45 130.631 112.382 130.135L111.155 121.135Z" fill="url(#paint3_linear_61_71434)"/>
</g>
<path d="M181.039 111.292C182.411 110.829 183.893 111.988 183.695 113.423C183.659 113.685 183.684 113.956 183.768 114.206C184.146 115.322 183.307 116.475 182.129 116.459L165.077 116.221C163.943 116.205 163.049 115.25 163.108 114.117L163.173 112.868C163.232 111.739 164.333 110.955 165.429 111.232C167.928 111.863 172.079 112.766 174.905 112.62C176.98 112.512 179.261 111.892 181.039 111.292Z" fill="#7ECF57"/>
<path d="M182.477 115.72C182.322 115.786 182.218 115.803 182.139 115.798C182.063 115.793 181.998 115.767 181.923 115.721C181.89 115.702 181.855 115.677 181.816 115.651C181.684 115.561 181.511 115.442 181.251 115.366C181.169 115.27 181.154 115.172 181.165 115.064C181.171 115.002 181.185 114.938 181.203 114.867C181.205 114.858 181.208 114.849 181.21 114.84C181.225 114.78 181.242 114.714 181.252 114.649C181.276 114.495 181.267 114.32 181.114 114.171C180.982 114.043 180.756 113.949 180.406 113.881C180.299 113.566 180.429 113.328 180.564 113.077C180.578 113.052 180.592 113.027 180.605 113.001C180.678 112.864 180.757 112.7 180.729 112.526C180.699 112.343 180.561 112.192 180.314 112.053C180.312 112.052 180.31 112.051 180.309 112.05C180.344 112.052 180.382 112.054 180.419 112.056C180.511 112.06 180.61 112.061 180.698 112.052C180.779 112.044 180.878 112.025 180.948 111.965C180.987 111.931 181.016 111.885 181.025 111.827C181.033 111.772 181.021 111.718 181 111.67C180.976 111.613 180.936 111.553 180.88 111.486C181.555 111.266 182.559 111.286 183.256 112.056C183.465 112.288 183.52 112.629 183.559 113.052C183.563 113.099 183.567 113.147 183.571 113.196C183.603 113.57 183.638 113.987 183.799 114.367C183.983 114.801 183.859 115.213 183.615 115.554C183.37 115.899 183.014 116.152 182.783 116.25C182.697 116.287 182.633 116.309 182.588 116.32C182.601 116.293 182.618 116.261 182.639 116.226C182.654 116.199 182.67 116.173 182.686 116.146L182.686 116.145C182.703 116.118 182.719 116.09 182.734 116.064C182.763 116.013 182.795 115.955 182.81 115.904C182.817 115.88 182.827 115.841 182.817 115.798C182.812 115.774 182.801 115.748 182.78 115.725C182.759 115.702 182.734 115.689 182.71 115.681C182.666 115.668 182.623 115.674 182.591 115.681C182.557 115.689 182.518 115.702 182.477 115.72ZM182.511 116.332C182.511 116.332 182.513 116.332 182.515 116.332C182.512 116.332 182.511 116.332 182.511 116.332Z" stroke="#A0E79A" stroke-width="0.25"/>
<path d="M124.659 116.871C123.419 117.027 122.342 116.021 122.413 114.773L122.588 111.694C122.651 110.583 123.609 109.737 124.72 109.812L144.233 111.129C144.666 111.159 145.052 111.411 145.253 111.795C145.34 111.962 145.388 112.146 145.394 112.334L145.399 112.495C145.429 113.497 144.692 114.357 143.697 114.482L124.659 116.871Z" fill="#7ECF57"/>
<path d="M124.378 110.821C124.543 110.816 124.644 110.844 124.714 110.886C124.784 110.928 124.838 110.993 124.895 111.088C124.92 111.129 124.945 111.176 124.973 111.228C125.066 111.401 125.186 111.624 125.405 111.837C125.459 112.02 125.434 112.167 125.38 112.305C125.351 112.38 125.313 112.453 125.271 112.529C125.266 112.539 125.26 112.549 125.254 112.559C125.218 112.625 125.18 112.694 125.148 112.765C125.072 112.934 125.026 113.125 125.108 113.352C125.183 113.56 125.361 113.781 125.678 114.037C125.675 114.514 125.45 114.758 125.23 114.995C125.207 115.02 125.185 115.044 125.163 115.068C125.042 115.202 124.918 115.355 124.885 115.557C124.852 115.763 124.916 115.992 125.099 116.277C125.124 116.315 125.145 116.35 125.164 116.381C125.158 116.377 125.152 116.374 125.146 116.37L125.146 116.37C125.106 116.346 125.064 116.321 125.021 116.297C124.935 116.248 124.841 116.198 124.754 116.167C124.675 116.138 124.565 116.11 124.469 116.153C124.351 116.205 124.319 116.326 124.322 116.444C124.325 116.529 124.346 116.633 124.384 116.761C123.68 116.709 122.722 116.215 122.33 114.921C122.209 114.518 122.285 114.061 122.4 113.536C122.413 113.476 122.426 113.416 122.44 113.355C122.544 112.889 122.658 112.379 122.643 111.855C122.623 111.213 122.903 110.765 123.254 110.472C123.609 110.175 124.032 110.043 124.279 110.035C124.41 110.031 124.487 110.041 124.528 110.054C124.525 110.06 124.52 110.068 124.513 110.079C124.486 110.117 124.446 110.161 124.398 110.211C124.374 110.235 124.349 110.26 124.324 110.285L124.324 110.285C124.299 110.31 124.273 110.335 124.249 110.36C124.203 110.408 124.154 110.461 124.123 110.512C124.108 110.537 124.091 110.572 124.086 110.613C124.08 110.66 124.092 110.713 124.133 110.754C124.169 110.79 124.214 110.805 124.25 110.812C124.288 110.82 124.331 110.822 124.378 110.821ZM124.552 110.063C124.552 110.063 124.551 110.063 124.551 110.062L124.552 110.063Z" stroke="#A0E79A" stroke-width="0.25"/>
<path d="M128.123 102.953C127.036 102.337 126.773 100.886 127.575 99.9287L128.469 98.8619C129.183 98.0087 130.457 97.9029 131.302 98.6265L142.464 108.179C142.719 108.397 142.842 108.732 142.789 109.064C142.766 109.208 142.711 109.344 142.627 109.464L142.556 109.566C142.111 110.202 141.255 110.395 140.58 110.012L128.123 102.953Z" fill="#73C54D"/>
<path d="M130.261 98.8216C130.363 98.8929 130.408 98.9532 130.429 99.0051C130.451 99.0578 130.455 99.1172 130.447 99.2008C130.443 99.2362 130.437 99.276 130.431 99.32C130.408 99.4691 130.379 99.6662 130.415 99.9019C130.367 100.029 130.289 100.103 130.198 100.16C130.146 100.192 130.09 100.219 130.029 100.247C130.021 100.25 130.013 100.254 130.005 100.258C129.953 100.282 129.895 100.308 129.842 100.338C129.713 100.409 129.589 100.512 129.532 100.7C129.481 100.869 129.489 101.09 129.565 101.391C129.352 101.667 129.112 101.712 128.869 101.757C128.844 101.762 128.818 101.767 128.793 101.772C128.656 101.799 128.501 101.837 128.381 101.954C128.261 102.07 128.194 102.244 128.173 102.498C128.171 102.494 128.17 102.489 128.168 102.485C128.137 102.415 128.101 102.339 128.06 102.277C128.024 102.222 127.963 102.145 127.872 102.124C127.758 102.099 127.672 102.171 127.617 102.249C127.583 102.297 127.551 102.362 127.52 102.442C127.128 102.081 126.792 101.355 127.135 100.407C127.242 100.108 127.496 99.8639 127.811 99.5904C127.846 99.5596 127.882 99.5286 127.919 99.4971C128.199 99.2557 128.509 98.9896 128.744 98.6539C129.023 98.2544 129.396 98.1093 129.742 98.0901C130.094 98.0705 130.412 98.1825 130.563 98.2881C130.617 98.3261 130.653 98.3562 130.676 98.3789C130.647 98.3871 130.61 98.3942 130.567 98.4011C130.541 98.4052 130.515 98.409 130.487 98.4129L130.487 98.413C130.46 98.4168 130.432 98.4208 130.406 98.4251C130.355 98.4332 130.297 98.4441 130.251 98.4629C130.228 98.4722 130.197 98.4877 130.171 98.515C130.141 98.5467 130.12 98.5932 130.128 98.6478C130.134 98.6944 130.16 98.7297 130.18 98.7528C130.202 98.7773 130.23 98.8 130.261 98.8216Z" stroke="#A0E79A" stroke-width="0.25"/>
<path d="M160.025 86.1821C160.071 85.1117 160.952 84.2673 162.024 84.2673C162.633 84.2673 163.201 84.2673 163.401 84.2673C163.876 84.2673 166.221 85.1937 166.451 85.2847C166.464 85.2899 166.475 85.2946 166.488 85.3001L167.327 85.6556C168.224 86.0359 168.717 87.0077 168.493 87.9563L162.695 112.537C162.574 113.049 162.196 113.463 161.696 113.63C161.47 113.705 161.228 113.727 160.992 113.692L160.648 113.641C159.635 113.491 158.899 112.6 158.943 111.577L160.025 86.1821Z" fill="#73C54D"/>
<path d="M160.575 86.9263C160.536 86.943 160.5 86.9582 160.466 86.9721C160.499 86.9401 160.534 86.9071 160.566 86.8749C160.652 86.7897 160.739 86.6967 160.803 86.6081C160.834 86.5638 160.863 86.5164 160.882 86.4683C160.901 86.4211 160.914 86.3623 160.901 86.3009C160.87 86.1577 160.729 86.1097 160.599 86.0973C160.487 86.0866 160.337 86.0956 160.141 86.1257C160.211 85.4931 160.367 84.9831 160.686 84.6533C161.025 84.304 161.576 84.1299 162.506 84.2823L162.516 84.284L162.526 84.284C163.007 84.284 163.737 84.4341 164.478 84.6503C165.217 84.8659 165.953 85.1429 166.444 85.3885L166.452 85.3925L166.461 85.3953C167.947 85.8908 168.459 86.6538 168.376 87.2598C168.356 87.4056 168.335 87.5013 168.314 87.5606C168.283 87.5131 168.249 87.4469 168.212 87.3702C168.194 87.3325 168.177 87.2936 168.159 87.2545L168.158 87.2533C168.14 87.2141 168.122 87.1745 168.104 87.1371C168.07 87.0651 168.032 86.991 167.994 86.9394C167.976 86.9153 167.947 86.8818 167.907 86.8615C167.885 86.8503 167.856 86.841 167.821 86.8437C167.785 86.8466 167.755 86.8613 167.733 86.8802C167.693 86.9135 167.673 86.9611 167.662 86.9965C167.649 87.0362 167.639 87.0851 167.631 87.142C167.602 87.3558 167.543 87.4835 167.47 87.5693C167.396 87.6559 167.297 87.7124 167.163 87.7656C167.104 87.7891 167.038 87.8116 166.966 87.836C166.726 87.9173 166.424 88.0199 166.11 88.251C165.855 88.2842 165.664 88.2195 165.494 88.1179C165.404 88.0637 165.319 87.9991 165.231 87.9302C165.22 87.9211 165.208 87.9119 165.196 87.9026C165.121 87.8433 165.043 87.7811 164.962 87.7271C164.769 87.5988 164.546 87.5045 164.255 87.5578C163.982 87.6075 163.669 87.7829 163.275 88.1348C162.649 88.0314 162.379 87.6824 162.122 87.3514C162.096 87.3179 162.071 87.2846 162.045 87.2518C161.901 87.0707 161.741 86.8901 161.503 86.8097C161.262 86.7282 160.968 86.7578 160.575 86.9263Z" stroke="#A0E79A" stroke-width="0.25"/>
<path d="M149.189 85.4663C149.138 84.2181 147.968 83.3219 146.749 83.5977L141.697 84.7414C140.612 84.9871 139.936 86.0716 140.193 87.1544L146.107 112.043C146.235 112.583 146.635 113.017 147.162 113.189C147.391 113.263 147.634 113.285 147.872 113.253L148.514 113.165C149.536 113.025 150.284 112.131 150.241 111.101L149.189 85.4663Z" fill="#73C54D"/>
<path d="M142.155 87.7584C142.395 87.8397 142.697 87.9423 143.01 88.1734C143.266 88.2066 143.456 88.1419 143.627 88.0402C143.717 87.9861 143.802 87.9215 143.889 87.8526C143.901 87.8435 143.913 87.8343 143.924 87.825C143.999 87.7657 144.078 87.7035 144.159 87.6494C144.352 87.5211 144.575 87.4269 144.866 87.4802C145.138 87.5299 145.452 87.7053 145.846 88.0572C146.472 87.9537 146.742 87.6048 146.998 87.2738C147.024 87.2403 147.05 87.207 147.076 87.1742C147.22 86.9931 147.38 86.8124 147.618 86.7321C147.859 86.6506 148.153 86.6802 148.546 86.8487C148.659 86.8968 148.747 86.9318 148.817 86.956C148.786 86.9185 148.752 86.8779 148.715 86.8343L148.714 86.8334C148.676 86.7883 148.635 86.7403 148.595 86.6915C148.516 86.5943 148.435 86.4885 148.378 86.3877C148.326 86.2945 148.274 86.1724 148.304 86.0563C148.34 85.9177 148.468 85.8557 148.612 85.8362C148.73 85.8202 148.888 85.8271 149.091 85.8581C149.058 84.7621 148.822 84.2162 148.412 83.9284C148.193 83.7754 147.913 83.686 147.557 83.636C147.201 83.586 146.78 83.5767 146.285 83.5767L146.277 83.5767L146.269 83.5757C145.725 83.5057 145.156 83.7025 144.519 83.9579C144.447 83.9869 144.373 84.0166 144.3 84.0466C143.732 84.2772 143.118 84.5268 142.458 84.6171C141.616 84.7323 140.959 85.1198 140.595 85.5895C140.232 86.0573 140.162 86.5966 140.459 87.0538C140.552 87.196 140.629 87.2801 140.69 87.3262C140.75 87.3711 140.787 87.3747 140.807 87.3723C140.829 87.3695 140.857 87.3561 140.893 87.3191C140.928 87.282 140.962 87.2297 140.996 87.1676C141.027 87.1091 141.054 87.048 141.08 86.9901L141.084 86.981L141.086 86.9771C141.109 86.9237 141.137 86.8619 141.165 86.8221C141.173 86.8107 141.184 86.7967 141.199 86.7839C141.212 86.7717 141.236 86.754 141.27 86.7471C141.36 86.7289 141.412 86.7952 141.428 86.8229C141.446 86.8535 141.457 86.8908 141.465 86.9255C141.474 86.9629 141.482 87.0091 141.49 87.0644C141.519 87.2782 141.578 87.4059 141.651 87.4917C141.725 87.5782 141.823 87.6348 141.957 87.6879C142.017 87.7114 142.083 87.734 142.155 87.7584Z" fill="#73C54D" stroke="#A0E79A" stroke-width="0.25"/>
<path d="M136.233 89.1634C136.164 87.6654 134.459 86.7293 133.203 87.5499L133.154 87.5822C132.765 87.8367 132.289 87.9219 131.835 87.8181C130.497 87.5119 129.36 88.8272 129.858 90.1071L137.446 109.634C137.856 110.689 139.058 111.194 140.098 110.748L141.84 110.002L141.92 109.968C143.114 109.456 143.52 107.954 142.781 106.885C141.072 104.412 138.378 100.218 137.402 97.0492C136.636 94.5633 136.341 91.4972 136.233 89.1634Z" fill="#7ECF57"/>
<path d="M135.787 90.438C135.818 90.4645 135.847 90.4879 135.872 90.5085C135.863 90.4871 135.853 90.4649 135.843 90.4419L135.843 90.4411C135.822 90.3939 135.8 90.3436 135.779 90.2928C135.737 90.1914 135.695 90.0824 135.669 89.9822C135.645 89.8883 135.627 89.775 135.663 89.68C135.683 89.6271 135.719 89.5801 135.775 89.5496C135.828 89.5205 135.888 89.5122 135.948 89.5152C136.027 89.5192 136.12 89.5432 136.231 89.5863C136.211 88.7261 135.774 87.5709 134.593 87.0962C134.237 86.953 133.824 87.0351 133.334 87.1666C133.279 87.1814 133.224 87.1967 133.167 87.2122C132.734 87.3313 132.255 87.463 131.766 87.4393C131.192 87.4115 130.581 87.8216 130.181 88.3237C129.983 88.5723 129.847 88.8313 129.796 89.0503C129.744 89.2721 129.784 89.4201 129.884 89.5011C130.128 89.6995 130.269 89.7159 130.34 89.6979C130.41 89.6802 130.465 89.6153 130.504 89.5152C130.51 89.4991 130.515 89.4829 130.52 89.4669C130.525 89.3811 130.531 89.3229 130.537 89.2874C130.539 89.2775 130.541 89.2667 130.545 89.2562C130.546 89.2511 130.549 89.2437 130.552 89.2356L130.552 89.2355C130.555 89.2303 130.563 89.2112 130.582 89.1935C130.592 89.1839 130.612 89.1683 130.641 89.1617C130.675 89.1543 130.708 89.1612 130.733 89.1766C130.772 89.1998 130.785 89.2358 130.787 89.2419L130.788 89.2423C130.795 89.2618 130.796 89.2801 130.797 89.2861L130.797 89.2862C130.8 89.3289 130.793 89.4136 130.768 89.507C130.759 89.7092 130.783 89.8374 130.823 89.9281C130.862 90.0171 130.921 90.0814 131.005 90.1484C131.042 90.1781 131.085 90.2084 131.131 90.2416C131.288 90.353 131.491 90.497 131.681 90.7569C131.835 90.8155 131.96 90.7906 132.083 90.7309C132.152 90.6976 132.218 90.6538 132.29 90.6049C132.3 90.5986 132.309 90.5921 132.319 90.5856C132.38 90.5436 132.446 90.4984 132.513 90.4611C132.673 90.372 132.864 90.3133 133.084 90.419C133.279 90.5121 133.476 90.7247 133.7 91.0962C134.117 91.0911 134.34 90.8369 134.568 90.5783C134.59 90.5525 134.613 90.5266 134.636 90.5009C134.761 90.3621 134.907 90.212 135.105 90.1734C135.312 90.1329 135.531 90.22 135.787 90.438Z" fill="#7ECF57" stroke="#A0E79A" stroke-width="0.25"/>
<path d="M150.911 88.8678C150.511 87.3398 151.868 85.8227 153.411 86.1598L153.8 86.2449C154.103 86.3112 154.418 86.306 154.719 86.2296L154.783 86.2133C156.122 85.8736 157.393 86.9605 157.267 88.3355L155.351 109.109C155.246 110.239 154.225 111.055 153.1 110.908L151.212 110.662L151.103 110.647C149.818 110.479 149.02 109.152 149.436 107.925C150.422 105.017 151.92 100.073 152.01 96.6482C152.079 94.0319 151.491 91.0895 150.911 88.8678Z" fill="#7ECF57"/>
<path d="M151.858 90.1597C151.836 90.1936 151.815 90.2238 151.796 90.2506C151.799 90.2275 151.802 90.2035 151.806 90.1787L151.806 90.1777C151.813 90.1267 151.82 90.0724 151.827 90.0177C151.84 89.9086 151.851 89.7923 151.849 89.6889C151.846 89.592 151.832 89.4782 151.772 89.3964C151.739 89.3509 151.691 89.3154 151.629 89.3012C151.57 89.2876 151.51 89.296 151.453 89.3153C151.377 89.3408 151.291 89.3908 151.194 89.4648C151.05 89.0351 150.866 88.4492 150.877 87.8929C150.883 87.5784 150.953 87.2821 151.121 87.0323C151.289 86.784 151.563 86.5702 152 86.4328L152.021 86.4261L152.038 86.4125C152.184 86.2999 152.364 86.2444 152.576 86.224C152.79 86.2033 153.029 86.2189 153.288 86.2417C153.33 86.2454 153.373 86.2493 153.416 86.2532C153.893 86.2968 154.427 86.3457 154.915 86.1824C155.46 85.9998 155.949 86.191 156.337 86.5168C156.728 86.8448 157 87.2963 157.097 87.5854C157.143 87.7252 157.164 87.8181 157.17 87.8766C157.128 87.8564 157.076 87.8236 157.017 87.7829C156.987 87.7624 156.956 87.7408 156.925 87.7189L156.925 87.7184C156.894 87.6966 156.863 87.6743 156.832 87.6537C156.775 87.6144 156.711 87.5732 156.655 87.5513C156.628 87.5408 156.586 87.528 156.54 87.5341C156.515 87.5375 156.487 87.5469 156.462 87.5667C156.437 87.5864 156.421 87.6114 156.411 87.6361C156.393 87.6809 156.396 87.7283 156.401 87.7649C156.407 87.8048 156.419 87.8504 156.436 87.9013C156.5 88.0935 156.512 88.2236 156.498 88.3218C156.485 88.4182 156.445 88.4962 156.382 88.5834C156.355 88.622 156.322 88.6627 156.286 88.7074C156.165 88.8571 156.01 89.0507 155.897 89.3525C155.765 89.4506 155.638 89.4605 155.503 89.4364C155.428 89.423 155.352 89.399 155.269 89.3715C155.259 89.3679 155.248 89.3643 155.237 89.3606C155.166 89.3368 155.09 89.3113 155.016 89.2935C154.838 89.2511 154.638 89.2465 154.455 89.4081C154.293 89.5504 154.16 89.8086 154.046 90.2269C153.643 90.3351 153.359 90.1511 153.07 89.9638C153.041 89.9451 153.012 89.9264 152.983 89.9079C152.826 89.808 152.644 89.7034 152.443 89.7198C152.233 89.737 152.046 89.8804 151.858 90.1597ZM157.169 87.9297C157.169 87.9296 157.169 87.9285 157.17 87.9267C157.17 87.9289 157.169 87.9298 157.169 87.9297Z" fill="#7ECF57" stroke="#A0E79A" stroke-width="0.25"/>
<path d="M156.5 94.7833C156.531 93.2043 158.248 92.1121 159.641 92.8552L159.993 93.0428C160.267 93.1889 160.571 93.2692 160.881 93.2774L160.948 93.2791C162.328 93.3154 163.257 94.7066 162.762 95.9956L155.281 115.47C154.875 116.529 153.669 117.038 152.627 116.591L150.877 115.841L150.776 115.798C149.585 115.288 149.176 113.794 149.91 112.726C151.648 110.194 154.431 105.842 155.447 102.57C156.223 100.071 156.456 97.0791 156.5 94.7833Z" fill="#7ECF57"/>
<path d="M161.875 95.1042C161.885 95.3067 161.861 95.4351 161.821 95.5259C161.782 95.615 161.722 95.6793 161.639 95.7462C161.602 95.7759 161.559 95.8062 161.512 95.8394C161.355 95.9508 161.153 96.0948 160.963 96.3547C160.809 96.4133 160.684 96.3884 160.561 96.3287C160.492 96.2954 160.425 96.2516 160.353 96.2028C160.344 96.1964 160.335 96.1899 160.325 96.1834C160.264 96.1414 160.198 96.0962 160.131 96.059C159.971 95.9698 159.78 95.9111 159.559 96.0168C159.365 96.1099 159.167 96.3225 158.944 96.694C158.527 96.6889 158.303 96.4347 158.076 96.1761C158.053 96.1503 158.03 96.1244 158.007 96.0987C157.883 95.9599 157.736 95.8098 157.539 95.7712C157.332 95.7307 157.113 95.8178 156.856 96.0358C156.825 96.0623 156.797 96.0857 156.772 96.1063C156.781 96.0849 156.79 96.0627 156.801 96.0397L156.801 96.0389C156.821 95.9917 156.843 95.9415 156.865 95.8906C156.907 95.7892 156.949 95.6802 156.975 95.58C156.999 95.4861 157.016 95.3728 156.981 95.2778C156.961 95.225 156.925 95.1779 156.869 95.1474C156.816 95.1183 156.756 95.11 156.695 95.1131C156.617 95.117 156.523 95.141 156.413 95.1841C156.433 94.3239 156.87 93.1687 158.051 92.694C158.407 92.5508 158.82 92.6329 159.309 92.7644C159.364 92.7792 159.42 92.7945 159.477 92.8101C159.91 92.9291 160.389 93.0608 160.878 93.0371C161.451 93.0094 161.918 93.3552 162.255 93.8111C162.593 94.2682 162.776 94.8068 162.791 95.1042C162.798 95.2632 162.788 95.355 162.774 95.4028C162.76 95.3949 162.743 95.383 162.722 95.3664C162.674 95.3269 162.619 95.2708 162.559 95.2057C162.53 95.1738 162.501 95.1409 162.471 95.1077L162.47 95.1068C162.44 95.0736 162.41 95.04 162.381 95.0084C162.325 94.9472 162.265 94.8856 162.209 94.8451C162.182 94.8252 162.146 94.8031 162.106 94.793C162.06 94.7817 161.999 94.7846 161.948 94.8294C161.905 94.8674 161.889 94.9192 161.882 94.9584C161.874 95.0005 161.873 95.0497 161.875 95.1042Z" fill="#7ECF57" stroke="#A0E79A" stroke-width="0.25"/>
<path d="M137.491 93.6067C137.373 92.3711 138.398 91.3278 139.635 91.423L143.063 91.6867C144.087 91.7654 144.884 92.606 144.909 93.632L145.4 113.745C145.427 114.868 144.524 115.793 143.4 115.793H141.942H141.423C140.391 115.793 139.529 115.01 139.432 113.983L137.491 93.6067Z" fill="#85DE5B"/>
<path d="M143.456 94.2807C143.27 94.3735 143.031 94.4924 142.799 94.7166C142.603 94.7689 142.446 94.7383 142.3 94.6763C142.221 94.6427 142.146 94.6 142.067 94.5535C142.056 94.5474 142.046 94.5412 142.035 94.5349C141.967 94.4948 141.895 94.4522 141.822 94.4167C141.647 94.3319 141.448 94.2777 141.208 94.3562C140.987 94.4286 140.749 94.6083 140.469 94.9364C139.961 94.9191 139.708 94.6712 139.463 94.4311C139.438 94.4067 139.413 94.3823 139.388 94.3583C139.251 94.2261 139.095 94.092 138.885 94.0516C138.671 94.0105 138.428 94.0703 138.123 94.2535C138.071 94.2846 138.026 94.3107 137.987 94.3325C137.995 94.3191 138.004 94.3052 138.013 94.291L138.014 94.2901C138.04 94.249 138.068 94.2051 138.095 94.1606C138.149 94.072 138.204 93.9751 138.24 93.8845C138.273 93.8019 138.305 93.689 138.264 93.5888C138.214 93.4671 138.091 93.4295 137.967 93.4297C137.868 93.4298 137.74 93.4528 137.58 93.4997C137.496 93.0618 137.627 92.6502 137.944 92.2925C138.294 91.8983 138.87 91.5694 139.63 91.3632C140.062 91.2982 140.549 91.3965 141.098 91.5201C141.133 91.5279 141.168 91.5359 141.204 91.5438C141.72 91.6604 142.282 91.7874 142.864 91.7874C143.546 91.7874 144.094 92.125 144.435 92.5218C144.605 92.7204 144.719 92.9296 144.773 93.1119C144.828 93.2989 144.812 93.4341 144.762 93.5093C144.602 93.7463 144.502 93.7768 144.463 93.7758C144.422 93.7748 144.37 93.7391 144.309 93.6468C144.281 93.6051 144.257 93.5606 144.235 93.5189C144.233 93.5146 144.231 93.5101 144.228 93.5055C144.211 93.4726 144.19 93.4315 144.171 93.4062C144.164 93.398 144.152 93.3839 144.135 93.3715C144.119 93.3598 144.081 93.3375 144.029 93.348C143.977 93.3586 143.951 93.3948 143.94 93.4131C143.929 93.432 143.924 93.4507 143.921 93.4623C143.911 93.5054 143.908 93.5737 143.908 93.659C143.908 93.8344 143.875 93.941 143.828 94.0148C143.78 94.0895 143.709 94.1446 143.607 94.2024C143.562 94.2276 143.511 94.253 143.456 94.2807Z" stroke="#A0E79A" stroke-width="0.25"/>
<path d="M153.829 93.6067C153.946 92.3711 152.922 91.3278 151.684 91.423L148.256 91.6867C147.233 91.7654 146.435 92.606 146.41 93.632L145.92 113.745C145.892 114.868 146.795 115.793 147.919 115.793H149.377H149.897C150.928 115.793 151.79 115.01 151.888 113.983L153.829 93.6067Z" fill="#85DE5B"/>
<path d="M147.156 93.6512C147.156 93.6513 147.156 93.6524 147.157 93.6542C147.156 93.652 147.156 93.6511 147.156 93.6512ZM147.865 94.3607C148.051 94.4535 148.29 94.5724 148.522 94.7966C148.719 94.8489 148.875 94.8183 149.021 94.7563C149.1 94.7227 149.175 94.68 149.254 94.6335C149.265 94.6274 149.275 94.6212 149.286 94.6149C149.354 94.5748 149.426 94.5322 149.499 94.4966C149.674 94.4119 149.873 94.3576 150.113 94.4362C150.334 94.5086 150.572 94.6883 150.852 95.0164C151.36 94.9991 151.613 94.7512 151.858 94.5111C151.883 94.4867 151.908 94.4623 151.933 94.4383C152.07 94.3061 152.226 94.172 152.436 94.1316C152.65 94.0905 152.893 94.1503 153.198 94.3335C153.25 94.3646 153.295 94.3907 153.334 94.4125C153.326 94.3991 153.317 94.3852 153.308 94.371L153.307 94.3702C153.281 94.3291 153.253 94.2851 153.226 94.2406C153.172 94.152 153.117 94.0551 153.081 93.9644C153.048 93.8819 153.016 93.769 153.057 93.6688C153.107 93.5471 153.23 93.5095 153.354 93.5097C153.454 93.5098 153.582 93.5331 153.744 93.5805C153.828 93.1368 153.586 92.6007 153.177 92.1443C152.958 91.8997 152.698 91.6878 152.435 91.5378C152.174 91.3889 151.918 91.3055 151.699 91.3033C151.436 91.3422 151.157 91.3967 150.858 91.4549C150.653 91.495 150.438 91.5368 150.214 91.5766C149.665 91.6736 149.073 91.7551 148.457 91.7551V91.7555L148.447 91.7547C147.612 91.6866 147.126 92.0447 146.854 92.481C146.574 92.9283 146.519 93.4601 146.566 93.7168C146.595 93.882 146.629 93.9834 146.66 94.0412C146.674 94.0687 146.685 94.081 146.691 94.0862C146.698 94.0835 146.712 94.0762 146.734 94.0558C146.771 94.023 146.811 93.9727 146.855 93.9103C146.893 93.8557 146.93 93.7971 146.965 93.74C146.97 93.7327 146.975 93.7254 146.979 93.7181C147.017 93.6573 147.058 93.5942 147.094 93.5504C147.111 93.5298 147.136 93.5023 147.167 93.4837C147.184 93.4738 147.21 93.4618 147.243 93.4606C147.279 93.4592 147.314 93.4717 147.342 93.4946C147.386 93.5322 147.399 93.5868 147.404 93.6141C147.41 93.6492 147.413 93.6914 147.413 93.739C147.413 93.9144 147.446 94.021 147.493 94.0948C147.541 94.1695 147.612 94.2246 147.714 94.2824C147.759 94.3076 147.81 94.333 147.865 94.3607ZM146.696 94.0896C146.696 94.0895 146.696 94.0892 146.695 94.0889L146.696 94.0896Z" stroke="#A0E79A" stroke-width="0.25"/>
<path d="M149.224 99.4972C149.819 98.3025 151.391 97.9844 152.389 98.8698L154.056 100.348C154.825 101.03 154.951 102.186 154.347 103.019L145.115 115.733C144.454 116.644 143.172 116.83 142.279 116.145L141.457 115.514L141.423 115.489C140.542 114.812 140.378 113.547 141.046 112.66C142.35 110.931 144.405 108.132 145.741 105.956C146.917 104.041 148.279 101.397 149.224 99.4972Z" fill="#81D858"/>
<path d="M153.898 102.36C153.814 102.469 153.743 102.516 153.681 102.537C153.617 102.558 153.545 102.557 153.448 102.541C153.406 102.534 153.359 102.524 153.309 102.513C153.137 102.476 152.914 102.427 152.645 102.45C152.49 102.382 152.401 102.283 152.334 102.17C152.298 102.108 152.268 102.042 152.237 101.971C152.233 101.962 152.229 101.952 152.225 101.943C152.198 101.881 152.17 101.816 152.137 101.754C152.059 101.607 151.949 101.465 151.743 101.389C151.555 101.32 151.303 101.311 150.953 101.374C150.624 101.102 150.575 100.818 150.528 100.538C150.523 100.509 150.518 100.481 150.513 100.452C150.484 100.294 150.444 100.123 150.318 99.9844C150.19 99.8436 149.993 99.7548 149.693 99.713C149.674 99.7104 149.657 99.7079 149.64 99.7054C149.664 99.6973 149.688 99.6889 149.713 99.6802C149.793 99.6514 149.88 99.6173 149.952 99.5765C149.987 99.5561 150.024 99.5316 150.054 99.502C150.084 99.4727 150.114 99.4327 150.127 99.3809C150.156 99.2624 150.082 99.1684 149.999 99.1047C149.941 99.0601 149.861 99.0159 149.757 98.9707C150.174 98.5502 151.024 98.2132 152.128 98.6855C152.475 98.8341 152.754 99.1446 153.06 99.5205C153.095 99.563 153.13 99.6062 153.165 99.6499C153.437 99.9856 153.733 100.353 154.11 100.642C154.57 100.995 154.731 101.434 154.747 101.828C154.763 102.229 154.628 102.58 154.503 102.742C154.445 102.818 154.402 102.861 154.374 102.882C154.372 102.878 154.371 102.874 154.369 102.869C154.357 102.831 154.347 102.78 154.339 102.719C154.335 102.69 154.331 102.66 154.327 102.629L154.327 102.628C154.323 102.597 154.319 102.566 154.314 102.536C154.306 102.478 154.295 102.414 154.275 102.363C154.265 102.338 154.25 102.305 154.223 102.278C154.193 102.247 154.147 102.223 154.092 102.227C154.043 102.23 154.004 102.254 153.977 102.275C153.949 102.298 153.923 102.327 153.898 102.36Z" fill="#81D858" stroke="#A0E79A" stroke-width="0.25"/>
<path d="M147.896 98.5244C147.807 97.1931 146.478 96.2946 145.216 96.7278L143.109 97.4509C142.136 97.785 141.575 98.8033 141.812 99.8046L145.443 115.092C145.703 116.187 146.814 116.852 147.902 116.563L148.903 116.297L148.944 116.286C150.018 116.001 150.656 114.897 150.38 113.82C149.842 111.723 149.022 108.349 148.626 105.826C148.277 103.606 148.037 100.642 147.896 98.5244Z" fill="#81D858"/>
<path d="M142.481 99.3686C142.516 99.5018 142.563 99.5724 142.613 99.6155C142.664 99.6598 142.73 99.6867 142.826 99.7092C142.868 99.7189 142.914 99.7274 142.966 99.7368C143.138 99.7684 143.362 99.8094 143.602 99.9338C143.771 99.9307 143.892 99.8736 143.997 99.795C144.054 99.752 144.107 99.7025 144.163 99.6488C144.171 99.6417 144.178 99.6346 144.185 99.6273C144.233 99.581 144.285 99.5314 144.339 99.487C144.467 99.3808 144.624 99.2929 144.843 99.3018C145.043 99.31 145.279 99.3988 145.578 99.5921C145.986 99.4677 146.14 99.2234 146.292 98.9838C146.308 98.9592 146.323 98.9346 146.339 98.9102C146.426 98.7757 146.529 98.6332 146.699 98.5535C146.871 98.4727 147.087 98.4666 147.38 98.5435C147.398 98.5482 147.416 98.5526 147.432 98.5567C147.413 98.5401 147.394 98.5229 147.374 98.5055C147.311 98.4479 147.244 98.3829 147.194 98.3179C147.168 98.2852 147.145 98.2487 147.128 98.2098C147.112 98.1712 147.099 98.1226 147.107 98.0699C147.126 97.9492 147.23 97.8909 147.332 97.8641C147.402 97.8454 147.493 97.8353 147.606 97.8335C147.383 97.2848 146.728 96.647 145.528 96.6584C145.15 96.662 144.773 96.8412 144.346 97.0703C144.297 97.0961 144.249 97.1226 144.199 97.1493C143.82 97.3548 143.405 97.5795 142.946 97.7013C142.385 97.8502 142.067 98.1932 141.901 98.5512C141.732 98.9155 141.722 99.291 141.775 99.4889C141.799 99.5815 141.822 99.637 141.84 99.6681C141.843 99.665 141.846 99.6615 141.85 99.6574C141.876 99.6269 141.904 99.5836 141.935 99.5311C141.95 99.5056 141.965 99.4792 141.981 99.4522L141.981 99.4516C141.997 99.4248 142.013 99.3972 142.028 99.371C142.058 99.3211 142.093 99.2663 142.131 99.2268C142.15 99.2071 142.177 99.183 142.212 99.1681C142.252 99.1513 142.303 99.1466 142.353 99.1715C142.397 99.1933 142.423 99.2301 142.44 99.2602C142.457 99.2916 142.47 99.3287 142.481 99.3686Z" fill="#81D858" stroke="#A0E79A" stroke-width="0.25"/>
<path d="M126.292 110.311C125.089 109.711 123.58 110.589 123.58 111.933C123.58 112.179 123.523 112.424 123.413 112.644C122.924 113.622 123.549 114.789 124.634 114.924L140.196 116.85C141.322 116.989 142.338 116.165 142.435 115.035L142.521 114.027C142.61 112.982 141.697 112.121 140.654 112.236C138.276 112.5 134.344 112.803 131.764 112.31C129.87 111.948 127.851 111.088 126.292 110.311Z" fill="#85DE5B"/>
<path d="M124.413 114.193C124.546 114.272 124.638 114.3 124.709 114.305C124.779 114.311 124.84 114.295 124.914 114.263C124.946 114.249 124.981 114.232 125.02 114.212C125.152 114.146 125.328 114.059 125.576 114.022C125.66 113.946 125.685 113.861 125.689 113.763C125.691 113.706 125.686 113.646 125.679 113.579C125.678 113.57 125.677 113.561 125.676 113.552C125.67 113.495 125.663 113.432 125.662 113.371C125.659 113.225 125.69 113.061 125.853 112.941C125.992 112.839 126.212 112.781 126.54 112.763C126.673 112.493 126.586 112.262 126.494 112.016C126.484 111.991 126.475 111.966 126.466 111.941C126.417 111.806 126.364 111.642 126.412 111.483C126.462 111.321 126.601 111.201 126.829 111.106C126.808 111.104 126.786 111.102 126.764 111.1C126.679 111.092 126.588 111.081 126.508 111.062C126.434 111.044 126.342 111.013 126.284 110.947C126.251 110.909 126.229 110.861 126.229 110.804C126.228 110.751 126.247 110.701 126.272 110.658C126.301 110.611 126.343 110.563 126.398 110.512C125.807 110.229 124.893 110.126 124.163 110.739C123.943 110.923 123.85 111.227 123.761 111.611C123.751 111.654 123.741 111.698 123.731 111.742C123.655 112.082 123.569 112.463 123.372 112.793C123.149 113.165 123.21 113.556 123.39 113.899C123.572 114.245 123.865 114.522 124.064 114.641C124.128 114.679 124.177 114.705 124.215 114.722C124.208 114.7 124.198 114.675 124.187 114.648C124.176 114.622 124.165 114.595 124.154 114.568L124.153 114.568C124.142 114.541 124.13 114.513 124.119 114.487C124.099 114.437 124.077 114.379 124.07 114.329C124.066 114.305 124.062 114.265 124.077 114.225C124.085 114.203 124.099 114.179 124.123 114.159C124.146 114.14 124.173 114.13 124.197 114.126C124.242 114.119 124.283 114.131 124.311 114.141C124.342 114.153 124.377 114.171 124.413 114.193ZM124.299 114.75C124.299 114.749 124.298 114.749 124.296 114.749C124.298 114.75 124.299 114.75 124.299 114.75Z" stroke="#A0E79A" stroke-width="0.25"/>
<path d="M121.7 101.356C120.773 100.382 119.055 100.694 118.597 101.958C118.514 102.189 118.376 102.4 118.198 102.57C117.406 103.323 117.596 104.633 118.571 105.129L132.547 112.238C133.559 112.753 134.795 112.324 135.27 111.294L135.694 110.375C136.134 109.423 135.568 108.302 134.549 108.056C132.223 107.494 128.423 106.441 126.164 105.099C124.507 104.113 122.901 102.618 121.7 101.356Z" fill="#7ECF57"/>
<path d="M118.612 104.366C118.71 104.486 118.787 104.544 118.852 104.573C118.915 104.602 118.978 104.608 119.058 104.603C119.093 104.601 119.132 104.596 119.176 104.591C119.322 104.574 119.517 104.552 119.763 104.601C119.868 104.558 119.921 104.487 119.958 104.396C119.979 104.343 119.995 104.285 120.011 104.22C120.013 104.211 120.015 104.203 120.017 104.194C120.031 104.138 120.046 104.076 120.065 104.019C120.113 103.88 120.197 103.737 120.391 103.68C120.557 103.631 120.783 103.651 121.099 103.746C121.315 103.537 121.312 103.291 121.309 103.027C121.309 103.001 121.309 102.974 121.309 102.948C121.308 102.804 121.314 102.632 121.414 102.499C121.516 102.363 121.687 102.298 121.934 102.287C121.915 102.278 121.895 102.269 121.875 102.259C121.798 102.223 121.716 102.181 121.647 102.135C121.584 102.093 121.508 102.033 121.476 101.951C121.458 101.905 121.453 101.852 121.472 101.798C121.49 101.748 121.524 101.708 121.563 101.676C121.606 101.641 121.662 101.61 121.731 101.581C121.272 101.113 120.447 100.705 119.552 101.033C119.283 101.132 119.092 101.386 118.877 101.717C118.853 101.754 118.829 101.792 118.805 101.83C118.617 102.123 118.407 102.452 118.109 102.695C117.773 102.97 117.698 103.358 117.75 103.742C117.803 104.129 117.984 104.49 118.131 104.669C118.178 104.726 118.216 104.767 118.245 104.796C118.246 104.773 118.245 104.746 118.244 104.717C118.243 104.689 118.241 104.66 118.24 104.631L118.24 104.63C118.238 104.601 118.236 104.571 118.235 104.543C118.233 104.489 118.233 104.427 118.242 104.377C118.247 104.354 118.257 104.315 118.284 104.282C118.3 104.264 118.321 104.246 118.35 104.236C118.379 104.226 118.407 104.225 118.432 104.23C118.475 104.238 118.51 104.263 118.533 104.283C118.559 104.305 118.585 104.333 118.612 104.366ZM118.315 104.851C118.315 104.851 118.314 104.85 118.312 104.85C118.314 104.851 118.315 104.851 118.315 104.851Z" stroke="#A0E79A" stroke-width="0.25"/>
<path d="M178.488 100.939C179.415 99.9648 181.133 100.277 181.591 101.54C181.675 101.772 181.812 101.983 181.99 102.152C182.783 102.905 182.592 104.216 181.618 104.711L167.641 111.821C166.63 112.335 165.394 111.906 164.918 110.877L164.494 109.958C164.055 109.005 164.62 107.885 165.64 107.639C167.966 107.077 171.766 106.023 174.024 104.681C175.682 103.696 177.288 102.2 178.488 100.939Z" fill="#7ECF57"/>
<path d="M181.577 103.949C181.479 104.068 181.402 104.127 181.337 104.156C181.273 104.184 181.211 104.19 181.13 104.186C181.095 104.184 181.056 104.179 181.013 104.174C180.866 104.157 180.671 104.134 180.425 104.184C180.32 104.141 180.267 104.07 180.231 103.979C180.209 103.926 180.194 103.868 180.178 103.802C180.176 103.794 180.173 103.785 180.171 103.777C180.158 103.721 180.143 103.659 180.123 103.601C180.076 103.463 179.992 103.32 179.797 103.262C179.631 103.213 179.405 103.234 179.09 103.328C178.873 103.12 178.876 102.873 178.879 102.61C178.88 102.584 178.88 102.557 178.88 102.53C178.88 102.386 178.874 102.214 178.774 102.081C178.673 101.946 178.501 101.881 178.254 101.869C178.274 101.86 178.293 101.851 178.313 101.842C178.391 101.805 178.473 101.764 178.542 101.718C178.605 101.676 178.68 101.616 178.713 101.534C178.731 101.487 178.735 101.435 178.716 101.381C178.699 101.33 178.664 101.29 178.625 101.259C178.583 101.224 178.527 101.193 178.457 101.164C178.917 100.696 179.741 100.288 180.636 100.616C180.906 100.715 181.097 100.968 181.311 101.3C181.335 101.336 181.359 101.374 181.384 101.412C181.571 101.706 181.782 102.035 182.08 102.278C182.415 102.552 182.491 102.941 182.439 103.324C182.386 103.712 182.204 104.072 182.058 104.252C182.011 104.309 181.973 104.35 181.943 104.379C181.943 104.355 181.943 104.329 181.944 104.3C181.946 104.272 181.947 104.243 181.949 104.214L181.949 104.213C181.95 104.184 181.952 104.154 181.953 104.125C181.955 104.071 181.956 104.009 181.946 103.96C181.942 103.936 181.932 103.898 181.904 103.865C181.889 103.847 181.867 103.829 181.838 103.819C181.81 103.808 181.781 103.808 181.757 103.813C181.713 103.821 181.678 103.846 181.655 103.866C181.63 103.887 181.604 103.916 181.577 103.949ZM181.873 104.434C181.873 104.434 181.874 104.433 181.876 104.432C181.874 104.433 181.873 104.434 181.873 104.434Z" stroke="#A0E79A" stroke-width="0.25"/>
<path d="M172.052 100.571C173.088 99.7157 174.757 100.231 175.06 101.541C175.115 101.78 175.226 102.007 175.383 102.196C176.079 103.039 175.733 104.317 174.706 104.692L159.978 110.075C158.912 110.464 157.737 109.89 157.388 108.811L157.077 107.848C156.755 106.85 157.451 105.805 158.493 105.683C160.869 105.404 164.768 104.813 167.171 103.752C168.935 102.972 170.708 101.68 172.052 100.571Z" fill="#7ECF57"/>
<path d="M174.757 103.93C174.645 104.037 174.561 104.086 174.494 104.107C174.427 104.127 174.364 104.126 174.285 104.112C174.25 104.105 174.212 104.096 174.17 104.086C174.026 104.052 173.836 104.006 173.585 104.026C173.486 103.97 173.442 103.893 173.417 103.799C173.402 103.744 173.393 103.684 173.385 103.617C173.384 103.608 173.383 103.6 173.382 103.591C173.375 103.534 173.368 103.47 173.355 103.411C173.325 103.268 173.258 103.116 173.072 103.035C172.913 102.967 172.686 102.96 172.362 103.016C172.172 102.783 172.205 102.539 172.239 102.278C172.243 102.251 172.246 102.225 172.249 102.199C172.267 102.056 172.282 101.884 172.199 101.74C172.114 101.594 171.951 101.509 171.707 101.467C171.728 101.461 171.749 101.454 171.769 101.447C171.851 101.42 171.937 101.389 172.011 101.351C172.079 101.317 172.161 101.267 172.203 101.189C172.226 101.145 172.237 101.093 172.225 101.038C172.213 100.986 172.184 100.942 172.149 100.905C172.111 100.866 172.059 100.828 171.993 100.791C172.506 100.382 173.374 100.076 174.222 100.509C174.478 100.639 174.637 100.914 174.811 101.268C174.83 101.308 174.85 101.348 174.869 101.389C175.02 101.703 175.19 102.054 175.456 102.332C175.757 102.644 175.785 103.039 175.687 103.414C175.588 103.792 175.365 104.128 175.198 104.288C175.144 104.34 175.102 104.376 175.069 104.401C175.071 104.378 175.075 104.351 175.08 104.323C175.084 104.295 175.089 104.267 175.094 104.238L175.094 104.237C175.099 104.208 175.105 104.179 175.109 104.15C175.118 104.097 175.126 104.036 175.122 103.985C175.12 103.961 175.115 103.922 175.092 103.886C175.079 103.866 175.059 103.846 175.032 103.832C175.005 103.819 174.977 103.815 174.952 103.816C174.907 103.82 174.87 103.84 174.845 103.857C174.817 103.876 174.787 103.9 174.757 103.93ZM174.993 104.447C174.993 104.447 174.994 104.447 174.996 104.446C174.994 104.447 174.993 104.447 174.993 104.447Z" stroke="#A0E79A" stroke-width="0.25"/>
<path d="M172.501 92.5159C173.428 91.5422 175.146 91.854 175.604 93.1179C175.687 93.349 175.825 93.5603 176.003 93.7296C176.796 94.4826 176.605 95.7931 175.63 96.2888L161.654 103.398C160.643 103.913 159.407 103.484 158.931 102.454L158.507 101.535C158.067 100.583 158.633 99.4623 159.653 99.216C161.979 98.6542 165.778 97.6006 168.037 96.2585C169.694 95.2733 171.3 93.7777 172.501 92.5159Z" fill="#7ECF57"/>
<path d="M175.589 95.526C175.491 95.6459 175.414 95.704 175.349 95.7331C175.286 95.7616 175.223 95.7678 175.143 95.763C175.108 95.761 175.069 95.7564 175.025 95.7514C174.879 95.7343 174.684 95.7117 174.438 95.7615C174.333 95.7185 174.28 95.6473 174.243 95.5563C174.222 95.5035 174.206 95.4452 174.19 95.3798C174.188 95.3714 174.186 95.3628 174.184 95.3541C174.17 95.2981 174.155 95.2363 174.136 95.1788C174.088 95.0401 174.004 94.8972 173.81 94.8398C173.644 94.7909 173.418 94.8113 173.102 94.9058C172.886 94.6973 172.889 94.4509 172.892 94.1875C172.892 94.1611 172.892 94.1345 172.893 94.1077C172.893 93.9639 172.887 93.7918 172.787 93.6586C172.685 93.5234 172.514 93.4584 172.267 93.4466C172.286 93.4377 172.306 93.4285 172.326 93.4192C172.403 93.3826 172.486 93.341 172.554 93.2954C172.617 93.2534 172.693 93.1931 172.725 93.1112C172.743 93.0649 172.748 93.012 172.729 92.9585C172.711 92.9078 172.677 92.8677 172.638 92.836C172.595 92.8014 172.539 92.7702 172.47 92.7413C172.929 92.2734 173.754 91.8655 174.649 92.1934C174.918 92.2923 175.109 92.5458 175.324 92.877C175.348 92.9139 175.372 92.9516 175.396 92.9899C175.584 93.2833 175.794 93.6121 176.092 93.8554C176.428 94.1296 176.504 94.518 176.451 94.9019C176.398 95.2892 176.217 95.6496 176.07 95.829C176.023 95.8862 175.986 95.9275 175.956 95.9564C175.955 95.9329 175.956 95.9063 175.957 95.8771C175.958 95.8491 175.96 95.8204 175.961 95.791L175.961 95.7905C175.963 95.7613 175.965 95.7313 175.966 95.7026C175.968 95.6488 175.968 95.5867 175.959 95.537C175.954 95.5136 175.944 95.4752 175.917 95.4423C175.901 95.4241 175.88 95.4064 175.851 95.3961C175.822 95.3857 175.794 95.3854 175.769 95.39C175.726 95.3984 175.691 95.4234 175.668 95.4431C175.642 95.4649 175.616 95.4931 175.589 95.526ZM175.886 96.011C175.886 96.0109 175.887 96.0104 175.889 96.0098C175.887 96.0109 175.886 96.0112 175.886 96.011Z" stroke="#A0E79A" stroke-width="0.25"/>
<path d="M125.529 109.828C124.358 109.392 123.869 108.002 124.509 106.929L125.727 104.89C126.297 103.934 127.538 103.628 128.487 104.208L143.433 113.347C143.768 113.552 143.972 113.916 143.972 114.308C143.972 114.479 143.934 114.647 143.86 114.8L143.796 114.931C143.4 115.748 142.448 116.129 141.598 115.813L125.529 109.828Z" fill="#81D858"/>
<path d="M127.622 104.786C127.756 104.85 127.822 104.914 127.859 104.974C127.897 105.036 127.913 105.107 127.919 105.207C127.921 105.25 127.922 105.298 127.922 105.35C127.924 105.528 127.927 105.758 128.013 106.022C127.98 106.186 127.901 106.291 127.802 106.378C127.747 106.425 127.687 106.467 127.621 106.511C127.613 106.516 127.604 106.522 127.595 106.528C127.539 106.565 127.479 106.605 127.423 106.649C127.29 106.754 127.17 106.891 127.14 107.112C127.113 107.312 127.163 107.564 127.309 107.901C127.109 108.274 126.831 108.373 126.557 108.472C126.529 108.482 126.5 108.492 126.472 108.502C126.319 108.559 126.153 108.63 126.039 108.782C125.924 108.937 125.879 109.151 125.907 109.457C125.909 109.48 125.911 109.501 125.912 109.52C125.894 109.492 125.876 109.462 125.857 109.433C125.809 109.358 125.754 109.278 125.697 109.215C125.645 109.159 125.566 109.087 125.465 109.081C125.342 109.073 125.262 109.162 125.215 109.26C125.182 109.327 125.156 109.415 125.134 109.526C124.599 109.186 124.051 108.397 124.277 107.209C124.347 106.839 124.598 106.506 124.91 106.132C124.946 106.09 124.982 106.048 125.018 106.005C125.298 105.674 125.604 105.311 125.812 104.883C126.063 104.363 126.473 104.123 126.873 104.036C127.281 103.947 127.673 104.018 127.872 104.114C127.965 104.159 128.02 104.195 128.05 104.221C128.047 104.222 128.044 104.224 128.041 104.225C128.005 104.244 127.955 104.263 127.895 104.283C127.866 104.292 127.836 104.302 127.805 104.311L127.805 104.311C127.774 104.321 127.743 104.33 127.713 104.34C127.656 104.359 127.594 104.382 127.546 104.411C127.523 104.425 127.492 104.447 127.47 104.479C127.444 104.517 127.431 104.568 127.447 104.623C127.462 104.669 127.494 104.702 127.521 104.724C127.549 104.747 127.584 104.767 127.622 104.786Z" stroke="#A0E79A" stroke-width="0.25"/>
<path d="M172.977 106.094C174.143 105.643 175.431 106.36 175.664 107.587L176.188 110.353C176.395 111.447 175.67 112.499 174.574 112.695L156.081 115.994C155.669 116.068 155.249 115.922 154.972 115.609C154.852 115.473 154.764 115.312 154.715 115.138L154.673 114.988C154.411 114.058 154.9 113.081 155.802 112.733L172.977 106.094Z" fill="#81D858"/>
<path d="M174.728 111.654C174.576 111.697 174.476 111.694 174.402 111.671C174.327 111.648 174.262 111.601 174.187 111.526C174.154 111.493 174.12 111.455 174.082 111.414C173.955 111.273 173.79 111.092 173.536 110.943C173.444 110.786 173.432 110.644 173.451 110.504C173.461 110.427 173.479 110.35 173.501 110.269C173.503 110.259 173.506 110.248 173.509 110.237C173.528 110.167 173.547 110.093 173.561 110.019C173.592 109.843 173.591 109.652 173.461 109.457C173.341 109.279 173.124 109.114 172.768 108.949C172.661 108.505 172.814 108.226 172.964 107.953C172.98 107.925 172.995 107.897 173.01 107.869C173.092 107.715 173.173 107.543 173.156 107.345C173.139 107.143 173.025 106.942 172.787 106.718C172.761 106.693 172.737 106.67 172.715 106.649C172.716 106.649 172.716 106.649 172.717 106.649L172.718 106.649C172.76 106.662 172.806 106.676 172.852 106.689C172.943 106.715 173.043 106.739 173.132 106.749C173.213 106.757 173.324 106.758 173.406 106.694C173.505 106.616 173.507 106.493 173.476 106.383C173.454 106.305 173.412 106.214 173.347 106.105C174.017 105.993 175.022 106.233 175.687 107.348C175.894 107.695 175.929 108.139 175.944 108.657C175.945 108.716 175.947 108.775 175.948 108.835C175.959 109.297 175.971 109.8 176.108 110.288C176.275 110.882 176.118 111.365 175.859 111.72C175.596 112.08 175.232 112.302 175.004 112.366C174.888 112.398 174.816 112.408 174.774 112.407C174.775 112.401 174.778 112.394 174.781 112.386C174.797 112.344 174.823 112.294 174.857 112.236C174.874 112.207 174.891 112.179 174.909 112.15L174.909 112.149C174.927 112.12 174.945 112.09 174.961 112.061C174.993 112.006 175.027 111.945 175.044 111.889C175.053 111.862 175.061 111.824 175.056 111.784C175.05 111.738 175.026 111.69 174.977 111.66C174.934 111.634 174.887 111.63 174.851 111.632C174.814 111.634 174.772 111.642 174.728 111.654Z" stroke="#A0E79A" stroke-width="0.25"/>
<path d="M168.606 109.828C169.777 109.392 170.265 108.002 169.625 106.929L168.408 104.89C167.838 103.934 166.597 103.628 165.647 104.208L150.701 113.347C150.366 113.552 150.162 113.916 150.162 114.308C150.162 114.479 150.201 114.647 150.275 114.8L150.339 114.931C150.735 115.748 151.686 116.129 152.537 115.813L168.606 109.828Z" fill="#81D858"/>
<path d="M166.512 104.786C166.379 104.85 166.312 104.914 166.275 104.974C166.238 105.036 166.222 105.107 166.216 105.207C166.213 105.25 166.213 105.298 166.212 105.35C166.21 105.528 166.208 105.758 166.122 106.022C166.155 106.186 166.234 106.291 166.333 106.378C166.387 106.425 166.448 106.467 166.513 106.511C166.522 106.516 166.531 106.522 166.539 106.528C166.596 106.565 166.656 106.605 166.712 106.649C166.844 106.754 166.964 106.891 166.994 107.112C167.022 107.312 166.972 107.564 166.826 107.901C167.025 108.274 167.303 108.373 167.578 108.472C167.606 108.482 167.634 108.492 167.662 108.502C167.816 108.559 167.982 108.63 168.095 108.782C168.211 108.937 168.255 109.151 168.228 109.457C168.226 109.48 168.224 109.501 168.223 109.52C168.24 109.492 168.259 109.462 168.277 109.433C168.326 109.358 168.38 109.278 168.438 109.215C168.49 109.159 168.569 109.087 168.669 109.081C168.793 109.073 168.873 109.162 168.92 109.26C168.952 109.327 168.979 109.415 169.001 109.526C169.536 109.186 170.083 108.397 169.858 107.209C169.788 106.839 169.537 106.506 169.224 106.132C169.189 106.09 169.153 106.048 169.117 106.005C168.837 105.674 168.531 105.311 168.323 104.883C168.071 104.363 167.662 104.123 167.261 104.036C166.854 103.947 166.461 104.018 166.263 104.114C166.17 104.159 166.115 104.195 166.085 104.221C166.088 104.222 166.091 104.224 166.094 104.225C166.13 104.244 166.18 104.263 166.24 104.283C166.269 104.292 166.299 104.302 166.329 104.311L166.33 104.311C166.36 104.321 166.392 104.33 166.421 104.34C166.478 104.359 166.541 104.382 166.588 104.411C166.612 104.425 166.642 104.447 166.665 104.479C166.69 104.517 166.704 104.568 166.687 104.623C166.673 104.669 166.641 104.702 166.614 104.724C166.586 104.747 166.551 104.767 166.512 104.786Z" stroke="#A0E79A" stroke-width="0.25"/>
<path d="M128.489 101.263C127.599 100.387 127.72 98.9181 128.743 98.2003L131.313 96.3957C132.224 95.7562 133.481 95.9832 134.111 96.9008L145.269 113.16C145.516 113.52 145.558 113.982 145.38 114.381C145.303 114.554 145.187 114.707 145.042 114.829L144.918 114.933C144.145 115.583 143.004 115.538 142.284 114.83L128.489 101.263Z" fill="#85DE5B"/>
<path d="M133.084 97.1445C133.084 97.1445 133.084 97.1446 133.086 97.1449C133.084 97.1447 133.084 97.1446 133.084 97.1445ZM133.16 97.9986C133.081 98.1803 132.98 98.414 132.948 98.7205C132.837 98.8774 132.705 98.9503 132.562 98.994C132.484 99.0178 132.403 99.0328 132.317 99.0474C132.305 99.0493 132.294 99.0513 132.282 99.0532C132.208 99.0656 132.129 99.0788 132.053 99.0979C131.873 99.1433 131.693 99.2266 131.565 99.4328C131.447 99.6221 131.384 99.8998 131.38 100.311C131.001 100.607 130.667 100.581 130.341 100.556C130.308 100.553 130.275 100.551 130.242 100.549C130.06 100.536 129.863 100.534 129.683 100.634C129.499 100.737 129.358 100.93 129.248 101.252C129.232 101.297 129.218 101.337 129.205 101.372C129.204 101.364 129.203 101.356 129.202 101.348L129.201 101.347C129.195 101.301 129.189 101.252 129.181 101.203C129.166 101.105 129.147 101 129.118 100.911C129.091 100.83 129.044 100.726 128.95 100.677C128.836 100.617 128.721 100.667 128.63 100.744C128.56 100.803 128.484 100.893 128.4 101.017C127.833 100.441 127.777 99.3916 128.577 98.2317C128.876 98.0025 129.238 97.7981 129.632 97.5753C129.687 97.5442 129.743 97.5126 129.8 97.4806C130.262 97.2183 130.755 96.9269 131.206 96.5475C131.704 96.1295 132.307 96.0324 132.785 96.1059C133.025 96.1427 133.227 96.2214 133.366 96.3177C133.508 96.4162 133.564 96.5177 133.564 96.5982C133.564 96.8361 133.508 96.9155 133.475 96.9413C133.442 96.9669 133.39 96.9723 133.312 96.9538C133.275 96.9452 133.241 96.9332 133.207 96.9217L133.207 96.9216L133.207 96.9215C133.191 96.9162 133.174 96.9101 133.158 96.9057L133.158 96.9055C133.147 96.9024 133.118 96.894 133.087 96.8965C133.07 96.8978 133.032 96.9039 133 96.9362C132.965 96.972 132.961 97.0151 132.963 97.0409C132.965 97.0645 132.973 97.0834 132.978 97.0937C132.983 97.1054 132.989 97.1162 132.995 97.1255C133.017 97.1603 133.056 97.2091 133.11 97.2731C133.217 97.4006 133.257 97.498 133.268 97.5795C133.279 97.6621 133.261 97.7447 133.222 97.8494C133.205 97.8949 133.183 97.9445 133.16 97.9986Z" stroke="#A0E79A" stroke-width="0.25"/>
<path d="M166.572 95.5961C167.409 94.6684 168.881 94.7258 169.643 95.7158L171.314 97.8883C171.988 98.7639 171.824 100.02 170.948 100.693L155.273 112.749C154.949 112.998 154.519 113.065 154.135 112.925C153.956 112.86 153.795 112.753 153.666 112.614L153.563 112.503C152.922 111.812 152.915 110.745 153.546 110.045L166.572 95.5961Z" fill="#85DE5B"/>
<path d="M170.545 99.7597C170.422 99.8737 170.327 99.9206 170.247 99.9371C170.167 99.9536 170.087 99.9429 169.985 99.9131C169.941 99.9002 169.893 99.8832 169.84 99.8646C169.661 99.8022 169.431 99.7215 169.132 99.7131C168.981 99.62 168.91 99.5015 168.866 99.3689C168.841 99.2961 168.825 99.2194 168.809 99.1369C168.807 99.1262 168.805 99.1152 168.803 99.1041C168.789 99.0333 168.775 98.9574 168.755 98.8853C168.706 98.7129 168.62 98.5407 168.412 98.4301C168.224 98.3298 167.951 98.2894 167.554 98.3159C167.265 97.9769 167.283 97.657 167.301 97.3407C167.303 97.3085 167.305 97.2764 167.306 97.2442C167.314 97.0684 167.314 96.8746 167.21 96.7047C167.104 96.5308 166.909 96.4079 166.592 96.3248C166.556 96.3154 166.524 96.3064 166.495 96.298C166.5 96.2969 166.505 96.2958 166.511 96.2946L166.512 96.2944C166.557 96.285 166.604 96.2749 166.652 96.264C166.748 96.2423 166.849 96.2158 166.935 96.1807C167.013 96.1486 167.111 96.0966 167.156 96.0046C167.212 95.8898 167.161 95.7781 167.082 95.6925C167.027 95.6342 166.948 95.5737 166.843 95.5094C167.412 95.077 168.446 94.7986 169.546 95.4645C169.886 95.6705 170.112 96.046 170.353 96.4995C170.38 96.5507 170.408 96.6027 170.435 96.6554C170.647 97.0596 170.88 97.5024 171.22 97.8693C171.632 98.3134 171.7 98.8173 171.617 99.2603C171.533 99.7094 171.294 100.087 171.11 100.257C171.018 100.342 170.955 100.387 170.915 100.408C170.914 100.403 170.913 100.398 170.913 100.392C170.909 100.348 170.912 100.29 170.917 100.222C170.92 100.189 170.924 100.155 170.927 100.12L170.927 100.119C170.931 100.085 170.934 100.05 170.937 100.016C170.942 99.9517 170.946 99.8806 170.937 99.8227C170.933 99.7943 170.924 99.7557 170.901 99.7212C170.874 99.6805 170.829 99.6491 170.77 99.6464C170.72 99.6442 170.677 99.6633 170.646 99.6814C170.614 99.7007 170.58 99.7276 170.545 99.7597ZM170.883 100.42C170.883 100.42 170.884 100.42 170.884 100.42L170.883 100.42Z" stroke="#A0E79A" stroke-width="0.25"/>
<path d="M163.999 101.263C164.89 100.387 164.769 98.9181 163.746 98.2003L161.176 96.3957C160.265 95.7562 159.007 95.9833 158.378 96.9009L147.22 113.16C146.972 113.52 146.93 113.983 147.109 114.381C147.186 114.554 147.302 114.707 147.447 114.829L147.571 114.933C148.344 115.583 149.484 115.538 150.204 114.83L163.999 101.263Z" fill="#85DE5B"/>
<path d="M159.379 97.2731C159.272 97.4006 159.232 97.498 159.221 97.5795C159.21 97.6621 159.228 97.7447 159.267 97.8494C159.284 97.8949 159.306 97.9445 159.329 97.9986C159.408 98.1803 159.509 98.414 159.541 98.7205C159.652 98.8774 159.784 98.9503 159.927 98.994C160.005 99.0178 160.086 99.0328 160.172 99.0474C160.183 99.0494 160.195 99.0513 160.206 99.0532C160.281 99.0656 160.36 99.0788 160.435 99.0979C160.616 99.1433 160.796 99.2266 160.924 99.4328C161.041 99.6221 161.105 99.8998 161.109 100.311C161.488 100.607 161.822 100.581 162.148 100.556C162.181 100.553 162.214 100.551 162.247 100.549C162.429 100.536 162.626 100.534 162.806 100.634C162.989 100.737 163.13 100.93 163.241 101.252C163.257 101.297 163.271 101.337 163.284 101.372C163.285 101.364 163.286 101.356 163.287 101.348L163.287 101.347C163.294 101.301 163.3 101.252 163.308 101.203C163.322 101.105 163.342 101 163.371 100.911C163.398 100.83 163.445 100.726 163.538 100.677C163.653 100.618 163.768 100.667 163.859 100.744C163.924 100.799 163.994 100.88 164.071 100.991C164.471 100.402 164.68 99.3352 163.901 98.2161C163.658 97.8681 163.249 97.6427 162.762 97.4054C162.707 97.3786 162.651 97.3517 162.595 97.3244C162.16 97.1153 161.687 96.8871 161.282 96.5475C160.787 96.131 160.257 96.0723 159.807 96.1664C159.35 96.2619 158.981 96.5136 158.821 96.7041C158.735 96.8061 158.694 96.8733 158.679 96.9138C158.686 96.9151 158.696 96.9164 158.709 96.9172C158.756 96.9202 158.816 96.9164 158.886 96.9092C158.92 96.9056 158.955 96.9014 158.99 96.8972L158.991 96.8971C159.026 96.8928 159.062 96.8885 159.097 96.885C159.163 96.8783 159.235 96.873 159.295 96.8805C159.324 96.8842 159.363 96.8922 159.398 96.9138C159.438 96.9385 159.472 96.9805 159.479 97.0387C159.486 97.0888 159.469 97.1336 159.453 97.1666C159.435 97.2013 159.41 97.2368 159.379 97.2731ZM158.672 96.9375C158.672 96.9375 158.672 96.9372 158.672 96.9366L158.672 96.9375Z" stroke="#A0E79A" stroke-width="0.25"/>
<path d="M136.732 109.367C135.842 108.491 135.963 107.022 136.985 106.304L137.047 106.261C137.958 105.621 139.215 105.848 139.845 106.766L146.017 115.759C146.164 115.973 146.189 116.248 146.083 116.485C146.037 116.588 145.968 116.679 145.882 116.752L145.808 116.814C145.348 117.2 144.67 117.173 144.242 116.752L136.732 109.367Z" fill="#85DE5B"/>
<path d="M138.747 106.344C138.807 106.415 138.825 106.464 138.83 106.5C138.835 106.538 138.827 106.578 138.805 106.637C138.796 106.661 138.784 106.688 138.771 106.719C138.725 106.824 138.662 106.969 138.641 107.153C138.584 107.229 138.519 107.264 138.446 107.287C138.403 107.3 138.357 107.308 138.306 107.317C138.3 107.318 138.293 107.319 138.286 107.32C138.242 107.328 138.193 107.336 138.146 107.348C138.031 107.377 137.91 107.431 137.824 107.569C137.75 107.689 137.712 107.858 137.707 108.093C137.506 108.241 137.33 108.228 137.143 108.213C137.124 108.212 137.104 108.21 137.084 108.209C136.976 108.202 136.845 108.199 136.723 108.266C136.624 108.322 136.546 108.416 136.485 108.552C136.478 108.52 136.47 108.489 136.46 108.459C136.444 108.41 136.411 108.33 136.336 108.291C136.241 108.241 136.149 108.286 136.089 108.337C136.06 108.361 136.03 108.394 135.999 108.433C135.799 108.089 135.715 107.511 136.139 106.901C136.274 106.707 136.506 106.578 136.796 106.436C136.829 106.42 136.862 106.404 136.896 106.388C137.153 106.264 137.441 106.125 137.687 105.919C137.968 105.683 138.266 105.65 138.521 105.703C138.783 105.758 138.992 105.902 139.079 106.006C139.092 106.022 139.103 106.035 139.113 106.048C139.104 106.047 139.094 106.046 139.085 106.045C139.065 106.043 139.044 106.04 139.023 106.038L139.023 106.038C139.002 106.035 138.98 106.033 138.959 106.031C138.92 106.027 138.872 106.023 138.83 106.028C138.809 106.031 138.778 106.037 138.748 106.055C138.713 106.076 138.683 106.114 138.676 106.166C138.671 106.21 138.685 106.248 138.697 106.271C138.71 106.297 138.728 106.321 138.747 106.344Z" stroke="#A0E79A" stroke-width="0.25"/>
<path d="M166.661 110.311C167.864 109.711 169.373 110.589 169.373 111.933C169.373 112.179 169.43 112.424 169.54 112.644C170.029 113.622 169.404 114.789 168.319 114.924L152.757 116.85C151.631 116.989 150.615 116.165 150.518 115.035L150.432 114.027C150.343 112.982 151.256 112.121 152.299 112.236C154.677 112.5 158.609 112.803 161.189 112.31C163.083 111.948 165.102 111.088 166.661 110.311Z" fill="#85DE5B"/>
<path d="M168.54 114.193C168.407 114.272 168.315 114.3 168.244 114.305C168.174 114.311 168.113 114.295 168.039 114.263C168.007 114.249 167.972 114.232 167.933 114.212C167.801 114.146 167.625 114.059 167.377 114.022C167.293 113.946 167.268 113.861 167.264 113.763C167.262 113.706 167.267 113.646 167.274 113.579C167.275 113.57 167.276 113.561 167.277 113.552C167.283 113.495 167.29 113.432 167.291 113.371C167.294 113.225 167.263 113.061 167.1 112.941C166.961 112.839 166.741 112.781 166.413 112.763C166.28 112.493 166.367 112.262 166.459 112.016C166.469 111.991 166.478 111.966 166.487 111.941C166.536 111.806 166.589 111.642 166.541 111.483C166.491 111.321 166.352 111.201 166.124 111.106C166.145 111.104 166.167 111.102 166.189 111.1C166.274 111.092 166.365 111.081 166.445 111.062C166.519 111.044 166.611 111.013 166.669 110.947C166.702 110.909 166.724 110.861 166.724 110.804C166.725 110.751 166.706 110.701 166.681 110.658C166.652 110.611 166.61 110.563 166.555 110.512C167.146 110.229 168.06 110.126 168.79 110.739C169.01 110.923 169.103 111.227 169.192 111.611C169.202 111.654 169.212 111.698 169.222 111.742C169.298 112.082 169.384 112.463 169.581 112.793C169.804 113.165 169.743 113.556 169.563 113.899C169.381 114.245 169.088 114.522 168.889 114.641C168.825 114.679 168.776 114.705 168.738 114.722C168.745 114.7 168.755 114.675 168.766 114.648C168.777 114.622 168.788 114.595 168.799 114.568L168.8 114.568C168.811 114.541 168.823 114.513 168.834 114.487C168.854 114.437 168.876 114.379 168.883 114.329C168.887 114.305 168.891 114.265 168.876 114.225C168.868 114.203 168.854 114.179 168.83 114.159C168.807 114.14 168.78 114.13 168.756 114.126C168.711 114.119 168.67 114.131 168.642 114.141C168.611 114.153 168.576 114.171 168.54 114.193ZM168.654 114.75C168.654 114.749 168.655 114.749 168.657 114.749C168.655 114.75 168.654 114.75 168.654 114.75Z" stroke="#A0E79A" stroke-width="0.25"/>
<defs>
<filter id="filter0_f_61_71434" x="88" y="167" width="126" height="24.5" filterUnits="userSpaceOnUse" color-interpolation-filters="sRGB">
<feFlood flood-opacity="0" result="BackgroundImageFix"/>
<feBlend mode="normal" in="SourceGraphic" in2="BackgroundImageFix" result="shape"/>
<feGaussianBlur stdDeviation="2" result="effect1_foregroundBlur_61_71434"/>
</filter>
<filter id="filter1_d_61_71434" x="107.145" y="120" width="86.6567" height="19" filterUnits="userSpaceOnUse" color-interpolation-filters="sRGB">
<feFlood flood-opacity="0" result="BackgroundImageFix"/>
<feColorMatrix in="SourceAlpha" type="matrix" values="0 0 0 0 0 0 0 0 0 0 0 0 0 0 0 0 0 0 127 0" result="hardAlpha"/>
<feOffset dy="4"/>
<feGaussianBlur stdDeviation="2"/>
<feComposite in2="hardAlpha" operator="out"/>
<feColorMatrix type="matrix" values="0 0 0 0 0 0 0 0 0 0 0 0 0 0 0 0 0 0 0.25 0"/>
<feBlend mode="normal" in2="BackgroundImageFix" result="effect1_dropShadow_61_71434"/>
<feBlend mode="normal" in="SourceGraphic" in2="effect1_dropShadow_61_71434" result="shape"/>
</filter>
<linearGradient id="paint0_linear_61_71434" x1="151" y1="115" x2="151" y2="129" gradientUnits="userSpaceOnUse">
<stop stop-color="#F7F5F5"/>
<stop offset="1" stop-color="#565454"/>
</linearGradient>
<linearGradient id="paint1_linear_61_71434" x1="151" y1="158" x2="173" y2="165.5" gradientUnits="userSpaceOnUse">
<stop stop-color="#A8690A" stop-opacity="0.81"/>
<stop offset="0.939762" stop-color="#6D4303"/>
</linearGradient>
<linearGradient id="paint2_linear_61_71434" x1="153.5" y1="158" x2="127" y2="167.5" gradientUnits="userSpaceOnUse">
<stop stop-color="#C28427" stop-opacity="0.4"/>
<stop offset="1" stop-color="#885508"/>
</linearGradient>
<linearGradient id="paint3_linear_61_71434" x1="111" y1="120" x2="190" y2="120" gradientUnits="userSpaceOnUse">
<stop offset="0.00865841" stop-color="#744704"/>
<stop offset="0.510756" stop-color="#CD851A"/>
<stop offset="1" stop-color="#724603"/>
</linearGradient>
</defs>
</svg>
