<svg width="31" height="37" viewBox="0 0 31 37" fill="none" xmlns="http://www.w3.org/2000/svg">
<path d="M9.57142 33.2383H22.1198C22.3953 33.2383 22.6186 33.015 22.6186 32.7396V30.4123C22.6186 30.1369 22.3953 29.9136 22.1198 29.9136H9.57142V27.9994C9.57142 27.1108 8.49707 26.6658 7.86869 27.2941L4.29215 30.8707C3.90262 31.2602 3.90262 31.8917 4.29215 32.2812L7.86869 35.8578C8.49703 36.4861 9.57142 36.0411 9.57142 35.1525V33.2383Z" fill="black"/>
<path d="M6.10352 20.3477C6.10352 19.3646 5.91797 18.4596 5.54688 17.6328C5.18229 16.806 4.61263 16.1322 3.83789 15.6113C4.13086 15.403 4.40104 15.1133 4.64844 14.7422C4.89583 14.3711 5.09115 13.9674 5.23438 13.5312C5.38411 13.0885 5.45898 12.6686 5.45898 12.2715C5.45898 11.627 5.33854 11.0573 5.09766 10.5625C4.85677 10.0677 4.50846 9.68359 4.05273 9.41016C3.59701 9.13021 3.05664 8.99023 2.43164 8.99023C2.26237 8.99023 2.1224 9.03906 2.01172 9.13672C1.90104 9.23438 1.82617 9.37109 1.78711 9.54688C1.74154 9.71615 1.71224 9.86914 1.69922 10.0059C1.6862 10.1426 1.67969 10.3086 1.67969 10.5039V10.6211C1.67969 11.6432 1.70247 12.9974 1.74805 14.6836C1.79362 16.3698 1.81641 17.724 1.81641 18.7461C1.81641 19.1693 1.80013 19.9896 1.76758 21.207C1.73503 22.4245 1.71875 23.2448 1.71875 23.668C1.71875 24 2.03125 24.166 2.65625 24.166H2.73438C3.20312 24.166 3.63932 24.0618 4.04297 23.8535C4.41406 23.6582 4.72331 23.4141 4.9707 23.1211C5.2181 22.8281 5.43945 22.4798 5.63477 22.0762C5.94727 21.4056 6.10352 20.8294 6.10352 20.3477ZM3.04688 10.123C3.28776 10.123 3.51888 10.2109 3.74023 10.3867C3.96159 10.556 4.14062 10.7741 4.27734 11.041C4.41406 11.3079 4.48242 11.5716 4.48242 11.832V12.5449C4.43685 12.6491 4.37174 12.8314 4.28711 13.0918C4.11133 13.6191 3.92578 14.0749 3.73047 14.459C3.61328 14.6999 3.47656 14.8952 3.32031 15.0449C3.17057 15.1947 3.01107 15.2891 2.8418 15.3281C2.8418 14.7487 2.82878 14.0033 2.80273 13.0918C2.77669 12.1803 2.76367 11.3991 2.76367 10.748C2.76367 10.3314 2.85807 10.123 3.04688 10.123ZM5.06836 20.3965C5.06836 20.8652 4.98047 21.2949 4.80469 21.6855C4.63542 22.0697 4.38802 22.3887 4.0625 22.6426C3.74349 22.8965 3.36589 23.056 2.92969 23.1211C2.92969 20.4583 2.89714 18.248 2.83203 16.4902H3.54492L3.70117 16.5586C3.80534 16.6172 3.93229 16.7344 4.08203 16.9102C4.23177 17.0859 4.38151 17.2975 4.53125 17.5449C4.6875 17.8118 4.81445 18.2025 4.91211 18.7168C5.01628 19.2246 5.06836 19.7845 5.06836 20.3965ZM12.3828 21.4805C12.526 22.418 12.5977 23.0983 12.5977 23.5215C12.5977 23.7689 12.6693 23.9414 12.8125 24.0391C12.9622 24.1367 13.1868 24.1855 13.4863 24.1855C13.7077 24.1009 13.8184 23.9121 13.8184 23.6191V23.5996C13.8184 23.3913 13.7565 22.9779 13.6328 22.3594C13.5026 21.7083 13.4375 21.3112 13.4375 21.168C13.4375 21.0573 13.4017 20.8522 13.3301 20.5527C13.2585 20.2533 13.2227 20.0482 13.2227 19.9375C13.2227 19.0846 13.0892 17.6458 12.8223 15.6211C12.5488 13.6224 12.4121 12.1152 12.4121 11.0996C12.4121 10.9368 12.347 10.8132 12.2168 10.7285C12.0866 10.6374 11.9238 10.5918 11.7285 10.5918H11.0547C10.9505 10.7415 10.8724 10.9661 10.8203 11.2656C10.7682 11.5586 10.7259 11.9525 10.6934 12.4473C10.6738 12.7012 10.651 12.9714 10.625 13.2578C10.1823 16.5716 9.51497 19.9505 8.62305 23.3945L8.60352 23.4727C8.58398 23.5182 8.57422 23.5508 8.57422 23.5703C8.57422 23.7201 8.63932 23.847 8.76953 23.9512C8.89974 24.0553 9.04622 24.1074 9.20898 24.1074C9.37174 24.1074 9.50846 24.0423 9.61914 23.9121C9.78841 23.7038 9.91536 23.2708 10 22.6133C10.1107 21.7604 10.2214 21.1419 10.332 20.7578L12.3047 21.0508L12.3828 21.4805ZM12.1777 20.3379C11.2207 20.2663 10.6315 20.1589 10.4102 20.0156C10.5859 18.6419 10.9766 16.2786 11.582 12.9258C11.6341 13.5182 11.7057 14.2083 11.7969 14.9961C11.9076 16.0443 11.9889 16.9167 12.041 17.6133C12.0931 18.3034 12.1191 18.9642 12.1191 19.5957C12.1191 19.8952 12.1387 20.1426 12.1777 20.3379ZM20.0977 10.6797C19.6224 10.6797 19.209 10.7513 18.8574 10.8945C18.4798 11.0443 18.1738 11.2266 17.9395 11.4414C17.7116 11.6562 17.5163 11.9525 17.3535 12.3301C17.1777 12.7402 17.0475 13.1113 16.9629 13.4434C16.8783 13.7754 16.8164 14.1986 16.7773 14.7129C16.7383 15.2272 16.7122 15.6634 16.6992 16.0215C16.6862 16.3796 16.6797 16.8776 16.6797 17.5156V17.9941C16.6797 18.2415 16.6829 18.4531 16.6895 18.6289V19.166C16.6895 21.7246 17.1322 23.2904 18.0176 23.8633C18.1868 23.9674 18.4375 24.0618 18.7695 24.1465C19.1016 24.2376 19.4108 24.2832 19.6973 24.2832C20.4329 24.2832 20.8008 24.0195 20.8008 23.4922C20.8008 23.349 20.7422 23.2415 20.625 23.1699C20.5078 23.0918 20.3646 23.0527 20.1953 23.0527C20.0716 23.1699 19.9284 23.2285 19.7656 23.2285C19.5117 23.2285 19.2904 23.1862 19.1016 23.1016C18.9062 23.0234 18.7435 22.9225 18.6133 22.7988C18.4831 22.6751 18.3724 22.5156 18.2812 22.3203C18.1836 22.138 18.1087 21.9557 18.0566 21.7734C18.0111 21.5846 17.972 21.3665 17.9395 21.1191C17.8939 20.748 17.8711 20.3346 17.8711 19.8789C17.8711 19.5469 17.8874 18.9023 17.9199 17.9453C17.946 17.1901 17.959 16.5488 17.959 16.0215V15.9238C17.959 15.3118 18.0436 14.5111 18.2129 13.5215C18.304 12.9876 18.4505 12.5547 18.6523 12.2227C18.8542 11.8841 19.0853 11.7148 19.3457 11.7148H20.2832C20.4004 11.7083 20.5013 11.653 20.5859 11.5488C20.6706 11.4447 20.7129 11.3242 20.7129 11.1875C20.7129 11.0378 20.6608 10.9173 20.5566 10.8262C20.4525 10.7285 20.2995 10.6797 20.0977 10.6797ZM29.0625 11.4121C29.0625 11.2428 28.9844 11.1126 28.8281 11.0215C28.6784 10.9238 28.4993 10.875 28.291 10.875C28.1348 10.875 27.8613 11.2103 27.4707 11.8809C27.0801 12.5514 26.6504 13.362 26.1816 14.3125L25.4492 15.7773V15.0645C25.4492 12.9355 25.5371 11.7214 25.7129 11.4219V11.3633C25.7129 11.194 25.651 11.0508 25.5273 10.9336C25.4102 10.8099 25.2669 10.748 25.0977 10.748C24.8177 10.748 24.6191 10.875 24.502 11.1289C24.502 11.8776 24.4401 12.9518 24.3164 14.3516C24.1862 15.8229 24.1211 16.9036 24.1211 17.5938V23.668C24.1211 23.8633 24.1797 24.0163 24.2969 24.127C24.4206 24.2441 24.5833 24.3027 24.7852 24.3027C25.0586 24.3027 25.1953 24.1465 25.1953 23.834V20.1328C25.1953 18.7786 25.4362 17.6198 25.918 16.6562C26.0091 17.1706 26.1296 17.7533 26.2793 18.4043C26.4811 19.3223 26.7122 20.2272 26.9727 21.1191C27.2331 22.0111 27.513 22.7533 27.8125 23.3457C28.1576 24.0098 28.4831 24.3418 28.7891 24.3418C28.9453 24.3418 29.0788 24.2897 29.1895 24.1855C29.3001 24.0879 29.3555 23.9642 29.3555 23.8145C29.3555 23.6647 29.3262 23.5247 29.2676 23.3945C29.209 23.2578 29.1113 23.0951 28.9746 22.9062L28.7109 22.5449C28.5156 22.2194 28.2682 21.6204 27.9688 20.748C27.6758 19.8691 27.4186 18.987 27.1973 18.1016C26.9824 17.2096 26.875 16.5814 26.875 16.2168L26.8945 15.6211L26.9141 15.0254C27.0182 14.8171 27.5749 13.8796 28.584 12.2129C28.903 11.6986 29.0625 11.4316 29.0625 11.4121Z" fill="black"/>
</svg>
