<svg width="303" height="271" viewBox="0 0 303 271" fill="none" xmlns="http://www.w3.org/2000/svg">
<path d="M128.183 68.9519C129.348 75.6985 130.862 79.9267 132.901 79.5776C134.94 79.2286 135.192 75.384 134.027 68.6374C133.21 64.6613 132.182 62.7159 131.042 60.4589C129.542 57.4887 128.683 55.1461 128.683 55.1461C128.683 55.1461 128.174 57.172 127.984 60.7537C127.868 62.9416 127.608 65.6203 128.183 68.9519Z" fill="#7ECF57"/>
<path d="M165.669 153.625H158.847C158.847 153.625 158.847 159.932 158.359 165.755C158.157 168.172 158.847 170.121 158.847 170.121H165.669C165.669 170.121 165.667 166.117 165.331 161.388C165.193 159.447 165.669 153.625 165.669 153.625Z" fill="#7ECF57"/>
<path d="M165.631 104.135H158.847C158.847 104.135 158.847 110.442 158.359 116.265C158.157 118.682 158.847 120.631 158.847 120.631H165.669C165.669 120.631 165.667 116.627 165.331 111.898C165.193 109.957 165.631 104.135 165.631 104.135Z" fill="#7ECF57"/>
<path d="M165.669 120.631H158.847C158.847 120.631 158.847 121.602 158.847 127.424C158.847 129.85 159.364 137.128 159.364 137.128H166.156C166.156 137.128 165.331 133.128 165.331 128.394C165.331 126.449 165.669 120.631 165.669 120.631Z" fill="#7ECF57"/>
<path d="M159.372 137.128H166.119C166.119 137.128 165.181 142.951 165.668 148.773C165.769 149.973 165.693 151.261 165.668 152.169C165.643 153.091 165.668 153.625 165.668 153.625H158.846C158.846 153.625 158.846 152.654 158.359 152.169C158.291 150.575 158.638 147.817 158.846 144.891C158.984 142.951 159.372 137.128 159.372 137.128Z" fill="#7ECF57"/>
<path d="M165.669 153.625H158.847V156.536H165.458L165.669 153.625Z" fill="url(#paint0_linear_61_75090)"/>
<path d="M165.584 104.135H158.847V107.046H165.458L165.584 104.135Z" fill="url(#paint1_linear_61_75090)"/>
<path d="M165.669 120.631H158.847V123.543H165.508L165.669 120.631Z" fill="url(#paint2_linear_61_75090)"/>
<path d="M166.156 137.128H159.376C159.239 138.811 159.041 140.885 159.334 140.039H165.669C165.705 140.248 166 138.015 166.156 137.128Z" fill="url(#paint3_linear_61_75090)"/>
<path d="M165.669 121.117C164.79 120.747 163.708 120.965 163.708 120.965C163.708 120.965 162.52 120.721 161.758 120.965L160.308 121.117L158.835 120.965C158.906 121.021 158.67 119.994 158.67 119.994L159.809 120.146C159.809 120.146 161.202 120.109 161.758 119.994C162.315 119.88 163.708 119.994 163.708 119.994C163.708 119.994 164.464 120.286 165.657 119.994C165.669 120.632 165.68 120.784 165.669 121.117Z" fill="#EBECAF"/>
<path d="M166.093 138.099C165.606 137.613 164.238 137.437 164.238 137.437C164.238 137.437 163.05 137.194 162.288 137.437L160.838 137.589C160.857 137.637 159.686 137.944 159.334 137.613C159.334 137.128 159.334 137.128 159.334 137.128V136.619H160.339C160.339 136.619 161.732 136.581 162.288 136.466C162.845 136.352 164.238 136.466 164.238 136.466C164.238 136.466 164.9 136.911 166.093 136.619C166.228 137.328 166.19 137.386 166.093 138.099Z" fill="#EBECAF"/>
<path d="M165.664 153.828C164.786 153.458 163.703 153.676 163.703 153.676C163.703 153.676 162.708 153.625 161.754 153.676L160.304 153.828L158.83 153.676C158.901 153.732 158.665 152.705 158.665 152.705L159.804 152.857C159.804 152.857 161.197 152.82 161.754 152.705C162.31 152.591 163.703 152.705 163.703 152.705C163.703 152.705 164.476 152.947 165.669 152.654C165.68 153.292 165.676 153.495 165.664 153.828Z" fill="#EBECAF"/>
<path d="M155.569 146.902H147.265C147.265 146.902 147.265 154.579 146.672 161.666C146.426 164.608 147.265 166.981 147.265 166.981H155.569C155.569 166.981 155.567 162.107 155.157 156.351C154.99 153.989 155.569 146.902 155.569 146.902Z" fill="#7ECF57"/>
<path d="M155.569 86.6677H147.265C147.265 86.6677 147.265 94.3447 146.672 101.431C146.426 104.374 147.265 106.746 147.265 106.746H155.569C155.569 106.746 155.567 101.872 155.157 96.1163C154.99 93.7542 155.569 86.6677 155.569 86.6677Z" fill="#7ECF57"/>
<path d="M155.569 106.746H147.266C147.266 106.746 147.266 107.927 147.266 115.013C147.266 117.966 147.896 126.824 147.896 126.824H156.162C156.162 126.824 155.158 121.956 155.158 116.194C155.158 113.826 155.569 106.746 155.569 106.746Z" fill="#7ECF57"/>
<path d="M147.905 126.824H156.116C156.116 126.824 154.975 133.911 155.569 140.997C155.691 142.458 155.599 144.025 155.569 145.131C155.538 146.253 155.569 146.902 155.569 146.902H147.265C147.265 146.902 147.265 145.721 146.672 145.131C146.59 143.19 147.012 139.834 147.265 136.273C147.433 133.911 147.905 126.824 147.905 126.824Z" fill="#7ECF57"/>
<path d="M155.569 146.902H147.265V150.446H155.312L155.569 146.902Z" fill="url(#paint4_linear_61_75090)"/>
<path d="M155.569 86.6677H147.265V90.2109H155.313L155.569 86.6677Z" fill="url(#paint5_linear_61_75090)"/>
<path d="M155.569 106.746H147.265V110.289H155.36L155.569 106.746Z" fill="url(#paint6_linear_61_75090)"/>
<path d="M156.162 126.824H147.909C147.743 128.873 147.502 131.397 147.859 130.367H155.569C155.614 130.621 155.973 127.903 156.162 126.824Z" fill="url(#paint7_linear_61_75090)"/>
<path d="M155.569 107.336C154.5 106.886 153.182 107.151 153.182 107.151C153.182 107.151 151.736 106.855 150.809 107.151L149.045 107.336L147.251 107.151C147.338 107.22 147.051 105.97 147.051 105.97L148.437 106.155C148.437 106.155 150.132 106.11 150.809 105.97C151.487 105.831 153.182 105.97 153.182 105.97C153.182 105.97 154.102 106.326 155.554 105.97C155.569 106.746 155.583 106.931 155.569 107.336Z" fill="#EBECAF"/>
<path d="M156.085 128.005C155.492 127.415 153.827 127.2 153.827 127.2C153.827 127.2 152.381 126.904 151.455 127.2L149.69 127.385C149.712 127.444 148.287 127.818 147.859 127.415C147.859 126.824 147.859 126.824 147.859 126.824V126.204H149.082C149.082 126.204 150.777 126.158 151.455 126.019C152.132 125.879 153.827 126.019 153.827 126.019C153.827 126.019 154.634 126.56 156.085 126.204C156.249 127.067 156.203 127.138 156.085 128.005Z" fill="#EBECAF"/>
<path d="M155.563 147.15C154.494 146.7 153.176 146.964 153.176 146.964C153.176 146.964 151.5 146.832 150.804 146.964L149.039 147.15L147.245 146.964C147.332 147.034 147.045 145.783 147.045 145.783L148.431 145.969C148.431 145.969 150.126 145.923 150.804 145.783C151.481 145.644 153.176 145.783 153.176 145.783C153.176 145.783 154.117 146.077 155.569 145.721C155.583 146.497 155.577 146.744 155.563 147.15Z" fill="#EBECAF"/>
<path d="M137.393 146.832H144.215C144.215 146.832 144.215 153.14 144.703 158.962C144.905 161.38 144.215 163.329 144.215 163.329H137.393C137.393 163.329 137.395 159.324 137.731 154.595C137.869 152.654 137.393 146.832 137.393 146.832Z" fill="#7ECF57"/>
<path d="M137.532 97.342H144.191C144.191 97.342 144.215 103.65 144.703 109.472C144.905 111.89 144.215 113.839 144.215 113.839H137.393C137.393 113.839 137.395 109.834 137.731 105.105C137.869 103.164 137.532 97.342 137.532 97.342Z" fill="#7ECF57"/>
<path d="M137.393 113.839H144.215C144.215 113.839 144.215 114.809 144.215 120.631C144.215 123.057 143.698 130.335 143.698 130.335H136.906C136.906 130.335 137.731 126.336 137.731 121.602C137.731 119.656 137.393 113.839 137.393 113.839Z" fill="#7ECF57"/>
<path d="M143.69 130.335H136.943C136.943 130.335 137.881 136.158 137.393 141.98C137.293 143.18 137.369 144.468 137.393 145.376C137.419 146.298 137.393 146.832 137.393 146.832H144.215C144.215 146.832 144.215 145.861 144.703 145.376C144.771 143.782 144.423 141.024 144.215 138.098C144.077 136.158 143.69 130.335 143.69 130.335Z" fill="#7ECF57"/>
<path d="M137.393 146.832H144.215V149.743H137.604L137.393 146.832Z" fill="url(#paint8_linear_61_75090)"/>
<path d="M137.394 97.3418H144.191L144.216 100.253C144.216 100.253 138.039 100.034 137.856 100.253C137.673 100.473 137.603 97.506 137.394 97.3418Z" fill="url(#paint9_linear_61_75090)"/>
<path d="M137.393 113.839H144.215V116.75H137.55L137.393 113.839Z" fill="url(#paint10_linear_61_75090)"/>
<path d="M136.906 130.335H143.686C143.823 132.018 144.021 134.092 143.728 133.246H137.393C137.356 133.455 137.061 131.222 136.906 130.335Z" fill="url(#paint11_linear_61_75090)"/>
<path d="M137.393 114.324C138.272 113.954 139.354 114.172 139.354 114.172C139.354 114.172 140.542 113.928 141.304 114.172L142.754 114.324L144.227 114.172C144.156 114.228 144.392 113.201 144.392 113.201L143.253 113.353C143.253 113.353 141.86 113.316 141.304 113.201C140.747 113.087 139.354 113.201 139.354 113.201C139.354 113.201 138.598 113.493 137.405 113.201C137.393 113.839 137.382 113.991 137.393 114.324Z" fill="#EBECAF"/>
<path d="M137.547 98.1093C138.069 98.4676 139.369 97.8781 139.369 97.8781C139.369 97.8781 140.784 97.7295 141.692 97.8781L143.42 97.971L144.327 97.7397C144.327 97.8326 144.327 96.7693 144.327 96.7693H141.707C141.043 96.6993 139.611 96.7693 139.611 96.7693C139.611 96.7693 138.412 96.9477 136.991 96.7693C136.991 96.9118 137.079 97.6168 137.079 97.6168L137.203 98.1093H137.547Z" fill="#EBECAF"/>
<path d="M158.796 104.938C159.674 104.633 160.273 104.98 160.273 104.98C160.273 104.98 161.46 104.779 162.22 104.98L163.668 105.106L165.57 105.075L165.631 104.62V104.135L164.166 104.304C164.166 104.304 162.775 104.273 162.22 104.178C161.664 104.083 160.273 104.178 160.273 104.178C160.273 104.178 159.988 104.377 158.796 104.136C158.785 104.663 158.785 104.663 158.796 104.938Z" fill="#EBECAF"/>
<path d="M136.969 131.306C137.456 130.82 138.824 130.644 138.824 130.644C138.824 130.644 140.012 130.401 140.774 130.644L142.224 130.796C142.205 130.844 143.376 131.151 143.728 130.82C143.728 130.335 143.728 130.335 143.728 130.335V129.826H142.723C142.723 129.826 141.33 129.788 140.774 129.674C140.217 129.559 138.824 129.674 138.824 129.674C138.824 129.674 138.162 130.118 136.969 129.826C136.834 130.535 136.872 130.593 136.969 131.306Z" fill="#EBECAF"/>
<path d="M137.398 147.035C138.276 146.665 139.359 146.883 139.359 146.883C139.359 146.883 140.78 146.832 141.308 146.883L142.758 147.035L144.232 146.883C144.161 146.94 144.397 145.913 144.397 145.913L143.258 146.065C143.258 146.065 141.865 146.027 141.308 145.913C140.752 145.798 139.359 145.913 139.359 145.913C139.359 145.913 138.586 146.154 137.393 145.862C137.382 146.499 137.386 146.702 137.398 147.035Z" fill="#EBECAF"/>
<path d="M180.077 79.1088C175.342 84.0714 171.722 86.7474 170.222 85.3283C168.722 83.9093 170.66 80.5745 175.395 75.6118C178.295 72.7596 180.236 71.7118 182.443 70.4667C185.348 68.8282 187.371 67.3569 187.371 67.3569C187.371 67.3569 186.663 69.3226 184.82 72.4047C183.695 74.2873 182.416 76.6581 180.077 79.1088Z" fill="#7ECF57"/>
<path d="M123.82 72.316C128.556 77.2787 132.176 79.9547 133.676 78.5356C135.176 77.1166 133.238 73.7818 128.502 68.8191C125.602 65.9669 123.662 64.919 121.454 63.674C118.549 62.0355 116.526 60.5642 116.526 60.5642C116.526 60.5642 117.235 62.5299 119.077 65.612C120.203 67.4946 121.482 69.8654 123.82 72.316Z" fill="#7ECF57"/>
<path d="M134.54 60.6713C139.276 65.6339 142.896 68.3099 144.396 66.8908C145.896 65.4718 143.958 62.137 139.223 57.1743C136.323 54.3221 134.382 53.2743 132.174 52.0292C129.269 50.3907 127.247 48.9194 127.247 48.9194C127.247 48.9194 127.955 50.8851 129.797 53.9672C130.923 55.8498 132.202 58.2206 134.54 60.6713Z" fill="#7ECF57"/>
<path d="M171.479 83.2713C170.274 93.9697 176.839 112.868 165.631 109.957" stroke="#7ECF57" stroke-width="3" stroke-linecap="round"/>
<path d="M132.419 76.4786C133.623 87.177 127.058 106.076 138.266 103.164" stroke="#7ECF57" stroke-width="3" stroke-linecap="round"/>
<path d="M137.343 102.118C137.478 102.305 137.465 102.709 137.465 102.709C137.465 102.709 137.63 103.385 137.468 103.818L137.527 104.926L137.695 104.926L137.831 104.739L138.113 104.469C138.113 104.469 138.043 104.133 138.119 103.816C138.195 103.5 138.116 102.707 138.116 102.707C138.116 102.707 137.831 102.118 137.831 101.594C137.527 101.65 137.343 102.118 137.343 102.118Z" fill="#EBECAF"/>
<path d="M143.139 64.8338C144.344 75.5322 137.779 94.4308 148.986 91.5196" stroke="#7ECF57" stroke-width="3" stroke-linecap="round"/>
<path d="M175.715 75.7446C174.55 82.4912 173.035 86.7194 170.996 86.3704C168.957 86.0213 168.705 82.1767 169.87 75.4301C170.688 71.454 171.716 69.5086 172.855 67.2517C174.355 64.2814 175.215 61.9388 175.215 61.9388C175.215 61.9388 175.724 63.9647 175.913 67.5465C176.029 69.7344 176.29 72.413 175.715 75.7446Z" fill="#72BB4F"/>
<path d="M138.903 57.3071C140.068 64.0537 141.582 68.2819 143.622 67.9329C145.661 67.5838 145.912 63.7392 144.747 56.9926C143.93 53.0165 142.902 51.0711 141.762 48.8142C140.263 45.8439 139.403 43.5013 139.403 43.5013C139.403 43.5013 138.894 45.5272 138.704 49.109C138.589 51.2969 138.328 53.9755 138.903 57.3071Z" fill="#72BB4F"/>
<path d="M166.329 78.8649C168.037 85.4962 169.888 89.5892 171.892 89.0777C173.897 88.5661 173.836 84.7139 172.129 78.0827C170.993 74.1851 169.811 72.3285 168.492 70.1703C166.757 67.33 165.711 65.0639 165.711 65.0639C165.711 65.0639 165.367 67.1241 165.468 70.7094C165.53 72.8995 165.487 75.5903 166.329 78.8649Z" fill="#72BB4F"/>
<path d="M137.568 72.0722C135.861 78.7034 134.009 82.7965 132.005 82.2849C130.001 81.7734 130.061 77.9212 131.768 71.2899C132.905 67.3924 134.087 65.5357 135.405 63.3775C137.14 60.5373 138.187 58.2712 138.187 58.2712C138.187 58.2712 138.53 60.3313 138.429 63.9167C138.368 66.1068 138.411 68.7976 137.568 72.0722Z" fill="#72BB4F"/>
<path d="M148.288 60.4274C146.581 67.0587 144.73 71.1517 142.725 70.6402C140.721 70.1286 140.781 66.2764 142.488 59.6452C143.625 55.7476 144.807 53.891 146.125 51.7328C147.861 48.8925 148.907 46.6264 148.907 46.6264C148.907 46.6264 149.25 48.6866 149.15 52.2719C149.088 54.462 149.131 57.1528 148.288 60.4274Z" fill="#7ECF57"/>
<path d="M176.519 84.8743C174.429 88.4794 172.671 90.5744 171.582 89.948C170.492 89.3216 171.161 87.0755 173.251 83.4704C174.558 81.3732 175.556 80.4787 176.683 79.4298C178.166 78.0494 179.152 76.8929 179.152 76.8929C179.152 76.8929 179.014 78.1554 178.365 80.2387C177.969 81.5112 177.551 83.0941 176.519 84.8743Z" fill="#72BB4F"/>
<path d="M127.378 78.0816C129.468 81.6867 131.226 83.7817 132.316 83.1553C133.405 82.5289 132.736 80.2828 130.646 76.6777C129.339 74.5805 128.342 73.686 127.215 72.6371C125.731 71.2567 124.746 70.1002 124.746 70.1002C124.746 70.1002 124.884 71.3627 125.532 73.4459C125.929 74.7185 126.346 76.3014 127.378 78.0816Z" fill="#72BB4F"/>
<path d="M138.098 66.4368C140.189 70.0419 141.946 72.1369 143.036 71.5105C144.126 70.8841 143.457 68.638 141.366 65.0329C140.06 62.9357 139.062 62.0412 137.935 60.9923C136.452 59.6119 135.466 58.4554 135.466 58.4554C135.466 58.4554 135.604 59.7179 136.253 61.8012C136.649 63.0737 137.066 64.6566 138.098 66.4368Z" fill="#72BB4F"/>
<path d="M169.448 102.621C170.64 104.786 171.655 106.051 172.309 105.693C172.963 105.336 172.596 103.996 171.404 101.831C170.657 100.571 170.077 100.028 169.422 99.3911C168.561 98.5535 167.992 97.8551 167.992 97.8551C167.992 97.8551 168.057 98.6054 168.414 99.8489C168.633 100.608 168.859 101.552 169.448 102.621Z" fill="#7ECF57"/>
<path d="M134.449 95.8285C133.257 97.993 132.242 99.2579 131.588 98.9006C130.934 98.5434 131.301 97.203 132.493 95.0385C133.241 93.7782 133.82 93.2349 134.475 92.5984C135.336 91.7608 135.906 91.0624 135.906 91.0624C135.906 91.0624 135.84 91.8126 135.483 93.0562C135.265 93.8158 135.038 94.7596 134.449 95.8285Z" fill="#7ECF57"/>
<path d="M145.17 84.1837C143.977 86.3482 142.963 87.6131 142.308 87.2558C141.654 86.8986 142.022 85.5582 143.214 83.3937C143.961 82.1334 144.541 81.5901 145.195 80.9536C146.057 80.116 146.626 79.4176 146.626 79.4176C146.626 79.4176 146.561 80.1679 146.203 81.4114C145.985 82.171 145.758 83.1149 145.17 84.1837Z" fill="#7ECF57"/>
<path d="M174.162 105.394C172.655 107.355 171.46 108.453 170.868 108.001C170.275 107.55 170.841 106.28 172.348 104.319C173.278 103.186 173.933 102.736 174.677 102.205C175.655 101.506 176.324 100.901 176.324 100.901C176.324 100.901 176.146 101.633 175.604 102.809C175.273 103.527 174.906 104.426 174.162 105.394Z" fill="#7ECF57"/>
<path d="M129.736 98.6015C131.242 100.562 132.437 101.66 133.029 101.209C133.622 100.757 133.056 99.4873 131.549 97.5267C130.619 96.3931 129.964 95.9431 129.221 95.4123C128.242 94.7137 127.574 94.1088 127.574 94.1088C127.574 94.1088 127.752 94.8407 128.293 96.0163C128.624 96.7344 128.992 97.6334 129.736 98.6015Z" fill="#7ECF57"/>
<path d="M140.456 86.9567C141.962 88.9173 143.157 90.0153 143.75 89.5638C144.342 89.1123 143.776 87.8425 142.27 85.8819C141.34 84.7483 140.684 84.2984 139.941 83.7675C138.962 83.0689 138.294 82.464 138.294 82.464C138.294 82.464 138.472 83.1959 139.014 84.3715C139.345 85.0896 139.712 85.9886 140.456 86.9567Z" fill="#7ECF57"/>
<path d="M171.994 107.608C170.571 108.874 169.812 109.871 170.24 110.348C170.668 110.825 171.634 110.339 173.057 109.072C173.873 108.292 174.167 107.748 174.516 107.13C174.976 106.318 175.393 105.76 175.393 105.76C175.393 105.76 174.821 105.919 173.929 106.382C173.384 106.666 172.697 106.982 171.994 107.608Z" fill="#72BB4F"/>
<path d="M131.903 100.815C133.326 102.082 134.086 103.078 133.657 103.555C133.229 104.032 132.264 103.547 130.841 102.28C130.024 101.499 129.731 100.955 129.381 100.338C128.921 99.5248 128.504 98.9673 128.504 98.9673C128.504 98.9673 129.076 99.1259 129.968 99.5897C130.513 99.873 131.2 100.189 131.903 100.815Z" fill="#72BB4F"/>
<path d="M142.623 89.1703C144.047 90.4372 144.806 91.4338 144.378 91.9107C143.949 92.3875 142.984 91.9021 141.561 90.6352C140.744 89.8547 140.451 89.3105 140.102 88.693C139.642 87.8803 139.224 87.3228 139.224 87.3228C139.224 87.3228 139.797 87.4813 140.689 87.9452C141.234 88.2285 141.921 88.5446 142.623 89.1703Z" fill="#72BB4F"/>
<path d="M170.868 107.23C171.401 109.288 171.513 110.677 170.891 110.837C170.269 110.997 169.706 109.94 169.173 107.882C168.896 106.652 168.939 105.971 168.973 105.187C169.017 104.156 168.961 103.384 168.961 103.384C168.961 103.384 169.364 103.893 169.876 104.883C170.189 105.488 170.605 106.213 170.868 107.23Z" fill="#72BB4F"/>
<path d="M133.029 100.437C132.496 102.495 132.384 103.885 133.006 104.044C133.628 104.204 134.191 103.147 134.724 101.089C135.001 99.8595 134.959 99.1782 134.925 98.3946C134.88 97.3634 134.936 96.591 134.936 96.591C134.936 96.591 134.533 97.1002 134.021 98.0904C133.709 98.6953 133.292 99.4208 133.029 100.437Z" fill="#72BB4F"/>
<path d="M143.749 88.7924C143.216 90.8506 143.105 92.24 143.727 92.3997C144.349 92.5593 144.912 91.5025 145.445 89.4443C145.722 88.2147 145.679 87.5335 145.645 86.7499C145.6 85.7186 145.657 84.9462 145.657 84.9462C145.657 84.9462 145.253 85.4554 144.742 86.4456C144.429 87.0505 144.013 87.776 143.749 88.7924Z" fill="#72BB4F"/>
<path d="M173.961 98.0256C173.177 100.003 172.447 101.192 171.85 100.957C171.252 100.722 171.421 99.5378 172.204 97.5608C172.706 96.4039 173.143 95.8776 173.633 95.2636C174.278 94.4555 174.688 93.7978 174.688 93.7978C174.688 93.7978 174.714 94.4457 174.543 95.5463C174.439 96.2187 174.348 97.0493 173.961 98.0256Z" fill="#72BB4F"/>
<path d="M129.937 91.2328C130.72 93.2098 131.45 94.3993 132.048 94.1644C132.645 93.9295 132.477 92.7451 131.693 90.7681C131.191 89.6112 130.755 89.0849 130.264 88.4709C129.619 87.6628 129.209 87.0051 129.209 87.0051C129.209 87.0051 129.183 87.653 129.354 88.7536C129.458 89.4259 129.549 90.2566 129.937 91.2328Z" fill="#72BB4F"/>
<path d="M140.657 79.5881C141.441 81.5651 142.171 82.7546 142.768 82.5197C143.366 82.2847 143.197 81.1003 142.413 79.1233C141.911 77.9664 141.475 77.4401 140.985 76.8261C140.34 76.018 139.929 75.3603 139.929 75.3603C139.929 75.3603 139.904 76.0082 140.074 77.1088C140.178 77.7812 140.27 78.6118 140.657 79.5881Z" fill="#72BB4F"/>
<path d="M169.642 97.0814C170.5 99.0275 171.274 100.189 171.862 99.9315C172.451 99.6743 172.237 98.497 171.379 96.5509C170.834 95.4138 170.378 94.9042 169.865 94.3091C169.189 93.5258 168.754 92.884 168.754 92.884C168.754 92.884 168.753 93.5324 168.965 94.6259C169.095 95.2938 169.218 96.1204 169.642 97.0814Z" fill="#72BB4F"/>
<path d="M134.256 90.2887C133.397 92.2348 132.623 93.396 132.035 93.1388C131.447 92.8815 131.66 91.7043 132.518 89.7582C133.064 88.621 133.52 88.1115 134.033 87.5163C134.708 86.7331 135.143 86.0913 135.143 86.0913C135.143 86.0913 135.144 86.7397 134.932 87.8332C134.802 88.5011 134.68 89.3277 134.256 90.2887Z" fill="#72BB4F"/>
<path d="M144.976 78.6439C144.118 80.59 143.343 81.7512 142.755 81.494C142.167 81.2368 142.38 80.0595 143.239 78.1134C143.784 76.9763 144.24 76.4667 144.753 75.8716C145.428 75.0883 145.864 74.4465 145.864 74.4465C145.864 74.4465 145.865 75.0949 145.652 76.1884C145.523 76.8563 145.4 77.6829 144.976 78.6439Z" fill="#72BB4F"/>
<path d="M173.313 100.001C172.395 100.956 171.629 101.407 171.163 100.964C170.698 100.521 170.997 99.8047 171.914 98.8496C172.487 98.3114 172.921 98.1658 173.411 97.987C174.056 97.7517 174.485 97.5055 174.485 97.5055C174.485 97.5055 174.42 97.9534 174.13 98.612C173.953 99.0143 173.766 99.5292 173.313 100.001Z" fill="#7ECF57"/>
<path d="M130.585 93.2081C131.502 94.1631 132.269 94.6145 132.734 94.1712C133.2 93.7279 132.901 93.0119 131.983 92.0569C131.41 91.5187 130.977 91.3731 130.487 91.1943C129.842 90.959 129.412 90.7128 129.412 90.7128C129.412 90.7128 129.478 91.1607 129.767 91.8193C129.944 92.2216 130.132 92.7365 130.585 93.2081Z" fill="#7ECF57"/>
<path d="M141.305 81.5633C142.222 82.5183 142.989 82.9697 143.455 82.5264C143.92 82.0831 143.621 81.3672 142.703 80.4121C142.131 79.8739 141.697 79.7283 141.207 79.5495C140.562 79.3142 140.132 79.068 140.132 79.068C140.132 79.068 140.198 79.5159 140.488 80.1745C140.665 80.5768 140.852 81.0917 141.305 81.5633Z" fill="#7ECF57"/>
<path d="M169.163 82.8276C169.09 87.27 169.544 90.1483 170.887 90.1703C172.23 90.1923 172.855 87.7706 172.929 83.3281C172.888 80.6942 172.468 79.3302 172.014 77.7541C171.417 75.6799 171.152 74.0827 171.152 74.0827C171.152 74.0827 170.583 75.3137 170.028 77.5753C169.69 78.9567 169.199 80.6338 169.163 82.8276Z" fill="#7ECF57"/>
<path d="M132.519 74.6187C133.925 78.8354 134.358 81.7171 133.083 82.1384C131.809 82.5598 130.483 80.4357 129.077 76.219C128.324 73.6939 128.314 72.2672 128.273 70.6282C128.219 68.4711 127.991 66.8683 127.991 66.8683C127.991 66.8683 128.905 67.8729 130.114 69.8654C130.853 71.0825 131.825 72.5364 132.519 74.6187Z" fill="#72BB4F"/>
<path d="M146.017 64.9862C145.076 69.3293 143.977 72.0299 142.665 71.7479C141.352 71.4659 141.295 68.966 142.236 64.6228C142.875 62.0668 143.595 60.8333 144.396 59.4008C145.451 57.5156 146.072 56.0199 146.072 56.0199C146.072 56.0199 146.347 57.3476 146.371 59.6754C146.386 61.0973 146.482 62.8414 146.017 64.9862Z" fill="#72BB4F"/>
<path d="M146.812 90.9062C146.943 91.0831 146.93 91.488 146.93 91.488C146.93 91.488 147.09 92.1505 146.93 92.5966L146.985 93.6992L147.149 93.6862L147.283 93.4888L147.56 93.197C147.56 93.197 147.492 92.8668 147.568 92.5441C147.643 92.2214 147.568 91.4355 147.568 91.4355C147.568 91.4355 147.29 90.8684 147.291 90.3443C146.993 90.4245 146.812 90.9062 146.812 90.9062Z" fill="#EBECAF"/>
<path d="M165.06 109.042C165.156 109.162 165.147 109.573 165.147 109.573C165.147 109.573 165.264 110.166 165.148 110.682L165.189 111.76L165.309 111.676L165.406 111.42L165.608 111.008C165.608 111.008 165.559 110.707 165.613 110.352C165.668 109.996 165.613 109.243 165.613 109.243C165.613 109.243 165.409 108.797 165.41 108.272C165.192 108.482 165.06 109.042 165.06 109.042Z" fill="#EBECAF"/>
<g filter="url(#filter0_f_61_75090)">
<path d="M209 220.582C209 225.405 183.256 227.86 151.5 227.86C119.744 227.86 94 225.405 94 220.582C94 215.759 119.744 211.848 151.5 211.848C183.256 211.848 209 215.759 209 220.582Z" fill="#D9D9D9"/>
</g>
<path d="M116.658 169.379C116.533 168.76 117.006 168.181 117.638 168.181H184.841C185.484 168.181 185.96 168.779 185.815 169.405L174.094 220.292C173.989 220.745 173.585 221.067 173.119 221.067H127.953C127.478 221.067 127.068 220.732 126.973 220.266L116.658 169.379Z" fill="#B4771A"/>
<path d="M116.794 170.051C116.67 169.438 116.608 169.131 116.682 168.889C116.758 168.638 116.931 168.426 117.163 168.301C117.385 168.181 117.698 168.181 118.323 168.181H184.137C184.778 168.181 185.098 168.181 185.323 168.305C185.557 168.433 185.73 168.65 185.803 168.907C185.873 169.155 185.801 169.467 185.657 170.091L174.194 219.857C174.099 220.271 174.051 220.477 173.943 220.634C173.831 220.798 173.672 220.924 173.487 220.997C173.31 221.067 173.098 221.067 172.674 221.067H128.411C127.976 221.067 127.759 221.067 127.579 220.994C127.391 220.918 127.231 220.787 127.119 220.618C127.012 220.456 126.969 220.243 126.882 219.817L116.794 170.051Z" fill="url(#paint12_linear_61_75090)"/>
<path d="M116.794 170.051C116.67 169.438 116.608 169.131 116.682 168.889C116.758 168.638 116.931 168.426 117.163 168.301C117.385 168.181 117.698 168.181 118.323 168.181H184.137C184.778 168.181 185.098 168.181 185.323 168.305C185.557 168.433 185.73 168.65 185.803 168.907C185.873 169.155 185.801 169.467 185.657 170.091L174.194 219.857C174.099 220.271 174.051 220.477 173.943 220.634C173.831 220.798 173.672 220.924 173.487 220.997C173.31 221.067 173.098 221.067 172.674 221.067H128.411C127.976 221.067 127.759 221.067 127.579 220.994C127.391 220.918 127.231 220.787 127.119 220.618C127.012 220.456 126.969 220.243 126.882 219.817L116.794 170.051Z" fill="url(#paint13_linear_61_75090)"/>
<g filter="url(#filter1_d_61_75090)">
<path d="M112.673 163.494C112.59 162.893 113.057 162.358 113.663 162.358H188.309C188.934 162.358 189.405 162.924 189.293 163.538L187.709 172.212C187.622 172.687 187.208 173.033 186.725 173.033H114.851C114.351 173.033 113.928 172.664 113.86 172.168L112.673 163.494Z" fill="url(#paint14_linear_61_75090)"/>
</g>
<path d="M144.327 96.757C144.327 96.4551 142.684 96.2103 140.659 96.2103C138.633 96.2103 136.991 96.4551 136.991 96.757C136.991 97.0589 138.633 97.3037 140.659 97.3037C142.684 97.3037 144.327 97.0589 144.327 96.757Z" fill="#DBDCA8"/>
<path d="M147.249 87.5627C148.127 87.193 149.56 87.4106 149.56 87.4106C149.56 87.4106 150.748 87.1673 151.509 87.4106L152.959 87.5627L155.524 87.4106C155.453 87.4673 155.799 86.3893 155.799 86.3893L153.458 86.5924C153.458 86.5924 152.066 86.5548 151.509 86.4402C150.953 86.3256 149.56 86.4402 149.56 86.4402C149.56 86.4402 148.276 85.9905 147.107 86.3893C147.095 87.0266 147.237 87.2297 147.249 87.5627Z" fill="#EBECAF"/>
<path d="M155.826 86.29C155.826 85.9932 153.901 85.7526 151.526 85.7526C149.152 85.7526 147.099 85.9932 147.099 86.29C147.099 86.5868 149.152 86.8274 151.526 86.8274C153.901 86.8274 155.826 86.5868 155.826 86.29Z" fill="#DBDCA8"/>
<path d="M165.631 104.135C165.631 104.403 163.348 104.62 161.733 104.62C160.118 104.62 158.809 104.403 158.809 104.135C158.809 103.867 160.118 103.65 161.733 103.65C163.348 103.65 165.631 103.867 165.631 104.135Z" fill="#DBDCA8"/>
<defs>
<filter id="filter0_f_61_75090" x="90" y="207.848" width="123" height="24.0115" filterUnits="userSpaceOnUse" color-interpolation-filters="sRGB">
<feFlood flood-opacity="0" result="BackgroundImageFix"/>
<feBlend mode="normal" in="SourceGraphic" in2="BackgroundImageFix" result="shape"/>
<feGaussianBlur stdDeviation="2" result="effect1_foregroundBlur_61_75090"/>
</filter>
<filter id="filter1_d_61_75090" x="108.663" y="162.358" width="84.6466" height="18.6743" filterUnits="userSpaceOnUse" color-interpolation-filters="sRGB">
<feFlood flood-opacity="0" result="BackgroundImageFix"/>
<feColorMatrix in="SourceAlpha" type="matrix" values="0 0 0 0 0 0 0 0 0 0 0 0 0 0 0 0 0 0 127 0" result="hardAlpha"/>
<feOffset dy="4"/>
<feGaussianBlur stdDeviation="2"/>
<feComposite in2="hardAlpha" operator="out"/>
<feColorMatrix type="matrix" values="0 0 0 0 0 0 0 0 0 0 0 0 0 0 0 0 0 0 0.25 0"/>
<feBlend mode="normal" in2="BackgroundImageFix" result="effect1_dropShadow_61_75090"/>
<feBlend mode="normal" in="SourceGraphic" in2="effect1_dropShadow_61_75090" result="shape"/>
</filter>
<linearGradient id="paint0_linear_61_75090" x1="162.258" y1="153.625" x2="162.258" y2="156.536" gradientUnits="userSpaceOnUse">
<stop stop-color="#326B2D"/>
<stop offset="1" stop-color="#326B2D" stop-opacity="0"/>
</linearGradient>
<linearGradient id="paint1_linear_61_75090" x1="162.258" y1="104.135" x2="162.258" y2="107.046" gradientUnits="userSpaceOnUse">
<stop stop-color="#326B2D"/>
<stop offset="1" stop-color="#326B2D" stop-opacity="0"/>
</linearGradient>
<linearGradient id="paint2_linear_61_75090" x1="162.258" y1="120.631" x2="162.258" y2="123.543" gradientUnits="userSpaceOnUse">
<stop stop-color="#326B2D"/>
<stop offset="1" stop-color="#326B2D" stop-opacity="0"/>
</linearGradient>
<linearGradient id="paint3_linear_61_75090" x1="162.258" y1="137.128" x2="162.258" y2="140.039" gradientUnits="userSpaceOnUse">
<stop stop-color="#326B2D"/>
<stop offset="1" stop-color="#326B2D" stop-opacity="0"/>
</linearGradient>
<linearGradient id="paint4_linear_61_75090" x1="151.417" y1="146.902" x2="151.417" y2="150.446" gradientUnits="userSpaceOnUse">
<stop stop-color="#326B2D"/>
<stop offset="1" stop-color="#326B2D" stop-opacity="0"/>
</linearGradient>
<linearGradient id="paint5_linear_61_75090" x1="151.417" y1="86.6677" x2="151.417" y2="90.2109" gradientUnits="userSpaceOnUse">
<stop stop-color="#326B2D"/>
<stop offset="1" stop-color="#326B2D" stop-opacity="0"/>
</linearGradient>
<linearGradient id="paint6_linear_61_75090" x1="151.417" y1="106.746" x2="151.417" y2="110.289" gradientUnits="userSpaceOnUse">
<stop stop-color="#326B2D"/>
<stop offset="1" stop-color="#326B2D" stop-opacity="0"/>
</linearGradient>
<linearGradient id="paint7_linear_61_75090" x1="151.417" y1="126.824" x2="151.417" y2="130.367" gradientUnits="userSpaceOnUse">
<stop stop-color="#326B2D"/>
<stop offset="1" stop-color="#326B2D" stop-opacity="0"/>
</linearGradient>
<linearGradient id="paint8_linear_61_75090" x1="140.804" y1="146.832" x2="140.804" y2="149.743" gradientUnits="userSpaceOnUse">
<stop stop-color="#326B2D"/>
<stop offset="1" stop-color="#326B2D" stop-opacity="0"/>
</linearGradient>
<linearGradient id="paint9_linear_61_75090" x1="140.804" y1="97.3421" x2="140.804" y2="100.253" gradientUnits="userSpaceOnUse">
<stop stop-color="#326B2D"/>
<stop offset="1" stop-color="#326B2D" stop-opacity="0"/>
</linearGradient>
<linearGradient id="paint10_linear_61_75090" x1="140.804" y1="113.839" x2="140.804" y2="116.75" gradientUnits="userSpaceOnUse">
<stop stop-color="#326B2D"/>
<stop offset="1" stop-color="#326B2D" stop-opacity="0"/>
</linearGradient>
<linearGradient id="paint11_linear_61_75090" x1="140.804" y1="130.335" x2="140.804" y2="133.246" gradientUnits="userSpaceOnUse">
<stop stop-color="#326B2D"/>
<stop offset="1" stop-color="#326B2D" stop-opacity="0"/>
</linearGradient>
<linearGradient id="paint12_linear_61_75090" x1="151.5" y1="199.233" x2="172.921" y2="206.567" gradientUnits="userSpaceOnUse">
<stop stop-color="#A8690A" stop-opacity="0.81"/>
<stop offset="0.939762" stop-color="#6D4303"/>
</linearGradient>
<linearGradient id="paint13_linear_61_75090" x1="153.936" y1="199.233" x2="128.136" y2="208.522" gradientUnits="userSpaceOnUse">
<stop stop-color="#C28427" stop-opacity="0.4"/>
<stop offset="1" stop-color="#885508"/>
</linearGradient>
<linearGradient id="paint14_linear_61_75090" x1="112.517" y1="162.358" x2="189.508" y2="162.358" gradientUnits="userSpaceOnUse">
<stop offset="0.00865841" stop-color="#744704"/>
<stop offset="0.510756" stop-color="#CD851A"/>
<stop offset="1" stop-color="#724603"/>
</linearGradient>
</defs>
</svg>
