<svg width="303" height="211" viewBox="0 0 303 211" fill="none" xmlns="http://www.w3.org/2000/svg">
<path d="M128.183 47.238C129.348 53.9846 130.862 58.2128 132.901 57.8638C134.94 57.5147 135.192 53.6701 134.027 46.9235C133.21 42.9474 132.182 41.002 131.042 38.7451C129.542 35.7748 128.683 33.4322 128.683 33.4322C128.683 33.4322 128.174 35.4581 127.984 39.0399C127.868 41.2278 127.608 43.9064 128.183 47.238Z" fill="#7ECF57"/>
<path d="M165.669 131.911H158.847C158.847 131.911 158.847 138.218 158.359 144.041C158.157 146.458 158.847 148.408 158.847 148.408H165.669C165.669 148.408 165.667 144.403 165.331 139.674C165.193 137.733 165.669 131.911 165.669 131.911Z" fill="#7ECF57"/>
<path d="M165.632 82.4209H158.847C158.847 82.4209 158.847 88.7285 158.359 94.5508C158.157 96.9684 158.847 98.9176 158.847 98.9176H165.669C165.669 98.9176 165.667 94.913 165.331 90.184C165.193 88.2433 165.632 82.4209 165.632 82.4209Z" fill="#7ECF57"/>
<path d="M165.669 98.9175H158.847C158.847 98.9175 158.847 99.8879 158.847 105.71C158.847 108.136 159.364 115.414 159.364 115.414H166.156C166.156 115.414 165.331 111.414 165.331 106.681C165.331 104.735 165.669 98.9175 165.669 98.9175Z" fill="#7ECF57"/>
<path d="M159.372 115.414H166.119C166.119 115.414 165.181 121.237 165.669 127.059C165.769 128.259 165.693 129.547 165.669 130.455C165.643 131.377 165.669 131.911 165.669 131.911H158.847C158.847 131.911 158.847 130.941 158.359 130.455C158.291 128.861 158.639 126.103 158.847 123.177C158.985 121.237 159.372 115.414 159.372 115.414Z" fill="#7ECF57"/>
<path d="M165.669 131.911H158.847V134.822H165.458L165.669 131.911Z" fill="url(#paint0_linear_209_120415)"/>
<path d="M165.584 82.4209H158.847V85.3321H165.458L165.584 82.4209Z" fill="url(#paint1_linear_209_120415)"/>
<path d="M165.669 98.9175H158.847V101.829H165.508L165.669 98.9175Z" fill="url(#paint2_linear_209_120415)"/>
<path d="M166.156 115.414H159.376C159.239 117.097 159.041 119.171 159.334 118.325H165.669C165.706 118.534 166.001 116.301 166.156 115.414Z" fill="url(#paint3_linear_209_120415)"/>
<path d="M165.669 99.4028C164.79 99.0331 163.708 99.2507 163.708 99.2507C163.708 99.2507 162.52 99.0074 161.758 99.2507L160.308 99.4028L158.835 99.2507C158.906 99.3074 158.67 98.2803 158.67 98.2803L159.809 98.4324C159.809 98.4324 161.202 98.3948 161.758 98.2803C162.315 98.1657 163.708 98.2803 163.708 98.2803C163.708 98.2803 164.464 98.5725 165.657 98.2803C165.669 98.9176 165.681 99.0698 165.669 99.4028Z" fill="#EBECAF"/>
<path d="M166.093 116.385C165.606 115.9 164.238 115.723 164.238 115.723C164.238 115.723 163.05 115.48 162.288 115.723L160.838 115.875C160.857 115.923 159.686 116.231 159.334 115.9C159.334 115.414 159.334 115.414 159.334 115.414V114.905H160.339C160.339 114.905 161.732 114.867 162.288 114.753C162.845 114.638 164.238 114.753 164.238 114.753C164.238 114.753 164.9 115.197 166.093 114.905C166.228 115.614 166.19 115.672 166.093 116.385Z" fill="#EBECAF"/>
<path d="M165.664 132.114C164.786 131.744 163.703 131.962 163.703 131.962C163.703 131.962 162.708 131.911 161.754 131.962L160.304 132.114L158.83 131.962C158.901 132.019 158.665 130.991 158.665 130.991L159.805 131.144C159.805 131.144 161.197 131.106 161.754 130.991C162.31 130.877 163.703 130.991 163.703 130.991C163.703 130.991 164.476 131.233 165.669 130.941C165.681 131.578 165.676 131.781 165.664 132.114Z" fill="#EBECAF"/>
<path d="M155.569 125.188H147.266C147.266 125.188 147.266 132.865 146.673 139.952C146.426 142.894 147.266 145.267 147.266 145.267H155.569C155.569 145.267 155.567 140.393 155.158 134.637C154.99 132.275 155.569 125.188 155.569 125.188Z" fill="#7ECF57"/>
<path d="M155.569 64.9539H147.266C147.266 64.9539 147.266 72.6308 146.673 79.7173C146.426 82.6597 147.266 85.0321 147.266 85.0321H155.569C155.569 85.0321 155.567 80.1581 155.158 74.4024C154.99 72.0403 155.569 64.9539 155.569 64.9539Z" fill="#7ECF57"/>
<path d="M155.569 85.032H147.266C147.266 85.032 147.266 86.2131 147.266 93.2995C147.266 96.2522 147.896 105.11 147.896 105.11H156.162C156.162 105.11 155.158 100.242 155.158 94.4806C155.158 92.1125 155.569 85.032 155.569 85.032Z" fill="#7ECF57"/>
<path d="M147.905 105.11H156.116C156.116 105.11 154.976 112.197 155.569 119.283C155.691 120.744 155.599 122.311 155.569 123.417C155.538 124.539 155.569 125.189 155.569 125.189H147.265C147.265 125.189 147.266 124.008 146.672 123.417C146.59 121.476 147.012 118.12 147.265 114.559C147.433 112.197 147.905 105.11 147.905 105.11Z" fill="#7ECF57"/>
<path d="M155.569 125.188H147.266V128.732H155.312L155.569 125.188Z" fill="url(#paint4_linear_209_120415)"/>
<path d="M155.569 64.9539H147.266V68.4971H155.313L155.569 64.9539Z" fill="url(#paint5_linear_209_120415)"/>
<path d="M155.569 85.032H147.266V88.5752H155.361L155.569 85.032Z" fill="url(#paint6_linear_209_120415)"/>
<path d="M156.162 105.11H147.91C147.743 107.159 147.503 109.683 147.859 108.654H155.569C155.614 108.907 155.973 106.189 156.162 105.11Z" fill="url(#paint7_linear_209_120415)"/>
<path d="M155.569 85.6226C154.5 85.1726 153.182 85.4374 153.182 85.4374C153.182 85.4374 151.736 85.1412 150.81 85.4374L149.045 85.6226L147.251 85.4374C147.338 85.5064 147.051 84.2563 147.051 84.2563L148.437 84.4415C148.437 84.4415 150.132 84.3957 150.81 84.2563C151.487 84.1169 153.182 84.2563 153.182 84.2563C153.182 84.2563 154.103 84.612 155.554 84.2563C155.569 85.032 155.583 85.2172 155.569 85.6226Z" fill="#EBECAF"/>
<path d="M156.085 106.292C155.492 105.701 153.827 105.486 153.827 105.486C153.827 105.486 152.381 105.19 151.455 105.486L149.69 105.671C149.712 105.73 148.287 106.104 147.859 105.701C147.859 105.11 147.859 105.11 147.859 105.11V104.49H149.082C149.082 104.49 150.777 104.444 151.455 104.305C152.132 104.166 153.827 104.305 153.827 104.305C153.827 104.305 154.634 104.846 156.085 104.49C156.249 105.353 156.203 105.424 156.085 106.292Z" fill="#EBECAF"/>
<path d="M155.563 125.436C154.494 124.986 153.176 125.251 153.176 125.251C153.176 125.251 151.5 125.118 150.804 125.251L149.039 125.436L147.245 125.251C147.332 125.32 147.045 124.07 147.045 124.07L148.431 124.255C148.431 124.255 150.127 124.209 150.804 124.07C151.481 123.93 153.176 124.07 153.176 124.07C153.176 124.07 154.117 124.363 155.569 124.008C155.583 124.783 155.577 125.03 155.563 125.436Z" fill="#EBECAF"/>
<path d="M137.394 125.118H144.216C144.216 125.118 144.216 131.426 144.703 137.248C144.905 139.666 144.216 141.615 144.216 141.615H137.394C137.394 141.615 137.395 137.61 137.731 132.881C137.869 130.941 137.394 125.118 137.394 125.118Z" fill="#7ECF57"/>
<path d="M137.533 75.6282H144.191C144.191 75.6282 144.216 81.9357 144.703 87.7581C144.905 90.1757 144.216 92.1248 144.216 92.1248H137.394C137.394 92.1248 137.395 88.1203 137.731 83.3913C137.869 81.4505 137.533 75.6282 137.533 75.6282Z" fill="#7ECF57"/>
<path d="M137.394 92.1248H144.216C144.216 92.1248 144.216 93.0951 144.216 98.9175C144.216 101.343 143.698 108.621 143.698 108.621H136.906C136.906 108.621 137.731 104.622 137.731 99.8879C137.731 97.9423 137.394 92.1248 137.394 92.1248Z" fill="#7ECF57"/>
<path d="M143.69 108.621H136.943C136.943 108.621 137.881 114.444 137.394 120.266C137.293 121.466 137.369 122.754 137.394 123.662C137.419 124.584 137.394 125.118 137.394 125.118H144.216C144.216 125.118 144.216 124.148 144.703 123.662C144.771 122.068 144.424 119.31 144.216 116.384C144.078 114.444 143.69 108.621 143.69 108.621Z" fill="#7ECF57"/>
<path d="M137.394 125.118H144.216V128.029H137.604L137.394 125.118Z" fill="url(#paint8_linear_209_120415)"/>
<path d="M137.394 75.6279H144.191L144.216 78.5391C144.216 78.5391 138.039 78.3197 137.856 78.5394C137.673 78.759 137.603 75.7921 137.394 75.6279Z" fill="url(#paint9_linear_209_120415)"/>
<path d="M137.394 92.1248H144.216V95.0359H137.55L137.394 92.1248Z" fill="url(#paint10_linear_209_120415)"/>
<path d="M136.906 108.621H143.686C143.823 110.304 144.021 112.378 143.728 111.533H137.393C137.357 111.741 137.062 109.508 136.906 108.621Z" fill="url(#paint11_linear_209_120415)"/>
<path d="M137.393 92.6099C138.272 92.2401 139.354 92.4577 139.354 92.4577C139.354 92.4577 140.542 92.2144 141.304 92.4577L142.754 92.6099L144.227 92.4577C144.156 92.5145 144.392 91.4873 144.392 91.4873L143.253 91.6395C143.253 91.6395 141.86 91.6019 141.304 91.4873C140.747 91.3728 139.354 91.4873 139.354 91.4873C139.354 91.4873 138.598 91.7796 137.405 91.4873C137.393 92.1247 137.382 92.2768 137.393 92.6099Z" fill="#EBECAF"/>
<path d="M137.547 76.3955C138.069 76.7537 139.369 76.1643 139.369 76.1643C139.369 76.1643 140.784 76.0157 141.692 76.1643L143.42 76.2572L144.327 76.0258C144.327 76.1187 144.327 75.0554 144.327 75.0554H141.707C141.044 74.9854 139.611 75.0554 139.611 75.0554C139.611 75.0554 138.412 75.2339 136.991 75.0554C136.991 75.1979 137.079 75.9029 137.079 75.9029L137.204 76.3955H137.547Z" fill="#EBECAF"/>
<path d="M158.797 83.2244C159.674 82.9187 160.273 83.2665 160.273 83.2665C160.273 83.2665 161.46 83.0653 162.22 83.2665L163.668 83.3923L165.57 83.3616L165.632 82.9061V82.4209L164.166 82.5899C164.166 82.5899 162.776 82.5588 162.22 82.464C161.664 82.3693 160.273 82.464 160.273 82.464C160.273 82.464 159.988 82.6636 158.797 82.4219C158.785 82.949 158.785 82.949 158.797 83.2244Z" fill="#EBECAF"/>
<path d="M136.969 109.592C137.456 109.107 138.825 108.93 138.825 108.93C138.825 108.93 140.012 108.687 140.774 108.93L142.224 109.082C142.205 109.13 143.376 109.438 143.728 109.107C143.728 108.621 143.728 108.621 143.728 108.621V108.112H142.723C142.723 108.112 141.33 108.074 140.774 107.96C140.217 107.845 138.825 107.96 138.825 107.96C138.825 107.96 138.162 108.404 136.969 108.112C136.834 108.821 136.872 108.879 136.969 109.592Z" fill="#EBECAF"/>
<path d="M137.398 125.321C138.277 124.952 139.359 125.169 139.359 125.169C139.359 125.169 140.78 125.118 141.309 125.169L142.759 125.321L144.232 125.169C144.161 125.226 144.397 124.199 144.397 124.199L143.258 124.351C143.258 124.351 141.865 124.313 141.309 124.199C140.752 124.084 139.359 124.199 139.359 124.199C139.359 124.199 138.586 124.44 137.394 124.148C137.382 124.785 137.387 124.988 137.398 125.321Z" fill="#EBECAF"/>
<path d="M180.077 57.3949C175.342 62.3576 171.722 65.0335 170.222 63.6145C168.722 62.1954 170.66 58.8606 175.395 53.8979C178.295 51.0458 180.236 49.9979 182.443 48.7529C185.348 47.1143 187.371 45.6431 187.371 45.6431C187.371 45.6431 186.663 47.6087 184.82 50.6908C183.695 52.5735 182.416 54.9442 180.077 57.3949Z" fill="#7ECF57"/>
<path d="M123.82 50.6022C128.556 55.5648 132.176 58.2408 133.676 56.8218C135.176 55.4027 133.238 52.0679 128.502 47.1052C125.602 44.253 123.662 43.2052 121.454 41.9601C118.549 40.3216 116.527 38.8503 116.527 38.8503C116.527 38.8503 117.235 40.816 119.077 43.8981C120.203 45.7807 121.482 48.1515 123.82 50.6022Z" fill="#7ECF57"/>
<path d="M134.541 38.9574C139.276 43.9201 142.896 46.596 144.396 45.177C145.896 43.7579 143.958 40.4231 139.223 35.4604C136.323 32.6083 134.382 31.5604 132.175 30.3154C129.269 28.6768 127.247 27.2056 127.247 27.2056C127.247 27.2056 127.955 29.1712 129.798 32.2533C130.923 34.136 132.202 36.5067 134.541 38.9574Z" fill="#7ECF57"/>
<path d="M171.479 61.5575C170.274 72.2558 176.839 91.1545 165.632 88.2433" stroke="#7ECF57" stroke-width="3" stroke-linecap="round"/>
<path d="M132.419 54.7647C133.623 65.4631 127.058 84.3617 138.266 81.4505" stroke="#7ECF57" stroke-width="3" stroke-linecap="round"/>
<path d="M137.343 80.404C137.478 80.5914 137.465 80.9954 137.465 80.9954C137.465 80.9954 137.63 81.6708 137.468 82.1045L137.527 83.2119L137.695 83.2119L137.831 83.025L138.113 82.7551C138.113 82.7551 138.043 82.4194 138.119 82.1026C138.195 81.7857 138.116 80.9934 138.116 80.9934C138.116 80.9934 137.831 80.4041 137.831 79.8799C137.527 79.9364 137.343 80.404 137.343 80.404Z" fill="#EBECAF"/>
<path d="M143.139 43.12C144.344 53.8183 137.779 72.717 148.986 69.8058" stroke="#7ECF57" stroke-width="3" stroke-linecap="round"/>
<path d="M175.715 54.0307C174.55 60.7773 173.035 65.0056 170.996 64.6565C168.957 64.3074 168.705 60.4629 169.87 53.7163C170.688 49.7402 171.716 47.7948 172.855 45.5378C174.355 42.5676 175.215 40.2249 175.215 40.2249C175.215 40.2249 175.724 42.2508 175.913 45.8326C176.029 48.0205 176.29 50.6991 175.715 54.0307Z" fill="#72BB4F"/>
<path d="M138.903 35.5932C140.068 42.3398 141.583 46.5681 143.622 46.219C145.661 45.8699 145.912 42.0254 144.748 35.2788C143.93 31.3027 142.902 29.3573 141.762 27.1003C140.263 24.1301 139.403 21.7874 139.403 21.7874C139.403 21.7874 138.894 23.8133 138.705 27.3951C138.589 29.583 138.328 32.2616 138.903 35.5932Z" fill="#72BB4F"/>
<path d="M166.33 57.1511C168.037 63.7823 169.888 67.8753 171.893 67.3638C173.897 66.8523 173.837 63 172.13 56.3688C170.993 52.4712 169.811 50.6146 168.492 48.4564C166.757 45.6161 165.711 43.35 165.711 43.35C165.711 43.35 165.367 45.4102 165.468 48.9955C165.53 51.1856 165.487 53.8765 166.33 57.1511Z" fill="#72BB4F"/>
<path d="M137.568 50.3584C135.861 56.9896 134.009 61.0826 132.005 60.5711C130.001 60.0595 130.061 56.2073 131.768 49.5761C132.905 45.6785 134.087 43.8219 135.405 41.6637C137.14 38.8234 138.187 36.5573 138.187 36.5573C138.187 36.5573 138.53 38.6175 138.429 42.2028C138.368 44.3929 138.411 47.0838 137.568 50.3584Z" fill="#72BB4F"/>
<path d="M148.288 38.7136C146.581 45.3448 144.73 49.4378 142.725 48.9263C140.721 48.4148 140.781 44.5625 142.488 37.9313C143.625 34.0337 144.807 32.1771 146.126 30.0189C147.861 27.1786 148.907 24.9125 148.907 24.9125C148.907 24.9125 149.25 26.9727 149.15 30.558C149.088 32.7481 149.131 35.439 148.288 38.7136Z" fill="#7ECF57"/>
<path d="M176.519 63.1605C174.429 66.7655 172.671 68.8606 171.582 68.2342C170.492 67.6078 171.161 65.3616 173.251 61.7566C174.558 59.6594 175.556 58.7648 176.683 57.7159C178.166 56.3355 179.152 55.1791 179.152 55.1791C179.152 55.1791 179.014 56.4416 178.365 58.5248C177.969 59.7973 177.552 61.3802 176.519 63.1605Z" fill="#72BB4F"/>
<path d="M127.378 56.3677C129.469 59.9728 131.226 62.0678 132.316 61.4414C133.405 60.815 132.736 58.5689 130.646 54.9638C129.339 52.8666 128.342 51.9721 127.215 50.9232C125.731 49.5428 124.746 48.3863 124.746 48.3863C124.746 48.3863 124.884 49.6488 125.532 51.7321C125.929 53.0046 126.346 54.5875 127.378 56.3677Z" fill="#72BB4F"/>
<path d="M138.099 44.723C140.189 48.328 141.946 50.4231 143.036 49.7967C144.126 49.1703 143.457 46.9241 141.366 43.3191C140.06 41.2219 139.062 40.3273 137.935 39.2784C136.452 37.898 135.466 36.7416 135.466 36.7416C135.466 36.7416 135.604 38.0041 136.253 40.0873C136.649 41.3598 137.066 42.9427 138.099 44.723Z" fill="#72BB4F"/>
<path d="M169.448 80.9074C170.64 83.0718 171.655 84.3367 172.309 83.9795C172.964 83.6222 172.596 82.2818 171.404 80.1174C170.657 78.857 170.077 78.3138 169.422 77.6773C168.561 76.8396 167.992 76.1412 167.992 76.1412C167.992 76.1412 168.057 76.8915 168.414 78.135C168.633 78.8946 168.86 79.8385 169.448 80.9074Z" fill="#7ECF57"/>
<path d="M134.449 74.1146C133.257 76.2791 132.242 77.544 131.588 77.1867C130.934 76.8295 131.301 75.4891 132.493 73.3246C133.241 72.0643 133.82 71.521 134.475 70.8845C135.336 70.0469 135.906 69.3485 135.906 69.3485C135.906 69.3485 135.84 70.0988 135.483 71.3423C135.265 72.1019 135.038 73.0458 134.449 74.1146Z" fill="#7ECF57"/>
<path d="M145.17 62.4699C143.977 64.6343 142.963 65.8992 142.309 65.542C141.654 65.1847 142.022 63.8443 143.214 61.6799C143.961 60.4195 144.541 59.8763 145.195 59.2398C146.057 58.4021 146.626 57.7037 146.626 57.7037C146.626 57.7037 146.561 58.454 146.203 59.6975C145.985 60.4571 145.758 61.401 145.17 62.4699Z" fill="#7ECF57"/>
<path d="M174.162 83.6804C172.655 85.6409 171.461 86.7389 170.868 86.2874C170.275 85.836 170.842 84.5661 172.348 82.6056C173.278 81.472 173.933 81.022 174.677 80.4912C175.655 79.7925 176.324 79.1876 176.324 79.1876C176.324 79.1876 176.146 79.9195 175.604 81.0951C175.273 81.8132 174.906 82.7122 174.162 83.6804Z" fill="#7ECF57"/>
<path d="M129.736 76.8877C131.242 78.8482 132.437 79.9462 133.03 79.4947C133.622 79.0432 133.056 77.7734 131.549 75.8128C130.62 74.6792 129.964 74.2293 129.221 73.6984C128.242 72.9998 127.574 72.3949 127.574 72.3949C127.574 72.3949 127.752 73.1268 128.294 74.3024C128.625 75.0205 128.992 75.9195 129.736 76.8877Z" fill="#7ECF57"/>
<path d="M140.456 65.2429C141.963 67.2034 143.157 68.3014 143.75 67.8499C144.342 67.3985 143.776 66.1286 142.27 64.1681C141.34 63.0345 140.684 62.5845 139.941 62.0537C138.963 61.355 138.294 60.7501 138.294 60.7501C138.294 60.7501 138.472 61.482 139.014 62.6576C139.345 63.3757 139.712 64.2747 140.456 65.2429Z" fill="#7ECF57"/>
<path d="M171.994 85.8936C170.571 87.1606 169.812 88.1572 170.24 88.6341C170.668 89.1109 171.634 88.6255 173.057 87.3586C173.873 86.578 174.167 86.0339 174.516 85.4164C174.976 84.6037 175.393 84.0462 175.393 84.0462C175.393 84.0462 174.821 84.2047 173.929 84.6686C173.384 84.9519 172.697 85.268 171.994 85.8936Z" fill="#72BB4F"/>
<path d="M131.903 79.1009C133.326 80.3678 134.086 81.3645 133.657 81.8413C133.229 82.3182 132.264 81.8328 130.841 80.5658C130.024 79.7853 129.731 79.2412 129.381 78.6237C128.921 77.8109 128.504 77.2534 128.504 77.2534C128.504 77.2534 129.077 77.412 129.969 77.8758C130.513 78.1591 131.201 78.4753 131.903 79.1009Z" fill="#72BB4F"/>
<path d="M142.624 67.4561C144.047 68.7231 144.806 69.7197 144.378 70.1966C143.95 70.6734 142.984 70.188 141.561 68.9211C140.744 68.1405 140.451 67.5964 140.102 66.9789C139.642 66.1662 139.225 65.6087 139.225 65.6087C139.225 65.6087 139.797 65.7672 140.689 66.2311C141.234 66.5144 141.921 66.8305 142.624 67.4561Z" fill="#72BB4F"/>
<path d="M170.868 85.516C171.401 87.5742 171.513 88.9636 170.891 89.1233C170.269 89.283 169.706 88.2262 169.173 86.168C168.896 84.9383 168.939 84.2571 168.973 83.4735C169.017 82.4422 168.961 81.6698 168.961 81.6698C168.961 81.6698 169.364 82.179 169.876 83.1693C170.189 83.7741 170.605 84.4996 170.868 85.516Z" fill="#72BB4F"/>
<path d="M133.029 78.7233C132.496 80.7815 132.384 82.1709 133.006 82.3306C133.628 82.4903 134.191 81.4334 134.724 79.3752C135.001 78.1456 134.959 77.4644 134.925 76.6808C134.88 75.6495 134.936 74.8771 134.936 74.8771C134.936 74.8771 134.533 75.3863 134.021 76.3765C133.709 76.9814 133.292 77.7069 133.029 78.7233Z" fill="#72BB4F"/>
<path d="M143.75 67.0785C143.217 69.1367 143.105 70.5261 143.727 70.6858C144.349 70.8455 144.912 69.7887 145.445 67.7305C145.722 66.5008 145.679 65.8196 145.645 65.036C145.601 64.0047 145.657 63.2323 145.657 63.2323C145.657 63.2323 145.253 63.7415 144.742 64.7318C144.429 65.3366 144.013 66.0621 143.75 67.0785Z" fill="#72BB4F"/>
<path d="M173.961 76.3117C173.177 78.2887 172.447 79.4782 171.85 79.2433C171.252 79.0084 171.421 77.824 172.204 75.8469C172.706 74.6901 173.143 74.1637 173.633 73.5497C174.278 72.7417 174.688 72.0839 174.688 72.0839C174.688 72.0839 174.714 72.7318 174.543 73.8325C174.439 74.5048 174.348 75.3354 173.961 76.3117Z" fill="#72BB4F"/>
<path d="M129.937 69.519C130.721 71.496 131.45 72.6855 132.048 72.4506C132.645 72.2157 132.477 71.0312 131.693 69.0542C131.191 67.8974 130.755 67.371 130.265 66.757C129.62 65.9489 129.209 65.2912 129.209 65.2912C129.209 65.2912 129.183 65.9391 129.354 67.0397C129.458 67.7121 129.55 68.5427 129.937 69.519Z" fill="#72BB4F"/>
<path d="M140.657 57.8742C141.441 59.8512 142.171 61.0407 142.768 60.8058C143.366 60.5709 143.197 59.3865 142.413 57.4094C141.911 56.2526 141.475 55.7262 140.985 55.1122C140.34 54.3042 139.929 53.6464 139.929 53.6464C139.929 53.6464 139.904 54.2943 140.074 55.395C140.178 56.0673 140.27 56.8979 140.657 57.8742Z" fill="#72BB4F"/>
<path d="M169.642 75.3675C170.5 77.3136 171.274 78.4748 171.863 78.2176C172.451 77.9604 172.238 76.7832 171.379 74.8371C170.834 73.6999 170.378 73.1903 169.865 72.5952C169.189 71.812 168.754 71.1702 168.754 71.1702C168.754 71.1702 168.753 71.8186 168.965 72.912C169.095 73.5799 169.218 74.4065 169.642 75.3675Z" fill="#72BB4F"/>
<path d="M134.256 68.5748C133.397 70.5209 132.623 71.6821 132.035 71.4249C131.447 71.1677 131.66 69.9904 132.518 68.0443C133.064 66.9072 133.52 66.3976 134.033 65.8025C134.708 65.0193 135.143 64.3774 135.143 64.3774C135.143 64.3774 135.144 65.0258 134.932 66.1193C134.802 66.7872 134.68 67.6138 134.256 68.5748Z" fill="#72BB4F"/>
<path d="M144.976 56.93C144.118 58.8761 143.344 60.0373 142.755 59.7801C142.167 59.5229 142.38 58.3457 143.239 56.3996C143.784 55.2624 144.24 54.7528 144.753 54.1577C145.429 53.3745 145.864 52.7327 145.864 52.7327C145.864 52.7327 145.865 53.3811 145.653 54.4745C145.523 55.1424 145.4 55.969 144.976 56.93Z" fill="#72BB4F"/>
<path d="M173.313 78.287C172.395 79.242 171.629 79.6933 171.163 79.2501C170.698 78.8068 170.997 78.0908 171.914 77.1358C172.487 76.5975 172.921 76.452 173.411 76.2732C174.056 76.0379 174.485 75.7916 174.485 75.7916C174.485 75.7916 174.42 76.2395 174.13 76.8982C173.953 77.3005 173.766 77.8154 173.313 78.287Z" fill="#7ECF57"/>
<path d="M130.585 71.4942C131.502 72.4492 132.269 72.9006 132.734 72.4573C133.2 72.014 132.901 71.2981 131.983 70.343C131.411 69.8048 130.977 69.6593 130.487 69.4804C129.842 69.2451 129.412 68.9989 129.412 68.9989C129.412 68.9989 129.478 69.4468 129.767 70.1054C129.944 70.5078 130.132 71.0226 130.585 71.4942Z" fill="#7ECF57"/>
<path d="M141.305 59.8495C142.223 60.8045 142.989 61.2558 143.455 60.8126C143.92 60.3693 143.621 59.6533 142.704 58.6983C142.131 58.16 141.697 58.0145 141.207 57.8357C140.562 57.6004 140.132 57.3541 140.132 57.3541C140.132 57.3541 140.198 57.802 140.488 58.4607C140.665 58.863 140.852 59.3779 141.305 59.8495Z" fill="#7ECF57"/>
<path d="M169.163 61.1137C169.09 65.5562 169.544 68.4345 170.887 68.4565C172.23 68.4784 172.855 66.0567 172.929 61.6142C172.888 58.9803 172.468 57.6163 172.014 56.0402C171.417 53.966 171.153 52.3688 171.153 52.3688C171.153 52.3688 170.583 53.5998 170.029 55.8614C169.69 57.2429 169.2 58.9199 169.163 61.1137Z" fill="#7ECF57"/>
<path d="M132.519 52.9046C133.925 57.1213 134.358 60.003 133.083 60.4243C131.809 60.8457 130.483 58.7216 129.077 54.5049C128.324 51.9798 128.314 50.5531 128.273 48.9141C128.219 46.757 127.991 45.1542 127.991 45.1542C127.991 45.1542 128.905 46.1588 130.114 48.1513C130.853 49.3684 131.825 50.8223 132.519 52.9046Z" fill="#72BB4F"/>
<path d="M146.017 43.2723C145.076 47.6155 143.978 50.316 142.665 50.034C141.352 49.752 141.295 47.2521 142.236 42.909C142.875 40.3529 143.595 39.1194 144.397 37.6869C145.451 35.8017 146.073 34.3061 146.073 34.3061C146.073 34.3061 146.347 35.6337 146.371 37.9615C146.386 39.3834 146.482 41.1276 146.017 43.2723Z" fill="#72BB4F"/>
<path d="M146.812 61.8704C146.943 58.0348 146.93 49.2576 146.93 49.2576C146.93 49.2576 147.09 34.8952 146.93 25.2226L146.985 1.31915L147.149 1.60145L147.283 5.88105L147.56 12.2065C147.56 12.2065 147.492 19.3663 147.568 26.3615C147.643 33.3567 147.568 50.3964 147.568 50.3964C147.568 50.3964 147.29 62.6898 147.291 74.0514C146.993 72.3138 146.812 61.8704 146.812 61.8704Z" fill="#EBECAF"/>
<path d="M165.06 74.1596C165.156 71.8097 165.147 63.7617 165.147 63.7617C165.147 63.7617 165.264 52.1425 165.148 42.0354L165.189 20.8933L165.309 22.5518L165.406 27.5603L165.609 35.6416C165.609 35.6416 165.559 41.5377 165.614 48.503C165.668 55.4683 165.613 70.2294 165.613 70.2294C165.613 70.2294 165.409 78.973 165.41 89.2552C165.192 85.1441 165.06 74.1596 165.06 74.1596Z" fill="#EBECAF"/>
<g filter="url(#filter0_f_209_120415)">
<path d="M209 198.868C209 203.691 183.256 206.146 151.5 206.146C119.744 206.146 94 203.691 94 198.868C94 194.044 119.744 190.134 151.5 190.134C183.256 190.134 209 194.044 209 198.868Z" fill="#D9D9D9"/>
</g>
<path d="M116.658 147.665C116.533 147.046 117.006 146.467 117.638 146.467H184.841C185.484 146.467 185.96 147.065 185.815 147.691L174.094 198.577C173.989 199.031 173.585 199.353 173.119 199.353H127.953C127.478 199.353 127.068 199.018 126.973 198.552L116.658 147.665Z" fill="#B4771A"/>
<path d="M116.794 148.336C116.67 147.724 116.608 147.417 116.682 147.175C116.758 146.923 116.931 146.712 117.163 146.587C117.385 146.467 117.698 146.467 118.323 146.467H184.137C184.778 146.467 185.098 146.467 185.323 146.591C185.557 146.719 185.73 146.936 185.803 147.193C185.873 147.441 185.801 147.753 185.657 148.377L174.194 198.143C174.099 198.556 174.051 198.763 173.943 198.92C173.831 199.084 173.672 199.21 173.487 199.283C173.31 199.353 173.098 199.353 172.674 199.353H128.411C127.976 199.353 127.759 199.353 127.579 199.28C127.391 199.204 127.231 199.073 127.119 198.904C127.012 198.742 126.969 198.529 126.882 198.103L116.794 148.336Z" fill="url(#paint12_linear_209_120415)"/>
<path d="M116.794 148.336C116.67 147.724 116.608 147.417 116.682 147.175C116.758 146.923 116.931 146.712 117.163 146.587C117.385 146.467 117.698 146.467 118.323 146.467H184.137C184.778 146.467 185.098 146.467 185.323 146.591C185.557 146.719 185.73 146.936 185.803 147.193C185.873 147.441 185.801 147.753 185.657 148.377L174.194 198.143C174.099 198.556 174.051 198.763 173.943 198.92C173.831 199.084 173.672 199.21 173.487 199.283C173.31 199.353 173.098 199.353 172.674 199.353H128.411C127.976 199.353 127.759 199.353 127.579 199.28C127.391 199.204 127.231 199.073 127.119 198.904C127.012 198.742 126.969 198.529 126.882 198.103L116.794 148.336Z" fill="url(#paint13_linear_209_120415)"/>
<g filter="url(#filter1_d_209_120415)">
<path d="M112.673 141.78C112.59 141.179 113.057 140.644 113.663 140.644H188.309C188.934 140.644 189.405 141.21 189.293 141.824L187.709 150.498C187.622 150.973 187.208 151.319 186.725 151.319H114.851C114.351 151.319 113.928 150.95 113.86 150.454L112.673 141.78Z" fill="url(#paint14_linear_209_120415)"/>
</g>
<path d="M144.327 41.5219C144.327 41.2924 142.684 41.1064 140.659 41.1064C138.633 41.1064 136.991 41.2924 136.991 41.5219C136.991 41.7514 138.633 41.9375 140.659 41.9375C142.684 41.9375 144.327 41.7514 144.327 41.5219Z" fill="#DBDCA8"/>
<path d="M147.248 65.8489C148.127 65.4791 149.56 65.6967 149.56 65.6967C149.56 65.6967 150.748 65.4534 151.509 65.6967L152.959 65.8489L155.524 65.6967C155.453 65.7535 155.799 64.6754 155.799 64.6754L153.458 64.8785C153.458 64.8785 152.066 64.8409 151.509 64.7263C150.953 64.6118 149.56 64.7263 149.56 64.7263C149.56 64.7263 148.276 64.2767 147.107 64.6754C147.095 65.3128 147.237 65.5158 147.248 65.8489Z" fill="#EBECAF"/>
<path d="M155.826 33.5656C155.826 33.34 153.901 33.1571 151.526 33.1571C149.152 33.1571 147.099 33.34 147.099 33.5656C147.099 33.7912 149.152 33.9741 151.526 33.9741C153.901 33.9741 155.826 33.7912 155.826 33.5656Z" fill="#DBDCA8"/>
<path d="M165.631 82.4207C165.631 82.6887 163.348 82.9059 161.733 82.9059C160.118 82.9059 158.809 82.6887 158.809 82.4207C158.809 82.1528 160.118 81.9355 161.733 81.9355C163.348 81.9355 165.631 82.1528 165.631 82.4207Z" fill="#DBDCA8"/>
<defs>
<filter id="filter0_f_209_120415" x="90" y="186.134" width="123" height="24.0115" filterUnits="userSpaceOnUse" color-interpolation-filters="sRGB">
<feFlood flood-opacity="0" result="BackgroundImageFix"/>
<feBlend mode="normal" in="SourceGraphic" in2="BackgroundImageFix" result="shape"/>
<feGaussianBlur stdDeviation="2" result="effect1_foregroundBlur_209_120415"/>
</filter>
<filter id="filter1_d_209_120415" x="108.663" y="140.644" width="84.6465" height="18.6743" filterUnits="userSpaceOnUse" color-interpolation-filters="sRGB">
<feFlood flood-opacity="0" result="BackgroundImageFix"/>
<feColorMatrix in="SourceAlpha" type="matrix" values="0 0 0 0 0 0 0 0 0 0 0 0 0 0 0 0 0 0 127 0" result="hardAlpha"/>
<feOffset dy="4"/>
<feGaussianBlur stdDeviation="2"/>
<feComposite in2="hardAlpha" operator="out"/>
<feColorMatrix type="matrix" values="0 0 0 0 0 0 0 0 0 0 0 0 0 0 0 0 0 0 0.25 0"/>
<feBlend mode="normal" in2="BackgroundImageFix" result="effect1_dropShadow_209_120415"/>
<feBlend mode="normal" in="SourceGraphic" in2="effect1_dropShadow_209_120415" result="shape"/>
</filter>
<linearGradient id="paint0_linear_209_120415" x1="162.258" y1="131.911" x2="162.258" y2="134.822" gradientUnits="userSpaceOnUse">
<stop stop-color="#326B2D"/>
<stop offset="1" stop-color="#326B2D" stop-opacity="0"/>
</linearGradient>
<linearGradient id="paint1_linear_209_120415" x1="162.258" y1="82.4209" x2="162.258" y2="85.3321" gradientUnits="userSpaceOnUse">
<stop stop-color="#326B2D"/>
<stop offset="1" stop-color="#326B2D" stop-opacity="0"/>
</linearGradient>
<linearGradient id="paint2_linear_209_120415" x1="162.258" y1="98.9175" x2="162.258" y2="101.829" gradientUnits="userSpaceOnUse">
<stop stop-color="#326B2D"/>
<stop offset="1" stop-color="#326B2D" stop-opacity="0"/>
</linearGradient>
<linearGradient id="paint3_linear_209_120415" x1="162.258" y1="115.414" x2="162.258" y2="118.325" gradientUnits="userSpaceOnUse">
<stop stop-color="#326B2D"/>
<stop offset="1" stop-color="#326B2D" stop-opacity="0"/>
</linearGradient>
<linearGradient id="paint4_linear_209_120415" x1="151.417" y1="125.188" x2="151.417" y2="128.732" gradientUnits="userSpaceOnUse">
<stop stop-color="#326B2D"/>
<stop offset="1" stop-color="#326B2D" stop-opacity="0"/>
</linearGradient>
<linearGradient id="paint5_linear_209_120415" x1="151.417" y1="64.9539" x2="151.417" y2="68.4971" gradientUnits="userSpaceOnUse">
<stop stop-color="#326B2D"/>
<stop offset="1" stop-color="#326B2D" stop-opacity="0"/>
</linearGradient>
<linearGradient id="paint6_linear_209_120415" x1="151.417" y1="85.032" x2="151.417" y2="88.5752" gradientUnits="userSpaceOnUse">
<stop stop-color="#326B2D"/>
<stop offset="1" stop-color="#326B2D" stop-opacity="0"/>
</linearGradient>
<linearGradient id="paint7_linear_209_120415" x1="151.417" y1="105.11" x2="151.417" y2="108.654" gradientUnits="userSpaceOnUse">
<stop stop-color="#326B2D"/>
<stop offset="1" stop-color="#326B2D" stop-opacity="0"/>
</linearGradient>
<linearGradient id="paint8_linear_209_120415" x1="140.805" y1="125.118" x2="140.805" y2="128.029" gradientUnits="userSpaceOnUse">
<stop stop-color="#326B2D"/>
<stop offset="1" stop-color="#326B2D" stop-opacity="0"/>
</linearGradient>
<linearGradient id="paint9_linear_209_120415" x1="140.805" y1="75.6282" x2="140.805" y2="78.5394" gradientUnits="userSpaceOnUse">
<stop stop-color="#326B2D"/>
<stop offset="1" stop-color="#326B2D" stop-opacity="0"/>
</linearGradient>
<linearGradient id="paint10_linear_209_120415" x1="140.805" y1="92.1248" x2="140.805" y2="95.0359" gradientUnits="userSpaceOnUse">
<stop stop-color="#326B2D"/>
<stop offset="1" stop-color="#326B2D" stop-opacity="0"/>
</linearGradient>
<linearGradient id="paint11_linear_209_120415" x1="140.804" y1="108.621" x2="140.804" y2="111.533" gradientUnits="userSpaceOnUse">
<stop stop-color="#326B2D"/>
<stop offset="1" stop-color="#326B2D" stop-opacity="0"/>
</linearGradient>
<linearGradient id="paint12_linear_209_120415" x1="151.5" y1="177.519" x2="172.921" y2="184.853" gradientUnits="userSpaceOnUse">
<stop stop-color="#A8690A" stop-opacity="0.81"/>
<stop offset="0.939762" stop-color="#6D4303"/>
</linearGradient>
<linearGradient id="paint13_linear_209_120415" x1="153.936" y1="177.519" x2="128.136" y2="186.808" gradientUnits="userSpaceOnUse">
<stop stop-color="#C28427" stop-opacity="0.4"/>
<stop offset="1" stop-color="#885508"/>
</linearGradient>
<linearGradient id="paint14_linear_209_120415" x1="112.517" y1="140.644" x2="189.508" y2="140.644" gradientUnits="userSpaceOnUse">
<stop offset="0.00865841" stop-color="#744704"/>
<stop offset="0.510756" stop-color="#CD851A"/>
<stop offset="1" stop-color="#724603"/>
</linearGradient>
</defs>
</svg>
