<svg width="303" height="211" viewBox="0 0 303 211" fill="none" xmlns="http://www.w3.org/2000/svg">
<path d="M97.3742 99.7171C106.228 102.131 112.562 102.016 114.202 97.5346C115.842 93.0534 111.712 89.7785 102.858 87.3649C97.5083 86.2145 94.2634 86.9545 90.5519 87.703C85.6674 88.6881 82.138 88.7943 82.138 88.7943C82.138 88.7943 83.9384 91.3011 87.8314 94.2593C90.2093 96.0663 93.0018 98.5253 97.3742 99.7171Z" fill="#05441E"/>
<path d="M85.8855 90.4951C85.8855 90.4951 108.924 95.4204 121.416 98.9471C133.907 102.474 151.955 128.112 151.955 128.112" stroke="#3BAA06" stroke-width="2" stroke-linecap="round"/>
<path d="M104.307 87.9635C108.789 89.9839 110.568 92.0128 112.419 95.9459" stroke="#3BAA06" stroke-width="0.5" stroke-linecap="round"/>
<path d="M103.163 100.817C108.251 100.794 108.559 98.5908 112.391 95.8442" stroke="#3BAA06" stroke-width="0.5" stroke-linecap="round"/>
<path d="M99.2193 87.0307C103.356 88.8955 104.324 90.6574 106.033 94.2875" stroke="#3BAA06" stroke-width="0.5" stroke-linecap="round"/>
<path d="M96.2907 99.2399C100.986 99.2189 102.286 97.3331 105.823 94.798" stroke="#3BAA06" stroke-width="0.5" stroke-linecap="round"/>
<path d="M94.8348 87.0556C98.6665 88.4693 99.5287 90.3445 101.076 93.5659" stroke="#3BAA06" stroke-width="0.5" stroke-linecap="round"/>
<path d="M92.7016 97.5418C96.8761 97.7994 97.8753 95.7241 101.041 93.4866" stroke="#3BAA06" stroke-width="0.5" stroke-linecap="round"/>
<path d="M89.2435 88.098C91.7646 89.0367 92.813 90.0727 93.9744 92.1357" stroke="#3BAA06" stroke-width="0.5" stroke-linecap="round"/>
<path d="M87.4778 93.7458C90.2292 93.9078 91.7907 93.3237 93.9687 91.9578" stroke="#3BAA06" stroke-width="0.5" stroke-linecap="round"/>
<path d="M91.524 87.6363C94.4356 88.8161 95.6804 90.0373 97.1076 92.4262" stroke="#3BAA06" stroke-width="0.5" stroke-linecap="round"/>
<path d="M89.3015 95.2085C92.5324 95.311 94.3039 94.4824 96.8988 92.9333" stroke="#3BAA06" stroke-width="0.5" stroke-linecap="round"/>
<path d="M86.7887 88.4718C88.5356 88.9464 89.1994 89.6186 89.846 91.0364" stroke="#3BAA06" stroke-width="0.5" stroke-linecap="round"/>
<path d="M85.6541 92.2832C87.4623 92.5507 88.3448 92.304 89.7077 91.3058" stroke="#3BAA06" stroke-width="0.5" stroke-linecap="round"/>
<path d="M200.706 115.579C191.716 118.238 185.346 118.305 183.843 113.884C182.339 109.462 186.604 106.079 195.594 103.419C201.015 102.119 204.256 102.764 207.966 103.405C212.85 104.247 216.398 104.252 216.398 104.252C216.398 104.252 214.504 106.803 210.489 109.864C208.036 111.734 205.145 114.265 200.706 115.579Z" fill="#05441E"/>
<path d="M212.303 106.137C212.303 106.137 187.15 111.402 174.091 116.374C161.031 121.346 159.066 147.174 159.066 147.174" stroke="#3BAA06" stroke-width="2" stroke-linecap="round"/>
<path d="M194.115 104.058C189.538 106.2 187.681 108.274 185.689 112.249" stroke="#3BAA06" stroke-width="0.5" stroke-linecap="round"/>
<path d="M194.843 116.841C189.725 116.964 189.486 114.775 185.72 112.146" stroke="#3BAA06" stroke-width="0.5" stroke-linecap="round"/>
<path d="M199.266 102.982C195.042 104.96 194.009 106.744 192.17 110.412" stroke="#3BAA06" stroke-width="0.5" stroke-linecap="round"/>
<path d="M201.812 115.072C197.087 115.185 195.841 113.342 192.365 110.915" stroke="#3BAA06" stroke-width="0.5" stroke-linecap="round"/>
<path d="M203.677 102.881C199.775 104.401 198.846 106.295 197.183 109.551" stroke="#3BAA06" stroke-width="0.5" stroke-linecap="round"/>
<path d="M205.48 113.276C201.27 113.652 200.333 111.611 197.22 109.471" stroke="#3BAA06" stroke-width="0.5" stroke-linecap="round"/>
<path d="M209.27 103.761C206.702 104.769 205.613 105.832 204.376 107.922" stroke="#3BAA06" stroke-width="0.5" stroke-linecap="round"/>
<path d="M210.861 109.342C208.087 109.582 206.535 109.044 204.388 107.745" stroke="#3BAA06" stroke-width="0.5" stroke-linecap="round"/>
<path d="M206.99 103.366C204.021 104.625 202.729 105.879 201.214 108.301" stroke="#3BAA06" stroke-width="0.5" stroke-linecap="round"/>
<path d="M208.978 110.852C205.723 111.047 203.968 110.271 201.407 108.801" stroke="#3BAA06" stroke-width="0.5" stroke-linecap="round"/>
<path d="M211.728 104.063C209.954 104.587 209.264 105.276 208.567 106.708" stroke="#3BAA06" stroke-width="0.5" stroke-linecap="round"/>
<path d="M212.745 107.831C210.916 108.15 210.036 107.929 208.697 106.973" stroke="#3BAA06" stroke-width="0.5" stroke-linecap="round"/>
<path d="M205.309 106.425C196.319 109.084 189.95 109.151 188.446 104.73C186.942 100.309 191.207 96.9251 200.197 94.2654C205.618 92.9654 208.859 93.6106 212.57 94.2507C217.453 95.0932 221.001 95.0982 221.001 95.0982C221.001 95.0982 219.107 97.6491 215.092 100.71C212.64 102.58 209.748 105.111 205.309 106.425Z" fill="#05441E"/>
<path d="M216.906 96.9828C216.906 96.9828 191.754 102.248 178.694 107.22C165.634 112.193 163.669 138.02 163.669 138.02" stroke="#3BAA06" stroke-width="2" stroke-linecap="round"/>
<path d="M198.718 94.9037C194.142 97.0463 192.284 99.1201 190.292 103.095" stroke="#3BAA06" stroke-width="0.5" stroke-linecap="round"/>
<path d="M199.447 107.687C194.328 107.81 194.09 105.622 190.324 102.993" stroke="#3BAA06" stroke-width="0.5" stroke-linecap="round"/>
<path d="M203.869 93.8282C199.645 95.8057 198.613 97.5902 196.774 101.259" stroke="#3BAA06" stroke-width="0.5" stroke-linecap="round"/>
<path d="M206.415 105.918C201.69 106.031 200.444 104.188 196.968 101.762" stroke="#3BAA06" stroke-width="0.5" stroke-linecap="round"/>
<path d="M208.281 93.7276C204.378 95.2467 203.449 97.141 201.786 100.397" stroke="#3BAA06" stroke-width="0.5" stroke-linecap="round"/>
<path d="M210.083 104.122C205.873 104.498 204.936 102.458 201.824 100.317" stroke="#3BAA06" stroke-width="0.5" stroke-linecap="round"/>
<path d="M213.873 94.6071C211.305 95.6151 210.216 96.678 208.98 98.7682" stroke="#3BAA06" stroke-width="0.5" stroke-linecap="round"/>
<path d="M215.465 100.188C212.69 100.428 211.138 99.8903 208.991 98.5907" stroke="#3BAA06" stroke-width="0.5" stroke-linecap="round"/>
<path d="M211.594 94.2119C208.625 95.4715 207.332 96.7248 205.817 99.1474" stroke="#3BAA06" stroke-width="0.5" stroke-linecap="round"/>
<path d="M213.581 101.698C210.326 101.893 208.571 101.117 206.01 99.6471" stroke="#3BAA06" stroke-width="0.5" stroke-linecap="round"/>
<path d="M216.331 94.9095C214.558 95.4327 213.868 96.1219 213.17 97.554" stroke="#3BAA06" stroke-width="0.5" stroke-linecap="round"/>
<path d="M217.348 98.6774C215.519 98.9959 214.639 98.7751 213.301 97.8188" stroke="#3BAA06" stroke-width="0.5" stroke-linecap="round"/>
<path d="M212.921 92.5006C205.23 97.5928 199.186 99.4695 196.308 95.6874C193.429 91.9052 195.437 89.1191 203.128 84.0269C207.865 81.2456 212.595 80.5544 216.338 80.1076C221.264 79.5197 224.157 77.2472 224.157 77.2472C224.157 77.2472 223.188 80.2156 220.366 84.2735C218.643 86.7521 216.718 89.9861 212.921 92.5006Z" fill="#05441E"/>
<path d="M200.787 86.4115C197.13 89.7548 197.655 89.8747 197.058 94.2268" stroke="#3BAA06" stroke-width="0.5" stroke-linecap="round"/>
<path d="M207.475 95.3622C202.64 96.9365 201.502 95.5518 197.055 94.1205" stroke="#3BAA06" stroke-width="0.5" stroke-linecap="round"/>
<path d="M206.272 82.6657C202.897 85.7514 203.181 86.6162 202.63 90.633" stroke="#3BAA06" stroke-width="0.5" stroke-linecap="round"/>
<path d="M212.404 92.625C207.942 94.078 207.084 92.3777 202.98 91.0566" stroke="#3BAA06" stroke-width="0.5" stroke-linecap="round"/>
<path d="M210.367 81.4415C207.148 83.9992 207.639 84.8116 207.121 88.3859" stroke="#3BAA06" stroke-width="0.5" stroke-linecap="round"/>
<path d="M215.564 89.9955C211.679 91.5522 210.795 89.451 207.131 88.2989" stroke="#3BAA06" stroke-width="0.5" stroke-linecap="round"/>
<path d="M216.772 80.369C214.656 82.0601 213.932 82.444 213.438 84.7865" stroke="#3BAA06" stroke-width="0.5" stroke-linecap="round"/>
<path d="M220.078 84.2922C217.515 85.3107 215.861 85.2405 213.391 84.6142" stroke="#3BAA06" stroke-width="0.5" stroke-linecap="round"/>
<path d="M214.184 80.7217C211.769 82.7664 211.2 83.3098 210.551 86.0481" stroke="#3BAA06" stroke-width="0.5" stroke-linecap="round"/>
<path d="M218.462 86.6022C215.426 87.7142 213.818 87.1401 210.898 86.4688" stroke="#3BAA06" stroke-width="0.5" stroke-linecap="round"/>
<path d="M218.95 80.1389C217.706 81.7744 217.227 80.8749 217.032 82.4372" stroke="#3BAA06" stroke-width="0.5" stroke-linecap="round"/>
<path d="M221.378 82.3176C219.741 83.1414 218.83 83.1817 217.243 82.6521" stroke="#3BAA06" stroke-width="0.5" stroke-linecap="round"/>
<path d="M219.749 81.3462C219.749 81.3462 184.059 100.857 173.25 109.311C162.442 117.765 159.496 138.351 159.496 138.351" stroke="#3BAA06" stroke-width="2" stroke-linecap="round"/>
<path d="M100.83 91.2783C108.521 96.3704 114.565 98.2472 117.443 94.465C120.322 90.6829 118.314 87.8967 110.623 82.8046C105.886 80.0232 101.156 79.332 97.413 78.8853C92.4871 78.2973 89.5937 76.0249 89.5937 76.0249C89.5937 76.0249 90.5627 78.9933 93.3844 83.0511C95.108 85.5298 97.0326 88.7637 100.83 91.2783Z" fill="#05441E"/>
<path d="M112.964 85.1892C116.621 88.5325 116.096 88.6524 116.692 93.0045" stroke="#3BAA06" stroke-width="0.5" stroke-linecap="round"/>
<path d="M106.276 94.1398C111.111 95.7141 112.249 94.3295 116.696 92.8981" stroke="#3BAA06" stroke-width="0.5" stroke-linecap="round"/>
<path d="M107.479 81.4433C110.854 84.5291 110.57 85.3938 111.121 89.4107" stroke="#3BAA06" stroke-width="0.5" stroke-linecap="round"/>
<path d="M101.347 91.4026C105.809 92.8556 106.667 91.1554 110.771 89.8343" stroke="#3BAA06" stroke-width="0.5" stroke-linecap="round"/>
<path d="M103.384 80.2191C106.603 82.7769 106.112 83.5893 106.63 87.1635" stroke="#3BAA06" stroke-width="0.5" stroke-linecap="round"/>
<path d="M98.1865 88.7732C102.072 90.3299 102.956 88.2287 106.62 87.0765" stroke="#3BAA06" stroke-width="0.5" stroke-linecap="round"/>
<path d="M96.9792 79.1467C99.0948 80.8377 99.8191 81.2217 100.313 83.5641" stroke="#3BAA06" stroke-width="0.5" stroke-linecap="round"/>
<path d="M93.6725 83.0698C96.2357 84.0883 97.8899 84.0182 100.36 83.3918" stroke="#3BAA06" stroke-width="0.5" stroke-linecap="round"/>
<path d="M99.5674 79.4993C101.982 81.544 102.551 82.0874 103.2 84.8256" stroke="#3BAA06" stroke-width="0.5" stroke-linecap="round"/>
<path d="M95.2887 85.3799C98.3245 86.4918 99.9331 85.9177 102.852 85.2464" stroke="#3BAA06" stroke-width="0.5" stroke-linecap="round"/>
<path d="M94.8005 78.9165C96.0447 80.5519 96.5236 79.6525 96.719 81.2148" stroke="#3BAA06" stroke-width="0.5" stroke-linecap="round"/>
<path d="M92.3733 81.0952C94.0104 81.9191 94.9206 81.9594 96.5085 81.4298" stroke="#3BAA06" stroke-width="0.5" stroke-linecap="round"/>
<path d="M94.002 80.1239C94.002 80.1239 129.692 99.6344 140.5 108.089C151.309 116.543 154.255 137.128 154.255 137.128" stroke="#3BAA06" stroke-width="2" stroke-linecap="round"/>
<path d="M137.553 41.2976C138.948 52.8521 142.29 60.0605 148.822 59.3742C155.354 58.6879 156.528 54.3873 155.132 42.8329C153.898 36.0288 150.461 31.0723 147.635 27.2385C143.916 22.1932 143.768 17.5318 143.768 17.5318C143.768 17.5318 141.486 21.0376 139.685 27.206C138.584 30.9738 136.863 35.5919 137.553 41.2976Z" fill="#05441E"/>
<path d="M154.676 47.0856C154.365 53.3921 153.776 53.0148 149.703 57.3974" stroke="#3BAA06" stroke-width="0.5" stroke-linecap="round"/>
<path d="M139.327 48.8239C141.923 54.6543 144.389 54.4807 149.819 57.3066" stroke="#3BAA06" stroke-width="0.5" stroke-linecap="round"/>
<path d="M153.8 38.7434C153.514 44.5641 152.35 45.0652 148.592 49.1103" stroke="#3BAA06" stroke-width="0.5" stroke-linecap="round"/>
<path d="M137.876 41.8818C140.272 47.263 142.825 46.5538 147.836 49.1621" stroke="#3BAA06" stroke-width="0.5" stroke-linecap="round"/>
<path d="M151.486 33.9014C151.62 39.1135 150.329 39.3779 147.009 43.0029" stroke="#3BAA06" stroke-width="0.5" stroke-linecap="round"/>
<path d="M137.87 36.6607C139.649 41.6034 142.647 40.5645 147.093 42.9173" stroke="#3BAA06" stroke-width="0.5" stroke-linecap="round"/>
<path d="M146.977 27.0701C147.054 30.5044 147.286 31.5083 145.246 34.0256" stroke="#3BAA06" stroke-width="0.5" stroke-linecap="round"/>
<path d="M139.919 27.4871C141.101 30.7403 142.632 32.1988 145.47 33.917" stroke="#3BAA06" stroke-width="0.5" stroke-linecap="round"/>
<path d="M148.884 29.7595C148.852 33.7805 148.778 34.7815 146.458 37.7911" stroke="#3BAA06" stroke-width="0.5" stroke-linecap="round"/>
<path d="M138.902 31.0078C140.402 34.7777 142.425 35.7503 145.707 37.8422" stroke="#3BAA06" stroke-width="0.5" stroke-linecap="round"/>
<path d="M145.3 24.8649C144.669 27.4492 146.041 27.0971 144.562 28.653" stroke="#3BAA06" stroke-width="0.5" stroke-linecap="round"/>
<path d="M140.86 24.5534C141.432 26.7839 142.191 27.6559 144.15 28.6488" stroke="#3BAA06" stroke-width="0.5" stroke-linecap="round"/>
<path d="M143.409 25.6719C143.409 25.6719 153.26 68.8059 155.516 85.9801C158.104 105.676 155.402 138.913 155.402 138.913" stroke="#3BAA06" stroke-width="2" stroke-linecap="round"/>
<path d="M142.126 70.1223C143.171 78.7715 145.672 84.1674 150.562 83.6536C155.451 83.1399 156.33 79.9207 155.285 71.2715C154.361 66.1782 151.788 62.468 149.673 59.5982C146.89 55.8214 146.779 52.3321 146.779 52.3321C146.779 52.3321 145.07 54.9564 143.722 59.5738C142.898 62.3943 141.61 65.8512 142.126 70.1223Z" fill="#05441E"/>
<path d="M154.944 74.4548C154.711 79.1756 154.27 78.8932 151.222 82.1738" stroke="#3BAA06" stroke-width="0.5" stroke-linecap="round"/>
<path d="M143.454 75.7561C145.397 80.1204 147.243 79.9905 151.308 82.1058" stroke="#3BAA06" stroke-width="0.5" stroke-linecap="round"/>
<path d="M154.288 68.2103C154.074 72.5674 153.203 72.9425 150.389 75.9705" stroke="#3BAA06" stroke-width="0.5" stroke-linecap="round"/>
<path d="M142.368 70.5595C144.162 74.5877 146.072 74.0568 149.824 76.0092" stroke="#3BAA06" stroke-width="0.5" stroke-linecap="round"/>
<path d="M152.556 64.5857C152.656 68.4873 151.69 68.6852 149.205 71.3987" stroke="#3BAA06" stroke-width="0.5" stroke-linecap="round"/>
<path d="M142.363 66.6512C143.695 70.3511 145.939 69.5735 149.267 71.3347" stroke="#3BAA06" stroke-width="0.5" stroke-linecap="round"/>
<path d="M149.18 59.4721C149.238 62.0428 149.412 62.7943 147.885 64.6787" stroke="#3BAA06" stroke-width="0.5" stroke-linecap="round"/>
<path d="M143.897 59.7842C144.782 62.2195 145.928 63.3112 148.052 64.5974" stroke="#3BAA06" stroke-width="0.5" stroke-linecap="round"/>
<path d="M150.608 61.4853C150.584 64.4952 150.529 65.2445 148.792 67.4974" stroke="#3BAA06" stroke-width="0.5" stroke-linecap="round"/>
<path d="M143.136 62.4197C144.259 65.2417 145.773 65.9698 148.23 67.5356" stroke="#3BAA06" stroke-width="0.5" stroke-linecap="round"/>
<path d="M147.926 57.8214C147.453 59.7559 148.48 59.4923 147.373 60.657" stroke="#3BAA06" stroke-width="0.5" stroke-linecap="round"/>
<path d="M144.602 57.5883C145.03 59.2579 145.598 59.9107 147.064 60.6539" stroke="#3BAA06" stroke-width="0.5" stroke-linecap="round"/>
<path d="M146.51 58.4255C146.51 58.4255 153.883 90.7138 155.572 103.57C157.509 118.314 155.487 143.193 155.487 143.193" stroke="#3BAA06" stroke-width="2" stroke-linecap="round"/>
<path d="M104.954 111.433C113.365 115.13 119.581 115.973 121.67 111.836C123.76 107.7 121.293 105.321 112.881 101.624C107.766 99.6912 103.047 99.7862 99.3311 99.9586C94.4409 100.185 91.2099 98.4484 91.2099 98.4484C91.2099 98.4484 92.7028 101.172 96.1965 104.654C98.3305 106.78 100.8 109.608 104.954 111.433Z" fill="#05441E"/>
<path d="M115.597 103.559C119.769 106.212 119.281 106.413 120.67 110.54" stroke="#3BAA06" stroke-width="0.5" stroke-linecap="round"/>
<path d="M110.772 113.329C115.757 114.074 116.604 112.546 120.653 110.437" stroke="#3BAA06" stroke-width="0.5" stroke-linecap="round"/>
<path d="M109.576 100.812C113.426 103.26 113.312 104.145 114.594 107.955" stroke="#3BAA06" stroke-width="0.5" stroke-linecap="round"/>
<path d="M105.478 111.47C110.079 112.158 110.596 110.369 114.333 108.422" stroke="#3BAA06" stroke-width="0.5" stroke-linecap="round"/>
<path d="M105.374 100.286C108.974 102.248 108.649 103.116 109.817 106.501" stroke="#3BAA06" stroke-width="0.5" stroke-linecap="round"/>
<path d="M101.922 109.43C105.983 110.312 106.449 108.129 109.791 106.418" stroke="#3BAA06" stroke-width="0.5" stroke-linecap="round"/>
<path d="M98.9587 100.283C101.327 101.581 102.101 101.837 103.016 104.03" stroke="#3BAA06" stroke-width="0.5" stroke-linecap="round"/>
<path d="M96.4794 104.625C99.1566 105.199 100.749 104.863 103.029 103.855" stroke="#3BAA06" stroke-width="0.5" stroke-linecap="round"/>
<path d="M101.536 100.206C104.261 101.799 104.913 102.235 106.053 104.787" stroke="#3BAA06" stroke-width="0.5" stroke-linecap="round"/>
<path d="M98.478 106.606C101.631 107.193 103.086 106.376 105.794 105.252" stroke="#3BAA06" stroke-width="0.5" stroke-linecap="round"/>
<path d="M96.8015 100.412C98.3133 101.798 98.6108 100.847 99.0911 102.332" stroke="#3BAA06" stroke-width="0.5" stroke-linecap="round"/>
<path d="M94.8512 102.919C96.5934 103.454 97.4842 103.346 98.9268 102.575" stroke="#3BAA06" stroke-width="0.5" stroke-linecap="round"/>
<path d="M96.6103 101.848C96.6103 101.848 124.862 112.24 137.436 117.628C151.856 123.806 147.326 138.884 147.326 138.884" stroke="#3BAA06" stroke-width="2" stroke-linecap="round"/>
<path d="M208.904 73.5774C200.55 81.9716 193.38 85.8599 188.635 81.7516C183.89 77.6433 186.392 71.2579 194.746 62.8637C199.992 58.1459 204.108 56.9365 208.752 55.4405C214.863 53.4718 218.886 51.3534 218.886 51.3534C218.886 51.3534 218.495 55.3769 216.054 61.2476C214.562 64.8337 213.029 69.4322 208.904 73.5774Z" fill="#05441E"/>
<path d="M215.544 55.9393C215.544 55.9393 193.33 73.1908 181.957 86.6412C170.271 100.463 157.256 139.554 157.256 139.554" stroke="#3BAA06" stroke-width="2" stroke-linecap="round"/>
<path d="M193.51 64.4717C189.8 69.6383 189.123 73.0994 189.601 78.7944" stroke="#3BAA06" stroke-width="0.5" stroke-linecap="round"/>
<path d="M203.132 78.5164C197.417 81.7198 195.642 79.3834 189.567 78.6597" stroke="#3BAA06" stroke-width="0.5" stroke-linecap="round"/>
<path d="M198.605 60.1702C195.181 64.9388 195.239 67.5782 195.68 72.8345" stroke="#3BAA06" stroke-width="0.5" stroke-linecap="round"/>
<path d="M209.808 72.3412C204.534 75.2978 201.854 73.9559 196.247 73.2879" stroke="#3BAA06" stroke-width="0.5" stroke-linecap="round"/>
<path d="M203.533 57.4154C200.158 61.4724 200.409 64.1745 200.765 68.8586" stroke="#3BAA06" stroke-width="0.5" stroke-linecap="round"/>
<path d="M212.727 68.1113C208.217 71.0574 205.751 69.3068 200.753 68.7453" stroke="#3BAA06" stroke-width="0.5" stroke-linecap="round"/>
<path d="M210.474 55.0638C208.258 57.743 207.756 59.599 207.793 62.7069" stroke="#3BAA06" stroke-width="0.5" stroke-linecap="round"/>
<path d="M216.116 60.4332C213.139 62.3659 211.011 62.6859 207.684 62.4989" stroke="#3BAA06" stroke-width="0.5" stroke-linecap="round"/>
<path d="M207.619 55.9809C205.123 59.1849 204.521 61.3786 204.472 65.0297" stroke="#3BAA06" stroke-width="0.5" stroke-linecap="round"/>
<path d="M215.022 63.2716C211.469 65.4405 208.947 65.6129 205.035 65.4799" stroke="#3BAA06" stroke-width="0.5" stroke-linecap="round"/>
<path d="M213.466 53.935C211.817 55.5894 211.51 56.7832 211.705 58.8229" stroke="#3BAA06" stroke-width="0.5" stroke-linecap="round"/>
<path d="M217.211 57.5947C215.358 59.0501 214.21 59.3268 212.035 59.0448" stroke="#3BAA06" stroke-width="0.5" stroke-linecap="round"/>
<path d="M104.847 72.355C113.201 80.7492 120.37 84.6375 125.116 80.5293C129.861 76.421 127.358 70.0355 119.005 61.6413C113.758 56.9236 109.643 55.7141 104.999 54.2182C98.8877 52.2494 94.8647 50.1311 94.8647 50.1311C94.8647 50.1311 95.2553 54.1546 97.6972 60.0253C99.1889 63.6113 100.722 68.2098 104.847 72.355Z" fill="#05441E"/>
<path d="M98.2064 54.717C98.2064 54.717 120.421 71.9686 131.793 85.4189C143.48 99.2406 156.495 138.331 156.495 138.331" stroke="#3BAA06" stroke-width="2" stroke-linecap="round"/>
<path d="M120.24 63.2494C123.95 68.416 124.627 71.8771 124.15 77.5721" stroke="#3BAA06" stroke-width="0.5" stroke-linecap="round"/>
<path d="M110.619 77.2941C116.333 80.4975 118.109 78.1611 124.184 77.4374" stroke="#3BAA06" stroke-width="0.5" stroke-linecap="round"/>
<path d="M115.146 58.9478C118.57 63.7165 118.511 66.3559 118.07 71.6122" stroke="#3BAA06" stroke-width="0.5" stroke-linecap="round"/>
<path d="M103.943 71.1189C109.217 74.0755 111.897 72.7336 117.504 72.0656" stroke="#3BAA06" stroke-width="0.5" stroke-linecap="round"/>
<path d="M110.217 56.193C113.593 60.2501 113.342 62.9522 112.985 67.6362" stroke="#3BAA06" stroke-width="0.5" stroke-linecap="round"/>
<path d="M101.024 66.8891C105.533 69.8351 107.999 68.0845 112.998 67.523" stroke="#3BAA06" stroke-width="0.5" stroke-linecap="round"/>
<path d="M103.277 53.8415C105.492 56.5206 105.995 58.3767 105.957 61.4846" stroke="#3BAA06" stroke-width="0.5" stroke-linecap="round"/>
<path d="M97.6343 59.2109C100.612 61.1436 102.74 61.4636 106.066 61.2766" stroke="#3BAA06" stroke-width="0.5" stroke-linecap="round"/>
<path d="M106.132 54.7585C108.628 57.9626 109.23 60.1562 109.279 63.8073" stroke="#3BAA06" stroke-width="0.5" stroke-linecap="round"/>
<path d="M98.7284 62.0493C102.282 64.2182 104.804 64.3906 108.716 64.2576" stroke="#3BAA06" stroke-width="0.5" stroke-linecap="round"/>
<path d="M100.284 52.7127C101.934 54.3671 102.241 55.5609 102.046 57.6006" stroke="#3BAA06" stroke-width="0.5" stroke-linecap="round"/>
<path d="M96.5402 56.3724C98.3924 57.8277 99.5411 58.1044 101.716 57.8224" stroke="#3BAA06" stroke-width="0.5" stroke-linecap="round"/>
<path d="M186.588 72.1118C181.465 83.3183 175.789 89.617 169.453 87.0977C163.118 84.5784 163.16 77.3467 168.282 66.1402C171.713 59.6568 175.366 57.0647 179.437 54.0085C184.795 49.9864 188.004 46.5156 188.004 46.5156C188.004 46.5156 189.166 50.6741 188.987 57.3701C188.877 61.4604 189.117 66.5779 186.588 72.1118Z" fill="#05441E"/>
<path d="M186.429 52.2277C186.429 52.2277 170.849 76.9528 164.656 94.2337C158.291 111.992 154.879 141.304 154.879 141.304" stroke="#3BAA06" stroke-width="2" stroke-linecap="round"/>
<path d="M167.666 68.1646C165.946 74.5816 166.604 78.2733 169.279 83.8134" stroke="#3BAA06" stroke-width="0.5" stroke-linecap="round"/>
<path d="M182.716 78.9933C178.232 84.1179 175.553 82.3752 169.193 83.6901" stroke="#3BAA06" stroke-width="0.5" stroke-linecap="round"/>
<path d="M171.106 62.1487C169.518 68.0714 170.595 70.6937 173.065 75.8071" stroke="#3BAA06" stroke-width="0.5" stroke-linecap="round"/>
<path d="M187.015 70.571C182.877 75.3009 179.677 74.8573 173.806 76.0709" stroke="#3BAA06" stroke-width="0.5" stroke-linecap="round"/>
<path d="M174.976 57.737C173.162 62.931 174.456 65.5515 176.62 70.1203" stroke="#3BAA06" stroke-width="0.5" stroke-linecap="round"/>
<path d="M188.305 65.3572C184.928 69.8199 181.784 68.8954 176.564 70.0112" stroke="#3BAA06" stroke-width="0.5" stroke-linecap="round"/>
<path d="M181.015 53.0535C179.832 56.4789 180.045 58.5053 181.282 61.6037" stroke="#3BAA06" stroke-width="0.5" stroke-linecap="round"/>
<path d="M188.736 56.5338C186.501 59.4679 184.494 60.5026 181.092 61.432" stroke="#3BAA06" stroke-width="0.5" stroke-linecap="round"/>
<path d="M178.512 54.9296C177.25 58.9746 177.493 61.3726 178.853 65.0437" stroke="#3BAA06" stroke-width="0.5" stroke-linecap="round"/>
<path d="M188.735 59.7423C186.016 63.106 183.557 64.1252 179.59 65.3053" stroke="#3BAA06" stroke-width="0.5" stroke-linecap="round"/>
<path d="M183.576 50.9189C182.563 53.1285 182.716 54.4267 183.699 56.4027" stroke="#3BAA06" stroke-width="0.5" stroke-linecap="round"/>
<path d="M188.736 53.3253C187.443 55.4038 186.4 56.0664 184.114 56.5141" stroke="#3BAA06" stroke-width="0.5" stroke-linecap="round"/>
<path d="M178.831 93.1885C174.997 101.577 170.748 106.292 166.006 104.406C161.263 102.52 161.294 97.1071 165.129 88.7184C167.697 83.8652 170.432 81.9248 173.479 79.6371C177.49 76.6263 179.892 74.0282 179.892 74.0282C179.892 74.0282 180.762 77.1411 180.627 82.1535C180.546 85.2153 180.725 89.046 178.831 93.1885Z" fill="#05441E"/>
<path d="M178.713 78.3041C178.713 78.3041 167.05 96.8123 162.414 109.748C157.65 123.041 155.096 144.983 155.096 144.983" stroke="#3BAA06" stroke-width="2" stroke-linecap="round"/>
<path d="M164.667 90.2338C163.38 95.0373 163.872 97.8008 165.875 101.948" stroke="#3BAA06" stroke-width="0.5" stroke-linecap="round"/>
<path d="M175.933 98.3398C172.577 102.176 170.571 100.871 165.81 101.856" stroke="#3BAA06" stroke-width="0.5" stroke-linecap="round"/>
<path d="M167.242 85.7305C166.054 90.164 166.86 92.127 168.709 95.9546" stroke="#3BAA06" stroke-width="0.5" stroke-linecap="round"/>
<path d="M179.152 92.0351C176.054 95.5757 173.658 95.2437 169.264 96.1521" stroke="#3BAA06" stroke-width="0.5" stroke-linecap="round"/>
<path d="M170.139 82.4281C168.782 86.3161 169.75 88.2778 171.371 91.6978" stroke="#3BAA06" stroke-width="0.5" stroke-linecap="round"/>
<path d="M180.117 88.1323C177.589 91.4728 175.236 90.7808 171.329 91.616" stroke="#3BAA06" stroke-width="0.5" stroke-linecap="round"/>
<path d="M174.66 78.9222C173.774 81.4863 173.934 83.0032 174.86 85.3225" stroke="#3BAA06" stroke-width="0.5" stroke-linecap="round"/>
<path d="M180.439 81.5275C178.767 83.7238 177.264 84.4984 174.718 85.1941" stroke="#3BAA06" stroke-width="0.5" stroke-linecap="round"/>
<path d="M172.786 80.3266C171.841 83.3546 172.024 85.1496 173.042 87.8976" stroke="#3BAA06" stroke-width="0.5" stroke-linecap="round"/>
<path d="M180.439 83.9292C178.403 86.4471 176.563 87.2101 173.594 88.0935" stroke="#3BAA06" stroke-width="0.5" stroke-linecap="round"/>
<path d="M176.577 77.3244C175.819 78.9784 175.933 79.9502 176.669 81.4293" stroke="#3BAA06" stroke-width="0.5" stroke-linecap="round"/>
<path d="M180.439 79.1257C179.472 80.6816 178.691 81.1776 176.98 81.5127" stroke="#3BAA06" stroke-width="0.5" stroke-linecap="round"/>
<path d="M183.79 101.799C179.218 107.988 174.958 111.146 171.459 108.897C167.961 106.649 168.937 102.282 173.509 96.0932C176.437 92.5664 178.986 91.4175 181.849 90.0359C185.618 88.2177 188.015 86.4868 188.015 86.4868C188.015 86.4868 188.17 89.1338 187.18 93.1615C186.576 95.6218 186.047 98.7431 183.79 101.799Z" fill="#05441E"/>
<path d="M186.311 89.7598C186.311 89.7598 173.638 102.924 167.62 112.662C161.435 122.669 155.515 140 155.515 140" stroke="#3BAA06" stroke-width="2" stroke-linecap="round"/>
<path d="M172.87 97.2465C170.986 100.929 170.898 103.236 171.786 106.892" stroke="#3BAA06" stroke-width="0.5" stroke-linecap="round"/>
<path d="M180.543 105.516C177.158 108.101 175.768 106.741 171.75 106.807" stroke="#3BAA06" stroke-width="0.5" stroke-linecap="round"/>
<path d="M175.741 94.0033C174.002 97.4022 174.308 99.1109 175.128 102.485" stroke="#3BAA06" stroke-width="0.5" stroke-linecap="round"/>
<path d="M184.251 100.917C181.127 103.302 179.251 102.668 175.542 102.729" stroke="#3BAA06" stroke-width="0.5" stroke-linecap="round"/>
<path d="M178.662 91.7793C176.882 94.7118 177.319 96.4442 178.026 99.4541" stroke="#3BAA06" stroke-width="0.5" stroke-linecap="round"/>
<path d="M185.717 97.9122C183.088 100.224 181.309 99.3047 178.007 99.3816" stroke="#3BAA06" stroke-width="0.5" stroke-linecap="round"/>
<path d="M182.929 89.6392C181.763 91.5746 181.625 92.8241 181.965 94.8388" stroke="#3BAA06" stroke-width="0.5" stroke-linecap="round"/>
<path d="M187.138 92.6271C185.401 94.1451 184.052 94.541 181.873 94.7134" stroke="#3BAA06" stroke-width="0.5" stroke-linecap="round"/>
<path d="M181.169 90.4869C179.873 92.7878 179.705 94.2654 180.044 96.6405" stroke="#3BAA06" stroke-width="0.5" stroke-linecap="round"/>
<path d="M186.716 94.5669C184.629 96.289 183.009 96.6238 180.455 96.8831" stroke="#3BAA06" stroke-width="0.5" stroke-linecap="round"/>
<path d="M184.758 88.6418C183.855 89.8617 183.777 90.6641 184.111 91.9712" stroke="#3BAA06" stroke-width="0.5" stroke-linecap="round"/>
<path d="M187.561 90.6874C186.506 91.796 185.788 92.0771 184.347 92.0861" stroke="#3BAA06" stroke-width="0.5" stroke-linecap="round"/>
<path d="M185.801 121.996C177.745 122.143 172.509 120.758 172.426 116.796C172.343 112.834 176.715 111.026 184.771 110.879C189.55 111.039 192.038 112.3 194.912 113.663C198.693 115.457 201.599 116.263 201.599 116.263C201.599 116.263 199.385 117.924 195.3 119.525C192.805 120.502 189.779 121.923 185.801 121.996Z" fill="#05441E"/>
<path d="M197.755 116.881C197.755 116.881 178.898 114.962 166.907 116.084C154.585 117.237 151.187 139.015 151.187 139.015" stroke="#3BAA06" stroke-width="2" stroke-linecap="round"/>
<path d="M183.394 111.067C179.088 111.789 177.028 113.068 174.363 115.874" stroke="#3BAA06" stroke-width="0.5" stroke-linecap="round"/>
<path d="M180.67 121.705C176.445 120.649 176.818 118.802 174.416 115.797" stroke="#3BAA06" stroke-width="0.5" stroke-linecap="round"/>
<path d="M187.893 111.35C183.919 112.016 182.61 113.245 180.15 115.834" stroke="#3BAA06" stroke-width="0.5" stroke-linecap="round"/>
<path d="M186.838 121.83C182.938 120.855 182.396 119.064 180.179 116.29" stroke="#3BAA06" stroke-width="0.5" stroke-linecap="round"/>
<path d="M191.534 112.265C187.942 112.628 186.688 113.97 184.48 116.261" stroke="#3BAA06" stroke-width="0.5" stroke-linecap="round"/>
<path d="M190.31 121.188C186.763 120.545 186.526 118.661 184.532 116.204" stroke="#3BAA06" stroke-width="0.5" stroke-linecap="round"/>
<path d="M195.887 114.249C193.521 114.495 192.353 115.12 190.797 116.553" stroke="#3BAA06" stroke-width="0.5" stroke-linecap="round"/>
<path d="M195.741 119.181C193.406 118.751 192.274 117.96 190.852 116.41" stroke="#3BAA06" stroke-width="0.5" stroke-linecap="round"/>
<path d="M194.122 113.41C191.362 113.771 189.978 114.506 188.107 116.148" stroke="#3BAA06" stroke-width="0.5" stroke-linecap="round"/>
<path d="M193.806 119.993C191.088 119.417 189.852 118.385 188.136 116.601" stroke="#3BAA06" stroke-width="0.5" stroke-linecap="round"/>
<path d="M197.822 115.053C196.233 115.081 195.489 115.489 194.546 116.505" stroke="#3BAA06" stroke-width="0.5" stroke-linecap="round"/>
<path d="M197.676 118.369C196.095 118.217 195.432 117.837 194.584 116.751" stroke="#3BAA06" stroke-width="0.5" stroke-linecap="round"/>
<path d="M118.719 92.1736C123.29 98.3621 127.551 101.52 131.049 99.2719C134.548 97.0235 133.571 92.6562 129 86.4677C126.072 82.9409 123.522 81.792 120.659 80.4104C116.891 78.5922 114.494 76.8613 114.494 76.8613C114.494 76.8613 114.339 79.5084 115.328 83.536C115.933 85.9963 116.461 89.1176 118.719 92.1736Z" fill="#05441E"/>
<path d="M116.198 80.1343C116.198 80.1343 128.87 93.2986 134.889 103.037C141.074 113.044 142.726 138.351 142.726 138.351" stroke="#3BAA06" stroke-width="2" stroke-linecap="round"/>
<path d="M129.639 87.6211C131.523 91.3037 131.611 93.6108 130.722 97.2665" stroke="#3BAA06" stroke-width="0.5" stroke-linecap="round"/>
<path d="M121.965 95.8907C125.35 98.4755 126.74 97.1153 130.758 97.182" stroke="#3BAA06" stroke-width="0.5" stroke-linecap="round"/>
<path d="M126.767 84.3779C128.506 87.7767 128.2 89.4854 127.38 92.8595" stroke="#3BAA06" stroke-width="0.5" stroke-linecap="round"/>
<path d="M118.257 91.2911C121.382 93.6768 123.258 93.0423 126.967 93.1039" stroke="#3BAA06" stroke-width="0.5" stroke-linecap="round"/>
<path d="M123.847 82.1538C125.627 85.0863 125.19 86.8187 124.482 89.8286" stroke="#3BAA06" stroke-width="0.5" stroke-linecap="round"/>
<path d="M116.791 88.2867C119.42 90.598 121.199 89.6792 124.502 89.7561" stroke="#3BAA06" stroke-width="0.5" stroke-linecap="round"/>
<path d="M119.579 80.0138C120.746 81.9491 120.883 83.1987 120.543 85.2134" stroke="#3BAA06" stroke-width="0.5" stroke-linecap="round"/>
<path d="M115.37 83.0017C117.107 84.5197 118.457 84.9155 120.635 85.088" stroke="#3BAA06" stroke-width="0.5" stroke-linecap="round"/>
<path d="M121.34 80.8614C122.635 83.1624 122.803 84.6399 122.465 87.015" stroke="#3BAA06" stroke-width="0.5" stroke-linecap="round"/>
<path d="M115.792 84.9414C117.879 86.6636 119.499 86.9984 122.053 87.2576" stroke="#3BAA06" stroke-width="0.5" stroke-linecap="round"/>
<path d="M117.751 79.0164C118.653 80.2363 118.732 81.0387 118.398 82.3458" stroke="#3BAA06" stroke-width="0.5" stroke-linecap="round"/>
<path d="M114.948 81.062C116.003 82.1706 116.721 82.4517 118.161 82.4607" stroke="#3BAA06" stroke-width="0.5" stroke-linecap="round"/>
<path d="M118.629 61.927C124.497 74.765 131 81.9808 138.257 79.0947C145.515 76.2086 145.468 67.9239 139.599 55.0859C135.668 47.6586 131.484 44.6891 126.82 41.1879C120.682 36.5802 117.005 32.6041 117.005 32.6041C117.005 32.6041 115.675 37.368 115.88 45.039C116.005 49.7247 115.731 55.5873 118.629 61.927Z" fill="#05441E"/>
<path d="M118.81 39.1478C118.81 39.1478 136.658 67.4728 143.753 87.2696C151.045 107.613 154.954 141.193 154.954 141.193" stroke="#3BAA06" stroke-width="2" stroke-linecap="round"/>
<path d="M140.305 57.4051C142.276 64.7564 141.522 68.9855 138.457 75.3323" stroke="#3BAA06" stroke-width="0.5" stroke-linecap="round"/>
<path d="M123.064 69.8103C128.201 75.681 131.27 73.6846 138.556 75.1909" stroke="#3BAA06" stroke-width="0.5" stroke-linecap="round"/>
<path d="M136.365 50.5132C138.183 57.2982 136.949 60.3023 134.12 66.1602" stroke="#3BAA06" stroke-width="0.5" stroke-linecap="round"/>
<path d="M118.138 60.1618C122.879 65.5803 126.546 65.0721 133.271 66.4624" stroke="#3BAA06" stroke-width="0.5" stroke-linecap="round"/>
<path d="M131.931 45.4592C134.008 51.4095 132.526 54.4115 130.047 59.6455" stroke="#3BAA06" stroke-width="0.5" stroke-linecap="round"/>
<path d="M116.661 54.1889C120.53 59.3013 124.131 58.2423 130.111 59.5205" stroke="#3BAA06" stroke-width="0.5" stroke-linecap="round"/>
<path d="M125.012 40.0938C126.368 44.0179 126.124 46.3394 124.707 49.8888" stroke="#3BAA06" stroke-width="0.5" stroke-linecap="round"/>
<path d="M116.168 44.0809C118.728 47.4421 121.027 48.6275 124.924 49.6922" stroke="#3BAA06" stroke-width="0.5" stroke-linecap="round"/>
<path d="M127.88 42.2431C129.326 46.8771 129.047 49.6242 127.489 53.8298" stroke="#3BAA06" stroke-width="0.5" stroke-linecap="round"/>
<path d="M116.168 47.7565C119.284 51.6099 122.1 52.7776 126.645 54.1295" stroke="#3BAA06" stroke-width="0.5" stroke-linecap="round"/>
<path d="M122.079 37.6486C123.239 40.1798 123.064 41.667 121.938 43.9308" stroke="#3BAA06" stroke-width="0.5" stroke-linecap="round"/>
<path d="M116.168 40.4053C117.649 42.7864 118.844 43.5454 121.462 44.0583" stroke="#3BAA06" stroke-width="0.5" stroke-linecap="round"/>
<path d="M185.744 39.4675C179.875 52.3055 173.372 59.5213 166.115 56.6352C158.857 53.7491 158.905 45.4645 164.773 32.6264C168.704 25.1991 172.888 22.2296 177.552 18.7284C183.69 14.1208 187.367 10.1446 187.367 10.1446C187.367 10.1446 188.697 14.9085 188.492 22.5795C188.367 27.2652 188.642 33.1279 185.744 39.4675Z" fill="#05441E"/>
<path d="M185.562 16.6884C185.562 16.6884 167.714 45.0133 160.619 64.8101C153.327 85.1535 153.046 139.955 153.046 139.955" stroke="#3BAA06" stroke-width="2" stroke-linecap="round"/>
<path d="M164.067 34.9456C162.096 42.2969 162.85 46.5261 165.915 52.8728" stroke="#3BAA06" stroke-width="0.5" stroke-linecap="round"/>
<path d="M181.308 47.3509C176.171 53.2216 173.103 51.2252 165.817 52.7315" stroke="#3BAA06" stroke-width="0.5" stroke-linecap="round"/>
<path d="M168.008 28.0538C166.189 34.8388 167.423 37.8429 170.252 43.7007" stroke="#3BAA06" stroke-width="0.5" stroke-linecap="round"/>
<path d="M186.234 37.7023C181.493 43.1208 177.827 42.6127 171.102 44.0029" stroke="#3BAA06" stroke-width="0.5" stroke-linecap="round"/>
<path d="M172.441 22.9998C170.364 28.9501 171.846 31.9521 174.325 37.1861" stroke="#3BAA06" stroke-width="0.5" stroke-linecap="round"/>
<path d="M187.712 31.7294C183.843 36.8419 180.241 35.7828 174.261 37.061" stroke="#3BAA06" stroke-width="0.5" stroke-linecap="round"/>
<path d="M179.36 17.6343C178.004 21.5584 178.248 23.8799 179.665 27.4294" stroke="#3BAA06" stroke-width="0.5" stroke-linecap="round"/>
<path d="M188.204 21.6215C185.644 24.9827 183.345 26.1681 179.448 27.2328" stroke="#3BAA06" stroke-width="0.5" stroke-linecap="round"/>
<path d="M176.492 19.7836C175.046 24.4176 175.325 27.1647 176.883 31.3703" stroke="#3BAA06" stroke-width="0.5" stroke-linecap="round"/>
<path d="M188.204 25.2971C185.088 29.1504 182.272 30.3181 177.727 31.67" stroke="#3BAA06" stroke-width="0.5" stroke-linecap="round"/>
<path d="M182.293 15.1891C181.133 17.7203 181.308 19.2075 182.434 21.4713" stroke="#3BAA06" stroke-width="0.5" stroke-linecap="round"/>
<path d="M188.204 17.9458C186.723 20.3269 185.529 21.0859 182.91 21.5989" stroke="#3BAA06" stroke-width="0.5" stroke-linecap="round"/>
<path d="M178.199 68.7522C173.806 78.3623 168.939 83.7637 163.506 81.6033C158.073 79.4428 158.109 73.2413 162.502 63.6313C165.444 58.0715 168.577 55.8487 172.068 53.2278C176.662 49.7787 179.414 46.8023 179.414 46.8023C179.414 46.8023 180.41 50.3684 180.257 56.1106C180.163 59.6181 180.369 64.0067 178.199 68.7522Z" fill="#05441E"/>
<path d="M178.063 51.7007C178.063 51.7007 164.703 72.9036 159.392 87.7227C153.934 102.951 153.724 143.973 153.724 143.973" stroke="#3BAA06" stroke-width="2" stroke-linecap="round"/>
<path d="M161.973 65.3673C160.498 70.8702 161.062 74.036 163.357 78.7869" stroke="#3BAA06" stroke-width="0.5" stroke-linecap="round"/>
<path d="M174.879 74.6534C171.034 79.048 168.737 77.5536 163.283 78.6811" stroke="#3BAA06" stroke-width="0.5" stroke-linecap="round"/>
<path d="M164.923 60.2084C163.562 65.2874 164.485 67.5361 166.603 71.9211" stroke="#3BAA06" stroke-width="0.5" stroke-linecap="round"/>
<path d="M178.566 67.4309C175.017 71.487 172.273 71.1066 167.239 72.1473" stroke="#3BAA06" stroke-width="0.5" stroke-linecap="round"/>
<path d="M168.242 56.4252C166.687 60.8793 167.796 63.1265 169.652 67.0445" stroke="#3BAA06" stroke-width="0.5" stroke-linecap="round"/>
<path d="M179.673 62.9599C176.776 66.7868 174.08 65.994 169.604 66.9508" stroke="#3BAA06" stroke-width="0.5" stroke-linecap="round"/>
<path d="M173.421 52.4088C172.406 55.3462 172.589 57.084 173.649 59.741" stroke="#3BAA06" stroke-width="0.5" stroke-linecap="round"/>
<path d="M180.041 55.3934C178.125 57.9094 176.404 58.7968 173.487 59.5938" stroke="#3BAA06" stroke-width="0.5" stroke-linecap="round"/>
<path d="M171.274 54.0177C170.192 57.4865 170.401 59.5429 171.567 62.691" stroke="#3BAA06" stroke-width="0.5" stroke-linecap="round"/>
<path d="M180.041 58.1448C177.709 61.0293 175.601 61.9034 172.199 62.9153" stroke="#3BAA06" stroke-width="0.5" stroke-linecap="round"/>
<path d="M175.616 50.5784C174.748 52.4732 174.879 53.5865 175.722 55.281" stroke="#3BAA06" stroke-width="0.5" stroke-linecap="round"/>
<path d="M180.041 52.642C178.933 54.4244 178.038 54.9925 176.078 55.3765" stroke="#3BAA06" stroke-width="0.5" stroke-linecap="round"/>
<path d="M123.567 107.452C129.315 109.153 133.388 109.195 134.35 106.368C135.311 103.541 132.584 101.377 126.836 99.6766C123.369 98.8453 121.296 99.2579 118.924 99.6672C115.801 100.206 113.532 100.209 113.532 100.209C113.532 100.209 114.743 101.84 117.311 103.798C118.879 104.993 120.728 106.612 123.567 107.452Z" fill="#05441E"/>
<path d="M116.151 101.414C116.151 101.414 132.235 104.781 140.586 107.961C148.937 111.14 152.135 148.226 152.135 148.226" stroke="#3BAA06" stroke-width="2" stroke-linecap="round"/>
<path d="M127.781 100.085C130.708 101.455 131.895 102.781 133.169 105.323" stroke="#3BAA06" stroke-width="0.5" stroke-linecap="round"/>
<path d="M127.315 108.259C130.589 108.338 130.741 106.938 133.149 105.257" stroke="#3BAA06" stroke-width="0.5" stroke-linecap="round"/>
<path d="M124.487 99.3971C127.188 100.662 127.849 101.803 129.025 104.149" stroke="#3BAA06" stroke-width="0.5" stroke-linecap="round"/>
<path d="M122.859 107.128C125.881 107.2 126.678 106.022 128.9 104.47" stroke="#3BAA06" stroke-width="0.5" stroke-linecap="round"/>
<path d="M121.666 99.3328C124.162 100.304 124.756 101.516 125.82 103.598" stroke="#3BAA06" stroke-width="0.5" stroke-linecap="round"/>
<path d="M120.514 105.98C123.206 106.22 123.805 104.915 125.795 103.547" stroke="#3BAA06" stroke-width="0.5" stroke-linecap="round"/>
<path d="M118.09 99.8951C119.732 100.54 120.429 101.219 121.219 102.556" stroke="#3BAA06" stroke-width="0.5" stroke-linecap="round"/>
<path d="M117.073 103.464C118.847 103.617 119.839 103.274 121.212 102.443" stroke="#3BAA06" stroke-width="0.5" stroke-linecap="round"/>
<path d="M119.548 99.6425C121.446 100.448 122.273 101.249 123.242 102.799" stroke="#3BAA06" stroke-width="0.5" stroke-linecap="round"/>
<path d="M118.277 104.43C120.358 104.554 121.481 104.058 123.118 103.118" stroke="#3BAA06" stroke-width="0.5" stroke-linecap="round"/>
<path d="M116.518 100.089C117.652 100.423 118.094 100.864 118.54 101.78" stroke="#3BAA06" stroke-width="0.5" stroke-linecap="round"/>
<path d="M115.868 102.498C117.037 102.702 117.6 102.56 118.456 101.949" stroke="#3BAA06" stroke-width="0.5" stroke-linecap="round"/>
<path d="M125.883 125.405C131.261 127.769 135.236 128.309 136.572 125.663C137.909 123.018 136.331 121.497 130.952 119.133C127.681 117.897 124.663 117.958 122.287 118.068C119.16 118.213 117.094 117.102 117.094 117.102C117.094 117.102 118.048 118.844 120.283 121.07C121.647 122.43 123.227 124.238 125.883 125.405Z" fill="#05441E"/>
<path d="M132.689 120.37C135.356 122.066 135.044 122.195 135.932 124.835" stroke="#3BAA06" stroke-width="0.5" stroke-linecap="round"/>
<path d="M129.603 126.618C132.791 127.094 133.332 126.117 135.922 124.768" stroke="#3BAA06" stroke-width="0.5" stroke-linecap="round"/>
<path d="M128.838 118.613C131.3 120.179 131.227 120.745 132.047 123.181" stroke="#3BAA06" stroke-width="0.5" stroke-linecap="round"/>
<path d="M126.218 125.429C129.16 125.869 129.49 124.725 131.88 123.48" stroke="#3BAA06" stroke-width="0.5" stroke-linecap="round"/>
<path d="M126.151 118.278C128.454 119.532 128.245 120.087 128.992 122.251" stroke="#3BAA06" stroke-width="0.5" stroke-linecap="round"/>
<path d="M123.944 124.124C126.54 124.688 126.839 123.293 128.976 122.198" stroke="#3BAA06" stroke-width="0.5" stroke-linecap="round"/>
<path d="M122.049 118.275C123.563 119.106 124.058 119.269 124.643 120.671" stroke="#3BAA06" stroke-width="0.5" stroke-linecap="round"/>
<path d="M120.464 121.052C122.176 121.419 123.194 121.204 124.652 120.56" stroke="#3BAA06" stroke-width="0.5" stroke-linecap="round"/>
<path d="M123.697 118.226C125.439 119.245 125.857 119.523 126.586 121.155" stroke="#3BAA06" stroke-width="0.5" stroke-linecap="round"/>
<path d="M121.742 122.318C123.758 122.694 124.688 122.171 126.42 121.453" stroke="#3BAA06" stroke-width="0.5" stroke-linecap="round"/>
<path d="M120.669 118.358C121.636 119.244 121.826 118.636 122.134 119.585" stroke="#3BAA06" stroke-width="0.5" stroke-linecap="round"/>
<path d="M119.422 119.961C120.536 120.303 121.106 120.234 122.028 119.741" stroke="#3BAA06" stroke-width="0.5" stroke-linecap="round"/>
<path d="M120.547 119.276C120.547 119.276 138.613 125.922 146.654 129.367C155.875 133.317 152.978 142.959 152.978 142.959" stroke="#3BAA06" stroke-width="2" stroke-linecap="round"/>
<path d="M140.032 118.132C142.955 122.089 145.68 124.109 147.917 122.671C150.154 121.233 149.53 118.441 146.606 114.483C144.734 112.228 143.104 111.493 141.273 110.61C138.863 109.447 137.33 108.34 137.33 108.34C137.33 108.34 137.231 110.033 137.864 112.609C138.25 114.182 138.588 116.178 140.032 118.132Z" fill="#05441E"/>
<path d="M138.42 110.433C138.42 110.433 146.524 118.851 150.372 125.079C154.327 131.478 155.384 147.66 155.384 147.66" stroke="#3BAA06" stroke-width="2" stroke-linecap="round"/>
<path d="M147.015 115.221C148.22 117.576 148.276 119.051 147.708 121.389" stroke="#3BAA06" stroke-width="0.5" stroke-linecap="round"/>
<path d="M142.108 120.509C144.273 122.162 145.162 121.292 147.731 121.335" stroke="#3BAA06" stroke-width="0.5" stroke-linecap="round"/>
<path d="M145.179 113.147C146.291 115.32 146.095 116.413 145.571 118.571" stroke="#3BAA06" stroke-width="0.5" stroke-linecap="round"/>
<path d="M139.737 117.568C141.735 119.093 142.935 118.687 145.306 118.727" stroke="#3BAA06" stroke-width="0.5" stroke-linecap="round"/>
<path d="M143.311 111.725C144.449 113.6 144.17 114.708 143.718 116.632" stroke="#3BAA06" stroke-width="0.5" stroke-linecap="round"/>
<path d="M138.799 115.646C140.481 117.124 141.618 116.537 143.73 116.586" stroke="#3BAA06" stroke-width="0.5" stroke-linecap="round"/>
<path d="M140.582 110.356C141.328 111.594 141.416 112.393 141.199 113.681" stroke="#3BAA06" stroke-width="0.5" stroke-linecap="round"/>
<path d="M137.891 112.267C139.001 113.238 139.864 113.491 141.258 113.601" stroke="#3BAA06" stroke-width="0.5" stroke-linecap="round"/>
<path d="M141.708 110.898C142.536 112.37 142.644 113.314 142.427 114.833" stroke="#3BAA06" stroke-width="0.5" stroke-linecap="round"/>
<path d="M138.161 113.507C139.495 114.609 140.531 114.823 142.164 114.988" stroke="#3BAA06" stroke-width="0.5" stroke-linecap="round"/>
<path d="M139.413 109.718C139.99 110.498 140.04 111.012 139.827 111.847" stroke="#3BAA06" stroke-width="0.5" stroke-linecap="round"/>
<path d="M137.621 111.026C138.295 111.735 138.754 111.915 139.676 111.921" stroke="#3BAA06" stroke-width="0.5" stroke-linecap="round"/>
<path d="M139.974 98.7903C143.727 107 147.885 111.614 152.526 109.768C157.167 107.923 157.137 102.625 153.384 94.4157C150.871 89.6662 148.195 87.7673 145.212 85.5285C141.288 82.582 138.936 80.0394 138.936 80.0394C138.936 80.0394 138.086 83.0858 138.217 87.9911C138.297 90.9874 138.121 94.7364 139.974 98.7903Z" fill="#05441E"/>
<path d="M140.091 84.2239C140.091 84.2239 151.504 102.337 156.041 114.996C160.703 128.005 163.203 149.478 163.203 149.478" stroke="#3BAA06" stroke-width="2" stroke-linecap="round"/>
<path d="M153.836 95.8987C155.096 100.6 154.614 103.304 152.654 107.363" stroke="#3BAA06" stroke-width="0.5" stroke-linecap="round"/>
<path d="M142.811 103.831C146.096 107.586 148.058 106.309 152.717 107.272" stroke="#3BAA06" stroke-width="0.5" stroke-linecap="round"/>
<path d="M151.316 91.4917C152.479 95.8305 151.69 97.7515 149.881 101.497" stroke="#3BAA06" stroke-width="0.5" stroke-linecap="round"/>
<path d="M139.661 97.6616C142.692 101.127 145.037 100.802 149.337 101.691" stroke="#3BAA06" stroke-width="0.5" stroke-linecap="round"/>
<path d="M148.481 88.2598C149.809 92.0648 148.862 93.9845 147.276 97.3315" stroke="#3BAA06" stroke-width="0.5" stroke-linecap="round"/>
<path d="M138.716 93.8422C141.19 97.1114 143.493 96.4341 147.317 97.2515" stroke="#3BAA06" stroke-width="0.5" stroke-linecap="round"/>
<path d="M144.056 84.8288C144.923 87.3381 144.767 88.8226 143.861 91.0924" stroke="#3BAA06" stroke-width="0.5" stroke-linecap="round"/>
<path d="M138.401 87.3784C140.038 89.5278 141.508 90.2858 144 90.9667" stroke="#3BAA06" stroke-width="0.5" stroke-linecap="round"/>
<path d="M145.89 86.2032C146.815 89.1665 146.637 90.9231 145.64 93.6124" stroke="#3BAA06" stroke-width="0.5" stroke-linecap="round"/>
<path d="M138.401 89.7289C140.393 92.193 142.194 92.9397 145.1 93.8042" stroke="#3BAA06" stroke-width="0.5" stroke-linecap="round"/>
<path d="M142.181 83.2652C142.923 84.8838 142.811 85.8349 142.091 87.2824" stroke="#3BAA06" stroke-width="0.5" stroke-linecap="round"/>
<path d="M138.401 85.028C139.348 86.5507 140.112 87.036 141.786 87.364" stroke="#3BAA06" stroke-width="0.5" stroke-linecap="round"/>
<g filter="url(#filter0_f_209_117942)">
<path d="M217.644 199C217.644 203.971 189.323 206.5 154.388 206.5C119.452 206.5 91.1315 203.971 91.1315 199C91.1315 194.029 119.452 190 154.388 190C189.323 190 217.644 194.029 217.644 199Z" fill="#D9D9D9"/>
</g>
<path d="M116.053 146.211C115.918 145.588 116.393 145 117.03 145H191.173C191.822 145 192.299 145.609 192.144 146.239L179.234 198.739C179.124 199.186 178.723 199.5 178.263 199.5H128.391C127.92 199.5 127.513 199.172 127.414 198.711L116.053 146.211Z" fill="#B4771A"/>
<path d="M116.2 146.89C116.066 146.271 115.999 145.962 116.071 145.718C116.146 145.463 116.319 145.249 116.551 145.122C116.775 145 117.092 145 117.724 145H190.458C191.108 145 191.432 145 191.659 145.126C191.894 145.257 192.067 145.477 192.138 145.737C192.206 145.987 192.128 146.302 191.973 146.933L179.339 198.313C179.239 198.719 179.189 198.922 179.081 199.076C178.968 199.236 178.81 199.36 178.627 199.431C178.451 199.5 178.242 199.5 177.824 199.5H128.843C128.413 199.5 128.199 199.5 128.02 199.429C127.834 199.354 127.674 199.225 127.562 199.059C127.454 198.9 127.409 198.69 127.318 198.27L116.2 146.89Z" fill="url(#paint0_linear_209_117942)"/>
<path d="M116.2 146.89C116.066 146.271 115.999 145.962 116.071 145.718C116.146 145.463 116.319 145.249 116.551 145.122C116.775 145 117.092 145 117.724 145H190.458C191.108 145 191.432 145 191.659 145.126C191.894 145.257 192.067 145.477 192.138 145.737C192.206 145.987 192.128 146.302 191.973 146.933L179.339 198.313C179.239 198.719 179.189 198.922 179.081 199.076C178.968 199.236 178.81 199.36 178.627 199.431C178.451 199.5 178.242 199.5 177.824 199.5H128.843C128.413 199.5 128.199 199.5 128.02 199.429C127.834 199.354 127.674 199.225 127.562 199.059C127.454 198.9 127.409 198.69 127.318 198.27L116.2 146.89Z" fill="url(#paint1_linear_209_117942)"/>
<g filter="url(#filter1_d_209_117942)">
<path d="M111.669 140.145C111.581 139.541 112.049 139 112.659 139H194.987C195.616 139 196.089 139.574 195.969 140.191L194.214 149.191C194.123 149.661 193.711 150 193.233 150H113.975C113.478 150 113.057 149.636 112.985 149.145L111.669 140.145Z" fill="url(#paint2_linear_209_117942)"/>
</g>
<defs>
<filter id="filter0_f_209_117942" x="87.1315" y="186" width="134.512" height="24.5" filterUnits="userSpaceOnUse" color-interpolation-filters="sRGB">
<feFlood flood-opacity="0" result="BackgroundImageFix"/>
<feBlend mode="normal" in="SourceGraphic" in2="BackgroundImageFix" result="shape"/>
<feGaussianBlur stdDeviation="2" result="effect1_foregroundBlur_209_117942"/>
</filter>
<filter id="filter1_d_209_117942" x="107.659" y="139" width="92.3289" height="19" filterUnits="userSpaceOnUse" color-interpolation-filters="sRGB">
<feFlood flood-opacity="0" result="BackgroundImageFix"/>
<feColorMatrix in="SourceAlpha" type="matrix" values="0 0 0 0 0 0 0 0 0 0 0 0 0 0 0 0 0 0 127 0" result="hardAlpha"/>
<feOffset dy="4"/>
<feGaussianBlur stdDeviation="2"/>
<feComposite in2="hardAlpha" operator="out"/>
<feColorMatrix type="matrix" values="0 0 0 0 0 0 0 0 0 0 0 0 0 0 0 0 0 0 0.25 0"/>
<feBlend mode="normal" in2="BackgroundImageFix" result="effect1_dropShadow_209_117942"/>
<feBlend mode="normal" in="SourceGraphic" in2="effect1_dropShadow_209_117942" result="shape"/>
</filter>
<linearGradient id="paint0_linear_209_117942" x1="154.388" y1="177" x2="177.613" y2="185.489" gradientUnits="userSpaceOnUse">
<stop stop-color="#A8690A" stop-opacity="0.81"/>
<stop offset="0.939762" stop-color="#6D4303"/>
</linearGradient>
<linearGradient id="paint1_linear_209_117942" x1="157.068" y1="177" x2="129.132" y2="187.737" gradientUnits="userSpaceOnUse">
<stop stop-color="#C28427" stop-opacity="0.4"/>
<stop offset="1" stop-color="#885508"/>
</linearGradient>
<linearGradient id="paint2_linear_209_117942" x1="111.502" y1="139" x2="196.201" y2="139" gradientUnits="userSpaceOnUse">
<stop offset="0.00865841" stop-color="#744704"/>
<stop offset="0.510756" stop-color="#CD851A"/>
<stop offset="1" stop-color="#724603"/>
</linearGradient>
</defs>
</svg>
