<svg width="303" height="271" viewBox="0 0 303 271" fill="none" xmlns="http://www.w3.org/2000/svg">
<path d="M96.3742 128.717C105.228 131.131 111.562 131.016 113.202 126.535C114.842 122.053 110.712 118.778 101.858 116.365C96.5083 115.214 93.2634 115.955 89.5519 116.703C84.6674 117.688 81.138 117.794 81.138 117.794C81.138 117.794 82.9384 120.301 86.8314 123.259C89.2093 125.066 92.0018 127.525 96.3742 128.717Z" fill="#05441E"/>
<path d="M84.8855 119.495C84.8855 119.495 107.924 124.42 120.416 127.947C132.907 131.474 150.955 157.112 150.955 157.112" stroke="#3BAA06" stroke-width="2" stroke-linecap="round"/>
<path d="M103.307 116.964C107.789 118.984 109.568 121.013 111.419 124.946" stroke="#3BAA06" stroke-width="0.5" stroke-linecap="round"/>
<path d="M102.163 129.817C107.251 129.794 107.559 127.591 111.391 124.844" stroke="#3BAA06" stroke-width="0.5" stroke-linecap="round"/>
<path d="M98.2193 116.031C102.356 117.895 103.324 119.657 105.033 123.288" stroke="#3BAA06" stroke-width="0.5" stroke-linecap="round"/>
<path d="M95.2907 128.24C99.9862 128.219 101.286 126.333 104.823 123.798" stroke="#3BAA06" stroke-width="0.5" stroke-linecap="round"/>
<path d="M93.8348 116.056C97.6665 117.469 98.5287 119.344 100.076 122.566" stroke="#3BAA06" stroke-width="0.5" stroke-linecap="round"/>
<path d="M91.7016 126.542C95.8761 126.799 96.8753 124.724 100.041 122.487" stroke="#3BAA06" stroke-width="0.5" stroke-linecap="round"/>
<path d="M88.2435 117.098C90.7646 118.037 91.813 119.073 92.9744 121.136" stroke="#3BAA06" stroke-width="0.5" stroke-linecap="round"/>
<path d="M86.4778 122.746C89.2292 122.908 90.7907 122.324 92.9687 120.958" stroke="#3BAA06" stroke-width="0.5" stroke-linecap="round"/>
<path d="M90.524 116.636C93.4356 117.816 94.6804 119.037 96.1076 121.426" stroke="#3BAA06" stroke-width="0.5" stroke-linecap="round"/>
<path d="M88.3015 124.208C91.5324 124.311 93.3039 123.482 95.8988 121.933" stroke="#3BAA06" stroke-width="0.5" stroke-linecap="round"/>
<path d="M85.7887 117.472C87.5356 117.946 88.1994 118.619 88.846 120.036" stroke="#3BAA06" stroke-width="0.5" stroke-linecap="round"/>
<path d="M84.6541 121.283C86.4623 121.551 87.3448 121.304 88.7077 120.306" stroke="#3BAA06" stroke-width="0.5" stroke-linecap="round"/>
<path d="M199.706 144.579C190.716 147.238 184.346 147.305 182.843 142.884C181.339 138.462 185.604 135.079 194.594 132.419C200.015 131.119 203.256 131.764 206.966 132.405C211.85 133.247 215.398 133.252 215.398 133.252C215.398 133.252 213.504 135.803 209.489 138.864C207.036 140.734 204.145 143.265 199.706 144.579Z" fill="#05441E"/>
<path d="M211.303 135.137C211.303 135.137 186.15 140.402 173.091 145.374C160.031 150.346 158.066 176.174 158.066 176.174" stroke="#3BAA06" stroke-width="2" stroke-linecap="round"/>
<path d="M193.115 133.058C188.538 135.2 186.681 137.274 184.689 141.249" stroke="#3BAA06" stroke-width="0.5" stroke-linecap="round"/>
<path d="M193.843 145.841C188.725 145.964 188.486 143.775 184.72 141.146" stroke="#3BAA06" stroke-width="0.5" stroke-linecap="round"/>
<path d="M198.266 131.982C194.042 133.96 193.009 135.744 191.17 139.412" stroke="#3BAA06" stroke-width="0.5" stroke-linecap="round"/>
<path d="M200.812 144.072C196.087 144.185 194.841 142.342 191.365 139.915" stroke="#3BAA06" stroke-width="0.5" stroke-linecap="round"/>
<path d="M202.677 131.881C198.775 133.401 197.845 135.295 196.182 138.551" stroke="#3BAA06" stroke-width="0.5" stroke-linecap="round"/>
<path d="M204.48 142.276C200.27 142.652 199.333 140.611 196.22 138.471" stroke="#3BAA06" stroke-width="0.5" stroke-linecap="round"/>
<path d="M208.27 132.761C205.702 133.769 204.613 134.832 203.376 136.922" stroke="#3BAA06" stroke-width="0.5" stroke-linecap="round"/>
<path d="M209.861 138.342C207.087 138.582 205.535 138.044 203.388 136.745" stroke="#3BAA06" stroke-width="0.5" stroke-linecap="round"/>
<path d="M205.99 132.366C203.021 133.625 201.728 134.879 200.214 137.301" stroke="#3BAA06" stroke-width="0.5" stroke-linecap="round"/>
<path d="M207.978 139.852C204.723 140.047 202.968 139.271 200.407 137.801" stroke="#3BAA06" stroke-width="0.5" stroke-linecap="round"/>
<path d="M210.728 133.063C208.955 133.587 208.264 134.276 207.567 135.708" stroke="#3BAA06" stroke-width="0.5" stroke-linecap="round"/>
<path d="M211.745 136.831C209.916 137.15 209.036 136.929 207.697 135.973" stroke="#3BAA06" stroke-width="0.5" stroke-linecap="round"/>
<path d="M204.309 135.425C195.319 138.084 188.95 138.151 187.446 133.73C185.942 129.309 190.207 125.925 199.197 123.265C204.618 121.965 207.859 122.611 211.57 123.251C216.453 124.093 220.001 124.098 220.001 124.098C220.001 124.098 218.107 126.649 214.092 129.71C211.64 131.58 208.748 134.111 204.309 135.425Z" fill="#05441E"/>
<path d="M215.906 125.983C215.906 125.983 190.754 131.248 177.694 136.22C164.634 141.193 162.669 167.02 162.669 167.02" stroke="#3BAA06" stroke-width="2" stroke-linecap="round"/>
<path d="M197.718 123.904C193.142 126.046 191.284 128.12 189.292 132.095" stroke="#3BAA06" stroke-width="0.5" stroke-linecap="round"/>
<path d="M198.447 136.687C193.328 136.81 193.09 134.622 189.324 131.993" stroke="#3BAA06" stroke-width="0.5" stroke-linecap="round"/>
<path d="M202.869 122.828C198.645 124.806 197.613 126.59 195.774 130.259" stroke="#3BAA06" stroke-width="0.5" stroke-linecap="round"/>
<path d="M205.415 134.918C200.69 135.031 199.444 133.188 195.968 130.762" stroke="#3BAA06" stroke-width="0.5" stroke-linecap="round"/>
<path d="M207.281 122.728C203.378 124.247 202.449 126.141 200.786 129.397" stroke="#3BAA06" stroke-width="0.5" stroke-linecap="round"/>
<path d="M209.083 133.122C204.873 133.498 203.936 131.458 200.824 129.317" stroke="#3BAA06" stroke-width="0.5" stroke-linecap="round"/>
<path d="M212.873 123.607C210.305 124.615 209.216 125.678 207.98 127.768" stroke="#3BAA06" stroke-width="0.5" stroke-linecap="round"/>
<path d="M214.465 129.188C211.69 129.428 210.138 128.89 207.991 127.591" stroke="#3BAA06" stroke-width="0.5" stroke-linecap="round"/>
<path d="M210.594 123.212C207.625 124.471 206.332 125.725 204.817 128.147" stroke="#3BAA06" stroke-width="0.5" stroke-linecap="round"/>
<path d="M212.581 130.698C209.326 130.893 207.571 130.117 205.01 128.647" stroke="#3BAA06" stroke-width="0.5" stroke-linecap="round"/>
<path d="M215.331 123.91C213.558 124.433 212.868 125.122 212.17 126.554" stroke="#3BAA06" stroke-width="0.5" stroke-linecap="round"/>
<path d="M216.348 127.677C214.519 127.996 213.639 127.775 212.301 126.819" stroke="#3BAA06" stroke-width="0.5" stroke-linecap="round"/>
<path d="M211.921 121.501C204.23 126.593 198.186 128.47 195.308 124.687C192.429 120.905 194.437 118.119 202.128 113.027C206.865 110.246 211.595 109.554 215.338 109.108C220.264 108.52 223.157 106.247 223.157 106.247C223.157 106.247 222.188 109.216 219.366 113.273C217.643 115.752 215.718 118.986 211.921 121.501Z" fill="#05441E"/>
<path d="M199.787 115.412C196.13 118.755 196.655 118.875 196.058 123.227" stroke="#3BAA06" stroke-width="0.5" stroke-linecap="round"/>
<path d="M206.475 124.362C201.64 125.936 200.502 124.552 196.055 123.12" stroke="#3BAA06" stroke-width="0.5" stroke-linecap="round"/>
<path d="M205.272 111.666C201.897 114.751 202.181 115.616 201.63 119.633" stroke="#3BAA06" stroke-width="0.5" stroke-linecap="round"/>
<path d="M211.404 121.625C206.942 123.078 206.084 121.378 201.98 120.057" stroke="#3BAA06" stroke-width="0.5" stroke-linecap="round"/>
<path d="M209.367 110.441C206.148 112.999 206.639 113.812 206.121 117.386" stroke="#3BAA06" stroke-width="0.5" stroke-linecap="round"/>
<path d="M214.564 118.996C210.679 120.552 209.795 118.451 206.131 117.299" stroke="#3BAA06" stroke-width="0.5" stroke-linecap="round"/>
<path d="M215.772 109.369C213.656 111.06 212.932 111.444 212.438 113.786" stroke="#3BAA06" stroke-width="0.5" stroke-linecap="round"/>
<path d="M219.079 113.292C216.515 114.311 214.861 114.241 212.391 113.614" stroke="#3BAA06" stroke-width="0.5" stroke-linecap="round"/>
<path d="M213.184 109.722C210.769 111.766 210.2 112.31 209.551 115.048" stroke="#3BAA06" stroke-width="0.5" stroke-linecap="round"/>
<path d="M217.462 115.602C214.426 116.714 212.818 116.14 209.898 115.469" stroke="#3BAA06" stroke-width="0.5" stroke-linecap="round"/>
<path d="M217.95 109.139C216.706 110.774 216.227 109.875 216.032 111.437" stroke="#3BAA06" stroke-width="0.5" stroke-linecap="round"/>
<path d="M220.378 111.318C218.741 112.141 217.83 112.182 216.243 111.652" stroke="#3BAA06" stroke-width="0.5" stroke-linecap="round"/>
<path d="M218.749 110.346C218.749 110.346 183.059 129.857 172.251 138.311C161.442 146.765 158.496 167.351 158.496 167.351" stroke="#3BAA06" stroke-width="2" stroke-linecap="round"/>
<path d="M99.8303 120.278C107.521 125.37 113.565 127.247 116.443 123.465C119.322 119.683 117.314 116.897 109.623 111.805C104.886 109.023 100.156 108.332 96.413 107.885C91.4871 107.297 88.5937 105.025 88.5937 105.025C88.5937 105.025 89.5627 107.993 92.3844 112.051C94.108 114.53 96.0326 117.764 99.8303 120.278Z" fill="#05441E"/>
<path d="M111.964 114.189C115.621 117.532 115.096 117.652 115.692 122.004" stroke="#3BAA06" stroke-width="0.5" stroke-linecap="round"/>
<path d="M105.276 123.14C110.111 124.714 111.249 123.329 115.696 121.898" stroke="#3BAA06" stroke-width="0.5" stroke-linecap="round"/>
<path d="M106.479 110.443C109.854 113.529 109.57 114.394 110.121 118.411" stroke="#3BAA06" stroke-width="0.5" stroke-linecap="round"/>
<path d="M100.347 120.403C104.809 121.856 105.667 120.155 109.771 118.834" stroke="#3BAA06" stroke-width="0.5" stroke-linecap="round"/>
<path d="M102.384 109.219C105.603 111.777 105.112 112.589 105.63 116.164" stroke="#3BAA06" stroke-width="0.5" stroke-linecap="round"/>
<path d="M97.1865 117.773C101.072 119.33 101.956 117.229 105.62 116.077" stroke="#3BAA06" stroke-width="0.5" stroke-linecap="round"/>
<path d="M95.9792 108.147C98.0948 109.838 98.8191 110.222 99.3126 112.564" stroke="#3BAA06" stroke-width="0.5" stroke-linecap="round"/>
<path d="M92.6725 112.07C95.2357 113.088 96.8899 113.018 99.3597 112.392" stroke="#3BAA06" stroke-width="0.5" stroke-linecap="round"/>
<path d="M98.5674 108.499C100.982 110.544 101.551 111.087 102.2 113.826" stroke="#3BAA06" stroke-width="0.5" stroke-linecap="round"/>
<path d="M94.2887 114.38C97.3245 115.492 98.9331 114.918 101.852 114.246" stroke="#3BAA06" stroke-width="0.5" stroke-linecap="round"/>
<path d="M93.8005 107.917C95.0447 109.552 95.5236 108.653 95.719 110.215" stroke="#3BAA06" stroke-width="0.5" stroke-linecap="round"/>
<path d="M91.3733 110.095C93.0104 110.919 93.9206 110.959 95.5085 110.43" stroke="#3BAA06" stroke-width="0.5" stroke-linecap="round"/>
<path d="M93.002 109.124C93.002 109.124 128.692 128.634 139.5 137.089C150.309 145.543 153.255 166.128 153.255 166.128" stroke="#3BAA06" stroke-width="2" stroke-linecap="round"/>
<path d="M136.553 70.2976C137.948 81.8521 141.29 89.0605 147.822 88.3742C154.354 87.6879 155.528 83.3873 154.132 71.8329C152.898 65.0288 149.461 60.0723 146.635 56.2385C142.916 51.1932 142.768 46.5318 142.768 46.5318C142.768 46.5318 140.486 50.0376 138.685 56.206C137.584 59.9738 135.863 64.5919 136.553 70.2976Z" fill="#05441E"/>
<path d="M153.676 76.0856C153.365 82.3921 152.776 82.0148 148.703 86.3974" stroke="#3BAA06" stroke-width="0.5" stroke-linecap="round"/>
<path d="M138.327 77.8239C140.923 83.6543 143.389 83.4807 148.819 86.3066" stroke="#3BAA06" stroke-width="0.5" stroke-linecap="round"/>
<path d="M152.8 67.7434C152.514 73.5641 151.35 74.0652 147.592 78.1103" stroke="#3BAA06" stroke-width="0.5" stroke-linecap="round"/>
<path d="M136.876 70.8818C139.272 76.263 141.825 75.5538 146.836 78.1621" stroke="#3BAA06" stroke-width="0.5" stroke-linecap="round"/>
<path d="M150.486 62.9014C150.62 68.1135 149.329 68.3779 146.009 72.0029" stroke="#3BAA06" stroke-width="0.5" stroke-linecap="round"/>
<path d="M136.87 65.6607C138.649 70.6034 141.647 69.5645 146.093 71.9173" stroke="#3BAA06" stroke-width="0.5" stroke-linecap="round"/>
<path d="M145.977 56.0701C146.054 59.5044 146.286 60.5083 144.246 63.0256" stroke="#3BAA06" stroke-width="0.5" stroke-linecap="round"/>
<path d="M138.919 56.4871C140.101 59.7403 141.632 61.1988 144.47 62.917" stroke="#3BAA06" stroke-width="0.5" stroke-linecap="round"/>
<path d="M147.884 58.7595C147.852 62.7805 147.778 63.7815 145.458 66.7911" stroke="#3BAA06" stroke-width="0.5" stroke-linecap="round"/>
<path d="M137.902 60.0078C139.402 63.7777 141.425 64.7503 144.707 66.8422" stroke="#3BAA06" stroke-width="0.5" stroke-linecap="round"/>
<path d="M144.3 53.8649C143.669 56.4492 145.041 56.0971 143.562 57.653" stroke="#3BAA06" stroke-width="0.5" stroke-linecap="round"/>
<path d="M139.86 53.5534C140.432 55.7839 141.191 56.6559 143.15 57.6488" stroke="#3BAA06" stroke-width="0.5" stroke-linecap="round"/>
<path d="M142.409 54.6719C142.409 54.6719 152.26 97.8059 154.516 114.98C157.104 134.676 154.402 167.913 154.402 167.913" stroke="#3BAA06" stroke-width="2" stroke-linecap="round"/>
<path d="M141.126 99.1223C142.171 107.771 144.672 113.167 149.562 112.654C154.451 112.14 155.33 108.921 154.285 100.271C153.361 95.1782 150.788 91.468 148.673 88.5982C145.89 84.8214 145.779 81.3321 145.779 81.3321C145.779 81.3321 144.07 83.9564 142.722 88.5738C141.898 91.3943 140.61 94.8512 141.126 99.1223Z" fill="#05441E"/>
<path d="M153.944 103.455C153.711 108.176 153.27 107.893 150.222 111.174" stroke="#3BAA06" stroke-width="0.5" stroke-linecap="round"/>
<path d="M142.454 104.756C144.397 109.12 146.243 108.99 150.308 111.106" stroke="#3BAA06" stroke-width="0.5" stroke-linecap="round"/>
<path d="M153.288 97.2103C153.074 101.567 152.203 101.943 149.389 104.97" stroke="#3BAA06" stroke-width="0.5" stroke-linecap="round"/>
<path d="M141.368 99.5595C143.162 103.588 145.072 103.057 148.824 105.009" stroke="#3BAA06" stroke-width="0.5" stroke-linecap="round"/>
<path d="M151.556 93.5857C151.656 97.4873 150.69 97.6852 148.205 100.399" stroke="#3BAA06" stroke-width="0.5" stroke-linecap="round"/>
<path d="M141.363 95.6512C142.695 99.3511 144.939 98.5735 148.267 100.335" stroke="#3BAA06" stroke-width="0.5" stroke-linecap="round"/>
<path d="M148.18 88.4721C148.238 91.0428 148.412 91.7943 146.885 93.6787" stroke="#3BAA06" stroke-width="0.5" stroke-linecap="round"/>
<path d="M142.897 88.7842C143.782 91.2195 144.928 92.3112 147.052 93.5974" stroke="#3BAA06" stroke-width="0.5" stroke-linecap="round"/>
<path d="M149.608 90.4853C149.584 93.4952 149.529 94.2445 147.792 96.4974" stroke="#3BAA06" stroke-width="0.5" stroke-linecap="round"/>
<path d="M142.136 91.4197C143.259 94.2417 144.773 94.9698 147.23 96.5356" stroke="#3BAA06" stroke-width="0.5" stroke-linecap="round"/>
<path d="M146.926 86.8214C146.453 88.7559 147.48 88.4923 146.373 89.657" stroke="#3BAA06" stroke-width="0.5" stroke-linecap="round"/>
<path d="M143.602 86.5883C144.03 88.2579 144.598 88.9107 146.064 89.6539" stroke="#3BAA06" stroke-width="0.5" stroke-linecap="round"/>
<path d="M145.51 87.4255C145.51 87.4255 152.883 119.714 154.572 132.57C156.509 147.314 154.487 172.193 154.487 172.193" stroke="#3BAA06" stroke-width="2" stroke-linecap="round"/>
<path d="M103.954 140.433C112.365 144.13 118.581 144.973 120.67 140.836C122.76 136.7 120.293 134.321 111.881 130.624C106.766 128.691 102.047 128.786 98.3311 128.959C93.4409 129.185 90.2099 127.448 90.2099 127.448C90.2099 127.448 91.7028 130.172 95.1965 133.654C97.3305 135.78 99.8003 138.608 103.954 140.433Z" fill="#05441E"/>
<path d="M114.597 132.559C118.769 135.212 118.281 135.413 119.67 139.54" stroke="#3BAA06" stroke-width="0.5" stroke-linecap="round"/>
<path d="M109.772 142.329C114.757 143.074 115.604 141.546 119.653 139.437" stroke="#3BAA06" stroke-width="0.5" stroke-linecap="round"/>
<path d="M108.576 129.812C112.426 132.26 112.312 133.145 113.594 136.955" stroke="#3BAA06" stroke-width="0.5" stroke-linecap="round"/>
<path d="M104.478 140.47C109.079 141.158 109.596 139.369 113.333 137.422" stroke="#3BAA06" stroke-width="0.5" stroke-linecap="round"/>
<path d="M104.374 129.286C107.974 131.248 107.649 132.116 108.817 135.501" stroke="#3BAA06" stroke-width="0.5" stroke-linecap="round"/>
<path d="M100.922 138.43C104.983 139.312 105.449 137.129 108.791 135.418" stroke="#3BAA06" stroke-width="0.5" stroke-linecap="round"/>
<path d="M97.9587 129.283C100.327 130.581 101.101 130.837 102.016 133.03" stroke="#3BAA06" stroke-width="0.5" stroke-linecap="round"/>
<path d="M95.4794 133.625C98.1566 134.199 99.749 133.863 102.029 132.855" stroke="#3BAA06" stroke-width="0.5" stroke-linecap="round"/>
<path d="M100.536 129.206C103.261 130.799 103.913 131.235 105.053 133.787" stroke="#3BAA06" stroke-width="0.5" stroke-linecap="round"/>
<path d="M97.478 135.606C100.631 136.193 102.086 135.376 104.794 134.252" stroke="#3BAA06" stroke-width="0.5" stroke-linecap="round"/>
<path d="M95.8015 129.412C97.3133 130.798 97.6108 129.847 98.0911 131.332" stroke="#3BAA06" stroke-width="0.5" stroke-linecap="round"/>
<path d="M93.8512 131.919C95.5934 132.454 96.4842 132.346 97.9268 131.575" stroke="#3BAA06" stroke-width="0.5" stroke-linecap="round"/>
<path d="M95.6103 130.848C95.6103 130.848 123.862 141.24 136.436 146.628C150.856 152.806 146.326 167.884 146.326 167.884" stroke="#3BAA06" stroke-width="2" stroke-linecap="round"/>
<path d="M207.904 102.577C199.55 110.972 192.38 114.86 187.635 110.752C182.89 106.643 185.392 100.258 193.746 91.8637C198.993 87.1459 203.108 85.9365 207.752 84.4405C213.863 82.4718 217.886 80.3534 217.886 80.3534C217.886 80.3534 217.496 84.3769 215.054 90.2476C213.562 93.8337 212.029 98.4322 207.904 102.577Z" fill="#05441E"/>
<path d="M214.545 84.9393C214.545 84.9393 192.33 102.191 180.957 115.641C169.271 129.463 156.256 168.554 156.256 168.554" stroke="#3BAA06" stroke-width="2" stroke-linecap="round"/>
<path d="M192.51 93.4717C188.8 98.6383 188.123 102.099 188.601 107.794" stroke="#3BAA06" stroke-width="0.5" stroke-linecap="round"/>
<path d="M202.132 107.516C196.417 110.72 194.642 108.383 188.567 107.66" stroke="#3BAA06" stroke-width="0.5" stroke-linecap="round"/>
<path d="M197.605 89.1702C194.181 93.9388 194.239 96.5782 194.68 101.835" stroke="#3BAA06" stroke-width="0.5" stroke-linecap="round"/>
<path d="M208.808 101.341C203.534 104.298 200.854 102.956 195.247 102.288" stroke="#3BAA06" stroke-width="0.5" stroke-linecap="round"/>
<path d="M202.533 86.4154C199.158 90.4724 199.409 93.1745 199.765 97.8586" stroke="#3BAA06" stroke-width="0.5" stroke-linecap="round"/>
<path d="M211.727 97.1113C207.218 100.057 204.752 98.3068 199.753 97.7453" stroke="#3BAA06" stroke-width="0.5" stroke-linecap="round"/>
<path d="M209.474 84.0638C207.258 86.743 206.756 88.599 206.793 91.7069" stroke="#3BAA06" stroke-width="0.5" stroke-linecap="round"/>
<path d="M215.117 89.4332C212.139 91.3659 210.011 91.6859 206.685 91.4989" stroke="#3BAA06" stroke-width="0.5" stroke-linecap="round"/>
<path d="M206.619 84.9809C204.123 88.1849 203.521 90.3786 203.472 94.0297" stroke="#3BAA06" stroke-width="0.5" stroke-linecap="round"/>
<path d="M214.022 92.2716C210.469 94.4405 207.947 94.6129 204.035 94.4799" stroke="#3BAA06" stroke-width="0.5" stroke-linecap="round"/>
<path d="M212.467 82.935C210.817 84.5894 210.51 85.7832 210.705 87.8229" stroke="#3BAA06" stroke-width="0.5" stroke-linecap="round"/>
<path d="M216.211 86.5947C214.358 88.0501 213.21 88.3268 211.035 88.0448" stroke="#3BAA06" stroke-width="0.5" stroke-linecap="round"/>
<path d="M103.847 101.355C112.201 109.749 119.37 113.638 124.116 109.529C128.861 105.421 126.358 99.0355 118.005 90.6413C112.758 85.9236 108.643 84.7141 103.999 83.2182C97.8877 81.2494 93.8647 79.1311 93.8647 79.1311C93.8647 79.1311 94.2553 83.1546 96.6972 89.0253C98.1889 92.6113 99.7219 97.2098 103.847 101.355Z" fill="#05441E"/>
<path d="M97.2064 83.717C97.2064 83.717 119.421 100.969 130.793 114.419C142.48 128.241 155.495 167.331 155.495 167.331" stroke="#3BAA06" stroke-width="2" stroke-linecap="round"/>
<path d="M119.24 92.2494C122.95 97.416 123.627 100.877 123.15 106.572" stroke="#3BAA06" stroke-width="0.5" stroke-linecap="round"/>
<path d="M109.619 106.294C115.333 109.497 117.109 107.161 123.184 106.437" stroke="#3BAA06" stroke-width="0.5" stroke-linecap="round"/>
<path d="M114.146 87.9478C117.57 92.7165 117.511 95.3559 117.07 100.612" stroke="#3BAA06" stroke-width="0.5" stroke-linecap="round"/>
<path d="M102.943 100.119C108.217 103.076 110.897 101.734 116.504 101.066" stroke="#3BAA06" stroke-width="0.5" stroke-linecap="round"/>
<path d="M109.217 85.193C112.593 89.2501 112.342 91.9522 111.985 96.6362" stroke="#3BAA06" stroke-width="0.5" stroke-linecap="round"/>
<path d="M100.024 95.8891C104.533 98.8351 106.999 97.0845 111.998 96.523" stroke="#3BAA06" stroke-width="0.5" stroke-linecap="round"/>
<path d="M102.277 82.8415C104.492 85.5206 104.995 87.3767 104.957 90.4846" stroke="#3BAA06" stroke-width="0.5" stroke-linecap="round"/>
<path d="M96.6343 88.2109C99.6117 90.1436 101.74 90.4636 105.066 90.2766" stroke="#3BAA06" stroke-width="0.5" stroke-linecap="round"/>
<path d="M105.132 83.7585C107.628 86.9626 108.23 89.1562 108.279 92.8073" stroke="#3BAA06" stroke-width="0.5" stroke-linecap="round"/>
<path d="M97.7284 91.0493C101.282 93.2182 103.804 93.3906 107.716 93.2576" stroke="#3BAA06" stroke-width="0.5" stroke-linecap="round"/>
<path d="M99.2844 81.7127C100.934 83.3671 101.241 84.5609 101.046 86.6006" stroke="#3BAA06" stroke-width="0.5" stroke-linecap="round"/>
<path d="M95.5402 85.3724C97.3924 86.8277 98.5411 87.1044 100.716 86.8224" stroke="#3BAA06" stroke-width="0.5" stroke-linecap="round"/>
<path d="M185.588 101.112C180.465 112.318 174.788 118.617 168.453 116.098C162.118 113.578 162.159 106.347 167.282 95.1402C170.713 88.6568 174.366 86.0647 178.437 83.0085C183.795 78.9864 187.004 75.5156 187.004 75.5156C187.004 75.5156 188.166 79.6741 187.987 86.3701C187.877 90.4604 188.117 95.5779 185.588 101.112Z" fill="#05441E"/>
<path d="M185.429 81.2277C185.429 81.2277 169.849 105.953 163.656 123.234C157.291 140.992 153.879 170.304 153.879 170.304" stroke="#3BAA06" stroke-width="2" stroke-linecap="round"/>
<path d="M166.666 97.1646C164.946 103.582 165.604 107.273 168.279 112.813" stroke="#3BAA06" stroke-width="0.5" stroke-linecap="round"/>
<path d="M181.716 107.993C177.232 113.118 174.553 111.375 168.193 112.69" stroke="#3BAA06" stroke-width="0.5" stroke-linecap="round"/>
<path d="M170.106 91.1487C168.518 97.0714 169.595 99.6937 172.065 104.807" stroke="#3BAA06" stroke-width="0.5" stroke-linecap="round"/>
<path d="M186.015 99.571C181.877 104.301 178.677 103.857 172.806 105.071" stroke="#3BAA06" stroke-width="0.5" stroke-linecap="round"/>
<path d="M173.976 86.737C172.162 91.931 173.456 94.5515 175.62 99.1203" stroke="#3BAA06" stroke-width="0.5" stroke-linecap="round"/>
<path d="M187.305 94.3572C183.928 98.8199 180.784 97.8954 175.564 99.0112" stroke="#3BAA06" stroke-width="0.5" stroke-linecap="round"/>
<path d="M180.016 82.0535C178.832 85.4789 179.045 87.5053 180.282 90.6037" stroke="#3BAA06" stroke-width="0.5" stroke-linecap="round"/>
<path d="M187.735 85.5338C185.501 88.4679 183.494 89.5026 180.092 90.432" stroke="#3BAA06" stroke-width="0.5" stroke-linecap="round"/>
<path d="M177.512 83.9296C176.25 87.9746 176.493 90.3726 177.853 94.0437" stroke="#3BAA06" stroke-width="0.5" stroke-linecap="round"/>
<path d="M187.736 88.7423C185.016 92.106 182.558 93.1252 178.59 94.3053" stroke="#3BAA06" stroke-width="0.5" stroke-linecap="round"/>
<path d="M182.576 79.9189C181.563 82.1285 181.716 83.4267 182.699 85.4027" stroke="#3BAA06" stroke-width="0.5" stroke-linecap="round"/>
<path d="M187.735 82.3253C186.443 84.4038 185.4 85.0664 183.114 85.5141" stroke="#3BAA06" stroke-width="0.5" stroke-linecap="round"/>
<path d="M177.831 122.189C173.997 130.577 169.748 135.292 165.006 133.406C160.263 131.52 160.294 126.107 164.129 117.718C166.697 112.865 169.432 110.925 172.479 108.637C176.49 105.626 178.892 103.028 178.892 103.028C178.892 103.028 179.762 106.141 179.627 111.153C179.546 114.215 179.725 118.046 177.831 122.189Z" fill="#05441E"/>
<path d="M177.713 107.304C177.713 107.304 166.05 125.812 161.414 138.748C156.65 152.041 154.096 173.983 154.096 173.983" stroke="#3BAA06" stroke-width="2" stroke-linecap="round"/>
<path d="M163.667 119.234C162.38 124.037 162.872 126.801 164.875 130.948" stroke="#3BAA06" stroke-width="0.5" stroke-linecap="round"/>
<path d="M174.933 127.34C171.577 131.176 169.572 129.871 164.811 130.856" stroke="#3BAA06" stroke-width="0.5" stroke-linecap="round"/>
<path d="M166.242 114.731C165.054 119.164 165.86 121.127 167.709 124.955" stroke="#3BAA06" stroke-width="0.5" stroke-linecap="round"/>
<path d="M178.152 121.035C175.054 124.576 172.658 124.244 168.264 125.152" stroke="#3BAA06" stroke-width="0.5" stroke-linecap="round"/>
<path d="M169.139 111.428C167.782 115.316 168.75 117.278 170.371 120.698" stroke="#3BAA06" stroke-width="0.5" stroke-linecap="round"/>
<path d="M179.117 117.132C176.589 120.473 174.236 119.781 170.329 120.616" stroke="#3BAA06" stroke-width="0.5" stroke-linecap="round"/>
<path d="M173.66 107.922C172.774 110.486 172.934 112.003 173.86 114.323" stroke="#3BAA06" stroke-width="0.5" stroke-linecap="round"/>
<path d="M179.439 110.527C177.767 112.724 176.264 113.498 173.718 114.194" stroke="#3BAA06" stroke-width="0.5" stroke-linecap="round"/>
<path d="M171.786 109.327C170.841 112.355 171.024 114.15 172.042 116.898" stroke="#3BAA06" stroke-width="0.5" stroke-linecap="round"/>
<path d="M179.439 112.929C177.403 115.447 175.563 116.21 172.594 117.093" stroke="#3BAA06" stroke-width="0.5" stroke-linecap="round"/>
<path d="M175.577 106.324C174.819 107.978 174.933 108.95 175.669 110.429" stroke="#3BAA06" stroke-width="0.5" stroke-linecap="round"/>
<path d="M179.439 108.126C178.472 109.682 177.691 110.178 175.98 110.513" stroke="#3BAA06" stroke-width="0.5" stroke-linecap="round"/>
<path d="M182.79 130.799C178.218 136.988 173.958 140.146 170.459 137.897C166.961 135.649 167.937 131.282 172.509 125.093C175.437 121.566 177.986 120.418 180.849 119.036C184.618 117.218 187.015 115.487 187.015 115.487C187.015 115.487 187.17 118.134 186.18 122.162C185.576 124.622 185.047 127.743 182.79 130.799Z" fill="#05441E"/>
<path d="M185.311 118.76C185.311 118.76 172.638 131.924 166.62 141.662C160.435 151.669 154.515 169 154.515 169" stroke="#3BAA06" stroke-width="2" stroke-linecap="round"/>
<path d="M171.87 126.247C169.986 129.929 169.898 132.236 170.786 135.892" stroke="#3BAA06" stroke-width="0.5" stroke-linecap="round"/>
<path d="M179.543 134.516C176.158 137.101 174.768 135.741 170.75 135.807" stroke="#3BAA06" stroke-width="0.5" stroke-linecap="round"/>
<path d="M174.741 123.003C173.002 126.402 173.308 128.111 174.128 131.485" stroke="#3BAA06" stroke-width="0.5" stroke-linecap="round"/>
<path d="M183.251 129.917C180.127 132.302 178.251 131.668 174.542 131.729" stroke="#3BAA06" stroke-width="0.5" stroke-linecap="round"/>
<path d="M177.661 120.779C175.882 123.712 176.319 125.444 177.026 128.454" stroke="#3BAA06" stroke-width="0.5" stroke-linecap="round"/>
<path d="M184.717 126.912C182.088 129.224 180.309 128.305 177.007 128.382" stroke="#3BAA06" stroke-width="0.5" stroke-linecap="round"/>
<path d="M181.929 118.639C180.763 120.575 180.625 121.824 180.965 123.839" stroke="#3BAA06" stroke-width="0.5" stroke-linecap="round"/>
<path d="M186.138 121.627C184.401 123.145 183.052 123.541 180.873 123.713" stroke="#3BAA06" stroke-width="0.5" stroke-linecap="round"/>
<path d="M180.169 119.487C178.873 121.788 178.705 123.265 179.044 125.641" stroke="#3BAA06" stroke-width="0.5" stroke-linecap="round"/>
<path d="M185.716 123.567C183.629 125.289 182.009 125.624 179.455 125.883" stroke="#3BAA06" stroke-width="0.5" stroke-linecap="round"/>
<path d="M183.758 117.642C182.855 118.862 182.777 119.664 183.111 120.971" stroke="#3BAA06" stroke-width="0.5" stroke-linecap="round"/>
<path d="M186.561 119.687C185.506 120.796 184.788 121.077 183.347 121.086" stroke="#3BAA06" stroke-width="0.5" stroke-linecap="round"/>
<path d="M184.801 150.996C176.745 151.143 171.509 149.758 171.426 145.796C171.343 141.834 175.715 140.026 183.771 139.879C188.55 140.039 191.038 141.3 193.912 142.663C197.693 144.457 200.599 145.263 200.599 145.263C200.599 145.263 198.385 146.924 194.3 148.525C191.805 149.502 188.779 150.923 184.801 150.996Z" fill="#05441E"/>
<path d="M196.755 145.881C196.755 145.881 177.899 143.962 165.908 145.084C153.585 146.237 150.187 168.015 150.187 168.015" stroke="#3BAA06" stroke-width="2" stroke-linecap="round"/>
<path d="M182.394 140.067C178.088 140.789 176.028 142.068 173.363 144.874" stroke="#3BAA06" stroke-width="0.5" stroke-linecap="round"/>
<path d="M179.67 150.705C175.444 149.649 175.818 147.802 173.415 144.797" stroke="#3BAA06" stroke-width="0.5" stroke-linecap="round"/>
<path d="M186.893 140.35C182.919 141.016 181.61 142.245 179.15 144.834" stroke="#3BAA06" stroke-width="0.5" stroke-linecap="round"/>
<path d="M185.838 150.83C181.938 149.855 181.396 148.064 179.179 145.29" stroke="#3BAA06" stroke-width="0.5" stroke-linecap="round"/>
<path d="M190.534 141.265C186.942 141.628 185.688 142.97 183.48 145.261" stroke="#3BAA06" stroke-width="0.5" stroke-linecap="round"/>
<path d="M189.31 150.188C185.763 149.545 185.526 147.661 183.532 145.204" stroke="#3BAA06" stroke-width="0.5" stroke-linecap="round"/>
<path d="M194.887 143.249C192.521 143.495 191.353 144.12 189.797 145.553" stroke="#3BAA06" stroke-width="0.5" stroke-linecap="round"/>
<path d="M194.741 148.181C192.406 147.751 191.274 146.96 189.852 145.41" stroke="#3BAA06" stroke-width="0.5" stroke-linecap="round"/>
<path d="M193.122 142.41C190.362 142.771 188.978 143.506 187.107 145.148" stroke="#3BAA06" stroke-width="0.5" stroke-linecap="round"/>
<path d="M192.806 148.993C190.088 148.417 188.852 147.385 187.136 145.601" stroke="#3BAA06" stroke-width="0.5" stroke-linecap="round"/>
<path d="M196.822 144.053C195.233 144.081 194.489 144.489 193.546 145.505" stroke="#3BAA06" stroke-width="0.5" stroke-linecap="round"/>
<path d="M196.676 147.369C195.096 147.217 194.432 146.837 193.584 145.751" stroke="#3BAA06" stroke-width="0.5" stroke-linecap="round"/>
<path d="M117.719 121.174C122.29 127.362 126.551 130.52 130.049 128.272C133.548 126.024 132.571 121.656 128 115.468C125.072 111.941 122.522 110.792 119.659 109.41C115.891 107.592 113.494 105.861 113.494 105.861C113.494 105.861 113.339 108.508 114.328 112.536C114.933 114.996 115.461 118.118 117.719 121.174Z" fill="#05441E"/>
<path d="M115.198 109.134C115.198 109.134 127.87 122.299 133.889 132.037C140.074 142.044 141.726 167.351 141.726 167.351" stroke="#3BAA06" stroke-width="2" stroke-linecap="round"/>
<path d="M128.639 116.621C130.523 120.304 130.611 122.611 129.722 126.266" stroke="#3BAA06" stroke-width="0.5" stroke-linecap="round"/>
<path d="M120.965 124.891C124.35 127.476 125.74 126.115 129.758 126.182" stroke="#3BAA06" stroke-width="0.5" stroke-linecap="round"/>
<path d="M125.767 113.378C127.506 116.777 127.2 118.485 126.38 121.859" stroke="#3BAA06" stroke-width="0.5" stroke-linecap="round"/>
<path d="M117.257 120.291C120.382 122.677 122.258 122.042 125.967 122.104" stroke="#3BAA06" stroke-width="0.5" stroke-linecap="round"/>
<path d="M122.847 111.154C124.627 114.086 124.19 115.819 123.482 118.829" stroke="#3BAA06" stroke-width="0.5" stroke-linecap="round"/>
<path d="M115.791 117.287C118.42 119.598 120.199 118.679 123.502 118.756" stroke="#3BAA06" stroke-width="0.5" stroke-linecap="round"/>
<path d="M118.579 109.014C119.746 110.949 119.883 112.199 119.543 114.213" stroke="#3BAA06" stroke-width="0.5" stroke-linecap="round"/>
<path d="M114.37 112.002C116.107 113.52 117.457 113.916 119.635 114.088" stroke="#3BAA06" stroke-width="0.5" stroke-linecap="round"/>
<path d="M120.34 109.861C121.635 112.162 121.803 113.64 121.465 116.015" stroke="#3BAA06" stroke-width="0.5" stroke-linecap="round"/>
<path d="M114.792 113.941C116.879 115.664 118.499 115.998 121.053 116.258" stroke="#3BAA06" stroke-width="0.5" stroke-linecap="round"/>
<path d="M116.751 108.016C117.653 109.236 117.732 110.039 117.398 111.346" stroke="#3BAA06" stroke-width="0.5" stroke-linecap="round"/>
<path d="M113.948 110.062C115.003 111.171 115.721 111.452 117.161 111.461" stroke="#3BAA06" stroke-width="0.5" stroke-linecap="round"/>
<path d="M117.629 90.927C123.497 103.765 130 110.981 137.257 108.095C144.515 105.209 144.468 96.9239 138.599 84.0859C134.668 76.6586 130.484 73.6891 125.82 70.1879C119.682 65.5802 116.005 61.6041 116.005 61.6041C116.005 61.6041 114.675 66.368 114.88 74.039C115.005 78.7247 114.731 84.5873 117.629 90.927Z" fill="#05441E"/>
<path d="M117.81 68.1478C117.81 68.1478 135.658 96.4728 142.753 116.27C150.045 136.613 153.954 170.193 153.954 170.193" stroke="#3BAA06" stroke-width="2" stroke-linecap="round"/>
<path d="M139.305 86.4051C141.276 93.7564 140.522 97.9855 137.457 104.332" stroke="#3BAA06" stroke-width="0.5" stroke-linecap="round"/>
<path d="M122.064 98.8103C127.201 104.681 130.27 102.685 137.556 104.191" stroke="#3BAA06" stroke-width="0.5" stroke-linecap="round"/>
<path d="M135.365 79.5132C137.183 86.2982 135.949 89.3023 133.12 95.1602" stroke="#3BAA06" stroke-width="0.5" stroke-linecap="round"/>
<path d="M117.138 89.1618C121.879 94.5803 125.546 94.0721 132.271 95.4624" stroke="#3BAA06" stroke-width="0.5" stroke-linecap="round"/>
<path d="M130.931 74.4592C133.008 80.4095 131.526 83.4115 129.047 88.6455" stroke="#3BAA06" stroke-width="0.5" stroke-linecap="round"/>
<path d="M115.661 83.1889C119.53 88.3013 123.131 87.2423 129.111 88.5205" stroke="#3BAA06" stroke-width="0.5" stroke-linecap="round"/>
<path d="M124.012 69.0938C125.368 73.0179 125.124 75.3394 123.707 78.8888" stroke="#3BAA06" stroke-width="0.5" stroke-linecap="round"/>
<path d="M115.168 73.0809C117.728 76.4421 120.027 77.6275 123.924 78.6922" stroke="#3BAA06" stroke-width="0.5" stroke-linecap="round"/>
<path d="M126.88 71.2431C128.326 75.8771 128.047 78.6242 126.489 82.8298" stroke="#3BAA06" stroke-width="0.5" stroke-linecap="round"/>
<path d="M115.168 76.7565C118.284 80.6099 121.1 81.7776 125.645 83.1295" stroke="#3BAA06" stroke-width="0.5" stroke-linecap="round"/>
<path d="M121.079 66.6486C122.239 69.1798 122.064 70.667 120.938 72.9308" stroke="#3BAA06" stroke-width="0.5" stroke-linecap="round"/>
<path d="M115.168 69.4053C116.649 71.7864 117.844 72.5454 120.462 73.0583" stroke="#3BAA06" stroke-width="0.5" stroke-linecap="round"/>
<path d="M184.743 68.4675C178.875 81.3055 172.372 88.5213 165.115 85.6352C157.857 82.7491 157.904 74.4645 163.773 61.6264C167.704 54.1991 171.888 51.2296 176.552 47.7284C182.69 43.1208 186.366 39.1446 186.366 39.1446C186.366 39.1446 187.697 43.9085 187.492 51.5795C187.367 56.2652 187.641 62.1279 184.743 68.4675Z" fill="#05441E"/>
<path d="M184.562 45.6884C184.562 45.6884 166.714 74.0133 159.619 93.8101C152.327 114.153 152.046 168.955 152.046 168.955" stroke="#3BAA06" stroke-width="2" stroke-linecap="round"/>
<path d="M163.067 63.9456C161.096 71.2969 161.85 75.5261 164.915 81.8728" stroke="#3BAA06" stroke-width="0.5" stroke-linecap="round"/>
<path d="M180.308 76.3509C175.171 82.2216 172.103 80.2252 164.816 81.7315" stroke="#3BAA06" stroke-width="0.5" stroke-linecap="round"/>
<path d="M167.008 57.0538C165.189 63.8388 166.423 66.8429 169.252 72.7007" stroke="#3BAA06" stroke-width="0.5" stroke-linecap="round"/>
<path d="M185.234 66.7023C180.493 72.1208 176.827 71.6127 170.102 73.0029" stroke="#3BAA06" stroke-width="0.5" stroke-linecap="round"/>
<path d="M171.441 51.9998C169.364 57.9501 170.846 60.9521 173.325 66.1861" stroke="#3BAA06" stroke-width="0.5" stroke-linecap="round"/>
<path d="M186.712 60.7294C182.843 65.8419 179.241 64.7828 173.261 66.061" stroke="#3BAA06" stroke-width="0.5" stroke-linecap="round"/>
<path d="M178.36 46.6343C177.004 50.5584 177.248 52.8799 178.665 56.4294" stroke="#3BAA06" stroke-width="0.5" stroke-linecap="round"/>
<path d="M187.204 50.6215C184.644 53.9827 182.345 55.1681 178.448 56.2328" stroke="#3BAA06" stroke-width="0.5" stroke-linecap="round"/>
<path d="M175.492 48.7836C174.046 53.4176 174.325 56.1647 175.883 60.3703" stroke="#3BAA06" stroke-width="0.5" stroke-linecap="round"/>
<path d="M187.204 54.2971C184.088 58.1504 181.272 59.3181 176.727 60.67" stroke="#3BAA06" stroke-width="0.5" stroke-linecap="round"/>
<path d="M181.293 44.1891C180.133 46.7203 180.308 48.2075 181.434 50.4713" stroke="#3BAA06" stroke-width="0.5" stroke-linecap="round"/>
<path d="M187.204 46.9458C185.723 49.3269 184.529 50.0859 181.91 50.5989" stroke="#3BAA06" stroke-width="0.5" stroke-linecap="round"/>
<path d="M177.199 97.7522C172.806 107.362 167.939 112.764 162.506 110.603C157.073 108.443 157.109 102.241 161.502 92.6313C164.444 87.0715 167.577 84.8487 171.068 82.2278C175.662 78.7787 178.414 75.8023 178.414 75.8023C178.414 75.8023 179.41 79.3684 179.257 85.1106C179.163 88.6181 179.369 93.0067 177.199 97.7522Z" fill="#05441E"/>
<path d="M177.063 80.7007C177.063 80.7007 163.703 101.904 158.392 116.723C152.934 131.951 152.724 172.973 152.724 172.973" stroke="#3BAA06" stroke-width="2" stroke-linecap="round"/>
<path d="M160.973 94.3673C159.498 99.8702 160.062 103.036 162.357 107.787" stroke="#3BAA06" stroke-width="0.5" stroke-linecap="round"/>
<path d="M173.879 103.653C170.034 108.048 167.737 106.554 162.283 107.681" stroke="#3BAA06" stroke-width="0.5" stroke-linecap="round"/>
<path d="M163.923 89.2084C162.562 94.2874 163.485 96.5361 165.603 100.921" stroke="#3BAA06" stroke-width="0.5" stroke-linecap="round"/>
<path d="M177.566 96.4309C174.017 100.487 171.273 100.107 166.239 101.147" stroke="#3BAA06" stroke-width="0.5" stroke-linecap="round"/>
<path d="M167.242 85.4252C165.687 89.8793 166.796 92.1265 168.652 96.0445" stroke="#3BAA06" stroke-width="0.5" stroke-linecap="round"/>
<path d="M178.673 91.9599C175.777 95.7868 173.081 94.994 168.604 95.9508" stroke="#3BAA06" stroke-width="0.5" stroke-linecap="round"/>
<path d="M172.421 81.4088C171.406 84.3462 171.589 86.084 172.649 88.741" stroke="#3BAA06" stroke-width="0.5" stroke-linecap="round"/>
<path d="M179.041 84.3934C177.125 86.9094 175.404 87.7968 172.487 88.5938" stroke="#3BAA06" stroke-width="0.5" stroke-linecap="round"/>
<path d="M170.274 83.0177C169.192 86.4865 169.401 88.5429 170.567 91.691" stroke="#3BAA06" stroke-width="0.5" stroke-linecap="round"/>
<path d="M179.041 87.1448C176.709 90.0293 174.601 90.9034 171.199 91.9153" stroke="#3BAA06" stroke-width="0.5" stroke-linecap="round"/>
<path d="M174.616 79.5784C173.748 81.4732 173.879 82.5865 174.722 84.281" stroke="#3BAA06" stroke-width="0.5" stroke-linecap="round"/>
<path d="M179.041 81.642C177.933 83.4244 177.039 83.9925 175.079 84.3765" stroke="#3BAA06" stroke-width="0.5" stroke-linecap="round"/>
<path d="M122.567 136.452C128.315 138.153 132.388 138.195 133.35 135.368C134.311 132.541 131.584 130.377 125.836 128.677C122.369 127.845 120.296 128.258 117.924 128.667C114.801 129.206 112.532 129.209 112.532 129.209C112.532 129.209 113.743 130.84 116.311 132.798C117.879 133.993 119.728 135.612 122.567 136.452Z" fill="#05441E"/>
<path d="M115.151 130.414C115.151 130.414 131.235 133.781 139.586 136.961C147.937 140.14 151.135 177.226 151.135 177.226" stroke="#3BAA06" stroke-width="2" stroke-linecap="round"/>
<path d="M126.781 129.085C129.708 130.455 130.895 131.781 132.169 134.323" stroke="#3BAA06" stroke-width="0.5" stroke-linecap="round"/>
<path d="M126.315 137.259C129.589 137.338 129.741 135.938 132.149 134.257" stroke="#3BAA06" stroke-width="0.5" stroke-linecap="round"/>
<path d="M123.487 128.397C126.188 129.662 126.849 130.803 128.025 133.149" stroke="#3BAA06" stroke-width="0.5" stroke-linecap="round"/>
<path d="M121.859 136.128C124.881 136.2 125.678 135.022 127.9 133.47" stroke="#3BAA06" stroke-width="0.5" stroke-linecap="round"/>
<path d="M120.666 128.333C123.162 129.304 123.756 130.516 124.82 132.598" stroke="#3BAA06" stroke-width="0.5" stroke-linecap="round"/>
<path d="M119.514 134.98C122.206 135.22 122.805 133.915 124.795 132.547" stroke="#3BAA06" stroke-width="0.5" stroke-linecap="round"/>
<path d="M117.09 128.895C118.732 129.54 119.429 130.219 120.219 131.556" stroke="#3BAA06" stroke-width="0.5" stroke-linecap="round"/>
<path d="M116.073 132.464C117.847 132.617 118.839 132.274 120.212 131.443" stroke="#3BAA06" stroke-width="0.5" stroke-linecap="round"/>
<path d="M118.548 128.642C120.446 129.448 121.273 130.249 122.242 131.799" stroke="#3BAA06" stroke-width="0.5" stroke-linecap="round"/>
<path d="M117.277 133.43C119.358 133.554 120.481 133.058 122.118 132.118" stroke="#3BAA06" stroke-width="0.5" stroke-linecap="round"/>
<path d="M115.518 129.089C116.652 129.423 117.094 129.864 117.54 130.78" stroke="#3BAA06" stroke-width="0.5" stroke-linecap="round"/>
<path d="M114.868 131.498C116.037 131.702 116.6 131.56 117.456 130.949" stroke="#3BAA06" stroke-width="0.5" stroke-linecap="round"/>
<path d="M124.883 154.405C130.261 156.769 134.236 157.309 135.572 154.663C136.909 152.018 135.331 150.497 129.952 148.133C126.681 146.897 123.663 146.958 121.287 147.068C118.16 147.213 116.094 146.102 116.094 146.102C116.094 146.102 117.048 147.844 119.283 150.07C120.647 151.43 122.227 153.238 124.883 154.405Z" fill="#05441E"/>
<path d="M131.689 149.37C134.356 151.066 134.044 151.195 134.932 153.835" stroke="#3BAA06" stroke-width="0.5" stroke-linecap="round"/>
<path d="M128.603 155.618C131.791 156.094 132.332 155.117 134.922 153.768" stroke="#3BAA06" stroke-width="0.5" stroke-linecap="round"/>
<path d="M127.838 147.613C130.3 149.179 130.227 149.745 131.047 152.181" stroke="#3BAA06" stroke-width="0.5" stroke-linecap="round"/>
<path d="M125.218 154.429C128.16 154.869 128.49 153.725 130.88 152.48" stroke="#3BAA06" stroke-width="0.5" stroke-linecap="round"/>
<path d="M125.151 147.278C127.454 148.532 127.245 149.087 127.992 151.251" stroke="#3BAA06" stroke-width="0.5" stroke-linecap="round"/>
<path d="M122.944 153.124C125.54 153.688 125.839 152.293 127.976 151.198" stroke="#3BAA06" stroke-width="0.5" stroke-linecap="round"/>
<path d="M121.049 147.275C122.563 148.106 123.058 148.269 123.643 149.671" stroke="#3BAA06" stroke-width="0.5" stroke-linecap="round"/>
<path d="M119.464 150.052C121.176 150.419 122.194 150.204 123.652 149.56" stroke="#3BAA06" stroke-width="0.5" stroke-linecap="round"/>
<path d="M122.697 147.226C124.439 148.245 124.857 148.523 125.586 150.155" stroke="#3BAA06" stroke-width="0.5" stroke-linecap="round"/>
<path d="M120.742 151.318C122.758 151.694 123.688 151.171 125.42 150.453" stroke="#3BAA06" stroke-width="0.5" stroke-linecap="round"/>
<path d="M119.669 147.358C120.636 148.244 120.826 147.636 121.134 148.585" stroke="#3BAA06" stroke-width="0.5" stroke-linecap="round"/>
<path d="M118.422 148.961C119.536 149.303 120.106 149.234 121.028 148.741" stroke="#3BAA06" stroke-width="0.5" stroke-linecap="round"/>
<path d="M119.547 148.276C119.547 148.276 137.613 154.922 145.654 158.367C154.875 162.317 151.978 171.959 151.978 171.959" stroke="#3BAA06" stroke-width="2" stroke-linecap="round"/>
<path d="M139.032 147.132C141.955 151.089 144.68 153.109 146.917 151.671C149.154 150.233 148.53 147.441 145.606 143.483C143.734 141.228 142.104 140.493 140.273 139.61C137.863 138.447 136.33 137.34 136.33 137.34C136.33 137.34 136.231 139.033 136.864 141.609C137.25 143.182 137.588 145.178 139.032 147.132Z" fill="#05441E"/>
<path d="M137.42 139.433C137.42 139.433 145.524 147.851 149.372 154.079C153.327 160.478 154.384 176.66 154.384 176.66" stroke="#3BAA06" stroke-width="2" stroke-linecap="round"/>
<path d="M146.015 144.221C147.22 146.576 147.276 148.051 146.708 150.389" stroke="#3BAA06" stroke-width="0.5" stroke-linecap="round"/>
<path d="M141.108 149.509C143.273 151.162 144.162 150.292 146.731 150.335" stroke="#3BAA06" stroke-width="0.5" stroke-linecap="round"/>
<path d="M144.179 142.147C145.291 144.32 145.095 145.413 144.571 147.571" stroke="#3BAA06" stroke-width="0.5" stroke-linecap="round"/>
<path d="M138.737 146.568C140.735 148.093 141.935 147.687 144.306 147.727" stroke="#3BAA06" stroke-width="0.5" stroke-linecap="round"/>
<path d="M142.311 140.725C143.449 142.6 143.17 143.708 142.718 145.632" stroke="#3BAA06" stroke-width="0.5" stroke-linecap="round"/>
<path d="M137.799 144.646C139.481 146.124 140.618 145.537 142.73 145.586" stroke="#3BAA06" stroke-width="0.5" stroke-linecap="round"/>
<path d="M139.582 139.356C140.328 140.594 140.416 141.393 140.199 142.681" stroke="#3BAA06" stroke-width="0.5" stroke-linecap="round"/>
<path d="M136.891 141.267C138.001 142.238 138.864 142.491 140.258 142.601" stroke="#3BAA06" stroke-width="0.5" stroke-linecap="round"/>
<path d="M140.708 139.898C141.536 141.37 141.644 142.314 141.427 143.833" stroke="#3BAA06" stroke-width="0.5" stroke-linecap="round"/>
<path d="M137.161 142.507C138.495 143.609 139.531 143.823 141.164 143.988" stroke="#3BAA06" stroke-width="0.5" stroke-linecap="round"/>
<path d="M138.413 138.718C138.99 139.498 139.04 140.012 138.827 140.847" stroke="#3BAA06" stroke-width="0.5" stroke-linecap="round"/>
<path d="M136.621 140.026C137.295 140.735 137.754 140.915 138.676 140.921" stroke="#3BAA06" stroke-width="0.5" stroke-linecap="round"/>
<path d="M138.974 127.79C142.727 136 146.885 140.614 151.526 138.768C156.167 136.923 156.137 131.625 152.384 123.416C149.871 118.666 147.195 116.767 144.212 114.528C140.288 111.582 137.936 109.039 137.936 109.039C137.936 109.039 137.086 112.086 137.217 116.991C137.297 119.987 137.121 123.736 138.974 127.79Z" fill="#05441E"/>
<path d="M139.091 113.224C139.091 113.224 150.504 131.337 155.041 143.996C159.703 157.005 162.203 178.478 162.203 178.478" stroke="#3BAA06" stroke-width="2" stroke-linecap="round"/>
<path d="M152.836 124.899C154.096 129.6 153.614 132.304 151.654 136.363" stroke="#3BAA06" stroke-width="0.5" stroke-linecap="round"/>
<path d="M141.811 132.831C145.096 136.586 147.058 135.309 151.717 136.272" stroke="#3BAA06" stroke-width="0.5" stroke-linecap="round"/>
<path d="M150.316 120.492C151.479 124.83 150.69 126.751 148.881 130.497" stroke="#3BAA06" stroke-width="0.5" stroke-linecap="round"/>
<path d="M138.661 126.662C141.692 130.127 144.037 129.802 148.337 130.691" stroke="#3BAA06" stroke-width="0.5" stroke-linecap="round"/>
<path d="M147.481 117.26C148.809 121.065 147.862 122.985 146.276 126.331" stroke="#3BAA06" stroke-width="0.5" stroke-linecap="round"/>
<path d="M137.716 122.842C140.19 126.111 142.493 125.434 146.317 126.251" stroke="#3BAA06" stroke-width="0.5" stroke-linecap="round"/>
<path d="M143.056 113.829C143.923 116.338 143.767 117.823 142.861 120.092" stroke="#3BAA06" stroke-width="0.5" stroke-linecap="round"/>
<path d="M137.401 116.378C139.038 118.528 140.508 119.286 143 119.967" stroke="#3BAA06" stroke-width="0.5" stroke-linecap="round"/>
<path d="M144.89 115.203C145.815 118.166 145.637 119.923 144.64 122.612" stroke="#3BAA06" stroke-width="0.5" stroke-linecap="round"/>
<path d="M137.401 118.729C139.393 121.193 141.194 121.94 144.1 122.804" stroke="#3BAA06" stroke-width="0.5" stroke-linecap="round"/>
<path d="M141.181 112.265C141.923 113.884 141.811 114.835 141.091 116.282" stroke="#3BAA06" stroke-width="0.5" stroke-linecap="round"/>
<path d="M137.401 114.028C138.348 115.551 139.112 116.036 140.786 116.364" stroke="#3BAA06" stroke-width="0.5" stroke-linecap="round"/>
<g filter="url(#filter0_f_61_67091)">
<path d="M216.644 228C216.644 232.971 188.323 235.5 153.388 235.5C118.452 235.5 90.1315 232.971 90.1315 228C90.1315 223.029 118.452 219 153.388 219C188.323 219 216.644 223.029 216.644 228Z" fill="#D9D9D9"/>
</g>
<path d="M115.053 175.211C114.918 174.588 115.393 174 116.03 174H190.173C190.822 174 191.299 174.609 191.144 175.239L178.234 227.739C178.124 228.186 177.723 228.5 177.263 228.5H127.391C126.92 228.5 126.513 228.172 126.414 227.711L115.053 175.211Z" fill="#B4771A"/>
<path d="M115.2 175.89C115.066 175.271 114.999 174.962 115.071 174.718C115.146 174.463 115.319 174.249 115.551 174.122C115.775 174 116.092 174 116.724 174H189.458C190.108 174 190.432 174 190.659 174.126C190.894 174.257 191.067 174.477 191.138 174.737C191.206 174.987 191.128 175.302 190.973 175.933L178.339 227.313C178.239 227.719 178.189 227.922 178.081 228.076C177.968 228.236 177.81 228.36 177.627 228.431C177.451 228.5 177.242 228.5 176.824 228.5H127.843C127.413 228.5 127.199 228.5 127.02 228.429C126.834 228.354 126.674 228.225 126.562 228.059C126.454 227.9 126.409 227.69 126.318 227.27L115.2 175.89Z" fill="url(#paint0_linear_61_67091)"/>
<path d="M115.2 175.89C115.066 175.271 114.999 174.962 115.071 174.718C115.146 174.463 115.319 174.249 115.551 174.122C115.775 174 116.092 174 116.724 174H189.458C190.108 174 190.432 174 190.659 174.126C190.894 174.257 191.067 174.477 191.138 174.737C191.206 174.987 191.128 175.302 190.973 175.933L178.339 227.313C178.239 227.719 178.189 227.922 178.081 228.076C177.968 228.236 177.81 228.36 177.627 228.431C177.451 228.5 177.242 228.5 176.824 228.5H127.843C127.413 228.5 127.199 228.5 127.02 228.429C126.834 228.354 126.674 228.225 126.562 228.059C126.454 227.9 126.409 227.69 126.318 227.27L115.2 175.89Z" fill="url(#paint1_linear_61_67091)"/>
<g filter="url(#filter1_d_61_67091)">
<path d="M110.669 169.145C110.581 168.541 111.049 168 111.659 168H193.987C194.616 168 195.089 168.574 194.969 169.191L193.214 178.191C193.123 178.661 192.711 179 192.233 179H112.975C112.478 179 112.057 178.636 111.985 178.145L110.669 169.145Z" fill="url(#paint2_linear_61_67091)"/>
</g>
<defs>
<filter id="filter0_f_61_67091" x="86.1315" y="215" width="134.512" height="24.5" filterUnits="userSpaceOnUse" color-interpolation-filters="sRGB">
<feFlood flood-opacity="0" result="BackgroundImageFix"/>
<feBlend mode="normal" in="SourceGraphic" in2="BackgroundImageFix" result="shape"/>
<feGaussianBlur stdDeviation="2" result="effect1_foregroundBlur_61_67091"/>
</filter>
<filter id="filter1_d_61_67091" x="106.659" y="168" width="92.3289" height="19" filterUnits="userSpaceOnUse" color-interpolation-filters="sRGB">
<feFlood flood-opacity="0" result="BackgroundImageFix"/>
<feColorMatrix in="SourceAlpha" type="matrix" values="0 0 0 0 0 0 0 0 0 0 0 0 0 0 0 0 0 0 127 0" result="hardAlpha"/>
<feOffset dy="4"/>
<feGaussianBlur stdDeviation="2"/>
<feComposite in2="hardAlpha" operator="out"/>
<feColorMatrix type="matrix" values="0 0 0 0 0 0 0 0 0 0 0 0 0 0 0 0 0 0 0.25 0"/>
<feBlend mode="normal" in2="BackgroundImageFix" result="effect1_dropShadow_61_67091"/>
<feBlend mode="normal" in="SourceGraphic" in2="effect1_dropShadow_61_67091" result="shape"/>
</filter>
<linearGradient id="paint0_linear_61_67091" x1="153.388" y1="206" x2="176.613" y2="214.489" gradientUnits="userSpaceOnUse">
<stop stop-color="#A8690A" stop-opacity="0.81"/>
<stop offset="0.939762" stop-color="#6D4303"/>
</linearGradient>
<linearGradient id="paint1_linear_61_67091" x1="156.068" y1="206" x2="128.132" y2="216.737" gradientUnits="userSpaceOnUse">
<stop stop-color="#C28427" stop-opacity="0.4"/>
<stop offset="1" stop-color="#885508"/>
</linearGradient>
<linearGradient id="paint2_linear_61_67091" x1="110.502" y1="168" x2="195.201" y2="168" gradientUnits="userSpaceOnUse">
<stop offset="0.00865841" stop-color="#744704"/>
<stop offset="0.510756" stop-color="#CD851A"/>
<stop offset="1" stop-color="#724603"/>
</linearGradient>
</defs>
</svg>
