<svg width="303" height="271" viewBox="0 0 303 271" fill="none" xmlns="http://www.w3.org/2000/svg">
<line x1="111.641" y1="108.299" x2="127.299" y2="151.359" stroke="#7ECF57" stroke-linecap="round"/>
<line x1="150.51" y1="91.4895" x2="151.489" y2="138.49" stroke="#7ECF57" stroke-linecap="round"/>
<line x1="163.51" y1="100.489" x2="164.489" y2="147.49" stroke="#7ECF57" stroke-linecap="round"/>
<line x1="191.289" y1="108.645" x2="175.645" y2="149.711" stroke="#7ECF57" stroke-linecap="round"/>
<line x1="125.5" y1="123.5" x2="125.5" y2="137.5" stroke="#7ECF57" stroke-linecap="round"/>
<line x1="171.5" y1="124.5" x2="171.5" y2="138.5" stroke="#7ECF57" stroke-linecap="round"/>
<line x1="116.632" y1="124.316" x2="122.316" y2="141.368" stroke="#7ECF57" stroke-linecap="round"/>
<line x1="186.479" y1="98.5204" x2="185.52" y2="121.521" stroke="#7ECF57" stroke-linecap="round"/>
<g filter="url(#filter0_f_61_74629)">
<path d="M210 197C210 201.971 183.585 204.5 151 204.5C118.415 204.5 92 201.971 92 197C92 192.029 118.415 188 151 188C183.585 188 210 192.029 210 197Z" fill="#D9D9D9"/>
</g>
<path d="M115.242 144.198C115.117 143.579 115.59 143 116.222 143H185.245C185.887 143 186.363 143.597 186.219 144.224L174.178 196.724C174.074 197.178 173.67 197.5 173.203 197.5H126.818C126.342 197.5 125.932 197.164 125.838 196.698L115.242 144.198Z" fill="#B4771A"/>
<path d="M115.377 144.869C115.254 144.256 115.192 143.95 115.266 143.708C115.342 143.456 115.515 143.245 115.746 143.12C115.969 143 116.281 143 116.906 143H184.542C185.182 143 185.502 143 185.727 143.124C185.961 143.253 186.133 143.469 186.206 143.726C186.277 143.973 186.205 144.285 186.062 144.909L174.278 196.289C174.183 196.702 174.135 196.909 174.028 197.066C173.915 197.23 173.756 197.357 173.571 197.43C173.394 197.5 173.182 197.5 172.757 197.5H127.277C126.841 197.5 126.624 197.5 126.444 197.427C126.256 197.351 126.095 197.22 125.984 197.051C125.877 196.888 125.834 196.675 125.747 196.249L115.377 144.869Z" fill="url(#paint0_linear_61_74629)"/>
<path d="M115.377 144.869C115.254 144.256 115.192 143.95 115.266 143.708C115.342 143.456 115.515 143.245 115.746 143.12C115.969 143 116.281 143 116.906 143H184.542C185.182 143 185.502 143 185.727 143.124C185.961 143.253 186.133 143.469 186.206 143.726C186.277 143.973 186.205 144.285 186.062 144.909L174.278 196.289C174.183 196.702 174.135 196.909 174.028 197.066C173.915 197.23 173.756 197.357 173.571 197.43C173.394 197.5 173.182 197.5 172.757 197.5H127.277C126.841 197.5 126.624 197.5 126.444 197.427C126.256 197.351 126.095 197.22 125.984 197.051C125.877 196.888 125.834 196.675 125.747 196.249L115.377 144.869Z" fill="url(#paint1_linear_61_74629)"/>
<g filter="url(#filter1_d_61_74629)">
<path d="M111.155 138.135C111.073 137.535 111.54 137 112.146 137H188.802C189.426 137 189.897 137.565 189.786 138.179L188.149 147.179C188.063 147.654 187.649 148 187.165 148H113.373C112.873 148 112.45 147.631 112.382 147.135L111.155 138.135Z" fill="url(#paint2_linear_61_74629)"/>
</g>
<path d="M103.991 118.246C97.1386 118.384 88.3009 113.5 88.2037 108.677C88.1065 103.853 96.7357 98.388 103.588 98.2499C110.44 98.1119 116.101 103.289 116.198 108.113C116.295 112.936 110.842 118.108 103.991 118.246Z" fill="#326B2D"/>
<path d="M111.81 106.055C112.092 106.081 112.213 106.426 112.009 106.622C111.951 106.678 111.915 106.754 111.908 106.834L111.905 106.881C111.884 107.142 111.648 107.332 111.39 107.296L111.16 107.264C111.082 107.254 111.002 107.262 110.928 107.29L110.639 107.397C110.426 107.476 110.206 107.297 110.241 107.072C110.256 106.974 110.221 106.875 110.148 106.808C109.981 106.654 110.041 106.376 110.257 106.305L110.549 106.209C110.624 106.184 110.692 106.141 110.746 106.084L110.906 105.916C111.086 105.726 111.388 105.727 111.567 105.918L111.599 105.952C111.655 106.011 111.73 106.048 111.81 106.055Z" fill="#D8FF86"/>
<path d="M160.507 120.769C158.363 131.323 144.843 142.588 134.56 140.499C124.276 138.41 115.733 122.664 117.877 112.11C120.021 101.556 133.035 95.2906 143.319 97.3795C153.602 99.4684 162.65 110.215 160.507 120.769Z" fill="#326B2D"/>
<path d="M183.667 104.325C186.171 112.781 180.72 126.121 172.481 128.56C164.242 131 152.015 122.894 149.512 114.438C147.008 105.982 154.013 96.4518 162.252 94.0123C170.491 91.5728 181.163 95.869 183.667 104.325Z" fill="#42903C"/>
<g filter="url(#filter2_f_61_74629)">
<path d="M110.084 105.122C110.439 104.778 111.029 104.898 111.222 105.353C111.285 105.502 111.397 105.625 111.54 105.701C111.977 105.932 112.046 106.53 111.672 106.854C111.55 106.96 111.468 107.105 111.44 107.265C111.355 107.752 110.807 108.002 110.384 107.747C110.245 107.663 110.082 107.63 109.921 107.653C109.432 107.722 109.025 107.279 109.137 106.797C109.173 106.639 109.154 106.474 109.083 106.328C108.866 105.884 109.162 105.36 109.655 105.318C109.816 105.304 109.968 105.235 110.084 105.122Z" fill="#D8FF86"/>
</g>
<path d="M132.855 105.697C129.939 111.354 120.598 115.667 115.238 112.903C109.878 110.14 107.718 99.8983 110.634 94.2419C113.55 88.5854 121.791 87.0302 127.152 89.7936C132.512 92.5569 135.771 100.041 132.855 105.697Z" fill="#42903C"/>
<path d="M157.669 131.58C158.238 136.253 154.319 142.775 149.891 143.314C145.463 143.854 139.883 138.488 139.314 133.816C138.745 129.143 143.139 124.764 147.567 124.225C151.994 123.686 157.1 126.908 157.669 131.58Z" fill="#42903C"/>
<path d="M143.421 94.3024C137.082 93.7413 129.336 89.2241 129.657 85.5994C129.978 81.9747 138.412 78.7153 144.751 79.2764C151.09 79.8374 155.877 84.2669 155.556 87.8916C155.235 91.5163 149.76 94.8634 143.421 94.3024Z" fill="#42903C"/>
<path d="M195.808 103.302C202.147 102.741 209.892 98.2241 209.571 94.5994C209.251 90.9747 200.817 87.7153 194.478 88.2764C188.139 88.8374 183.352 93.2669 183.673 96.8916C183.993 100.516 189.469 103.863 195.808 103.302Z" fill="#326B2D"/>
<path d="M178.398 139.992C182.637 147.37 189.043 156.193 196.015 152.141C202.988 148.089 205.229 134.24 200.99 126.863C196.751 119.486 185.669 117.949 178.697 122.001C171.724 126.053 174.159 132.615 178.398 139.992Z" fill="#326B2D"/>
<g filter="url(#filter3_f_61_74629)">
<path d="M186.084 96.122C186.439 95.778 187.029 95.8978 187.222 96.3532C187.285 96.5022 187.397 96.625 187.54 96.7008C187.977 96.9322 188.046 97.5302 187.672 97.8543C187.55 97.9603 187.468 98.1053 187.44 98.2648C187.355 98.7519 186.807 99.0017 186.384 98.7466C186.245 98.6631 186.082 98.6299 185.921 98.6527C185.432 98.7223 185.025 98.2786 185.137 97.7969C185.173 97.6393 185.154 97.4738 185.083 97.3284C184.866 96.8843 185.162 96.3603 185.655 96.3177C185.816 96.3038 185.968 96.2347 186.084 96.122Z" fill="#D8FF86"/>
</g>
<path d="M179.331 95.9484C187.798 96.7865 198.701 96.7022 199.456 88.6732C200.211 80.6441 193.63 69.6776 185.163 68.8395C176.696 68.0014 165.618 77.22 164.863 85.2491C164.108 93.2781 170.864 95.1103 179.331 95.9484Z" fill="#42913C"/>
<path d="M119.209 135.068C115.607 140.899 106.71 145.673 102.605 143.137C98.5008 140.602 98.5921 130.388 102.194 124.557C105.796 118.727 113.216 116.78 117.321 119.316C121.425 121.852 122.811 129.238 119.209 135.068Z" fill="#326B2D"/>
<path d="M190.488 122.29C195.728 126.707 205.67 128.469 208.779 124.78C211.889 121.092 208.618 111.415 203.378 106.998C198.138 102.581 190.481 103.045 187.371 106.734C184.262 110.423 185.248 117.873 190.488 122.29Z" fill="#326B2D"/>
<path d="M142.59 105.123C143.024 104.703 143.744 104.849 143.98 105.405C144.057 105.587 144.194 105.737 144.369 105.83C144.903 106.112 144.986 106.843 144.53 107.238C144.381 107.368 144.28 107.545 144.246 107.74C144.143 108.335 143.474 108.64 142.957 108.328C142.787 108.226 142.588 108.186 142.392 108.213C141.794 108.298 141.298 107.757 141.434 107.168C141.479 106.976 141.456 106.774 141.369 106.596C141.103 106.054 141.465 105.414 142.066 105.362C142.263 105.345 142.448 105.261 142.59 105.123Z" fill="#D8FF86"/>
<g filter="url(#filter4_d_61_74629)">
<path d="M163.272 100.199C163.627 99.8549 164.217 99.9747 164.41 100.43C164.473 100.579 164.585 100.702 164.728 100.778C165.165 101.009 165.234 101.607 164.86 101.931C164.738 102.037 164.656 102.182 164.628 102.342C164.543 102.829 163.995 103.079 163.572 102.823C163.433 102.74 163.27 102.707 163.11 102.73C162.62 102.799 162.213 102.356 162.325 101.874C162.362 101.716 162.343 101.551 162.271 101.405C162.054 100.961 162.35 100.437 162.843 100.395C163.004 100.381 163.156 100.312 163.272 100.199Z" fill="#D8FF86"/>
</g>
<g filter="url(#filter5_f_61_74629)">
<path d="M163.084 100.122C163.439 99.778 164.029 99.8978 164.222 100.353C164.285 100.502 164.397 100.625 164.54 100.701C164.977 100.932 165.046 101.53 164.672 101.854C164.55 101.96 164.468 102.105 164.44 102.265C164.355 102.752 163.807 103.002 163.384 102.747C163.245 102.663 163.082 102.63 162.921 102.653C162.432 102.722 162.025 102.279 162.137 101.797C162.173 101.639 162.154 101.474 162.083 101.328C161.866 100.884 162.162 100.36 162.655 100.318C162.816 100.304 162.968 100.235 163.084 100.122Z" fill="#D8FF86"/>
</g>
<g filter="url(#filter6_f_61_74629)">
<path d="M150.084 87.122C150.439 86.778 151.029 86.8978 151.222 87.3532C151.285 87.5022 151.397 87.625 151.54 87.7008C151.977 87.9322 152.046 88.5302 151.672 88.8543C151.55 88.9603 151.468 89.1053 151.44 89.2648C151.355 89.7519 150.807 90.0017 150.384 89.7466C150.245 89.6631 150.082 89.6299 149.921 89.6527C149.432 89.7223 149.025 89.2786 149.137 88.7969C149.173 88.6393 149.154 88.4738 149.083 88.3284C148.866 87.8843 149.162 87.3603 149.655 87.3177C149.816 87.3038 149.968 87.2347 150.084 87.122Z" fill="#D8FF86"/>
</g>
<g filter="url(#filter7_f_61_74629)">
<path d="M174.084 77.122C174.439 76.778 175.029 76.8978 175.222 77.3532C175.285 77.5022 175.397 77.625 175.54 77.7008C175.977 77.9322 176.046 78.5302 175.672 78.8543C175.55 78.9603 175.468 79.1053 175.44 79.2648C175.355 79.7519 174.807 80.0017 174.384 79.7466C174.245 79.6631 174.082 79.6299 173.921 79.6527C173.432 79.7223 173.025 79.2786 173.137 78.7969C173.173 78.6393 173.154 78.4738 173.083 78.3284C172.866 77.8843 173.162 77.3603 173.655 77.3177C173.816 77.3038 173.968 77.2347 174.084 77.122Z" fill="#D8FF86"/>
</g>
<g filter="url(#filter8_f_61_74629)">
<path d="M192.084 108.122C192.439 107.778 193.029 107.898 193.222 108.353C193.285 108.502 193.397 108.625 193.54 108.701C193.977 108.932 194.046 109.53 193.672 109.854C193.55 109.96 193.468 110.105 193.44 110.265C193.355 110.752 192.807 111.002 192.384 110.747C192.245 110.663 192.082 110.63 191.921 110.653C191.432 110.722 191.025 110.279 191.137 109.797C191.173 109.639 191.154 109.474 191.083 109.328C190.866 108.884 191.162 108.36 191.655 108.318C191.816 108.304 191.968 108.235 192.084 108.122Z" fill="#D8FF86"/>
</g>
<g filter="url(#filter9_f_61_74629)">
<path d="M188.084 125.122C188.439 124.778 189.029 124.898 189.222 125.353C189.285 125.502 189.397 125.625 189.54 125.701C189.977 125.932 190.046 126.53 189.672 126.854C189.55 126.96 189.468 127.105 189.44 127.265C189.355 127.752 188.807 128.002 188.384 127.747C188.245 127.663 188.082 127.63 187.921 127.653C187.432 127.722 187.025 127.279 187.137 126.797C187.173 126.639 187.154 126.474 187.083 126.328C186.866 125.884 187.162 125.36 187.655 125.318C187.816 125.304 187.968 125.235 188.084 125.122Z" fill="#D8FF86"/>
</g>
<g filter="url(#filter10_f_61_74629)">
<path d="M148.084 127.122C148.439 126.778 149.029 126.898 149.222 127.353C149.285 127.502 149.397 127.625 149.54 127.701C149.977 127.932 150.046 128.53 149.672 128.854C149.55 128.96 149.468 129.105 149.44 129.265C149.355 129.752 148.807 130.002 148.384 129.747C148.245 129.663 148.082 129.63 147.921 129.653C147.432 129.722 147.025 129.279 147.137 128.797C147.173 128.639 147.154 128.474 147.083 128.328C146.866 127.884 147.162 127.36 147.655 127.318C147.816 127.304 147.968 127.235 148.084 127.122Z" fill="#D8FF86"/>
</g>
<g filter="url(#filter11_f_61_74629)">
<path d="M142.084 106.122C142.439 105.778 143.029 105.898 143.222 106.353C143.285 106.502 143.397 106.625 143.54 106.701C143.977 106.932 144.046 107.53 143.672 107.854C143.55 107.96 143.468 108.105 143.44 108.265C143.355 108.752 142.807 109.002 142.384 108.747C142.245 108.663 142.082 108.63 141.921 108.653C141.432 108.722 141.025 108.279 141.137 107.797C141.173 107.639 141.154 107.474 141.083 107.328C140.866 106.884 141.162 106.36 141.655 106.318C141.816 106.304 141.968 106.235 142.084 106.122Z" fill="#D8FF86"/>
</g>
<g filter="url(#filter12_f_61_74629)">
<path d="M124.084 93.122C124.439 92.778 125.029 92.8978 125.222 93.3532C125.285 93.5022 125.397 93.625 125.54 93.7008C125.977 93.9322 126.046 94.5302 125.672 94.8543C125.55 94.9603 125.468 95.1053 125.44 95.2648C125.355 95.7519 124.807 96.0017 124.384 95.7466C124.245 95.6631 124.082 95.6299 123.921 95.6527C123.432 95.7223 123.025 95.2786 123.137 94.7969C123.173 94.6393 123.154 94.4738 123.083 94.3284C122.866 93.8843 123.162 93.3603 123.655 93.3177C123.816 93.3038 123.968 93.2347 124.084 93.122Z" fill="#D8FF86"/>
</g>
<g filter="url(#filter13_f_61_74629)">
<path d="M114.084 123.122C114.439 122.778 115.029 122.898 115.222 123.353C115.285 123.502 115.397 123.625 115.54 123.701C115.977 123.932 116.046 124.53 115.672 124.854C115.55 124.96 115.468 125.105 115.44 125.265C115.355 125.752 114.807 126.002 114.384 125.747C114.245 125.663 114.082 125.63 113.921 125.653C113.432 125.722 113.025 125.279 113.137 124.797C113.173 124.639 113.154 124.474 113.083 124.328C112.866 123.884 113.162 123.36 113.655 123.318C113.816 123.304 113.968 123.235 114.084 123.122Z" fill="#D8FF86"/>
</g>
<path d="M124.529 93.6398C124.848 93.468 125.24 93.6701 125.285 94.0296C125.3 94.1473 125.355 94.2563 125.44 94.3382C125.702 94.5885 125.631 95.0238 125.303 95.1778C125.196 95.2282 125.109 95.3141 125.058 95.4209C124.901 95.7474 124.465 95.8143 124.217 95.55C124.136 95.4635 124.027 95.4076 123.91 95.3917C123.551 95.3432 123.352 94.9492 123.527 94.6319C123.584 94.528 123.604 94.4076 123.583 94.2909C123.518 93.9344 123.831 93.624 124.187 93.6922C124.304 93.7145 124.424 93.696 124.529 93.6398Z" fill="#D8FF86"/>
<path d="M147.562 127.669C147.686 127.431 148.009 127.391 148.186 127.592C148.244 127.658 148.323 127.702 148.41 127.717C148.674 127.761 148.812 128.057 148.675 128.287C148.631 128.363 148.613 128.451 148.626 128.538C148.666 128.803 148.427 129.025 148.166 128.967C148.08 128.947 147.99 128.958 147.912 128.997C147.672 129.117 147.387 128.959 147.362 128.692C147.354 128.605 147.316 128.523 147.254 128.46C147.066 128.269 147.129 127.949 147.375 127.843C147.455 127.808 147.521 127.746 147.562 127.669Z" fill="#D8FF86"/>
<path d="M189.889 125.62C189.928 125.163 189.507 124.802 189.073 124.921C188.933 124.96 188.783 124.948 188.65 124.888L188.638 124.882C188.231 124.698 187.772 124.992 187.758 125.446C187.753 125.595 187.698 125.739 187.601 125.85C187.307 126.189 187.436 126.725 187.851 126.887L187.871 126.894C188.008 126.947 188.123 127.046 188.199 127.175L188.209 127.193C188.437 127.583 188.977 127.619 189.252 127.264C189.342 127.147 189.47 127.066 189.613 127.036C190.048 126.942 190.251 126.429 190.003 126.052L189.995 126.041C189.914 125.917 189.877 125.768 189.889 125.62Z" fill="#D8FF86"/>
<path d="M174.828 76.5796C174.478 76.2823 173.94 76.4153 173.785 76.8372C173.734 76.9739 173.638 77.0892 173.511 77.1626L173.5 77.169C173.113 77.3932 173.086 77.9374 173.447 78.2124C173.566 78.303 173.65 78.4316 173.685 78.5753C173.789 79.0112 174.301 79.2181 174.674 78.9738L174.691 78.9623C174.814 78.8817 174.962 78.8452 175.11 78.8588L175.131 78.8607C175.581 78.9019 175.924 78.4838 175.795 78.054C175.752 77.9123 175.761 77.7608 175.819 77.6265C175.996 77.2185 175.696 76.7551 175.245 76.738L175.232 76.7375C175.084 76.7319 174.941 76.6759 174.828 76.5796Z" fill="#D8FF86"/>
<path d="M114.654 122.894C114.89 122.737 115.201 122.929 115.166 123.21C115.155 123.29 115.175 123.371 115.221 123.438L115.248 123.477C115.395 123.692 115.331 123.988 115.108 124.123L114.91 124.243C114.842 124.284 114.785 124.341 114.745 124.409L114.588 124.673C114.472 124.869 114.189 124.868 114.074 124.672C114.024 124.586 113.935 124.53 113.836 124.524C113.609 124.51 113.481 124.257 113.604 124.065L113.77 123.806C113.813 123.74 113.839 123.664 113.845 123.585L113.863 123.354C113.884 123.094 114.12 122.904 114.379 122.94L114.426 122.947C114.506 122.958 114.587 122.939 114.654 122.894Z" fill="#D8FF86"/>
<path d="M151.028 87.1338C151.3 87.0549 151.538 87.332 151.42 87.5892C151.386 87.6626 151.381 87.7459 151.404 87.8232L151.418 87.8684C151.494 88.1185 151.344 88.381 151.09 88.4424L150.865 88.4968C150.788 88.5154 150.717 88.5526 150.658 88.6053L150.428 88.8106C150.259 88.9622 149.989 88.8757 149.939 88.6538C149.917 88.5569 149.849 88.4772 149.756 88.4413C149.544 88.3591 149.498 88.0793 149.673 87.9341L149.91 87.7373C149.971 87.6869 150.018 87.6222 150.048 87.549L150.135 87.3344C150.233 87.0922 150.515 86.9826 150.751 87.0948L150.794 87.115C150.867 87.1497 150.95 87.1564 151.028 87.1338Z" fill="#D8FF86"/>
<path d="M186.347 96.9593C186.075 96.8803 185.837 97.1574 185.955 97.4146C185.989 97.488 185.994 97.5713 185.971 97.6487L185.957 97.6938C185.881 97.9439 186.031 98.2064 186.285 98.2678L186.51 98.3222C186.587 98.3408 186.658 98.3781 186.717 98.4307L186.947 98.636C187.116 98.7876 187.386 98.7011 187.436 98.4792C187.458 98.3823 187.526 98.3026 187.619 98.2667C187.831 98.1846 187.877 97.9048 187.702 97.7595L187.465 97.5628C187.404 97.5123 187.357 97.4476 187.327 97.3744L187.24 97.1599C187.142 96.9177 186.86 96.8081 186.624 96.9202L186.581 96.9404C186.508 96.9751 186.425 96.9818 186.347 96.9593Z" fill="#D8FF86"/>
<path d="M192.077 107.894C191.841 107.737 191.53 107.929 191.565 108.21C191.575 108.29 191.556 108.371 191.51 108.438L191.483 108.477C191.335 108.692 191.399 108.988 191.623 109.123L191.821 109.243C191.889 109.284 191.945 109.341 191.986 109.409L192.143 109.673C192.259 109.869 192.542 109.868 192.656 109.672C192.706 109.586 192.796 109.53 192.895 109.524C193.122 109.51 193.25 109.257 193.127 109.065L192.96 108.806C192.918 108.74 192.892 108.664 192.886 108.585L192.867 108.354C192.846 108.094 192.611 107.904 192.352 107.94L192.305 107.947C192.225 107.958 192.144 107.939 192.077 107.894Z" fill="#D8FF86"/>
<defs>
<filter id="filter0_f_61_74629" x="88" y="184" width="126" height="24.5" filterUnits="userSpaceOnUse" color-interpolation-filters="sRGB">
<feFlood flood-opacity="0" result="BackgroundImageFix"/>
<feBlend mode="normal" in="SourceGraphic" in2="BackgroundImageFix" result="shape"/>
<feGaussianBlur stdDeviation="2" result="effect1_foregroundBlur_61_74629"/>
</filter>
<filter id="filter1_d_61_74629" x="107.145" y="137" width="86.6567" height="19" filterUnits="userSpaceOnUse" color-interpolation-filters="sRGB">
<feFlood flood-opacity="0" result="BackgroundImageFix"/>
<feColorMatrix in="SourceAlpha" type="matrix" values="0 0 0 0 0 0 0 0 0 0 0 0 0 0 0 0 0 0 127 0" result="hardAlpha"/>
<feOffset dy="4"/>
<feGaussianBlur stdDeviation="2"/>
<feComposite in2="hardAlpha" operator="out"/>
<feColorMatrix type="matrix" values="0 0 0 0 0 0 0 0 0 0 0 0 0 0 0 0 0 0 0.25 0"/>
<feBlend mode="normal" in2="BackgroundImageFix" result="effect1_dropShadow_61_74629"/>
<feBlend mode="normal" in="SourceGraphic" in2="effect1_dropShadow_61_74629" result="shape"/>
</filter>
<filter id="filter2_f_61_74629" x="107.011" y="102.924" width="6.90381" height="6.92444" filterUnits="userSpaceOnUse" color-interpolation-filters="sRGB">
<feFlood flood-opacity="0" result="BackgroundImageFix"/>
<feBlend mode="normal" in="SourceGraphic" in2="BackgroundImageFix" result="shape"/>
<feGaussianBlur stdDeviation="1" result="effect1_foregroundBlur_61_74629"/>
</filter>
<filter id="filter3_f_61_74629" x="183.011" y="93.9236" width="6.90381" height="6.92444" filterUnits="userSpaceOnUse" color-interpolation-filters="sRGB">
<feFlood flood-opacity="0" result="BackgroundImageFix"/>
<feBlend mode="normal" in="SourceGraphic" in2="BackgroundImageFix" result="shape"/>
<feGaussianBlur stdDeviation="1" result="effect1_foregroundBlur_61_74629"/>
</filter>
<filter id="filter4_d_61_74629" x="158.199" y="100" width="10.9038" height="10.9244" filterUnits="userSpaceOnUse" color-interpolation-filters="sRGB">
<feFlood flood-opacity="0" result="BackgroundImageFix"/>
<feColorMatrix in="SourceAlpha" type="matrix" values="0 0 0 0 0 0 0 0 0 0 0 0 0 0 0 0 0 0 127 0" result="hardAlpha"/>
<feOffset dy="4"/>
<feGaussianBlur stdDeviation="2"/>
<feComposite in2="hardAlpha" operator="out"/>
<feColorMatrix type="matrix" values="0 0 0 0 0 0 0 0 0 0 0 0 0 0 0 0 0 0 0.25 0"/>
<feBlend mode="normal" in2="BackgroundImageFix" result="effect1_dropShadow_61_74629"/>
<feBlend mode="normal" in="SourceGraphic" in2="effect1_dropShadow_61_74629" result="shape"/>
</filter>
<filter id="filter5_f_61_74629" x="160.011" y="97.9236" width="6.90381" height="6.92444" filterUnits="userSpaceOnUse" color-interpolation-filters="sRGB">
<feFlood flood-opacity="0" result="BackgroundImageFix"/>
<feBlend mode="normal" in="SourceGraphic" in2="BackgroundImageFix" result="shape"/>
<feGaussianBlur stdDeviation="1" result="effect1_foregroundBlur_61_74629"/>
</filter>
<filter id="filter6_f_61_74629" x="147.011" y="84.9236" width="6.90381" height="6.92444" filterUnits="userSpaceOnUse" color-interpolation-filters="sRGB">
<feFlood flood-opacity="0" result="BackgroundImageFix"/>
<feBlend mode="normal" in="SourceGraphic" in2="BackgroundImageFix" result="shape"/>
<feGaussianBlur stdDeviation="1" result="effect1_foregroundBlur_61_74629"/>
</filter>
<filter id="filter7_f_61_74629" x="171.011" y="74.9236" width="6.90381" height="6.92444" filterUnits="userSpaceOnUse" color-interpolation-filters="sRGB">
<feFlood flood-opacity="0" result="BackgroundImageFix"/>
<feBlend mode="normal" in="SourceGraphic" in2="BackgroundImageFix" result="shape"/>
<feGaussianBlur stdDeviation="1" result="effect1_foregroundBlur_61_74629"/>
</filter>
<filter id="filter8_f_61_74629" x="189.011" y="105.924" width="6.90381" height="6.92444" filterUnits="userSpaceOnUse" color-interpolation-filters="sRGB">
<feFlood flood-opacity="0" result="BackgroundImageFix"/>
<feBlend mode="normal" in="SourceGraphic" in2="BackgroundImageFix" result="shape"/>
<feGaussianBlur stdDeviation="1" result="effect1_foregroundBlur_61_74629"/>
</filter>
<filter id="filter9_f_61_74629" x="185.011" y="122.924" width="6.90381" height="6.92444" filterUnits="userSpaceOnUse" color-interpolation-filters="sRGB">
<feFlood flood-opacity="0" result="BackgroundImageFix"/>
<feBlend mode="normal" in="SourceGraphic" in2="BackgroundImageFix" result="shape"/>
<feGaussianBlur stdDeviation="1" result="effect1_foregroundBlur_61_74629"/>
</filter>
<filter id="filter10_f_61_74629" x="145.011" y="124.924" width="6.90381" height="6.92444" filterUnits="userSpaceOnUse" color-interpolation-filters="sRGB">
<feFlood flood-opacity="0" result="BackgroundImageFix"/>
<feBlend mode="normal" in="SourceGraphic" in2="BackgroundImageFix" result="shape"/>
<feGaussianBlur stdDeviation="1" result="effect1_foregroundBlur_61_74629"/>
</filter>
<filter id="filter11_f_61_74629" x="139.011" y="103.924" width="6.90381" height="6.92444" filterUnits="userSpaceOnUse" color-interpolation-filters="sRGB">
<feFlood flood-opacity="0" result="BackgroundImageFix"/>
<feBlend mode="normal" in="SourceGraphic" in2="BackgroundImageFix" result="shape"/>
<feGaussianBlur stdDeviation="1" result="effect1_foregroundBlur_61_74629"/>
</filter>
<filter id="filter12_f_61_74629" x="121.011" y="90.9236" width="6.90381" height="6.92444" filterUnits="userSpaceOnUse" color-interpolation-filters="sRGB">
<feFlood flood-opacity="0" result="BackgroundImageFix"/>
<feBlend mode="normal" in="SourceGraphic" in2="BackgroundImageFix" result="shape"/>
<feGaussianBlur stdDeviation="1" result="effect1_foregroundBlur_61_74629"/>
</filter>
<filter id="filter13_f_61_74629" x="111.011" y="120.924" width="6.90381" height="6.92444" filterUnits="userSpaceOnUse" color-interpolation-filters="sRGB">
<feFlood flood-opacity="0" result="BackgroundImageFix"/>
<feBlend mode="normal" in="SourceGraphic" in2="BackgroundImageFix" result="shape"/>
<feGaussianBlur stdDeviation="1" result="effect1_foregroundBlur_61_74629"/>
</filter>
<linearGradient id="paint0_linear_61_74629" x1="151" y1="175" x2="173" y2="182.5" gradientUnits="userSpaceOnUse">
<stop stop-color="#A8690A" stop-opacity="0.81"/>
<stop offset="0.939762" stop-color="#6D4303"/>
</linearGradient>
<linearGradient id="paint1_linear_61_74629" x1="153.5" y1="175" x2="127" y2="184.5" gradientUnits="userSpaceOnUse">
<stop stop-color="#C28427" stop-opacity="0.4"/>
<stop offset="1" stop-color="#885508"/>
</linearGradient>
<linearGradient id="paint2_linear_61_74629" x1="111" y1="137" x2="190" y2="137" gradientUnits="userSpaceOnUse">
<stop offset="0.00865841" stop-color="#744704"/>
<stop offset="0.510756" stop-color="#CD851A"/>
<stop offset="1" stop-color="#724603"/>
</linearGradient>
</defs>
</svg>
