<svg width="303" height="210" viewBox="0 0 303 210" fill="none" xmlns="http://www.w3.org/2000/svg">
<line x1="111.641" y1="109.299" x2="127.299" y2="152.359" stroke="#7ECF57" stroke-linecap="round"/>
<line x1="150.51" y1="92.4895" x2="151.489" y2="139.49" stroke="#7ECF57" stroke-linecap="round"/>
<line x1="163.51" y1="101.489" x2="164.489" y2="148.49" stroke="#7ECF57" stroke-linecap="round"/>
<line x1="191.289" y1="109.645" x2="175.645" y2="150.711" stroke="#7ECF57" stroke-linecap="round"/>
<line x1="125.5" y1="124.5" x2="125.5" y2="138.5" stroke="#7ECF57" stroke-linecap="round"/>
<line x1="171.5" y1="125.5" x2="171.5" y2="139.5" stroke="#7ECF57" stroke-linecap="round"/>
<line x1="116.632" y1="125.316" x2="122.316" y2="142.368" stroke="#7ECF57" stroke-linecap="round"/>
<line x1="186.479" y1="99.5204" x2="185.52" y2="122.521" stroke="#7ECF57" stroke-linecap="round"/>
<g filter="url(#filter0_f_209_120369)">
<path d="M210 198C210 202.971 183.585 205.5 151 205.5C118.415 205.5 92 202.971 92 198C92 193.029 118.415 189 151 189C183.585 189 210 193.029 210 198Z" fill="#D9D9D9"/>
</g>
<path d="M115.242 145.198C115.117 144.579 115.59 144 116.222 144H185.245C185.887 144 186.363 144.597 186.219 145.224L174.178 197.724C174.074 198.178 173.67 198.5 173.203 198.5H126.818C126.342 198.5 125.932 198.164 125.838 197.698L115.242 145.198Z" fill="#B4771A"/>
<path d="M115.377 145.869C115.254 145.256 115.192 144.95 115.266 144.708C115.342 144.456 115.515 144.245 115.746 144.12C115.969 144 116.281 144 116.906 144H184.542C185.182 144 185.502 144 185.727 144.124C185.961 144.253 186.133 144.469 186.206 144.726C186.277 144.973 186.205 145.285 186.062 145.909L174.278 197.289C174.183 197.702 174.135 197.909 174.028 198.066C173.915 198.23 173.756 198.357 173.571 198.43C173.394 198.5 173.182 198.5 172.757 198.5H127.277C126.841 198.5 126.624 198.5 126.444 198.427C126.256 198.351 126.095 198.22 125.984 198.051C125.877 197.888 125.834 197.675 125.747 197.249L115.377 145.869Z" fill="url(#paint0_linear_209_120369)"/>
<path d="M115.377 145.869C115.254 145.256 115.192 144.95 115.266 144.708C115.342 144.456 115.515 144.245 115.746 144.12C115.969 144 116.281 144 116.906 144H184.542C185.182 144 185.502 144 185.727 144.124C185.961 144.253 186.133 144.469 186.206 144.726C186.277 144.973 186.205 145.285 186.062 145.909L174.278 197.289C174.183 197.702 174.135 197.909 174.028 198.066C173.915 198.23 173.756 198.357 173.571 198.43C173.394 198.5 173.182 198.5 172.757 198.5H127.277C126.841 198.5 126.624 198.5 126.444 198.427C126.256 198.351 126.095 198.22 125.984 198.051C125.877 197.888 125.834 197.675 125.747 197.249L115.377 145.869Z" fill="url(#paint1_linear_209_120369)"/>
<g filter="url(#filter1_d_209_120369)">
<path d="M111.155 139.135C111.073 138.535 111.54 138 112.146 138H188.802C189.426 138 189.897 138.565 189.786 139.179L188.149 148.179C188.063 148.654 187.649 149 187.165 149H113.373C112.873 149 112.45 148.631 112.382 148.135L111.155 139.135Z" fill="url(#paint2_linear_209_120369)"/>
</g>
<path d="M103.991 119.246C97.1386 119.384 88.3009 114.5 88.2037 109.677C88.1065 104.853 96.7357 99.388 103.588 99.2499C110.44 99.1119 116.101 104.289 116.198 109.113C116.295 113.936 110.842 119.108 103.991 119.246Z" fill="#326B2D"/>
<path d="M111.81 107.055C112.092 107.081 112.213 107.426 112.009 107.622V107.622C111.951 107.678 111.915 107.754 111.908 107.834L111.905 107.881C111.884 108.142 111.648 108.332 111.39 108.296L111.16 108.264C111.082 108.254 111.002 108.262 110.928 108.29L110.639 108.397C110.426 108.476 110.206 108.297 110.241 108.072V108.072C110.256 107.974 110.221 107.875 110.148 107.808V107.808C109.981 107.654 110.041 107.376 110.257 107.305L110.549 107.209C110.624 107.184 110.692 107.141 110.746 107.084L110.906 106.916C111.086 106.726 111.388 106.727 111.567 106.918L111.599 106.952C111.655 107.011 111.73 107.048 111.81 107.055V107.055Z" fill="#D8FF86"/>
<path d="M160.507 121.769C158.363 132.323 144.843 143.588 134.56 141.499C124.276 139.41 115.733 123.664 117.877 113.11C120.021 102.556 133.035 96.2906 143.319 98.3795C153.602 100.468 162.65 111.215 160.507 121.769Z" fill="#326B2D"/>
<path d="M183.667 105.325C186.171 113.781 180.72 127.121 172.481 129.56C164.242 132 152.015 123.894 149.512 115.438C147.008 106.982 154.013 97.4518 162.252 95.0123C170.491 92.5728 181.163 96.869 183.667 105.325Z" fill="#42903C"/>
<g filter="url(#filter2_f_209_120369)">
<path d="M110.084 106.122C110.439 105.778 111.029 105.898 111.222 106.353V106.353C111.285 106.502 111.397 106.625 111.54 106.701V106.701C111.977 106.932 112.046 107.53 111.672 107.854V107.854C111.55 107.96 111.468 108.105 111.44 108.265V108.265C111.355 108.752 110.807 109.002 110.384 108.747V108.747C110.245 108.663 110.082 108.63 109.921 108.653V108.653C109.432 108.722 109.025 108.279 109.137 107.797V107.797C109.173 107.639 109.154 107.474 109.083 107.328V107.328C108.866 106.884 109.162 106.36 109.655 106.318V106.318C109.816 106.304 109.968 106.235 110.084 106.122V106.122Z" fill="#D8FF86"/>
</g>
<path d="M132.855 106.697C129.939 112.354 120.598 116.667 115.238 113.903C109.878 111.14 107.718 100.898 110.634 95.2419C113.55 89.5854 121.791 88.0302 127.152 90.7936C132.512 93.5569 135.771 101.041 132.855 106.697Z" fill="#42903C"/>
<path d="M157.669 132.58C158.238 137.253 154.319 143.775 149.891 144.314C145.463 144.854 139.883 139.488 139.314 134.816C138.745 130.143 143.139 125.764 147.567 125.225C151.994 124.686 157.1 127.908 157.669 132.58Z" fill="#42903C"/>
<path d="M143.421 95.3024C137.082 94.7413 129.336 90.2241 129.657 86.5994C129.978 82.9747 138.412 79.7153 144.751 80.2764C151.09 80.8374 155.877 85.2669 155.556 88.8916C155.235 92.5163 149.76 95.8634 143.421 95.3024Z" fill="#42903C"/>
<path d="M195.808 104.302C202.147 103.741 209.892 99.2241 209.571 95.5994C209.251 91.9747 200.817 88.7153 194.478 89.2764C188.139 89.8374 183.352 94.2669 183.673 97.8916C183.993 101.516 189.469 104.863 195.808 104.302Z" fill="#326B2D"/>
<path d="M178.398 140.992C182.637 148.37 189.043 157.193 196.015 153.141C202.988 149.089 205.229 135.24 200.99 127.863C196.751 120.486 185.669 118.949 178.697 123.001C171.724 127.053 174.159 133.615 178.398 140.992Z" fill="#326B2D"/>
<g filter="url(#filter3_f_209_120369)">
<path d="M186.084 97.122C186.439 96.778 187.029 96.8978 187.221 97.3532V97.3532C187.285 97.5022 187.397 97.625 187.54 97.7008V97.7008C187.977 97.9322 188.045 98.5302 187.672 98.8543V98.8543C187.55 98.9603 187.468 99.1053 187.44 99.2648V99.2648C187.355 99.7519 186.807 100.002 186.383 99.7466V99.7466C186.245 99.6631 186.082 99.6299 185.921 99.6527V99.6527C185.432 99.7223 185.025 99.2786 185.137 98.7969V98.7969C185.173 98.6393 185.154 98.4738 185.083 98.3284V98.3284C184.866 97.8843 185.162 97.3603 185.655 97.3177V97.3177C185.816 97.3038 185.967 97.2347 186.084 97.122V97.122Z" fill="#D8FF86"/>
</g>
<path d="M179.331 96.9484C187.798 97.7865 198.701 97.7022 199.456 89.6732C200.211 81.6441 193.63 70.6776 185.163 69.8395C176.696 69.0014 165.618 78.22 164.863 86.2491C164.108 94.2781 170.864 96.1103 179.331 96.9484Z" fill="#42913C"/>
<path d="M119.209 136.068C115.607 141.899 106.71 146.673 102.605 144.137C98.5008 141.602 98.5921 131.388 102.194 125.557C105.796 119.727 113.216 117.78 117.321 120.316C121.425 122.852 122.811 130.238 119.209 136.068Z" fill="#326B2D"/>
<path d="M190.488 123.29C195.728 127.707 205.67 129.469 208.779 125.78C211.889 122.092 208.618 112.415 203.378 107.998C198.138 103.581 190.481 104.045 187.371 107.734C184.262 111.423 185.248 118.873 190.488 123.29Z" fill="#326B2D"/>
<path d="M142.59 106.123C143.024 105.703 143.744 105.849 143.98 106.405V106.405C144.057 106.587 144.194 106.737 144.369 106.83V106.83C144.903 107.112 144.986 107.843 144.53 108.238V108.238C144.381 108.368 144.28 108.545 144.246 108.74V108.74C144.143 109.335 143.474 109.64 142.957 109.328V109.328C142.787 109.226 142.588 109.186 142.392 109.213V109.213C141.794 109.298 141.298 108.757 141.434 108.168V108.168C141.479 107.976 141.456 107.774 141.369 107.596V107.596C141.103 107.054 141.465 106.414 142.066 106.362V106.362C142.263 106.345 142.448 106.261 142.59 106.123V106.123Z" fill="#D8FF86"/>
<g filter="url(#filter4_d_209_120369)">
<path d="M163.272 101.199C163.627 100.855 164.217 100.975 164.41 101.43V101.43C164.473 101.579 164.585 101.702 164.728 101.778V101.778C165.165 102.009 165.234 102.607 164.86 102.931V102.931C164.738 103.037 164.656 103.182 164.628 103.342V103.342C164.543 103.829 163.995 104.079 163.572 103.823V103.823C163.433 103.74 163.27 103.707 163.11 103.73V103.73C162.62 103.799 162.213 103.356 162.325 102.874V102.874C162.362 102.716 162.343 102.551 162.271 102.405V102.405C162.054 101.961 162.35 101.437 162.843 101.395V101.395C163.004 101.381 163.156 101.312 163.272 101.199V101.199Z" fill="#D8FF86"/>
</g>
<g filter="url(#filter5_f_209_120369)">
<path d="M163.084 101.122C163.439 100.778 164.029 100.898 164.222 101.353V101.353C164.285 101.502 164.397 101.625 164.54 101.701V101.701C164.977 101.932 165.046 102.53 164.672 102.854V102.854C164.55 102.96 164.468 103.105 164.44 103.265V103.265C164.355 103.752 163.807 104.002 163.384 103.747V103.747C163.245 103.663 163.082 103.63 162.921 103.653V103.653C162.432 103.722 162.025 103.279 162.137 102.797V102.797C162.173 102.639 162.154 102.474 162.083 102.328V102.328C161.866 101.884 162.162 101.36 162.655 101.318V101.318C162.816 101.304 162.968 101.235 163.084 101.122V101.122Z" fill="#D8FF86"/>
</g>
<g filter="url(#filter6_f_209_120369)">
<path d="M150.084 88.122C150.439 87.778 151.029 87.8978 151.222 88.3532V88.3532C151.285 88.5022 151.397 88.625 151.54 88.7008V88.7008C151.977 88.9322 152.046 89.5302 151.672 89.8543V89.8543C151.55 89.9603 151.468 90.1053 151.44 90.2648V90.2648C151.355 90.7519 150.807 91.0017 150.384 90.7466V90.7466C150.245 90.6631 150.082 90.6299 149.921 90.6527V90.6527C149.432 90.7223 149.025 90.2786 149.137 89.7969V89.7969C149.173 89.6393 149.154 89.4738 149.083 89.3284V89.3284C148.866 88.8843 149.162 88.3603 149.655 88.3177V88.3177C149.816 88.3038 149.968 88.2347 150.084 88.122V88.122Z" fill="#D8FF86"/>
</g>
<g filter="url(#filter7_f_209_120369)">
<path d="M174.084 78.122C174.439 77.778 175.029 77.8978 175.222 78.3532V78.3532C175.285 78.5022 175.397 78.625 175.54 78.7008V78.7008C175.977 78.9322 176.046 79.5302 175.672 79.8543V79.8543C175.55 79.9603 175.468 80.1053 175.44 80.2648V80.2648C175.355 80.7519 174.807 81.0017 174.384 80.7466V80.7466C174.245 80.6631 174.082 80.6299 173.921 80.6527V80.6527C173.432 80.7223 173.025 80.2786 173.137 79.7969V79.7969C173.173 79.6393 173.154 79.4738 173.083 79.3284V79.3284C172.866 78.8843 173.162 78.3603 173.655 78.3177V78.3177C173.816 78.3038 173.968 78.2347 174.084 78.122V78.122Z" fill="#D8FF86"/>
</g>
<g filter="url(#filter8_f_209_120369)">
<path d="M192.084 109.122C192.439 108.778 193.029 108.898 193.221 109.353V109.353C193.285 109.502 193.397 109.625 193.54 109.701V109.701C193.977 109.932 194.045 110.53 193.672 110.854V110.854C193.55 110.96 193.468 111.105 193.44 111.265V111.265C193.355 111.752 192.807 112.002 192.383 111.747V111.747C192.245 111.663 192.082 111.63 191.921 111.653V111.653C191.432 111.722 191.025 111.279 191.137 110.797V110.797C191.173 110.639 191.154 110.474 191.083 110.328V110.328C190.866 109.884 191.162 109.36 191.655 109.318V109.318C191.816 109.304 191.967 109.235 192.084 109.122V109.122Z" fill="#D8FF86"/>
</g>
<g filter="url(#filter9_f_209_120369)">
<path d="M188.084 126.122C188.439 125.778 189.029 125.898 189.221 126.353V126.353C189.285 126.502 189.397 126.625 189.54 126.701V126.701C189.977 126.932 190.045 127.53 189.672 127.854V127.854C189.55 127.96 189.468 128.105 189.44 128.265V128.265C189.355 128.752 188.807 129.002 188.383 128.747V128.747C188.245 128.663 188.082 128.63 187.921 128.653V128.653C187.432 128.722 187.025 128.279 187.137 127.797V127.797C187.173 127.639 187.154 127.474 187.083 127.328V127.328C186.866 126.884 187.162 126.36 187.655 126.318V126.318C187.816 126.304 187.967 126.235 188.084 126.122V126.122Z" fill="#D8FF86"/>
</g>
<g filter="url(#filter10_f_209_120369)">
<path d="M148.084 128.122C148.439 127.778 149.029 127.898 149.222 128.353V128.353C149.285 128.502 149.397 128.625 149.54 128.701V128.701C149.977 128.932 150.046 129.53 149.672 129.854V129.854C149.55 129.96 149.468 130.105 149.44 130.265V130.265C149.355 130.752 148.807 131.002 148.384 130.747V130.747C148.245 130.663 148.082 130.63 147.921 130.653V130.653C147.432 130.722 147.025 130.279 147.137 129.797V129.797C147.173 129.639 147.154 129.474 147.083 129.328V129.328C146.866 128.884 147.162 128.36 147.655 128.318V128.318C147.816 128.304 147.968 128.235 148.084 128.122V128.122Z" fill="#D8FF86"/>
</g>
<g filter="url(#filter11_f_209_120369)">
<path d="M142.084 107.122C142.439 106.778 143.029 106.898 143.222 107.353V107.353C143.285 107.502 143.397 107.625 143.54 107.701V107.701C143.977 107.932 144.046 108.53 143.672 108.854V108.854C143.55 108.96 143.468 109.105 143.44 109.265V109.265C143.355 109.752 142.807 110.002 142.384 109.747V109.747C142.245 109.663 142.082 109.63 141.921 109.653V109.653C141.432 109.722 141.025 109.279 141.137 108.797V108.797C141.173 108.639 141.154 108.474 141.083 108.328V108.328C140.866 107.884 141.162 107.36 141.655 107.318V107.318C141.816 107.304 141.968 107.235 142.084 107.122V107.122Z" fill="#D8FF86"/>
</g>
<g filter="url(#filter12_f_209_120369)">
<path d="M124.084 94.122C124.439 93.778 125.029 93.8978 125.222 94.3532V94.3532C125.285 94.5022 125.397 94.625 125.54 94.7008V94.7008C125.977 94.9322 126.046 95.5302 125.672 95.8543V95.8543C125.55 95.9603 125.468 96.1053 125.44 96.2648V96.2648C125.355 96.7519 124.807 97.0017 124.384 96.7466V96.7466C124.245 96.6631 124.082 96.6299 123.921 96.6527V96.6527C123.432 96.7223 123.025 96.2786 123.137 95.7969V95.7969C123.173 95.6393 123.154 95.4738 123.083 95.3284V95.3284C122.866 94.8843 123.162 94.3603 123.655 94.3177V94.3177C123.816 94.3038 123.968 94.2347 124.084 94.122V94.122Z" fill="#D8FF86"/>
</g>
<g filter="url(#filter13_f_209_120369)">
<path d="M114.084 124.122C114.439 123.778 115.029 123.898 115.222 124.353V124.353C115.285 124.502 115.397 124.625 115.54 124.701V124.701C115.977 124.932 116.046 125.53 115.672 125.854V125.854C115.55 125.96 115.468 126.105 115.44 126.265V126.265C115.355 126.752 114.807 127.002 114.384 126.747V126.747C114.245 126.663 114.082 126.63 113.921 126.653V126.653C113.432 126.722 113.025 126.279 113.137 125.797V125.797C113.173 125.639 113.154 125.474 113.083 125.328V125.328C112.866 124.884 113.162 124.36 113.655 124.318V124.318C113.816 124.304 113.968 124.235 114.084 124.122V124.122Z" fill="#D8FF86"/>
</g>
<path d="M124.529 94.6398C124.848 94.468 125.24 94.6701 125.285 95.0296V95.0296C125.3 95.1473 125.355 95.2563 125.44 95.3382V95.3382C125.702 95.5885 125.631 96.0238 125.303 96.1778V96.1778C125.196 96.2282 125.109 96.3141 125.058 96.4209V96.4209C124.901 96.7474 124.465 96.8143 124.217 96.55V96.55C124.136 96.4635 124.027 96.4076 123.91 96.3917V96.3917C123.551 96.3432 123.352 95.9492 123.527 95.6319V95.6319C123.584 95.528 123.604 95.4076 123.583 95.2909V95.2909C123.518 94.9344 123.831 94.624 124.187 94.6922V94.6922C124.304 94.7145 124.424 94.696 124.529 94.6398V94.6398Z" fill="#D8FF86"/>
<path d="M147.562 128.669C147.686 128.431 148.009 128.391 148.186 128.592V128.592C148.244 128.658 148.323 128.702 148.41 128.717V128.717C148.674 128.761 148.812 129.057 148.675 129.287V129.287C148.631 129.363 148.613 129.451 148.626 129.538V129.538C148.666 129.803 148.427 130.025 148.166 129.967V129.967C148.08 129.947 147.99 129.958 147.912 129.997V129.997C147.672 130.117 147.387 129.959 147.362 129.692V129.692C147.354 129.605 147.316 129.523 147.254 129.46V129.46C147.066 129.269 147.129 128.949 147.375 128.843V128.843C147.455 128.808 147.521 128.746 147.562 128.669V128.669Z" fill="#D8FF86"/>
<path d="M189.889 126.62C189.928 126.163 189.507 125.802 189.073 125.921V125.921C188.933 125.96 188.783 125.948 188.649 125.888L188.638 125.882C188.231 125.698 187.772 125.992 187.758 126.446V126.446C187.753 126.595 187.698 126.739 187.601 126.85V126.85C187.307 127.189 187.436 127.725 187.851 127.887L187.871 127.894C188.008 127.947 188.123 128.046 188.199 128.175L188.209 128.193C188.437 128.583 188.977 128.619 189.251 128.264V128.264C189.342 128.147 189.47 128.066 189.613 128.036V128.036C190.048 127.942 190.251 127.429 190.003 127.052L189.995 127.041C189.914 126.917 189.876 126.768 189.889 126.62V126.62Z" fill="#D8FF86"/>
<path d="M174.828 77.5796C174.478 77.2823 173.94 77.4153 173.785 77.8372V77.8372C173.734 77.9739 173.638 78.0892 173.511 78.1626L173.5 78.169C173.114 78.3932 173.086 78.9374 173.447 79.2124V79.2124C173.566 79.303 173.65 79.4316 173.685 79.5753V79.5753C173.789 80.0112 174.301 80.2181 174.674 79.9738L174.691 79.9623C174.814 79.8817 174.962 79.8452 175.11 79.8588L175.132 79.8607C175.581 79.9019 175.924 79.4838 175.795 79.054V79.054C175.753 78.9123 175.761 78.7608 175.819 78.6265V78.6265C175.996 78.2185 175.697 77.7551 175.245 77.738L175.232 77.7375C175.084 77.7319 174.941 77.6759 174.828 77.5796V77.5796Z" fill="#D8FF86"/>
<path d="M114.654 123.894C114.89 123.737 115.201 123.929 115.166 124.21V124.21C115.155 124.29 115.175 124.371 115.221 124.438L115.248 124.477C115.395 124.692 115.331 124.988 115.108 125.123L114.91 125.243C114.842 125.284 114.785 125.341 114.745 125.409L114.588 125.673C114.472 125.869 114.189 125.868 114.074 125.672V125.672C114.024 125.586 113.935 125.53 113.836 125.524V125.524C113.609 125.51 113.481 125.257 113.604 125.065L113.77 124.806C113.813 124.74 113.839 124.664 113.845 124.585L113.863 124.354C113.884 124.094 114.12 123.904 114.379 123.94L114.426 123.947C114.506 123.958 114.587 123.939 114.654 123.894V123.894Z" fill="#D8FF86"/>
<path d="M151.028 88.1338C151.3 88.0549 151.538 88.332 151.42 88.5892V88.5892C151.386 88.6626 151.381 88.7459 151.404 88.8232L151.418 88.8684C151.494 89.1185 151.344 89.381 151.09 89.4424L150.865 89.4968C150.788 89.5154 150.717 89.5526 150.658 89.6053L150.428 89.8106C150.259 89.9622 149.989 89.8757 149.939 89.6538V89.6538C149.917 89.5569 149.849 89.4772 149.756 89.4413V89.4413C149.544 89.3591 149.498 89.0793 149.673 88.9341L149.91 88.7373C149.971 88.6869 150.018 88.6222 150.048 88.549L150.135 88.3344C150.233 88.0922 150.515 87.9826 150.751 88.0948L150.794 88.115C150.867 88.1497 150.95 88.1564 151.028 88.1338V88.1338Z" fill="#D8FF86"/>
<path d="M186.347 97.9593C186.075 97.8803 185.837 98.1574 185.955 98.4146V98.4146C185.989 98.488 185.994 98.5713 185.971 98.6487L185.957 98.6938C185.881 98.9439 186.031 99.2064 186.285 99.2678L186.51 99.3222C186.587 99.3408 186.658 99.3781 186.717 99.4307L186.947 99.636C187.116 99.7876 187.386 99.7011 187.436 99.4792V99.4792C187.458 99.3823 187.526 99.3026 187.619 99.2667V99.2667C187.831 99.1846 187.877 98.9048 187.702 98.7595L187.465 98.5628C187.404 98.5123 187.357 98.4476 187.327 98.3744L187.24 98.1599C187.142 97.9177 186.86 97.8081 186.624 97.9202L186.581 97.9404C186.508 97.9751 186.425 97.9818 186.347 97.9593V97.9593Z" fill="#D8FF86"/>
<path d="M192.077 108.894C191.841 108.737 191.53 108.929 191.565 109.21V109.21C191.575 109.29 191.556 109.371 191.51 109.438L191.483 109.477C191.335 109.692 191.399 109.988 191.623 110.123L191.821 110.243C191.889 110.284 191.945 110.341 191.986 110.409L192.143 110.673C192.259 110.869 192.542 110.868 192.656 110.672V110.672C192.706 110.586 192.796 110.53 192.895 110.524V110.524C193.122 110.51 193.25 110.257 193.127 110.065L192.96 109.806C192.918 109.74 192.892 109.664 192.886 109.585L192.867 109.354C192.846 109.094 192.611 108.904 192.352 108.94L192.305 108.947C192.225 108.958 192.144 108.939 192.077 108.894V108.894Z" fill="#D8FF86"/>
<defs>
<filter id="filter0_f_209_120369" x="88" y="185" width="126" height="24.5" filterUnits="userSpaceOnUse" color-interpolation-filters="sRGB">
<feFlood flood-opacity="0" result="BackgroundImageFix"/>
<feBlend mode="normal" in="SourceGraphic" in2="BackgroundImageFix" result="shape"/>
<feGaussianBlur stdDeviation="2" result="effect1_foregroundBlur_209_120369"/>
</filter>
<filter id="filter1_d_209_120369" x="107.145" y="138" width="86.6566" height="19" filterUnits="userSpaceOnUse" color-interpolation-filters="sRGB">
<feFlood flood-opacity="0" result="BackgroundImageFix"/>
<feColorMatrix in="SourceAlpha" type="matrix" values="0 0 0 0 0 0 0 0 0 0 0 0 0 0 0 0 0 0 127 0" result="hardAlpha"/>
<feOffset dy="4"/>
<feGaussianBlur stdDeviation="2"/>
<feComposite in2="hardAlpha" operator="out"/>
<feColorMatrix type="matrix" values="0 0 0 0 0 0 0 0 0 0 0 0 0 0 0 0 0 0 0.25 0"/>
<feBlend mode="normal" in2="BackgroundImageFix" result="effect1_dropShadow_209_120369"/>
<feBlend mode="normal" in="SourceGraphic" in2="effect1_dropShadow_209_120369" result="shape"/>
</filter>
<filter id="filter2_f_209_120369" x="107.011" y="103.924" width="6.90381" height="6.92444" filterUnits="userSpaceOnUse" color-interpolation-filters="sRGB">
<feFlood flood-opacity="0" result="BackgroundImageFix"/>
<feBlend mode="normal" in="SourceGraphic" in2="BackgroundImageFix" result="shape"/>
<feGaussianBlur stdDeviation="1" result="effect1_foregroundBlur_209_120369"/>
</filter>
<filter id="filter3_f_209_120369" x="183.011" y="94.9236" width="6.90381" height="6.92444" filterUnits="userSpaceOnUse" color-interpolation-filters="sRGB">
<feFlood flood-opacity="0" result="BackgroundImageFix"/>
<feBlend mode="normal" in="SourceGraphic" in2="BackgroundImageFix" result="shape"/>
<feGaussianBlur stdDeviation="1" result="effect1_foregroundBlur_209_120369"/>
</filter>
<filter id="filter4_d_209_120369" x="158.199" y="101" width="10.9038" height="10.9244" filterUnits="userSpaceOnUse" color-interpolation-filters="sRGB">
<feFlood flood-opacity="0" result="BackgroundImageFix"/>
<feColorMatrix in="SourceAlpha" type="matrix" values="0 0 0 0 0 0 0 0 0 0 0 0 0 0 0 0 0 0 127 0" result="hardAlpha"/>
<feOffset dy="4"/>
<feGaussianBlur stdDeviation="2"/>
<feComposite in2="hardAlpha" operator="out"/>
<feColorMatrix type="matrix" values="0 0 0 0 0 0 0 0 0 0 0 0 0 0 0 0 0 0 0.25 0"/>
<feBlend mode="normal" in2="BackgroundImageFix" result="effect1_dropShadow_209_120369"/>
<feBlend mode="normal" in="SourceGraphic" in2="effect1_dropShadow_209_120369" result="shape"/>
</filter>
<filter id="filter5_f_209_120369" x="160.011" y="98.9236" width="6.90381" height="6.92444" filterUnits="userSpaceOnUse" color-interpolation-filters="sRGB">
<feFlood flood-opacity="0" result="BackgroundImageFix"/>
<feBlend mode="normal" in="SourceGraphic" in2="BackgroundImageFix" result="shape"/>
<feGaussianBlur stdDeviation="1" result="effect1_foregroundBlur_209_120369"/>
</filter>
<filter id="filter6_f_209_120369" x="147.011" y="85.9236" width="6.90381" height="6.92444" filterUnits="userSpaceOnUse" color-interpolation-filters="sRGB">
<feFlood flood-opacity="0" result="BackgroundImageFix"/>
<feBlend mode="normal" in="SourceGraphic" in2="BackgroundImageFix" result="shape"/>
<feGaussianBlur stdDeviation="1" result="effect1_foregroundBlur_209_120369"/>
</filter>
<filter id="filter7_f_209_120369" x="171.011" y="75.9236" width="6.90381" height="6.92444" filterUnits="userSpaceOnUse" color-interpolation-filters="sRGB">
<feFlood flood-opacity="0" result="BackgroundImageFix"/>
<feBlend mode="normal" in="SourceGraphic" in2="BackgroundImageFix" result="shape"/>
<feGaussianBlur stdDeviation="1" result="effect1_foregroundBlur_209_120369"/>
</filter>
<filter id="filter8_f_209_120369" x="189.011" y="106.924" width="6.90381" height="6.92444" filterUnits="userSpaceOnUse" color-interpolation-filters="sRGB">
<feFlood flood-opacity="0" result="BackgroundImageFix"/>
<feBlend mode="normal" in="SourceGraphic" in2="BackgroundImageFix" result="shape"/>
<feGaussianBlur stdDeviation="1" result="effect1_foregroundBlur_209_120369"/>
</filter>
<filter id="filter9_f_209_120369" x="185.011" y="123.924" width="6.90381" height="6.92444" filterUnits="userSpaceOnUse" color-interpolation-filters="sRGB">
<feFlood flood-opacity="0" result="BackgroundImageFix"/>
<feBlend mode="normal" in="SourceGraphic" in2="BackgroundImageFix" result="shape"/>
<feGaussianBlur stdDeviation="1" result="effect1_foregroundBlur_209_120369"/>
</filter>
<filter id="filter10_f_209_120369" x="145.011" y="125.924" width="6.90381" height="6.92444" filterUnits="userSpaceOnUse" color-interpolation-filters="sRGB">
<feFlood flood-opacity="0" result="BackgroundImageFix"/>
<feBlend mode="normal" in="SourceGraphic" in2="BackgroundImageFix" result="shape"/>
<feGaussianBlur stdDeviation="1" result="effect1_foregroundBlur_209_120369"/>
</filter>
<filter id="filter11_f_209_120369" x="139.011" y="104.924" width="6.90381" height="6.92444" filterUnits="userSpaceOnUse" color-interpolation-filters="sRGB">
<feFlood flood-opacity="0" result="BackgroundImageFix"/>
<feBlend mode="normal" in="SourceGraphic" in2="BackgroundImageFix" result="shape"/>
<feGaussianBlur stdDeviation="1" result="effect1_foregroundBlur_209_120369"/>
</filter>
<filter id="filter12_f_209_120369" x="121.011" y="91.9236" width="6.90381" height="6.92444" filterUnits="userSpaceOnUse" color-interpolation-filters="sRGB">
<feFlood flood-opacity="0" result="BackgroundImageFix"/>
<feBlend mode="normal" in="SourceGraphic" in2="BackgroundImageFix" result="shape"/>
<feGaussianBlur stdDeviation="1" result="effect1_foregroundBlur_209_120369"/>
</filter>
<filter id="filter13_f_209_120369" x="111.011" y="121.924" width="6.90381" height="6.92444" filterUnits="userSpaceOnUse" color-interpolation-filters="sRGB">
<feFlood flood-opacity="0" result="BackgroundImageFix"/>
<feBlend mode="normal" in="SourceGraphic" in2="BackgroundImageFix" result="shape"/>
<feGaussianBlur stdDeviation="1" result="effect1_foregroundBlur_209_120369"/>
</filter>
<linearGradient id="paint0_linear_209_120369" x1="151" y1="176" x2="173" y2="183.5" gradientUnits="userSpaceOnUse">
<stop stop-color="#A8690A" stop-opacity="0.81"/>
<stop offset="0.939762" stop-color="#6D4303"/>
</linearGradient>
<linearGradient id="paint1_linear_209_120369" x1="153.5" y1="176" x2="127" y2="185.5" gradientUnits="userSpaceOnUse">
<stop stop-color="#C28427" stop-opacity="0.4"/>
<stop offset="1" stop-color="#885508"/>
</linearGradient>
<linearGradient id="paint2_linear_209_120369" x1="111" y1="138" x2="190" y2="138" gradientUnits="userSpaceOnUse">
<stop offset="0.00865841" stop-color="#744704"/>
<stop offset="0.510756" stop-color="#CD851A"/>
<stop offset="1" stop-color="#724603"/>
</linearGradient>
</defs>
</svg>
