<svg width="54" height="50" viewBox="0 0 54 50" fill="none" xmlns="http://www.w3.org/2000/svg">
<path d="M23.8305 38.028C23.6865 38.028 23.5425 38.004 23.3985 37.956C23.2785 37.932 23.1465 37.92 23.0025 37.92C22.3545 34.248 21.7065 31.176 21.0585 28.704C20.4105 26.232 19.5945 23.904 18.6105 21.72L17.8545 23.124C17.6385 23.532 17.5185 23.892 17.4945 24.204C17.4225 24.924 17.3865 25.452 17.3865 25.788C17.3865 26.508 17.4225 27.612 17.4945 29.1C17.5665 30.564 17.6025 31.68 17.6025 32.448V35.4C17.6025 36.672 17.1945 37.308 16.3785 37.308C15.6825 37.308 15.3345 36.636 15.3345 35.292C15.3345 34.236 15.4065 32.616 15.5505 30.432C15.7185 28.416 15.8025 26.808 15.8025 25.608L15.8385 22.512V18.768C15.8385 17.448 15.7545 16.068 15.5865 14.628C15.4185 13.14 15.3345 12.012 15.3345 11.244C15.3345 10.932 15.4305 10.668 15.6225 10.452C15.8145 10.236 16.0545 10.128 16.3425 10.128C17.2305 10.128 17.6745 11.1 17.6745 13.044L17.5305 20.424L18.2145 18.66C19.0065 16.644 19.8225 14.652 20.6625 12.684C21.1425 11.604 21.5745 10.752 21.9585 10.128C22.3665 9.48 22.6905 9.156 22.9305 9.156C23.1945 9.156 23.4225 9.252 23.6145 9.444C23.8305 9.612 23.9385 9.828 23.9385 10.092C23.9385 10.332 23.2905 11.82 21.9945 14.556C20.7225 17.172 19.9785 18.912 19.7625 19.776V20.424C20.1225 21.336 21.0825 24.264 22.6425 29.208C24.2025 34.128 24.9825 36.732 24.9825 37.02C24.9825 37.308 24.8625 37.548 24.6225 37.74C24.4065 37.932 24.1425 38.028 23.8305 38.028ZM30.2546 37.416C29.7986 37.416 29.4026 37.356 29.0666 37.236C28.6586 37.116 28.4546 36.78 28.4546 36.228V15.312C28.4546 14.904 28.3826 14.292 28.2386 13.476C28.0706 12.732 27.9866 12.12 27.9866 11.64V11.532C28.3946 10.86 28.6946 10.428 28.8866 10.236C29.2226 10.236 29.6666 10.188 30.2186 10.092C30.7226 9.996 31.1666 9.948 31.5506 9.948C31.9346 9.948 32.3066 10.068 32.6666 10.308C33.0266 10.524 33.2066 10.788 33.2066 11.1C33.2066 11.82 32.6546 12.18 31.5506 12.18H31.0466C30.9026 12.156 30.7346 12.144 30.5426 12.144C30.3266 12.144 30.1946 12.156 30.1466 12.18C30.1466 12.996 30.1946 13.98 30.2906 15.132L30.3626 16.14L30.4346 18.12C30.4346 18.576 30.3986 19.272 30.3266 20.208L30.2546 22.224L30.7586 22.116C31.2386 21.972 31.6346 21.9 31.9466 21.9C32.2106 21.9 32.4506 22.008 32.6666 22.224C32.8826 22.416 32.9906 22.644 32.9906 22.908C32.9906 23.196 32.8946 23.46 32.7026 23.7C32.5346 23.916 32.3186 24.024 32.0546 24.024L31.6226 23.988H31.1546C30.7946 23.988 30.5426 24.072 30.3986 24.24V35.364L32.4146 35.256C33.7826 35.256 34.4666 35.568 34.4666 36.192V36.336C34.3226 36.624 34.0586 36.864 33.6746 37.056C33.2906 37.224 32.9186 37.332 32.5586 37.38L31.3706 37.416H30.2546ZM40.7781 37.632C40.5381 37.632 40.3221 37.548 40.1301 37.38C39.9621 37.212 39.8781 37.008 39.8781 36.768L39.9501 33.276C40.0221 31.716 40.0581 30.552 40.0581 29.784C40.0581 29.088 39.9501 28.056 39.7341 26.688C39.4941 25.344 39.3741 24.3 39.3741 23.556C39.3741 22.644 39.2421 21.6 38.9781 20.424C38.7141 19.248 38.3781 18.12 37.9701 17.04C37.5861 16.008 37.2621 14.904 36.9981 13.728C36.7341 12.528 36.6021 11.484 36.6021 10.596C36.6021 10.428 36.6981 10.284 36.8901 10.164C37.0821 10.044 37.2861 9.984 37.5021 9.984C37.7661 9.984 38.0181 10.26 38.2581 10.812C38.5461 11.436 38.8221 12.312 39.0861 13.44C39.3501 14.568 39.5061 15.24 39.5541 15.456L40.0221 17.94L40.3821 19.524C40.4541 19.14 40.5141 18.636 40.5621 18.012C40.7061 16.02 40.8861 14.364 41.1021 13.044C41.2701 12.132 41.4621 11.436 41.6781 10.956C41.9181 10.428 42.2061 10.164 42.5421 10.164C43.1901 10.164 43.5141 10.284 43.5141 10.524C43.5141 11.892 43.2261 13.908 42.6501 16.572C42.0741 19.236 41.7861 21.264 41.7861 22.656L41.7141 23.232C41.6661 23.592 41.6541 23.808 41.6781 23.88V24.456C41.6781 25.488 41.7141 27.072 41.7861 29.208L41.8581 33.996L41.9301 34.824L42.0021 35.688V36.588C42.0021 36.876 41.8821 37.116 41.6421 37.308C41.4021 37.524 41.1141 37.632 40.7781 37.632Z" fill="#757575"/>
<path d="M6.8171 12.8625C10.0142 12.8625 12.6342 10.2227 12.6342 6.93123C12.6342 3.63978 10.0142 1 6.8171 1C3.61999 1 1 3.63978 1 6.93123C1 10.2227 3.61999 12.8625 6.8171 12.8625Z" stroke="#F7E018" stroke-width="2"/>
<path d="M6.8171 12.8625C10.0142 12.8625 12.6342 10.2227 12.6342 6.93123C12.6342 3.63978 10.0142 1 6.8171 1C3.61999 1 1 3.63978 1 6.93123C1 10.2227 3.61999 12.8625 6.8171 12.8625Z" stroke="black" stroke-opacity="0.2" stroke-width="2"/>
<line x1="1" y1="-1" x2="41" y2="-1" transform="matrix(1 0 0 -1 12 5.46246)" stroke="#F7E018" stroke-width="2" stroke-linecap="round"/>
<line x1="1" y1="-1" x2="41" y2="-1" transform="matrix(1 0 0 -1 12 5.46246)" stroke="black" stroke-opacity="0.2" stroke-width="2" stroke-linecap="round"/>
<line x1="1" y1="-1" x2="4.94592" y2="-1" transform="matrix(0 1 1 0 51.6 6.71655)" stroke="#F7E018" stroke-width="2" stroke-linecap="round"/>
<line x1="1" y1="-1" x2="4.94592" y2="-1" transform="matrix(0 1 1 0 51.6 6.71655)" stroke="black" stroke-opacity="0.2" stroke-width="2" stroke-linecap="round"/>
<line x1="1" y1="-1" x2="6.9279" y2="-1" transform="matrix(0 1 1 0 48 5.93457)" stroke="#F7E018" stroke-width="2" stroke-linecap="round"/>
<line x1="1" y1="-1" x2="6.9279" y2="-1" transform="matrix(0 1 1 0 48 5.93457)" stroke="black" stroke-opacity="0.2" stroke-width="2" stroke-linecap="round"/>
</svg>
