<svg width="303" height="210" viewBox="0 0 303 210" fill="none" xmlns="http://www.w3.org/2000/svg">
<path d="M115.531 77.265C142.905 111.936 128.759 119.956 137.235 147.31" stroke="#633820" stroke-linecap="round"/>
<path d="M114.619 77.3319C116.069 81.0528 111.37 82.3168 108.049 81.0898C105.488 80.1436 102.616 81.1114 102.616 81.1114C102.616 81.1114 102.435 79.3141 105.333 77.1328C108.231 74.9516 113.169 73.611 114.619 77.3319Z" fill="#249312"/>
<path d="M105.352 79.2394C109.193 76.9564 113.834 77.0939 116.716 79.5722" stroke="#164D11" stroke-linecap="round"/>
<path d="M116.501 75.8147C118.78 79.0937 122.45 75.8985 123.284 72.4575C123.927 69.804 126.332 67.9603 126.332 67.9603C126.332 67.9603 124.942 66.8073 121.515 67.9962C118.088 69.1851 114.221 72.5357 116.501 75.8147Z" fill="#249312"/>
<path d="M123.253 69.1869C119.215 71.1018 116.741 75.0306 117.19 78.8049" stroke="#164D11" stroke-linecap="round"/>
<path d="M128.458 116.797C132.664 122.438 125.274 126.786 119.059 126.257C114.265 125.849 109.841 128.838 109.841 128.838C109.841 128.838 108.691 125.87 112.592 120.808C116.493 115.746 124.252 111.156 128.458 116.797Z" fill="#249312"/>
<path d="M113.611 124.377C119.066 118.7 127.014 116.761 133.069 119.62" stroke="#164D11" stroke-linecap="round"/>
<path d="M137.483 127.926C136.001 134.805 144.529 135.689 149.963 132.625C154.153 130.262 159.419 131.142 159.419 131.142C159.419 131.142 159.232 127.965 153.58 124.982C147.928 121.998 138.964 121.048 137.483 127.926Z" fill="#249312"/>
<path d="M154.137 128.651C146.816 125.755 138.781 127.293 134.461 132.41" stroke="#164D11" stroke-linecap="round"/>
<path d="M135.341 103.185C133.562 109.419 141.348 110.748 146.529 108.261C150.525 106.343 155.313 107.472 155.313 107.472C155.313 107.472 155.333 104.539 150.318 101.454C145.303 98.3686 137.12 96.9513 135.341 103.185Z" fill="#249312"/>
<path d="M150.607 104.861C144.053 101.755 136.573 102.681 132.291 107.124" stroke="#164D11" stroke-linecap="round"/>
<path d="M125.13 93.2338C126.817 98.2147 120.561 99.5992 116.264 97.7884C112.951 96.392 109.116 97.4951 109.116 97.4951C109.116 97.4951 108.984 95.12 112.926 92.4221C116.867 89.7243 123.442 88.253 125.13 93.2338Z" fill="#249312"/>
<path d="M112.826 95.1945C118.014 92.4185 124.112 92.8743 127.756 96.3052" stroke="#164D11" stroke-linecap="round"/>
<path d="M172.195 80.0098C163.821 110.288 163.302 120.416 166 144.5" stroke="#633820" stroke-linecap="round"/>
<path d="M169.771 84.2429C168.463 87.3591 164.861 85.3621 163.564 82.6613C162.563 80.5786 160.248 79.477 160.248 79.477C160.248 79.477 161.195 78.2773 164.241 78.6566C167.287 79.0359 171.079 81.1268 169.771 84.2429Z" fill="#249312"/>
<path d="M163.013 79.9487C166.692 80.8211 169.434 83.6362 169.728 86.8394" stroke="#164D11" stroke-linecap="round"/>
<path d="M172.667 78.7723C171.269 80.1566 169.777 78.2791 169.682 76.5369C169.608 75.1935 168.608 74.0843 168.608 74.0843C168.608 74.0843 169.386 73.6504 170.939 74.534C172.493 75.4175 174.066 77.3879 172.667 78.7723Z" fill="#249312"/>
<path d="M169.991 74.9549C171.775 76.245 172.622 78.3707 172.065 80.1592" stroke="#164D11" stroke-width="0.25" stroke-linecap="round"/>
<path d="M172.232 78.6891C173.022 80.4917 175.101 79.2968 175.832 77.7127C176.396 76.4912 177.734 75.829 177.734 75.829C177.734 75.829 177.172 75.139 175.402 75.3871C173.632 75.6352 171.443 76.8864 172.232 78.6891Z" fill="#249312"/>
<path d="M176.128 76.1284C173.994 76.6693 172.423 78.3329 172.281 80.2005" stroke="#164D11" stroke-width="0.25" stroke-linecap="round"/>
<path d="M171.808 84.4278C171.264 87.7634 175.376 87.9803 177.909 86.3787C179.861 85.1437 182.409 85.438 182.409 85.438C182.409 85.438 182.242 83.9184 179.458 82.6245C176.675 81.3305 172.352 81.0922 171.808 84.4278Z" fill="#249312"/>
<path d="M179.814 84.3713C176.232 83.1596 172.415 84.0923 170.467 86.6521" stroke="#164D11" stroke-linecap="round"/>
<path d="M160.912 109.406C163.511 114.763 156.678 117.202 151.596 115.775C147.676 114.674 143.524 116.456 143.524 116.456C143.524 116.456 143.04 113.806 147.087 110.218C151.134 106.63 158.312 104.049 160.912 109.406Z" fill="#249312"/>
<path d="M147.367 113.347C152.803 109.495 159.717 109.146 164.296 112.485" stroke="#164D11" stroke-linecap="round"/>
<path d="M168.717 121.237C164.325 125.258 169.776 130.045 175.027 130.594C179.076 131.016 182.278 134.204 182.278 134.204C182.278 134.204 183.706 131.919 181.267 127.092C178.829 122.264 173.109 117.217 168.717 121.237Z" fill="#249312"/>
<path d="M179.853 129.897C176.221 124.311 169.923 121.436 164.436 122.851" stroke="#164D11" stroke-linecap="round"/>
<path d="M170.16 103.038C166.114 106.743 171.136 111.154 175.973 111.659C179.704 112.048 182.655 114.985 182.655 114.985C182.655 114.985 183.97 112.88 181.723 108.433C179.477 103.985 174.207 99.3343 170.16 103.038Z" fill="#249312"/>
<path d="M180.42 111.017C177.074 105.871 171.272 103.222 166.216 104.525" stroke="#164D11" stroke-linecap="round"/>
<path d="M165.53 91.8335C167.473 95.8374 162.366 97.6606 158.567 96.5939C155.638 95.7713 152.534 97.1025 152.534 97.1025C152.534 97.1025 152.173 95.1222 155.197 92.4407C158.222 89.7592 163.587 87.8295 165.53 91.8335Z" fill="#249312"/>
<path d="M155.406 94.779C159.47 91.9003 164.637 91.639 168.06 94.1349" stroke="#164D11" stroke-linecap="round"/>
<g filter="url(#filter0_f_209_119912)">
<path d="M211 198C211 202.971 184.585 205.5 152 205.5C119.415 205.5 93 202.971 93 198C93 193.029 119.415 189 152 189C184.585 189 211 193.029 211 198Z" fill="#D9D9D9"/>
</g>
<path d="M116.242 145.198C116.117 144.579 116.59 144 117.222 144H186.245C186.887 144 187.363 144.597 187.219 145.224L175.178 197.724C175.074 198.178 174.67 198.5 174.203 198.5H127.818C127.342 198.5 126.932 198.164 126.838 197.698L116.242 145.198Z" fill="#B4771A"/>
<path d="M116.377 145.869C116.254 145.256 116.192 144.95 116.266 144.708C116.342 144.456 116.515 144.245 116.746 144.12C116.969 144 117.281 144 117.906 144H185.542C186.182 144 186.502 144 186.727 144.124C186.961 144.253 187.133 144.469 187.206 144.726C187.277 144.973 187.205 145.285 187.062 145.909L175.278 197.289C175.183 197.702 175.135 197.909 175.028 198.066C174.915 198.23 174.756 198.357 174.571 198.43C174.394 198.5 174.182 198.5 173.757 198.5H128.277C127.841 198.5 127.624 198.5 127.444 198.427C127.256 198.351 127.095 198.22 126.984 198.051C126.877 197.888 126.834 197.675 126.747 197.249L116.377 145.869Z" fill="url(#paint0_linear_209_119912)"/>
<path d="M116.377 145.869C116.254 145.256 116.192 144.95 116.266 144.708C116.342 144.456 116.515 144.245 116.746 144.12C116.969 144 117.281 144 117.906 144H185.542C186.182 144 186.502 144 186.727 144.124C186.961 144.253 187.133 144.469 187.206 144.726C187.277 144.973 187.205 145.285 187.062 145.909L175.278 197.289C175.183 197.702 175.135 197.909 175.028 198.066C174.915 198.23 174.756 198.357 174.571 198.43C174.394 198.5 174.182 198.5 173.757 198.5H128.277C127.841 198.5 127.624 198.5 127.444 198.427C127.256 198.351 127.095 198.22 126.984 198.051C126.877 197.888 126.834 197.675 126.747 197.249L116.377 145.869Z" fill="url(#paint1_linear_209_119912)"/>
<g filter="url(#filter1_d_209_119912)">
<path d="M112.155 139.135C112.073 138.535 112.54 138 113.146 138H189.802C190.426 138 190.897 138.565 190.786 139.179L189.149 148.179C189.063 148.654 188.649 149 188.165 149H114.373C113.873 149 113.45 148.631 113.382 148.135L112.155 139.135Z" fill="url(#paint2_linear_209_119912)"/>
</g>
<defs>
<filter id="filter0_f_209_119912" x="89" y="185" width="126" height="24.5" filterUnits="userSpaceOnUse" color-interpolation-filters="sRGB">
<feFlood flood-opacity="0" result="BackgroundImageFix"/>
<feBlend mode="normal" in="SourceGraphic" in2="BackgroundImageFix" result="shape"/>
<feGaussianBlur stdDeviation="2" result="effect1_foregroundBlur_209_119912"/>
</filter>
<filter id="filter1_d_209_119912" x="108.145" y="138" width="86.6566" height="19" filterUnits="userSpaceOnUse" color-interpolation-filters="sRGB">
<feFlood flood-opacity="0" result="BackgroundImageFix"/>
<feColorMatrix in="SourceAlpha" type="matrix" values="0 0 0 0 0 0 0 0 0 0 0 0 0 0 0 0 0 0 127 0" result="hardAlpha"/>
<feOffset dy="4"/>
<feGaussianBlur stdDeviation="2"/>
<feComposite in2="hardAlpha" operator="out"/>
<feColorMatrix type="matrix" values="0 0 0 0 0 0 0 0 0 0 0 0 0 0 0 0 0 0 0.25 0"/>
<feBlend mode="normal" in2="BackgroundImageFix" result="effect1_dropShadow_209_119912"/>
<feBlend mode="normal" in="SourceGraphic" in2="effect1_dropShadow_209_119912" result="shape"/>
</filter>
<linearGradient id="paint0_linear_209_119912" x1="152" y1="176" x2="174" y2="183.5" gradientUnits="userSpaceOnUse">
<stop stop-color="#A8690A" stop-opacity="0.81"/>
<stop offset="0.939762" stop-color="#6D4303"/>
</linearGradient>
<linearGradient id="paint1_linear_209_119912" x1="154.5" y1="176" x2="128" y2="185.5" gradientUnits="userSpaceOnUse">
<stop stop-color="#C28427" stop-opacity="0.4"/>
<stop offset="1" stop-color="#885508"/>
</linearGradient>
<linearGradient id="paint2_linear_209_119912" x1="112" y1="138" x2="191" y2="138" gradientUnits="userSpaceOnUse">
<stop offset="0.00865841" stop-color="#744704"/>
<stop offset="0.510756" stop-color="#CD851A"/>
<stop offset="1" stop-color="#724603"/>
</linearGradient>
</defs>
</svg>
