<svg width="303" height="271" viewBox="0 0 303 271" fill="none" xmlns="http://www.w3.org/2000/svg">
<path d="M114.531 78.265C141.905 112.936 127.759 120.956 136.235 148.31" stroke="#633820" stroke-linecap="round"/>
<path d="M113.619 78.3319C115.069 82.0528 110.37 83.3168 107.049 82.0898C104.488 81.1436 101.616 82.1114 101.616 82.1114C101.616 82.1114 101.435 80.3141 104.333 78.1328C107.231 75.9516 112.169 74.611 113.619 78.3319Z" fill="#249312"/>
<path d="M104.352 80.2394C108.193 77.9564 112.834 78.0939 115.716 80.5722" stroke="#164D11" stroke-linecap="round"/>
<path d="M115.501 76.8147C117.78 80.0937 121.45 76.8985 122.284 73.4575C122.927 70.804 125.332 68.9603 125.332 68.9603C125.332 68.9603 123.942 67.8073 120.515 68.9962C117.088 70.1851 113.221 73.5357 115.501 76.8147Z" fill="#249312"/>
<path d="M122.253 70.1869C118.215 72.1018 115.741 76.0306 116.19 79.8049" stroke="#164D11" stroke-linecap="round"/>
<path d="M127.458 117.797C131.664 123.438 124.274 127.786 118.059 127.257C113.265 126.849 108.841 129.838 108.841 129.838C108.841 129.838 107.691 126.87 111.592 121.808C115.493 116.746 123.252 112.156 127.458 117.797Z" fill="#249312"/>
<path d="M112.611 125.377C118.066 119.7 126.014 117.761 132.069 120.62" stroke="#164D11" stroke-linecap="round"/>
<path d="M136.483 128.926C135.001 135.805 143.529 136.689 148.963 133.625C153.153 131.262 158.419 132.142 158.419 132.142C158.419 132.142 158.232 128.965 152.58 125.982C146.928 122.998 137.964 122.048 136.483 128.926Z" fill="#249312"/>
<path d="M153.137 129.651C145.816 126.755 137.781 128.293 133.461 133.41" stroke="#164D11" stroke-linecap="round"/>
<path d="M134.341 104.185C132.562 110.419 140.348 111.748 145.529 109.261C149.525 107.343 154.313 108.472 154.313 108.472C154.313 108.472 154.333 105.539 149.318 102.454C144.303 99.3686 136.12 97.9513 134.341 104.185Z" fill="#249312"/>
<path d="M149.607 105.861C143.053 102.755 135.573 103.681 131.291 108.124" stroke="#164D11" stroke-linecap="round"/>
<path d="M124.13 94.2338C125.817 99.2147 119.561 100.599 115.264 98.7884C111.951 97.392 108.116 98.4951 108.116 98.4951C108.116 98.4951 107.984 96.12 111.926 93.4221C115.867 90.7243 122.442 89.253 124.13 94.2338Z" fill="#249312"/>
<path d="M111.826 96.1945C117.014 93.4185 123.112 93.8743 126.756 97.3052" stroke="#164D11" stroke-linecap="round"/>
<path d="M171.195 81.0098C162.821 111.288 162.302 121.416 165 145.5" stroke="#633820" stroke-linecap="round"/>
<path d="M168.771 85.2429C167.463 88.3591 163.861 86.3621 162.564 83.6613C161.563 81.5786 159.248 80.477 159.248 80.477C159.248 80.477 160.195 79.2773 163.241 79.6566C166.287 80.0359 170.079 82.1268 168.771 85.2429Z" fill="#249312"/>
<path d="M162.013 80.9487C165.692 81.8211 168.434 84.6362 168.728 87.8394" stroke="#164D11" stroke-linecap="round"/>
<path d="M171.667 79.7723C170.269 81.1566 168.777 79.2791 168.682 77.5369C168.608 76.1935 167.608 75.0843 167.608 75.0843C167.608 75.0843 168.386 74.6504 169.939 75.534C171.493 76.4175 173.066 78.3879 171.667 79.7723Z" fill="#249312"/>
<path d="M168.991 75.9549C170.775 77.245 171.622 79.3707 171.065 81.1592" stroke="#164D11" stroke-width="0.25" stroke-linecap="round"/>
<path d="M171.232 79.6891C172.022 81.4917 174.101 80.2968 174.832 78.7127C175.396 77.4912 176.734 76.829 176.734 76.829C176.734 76.829 176.172 76.139 174.402 76.3871C172.632 76.6352 170.443 77.8864 171.232 79.6891Z" fill="#249312"/>
<path d="M175.128 77.1284C172.994 77.6693 171.423 79.3329 171.281 81.2005" stroke="#164D11" stroke-width="0.25" stroke-linecap="round"/>
<path d="M170.808 85.4278C170.264 88.7634 174.376 88.9803 176.909 87.3787C178.861 86.1437 181.409 86.438 181.409 86.438C181.409 86.438 181.242 84.9184 178.458 83.6245C175.675 82.3305 171.352 82.0922 170.808 85.4278Z" fill="#249312"/>
<path d="M178.814 85.3713C175.232 84.1596 171.415 85.0923 169.467 87.6521" stroke="#164D11" stroke-linecap="round"/>
<path d="M159.912 110.406C162.511 115.763 155.678 118.202 150.596 116.775C146.676 115.674 142.524 117.456 142.524 117.456C142.524 117.456 142.04 114.806 146.087 111.218C150.134 107.63 157.312 105.049 159.912 110.406Z" fill="#249312"/>
<path d="M146.367 114.347C151.803 110.495 158.717 110.146 163.296 113.485" stroke="#164D11" stroke-linecap="round"/>
<path d="M167.717 122.237C163.325 126.258 168.776 131.045 174.027 131.594C178.076 132.016 181.278 135.204 181.278 135.204C181.278 135.204 182.706 132.919 180.267 128.092C177.829 123.264 172.109 118.217 167.717 122.237Z" fill="#249312"/>
<path d="M178.853 130.897C175.221 125.311 168.923 122.436 163.435 123.851" stroke="#164D11" stroke-linecap="round"/>
<path d="M169.16 104.038C165.114 107.743 170.136 112.154 174.974 112.659C178.704 113.048 181.655 115.985 181.655 115.985C181.655 115.985 182.97 113.88 180.723 109.433C178.477 104.985 173.207 100.334 169.16 104.038Z" fill="#249312"/>
<path d="M179.421 112.017C176.074 106.871 170.272 104.222 165.216 105.525" stroke="#164D11" stroke-linecap="round"/>
<path d="M164.53 92.8335C166.473 96.8374 161.366 98.6606 157.567 97.5939C154.638 96.7713 151.534 98.1025 151.534 98.1025C151.534 98.1025 151.173 96.1222 154.197 93.4407C157.222 90.7592 162.587 88.8295 164.53 92.8335Z" fill="#249312"/>
<path d="M154.406 95.779C158.47 92.9003 163.637 92.639 167.06 95.1349" stroke="#164D11" stroke-linecap="round"/>
<g filter="url(#filter0_f_61_73603)">
<path d="M210 199C210 203.971 183.585 206.5 151 206.5C118.415 206.5 92 203.971 92 199C92 194.029 118.415 190 151 190C183.585 190 210 194.029 210 199Z" fill="#D9D9D9"/>
</g>
<path d="M115.242 146.198C115.117 145.579 115.59 145 116.222 145H185.245C185.887 145 186.363 145.597 186.219 146.224L174.178 198.724C174.074 199.178 173.67 199.5 173.203 199.5H126.818C126.342 199.5 125.932 199.164 125.838 198.698L115.242 146.198Z" fill="#B4771A"/>
<path d="M115.377 146.869C115.254 146.256 115.192 145.95 115.266 145.708C115.342 145.456 115.515 145.245 115.746 145.12C115.969 145 116.281 145 116.906 145H184.542C185.182 145 185.502 145 185.727 145.124C185.961 145.253 186.133 145.469 186.206 145.726C186.277 145.973 186.205 146.285 186.062 146.909L174.278 198.289C174.183 198.702 174.135 198.909 174.028 199.066C173.915 199.23 173.756 199.357 173.571 199.43C173.394 199.5 173.182 199.5 172.757 199.5H127.277C126.841 199.5 126.624 199.5 126.444 199.427C126.256 199.351 126.095 199.22 125.984 199.051C125.877 198.888 125.834 198.675 125.747 198.249L115.377 146.869Z" fill="url(#paint0_linear_61_73603)"/>
<path d="M115.377 146.869C115.254 146.256 115.192 145.95 115.266 145.708C115.342 145.456 115.515 145.245 115.746 145.12C115.969 145 116.281 145 116.906 145H184.542C185.182 145 185.502 145 185.727 145.124C185.961 145.253 186.133 145.469 186.206 145.726C186.277 145.973 186.205 146.285 186.062 146.909L174.278 198.289C174.183 198.702 174.135 198.909 174.028 199.066C173.915 199.23 173.756 199.357 173.571 199.43C173.394 199.5 173.182 199.5 172.757 199.5H127.277C126.841 199.5 126.624 199.5 126.444 199.427C126.256 199.351 126.095 199.22 125.984 199.051C125.877 198.888 125.834 198.675 125.747 198.249L115.377 146.869Z" fill="url(#paint1_linear_61_73603)"/>
<g filter="url(#filter1_d_61_73603)">
<path d="M111.155 140.135C111.073 139.535 111.54 139 112.146 139H188.802C189.426 139 189.897 139.565 189.786 140.179L188.149 149.179C188.063 149.654 187.649 150 187.165 150H113.373C112.873 150 112.45 149.631 112.382 149.135L111.155 140.135Z" fill="url(#paint2_linear_61_73603)"/>
</g>
<defs>
<filter id="filter0_f_61_73603" x="88" y="186" width="126" height="24.5" filterUnits="userSpaceOnUse" color-interpolation-filters="sRGB">
<feFlood flood-opacity="0" result="BackgroundImageFix"/>
<feBlend mode="normal" in="SourceGraphic" in2="BackgroundImageFix" result="shape"/>
<feGaussianBlur stdDeviation="2" result="effect1_foregroundBlur_61_73603"/>
</filter>
<filter id="filter1_d_61_73603" x="107.145" y="139" width="86.6567" height="19" filterUnits="userSpaceOnUse" color-interpolation-filters="sRGB">
<feFlood flood-opacity="0" result="BackgroundImageFix"/>
<feColorMatrix in="SourceAlpha" type="matrix" values="0 0 0 0 0 0 0 0 0 0 0 0 0 0 0 0 0 0 127 0" result="hardAlpha"/>
<feOffset dy="4"/>
<feGaussianBlur stdDeviation="2"/>
<feComposite in2="hardAlpha" operator="out"/>
<feColorMatrix type="matrix" values="0 0 0 0 0 0 0 0 0 0 0 0 0 0 0 0 0 0 0.25 0"/>
<feBlend mode="normal" in2="BackgroundImageFix" result="effect1_dropShadow_61_73603"/>
<feBlend mode="normal" in="SourceGraphic" in2="effect1_dropShadow_61_73603" result="shape"/>
</filter>
<linearGradient id="paint0_linear_61_73603" x1="151" y1="177" x2="173" y2="184.5" gradientUnits="userSpaceOnUse">
<stop stop-color="#A8690A" stop-opacity="0.81"/>
<stop offset="0.939762" stop-color="#6D4303"/>
</linearGradient>
<linearGradient id="paint1_linear_61_73603" x1="153.5" y1="177" x2="127" y2="186.5" gradientUnits="userSpaceOnUse">
<stop stop-color="#C28427" stop-opacity="0.4"/>
<stop offset="1" stop-color="#885508"/>
</linearGradient>
<linearGradient id="paint2_linear_61_73603" x1="111" y1="139" x2="190" y2="139" gradientUnits="userSpaceOnUse">
<stop offset="0.00865841" stop-color="#744704"/>
<stop offset="0.510756" stop-color="#CD851A"/>
<stop offset="1" stop-color="#724603"/>
</linearGradient>
</defs>
</svg>
