<svg width="303" height="271" viewBox="0 0 303 271" fill="none" xmlns="http://www.w3.org/2000/svg">
<path d="M129.5 84.9998C152 91.5 149 146 149 168" stroke="#408B3A" stroke-width="3" stroke-linecap="round"/>
<path d="M144.214 91.4655C141.874 99.6293 132.374 104.868 121.831 108.724C117.339 100.399 112.31 91.1556 114.65 82.9918C116.99 74.828 126.406 68.7655 131.677 79.3943C144.123 73.3639 146.554 83.3017 144.214 91.4655Z" fill="#6BB964"/>
<path d="M145.275 85.5311C140.738 80.7115 139.371 82.248 137.056 82.5443M144.166 91.7807C139.629 86.961 137.911 85.6686 135.595 85.9649M140 98.5C136.497 95.0964 137.248 89.5119 134.932 89.8082M136.068 101.617C134.992 100.349 133.826 96.0149 131.51 96.3113M130.576 105.152C128.742 104.147 129.949 100.494 128.914 100.197M125.951 107.186C125.213 105.855 126.841 104.082 125.279 102.834" stroke="white" stroke-linecap="round"/>
<path d="M117.727 77.3369C124.277 76.527 124.368 78.5575 125.975 80.2421M114.649 82.7928C121.2 81.9829 123.345 82.0815 124.952 83.7661M114.301 89.2902C119.159 88.9068 121.777 85.7012 123.385 87.3858M115.611 95.2645C117.244 94.9772 119.993 92.5315 121.6 94.2161M117.718 101.307C119.773 101.697 120.175 98.3838 121.163 98.81M119.912 104.815C121.322 104.267 120.323 103.073 122.318 103.108" stroke="white" stroke-linecap="round"/>
<ellipse cx="121.152" cy="90.2113" rx="2.30656" ry="0.768853" transform="rotate(-12.1376 121.152 90.2113)" fill="white"/>
<ellipse cx="1.67682" cy="0.986883" rx="1.67682" ry="0.986883" transform="matrix(0.839872 0.542785 0.542785 -0.839872 138.462 84.7434)" fill="white"/>
<ellipse cx="132.401" cy="99.5142" rx="0.62957" ry="0.96798" transform="rotate(-12.1376 132.401 99.5142)" fill="white"/>
<ellipse cx="131.639" cy="102.175" rx="0.62957" ry="0.96798" transform="rotate(-48.4378 131.639 102.175)" fill="white"/>
<ellipse cx="141.652" cy="87.1614" rx="0.361628" ry="0.556012" transform="rotate(-48.4378 141.652 87.1614)" fill="white"/>
<path d="M131.721 79.3885C131.079 78.6751 131.624 78.4963 130.899 79.048C128.107 81.1708 124.7 99.4488 125.315 99.4488C125.93 99.4489 129.471 78.4502 131.721 79.8168C131.721 79.8168 132.016 79.9043 131.721 79.3885Z" fill="#408B3A"/>
<path d="M174.227 65.3194C146.392 73.3608 150.104 140.784 150.104 168" stroke="#408B3A" stroke-width="3" stroke-linecap="round"/>
<path d="M156.025 73.3181C158.92 83.4177 170.672 89.8985 183.715 94.6694C189.272 84.3694 195.493 72.9347 192.599 62.8352C189.704 52.7357 178.055 45.2356 171.534 58.3847C156.137 50.9243 153.13 63.2186 156.025 73.3181Z" fill="#6BB964"/>
<path d="M154.712 65.9766C160.325 60.0142 162.015 61.9151 164.88 62.2817M156.084 73.7081C161.697 67.7456 163.822 66.1467 166.687 66.5133M161 81.5C165.334 77.2894 165.185 70.9013 168.049 71.2679M166.102 85.8764C167.433 84.3074 168.876 78.9463 171.741 79.3129M172.897 90.2504C175.166 89.0064 173.672 84.4871 174.952 84.1202M178.618 92.7662C179.531 91.1192 177.517 88.926 179.45 87.3827" stroke="white" stroke-linecap="round"/>
<path d="M188.792 55.8395C180.688 54.8375 180.576 57.3495 178.588 59.4335M192.599 62.589C184.496 61.587 181.842 61.709 179.854 63.793M193.03 70.6271C187.021 70.1527 183.781 66.187 181.793 68.271M191.409 78.0179C189.39 77.6625 185.989 74.6369 184.001 76.7209M188.803 85.4934C186.261 85.9761 185.763 81.8768 184.541 82.4041M186.089 89.8333C184.344 89.155 185.581 87.6785 183.112 87.7212" stroke="white" stroke-linecap="round"/>
<ellipse cx="2.85347" cy="0.951158" rx="2.85347" ry="0.951158" transform="matrix(-0.977645 -0.210261 -0.210261 0.977645 187.544 71.4367)" fill="white"/>
<ellipse cx="160.735" cy="65.1027" rx="2.07442" ry="1.22089" transform="rotate(147.127 160.735 65.1027)" fill="white"/>
<ellipse cx="0.77885" cy="1.1975" rx="0.77885" ry="1.1975" transform="matrix(-0.977645 -0.210261 -0.210261 0.977645 171.651 82.2684)" fill="white"/>
<ellipse cx="0.77885" cy="1.1975" rx="0.77885" ry="1.1975" transform="matrix(-0.663433 -0.748236 -0.748236 0.663433 172.994 86.3553)" fill="white"/>
<ellipse cx="0.447375" cy="0.68785" rx="0.447375" ry="0.68785" transform="matrix(-0.663433 -0.748236 -0.748236 0.663433 160.005 67.8718)" fill="white"/>
<path d="M171.48 58.3776C172.274 57.495 171.6 57.2737 172.497 57.9563C175.95 60.5824 180.165 83.1944 179.404 83.1944C178.643 83.1945 174.263 57.2168 171.48 58.9074C171.48 58.9074 171.114 59.0157 171.48 58.3776Z" fill="#408B3A"/>
<path d="M166.049 108.103C149.812 112.794 151.977 152.124 151.977 168" stroke="#408B3A" stroke-width="3" stroke-linecap="round"/>
<path d="M155.431 112.769C157.12 118.66 163.975 122.441 171.584 125.224C174.825 119.215 178.454 112.545 176.766 106.654C175.077 100.762 168.282 96.3874 164.478 104.058C155.496 99.7059 153.743 106.878 155.431 112.769Z" fill="#6BB964"/>
<path d="M154.666 108.486C157.94 105.008 158.926 106.117 160.597 106.331M155.466 112.996C158.74 109.518 159.98 108.586 161.651 108.799M157.5 116.266C160.028 113.81 160.775 111.359 162.445 111.573M161.309 120.095C162.086 119.179 162.928 116.052 164.599 116.266M165.273 122.646C166.597 121.92 165.726 119.284 166.472 119.07M168.61 124.114C169.143 123.153 167.968 121.873 169.096 120.973" stroke="white" stroke-linecap="round"/>
<path d="M174.545 102.573C169.818 101.989 169.753 103.454 168.593 104.67M176.766 106.51C172.039 105.926 170.491 105.997 169.332 107.213M177.018 111.199C173.512 110.922 171.622 108.609 170.463 109.825M176.072 115.51C174.894 115.303 172.91 113.538 171.751 114.754M174.552 119.871C173.069 120.153 172.779 117.761 172.065 118.069M172.969 122.403C171.951 122.007 172.672 121.146 171.232 121.171" stroke="white" stroke-linecap="round"/>
<ellipse cx="1.66453" cy="0.554842" rx="1.66453" ry="0.554842" transform="matrix(-0.977645 -0.210261 -0.210261 0.977645 173.818 111.671)" fill="white"/>
<ellipse cx="158.179" cy="107.977" rx="1.21008" ry="0.712184" transform="rotate(147.127 158.179 107.977)" fill="white"/>
<ellipse cx="0.454329" cy="0.698542" rx="0.454329" ry="0.698542" transform="matrix(-0.977645 -0.210261 -0.210261 0.977645 164.547 117.99)" fill="white"/>
<ellipse cx="0.454329" cy="0.698542" rx="0.454329" ry="0.698542" transform="matrix(-0.663433 -0.748236 -0.748236 0.663433 165.33 120.374)" fill="white"/>
<ellipse cx="0.260969" cy="0.401246" rx="0.260969" ry="0.401246" transform="matrix(-0.663433 -0.748236 -0.748236 0.663433 157.753 109.592)" fill="white"/>
<path d="M164.447 104.054C164.91 103.539 164.517 103.41 165.04 103.808C167.054 105.34 169.513 118.53 169.069 118.53C168.625 118.53 166.07 103.376 164.447 104.363C164.447 104.363 164.233 104.426 164.447 104.054Z" fill="#408B3A"/>
<path d="M137.401 125.094C148.801 128.387 147.281 156.002 147.281 167.149" stroke="#408B3A" stroke-width="3" stroke-linecap="round"/>
<path d="M144.856 128.37C143.67 132.506 138.857 135.161 133.515 137.115C131.239 132.896 128.691 128.213 129.876 124.076C131.062 119.94 135.833 116.868 138.504 122.253C144.81 119.198 146.042 124.233 144.856 128.37Z" fill="#6BB964"/>
<path d="M145.394 125.363C143.095 122.921 142.402 123.699 141.229 123.849M144.832 128.529C142.533 126.087 141.662 125.432 140.489 125.583M142 133C142.5 129.706 141.104 127.38 139.931 127.53M140.729 133.513C140.183 132.871 139.592 130.675 138.419 130.825M137.946 135.305C137.016 134.795 137.628 132.944 137.104 132.794M135.602 136.335C135.228 135.661 136.053 134.762 135.262 134.13" stroke="white" stroke-linecap="round"/>
<path d="M131.435 121.211C134.754 120.8 134.8 121.829 135.615 122.683M129.876 123.975C133.195 123.565 134.282 123.615 135.096 124.468M129.699 127.268C132.161 127.073 133.488 125.449 134.302 126.303M130.363 130.295C131.19 130.149 132.583 128.91 133.398 129.763M131.431 133.356C132.472 133.554 132.676 131.875 133.177 132.091M132.542 135.134C133.257 134.856 132.751 134.251 133.762 134.269" stroke="white" stroke-linecap="round"/>
<ellipse cx="133.171" cy="127.734" rx="1.16872" ry="0.389573" transform="rotate(-12.1376 133.171 127.734)" fill="white"/>
<ellipse cx="0.849637" cy="0.500048" rx="0.849637" ry="0.500048" transform="matrix(0.839872 0.542785 0.542785 -0.839872 141.942 124.964)" fill="white"/>
<ellipse cx="138.871" cy="132.448" rx="0.319" ry="0.49047" transform="rotate(-12.1376 138.871 132.448)" fill="white"/>
<ellipse cx="138.484" cy="133.796" rx="0.319" ry="0.49047" transform="rotate(-48.4378 138.484 133.796)" fill="white"/>
<ellipse cx="143.558" cy="126.189" rx="0.183235" ry="0.281728" transform="rotate(-48.4378 143.558 126.189)" fill="white"/>
<path d="M138.526 122.25C138.201 121.889 138.477 121.798 138.109 122.078C136.695 123.153 134.969 132.415 135.28 132.415C135.592 132.415 137.386 121.775 138.526 122.467C138.526 122.467 138.676 122.512 138.526 122.25Z" fill="#408B3A"/>
<g filter="url(#filter0_f_61_68900)">
<path d="M210 216C210 220.971 183.585 223.5 151 223.5C118.415 223.5 92 220.971 92 216C92 211.029 118.415 207 151 207C183.585 207 210 211.029 210 216Z" fill="#D9D9D9"/>
</g>
<path d="M115.242 163.198C115.117 162.579 115.59 162 116.222 162H185.245C185.887 162 186.363 162.597 186.219 163.224L174.178 215.724C174.074 216.178 173.67 216.5 173.203 216.5H126.818C126.342 216.5 125.932 216.164 125.838 215.698L115.242 163.198Z" fill="#B4771A"/>
<path d="M115.377 163.869C115.254 163.256 115.192 162.95 115.266 162.708C115.342 162.456 115.515 162.245 115.746 162.12C115.969 162 116.281 162 116.906 162H184.542C185.182 162 185.502 162 185.727 162.124C185.961 162.253 186.133 162.469 186.206 162.726C186.277 162.973 186.205 163.285 186.062 163.909L174.278 215.289C174.183 215.702 174.135 215.909 174.028 216.066C173.915 216.23 173.756 216.357 173.571 216.43C173.394 216.5 173.182 216.5 172.757 216.5H127.277C126.841 216.5 126.624 216.5 126.444 216.427C126.256 216.351 126.095 216.22 125.984 216.051C125.877 215.888 125.834 215.675 125.747 215.249L115.377 163.869Z" fill="url(#paint0_linear_61_68900)"/>
<path d="M115.377 163.869C115.254 163.256 115.192 162.95 115.266 162.708C115.342 162.456 115.515 162.245 115.746 162.12C115.969 162 116.281 162 116.906 162H184.542C185.182 162 185.502 162 185.727 162.124C185.961 162.253 186.133 162.469 186.206 162.726C186.277 162.973 186.205 163.285 186.062 163.909L174.278 215.289C174.183 215.702 174.135 215.909 174.028 216.066C173.915 216.23 173.756 216.357 173.571 216.43C173.394 216.5 173.182 216.5 172.757 216.5H127.277C126.841 216.5 126.624 216.5 126.444 216.427C126.256 216.351 126.095 216.22 125.984 216.051C125.877 215.888 125.834 215.675 125.747 215.249L115.377 163.869Z" fill="url(#paint1_linear_61_68900)"/>
<g filter="url(#filter1_d_61_68900)">
<path d="M111.155 157.135C111.073 156.535 111.54 156 112.146 156H188.802C189.426 156 189.897 156.565 189.786 157.179L188.149 166.179C188.063 166.654 187.649 167 187.165 167H113.373C112.873 167 112.45 166.631 112.382 166.135L111.155 157.135Z" fill="url(#paint2_linear_61_68900)"/>
</g>
<defs>
<filter id="filter0_f_61_68900" x="88" y="203" width="126" height="24.5" filterUnits="userSpaceOnUse" color-interpolation-filters="sRGB">
<feFlood flood-opacity="0" result="BackgroundImageFix"/>
<feBlend mode="normal" in="SourceGraphic" in2="BackgroundImageFix" result="shape"/>
<feGaussianBlur stdDeviation="2" result="effect1_foregroundBlur_61_68900"/>
</filter>
<filter id="filter1_d_61_68900" x="107.145" y="156" width="86.6567" height="19" filterUnits="userSpaceOnUse" color-interpolation-filters="sRGB">
<feFlood flood-opacity="0" result="BackgroundImageFix"/>
<feColorMatrix in="SourceAlpha" type="matrix" values="0 0 0 0 0 0 0 0 0 0 0 0 0 0 0 0 0 0 127 0" result="hardAlpha"/>
<feOffset dy="4"/>
<feGaussianBlur stdDeviation="2"/>
<feComposite in2="hardAlpha" operator="out"/>
<feColorMatrix type="matrix" values="0 0 0 0 0 0 0 0 0 0 0 0 0 0 0 0 0 0 0.25 0"/>
<feBlend mode="normal" in2="BackgroundImageFix" result="effect1_dropShadow_61_68900"/>
<feBlend mode="normal" in="SourceGraphic" in2="effect1_dropShadow_61_68900" result="shape"/>
</filter>
<linearGradient id="paint0_linear_61_68900" x1="151" y1="194" x2="173" y2="201.5" gradientUnits="userSpaceOnUse">
<stop stop-color="#A8690A" stop-opacity="0.81"/>
<stop offset="0.939762" stop-color="#6D4303"/>
</linearGradient>
<linearGradient id="paint1_linear_61_68900" x1="153.5" y1="194" x2="127" y2="203.5" gradientUnits="userSpaceOnUse">
<stop stop-color="#C28427" stop-opacity="0.4"/>
<stop offset="1" stop-color="#885508"/>
</linearGradient>
<linearGradient id="paint2_linear_61_68900" x1="111" y1="156" x2="190" y2="156" gradientUnits="userSpaceOnUse">
<stop offset="0.00865841" stop-color="#744704"/>
<stop offset="0.510756" stop-color="#CD851A"/>
<stop offset="1" stop-color="#724603"/>
</linearGradient>
</defs>
</svg>
