<svg width="303" height="211" viewBox="0 0 303 211" fill="none" xmlns="http://www.w3.org/2000/svg">
<path d="M130.5 67.9998C153 74.5 150 129 150 151" stroke="#408B3A" stroke-width="3" stroke-linecap="round"/>
<path d="M145.214 74.4655C142.874 82.6293 133.374 87.868 122.831 91.7245C118.339 83.3986 113.31 74.1556 115.65 65.9918C117.99 57.828 127.406 51.7655 132.677 62.3943C145.123 56.3639 147.554 66.3017 145.214 74.4655Z" fill="#6BB964"/>
<path d="M146.275 68.5311C141.738 63.7115 140.371 65.248 138.056 65.5443M145.166 74.7807C140.629 69.961 138.911 68.6686 136.595 68.9649M141 81.5C137.497 78.0964 138.248 72.5119 135.932 72.8082M137.068 84.6167C135.992 83.3485 134.826 79.0149 132.51 79.3113M131.576 88.1524C129.742 87.1468 130.949 83.4937 129.914 83.1971M126.951 90.186C126.213 88.8547 127.841 87.0818 126.279 85.8343" stroke="white" stroke-linecap="round"/>
<path d="M118.727 60.3369C125.277 59.527 125.368 61.5575 126.975 63.2421M115.649 65.7928C122.2 64.9829 124.345 65.0815 125.952 66.7661M115.301 72.2902C120.159 71.9068 122.777 68.7012 124.385 70.3858M116.611 78.2645C118.244 77.9772 120.993 75.5315 122.6 77.2161M118.718 84.3072C120.773 84.6974 121.175 81.3838 122.163 81.81M120.912 87.8153C122.322 87.267 121.323 86.0735 123.318 86.108" stroke="white" stroke-linecap="round"/>
<ellipse cx="122.152" cy="73.2113" rx="2.30656" ry="0.768853" transform="rotate(-12.1376 122.152 73.2113)" fill="white"/>
<ellipse cx="1.67682" cy="0.986883" rx="1.67682" ry="0.986883" transform="matrix(0.839872 0.542785 0.542785 -0.839872 139.462 67.7434)" fill="white"/>
<ellipse cx="133.401" cy="82.5142" rx="0.62957" ry="0.96798" transform="rotate(-12.1376 133.401 82.5142)" fill="white"/>
<ellipse cx="132.639" cy="85.175" rx="0.62957" ry="0.96798" transform="rotate(-48.4378 132.639 85.175)" fill="white"/>
<ellipse cx="142.652" cy="70.1614" rx="0.361628" ry="0.556012" transform="rotate(-48.4378 142.652 70.1614)" fill="white"/>
<path d="M132.721 62.3885C132.079 61.6751 132.624 61.4963 131.899 62.048C129.107 64.1708 125.7 82.4488 126.315 82.4488C126.93 82.4489 130.471 61.4502 132.721 62.8168C132.721 62.8168 133.016 62.9043 132.721 62.3885Z" fill="#408B3A"/>
<path d="M175.227 48.3194C147.392 56.3608 151.104 123.784 151.104 151" stroke="#408B3A" stroke-width="3" stroke-linecap="round"/>
<path d="M157.025 56.3181C159.92 66.4177 171.672 72.8985 184.715 77.6694C190.272 67.3694 196.493 55.9347 193.599 45.8352C190.704 35.7357 179.055 28.2356 172.534 41.3847C157.137 33.9243 154.13 46.2186 157.025 56.3181Z" fill="#6BB964"/>
<path d="M155.712 48.9766C161.325 43.0142 163.015 44.9151 165.88 45.2817M157.084 56.7081C162.697 50.7456 164.822 49.1467 167.687 49.5133M162 64.5C166.334 60.2894 166.185 53.9013 169.049 54.2679M167.102 68.8764C168.433 67.3074 169.876 61.9463 172.741 62.3129M173.897 73.2504C176.166 72.0064 174.672 67.4871 175.952 67.1202M179.618 75.7662C180.531 74.1192 178.517 71.926 180.45 70.3827" stroke="white" stroke-linecap="round"/>
<path d="M189.792 38.8395C181.688 37.8375 181.576 40.3495 179.588 42.4335M193.599 45.589C185.496 44.587 182.842 44.709 180.854 46.793M194.03 53.6271C188.021 53.1527 184.781 49.187 182.793 51.271M192.409 61.0179C190.39 60.6625 186.989 57.6369 185.001 59.7209M189.803 68.4934C187.261 68.9761 186.763 64.8768 185.541 65.4041M187.089 72.8333C185.344 72.155 186.581 70.6785 184.112 70.7212" stroke="white" stroke-linecap="round"/>
<ellipse cx="2.85347" cy="0.951158" rx="2.85347" ry="0.951158" transform="matrix(-0.977645 -0.210261 -0.210261 0.977645 188.544 54.4367)" fill="white"/>
<ellipse cx="161.735" cy="48.1027" rx="2.07442" ry="1.22089" transform="rotate(147.127 161.735 48.1027)" fill="white"/>
<ellipse cx="0.77885" cy="1.1975" rx="0.77885" ry="1.1975" transform="matrix(-0.977645 -0.210261 -0.210261 0.977645 172.651 65.2684)" fill="white"/>
<ellipse cx="0.77885" cy="1.1975" rx="0.77885" ry="1.1975" transform="matrix(-0.663433 -0.748236 -0.748236 0.663433 173.994 69.3553)" fill="white"/>
<ellipse cx="0.447375" cy="0.68785" rx="0.447375" ry="0.68785" transform="matrix(-0.663433 -0.748236 -0.748236 0.663433 161.005 50.8718)" fill="white"/>
<path d="M172.48 41.3776C173.274 40.495 172.6 40.2738 173.497 40.9563C176.95 43.5824 181.165 66.1944 180.404 66.1944C179.643 66.1945 175.263 40.2168 172.48 41.9074C172.48 41.9074 172.114 42.0157 172.48 41.3776Z" fill="#408B3A"/>
<path d="M167.049 91.103C150.812 95.7938 152.977 135.124 152.977 151" stroke="#408B3A" stroke-width="3" stroke-linecap="round"/>
<path d="M156.431 95.7689C158.12 101.66 164.976 105.441 172.584 108.224C175.826 102.215 179.455 95.5453 177.766 89.6539C176.077 83.7625 169.282 79.3874 165.478 87.0577C156.497 82.7059 154.743 89.8775 156.431 95.7689Z" fill="#6BB964"/>
<path d="M155.666 91.4864C158.94 88.0083 159.926 89.1171 161.597 89.3309M156.466 95.9964C159.74 92.5183 160.98 91.5856 162.651 91.7994M158.5 99.2658C161.028 96.8096 161.775 94.3591 163.446 94.5729M162.31 103.095C163.086 102.179 163.928 99.052 165.599 99.2658M166.273 105.646C167.597 104.92 166.726 102.284 167.472 102.07M169.611 107.114C170.143 106.153 168.969 104.873 170.096 103.973" stroke="white" stroke-linecap="round"/>
<path d="M175.545 85.573C170.818 84.9885 170.753 86.4539 169.593 87.6695M177.766 89.5103C173.039 88.9258 171.491 88.9969 170.332 90.2126M178.018 94.1991C174.512 93.9224 172.622 91.6091 171.463 92.8248M177.072 98.5105C175.894 98.3031 173.91 96.5382 172.751 97.7539M175.552 102.871C174.069 103.153 173.779 100.761 173.065 101.069M173.969 105.403C172.951 105.007 173.672 104.146 172.232 104.171" stroke="white" stroke-linecap="round"/>
<ellipse cx="1.66453" cy="0.554842" rx="1.66453" ry="0.554842" transform="matrix(-0.977645 -0.210261 -0.210261 0.977645 174.818 94.6714)" fill="white"/>
<ellipse cx="159.179" cy="90.9766" rx="1.21008" ry="0.712184" transform="rotate(147.127 159.179 90.9766)" fill="white"/>
<ellipse cx="0.454329" cy="0.698542" rx="0.454329" ry="0.698542" transform="matrix(-0.977645 -0.210261 -0.210261 0.977645 165.547 100.99)" fill="white"/>
<ellipse cx="0.454329" cy="0.698542" rx="0.454329" ry="0.698542" transform="matrix(-0.663433 -0.748236 -0.748236 0.663433 166.33 103.374)" fill="white"/>
<ellipse cx="0.260969" cy="0.401246" rx="0.260969" ry="0.401246" transform="matrix(-0.663433 -0.748236 -0.748236 0.663433 158.753 92.5919)" fill="white"/>
<path d="M165.447 87.0536C165.91 86.5387 165.517 86.4097 166.04 86.8078C168.055 88.3397 170.513 101.53 170.069 101.53C169.625 101.53 167.07 86.3765 165.447 87.3626C165.447 87.3626 165.234 87.4258 165.447 87.0536Z" fill="#408B3A"/>
<path d="M138.401 108.094C149.801 111.387 148.281 139.002 148.281 150.149" stroke="#408B3A" stroke-width="3" stroke-linecap="round"/>
<path d="M145.856 111.37C144.67 115.506 139.857 118.161 134.515 120.115C132.239 115.896 129.691 111.213 130.876 107.076C132.062 102.94 136.833 99.8678 139.504 105.253C145.81 102.198 147.042 107.233 145.856 111.37Z" fill="#6BB964"/>
<path d="M146.394 108.363C144.095 105.921 143.402 106.699 142.229 106.849M145.832 111.529C143.533 109.087 142.662 108.432 141.489 108.583M143 116C143.5 112.706 142.104 110.38 140.931 110.53M141.729 116.513C141.183 115.871 140.592 113.675 139.419 113.825M138.946 118.305C138.016 117.795 138.628 115.944 138.104 115.794M136.602 119.335C136.228 118.661 137.053 117.762 136.262 117.13" stroke="white" stroke-linecap="round"/>
<path d="M132.435 104.211C135.754 103.8 135.8 104.829 136.615 105.683M130.876 106.975C134.195 106.565 135.282 106.615 136.096 107.468M130.699 110.268C133.161 110.073 134.488 108.449 135.302 109.303M131.363 113.295C132.19 113.149 133.583 111.91 134.398 112.763M132.431 116.356C133.472 116.554 133.676 114.875 134.177 115.091M133.542 118.134C134.257 117.856 133.751 117.251 134.762 117.269" stroke="white" stroke-linecap="round"/>
<ellipse cx="134.171" cy="110.734" rx="1.16872" ry="0.389573" transform="rotate(-12.1376 134.171 110.734)" fill="white"/>
<ellipse cx="0.849637" cy="0.500048" rx="0.849637" ry="0.500048" transform="matrix(0.839872 0.542785 0.542785 -0.839872 142.942 107.964)" fill="white"/>
<ellipse cx="139.871" cy="115.448" rx="0.319" ry="0.49047" transform="rotate(-12.1376 139.871 115.448)" fill="white"/>
<ellipse cx="139.484" cy="116.796" rx="0.319" ry="0.49047" transform="rotate(-48.4378 139.484 116.796)" fill="white"/>
<ellipse cx="144.558" cy="109.189" rx="0.183235" ry="0.281728" transform="rotate(-48.4378 144.558 109.189)" fill="white"/>
<path d="M139.526 105.25C139.201 104.889 139.477 104.798 139.109 105.078C137.695 106.153 135.969 115.415 136.28 115.415C136.592 115.415 138.386 104.775 139.526 105.467C139.526 105.467 139.676 105.512 139.526 105.25Z" fill="#408B3A"/>
<g filter="url(#filter0_f_209_118932)">
<path d="M211 199C211 203.971 184.585 206.5 152 206.5C119.415 206.5 93 203.971 93 199C93 194.029 119.415 190 152 190C184.585 190 211 194.029 211 199Z" fill="#D9D9D9"/>
</g>
<path d="M116.242 146.198C116.117 145.579 116.59 145 117.222 145H186.245C186.887 145 187.363 145.597 187.219 146.224L175.178 198.724C175.074 199.178 174.67 199.5 174.203 199.5H127.818C127.342 199.5 126.932 199.164 126.838 198.698L116.242 146.198Z" fill="#B4771A"/>
<path d="M116.377 146.869C116.254 146.256 116.192 145.95 116.266 145.708C116.342 145.456 116.515 145.245 116.746 145.12C116.969 145 117.281 145 117.906 145H185.542C186.182 145 186.502 145 186.727 145.124C186.961 145.253 187.133 145.469 187.206 145.726C187.277 145.973 187.205 146.285 187.062 146.909L175.278 198.289C175.183 198.702 175.135 198.909 175.028 199.066C174.915 199.23 174.756 199.357 174.571 199.43C174.394 199.5 174.182 199.5 173.757 199.5H128.277C127.841 199.5 127.624 199.5 127.444 199.427C127.256 199.351 127.095 199.22 126.984 199.051C126.877 198.888 126.834 198.675 126.747 198.249L116.377 146.869Z" fill="url(#paint0_linear_209_118932)"/>
<path d="M116.377 146.869C116.254 146.256 116.192 145.95 116.266 145.708C116.342 145.456 116.515 145.245 116.746 145.12C116.969 145 117.281 145 117.906 145H185.542C186.182 145 186.502 145 186.727 145.124C186.961 145.253 187.133 145.469 187.206 145.726C187.277 145.973 187.205 146.285 187.062 146.909L175.278 198.289C175.183 198.702 175.135 198.909 175.028 199.066C174.915 199.23 174.756 199.357 174.571 199.43C174.394 199.5 174.182 199.5 173.757 199.5H128.277C127.841 199.5 127.624 199.5 127.444 199.427C127.256 199.351 127.095 199.22 126.984 199.051C126.877 198.888 126.834 198.675 126.747 198.249L116.377 146.869Z" fill="url(#paint1_linear_209_118932)"/>
<g filter="url(#filter1_d_209_118932)">
<path d="M112.155 140.135C112.073 139.535 112.54 139 113.146 139H189.802C190.426 139 190.897 139.565 190.786 140.179L189.149 149.179C189.063 149.654 188.649 150 188.165 150H114.373C113.873 150 113.45 149.631 113.382 149.135L112.155 140.135Z" fill="url(#paint2_linear_209_118932)"/>
</g>
<defs>
<filter id="filter0_f_209_118932" x="89" y="186" width="126" height="24.5" filterUnits="userSpaceOnUse" color-interpolation-filters="sRGB">
<feFlood flood-opacity="0" result="BackgroundImageFix"/>
<feBlend mode="normal" in="SourceGraphic" in2="BackgroundImageFix" result="shape"/>
<feGaussianBlur stdDeviation="2" result="effect1_foregroundBlur_209_118932"/>
</filter>
<filter id="filter1_d_209_118932" x="108.145" y="139" width="86.6566" height="19" filterUnits="userSpaceOnUse" color-interpolation-filters="sRGB">
<feFlood flood-opacity="0" result="BackgroundImageFix"/>
<feColorMatrix in="SourceAlpha" type="matrix" values="0 0 0 0 0 0 0 0 0 0 0 0 0 0 0 0 0 0 127 0" result="hardAlpha"/>
<feOffset dy="4"/>
<feGaussianBlur stdDeviation="2"/>
<feComposite in2="hardAlpha" operator="out"/>
<feColorMatrix type="matrix" values="0 0 0 0 0 0 0 0 0 0 0 0 0 0 0 0 0 0 0.25 0"/>
<feBlend mode="normal" in2="BackgroundImageFix" result="effect1_dropShadow_209_118932"/>
<feBlend mode="normal" in="SourceGraphic" in2="effect1_dropShadow_209_118932" result="shape"/>
</filter>
<linearGradient id="paint0_linear_209_118932" x1="152" y1="177" x2="174" y2="184.5" gradientUnits="userSpaceOnUse">
<stop stop-color="#A8690A" stop-opacity="0.81"/>
<stop offset="0.939762" stop-color="#6D4303"/>
</linearGradient>
<linearGradient id="paint1_linear_209_118932" x1="154.5" y1="177" x2="128" y2="186.5" gradientUnits="userSpaceOnUse">
<stop stop-color="#C28427" stop-opacity="0.4"/>
<stop offset="1" stop-color="#885508"/>
</linearGradient>
<linearGradient id="paint2_linear_209_118932" x1="112" y1="139" x2="191" y2="139" gradientUnits="userSpaceOnUse">
<stop offset="0.00865841" stop-color="#744704"/>
<stop offset="0.510756" stop-color="#CD851A"/>
<stop offset="1" stop-color="#724603"/>
</linearGradient>
</defs>
</svg>
