<svg width="64" height="149" viewBox="0 0 64 149" fill="none" xmlns="http://www.w3.org/2000/svg">
<path d="M34.0625 77.0625C34.0625 77.4583 33.2188 79.2188 31.5312 82.3438C29.2604 86.5729 27.4271 90.1042 26.0312 92.9375C24.6354 95.75 23.9375 97.5208 23.9375 98.25C23.9375 98.6875 24.0625 99.0417 24.3125 99.3125C24.5833 99.5833 24.9062 99.7188 25.2812 99.7188C25.3438 99.7188 25.5417 99.6979 25.875 99.6562C26.2083 99.6146 26.4062 99.5938 26.4688 99.5938L37.75 77.1875C37.7292 76.25 37.0833 73.9688 35.8125 70.3438C34.4583 66.4896 32.9688 62.875 31.3438 59.5C29.7396 56.1042 28.5417 54.2292 27.75 53.875V53.8125L26.0312 54.9062C26.0729 56.1146 26.3646 57.4896 26.9062 59.0312C27.3021 60.1979 27.7604 61.3229 28.2812 62.4062C28.8021 63.4896 29.5312 64.9583 30.4688 66.8125C30.6562 67.1458 30.9167 67.6458 31.25 68.3125C32.1042 69.9792 32.7812 71.5729 33.2812 73.0938C33.8021 74.6146 34.0625 75.9375 34.0625 77.0625Z" fill="black"/>
</svg>
