<svg width="64" height="149" viewBox="0 0 64 149" fill="none" xmlns="http://www.w3.org/2000/svg">
<path d="M29.9375 77.0625C29.9375 77.4583 30.7812 79.2188 32.4688 82.3438C34.7396 86.5729 36.5729 90.1042 37.9688 92.9375C39.3646 95.75 40.0625 97.5208 40.0625 98.25C40.0625 98.6875 39.9375 99.0417 39.6875 99.3125C39.4167 99.5833 39.0938 99.7188 38.7188 99.7188C38.6562 99.7188 38.4583 99.6979 38.125 99.6562C37.7917 99.6146 37.5938 99.5938 37.5312 99.5938L26.25 77.1875C26.2708 76.25 26.9167 73.9688 28.1875 70.3438C29.5417 66.4896 31.0312 62.875 32.6562 59.5C34.2604 56.1042 35.4583 54.2292 36.25 53.875V53.8125L37.9688 54.9062C37.9271 56.1146 37.6354 57.4896 37.0938 59.0312C36.6979 60.1979 36.2396 61.3229 35.7188 62.4062C35.1979 63.4896 34.4688 64.9583 33.5312 66.8125C33.3438 67.1458 33.0833 67.6458 32.75 68.3125C31.8958 69.9792 31.2188 71.5729 30.7188 73.0938C30.1979 74.6146 29.9375 75.9375 29.9375 77.0625Z" fill="black"/>
</svg>
