<svg width="303" height="271" viewBox="0 0 303 271" fill="none" xmlns="http://www.w3.org/2000/svg">
<path d="M158.456 73.4047C158.886 70.9919 160.108 66.5315 163.047 63.6346C169.265 57.5053 182.063 58.2441 182.063 58.2441C182.063 58.2441 172.572 57.6087 167.717 64.8915C165.834 67.7157 164.753 71.8253 164.188 73.7655C162.825 78.4474 161.091 86.1622 160.591 92.3615C157.795 127.029 150.91 166.836 150.91 166.836L147.514 166.482C147.514 166.482 149.999 124.352 154.945 88.895C155.679 83.6287 157.616 78.1182 158.456 73.4047Z" fill="#80C825"/>
<path d="M159.756 74.3185C160.13 72.0025 161.925 67.4057 163.842 65.1772C167.46 59.1054 178.188 58.5298 178.188 58.5298C178.188 58.5298 169.418 58.7698 166.438 65.8911C165.282 68.6527 163.133 72.581 162.718 74.4514C161.718 78.9647 160.336 86.3829 159.691 92.3109C156.083 125.461 150.631 166.794 150.631 166.794L149.029 165.968C149.029 165.968 152.19 123.197 156.966 89.2142C157.675 84.167 159.026 78.8427 159.756 74.3185Z" fill="#E0FF9F"/>
<path d="M139.363 72.8091C138.947 70.3939 137.751 65.9266 134.828 63.013C128.645 56.8483 115.843 57.514 115.843 57.514C115.843 57.514 125.338 56.9327 130.151 64.2431C132.018 67.0781 133.076 71.1937 133.63 73.1371C134.966 77.8268 136.655 85.5514 137.12 91.7535C139.718 126.436 146.376 166.282 146.376 166.282L149.774 165.948C149.774 165.948 147.529 123.804 142.786 88.3192C142.082 83.0488 140.176 77.5274 139.363 72.8091Z" fill="#80C825"/>
<path d="M138.058 73.7154C137.698 71.3974 135.929 66.7904 134.025 64.5509C130.441 58.4585 119.717 57.8217 119.717 57.8217C119.717 57.8217 128.485 58.1118 131.425 65.25C132.565 68.0182 134.691 71.9587 135.095 73.8314C136.07 78.3504 137.409 85.7763 138.021 91.708C141.439 124.878 146.654 166.242 146.654 166.242L148.262 165.425C148.262 165.425 145.345 122.636 140.763 88.6269C140.083 83.5756 138.762 78.2437 138.058 73.7154Z" fill="#E0FF9F"/>
<path d="M166.837 74.4882C167.78 72.226 171.29 68.3125 174.389 65.5872C180.945 59.8209 206.025 78.4366 206.025 78.4366C206.025 78.4366 180.265 64.0573 175.004 71.0526C172.964 73.7654 173.201 73.9551 172.527 75.8601C170.9 80.4571 168.509 84.8663 166.675 92.3326C161.915 126.785 152.78 166.137 152.78 166.137L149.409 165.591C149.409 165.591 154.283 123.67 161.234 88.551C162.267 83.3349 164.857 79.2397 166.837 74.4882Z" fill="#80C825"/>
<path d="M167.852 76.3865C168.357 74.0955 172.754 68.6638 174.795 66.5477C178.752 60.6912 200.996 75.8139 200.996 75.8139C200.996 75.8139 180.533 63.8887 175.515 68.4792C174.205 71.1707 171.024 75.7535 170.504 77.5973C169.249 82.0465 166.347 87.7324 165.366 93.6142C159.881 126.506 152.091 167.463 152.091 167.463L150.538 166.547C150.538 166.547 156.122 124.024 162.821 90.3678C163.816 85.3689 166.866 80.8619 167.852 76.3865Z" fill="#E0FF9F"/>
<path d="M166.819 84.65C168.501 82.9857 172.976 77.7434 180.325 78.5325C192.084 79.7949 217.66 101.411 217.66 101.411C217.66 101.411 202.476 94.4011 195.789 89.2776C181.748 78.5194 174.66 81.7058 172.715 84.5958C170.274 88.2234 164.782 93.992 163.891 99.2399C158.91 128.587 152.199 165.859 152.199 165.859L149.878 164.89C149.878 164.89 154.146 126.816 160.809 96.8841C161.799 92.4384 163.614 87.8222 166.819 84.65Z" fill="#80C825"/>
<path d="M167.858 85.3692C169.204 83.647 174.428 78.6011 179.932 79.0713C188.739 79.8236 211.972 97.7803 211.972 97.7803C211.972 97.7803 199.714 90.8219 193.808 86.8987C180.687 78.182 173.794 80.6125 172.192 83.5617C170.182 87.2636 163.271 93.8081 163.465 99.5515C156.334 127.613 151.932 166.412 151.932 166.412L150.228 165.55C150.228 165.55 155.233 127.604 161.663 97.6309C162.618 93.1792 165.292 88.652 167.858 85.3692Z" fill="#E0FF9F"/>
<path d="M163.84 97.4712C165.757 96.0367 170.811 91.6622 179.627 90.9142C193.731 89.7174 199.095 108.745 199.095 108.745C199.095 108.745 191.371 100.484 186.764 95.8606C183.395 92.4794 176.838 93.9601 173.888 94.5872C168.736 95.6823 161.92 104.226 161.144 107.976C156.806 128.947 150.838 155.648 150.838 155.648L148.015 155.392C148.015 155.392 151.023 128.57 157.336 106.903C158.274 103.685 160.188 100.206 163.84 97.4712Z" fill="#80C825"/>
<path d="M168.168 95.4784C169.474 94.4352 174.107 92.0708 180.048 91.5511C189.554 90.7194 197.274 105.411 197.274 105.411C197.274 105.411 190.283 96.7345 185.821 94.2494C180.917 91.5175 174.832 93.0103 172.66 94.1729C169.777 95.7162 163.034 99.8155 160.14 107.347C156.986 122.67 153.299 142.303 153.299 142.303L151.402 142.107C151.402 142.107 154.741 118.658 160.42 103.433C162.122 100.618 165.778 97.3883 168.168 95.4784Z" fill="#E0FF9F"/>
<path d="M132.773 102.699C130.93 101.253 126.078 96.8449 117.516 96.0722C103.815 94.8359 98.3202 113.943 98.3202 113.943C98.3202 113.943 105.953 105.66 110.501 101.025C113.828 97.636 120.183 99.1395 123.043 99.7767C128.037 100.889 134.542 109.491 135.242 113.261C139.153 134.343 144.567 161.187 144.567 161.187L147.317 160.936C147.317 160.936 144.784 133.978 138.96 112.192C138.096 108.956 136.285 105.455 132.773 102.699Z" fill="#80C825"/>
<path d="M128.593 100.686C127.338 99.6347 122.867 97.2478 117.096 96.7113C107.864 95.8529 100.14 110.597 100.14 110.597C100.14 110.597 107.066 101.895 111.442 99.4088C116.251 96.6755 122.148 98.1901 124.243 99.3635C127.025 100.921 133.522 105.056 136.227 112.632C139.071 128.036 142.369 147.773 142.369 147.773L144.217 147.58C144.217 147.58 141.312 124.01 136.012 108.698C134.398 105.865 130.89 102.611 128.593 100.686Z" fill="#E0FF9F"/>
<path d="M161.456 119.304C162.608 118.188 165.67 114.671 170.721 115.219C178.802 116.096 196.424 130.703 196.424 130.703C196.424 130.703 185.976 125.95 181.37 122.486C171.698 115.213 166.836 117.341 165.506 119.282C163.838 121.717 160.078 125.587 159.478 129.116C156.124 148.855 151.601 173.923 151.601 173.923L150.004 173.265C150.004 173.265 152.847 147.652 157.355 127.524C158.025 124.534 159.261 121.432 161.456 119.304Z" fill="#80C825"/>
<path d="M162.171 119.791C163.092 118.635 166.669 115.251 170.452 115.581C176.504 116.107 192.507 128.246 192.507 128.246C192.507 128.246 184.07 123.535 180.003 120.881C170.968 114.984 166.239 116.603 165.145 118.584C163.772 121.071 159.039 125.459 159.186 129.325C154.353 148.193 151.419 174.294 151.419 174.294L150.246 173.71C150.246 173.71 153.596 148.184 157.944 128.028C158.589 125.035 160.416 121.994 162.171 119.791Z" fill="#E0FF9F"/>
<path d="M124.76 88.0385C123.457 86.4321 119.923 81.3847 114.876 82.0214C106.8 83.0402 90.7494 103.177 90.7494 103.177C90.7494 103.177 100.746 96.7529 104.985 91.9894C113.885 81.9872 119.071 85.1221 120.656 87.8967C122.645 91.3794 126.928 96.9422 127.969 101.94C133.791 129.888 141.453 165.39 141.453 165.39L142.99 164.506C142.99 164.506 136.962 128.28 129.923 99.7498C128.878 95.5124 127.244 91.1004 124.76 88.0385Z" fill="#80C825"/>
<path d="M124.097 88.705C123.022 87.0487 118.983 82.1761 115.192 82.5379C109.128 83.1166 94.4147 99.8119 94.4147 99.8119C94.4147 99.8119 102.38 93.3924 106.172 89.7576C114.596 81.6817 119.585 84.0961 120.937 86.9216C122.633 90.4683 127.967 96.79 128.294 102.241C135.513 129.001 141.698 165.916 141.698 165.916L142.814 165.123C142.814 165.123 136.277 129.009 129.393 100.445C128.37 96.2027 126.146 91.8621 124.097 88.705Z" fill="#E0FF9F"/>
<path d="M133.47 117.059C132.32 116.165 129.253 113.312 124.278 114.088C116.318 115.329 99.1258 128.994 99.1258 128.994C99.1258 128.994 109.37 124.266 113.868 120.999C123.313 114.142 128.138 115.687 129.474 117.282C131.152 119.285 134.912 122.4 135.55 125.411C139.116 142.249 143.907 163.617 143.907 163.617L145.473 162.954C145.473 162.954 142.333 141.014 137.623 123.909C136.923 121.368 135.663 118.764 133.47 117.059Z" fill="#80C825"/>
<path d="M132.773 117.522C131.849 116.579 128.275 113.872 124.548 114.383C118.584 115.2 102.958 126.636 102.958 126.636C102.958 126.636 111.219 122.064 115.196 119.53C124.03 113.899 128.717 115.014 129.823 116.658C131.21 118.723 135.937 122.227 135.844 125.573C140.864 141.57 144.106 163.924 144.106 163.924L145.255 163.349C145.255 163.349 141.61 141.517 137.053 124.379C136.376 121.833 134.534 119.318 132.773 117.522Z" fill="#E0FF9F"/>
<path d="M134.094 72.8253C133.16 70.5594 129.666 66.6319 126.579 63.8944C120.045 58.1022 94.891 76.6182 94.891 76.6182C94.891 76.6182 120.708 62.3412 125.941 69.3573C127.971 72.0782 127.733 72.2669 128.4 74.1746C130.008 78.778 132.381 83.1966 134.186 90.6702C138.81 125.141 147.789 164.529 147.789 164.529L151.161 163.997C151.161 163.997 146.454 122.056 139.641 86.9101C138.63 81.6901 136.056 77.5846 134.094 72.8253Z" fill="#80C825"/>
<path d="M133.072 74.7196C132.577 72.4266 128.201 66.9775 126.169 64.8533C122.235 58.9812 99.9306 74.0156 99.9306 74.0156C99.9306 74.0156 120.441 62.1717 125.44 66.7819C126.74 69.4786 129.902 74.074 130.415 75.9198C131.653 80.374 134.533 86.0713 135.49 91.9571C140.844 124.871 148.472 165.857 148.472 165.857L150.029 164.948C150.029 164.948 144.613 122.403 138.048 88.7207C137.073 83.718 134.04 79.1989 133.072 74.7196Z" fill="#E0FF9F"/>
<path d="M147.339 67.7184C147.679 60.1535 151.614 51.419 151.614 51.419C151.614 51.419 149.515 62.31 149.775 69.8781C151.033 106.571 148.686 162.205 148.686 162.205L146.835 162.195C146.835 162.195 145.689 104.396 147.339 67.7184Z" fill="#80C825"/>
<path d="M147.806 69.5256C147.996 61.9599 151.614 51.419 151.614 51.419C151.614 51.419 148.622 61.9632 148.731 69.5305C149.263 106.219 148.227 164.008 148.227 164.008L147.302 164.003C147.302 164.003 146.883 106.207 147.806 69.5256Z" fill="#E0FF9F"/>
<path d="M155.086 66.8738C156.146 59.3758 160.896 51.0563 160.896 51.0563C160.896 51.0563 157.768 61.6976 157.305 69.256C155.058 105.901 147.416 161.058 147.416 161.058L145.575 160.872C145.575 160.872 149.946 103.227 155.086 66.8738Z" fill="#80C825"/>
<path d="M155.378 68.7172C156.289 61.2041 160.896 51.0563 160.896 51.0563C160.896 51.0563 156.912 61.2671 156.299 68.8104C153.329 105.383 146.788 162.809 146.788 162.809L145.867 162.716C145.867 162.716 150.962 105.143 155.378 68.7172Z" fill="#E0FF9F"/>
<path d="M130.341 84.3314C128.512 77.9311 122.668 71.3965 122.668 71.3965C122.668 71.3965 126.996 80.2224 128.194 86.7703C134.001 118.517 147.29 165.624 147.29 165.624L149.237 165.169C149.237 165.169 139.209 115.362 130.341 84.3314Z" fill="#80C825"/>
<path d="M130.2 85.9928C128.529 79.5555 122.668 71.3965 122.668 71.3965C122.668 71.3965 127.871 79.7094 129.226 86.2204C135.798 117.788 148.123 167.058 148.123 167.058L149.096 166.83C149.096 166.83 138.303 117.203 130.2 85.9928Z" fill="#E0FF9F"/>
<path d="M143.563 69.6225C142.616 62.2242 136.489 54.0162 136.489 54.0162C136.489 54.0162 140.138 64.5156 140.233 71.9736C140.691 108.133 147.434 162.557 147.434 162.557L150.063 162.372C150.063 162.372 148.153 105.492 143.563 69.6225Z" fill="#80C825"/>
<path d="M143.01 71.4416C142.276 64.0284 136.489 54.0162 136.489 54.0162C136.489 54.0162 141.387 64.0906 141.695 71.5338C143.186 107.62 148.196 164.284 148.196 164.284L149.51 164.191C149.51 164.191 146.567 107.383 143.01 71.4416Z" fill="#E0FF9F"/>
<g filter="url(#filter0_f_61_72651)">
<path d="M206 201C206 205.971 179.585 208.5 147 208.5C114.415 208.5 88 205.971 88 201C88 196.029 114.415 192 147 192C179.585 192 206 196.029 206 201Z" fill="#D9D9D9"/>
</g>
<path d="M111.242 148.198C111.117 147.579 111.59 147 112.222 147H181.245C181.887 147 182.363 147.597 182.219 148.224L170.178 200.724C170.074 201.178 169.67 201.5 169.203 201.5H122.818C122.342 201.5 121.932 201.164 121.838 200.698L111.242 148.198Z" fill="#B4771A"/>
<path d="M111.377 148.869C111.254 148.256 111.192 147.95 111.266 147.708C111.342 147.456 111.515 147.245 111.746 147.12C111.969 147 112.281 147 112.906 147H180.542C181.182 147 181.502 147 181.727 147.124C181.961 147.253 182.133 147.469 182.206 147.726C182.277 147.973 182.205 148.285 182.062 148.909L170.278 200.289C170.183 200.702 170.135 200.909 170.028 201.066C169.915 201.23 169.756 201.357 169.571 201.43C169.394 201.5 169.182 201.5 168.757 201.5H123.277C122.841 201.5 122.624 201.5 122.444 201.427C122.256 201.351 122.095 201.22 121.984 201.051C121.877 200.888 121.834 200.675 121.747 200.249L111.377 148.869Z" fill="url(#paint0_linear_61_72651)"/>
<path d="M111.377 148.869C111.254 148.256 111.192 147.95 111.266 147.708C111.342 147.456 111.515 147.245 111.746 147.12C111.969 147 112.281 147 112.906 147H180.542C181.182 147 181.502 147 181.727 147.124C181.961 147.253 182.133 147.469 182.206 147.726C182.277 147.973 182.205 148.285 182.062 148.909L170.278 200.289C170.183 200.702 170.135 200.909 170.028 201.066C169.915 201.23 169.756 201.357 169.571 201.43C169.394 201.5 169.182 201.5 168.757 201.5H123.277C122.841 201.5 122.624 201.5 122.444 201.427C122.256 201.351 122.095 201.22 121.984 201.051C121.877 200.888 121.834 200.675 121.747 200.249L111.377 148.869Z" fill="url(#paint1_linear_61_72651)"/>
<g filter="url(#filter1_d_61_72651)">
<path d="M107.155 142.135C107.073 141.535 107.54 141 108.146 141H184.802C185.426 141 185.897 141.565 185.786 142.179L184.149 151.179C184.063 151.654 183.649 152 183.165 152H109.373C108.873 152 108.45 151.631 108.382 151.135L107.155 142.135Z" fill="url(#paint2_linear_61_72651)"/>
</g>
<path d="M183.497 194.295C186.524 178.383 168.997 128.295 157.739 140.363" stroke="#F9E788" stroke-linecap="round"/>
<path d="M186.824 186.155C186.464 185.791 185.535 184.709 183.697 184.273C180.756 183.576 179.024 187.425 179.024 187.425C179.024 187.425 180.915 185.924 182.034 185.093C182.852 184.485 184.19 185.004 184.793 185.229C185.846 185.623 187.016 187.642 187.062 188.458C187.318 193.023 187.737 198.849 187.737 198.849L188.341 198.883C188.341 198.883 188.551 193.125 187.9 188.351C187.803 187.642 187.509 186.847 186.824 186.155Z" fill="#80C825"/>
<path d="M185.972 185.598C185.73 185.336 184.826 184.691 183.588 184.394C181.607 183.919 179.514 186.778 179.514 186.778C179.514 186.778 181.263 185.166 182.284 184.782C183.405 184.36 184.643 184.867 185.065 185.18C185.625 185.597 186.92 186.675 187.294 188.357C187.477 191.692 188.193 198.596 188.193 198.596C188.193 198.596 188.078 190.915 187.358 187.521C187.087 186.873 186.417 186.076 185.972 185.598Z" fill="#E0FF9F"/>
<path d="M188.239 200.363C189.964 184.258 159.583 122.913 157.081 140.153" stroke="#F9E788" stroke-linecap="round"/>
<path d="M108.064 200.616C100.848 172.258 140.186 133.103 140 140.5" stroke="#F9E788" stroke-linecap="square"/>
<path d="M164.936 104.461C165.701 101.641 168.171 98.7687 168.171 98.7687C168.171 98.7687 166.349 102.654 165.852 105.541C163.445 119.536 158.239 140.863 158.239 140.863L156.239 140.863C156.239 140.863 161.227 118.135 164.936 104.461Z" fill="#80C825"/>
<path d="M164.999 105.194C165.697 102.357 168.171 98.7686 168.171 98.7686C168.171 98.7686 165.976 102.426 165.413 105.296C162.68 119.211 157.739 140.863 157.739 140.863L157.123 140.823C157.123 140.823 161.615 118.948 164.999 105.194Z" fill="#E0FF9F"/>
<path d="M104.285 189.808C104.18 189.556 103.937 189.1 103.535 188.859C102.683 188.351 101.239 188.764 101.239 188.764C101.239 188.764 102.308 188.448 103.031 189.118C103.311 189.378 103.53 189.799 103.639 189.997C103.903 190.474 104.28 191.272 104.481 191.937C105.604 195.656 107.313 199.83 107.313 199.83L107.692 199.703C107.692 199.703 106.432 195.16 105.045 191.411C104.839 190.854 104.49 190.302 104.285 189.808Z" fill="#80C825"/>
<path d="M104.158 189.942C104.062 189.699 103.75 189.242 103.48 189.049C102.926 188.479 101.688 188.695 101.688 188.695C101.688 188.695 102.695 188.493 103.2 189.194C103.396 189.466 103.732 189.84 103.823 190.034C104.042 190.501 104.371 191.277 104.583 191.908C105.763 195.44 107.344 199.818 107.344 199.818L107.508 199.686C107.508 199.686 106.155 195.091 104.822 191.499C104.624 190.965 104.346 190.418 104.158 189.942Z" fill="#E0FF9F"/>
<path d="M107.606 188.477C107.919 188.11 108.706 187.041 110.508 186.356C113.391 185.26 115.702 188.18 115.702 188.18C115.702 188.18 113.567 187.253 112.313 186.752C111.395 186.386 110.113 187.054 109.533 187.348C108.522 187.861 107.625 189.756 107.696 190.447C108.094 194.314 108.508 199.265 108.508 199.265L107.899 199.4C107.899 199.4 106.858 194.615 106.831 190.504C106.827 189.893 107.011 189.176 107.606 188.477Z" fill="#80C825"/>
<path d="M108.39 187.862C108.598 187.601 109.422 186.903 110.636 186.438C112.577 185.695 115.112 187.724 115.112 187.724C115.112 187.724 113.105 186.68 112.015 186.536C110.816 186.378 109.633 187.018 109.25 187.355C108.742 187.801 107.584 188.93 107.446 190.403C107.74 193.227 108.008 199.133 108.008 199.133C108.008 199.133 107.019 192.682 107.261 189.715C107.442 189.125 108.007 188.34 108.39 187.862Z" fill="#E0FF9F"/>
<path d="M102.378 190.345C102.018 190.176 101.03 189.612 99.7528 190.032C97.7087 190.704 93.9542 194.869 93.9542 194.869C93.9542 194.869 96.3966 193.231 97.3976 192.217C99.4994 190.089 100.876 190.25 101.328 190.583C101.895 191.001 103.083 191.598 103.434 192.313C105.396 196.311 107.956 201.372 107.956 201.372L108.333 201.136C108.333 201.136 106.178 195.858 103.895 191.847C103.556 191.251 103.064 190.665 102.378 190.345Z" fill="#80C825"/>
<path d="M102.22 190.491C101.918 190.3 100.804 189.795 99.8425 190.093C98.3045 190.568 94.8324 194.111 94.8324 194.111C94.8324 194.111 96.7565 192.602 97.6626 191.794C99.6757 189.997 100.99 190.057 101.383 190.413C101.876 190.859 103.345 191.509 103.521 192.34C105.818 196.064 108.023 201.44 108.023 201.44L108.295 201.245C108.295 201.245 106.013 196.016 103.771 191.989C103.438 191.391 102.797 190.854 102.22 190.491Z" fill="#E0FF9F"/>
<path d="M109.863 189.275C110.146 188.997 110.888 188.135 112.233 188.104C114.384 188.054 119.314 190.727 119.314 190.727C119.314 190.727 116.465 189.998 115.183 189.377C112.491 188.073 111.247 188.685 110.932 189.149C110.537 189.733 109.617 190.693 109.525 191.484C109.011 195.907 108.289 201.532 108.289 201.532L107.855 201.436C107.855 201.436 108.123 195.741 108.934 191.198C109.055 190.523 109.323 189.807 109.863 189.275Z" fill="#80C825"/>
<path d="M110.061 189.361C110.282 189.08 111.163 188.232 112.169 188.191C113.777 188.125 118.234 190.306 118.234 190.306C118.234 190.306 115.916 189.526 114.792 189.066C112.294 188.045 111.075 188.541 110.824 189.008C110.508 189.593 109.34 190.696 109.452 191.538C108.531 195.815 108.248 201.619 108.248 201.619L107.927 201.526C107.927 201.526 108.331 195.836 109.099 191.291C109.214 190.616 109.639 189.896 110.061 189.361Z" fill="#E0FF9F"/>
<path d="M102.943 194.347C102.695 194.249 102.002 193.911 101.247 194.239C100.039 194.763 98.1802 197.674 98.1802 197.674C98.1802 197.674 99.5209 196.492 100.028 195.781C101.094 194.287 101.983 194.341 102.309 194.546C102.718 194.802 103.541 195.154 103.85 195.616C105.578 198.199 107.815 201.467 107.815 201.467L108.024 201.296C108.024 201.296 106.017 197.869 104.084 195.289C103.797 194.905 103.415 194.535 102.943 194.347Z" fill="#80C825"/>
<path d="M102.861 194.451C102.646 194.335 101.881 194.042 101.311 194.276C100.399 194.65 98.6415 197.137 98.6415 197.137C98.6415 197.137 99.671 196.061 100.144 195.489C101.194 194.218 102.031 194.209 102.323 194.43C102.689 194.709 103.695 195.085 103.908 195.631C105.815 198.019 107.866 201.51 107.866 201.51L108.013 201.37C108.013 201.37 105.932 197.98 104.023 195.388C103.74 195.003 103.269 194.67 102.861 194.451Z" fill="#E0FF9F"/>
<path d="M104.969 184.755C104.855 184.343 104.584 183.593 104.107 183.172C103.097 182.283 101.313 182.81 101.313 182.81C101.313 182.81 102.634 182.404 103.478 183.539C103.805 183.98 104.048 184.672 104.17 184.997C104.465 185.781 104.88 187.09 105.087 188.169C106.246 194.205 108.093 201.021 108.093 201.021L108.563 200.853C108.563 200.853 107.283 193.49 105.805 187.382C105.585 186.475 105.191 185.562 104.969 184.755Z" fill="#80C825"/>
<path d="M104.806 184.957C104.702 184.56 104.348 183.804 104.029 183.469C103.386 182.509 101.865 182.741 101.865 182.741C101.865 182.741 103.104 182.511 103.68 183.676C103.904 184.128 104.293 184.755 104.392 185.072C104.633 185.838 104.991 187.106 105.212 188.132C106.452 193.875 108.132 201.005 108.132 201.005L108.339 200.809C108.339 200.809 106.95 193.354 105.527 187.501C105.316 186.632 105.009 185.733 104.806 184.957Z" fill="#E0FF9F"/>
<path d="M110.668 193.237C110.869 193.062 111.409 192.512 112.23 192.568C113.543 192.659 116.268 194.782 116.268 194.782C116.268 194.782 114.609 194.116 113.893 193.615C112.39 192.562 111.57 192.911 111.331 193.212C111.031 193.59 110.373 194.197 110.236 194.736C109.47 197.748 108.454 201.575 108.454 201.575L108.199 201.484C108.199 201.484 108.947 197.583 109.906 194.505C110.048 194.048 110.285 193.571 110.668 193.237Z" fill="#80C825"/>
<path d="M110.779 193.307C110.943 193.127 111.566 192.595 112.182 192.625C113.167 192.673 115.654 194.43 115.654 194.43C115.654 194.43 114.324 193.759 113.687 193.378C112.273 192.531 111.481 192.802 111.28 193.108C111.028 193.493 110.204 194.183 110.186 194.769C109.187 197.657 108.42 201.632 108.42 201.632L108.234 201.55C108.234 201.55 109.063 197.66 109.997 194.579C110.135 194.121 110.468 193.65 110.779 193.307Z" fill="#E0FF9F"/>
<path d="M187.187 184.49C187.286 184.252 187.499 183.822 187.786 183.594C188.394 183.11 189.265 183.489 189.265 183.489C189.265 183.489 188.622 183.199 188.076 183.833C187.864 184.079 187.671 184.477 187.576 184.663C187.348 185.112 187.006 185.865 186.794 186.491C185.609 189.991 183.992 193.923 183.992 193.923L183.766 193.807C183.766 193.807 185.143 189.531 186.5 186.001C186.702 185.476 186.994 184.955 187.187 184.49Z" fill="#80C825"/>
<path d="M187.252 184.615C187.344 184.386 187.601 183.955 187.798 183.771C188.223 183.232 188.987 183.427 188.987 183.427C188.987 183.427 188.369 183.244 187.958 183.906C187.799 184.163 187.537 184.516 187.454 184.699C187.256 185.139 186.948 185.87 186.733 186.464C185.535 189.789 183.974 193.912 183.974 193.912L183.886 193.79C183.886 193.79 185.328 189.464 186.632 186.081C186.826 185.579 187.072 185.063 187.252 184.615Z" fill="#E0FF9F"/>
<path d="M188.338 184.981C188.589 184.82 189.291 184.283 190.055 184.669C191.276 185.286 193.15 189.173 193.15 189.173C193.15 189.173 191.796 187.651 191.284 186.706C190.209 184.721 189.309 184.882 188.979 185.197C188.564 185.594 187.73 186.163 187.416 186.837C185.66 190.605 183.388 195.376 183.388 195.376L183.177 195.157C183.177 195.157 185.217 190.185 187.18 186.402C187.471 185.84 187.859 185.287 188.338 184.981Z" fill="#80C825"/>
<path d="M188.421 185.117C188.638 184.936 189.413 184.454 189.99 184.727C190.912 185.163 192.685 188.467 192.685 188.467C192.685 188.467 191.645 187.063 191.168 186.309C190.108 184.635 189.261 184.701 188.965 185.038C188.594 185.461 187.574 186.081 187.357 186.862C185.421 190.375 183.336 195.44 183.336 195.44L183.187 195.259C183.187 195.259 185.302 190.332 187.241 186.535C187.529 185.971 188.007 185.462 188.421 185.117Z" fill="#E0FF9F"/>
<path d="M187.474 188.744C187.645 188.65 188.13 188.328 188.571 188.63C189.277 189.114 190.098 191.836 190.098 191.836C190.098 191.836 189.39 190.735 189.155 190.07C188.663 188.674 188.088 188.732 187.854 188.926C187.56 189.169 186.99 189.506 186.735 189.942C185.306 192.38 183.466 195.464 183.466 195.464L183.354 195.305C183.354 195.305 185.067 192.072 186.626 189.636C186.858 189.274 187.149 188.923 187.474 188.744Z" fill="#80C825"/>
<path d="M187.513 188.84C187.665 188.731 188.19 188.45 188.525 188.666C189.061 189.011 189.871 191.335 189.871 191.335C189.871 191.335 189.348 190.331 189.118 189.797C188.607 188.611 188.074 188.608 187.86 188.818C187.591 189.081 186.9 189.442 186.696 189.956C185.177 192.212 183.428 195.504 183.428 195.504L183.351 195.374C183.351 195.374 185.107 192.176 186.653 189.729C186.882 189.365 187.225 189.05 187.513 188.84Z" fill="#E0FF9F"/>
<path d="M186.893 180.807C187.003 180.444 187.238 179.784 187.545 179.41C188.193 178.619 189.088 179.058 189.088 179.058C189.088 179.058 188.427 178.719 187.839 179.724C187.61 180.113 187.397 180.722 187.293 181.009C187.041 181.699 186.662 182.85 186.422 183.798C185.079 189.097 183.273 195.088 183.273 195.088L183.041 194.947C183.041 194.947 184.607 188.484 186.131 183.117C186.357 182.32 186.677 181.516 186.893 180.807Z" fill="#80C825"/>
<path d="M186.956 180.982C187.059 180.632 187.34 179.966 187.551 179.669C188.011 178.821 188.8 179.004 188.8 179.004C188.8 179.004 188.162 178.819 187.714 179.846C187.54 180.244 187.256 180.798 187.165 181.077C186.944 181.751 186.6 182.865 186.359 183.767C185.008 188.811 183.254 195.075 183.254 195.075L183.167 194.906C183.167 194.906 184.803 188.361 186.265 183.218C186.482 182.454 186.755 181.664 186.956 180.982Z" fill="#E0FF9F"/>
<path d="M181.085 184.206C181.023 183.956 180.877 183.499 180.627 183.23C180.098 182.661 179.181 182.905 179.181 182.905C179.181 182.905 179.86 182.714 180.305 183.424C180.478 183.699 180.609 184.12 180.674 184.319C180.833 184.797 181.058 185.592 181.173 186.243C181.82 189.881 182.829 194.012 182.829 194.012L183.07 193.93C183.07 193.93 182.35 189.497 181.538 185.803C181.417 185.254 181.206 184.695 181.085 184.206Z" fill="#80C825"/>
<path d="M181.002 184.32C180.945 184.079 180.757 183.615 180.589 183.404C180.249 182.807 179.465 182.885 179.465 182.885C179.465 182.885 180.103 182.797 180.41 183.513C180.53 183.791 180.735 184.179 180.789 184.372C180.92 184.838 181.115 185.606 181.238 186.226C181.924 189.693 182.849 194.004 182.849 194.004L182.954 193.895C182.954 193.895 182.177 189.403 181.395 185.863C181.279 185.337 181.113 184.79 181.002 184.32Z" fill="#E0FF9F"/>
<path d="M183.201 183.285C183.404 182.97 183.918 182.038 185.066 181.573C186.902 180.83 188.311 183.834 188.311 183.834C188.311 183.834 186.98 182.737 186.197 182.134C185.625 181.693 184.805 182.194 184.435 182.413C183.788 182.796 183.192 184.499 183.225 185.161C183.413 188.865 183.592 193.599 183.592 193.599L183.206 193.664C183.206 193.664 182.628 189.024 182.679 185.126C182.686 184.547 182.814 183.887 183.201 183.285Z" fill="#80C825"/>
<path d="M183.705 182.783C183.841 182.557 184.372 181.98 185.145 181.664C186.381 181.159 187.946 183.342 187.946 183.342C187.946 183.342 186.698 182.146 186.013 181.898C185.259 181.625 184.503 182.111 184.256 182.39C183.928 182.761 183.179 183.712 183.068 185.093C183.207 187.8 183.279 193.423 183.279 193.423C183.279 193.423 182.762 187.209 182.963 184.422C183.087 183.882 183.456 183.197 183.705 182.783Z" fill="#E0FF9F"/>
<path d="M179.874 184.518C179.649 184.322 179.036 183.686 178.223 183.953C176.923 184.38 174.487 187.941 174.487 187.941C174.487 187.941 176.054 186.64 176.702 185.782C178.062 183.981 178.928 184.275 179.207 184.637C179.558 185.091 180.297 185.779 180.507 186.492C181.678 190.481 183.209 195.538 183.209 195.538L183.451 195.354C183.451 195.354 182.179 190.132 180.805 186.097C180.602 185.498 180.301 184.893 179.874 184.518Z" fill="#80C825"/>
<path d="M179.771 184.641C179.584 184.429 178.89 183.837 178.279 184.02C177.301 184.312 175.053 187.314 175.053 187.314C175.053 187.314 176.291 186.081 176.876 185.408C178.175 183.912 179.003 184.104 179.245 184.481C179.549 184.955 180.464 185.721 180.561 186.526C181.948 190.29 183.25 195.61 183.25 195.61L183.425 195.453C183.425 195.453 182.072 190.265 180.725 186.22C180.525 185.619 180.129 185.044 179.771 184.641Z" fill="#E0FF9F"/>
<path d="M184.611 184.273C184.794 184.038 185.276 183.297 186.125 183.406C187.482 183.58 190.547 186.617 190.547 186.617C190.547 186.617 188.762 185.635 187.964 184.915C186.288 183.404 185.493 183.855 185.287 184.263C185.029 184.776 184.432 185.591 184.362 186.331C183.965 190.469 183.417 195.725 183.417 195.725L183.144 195.589C183.144 195.589 183.407 190.221 183.994 186C184.081 185.373 184.262 184.721 184.611 184.273Z" fill="#80C825"/>
<path d="M184.734 184.374C184.878 184.131 185.448 183.418 186.083 183.482C187.098 183.585 189.872 186.108 189.872 186.108C189.872 186.108 188.423 185.131 187.722 184.58C186.164 183.357 185.387 183.702 185.221 184.118C185.012 184.64 184.258 185.565 184.314 186.375C183.663 190.332 183.389 195.803 183.389 195.803L183.188 195.682C183.188 195.682 183.537 190.331 184.096 186.105C184.179 185.477 184.459 184.838 184.734 184.374Z" fill="#E0FF9F"/>
<path d="M180.163 188.369C180.009 188.25 179.578 187.859 179.096 188.092C178.326 188.465 177.106 191.032 177.106 191.032C177.106 191.032 177.97 190.05 178.302 189.428C178.999 188.122 179.558 188.265 179.761 188.492C180.014 188.776 180.528 189.195 180.715 189.664C181.762 192.289 183.118 195.614 183.118 195.614L183.253 195.473C183.253 195.473 182.044 192.021 180.868 189.378C180.693 188.985 180.458 188.595 180.163 188.369Z" fill="#80C825"/>
<path d="M180.11 188.458C179.977 188.327 179.499 187.971 179.136 188.134C178.554 188.395 177.405 190.571 177.405 190.571C177.405 190.571 178.072 189.657 178.38 189.164C179.063 188.067 179.591 188.144 179.771 188.384C179.997 188.685 180.626 189.145 180.751 189.684C181.914 192.142 183.15 195.66 183.15 195.66L183.245 195.542C183.245 195.542 181.989 192.117 180.828 189.466C180.655 189.072 180.364 188.708 180.11 188.458Z" fill="#E0FF9F"/>
<path d="M181.599 179.489C181.534 179.086 181.376 178.348 181.082 177.901C180.459 176.954 179.326 177.271 179.326 177.271C179.326 177.271 180.166 177.021 180.679 178.184C180.878 178.634 181.02 179.315 181.091 179.636C181.265 180.409 181.504 181.692 181.617 182.735C182.249 188.572 183.302 195.22 183.302 195.22L183.601 195.109C183.601 195.109 182.915 188.002 182.083 182.063C181.959 181.181 181.726 180.275 181.599 179.489Z" fill="#80C825"/>
<path d="M181.493 179.663C181.434 179.276 181.223 178.523 181.028 178.174C180.638 177.199 179.675 177.262 179.675 177.262C179.675 177.262 180.46 177.171 180.804 178.334C180.938 178.785 181.173 179.419 181.23 179.73C181.369 180.48 181.574 181.718 181.697 182.713C182.384 188.281 183.326 195.209 183.326 195.209L183.46 195.045C183.46 195.045 182.707 187.839 181.906 182.147C181.787 181.302 181.608 180.419 181.493 179.663Z" fill="#E0FF9F"/>
<path d="M185.053 188.109C185.183 187.963 185.532 187.498 186.049 187.636C186.876 187.856 188.559 190.147 188.559 190.147C188.559 190.147 187.524 189.346 187.081 188.798C186.15 187.646 185.628 187.892 185.472 188.154C185.276 188.481 184.851 188.989 184.756 189.485C184.224 192.26 183.52 195.782 183.52 195.782L183.361 195.669C183.361 195.669 183.896 192.05 184.552 189.233C184.649 188.814 184.806 188.386 185.053 188.109Z" fill="#80C825"/>
<path d="M185.122 188.187C185.228 188.033 185.63 187.592 186.018 187.684C186.638 187.831 188.177 189.75 188.177 189.75C188.177 189.75 187.35 188.979 186.955 188.552C186.077 187.605 185.573 187.78 185.441 188.05C185.276 188.388 184.745 188.958 184.724 189.511C184.047 192.145 183.497 195.833 183.497 195.833L183.382 195.736C183.382 195.736 183.969 192.135 184.608 189.312C184.703 188.892 184.92 188.48 185.122 188.187Z" fill="#E0FF9F"/>
<path d="M189.921 186.364C189.98 186.05 190.137 185.473 190.483 185.114C191.215 184.354 192.665 184.546 192.665 184.546C192.665 184.546 191.59 184.392 191.008 185.314C190.782 185.671 190.642 186.203 190.57 186.454C190.396 187.06 190.166 188.061 190.084 188.873C189.621 193.41 188.672 198.594 188.672 198.594L188.287 198.522C188.287 198.522 188.747 193.001 189.457 188.375C189.563 187.688 189.806 186.978 189.921 186.364Z" fill="#80C825"/>
<path d="M190.064 186.494C190.117 186.192 190.34 185.601 190.567 185.322C191.003 184.551 192.224 184.555 192.224 184.555C192.224 184.555 191.227 184.521 190.859 185.436C190.716 185.79 190.455 186.291 190.4 186.534C190.268 187.12 190.08 188.085 189.982 188.859C189.433 193.192 188.64 198.586 188.64 198.586L188.462 198.466C188.462 198.466 189 192.865 189.685 188.432C189.787 187.774 189.963 187.084 190.064 186.494Z" fill="#E0FF9F"/>
<path d="M192.137 187.278C192.454 187.011 193.306 186.159 194.599 186.392C196.666 186.763 200.947 190.847 200.947 190.847C200.947 190.847 198.339 189.433 197.213 188.457C194.851 186.408 193.559 186.869 193.181 187.345C192.707 187.943 191.668 188.873 191.45 189.772C190.23 194.801 188.612 201.182 188.612 201.182L188.212 200.984C188.212 200.984 189.407 194.432 190.931 189.323C191.158 188.565 191.532 187.787 192.137 187.278Z" fill="#80C825"/>
<path d="M192.312 187.416C192.57 187.135 193.554 186.327 194.523 186.48C196.074 186.725 199.981 190.143 199.981 190.143C199.981 190.143 197.891 188.776 196.89 188.018C194.667 186.335 193.418 186.668 193.101 187.159C192.702 187.775 191.403 188.821 191.371 189.821C189.785 194.598 188.559 201.275 188.559 201.275L188.267 201.103C188.267 201.103 189.59 194.582 191.074 189.464C191.294 188.704 191.82 187.953 192.312 187.416Z" fill="#E0FF9F"/>
<path d="M184.795 187.531C184.478 187.264 183.625 186.412 182.333 186.644C180.265 187.016 175.985 191.099 175.985 191.099C175.985 191.099 178.593 189.686 179.718 188.71C182.08 186.661 183.372 187.122 183.75 187.598C184.224 188.196 185.263 189.126 185.481 190.025C186.701 195.053 188.319 201.435 188.319 201.435L188.719 201.237C188.719 201.237 187.525 194.684 186 189.576C185.773 188.817 185.399 188.04 184.795 187.531Z" fill="#80C825"/>
<path d="M184.619 187.669C184.361 187.388 183.378 186.58 182.408 186.733C180.858 186.978 176.95 190.395 176.95 190.395C176.95 190.395 179.041 189.029 180.041 188.271C182.265 186.588 183.513 186.921 183.831 187.412C184.229 188.028 185.529 189.074 185.56 190.073C187.146 194.851 188.373 201.528 188.373 201.528L188.665 201.356C188.665 201.356 187.341 194.835 185.857 189.717C185.637 188.957 185.111 188.206 184.619 187.669Z" fill="#E0FF9F"/>
<path d="M192.255 192.034C192.476 191.871 193.084 191.34 193.86 191.57C195.103 191.937 197.362 194.943 197.362 194.943C197.362 194.943 195.884 193.84 195.281 193.115C194.015 191.595 193.173 191.836 192.894 192.137C192.545 192.516 191.815 193.089 191.595 193.687C190.366 197.028 188.763 201.265 188.763 201.265L188.534 201.108C188.534 201.108 189.892 196.732 191.317 193.354C191.529 192.852 191.834 192.345 192.255 192.034Z" fill="#80C825"/>
<path d="M192.351 192.137C192.537 191.961 193.221 191.468 193.805 191.626C194.741 191.878 196.832 194.412 196.832 194.412C196.832 194.412 195.669 193.369 195.123 192.8C193.908 191.536 193.105 191.691 192.862 192.007C192.557 192.402 191.656 193.039 191.542 193.715C190.11 196.866 188.721 201.324 188.721 201.324L188.557 201.192C188.557 201.192 189.991 196.844 191.392 193.457C191.6 192.954 191.996 192.474 192.351 192.137Z" fill="#E0FF9F"/>
<path d="M188.736 180.932C188.777 180.431 188.913 179.507 189.301 178.924C190.121 177.691 191.916 177.947 191.916 177.947C191.916 177.947 190.584 177.739 189.963 179.224C189.723 179.801 189.604 180.652 189.54 181.053C189.387 182.022 189.206 183.623 189.185 184.916C189.069 192.148 188.422 200.424 188.422 200.424L187.945 200.323C187.945 200.323 187.958 191.526 188.368 184.146C188.429 183.05 188.656 181.912 188.736 180.932Z" fill="#80C825"/>
<path d="M188.925 181.134C188.959 180.652 189.174 179.705 189.424 179.254C189.882 178.012 191.376 177.976 191.376 177.976C191.376 177.976 190.153 177.957 189.792 179.423C189.653 179.992 189.383 180.797 189.34 181.185C189.236 182.122 189.102 183.663 189.059 184.899C188.817 191.807 188.383 200.413 188.383 200.413L188.152 200.227C188.152 200.227 188.255 191.302 188.653 184.229C188.713 183.178 188.859 182.075 188.925 181.134Z" fill="#E0FF9F"/>
<path d="M184.676 192.287C184.455 192.123 183.847 191.593 183.071 191.822C181.828 192.189 179.569 195.195 179.569 195.195C179.569 195.195 181.047 194.092 181.65 193.368C182.917 191.847 183.759 192.088 184.037 192.39C184.386 192.769 185.116 193.342 185.336 193.939C186.566 197.281 188.169 201.517 188.169 201.517L188.397 201.361C188.397 201.361 187.039 196.985 185.614 193.606C185.403 193.104 185.098 192.598 184.676 192.287Z" fill="#80C825"/>
<path d="M184.581 192.39C184.394 192.214 183.711 191.721 183.126 191.878C182.191 192.13 180.099 194.665 180.099 194.665C180.099 194.665 181.262 193.622 181.809 193.053C183.023 191.788 183.826 191.944 184.069 192.259C184.374 192.655 185.276 193.292 185.39 193.968C186.821 197.119 188.21 201.577 188.21 201.577L188.375 201.444C188.375 201.444 186.94 197.097 185.539 193.71C185.331 193.206 184.936 192.726 184.581 192.39Z" fill="#E0FF9F"/>
<defs>
<filter id="filter0_f_61_72651" x="84" y="188" width="126" height="24.5" filterUnits="userSpaceOnUse" color-interpolation-filters="sRGB">
<feFlood flood-opacity="0" result="BackgroundImageFix"/>
<feBlend mode="normal" in="SourceGraphic" in2="BackgroundImageFix" result="shape"/>
<feGaussianBlur stdDeviation="2" result="effect1_foregroundBlur_61_72651"/>
</filter>
<filter id="filter1_d_61_72651" x="103.145" y="141" width="86.6567" height="19" filterUnits="userSpaceOnUse" color-interpolation-filters="sRGB">
<feFlood flood-opacity="0" result="BackgroundImageFix"/>
<feColorMatrix in="SourceAlpha" type="matrix" values="0 0 0 0 0 0 0 0 0 0 0 0 0 0 0 0 0 0 127 0" result="hardAlpha"/>
<feOffset dy="4"/>
<feGaussianBlur stdDeviation="2"/>
<feComposite in2="hardAlpha" operator="out"/>
<feColorMatrix type="matrix" values="0 0 0 0 0 0 0 0 0 0 0 0 0 0 0 0 0 0 0.25 0"/>
<feBlend mode="normal" in2="BackgroundImageFix" result="effect1_dropShadow_61_72651"/>
<feBlend mode="normal" in="SourceGraphic" in2="effect1_dropShadow_61_72651" result="shape"/>
</filter>
<linearGradient id="paint0_linear_61_72651" x1="147" y1="179" x2="169" y2="186.5" gradientUnits="userSpaceOnUse">
<stop stop-color="#A8690A" stop-opacity="0.81"/>
<stop offset="0.939762" stop-color="#6D4303"/>
</linearGradient>
<linearGradient id="paint1_linear_61_72651" x1="149.5" y1="179" x2="123" y2="188.5" gradientUnits="userSpaceOnUse">
<stop stop-color="#C28427" stop-opacity="0.4"/>
<stop offset="1" stop-color="#885508"/>
</linearGradient>
<linearGradient id="paint2_linear_61_72651" x1="107" y1="141" x2="186" y2="141" gradientUnits="userSpaceOnUse">
<stop offset="0.00865841" stop-color="#744704"/>
<stop offset="0.510756" stop-color="#CD851A"/>
<stop offset="1" stop-color="#724603"/>
</linearGradient>
</defs>
</svg>
