<svg width="303" height="210" viewBox="0 0 303 210" fill="none" xmlns="http://www.w3.org/2000/svg">
<path d="M159.456 70.4047C159.886 67.9919 161.108 63.5315 164.047 60.6346C170.265 54.5053 183.063 55.2441 183.063 55.2441C183.063 55.2441 173.572 54.6087 168.717 61.8915C166.834 64.7157 165.753 68.8253 165.188 70.7655C163.825 75.4474 162.091 83.1622 161.591 89.3615C158.795 124.029 151.91 163.836 151.91 163.836L148.514 163.482C148.514 163.482 150.999 121.352 155.945 85.895C156.679 80.6287 158.616 75.1182 159.456 70.4047Z" fill="#80C825"/>
<path d="M160.756 71.3185C161.13 69.0025 162.925 64.4057 164.842 62.1772C168.46 56.1054 179.188 55.5298 179.188 55.5298C179.188 55.5298 170.418 55.7698 167.438 62.8911C166.282 65.6527 164.133 69.581 163.718 71.4514C162.718 75.9647 161.336 83.3829 160.691 89.3109C157.083 122.461 151.631 163.794 151.631 163.794L150.029 162.968C150.029 162.968 153.19 120.197 157.966 86.2142C158.675 81.167 160.026 75.8427 160.756 71.3185Z" fill="#E0FF9F"/>
<path d="M140.363 69.8091C139.947 67.3939 138.751 62.9266 135.828 60.013C129.645 53.8483 116.843 54.514 116.843 54.514C116.843 54.514 126.338 53.9327 131.151 61.2431C133.018 64.0781 134.076 68.1937 134.63 70.1371C135.966 74.8268 137.655 82.5514 138.12 88.7535C140.718 123.436 147.376 163.282 147.376 163.282L150.774 162.948C150.774 162.948 148.529 120.804 143.786 85.3192C143.082 80.0488 141.176 74.5274 140.363 69.8091Z" fill="#80C825"/>
<path d="M139.058 70.7154C138.698 68.3974 136.929 63.7904 135.025 61.5509C131.441 55.4585 120.717 54.8217 120.717 54.8217C120.717 54.8217 129.485 55.1118 132.425 62.25C133.565 65.0182 135.691 68.9587 136.095 70.8314C137.07 75.3504 138.409 82.7763 139.021 88.708C142.439 121.878 147.654 163.242 147.654 163.242L149.262 162.425C149.262 162.425 146.345 119.636 141.763 85.6269C141.083 80.5756 139.762 75.2437 139.058 70.7154Z" fill="#E0FF9F"/>
<path d="M167.837 71.4882C168.78 69.226 172.29 65.3125 175.389 62.5872C181.945 56.8209 207.025 75.4366 207.025 75.4366C207.025 75.4366 181.265 61.0573 176.004 68.0526C173.964 70.7654 174.201 70.9551 173.527 72.8601C171.9 77.4571 169.509 81.8663 167.675 89.3326C162.915 123.785 153.78 163.137 153.78 163.137L150.409 162.591C150.409 162.591 155.283 120.67 162.234 85.551C163.267 80.3349 165.857 76.2397 167.837 71.4882Z" fill="#80C825"/>
<path d="M168.852 73.3865C169.357 71.0955 173.754 65.6638 175.795 63.5477C179.752 57.6912 201.996 72.8139 201.996 72.8139C201.996 72.8139 181.533 60.8887 176.515 65.4792C175.205 68.1707 172.024 72.7535 171.504 74.5973C170.249 79.0465 167.347 84.7324 166.366 90.6142C160.881 123.506 153.091 164.463 153.091 164.463L151.538 163.547C151.538 163.547 157.122 121.024 163.821 87.3678C164.816 82.3689 167.866 77.8619 168.852 73.3865Z" fill="#E0FF9F"/>
<path d="M167.819 81.65C169.501 79.9857 173.976 74.7434 181.325 75.5325C193.084 76.7949 218.66 98.4107 218.66 98.4107C218.66 98.4107 203.476 91.4011 196.789 86.2776C182.748 75.5194 175.66 78.7058 173.715 81.5958C171.274 85.2234 165.782 90.992 164.891 96.2399C159.91 125.587 153.199 162.859 153.199 162.859L150.878 161.89C150.878 161.89 155.146 123.816 161.809 93.8841C162.799 89.4384 164.614 84.8222 167.819 81.65Z" fill="#80C825"/>
<path d="M168.858 82.3692C170.204 80.647 175.428 75.6011 180.932 76.0713C189.739 76.8236 212.972 94.7803 212.972 94.7803C212.972 94.7803 200.714 87.8219 194.808 83.8987C181.687 75.182 174.794 77.6125 173.192 80.5617C171.182 84.2636 164.271 90.8081 164.465 96.5515C157.334 124.613 152.932 163.412 152.932 163.412L151.228 162.55C151.228 162.55 156.233 124.604 162.663 94.6309C163.618 90.1792 166.292 85.652 168.858 82.3692Z" fill="#E0FF9F"/>
<path d="M164.84 94.4712C166.757 93.0367 171.811 88.6622 180.627 87.9142C194.731 86.7174 200.095 105.745 200.095 105.745C200.095 105.745 192.371 97.4835 187.764 92.8606C184.395 89.4794 177.838 90.9601 174.888 91.5872C169.736 92.6823 162.92 101.226 162.144 104.976C157.806 125.947 151.838 152.648 151.838 152.648L149.015 152.392C149.015 152.392 152.023 125.57 158.336 103.903C159.274 100.685 161.188 97.2056 164.84 94.4712Z" fill="#80C825"/>
<path d="M169.168 92.4784C170.474 91.4352 175.107 89.0708 181.048 88.5511C190.554 87.7194 198.274 102.411 198.274 102.411C198.274 102.411 191.283 93.7345 186.821 91.2494C181.917 88.5175 175.832 90.0103 173.66 91.1729C170.777 92.7162 164.034 96.8155 161.14 104.347C157.986 119.67 154.299 139.303 154.299 139.303L152.402 139.107C152.402 139.107 155.741 115.658 161.42 100.433C163.122 97.6184 166.778 94.3883 169.168 92.4784Z" fill="#E0FF9F"/>
<path d="M133.773 99.6987C131.93 98.2527 127.078 93.8449 118.516 93.0722C104.815 91.8359 99.3202 110.943 99.3202 110.943C99.3202 110.943 106.953 102.66 111.501 98.0254C114.828 94.636 121.183 96.1395 124.043 96.7767C129.037 97.8894 135.542 106.491 136.242 110.261C140.153 131.343 145.567 158.187 145.567 158.187L148.317 157.936C148.317 157.936 145.784 130.978 139.96 109.192C139.096 105.956 137.285 102.455 133.773 99.6987Z" fill="#80C825"/>
<path d="M129.593 97.686C128.338 96.6347 123.867 94.2478 118.096 93.7113C108.864 92.8529 101.14 107.597 101.14 107.597C101.14 107.597 108.066 98.8953 112.442 96.4088C117.251 93.6755 123.148 95.1901 125.243 96.3635C128.025 97.9211 134.522 102.056 137.227 109.632C140.071 125.036 143.369 144.773 143.369 144.773L145.217 144.58C145.217 144.58 142.312 121.01 137.012 105.698C135.398 102.865 131.89 99.6109 129.593 97.686Z" fill="#E0FF9F"/>
<path d="M162.456 116.304C163.608 115.188 166.67 111.671 171.721 112.219C179.802 113.096 197.424 127.703 197.424 127.703C197.424 127.703 186.976 122.95 182.37 119.486C172.698 112.213 167.836 114.341 166.506 116.282C164.838 118.717 161.078 122.587 160.478 126.116C157.124 145.855 152.601 170.923 152.601 170.923L151.004 170.265C151.004 170.265 153.847 144.652 158.355 124.524C159.025 121.534 160.261 118.432 162.456 116.304Z" fill="#80C825"/>
<path d="M163.171 116.791C164.092 115.635 167.669 112.251 171.452 112.581C177.504 113.107 193.507 125.246 193.507 125.246C193.507 125.246 185.07 120.535 181.003 117.881C171.968 111.984 167.239 113.603 166.145 115.584C164.772 118.071 160.039 122.459 160.186 126.325C155.353 145.193 152.419 171.294 152.419 171.294L151.246 170.71C151.246 170.71 154.596 145.184 158.944 125.028C159.589 122.035 161.416 118.994 163.171 116.791Z" fill="#E0FF9F"/>
<path d="M125.76 85.0385C124.457 83.4321 120.923 78.3847 115.876 79.0214C107.8 80.0402 91.7494 100.177 91.7494 100.177C91.7494 100.177 101.746 93.7529 105.985 88.9894C114.885 78.9872 120.071 82.1221 121.656 84.8967C123.645 88.3794 127.928 93.9422 128.969 98.94C134.791 126.888 142.453 162.39 142.453 162.39L143.99 161.506C143.99 161.506 137.962 125.28 130.923 96.7498C129.878 92.5124 128.244 88.1004 125.76 85.0385Z" fill="#80C825"/>
<path d="M125.097 85.705C124.022 84.0487 119.983 79.1761 116.192 79.5379C110.128 80.1166 95.4147 96.8119 95.4147 96.8119C95.4147 96.8119 103.38 90.3924 107.172 86.7576C115.596 78.6817 120.585 81.0961 121.937 83.9216C123.633 87.4683 128.967 93.79 129.294 99.2414C136.513 126.001 142.698 162.916 142.698 162.916L143.814 162.123C143.814 162.123 137.277 126.009 130.393 97.4452C129.37 93.2027 127.146 88.8621 125.097 85.705Z" fill="#E0FF9F"/>
<path d="M134.47 114.059C133.32 113.165 130.253 110.312 125.278 111.088C117.318 112.329 100.126 125.994 100.126 125.994C100.126 125.994 110.37 121.266 114.868 117.999C124.313 111.142 129.138 112.687 130.474 114.282C132.152 116.285 135.912 119.4 136.55 122.411C140.116 139.249 144.907 160.617 144.907 160.617L146.473 159.954C146.473 159.954 143.333 138.014 138.623 120.909C137.923 118.368 136.663 115.764 134.47 114.059Z" fill="#80C825"/>
<path d="M133.773 114.522C132.849 113.579 129.275 110.872 125.548 111.383C119.584 112.2 103.958 123.636 103.958 123.636C103.958 123.636 112.219 119.064 116.196 116.53C125.03 110.899 129.717 112.014 130.823 113.658C132.21 115.723 136.937 119.227 136.844 122.573C141.864 138.57 145.106 160.924 145.106 160.924L146.255 160.349C146.255 160.349 142.61 138.517 138.053 121.379C137.376 118.833 135.534 116.318 133.773 114.522Z" fill="#E0FF9F"/>
<path d="M135.094 69.8253C134.16 67.5594 130.666 63.6319 127.579 60.8944C121.045 55.1022 95.891 73.6182 95.891 73.6182C95.891 73.6182 121.708 59.3412 126.941 66.3573C128.971 69.0782 128.733 69.2669 129.4 71.1746C131.008 75.778 133.381 80.1966 135.186 87.6702C139.81 122.141 148.789 161.529 148.789 161.529L152.161 160.997C152.161 160.997 147.454 119.056 140.641 83.9101C139.63 78.6901 137.056 74.5846 135.094 69.8253Z" fill="#80C825"/>
<path d="M134.072 71.7196C133.577 69.4266 129.201 63.9775 127.169 61.8533C123.235 55.9812 100.931 71.0156 100.931 71.0156C100.931 71.0156 121.441 59.1717 126.44 63.7819C127.74 66.4786 130.902 71.074 131.415 72.9198C132.653 77.374 135.533 83.0713 136.49 88.9571C141.844 121.871 149.472 162.857 149.472 162.857L151.029 161.948C151.029 161.948 145.613 119.403 139.048 85.7207C138.073 80.718 135.04 76.1989 134.072 71.7196Z" fill="#E0FF9F"/>
<path d="M148.339 64.7184C148.679 57.1535 152.614 48.419 152.614 48.419C152.614 48.419 150.515 59.31 150.775 66.8781C152.033 103.571 149.686 159.205 149.686 159.205L147.835 159.195C147.835 159.195 146.689 101.396 148.339 64.7184Z" fill="#80C825"/>
<path d="M148.806 66.5256C148.996 58.9599 152.614 48.419 152.614 48.419C152.614 48.419 149.622 58.9632 149.731 66.5305C150.263 103.219 149.227 161.008 149.227 161.008L148.302 161.003C148.302 161.003 147.883 103.207 148.806 66.5256Z" fill="#E0FF9F"/>
<path d="M156.086 63.8738C157.146 56.3758 161.896 48.0563 161.896 48.0563C161.896 48.0563 158.768 58.6976 158.305 66.256C156.058 102.901 148.416 158.058 148.416 158.058L146.575 157.872C146.575 157.872 150.946 100.227 156.086 63.8738Z" fill="#80C825"/>
<path d="M156.378 65.7172C157.289 58.2041 161.896 48.0563 161.896 48.0563C161.896 48.0563 157.912 58.2671 157.299 65.8104C154.329 102.383 147.788 159.809 147.788 159.809L146.867 159.716C146.867 159.716 151.962 102.143 156.378 65.7172Z" fill="#E0FF9F"/>
<path d="M131.341 81.3314C129.512 74.9311 123.668 68.3965 123.668 68.3965C123.668 68.3965 127.996 77.2224 129.194 83.7703C135.001 115.517 148.29 162.624 148.29 162.624L150.237 162.169C150.237 162.169 140.209 112.362 131.341 81.3314Z" fill="#80C825"/>
<path d="M131.2 82.9928C129.529 76.5555 123.668 68.3965 123.668 68.3965C123.668 68.3965 128.871 76.7094 130.226 83.2204C136.798 114.788 149.123 164.058 149.123 164.058L150.096 163.83C150.096 163.83 139.303 114.203 131.2 82.9928Z" fill="#E0FF9F"/>
<path d="M144.563 66.6225C143.616 59.2242 137.489 51.0162 137.489 51.0162C137.489 51.0162 141.138 61.5156 141.233 68.9736C141.691 105.133 148.434 159.557 148.434 159.557L151.063 159.372C151.063 159.372 149.153 102.492 144.563 66.6225Z" fill="#80C825"/>
<path d="M144.01 68.4416C143.276 61.0284 137.489 51.0162 137.489 51.0162C137.489 51.0162 142.387 61.0906 142.695 68.5338C144.186 104.62 149.196 161.284 149.196 161.284L150.51 161.191C150.51 161.191 147.567 104.383 144.01 68.4416Z" fill="#E0FF9F"/>
<g filter="url(#filter0_f_209_119711)">
<path d="M207 198C207 202.971 180.585 205.5 148 205.5C115.415 205.5 89 202.971 89 198C89 193.029 115.415 189 148 189C180.585 189 207 193.029 207 198Z" fill="#D9D9D9"/>
</g>
<path d="M112.242 145.198C112.117 144.579 112.59 144 113.222 144H182.245C182.887 144 183.363 144.597 183.219 145.224L171.178 197.724C171.074 198.178 170.67 198.5 170.203 198.5H123.818C123.342 198.5 122.932 198.164 122.838 197.698L112.242 145.198Z" fill="#B4771A"/>
<path d="M112.377 145.869C112.254 145.256 112.192 144.95 112.266 144.708C112.342 144.456 112.515 144.245 112.746 144.12C112.969 144 113.281 144 113.906 144H181.542C182.182 144 182.502 144 182.727 144.124C182.961 144.253 183.133 144.469 183.206 144.726C183.277 144.973 183.205 145.285 183.062 145.909L171.278 197.289C171.183 197.702 171.135 197.909 171.028 198.066C170.915 198.23 170.756 198.357 170.571 198.43C170.394 198.5 170.182 198.5 169.757 198.5H124.277C123.841 198.5 123.624 198.5 123.444 198.427C123.256 198.351 123.095 198.22 122.984 198.051C122.877 197.888 122.834 197.675 122.747 197.249L112.377 145.869Z" fill="url(#paint0_linear_209_119711)"/>
<path d="M112.377 145.869C112.254 145.256 112.192 144.95 112.266 144.708C112.342 144.456 112.515 144.245 112.746 144.12C112.969 144 113.281 144 113.906 144H181.542C182.182 144 182.502 144 182.727 144.124C182.961 144.253 183.133 144.469 183.206 144.726C183.277 144.973 183.205 145.285 183.062 145.909L171.278 197.289C171.183 197.702 171.135 197.909 171.028 198.066C170.915 198.23 170.756 198.357 170.571 198.43C170.394 198.5 170.182 198.5 169.757 198.5H124.277C123.841 198.5 123.624 198.5 123.444 198.427C123.256 198.351 123.095 198.22 122.984 198.051C122.877 197.888 122.834 197.675 122.747 197.249L112.377 145.869Z" fill="url(#paint1_linear_209_119711)"/>
<g filter="url(#filter1_d_209_119711)">
<path d="M108.155 139.135C108.073 138.535 108.54 138 109.146 138H185.802C186.426 138 186.897 138.565 186.786 139.179L185.149 148.179C185.063 148.654 184.649 149 184.165 149H110.373C109.873 149 109.45 148.631 109.382 148.135L108.155 139.135Z" fill="url(#paint2_linear_209_119711)"/>
</g>
<path d="M184.497 191.295C187.524 175.383 169.997 125.295 158.739 137.363" stroke="#F9E788" stroke-linecap="round"/>
<path d="M187.824 183.155C187.464 182.791 186.535 181.709 184.697 181.273C181.756 180.576 180.024 184.425 180.024 184.425C180.024 184.425 181.915 182.924 183.034 182.093C183.852 181.485 185.19 182.004 185.793 182.229C186.846 182.623 188.016 184.642 188.062 185.458C188.318 190.023 188.737 195.849 188.737 195.849L189.341 195.883C189.341 195.883 189.551 190.125 188.9 185.351C188.803 184.642 188.509 183.847 187.824 183.155Z" fill="#80C825"/>
<path d="M186.972 182.598C186.729 182.336 185.826 181.691 184.588 181.394C182.607 180.919 180.514 183.778 180.514 183.778C180.514 183.778 182.263 182.166 183.283 181.782C184.405 181.36 185.643 181.867 186.065 182.18C186.625 182.597 187.92 183.675 188.294 185.357C188.477 188.692 189.193 195.596 189.193 195.596C189.193 195.596 189.078 187.915 188.358 184.521C188.087 183.873 187.417 183.076 186.972 182.598Z" fill="#E0FF9F"/>
<path d="M189.239 197.363C190.964 181.258 160.583 119.913 158.081 137.153" stroke="#F9E788" stroke-linecap="round"/>
<path d="M109.064 197.616C101.848 169.258 141.186 130.103 141 137.5" stroke="#F9E788" stroke-linecap="square"/>
<path d="M165.936 101.461C166.701 98.6407 169.171 95.7687 169.171 95.7687C169.171 95.7687 167.349 99.6544 166.852 102.541C164.445 116.536 159.239 137.863 159.239 137.863L157.239 137.863C157.239 137.863 162.227 115.135 165.936 101.461Z" fill="#80C825"/>
<path d="M165.999 102.194C166.697 99.3573 169.171 95.7686 169.171 95.7686C169.171 95.7686 166.976 99.4265 166.413 102.296C163.68 116.211 158.739 137.863 158.739 137.863L158.123 137.823C158.123 137.823 162.615 115.948 165.999 102.194Z" fill="#E0FF9F"/>
<path d="M105.285 186.808C105.18 186.556 104.937 186.1 104.535 185.859C103.683 185.351 102.239 185.764 102.239 185.764C102.239 185.764 103.308 185.448 104.031 186.118C104.311 186.378 104.53 186.799 104.639 186.997C104.903 187.474 105.28 188.272 105.481 188.937C106.604 192.656 108.313 196.83 108.313 196.83L108.692 196.703C108.692 196.703 107.432 192.16 106.045 188.411C105.839 187.854 105.49 187.302 105.285 186.808Z" fill="#80C825"/>
<path d="M105.158 186.942C105.062 186.699 104.75 186.242 104.48 186.049C103.926 185.479 102.688 185.695 102.688 185.695C102.688 185.695 103.695 185.493 104.2 186.194C104.396 186.466 104.732 186.84 104.823 187.034C105.042 187.501 105.371 188.277 105.583 188.908C106.763 192.44 108.344 196.818 108.344 196.818L108.508 196.686C108.508 196.686 107.155 192.091 105.822 188.499C105.624 187.965 105.346 187.418 105.158 186.942Z" fill="#E0FF9F"/>
<path d="M108.606 185.477C108.919 185.11 109.706 184.041 111.508 183.356C114.391 182.26 116.702 185.18 116.702 185.18C116.702 185.18 114.567 184.253 113.313 183.752C112.395 183.386 111.113 184.054 110.533 184.348C109.522 184.861 108.625 186.756 108.696 187.447C109.094 191.314 109.508 196.265 109.508 196.265L108.899 196.4C108.899 196.4 107.858 191.615 107.831 187.504C107.827 186.893 108.011 186.176 108.606 185.477Z" fill="#80C825"/>
<path d="M109.39 184.862C109.598 184.601 110.422 183.903 111.636 183.438C113.577 182.695 116.112 184.724 116.112 184.724C116.112 184.724 114.105 183.68 113.015 183.536C111.816 183.378 110.633 184.018 110.25 184.355C109.742 184.801 108.584 185.93 108.446 187.403C108.74 190.227 109.008 196.133 109.008 196.133C109.008 196.133 108.019 189.682 108.261 186.715C108.442 186.125 109.007 185.34 109.39 184.862Z" fill="#E0FF9F"/>
<path d="M103.378 187.345C103.018 187.176 102.03 186.612 100.753 187.032C98.7087 187.704 94.9542 191.869 94.9542 191.869C94.9542 191.869 97.3966 190.231 98.3976 189.217C100.499 187.089 101.876 187.25 102.328 187.583C102.895 188.001 104.083 188.598 104.434 189.313C106.396 193.311 108.956 198.372 108.956 198.372L109.333 198.136C109.333 198.136 107.178 192.858 104.895 188.847C104.556 188.251 104.064 187.665 103.378 187.345Z" fill="#80C825"/>
<path d="M103.22 187.491C102.918 187.3 101.804 186.795 100.843 187.093C99.3045 187.568 95.8324 191.111 95.8324 191.111C95.8324 191.111 97.7565 189.602 98.6626 188.794C100.676 186.997 101.99 187.057 102.383 187.413C102.876 187.859 104.345 188.509 104.521 189.34C106.818 193.064 109.023 198.44 109.023 198.44L109.295 198.245C109.295 198.245 107.013 193.016 104.771 188.989C104.438 188.391 103.797 187.854 103.22 187.491Z" fill="#E0FF9F"/>
<path d="M110.863 186.275C111.146 185.997 111.888 185.135 113.233 185.104C115.384 185.054 120.314 187.727 120.314 187.727C120.314 187.727 117.465 186.998 116.183 186.377C113.491 185.073 112.247 185.685 111.932 186.149C111.537 186.733 110.617 187.693 110.525 188.484C110.011 192.907 109.289 198.532 109.289 198.532L108.855 198.436C108.855 198.436 109.123 192.741 109.934 188.198C110.055 187.523 110.323 186.807 110.863 186.275Z" fill="#80C825"/>
<path d="M111.061 186.361C111.282 186.08 112.163 185.232 113.169 185.191C114.777 185.125 119.234 187.306 119.234 187.306C119.234 187.306 116.916 186.526 115.792 186.066C113.294 185.045 112.075 185.541 111.824 186.008C111.508 186.593 110.34 187.696 110.452 188.538C109.531 192.815 109.248 198.619 109.248 198.619L108.927 198.526C108.927 198.526 109.331 192.836 110.099 188.291C110.214 187.616 110.639 186.896 111.061 186.361Z" fill="#E0FF9F"/>
<path d="M103.943 191.347C103.695 191.249 103.002 190.911 102.247 191.239C101.039 191.763 99.1802 194.674 99.1802 194.674C99.1802 194.674 100.521 193.492 101.028 192.781C102.094 191.287 102.983 191.341 103.309 191.546C103.718 191.802 104.541 192.154 104.85 192.616C106.578 195.199 108.815 198.467 108.815 198.467L109.024 198.296C109.024 198.296 107.017 194.869 105.084 192.289C104.797 191.905 104.415 191.535 103.943 191.347Z" fill="#80C825"/>
<path d="M103.861 191.451C103.646 191.335 102.881 191.042 102.311 191.276C101.399 191.65 99.6415 194.137 99.6415 194.137C99.6415 194.137 100.671 193.061 101.144 192.489C102.194 191.218 103.031 191.209 103.323 191.43C103.689 191.709 104.695 192.085 104.908 192.631C106.815 195.019 108.866 198.51 108.866 198.51L109.013 198.37C109.013 198.37 106.932 194.98 105.023 192.388C104.74 192.003 104.269 191.67 103.861 191.451Z" fill="#E0FF9F"/>
<path d="M105.969 181.755C105.855 181.343 105.584 180.593 105.107 180.172C104.097 179.283 102.313 179.81 102.313 179.81C102.313 179.81 103.634 179.404 104.478 180.539C104.805 180.98 105.048 181.672 105.17 181.997C105.465 182.781 105.88 184.09 106.087 185.169C107.246 191.205 109.093 198.021 109.093 198.021L109.563 197.853C109.563 197.853 108.283 190.49 106.805 184.382C106.585 183.475 106.191 182.562 105.969 181.755Z" fill="#80C825"/>
<path d="M105.806 181.957C105.702 181.56 105.348 180.804 105.029 180.469C104.386 179.509 102.865 179.741 102.865 179.741C102.865 179.741 104.104 179.511 104.68 180.676C104.904 181.128 105.293 181.755 105.392 182.072C105.633 182.838 105.991 184.106 106.212 185.132C107.452 190.875 109.132 198.005 109.132 198.005L109.339 197.809C109.339 197.809 107.95 190.354 106.527 184.501C106.316 183.632 106.009 182.733 105.806 181.957Z" fill="#E0FF9F"/>
<path d="M111.668 190.237C111.869 190.062 112.409 189.512 113.23 189.568C114.543 189.659 117.268 191.782 117.268 191.782C117.268 191.782 115.609 191.116 114.893 190.615C113.39 189.562 112.57 189.911 112.331 190.212C112.031 190.59 111.373 191.197 111.236 191.736C110.47 194.748 109.454 198.575 109.454 198.575L109.199 198.484C109.199 198.484 109.947 194.583 110.906 191.505C111.048 191.048 111.285 190.571 111.668 190.237Z" fill="#80C825"/>
<path d="M111.779 190.307C111.943 190.127 112.566 189.595 113.182 189.625C114.167 189.673 116.654 191.43 116.654 191.43C116.654 191.43 115.324 190.759 114.687 190.378C113.273 189.531 112.481 189.802 112.28 190.108C112.028 190.493 111.204 191.183 111.186 191.769C110.187 194.657 109.42 198.632 109.42 198.632L109.234 198.55C109.234 198.55 110.063 194.66 110.997 191.579C111.135 191.121 111.468 190.65 111.779 190.307Z" fill="#E0FF9F"/>
<path d="M188.188 181.49C188.287 181.252 188.499 180.822 188.786 180.594C189.395 180.11 190.265 180.489 190.265 180.489C190.265 180.489 189.622 180.199 189.076 180.833C188.864 181.079 188.671 181.477 188.576 181.663C188.348 182.112 188.007 182.865 187.795 183.491C186.609 186.991 184.992 190.923 184.992 190.923L184.766 190.807C184.766 190.807 186.143 186.531 187.5 183.001C187.702 182.476 187.994 181.955 188.188 181.49Z" fill="#80C825"/>
<path d="M188.252 181.615C188.344 181.386 188.6 180.955 188.797 180.771C189.223 180.232 189.986 180.427 189.986 180.427C189.986 180.427 189.369 180.244 188.958 180.906C188.798 181.163 188.537 181.516 188.454 181.699C188.256 182.139 187.947 182.87 187.733 183.464C186.535 186.789 184.974 190.912 184.974 190.912L184.886 190.79C184.886 190.79 186.328 186.464 187.632 183.081C187.825 182.579 188.072 182.063 188.252 181.615Z" fill="#E0FF9F"/>
<path d="M189.338 181.981C189.589 181.82 190.292 181.283 191.055 181.669C192.276 182.286 194.15 186.173 194.15 186.173C194.15 186.173 192.796 184.651 192.284 183.706C191.21 181.721 190.31 181.882 189.979 182.197C189.564 182.594 188.73 183.163 188.416 183.837C186.66 187.605 184.388 192.376 184.388 192.376L184.177 192.157C184.177 192.157 186.217 187.185 188.18 183.402C188.472 182.84 188.86 182.287 189.338 181.981Z" fill="#80C825"/>
<path d="M189.421 182.117C189.638 181.936 190.413 181.454 190.99 181.727C191.913 182.163 193.685 185.467 193.685 185.467C193.685 185.467 192.646 184.063 192.169 183.309C191.109 181.635 190.261 181.701 189.966 182.038C189.594 182.461 188.574 183.081 188.357 183.862C186.422 187.375 184.336 192.44 184.336 192.44L184.187 192.259C184.187 192.259 186.303 187.332 188.242 183.535C188.53 182.971 189.007 182.462 189.421 182.117Z" fill="#E0FF9F"/>
<path d="M188.474 185.744C188.645 185.65 189.13 185.328 189.571 185.63C190.277 186.114 191.098 188.836 191.098 188.836C191.098 188.836 190.39 187.735 190.155 187.07C189.663 185.674 189.088 185.732 188.854 185.926C188.56 186.169 187.99 186.506 187.735 186.942C186.306 189.38 184.466 192.464 184.466 192.464L184.354 192.305C184.354 192.305 186.067 189.072 187.626 186.636C187.858 186.274 188.149 185.923 188.474 185.744Z" fill="#80C825"/>
<path d="M188.513 185.84C188.665 185.731 189.19 185.45 189.525 185.666C190.061 186.011 190.871 188.335 190.871 188.335C190.871 188.335 190.348 187.331 190.118 186.797C189.607 185.611 189.074 185.608 188.86 185.818C188.591 186.081 187.9 186.442 187.696 186.956C186.177 189.212 184.428 192.504 184.428 192.504L184.351 192.374C184.351 192.374 186.107 189.176 187.653 186.729C187.882 186.365 188.225 186.05 188.513 185.84Z" fill="#E0FF9F"/>
<path d="M187.893 177.807C188.003 177.444 188.238 176.784 188.545 176.41C189.193 175.619 190.088 176.058 190.088 176.058C190.088 176.058 189.427 175.719 188.839 176.724C188.61 177.113 188.397 177.722 188.293 178.009C188.041 178.699 187.662 179.85 187.422 180.798C186.079 186.097 184.273 192.088 184.273 192.088L184.041 191.947C184.041 191.947 185.607 185.484 187.131 180.117C187.357 179.32 187.677 178.516 187.893 177.807Z" fill="#80C825"/>
<path d="M187.956 177.982C188.06 177.632 188.34 176.966 188.551 176.669C189.011 175.821 189.801 176.004 189.801 176.004C189.801 176.004 189.163 175.819 188.714 176.846C188.54 177.244 188.256 177.798 188.165 178.077C187.944 178.751 187.601 179.865 187.359 180.767C186.008 185.811 184.255 192.075 184.255 192.075L184.167 191.906C184.167 191.906 185.803 185.361 187.265 180.218C187.483 179.454 187.755 178.664 187.956 177.982Z" fill="#E0FF9F"/>
<path d="M182.085 181.206C182.023 180.956 181.877 180.499 181.627 180.23C181.098 179.661 180.181 179.905 180.181 179.905C180.181 179.905 180.86 179.714 181.305 180.424C181.478 180.699 181.609 181.12 181.674 181.319C181.833 181.797 182.058 182.592 182.173 183.243C182.82 186.881 183.829 191.012 183.829 191.012L184.07 190.93C184.07 190.93 183.35 186.497 182.538 182.803C182.417 182.254 182.206 181.695 182.085 181.206Z" fill="#80C825"/>
<path d="M182.002 181.32C181.946 181.079 181.757 180.615 181.589 180.404C181.25 179.807 180.466 179.885 180.466 179.885C180.466 179.885 181.104 179.797 181.411 180.513C181.53 180.791 181.736 181.179 181.79 181.372C181.92 181.838 182.115 182.606 182.238 183.226C182.924 186.693 183.849 191.004 183.849 191.004L183.954 190.895C183.954 190.895 183.177 186.403 182.395 182.863C182.279 182.337 182.113 181.79 182.002 181.32Z" fill="#E0FF9F"/>
<path d="M184.201 180.285C184.404 179.97 184.918 179.038 186.065 178.573C187.901 177.83 189.31 180.834 189.31 180.834C189.31 180.834 187.98 179.737 187.197 179.134C186.624 178.693 185.805 179.194 185.434 179.413C184.788 179.796 184.191 181.499 184.225 182.161C184.412 185.865 184.591 190.599 184.591 190.599L184.206 190.664C184.206 190.664 183.628 186.024 183.678 182.126C183.686 181.547 183.814 180.887 184.201 180.285Z" fill="#80C825"/>
<path d="M184.705 179.783C184.841 179.557 185.372 178.98 186.145 178.664C187.381 178.159 188.946 180.342 188.946 180.342C188.946 180.342 187.698 179.146 187.012 178.898C186.259 178.625 185.503 179.111 185.256 179.39C184.928 179.761 184.179 180.712 184.068 182.093C184.207 184.8 184.279 190.423 184.279 190.423C184.279 190.423 183.761 184.209 183.963 181.422C184.087 180.882 184.456 180.197 184.705 179.783Z" fill="#E0FF9F"/>
<path d="M180.873 181.518C180.649 181.322 180.036 180.686 179.223 180.953C177.923 181.38 175.487 184.941 175.487 184.941C175.487 184.941 177.054 183.64 177.702 182.782C179.062 180.981 179.928 181.275 180.207 181.637C180.558 182.091 181.297 182.779 181.507 183.492C182.678 187.481 184.209 192.538 184.209 192.538L184.45 192.354C184.45 192.354 183.178 187.132 181.805 183.097C181.601 182.498 181.301 181.893 180.873 181.518Z" fill="#80C825"/>
<path d="M180.771 181.641C180.584 181.429 179.89 180.837 179.279 181.02C178.301 181.312 176.053 184.314 176.053 184.314C176.053 184.314 177.291 183.081 177.876 182.408C179.175 180.912 180.003 181.104 180.245 181.481C180.548 181.955 181.464 182.721 181.561 183.526C182.948 187.29 184.25 192.61 184.25 192.61L184.425 192.453C184.425 192.453 183.072 187.265 181.725 183.22C181.524 182.619 181.129 182.044 180.771 181.641Z" fill="#E0FF9F"/>
<path d="M185.611 181.273C185.794 181.038 186.276 180.297 187.125 180.406C188.482 180.58 191.547 183.617 191.547 183.617C191.547 183.617 189.762 182.635 188.964 181.915C187.288 180.404 186.493 180.855 186.287 181.263C186.029 181.776 185.432 182.591 185.362 183.331C184.965 187.469 184.417 192.725 184.417 192.725L184.144 192.589C184.144 192.589 184.407 187.221 184.994 183C185.081 182.373 185.262 181.721 185.611 181.273Z" fill="#80C825"/>
<path d="M185.734 181.374C185.878 181.131 186.448 180.418 187.083 180.482C188.098 180.585 190.872 183.108 190.872 183.108C190.872 183.108 189.423 182.131 188.722 181.58C187.164 180.357 186.387 180.702 186.221 181.118C186.012 181.64 185.258 182.565 185.314 183.375C184.663 187.332 184.389 192.803 184.389 192.803L184.188 192.682C184.188 192.682 184.537 187.331 185.096 183.105C185.179 182.477 185.459 181.838 185.734 181.374Z" fill="#E0FF9F"/>
<path d="M181.163 185.369C181.009 185.25 180.577 184.859 180.096 185.092C179.326 185.465 178.105 188.032 178.105 188.032C178.105 188.032 178.97 187.05 179.302 186.428C179.999 185.122 180.558 185.265 180.761 185.492C181.014 185.776 181.527 186.195 181.715 186.664C182.762 189.289 184.118 192.614 184.118 192.614L184.253 192.473C184.253 192.473 183.044 189.021 181.868 186.378C181.693 185.985 181.458 185.595 181.163 185.369Z" fill="#80C825"/>
<path d="M181.11 185.458C180.977 185.327 180.499 184.971 180.136 185.134C179.554 185.395 178.405 187.571 178.405 187.571C178.405 187.571 179.072 186.657 179.38 186.164C180.063 185.067 180.591 185.144 180.771 185.384C180.997 185.685 181.626 186.145 181.751 186.684C182.914 189.142 184.15 192.66 184.15 192.66L184.245 192.542C184.245 192.542 182.989 189.117 181.828 186.466C181.655 186.072 181.364 185.708 181.11 185.458Z" fill="#E0FF9F"/>
<path d="M182.599 176.489C182.534 176.086 182.376 175.348 182.082 174.901C181.459 173.954 180.326 174.271 180.326 174.271C180.326 174.271 181.165 174.021 181.679 175.184C181.878 175.634 182.02 176.315 182.091 176.636C182.265 177.409 182.504 178.692 182.617 179.735C183.249 185.572 184.301 192.22 184.301 192.22L184.6 192.109C184.6 192.109 183.915 185.002 183.083 179.063C182.959 178.181 182.726 177.275 182.599 176.489Z" fill="#80C825"/>
<path d="M182.493 176.663C182.434 176.276 182.223 175.523 182.028 175.174C181.638 174.199 180.675 174.262 180.675 174.262C180.675 174.262 181.46 174.171 181.804 175.334C181.938 175.785 182.173 176.419 182.23 176.73C182.369 177.48 182.574 178.718 182.697 179.713C183.384 185.281 184.326 192.209 184.326 192.209L184.46 192.045C184.46 192.045 183.707 184.839 182.906 179.147C182.787 178.302 182.608 177.419 182.493 176.663Z" fill="#E0FF9F"/>
<path d="M186.053 185.109C186.183 184.963 186.532 184.498 187.049 184.636C187.876 184.856 189.559 187.147 189.559 187.147C189.559 187.147 188.524 186.346 188.081 185.798C187.15 184.646 186.627 184.892 186.472 185.154C186.276 185.481 185.851 185.989 185.756 186.485C185.223 189.26 184.52 192.782 184.52 192.782L184.361 192.669C184.361 192.669 184.896 189.05 185.552 186.233C185.649 185.814 185.806 185.386 186.053 185.109Z" fill="#80C825"/>
<path d="M186.122 185.187C186.228 185.033 186.63 184.592 187.018 184.684C187.638 184.831 189.177 186.75 189.177 186.75C189.177 186.75 188.35 185.979 187.955 185.552C187.077 184.605 186.573 184.78 186.441 185.05C186.276 185.388 185.745 185.958 185.724 186.511C185.046 189.145 184.497 192.833 184.497 192.833L184.381 192.736C184.381 192.736 184.968 189.135 185.608 186.312C185.703 185.892 185.92 185.48 186.122 185.187Z" fill="#E0FF9F"/>
<path d="M190.921 183.364C190.98 183.05 191.137 182.473 191.483 182.114C192.215 181.354 193.665 181.546 193.665 181.546C193.665 181.546 192.59 181.392 192.008 182.314C191.782 182.671 191.642 183.203 191.57 183.454C191.395 184.06 191.166 185.061 191.083 185.873C190.62 190.41 189.671 195.594 189.671 195.594L189.287 195.522C189.287 195.522 189.746 190.001 190.457 185.375C190.562 184.688 190.805 183.978 190.921 183.364Z" fill="#80C825"/>
<path d="M191.064 183.494C191.117 183.192 191.34 182.601 191.567 182.322C192.003 181.551 193.224 181.555 193.224 181.555C193.224 181.555 192.227 181.521 191.859 182.436C191.716 182.79 191.455 183.291 191.4 183.534C191.268 184.12 191.08 185.085 190.982 185.859C190.433 190.192 189.64 195.586 189.64 195.586L189.462 195.466C189.462 195.466 190 189.865 190.685 185.432C190.787 184.774 190.963 184.084 191.064 183.494Z" fill="#E0FF9F"/>
<path d="M193.136 184.278C193.453 184.011 194.306 183.159 195.599 183.392C197.666 183.763 201.946 187.847 201.946 187.847C201.946 187.847 199.338 186.433 198.213 185.457C195.851 183.408 194.559 183.869 194.181 184.345C193.707 184.943 192.668 185.873 192.45 186.772C191.23 191.801 189.612 198.182 189.612 198.182L189.212 197.984C189.212 197.984 190.407 191.432 191.931 186.323C192.158 185.565 192.532 184.787 193.136 184.278Z" fill="#80C825"/>
<path d="M193.312 184.416C193.57 184.135 194.554 183.327 195.523 183.48C197.074 183.725 200.981 187.143 200.981 187.143C200.981 187.143 198.891 185.776 197.89 185.018C195.667 183.335 194.418 183.668 194.101 184.159C193.702 184.775 192.403 185.821 192.371 186.821C190.785 191.598 189.559 198.275 189.559 198.275L189.267 198.103C189.267 198.103 190.59 191.582 192.074 186.464C192.294 185.704 192.82 184.953 193.312 184.416Z" fill="#E0FF9F"/>
<path d="M185.795 184.531C185.478 184.264 184.625 183.412 183.333 183.644C181.265 184.016 176.985 188.099 176.985 188.099C176.985 188.099 179.593 186.686 180.718 185.71C183.08 183.661 184.372 184.122 184.75 184.598C185.224 185.196 186.263 186.126 186.481 187.025C187.701 192.053 189.319 198.435 189.319 198.435L189.719 198.237C189.719 198.237 188.525 191.684 187 186.576C186.773 185.817 186.399 185.04 185.795 184.531Z" fill="#80C825"/>
<path d="M185.619 184.669C185.361 184.388 184.378 183.58 183.408 183.733C181.857 183.978 177.95 187.395 177.95 187.395C177.95 187.395 180.041 186.029 181.041 185.271C183.264 183.588 184.513 183.921 184.831 184.412C185.229 185.028 186.528 186.074 186.56 187.073C188.146 191.851 189.373 198.528 189.373 198.528L189.664 198.356C189.664 198.356 188.341 191.835 186.857 186.717C186.637 185.957 186.111 185.206 185.619 184.669Z" fill="#E0FF9F"/>
<path d="M193.255 189.034C193.476 188.871 194.084 188.34 194.86 188.57C196.103 188.937 198.362 191.943 198.362 191.943C198.362 191.943 196.884 190.84 196.281 190.115C195.015 188.595 194.173 188.836 193.894 189.137C193.545 189.516 192.815 190.089 192.595 190.687C191.366 194.028 189.763 198.265 189.763 198.265L189.534 198.108C189.534 198.108 190.892 193.732 192.317 190.354C192.529 189.852 192.834 189.345 193.255 189.034Z" fill="#80C825"/>
<path d="M193.351 189.137C193.537 188.961 194.221 188.468 194.805 188.626C195.741 188.878 197.832 191.412 197.832 191.412C197.832 191.412 196.669 190.369 196.123 189.8C194.908 188.536 194.105 188.691 193.862 189.007C193.557 189.402 192.656 190.039 192.542 190.715C191.11 193.866 189.721 198.324 189.721 198.324L189.557 198.192C189.557 198.192 190.991 193.844 192.392 190.457C192.6 189.954 192.996 189.474 193.351 189.137Z" fill="#E0FF9F"/>
<path d="M189.736 177.932C189.777 177.431 189.913 176.507 190.301 175.924C191.121 174.691 192.916 174.947 192.916 174.947C192.916 174.947 191.584 174.739 190.963 176.224C190.722 176.801 190.604 177.652 190.54 178.053C190.387 179.022 190.206 180.623 190.185 181.916C190.069 189.148 189.422 197.424 189.422 197.424L188.945 197.323C188.945 197.323 188.958 188.526 189.368 181.146C189.429 180.05 189.656 178.912 189.736 177.932Z" fill="#80C825"/>
<path d="M189.925 178.134C189.959 177.652 190.173 176.705 190.424 176.254C190.881 175.012 192.376 174.976 192.376 174.976C192.376 174.976 191.152 174.957 190.792 176.423C190.653 176.992 190.383 177.797 190.34 178.185C190.236 179.122 190.102 180.663 190.059 181.899C189.817 188.807 189.383 197.413 189.383 197.413L189.152 197.227C189.152 197.227 189.255 188.302 189.653 181.229C189.712 180.178 189.859 179.075 189.925 178.134Z" fill="#E0FF9F"/>
<path d="M185.676 189.287C185.455 189.123 184.848 188.593 184.071 188.822C182.828 189.189 180.569 192.195 180.569 192.195C180.569 192.195 182.047 191.092 182.65 190.368C183.917 188.847 184.759 189.088 185.037 189.39C185.387 189.769 186.117 190.342 186.336 190.939C187.566 194.281 189.169 198.517 189.169 198.517L189.397 198.361C189.397 198.361 188.04 193.985 186.614 190.606C186.403 190.104 186.098 189.598 185.676 189.287Z" fill="#80C825"/>
<path d="M185.581 189.39C185.395 189.214 184.711 188.721 184.126 188.878C183.191 189.13 181.099 191.665 181.099 191.665C181.099 191.665 182.262 190.622 182.809 190.053C184.024 188.788 184.826 188.944 185.069 189.259C185.374 189.655 186.276 190.292 186.39 190.968C187.821 194.119 189.21 198.577 189.21 198.577L189.375 198.444C189.375 198.444 187.94 194.097 186.54 190.71C186.332 190.206 185.936 189.726 185.581 189.39Z" fill="#E0FF9F"/>
<defs>
<filter id="filter0_f_209_119711" x="85" y="185" width="126" height="24.5" filterUnits="userSpaceOnUse" color-interpolation-filters="sRGB">
<feFlood flood-opacity="0" result="BackgroundImageFix"/>
<feBlend mode="normal" in="SourceGraphic" in2="BackgroundImageFix" result="shape"/>
<feGaussianBlur stdDeviation="2" result="effect1_foregroundBlur_209_119711"/>
</filter>
<filter id="filter1_d_209_119711" x="104.145" y="138" width="86.6566" height="19" filterUnits="userSpaceOnUse" color-interpolation-filters="sRGB">
<feFlood flood-opacity="0" result="BackgroundImageFix"/>
<feColorMatrix in="SourceAlpha" type="matrix" values="0 0 0 0 0 0 0 0 0 0 0 0 0 0 0 0 0 0 127 0" result="hardAlpha"/>
<feOffset dy="4"/>
<feGaussianBlur stdDeviation="2"/>
<feComposite in2="hardAlpha" operator="out"/>
<feColorMatrix type="matrix" values="0 0 0 0 0 0 0 0 0 0 0 0 0 0 0 0 0 0 0.25 0"/>
<feBlend mode="normal" in2="BackgroundImageFix" result="effect1_dropShadow_209_119711"/>
<feBlend mode="normal" in="SourceGraphic" in2="effect1_dropShadow_209_119711" result="shape"/>
</filter>
<linearGradient id="paint0_linear_209_119711" x1="148" y1="176" x2="170" y2="183.5" gradientUnits="userSpaceOnUse">
<stop stop-color="#A8690A" stop-opacity="0.81"/>
<stop offset="0.939762" stop-color="#6D4303"/>
</linearGradient>
<linearGradient id="paint1_linear_209_119711" x1="150.5" y1="176" x2="124" y2="185.5" gradientUnits="userSpaceOnUse">
<stop stop-color="#C28427" stop-opacity="0.4"/>
<stop offset="1" stop-color="#885508"/>
</linearGradient>
<linearGradient id="paint2_linear_209_119711" x1="108" y1="138" x2="187" y2="138" gradientUnits="userSpaceOnUse">
<stop offset="0.00865841" stop-color="#744704"/>
<stop offset="0.510756" stop-color="#CD851A"/>
<stop offset="1" stop-color="#724603"/>
</linearGradient>
</defs>
</svg>
