<svg width="303" height="210" viewBox="0 0 303 210" fill="none" xmlns="http://www.w3.org/2000/svg">
<circle cx="187" cy="138" r="2" fill="#38B923"/>
<circle cx="119" cy="138" r="2" fill="#38B923"/>
<ellipse cx="153" cy="138.5" rx="34" ry="3.5" fill="#38B923"/>
<circle cx="141" cy="138" r="2" fill="#2A9519"/>
<circle cx="154" cy="139" r="2" fill="#2A9519"/>
<circle cx="168" cy="139" r="2" fill="#2A9519"/>
<g filter="url(#filter0_f_209_118990)">
<path d="M211 198C211 202.971 184.585 205.5 152 205.5C119.415 205.5 93 202.971 93 198C93 193.029 119.415 189 152 189C184.585 189 211 193.029 211 198Z" fill="#D9D9D9"/>
</g>
<path d="M116.242 145.198C116.117 144.579 116.59 144 117.222 144H186.245C186.887 144 187.363 144.597 187.219 145.224L175.178 197.724C175.074 198.178 174.67 198.5 174.203 198.5H127.818C127.342 198.5 126.932 198.164 126.838 197.698L116.242 145.198Z" fill="#B4771A"/>
<path d="M116.377 145.869C116.254 145.256 116.192 144.95 116.266 144.708C116.342 144.456 116.515 144.245 116.746 144.12C116.969 144 117.281 144 117.906 144H185.542C186.182 144 186.502 144 186.727 144.124C186.961 144.253 187.133 144.469 187.206 144.726C187.277 144.973 187.205 145.285 187.062 145.909L175.278 197.289C175.183 197.702 175.135 197.909 175.028 198.066C174.915 198.23 174.756 198.357 174.571 198.43C174.394 198.5 174.182 198.5 173.757 198.5H128.277C127.841 198.5 127.624 198.5 127.444 198.427C127.256 198.351 127.095 198.22 126.984 198.051C126.877 197.888 126.834 197.675 126.747 197.249L116.377 145.869Z" fill="url(#paint0_linear_209_118990)"/>
<path d="M116.377 145.869C116.254 145.256 116.192 144.95 116.266 144.708C116.342 144.456 116.515 144.245 116.746 144.12C116.969 144 117.281 144 117.906 144H185.542C186.182 144 186.502 144 186.727 144.124C186.961 144.253 187.133 144.469 187.206 144.726C187.277 144.973 187.205 145.285 187.062 145.909L175.278 197.289C175.183 197.702 175.135 197.909 175.028 198.066C174.915 198.23 174.756 198.357 174.571 198.43C174.394 198.5 174.182 198.5 173.757 198.5H128.277C127.841 198.5 127.624 198.5 127.444 198.427C127.256 198.351 127.095 198.22 126.984 198.051C126.877 197.888 126.834 197.675 126.747 197.249L116.377 145.869Z" fill="url(#paint1_linear_209_118990)"/>
<g filter="url(#filter1_d_209_118990)">
<path d="M112.155 139.135C112.073 138.535 112.54 138 113.146 138H189.802C190.426 138 190.897 138.565 190.786 139.179L189.149 148.179C189.063 148.654 188.649 149 188.165 149H114.373C113.873 149 113.45 148.631 113.382 148.135L112.155 139.135Z" fill="url(#paint2_linear_209_118990)"/>
</g>
<circle cx="123" cy="137" r="2" fill="#38B923"/>
<circle cx="125" cy="135" r="2" fill="#38B923"/>
<circle cx="128" cy="136" r="2" fill="#2A9519"/>
<circle cx="130" cy="135" r="2" fill="#38B923"/>
<circle cx="133" cy="135" r="2" fill="#38B923"/>
<circle cx="134" cy="133" r="2" fill="#38B923"/>
<circle cx="110" cy="138" r="2" fill="#2A9519"/>
<circle cx="118" cy="139" r="2" fill="#2A9519"/>
<circle cx="182.015" cy="174.015" r="2" transform="rotate(89.5805 182.015 174.015)" fill="#2A9519"/>
<path d="M190.515 173.515C189.41 173.523 188.508 172.634 188.5 171.529C188.492 170.425 189.381 169.523 190.485 169.515C191.59 169.507 192.492 170.395 192.5 171.5C192.508 172.605 191.619 173.507 190.515 173.515Z" fill="#2A9519"/>
<circle cx="201.015" cy="165.015" r="2" transform="rotate(89.5805 201.015 165.015)" fill="#2A9519"/>
<circle cx="200.015" cy="152.015" r="2" transform="rotate(89.5805 200.015 152.015)" fill="#2A9519"/>
<circle cx="195.015" cy="142.015" r="2" transform="rotate(89.5805 195.015 142.015)" fill="#2A9519"/>
<circle cx="191.015" cy="138.015" r="2" transform="rotate(89.5805 191.015 138.015)" fill="#2A9519"/>
<circle cx="127" cy="165" r="2" fill="#2A9519"/>
<circle cx="128" cy="153" r="2" fill="#2A9519"/>
<circle cx="125" cy="145" r="2" fill="#2A9519"/>
<circle cx="122" cy="169" r="2" fill="#2A9519"/>
<circle cx="121" cy="141" r="2" fill="#2A9519"/>
<circle cx="122" cy="147" r="2" fill="#2A9519"/>
<circle cx="118" cy="154" r="2" fill="#2A9519"/>
<circle cx="122" cy="157" r="2" fill="#2A9519"/>
<circle cx="114" cy="136" r="2" fill="#2A9519"/>
<circle cx="111" cy="181" r="2" fill="#2A9519"/>
<circle cx="121" cy="136" r="2" fill="#2A9519"/>
<path d="M188.022 163.007C187.47 163.011 187.019 162.567 187.015 162.015C187.011 161.462 187.455 161.011 188.007 161.007C188.56 161.003 189.011 161.448 189.015 162C189.019 162.552 188.574 163.003 188.022 163.007Z" fill="#38B923"/>
<circle cx="186.007" cy="181.007" r="1" transform="rotate(89.5805 186.007 181.007)" fill="#38B923"/>
<path d="M185.198 192.023C184.646 192.027 184.195 191.582 184.191 191.03C184.187 190.478 184.631 190.027 185.184 190.023C185.736 190.019 186.187 190.463 186.191 191.015C186.195 191.568 185.751 192.019 185.198 192.023Z" fill="#38B923"/>
<circle cx="193.007" cy="192.007" r="1" transform="rotate(89.5805 193.007 192.007)" fill="#38B923"/>
<circle cx="190.007" cy="191.007" r="1" transform="rotate(89.5805 190.007 191.007)" fill="#38B923"/>
<path d="M185.515 173.145C184.962 173.149 184.511 172.705 184.507 172.153C184.503 171.6 184.948 171.149 185.5 171.145C186.052 171.141 186.503 171.586 186.507 172.138C186.511 172.69 186.067 173.141 185.515 173.145Z" fill="#38B923"/>
<path d="M200.515 160.137C199.962 160.141 199.511 159.696 199.507 159.144C199.503 158.592 199.948 158.141 200.5 158.137C201.052 158.133 201.503 158.577 201.507 159.13C201.511 159.682 201.067 160.133 200.515 160.137Z" fill="#38B923"/>
<circle cx="202.007" cy="179.007" r="1" transform="rotate(89.5805 202.007 179.007)" fill="#38B923"/>
<circle cx="204.007" cy="187.007" r="1" transform="rotate(89.5805 204.007 187.007)" fill="#38B923"/>
<circle cx="130" cy="189" r="1" fill="#38B923"/>
<circle cx="129" cy="178" r="1" fill="#38B923"/>
<circle cx="121" cy="181" r="1" fill="#38B923"/>
<circle cx="124" cy="190" r="1" fill="#38B923"/>
<circle cx="122" cy="189" r="1" fill="#38B923"/>
<path d="M122.134 191.5C122.134 192.052 121.686 192.5 121.134 192.5C120.582 192.5 120.134 192.052 120.134 191.5C120.134 190.948 120.582 190.5 121.134 190.5C121.686 190.5 122.134 190.948 122.134 191.5Z" fill="#38B923"/>
<circle cx="107" cy="164" r="1" fill="#38B923"/>
<circle cx="107" cy="172" r="1" fill="#38B923"/>
<circle cx="106" cy="175" r="1" fill="#38B923"/>
<circle cx="114" cy="180" r="1" fill="#38B923"/>
<circle cx="114" cy="171" r="1" fill="#38B923"/>
<circle cx="99" cy="197" r="1" fill="#38B923"/>
<circle cx="108" cy="143" r="1" fill="#38B923"/>
<circle cx="103" cy="158" r="1" fill="#38B923"/>
<circle cx="104" cy="167" r="1" fill="#38B923"/>
<circle cx="102" cy="174" r="1" fill="#38B923"/>
<circle cx="101" cy="160" r="1" fill="#38B923"/>
<circle cx="106" cy="147" r="1" fill="#2A9519"/>
<circle cx="108" cy="146" r="1" fill="#2A9519"/>
<circle cx="185.007" cy="160.007" r="1" transform="rotate(89.5805 185.007 160.007)" fill="#2A9519"/>
<path d="M184.5 189C183.948 189.004 183.497 188.56 183.493 188.007C183.489 187.455 183.933 187.004 184.485 187C185.038 186.996 185.489 187.44 185.493 187.993C185.497 188.545 185.052 188.996 184.5 189Z" fill="#2A9519"/>
<circle cx="194.007" cy="194.007" r="1" transform="rotate(89.5805 194.007 194.007)" fill="#2A9519"/>
<circle cx="186.007" cy="154.007" r="1" transform="rotate(89.5805 186.007 154.007)" fill="#2A9519"/>
<circle cx="186.007" cy="140.007" r="1" transform="rotate(89.5805 186.007 140.007)" fill="#2A9519"/>
<circle cx="189.007" cy="193.007" r="1" transform="rotate(89.5805 189.007 193.007)" fill="#2A9519"/>
<circle cx="183.007" cy="171.007" r="1" transform="rotate(89.5805 183.007 171.007)" fill="#2A9519"/>
<circle cx="184.007" cy="166.007" r="1" transform="rotate(89.5805 184.007 166.007)" fill="#2A9519"/>
<path d="M199.5 178.869C198.948 178.873 198.497 178.429 198.493 177.877C198.489 177.324 198.933 176.873 199.485 176.869C200.038 176.865 200.489 177.31 200.493 177.862C200.497 178.414 200.052 178.865 199.5 178.869Z" fill="#2A9519"/>
<circle cx="200.007" cy="182.007" r="1" transform="rotate(89.5805 200.007 182.007)" fill="#2A9519"/>
<circle cx="131" cy="176" r="1" fill="#2A9519"/>
<circle cx="131" cy="169" r="1" fill="#2A9519"/>
<path d="M124.5 192.5C124.5 193.052 124.052 193.5 123.5 193.5C122.948 193.5 122.5 193.052 122.5 192.5C122.5 191.948 122.948 191.5 123.5 191.5C124.052 191.5 124.5 191.948 124.5 192.5Z" fill="#2A9519"/>
<circle cx="107" cy="167" r="1" fill="#2A9519"/>
<path d="M115.5 167.134C115.5 167.686 115.052 168.134 114.5 168.134C113.948 168.134 113.5 167.686 113.5 167.134C113.5 166.581 113.948 166.134 114.5 166.134C115.052 166.134 115.5 166.581 115.5 167.134Z" fill="#2A9519"/>
<circle cx="118" cy="164" r="1" fill="#2A9519"/>
<circle cx="101" cy="177" r="1" fill="#2A9519"/>
<circle cx="105" cy="169" r="1" fill="#2A9519"/>
<circle cx="116" cy="159" r="1" fill="#2A9519"/>
<circle cx="103" cy="172" r="1" fill="#2A9519"/>
<circle cx="104.5" cy="187.5" r="1.5" fill="#38B923"/>
<circle cx="108.5" cy="194.5" r="1.5" fill="#38B923"/>
<circle cx="100" cy="180" r="1" fill="#38B923"/>
<circle cx="106" cy="186" r="1" fill="#2A9519"/>
<circle cx="108" cy="186" r="1" fill="#38B923"/>
<circle cx="113" cy="188" r="1" fill="#38B923"/>
<circle cx="111" cy="194" r="1" fill="#38B923"/>
<circle cx="100" cy="200" r="1" fill="#38B923"/>
<circle cx="107" cy="182" r="1" fill="#38B923"/>
<circle cx="109" cy="183" r="1" fill="#2A9519"/>
<circle cx="111" cy="189" r="1" fill="#2A9519"/>
<circle cx="111" cy="143" r="2" fill="#38B923"/>
<circle cx="120" cy="142" r="2" fill="#38B923"/>
<circle cx="182.015" cy="179.015" r="2" transform="rotate(89.5805 182.015 179.015)" fill="#38B923"/>
<circle cx="184.015" cy="151.015" r="2" transform="rotate(89.5805 184.015 151.015)" fill="#38B923"/>
<circle cx="183.015" cy="140.015" r="2" transform="rotate(89.5805 183.015 140.015)" fill="#38B923"/>
<circle cx="187.015" cy="177.015" r="2" transform="rotate(89.5805 187.015 177.015)" fill="#38B923"/>
<circle cx="187.015" cy="165.015" r="2" transform="rotate(89.5805 187.015 165.015)" fill="#38B923"/>
<path d="M191.529 162.081C190.425 162.089 189.523 161.201 189.515 160.096C189.507 158.991 190.396 158.09 191.5 158.081C192.605 158.073 193.507 158.962 193.515 160.067C193.523 161.171 192.634 162.073 191.529 162.081Z" fill="#38B923"/>
<circle cx="189.015" cy="154.015" r="2" transform="rotate(89.5805 189.015 154.015)" fill="#38B923"/>
<circle cx="188.015" cy="142.015" r="2" transform="rotate(89.5805 188.015 142.015)" fill="#38B923"/>
<circle cx="200.015" cy="156.015" r="2" transform="rotate(89.5805 200.015 156.015)" fill="#38B923"/>
<circle cx="193.015" cy="146.015" r="2" transform="rotate(89.5805 193.015 146.015)" fill="#38B923"/>
<path d="M190.97 136.515C189.865 136.523 188.964 135.634 188.955 134.529C188.947 133.425 189.836 132.523 190.941 132.515C192.045 132.507 192.947 133.395 192.955 134.5C192.963 135.605 192.075 136.507 190.97 136.515Z" fill="#38B923"/>
<circle cx="130" cy="161" r="2" fill="#38B923"/>
<circle cx="127" cy="149" r="2" fill="#38B923"/>
<circle cx="124" cy="141" r="2" fill="#38B923"/>
<circle cx="123" cy="174" r="2" fill="#38B923"/>
<circle cx="112" cy="147" r="2" fill="#38B923"/>
<circle cx="111" cy="154" r="2" fill="#38B923"/>
<circle cx="109" cy="151" r="2" fill="#38B923"/>
<circle cx="106" cy="157" r="2" fill="#38B923"/>
<circle cx="117" cy="135" r="2" fill="#38B923"/>
<circle cx="114" cy="185" r="2" fill="#38B923"/>
<circle cx="105" cy="144" r="2" fill="#38B923"/>
<path d="M183.022 148.1C182.194 148.106 181.517 147.44 181.511 146.611C181.505 145.783 182.172 145.106 183 145.1C183.828 145.094 184.505 145.761 184.511 146.589C184.517 147.418 183.85 148.094 183.022 148.1Z" fill="#38B923"/>
<circle cx="189.511" cy="185.511" r="1.5" transform="rotate(89.5805 189.511 185.511)" fill="#38B923"/>
<circle cx="195.511" cy="189.511" r="1.5" transform="rotate(89.5805 195.511 189.511)" fill="#38B923"/>
<circle cx="184.511" cy="162.511" r="1.5" transform="rotate(89.5805 184.511 162.511)" fill="#38B923"/>
<circle cx="186.511" cy="156.511" r="1.5" transform="rotate(89.5805 186.511 156.511)" fill="#38B923"/>
<circle cx="202.511" cy="174.511" r="1.5" transform="rotate(89.5805 202.511 174.511)" fill="#38B923"/>
<circle cx="201.511" cy="182.511" r="1.5" transform="rotate(89.5805 201.511 182.511)" fill="#38B923"/>
<circle cx="200.511" cy="171.511" r="1.5" transform="rotate(89.5805 200.511 171.511)" fill="#38B923"/>
<circle cx="187.511" cy="168.511" r="1.5" transform="rotate(89.5805 187.511 168.511)" fill="#38B923"/>
<circle cx="190.511" cy="166.511" r="1.5" transform="rotate(89.5805 190.511 166.511)" fill="#38B923"/>
<circle cx="186.511" cy="173.511" r="1.5" transform="rotate(89.5805 186.511 173.511)" fill="#38B923"/>
<circle cx="196.511" cy="148.511" r="1.5" transform="rotate(89.5805 196.511 148.511)" fill="#38B923"/>
<circle cx="202.511" cy="160.511" r="1.5" transform="rotate(89.5805 202.511 160.511)" fill="#38B923"/>
<circle cx="128.5" cy="185.5" r="1.5" fill="#38B923"/>
<circle cx="131.5" cy="173.5" r="1.5" fill="#38B923"/>
<circle cx="129.5" cy="165.5" r="1.5" fill="#38B923"/>
<circle cx="125.5" cy="153.5" r="1.5" fill="#38B923"/>
<circle cx="120.5" cy="178.5" r="1.5" fill="#38B923"/>
<circle cx="124.5" cy="186.5" r="1.5" fill="#38B923"/>
<circle cx="126.5" cy="194.5" r="1.5" fill="#38B923"/>
<circle cx="108.5" cy="156.5" r="1.5" fill="#38B923"/>
<circle cx="112.5" cy="177.5" r="1.5" fill="#38B923"/>
<circle cx="115.5" cy="174.5" r="1.5" fill="#38B923"/>
<circle cx="105.5" cy="179.5" r="1.5" fill="#38B923"/>
<circle cx="118.5" cy="157.5" r="1.5" fill="#38B923"/>
<circle cx="103.5" cy="200.5" r="1.5" fill="#38B923"/>
<circle cx="103.5" cy="176.5" r="1.5" fill="#38B923"/>
<circle cx="103.5" cy="154.5" r="1.5" fill="#38B923"/>
<circle cx="104" cy="151" r="2" fill="#2A9519"/>
<circle cx="185.511" cy="177.511" r="1.5" transform="rotate(89.5805 185.511 177.511)" fill="#2A9519"/>
<circle cx="184.511" cy="184.511" r="1.5" transform="rotate(89.5805 184.511 184.511)" fill="#2A9519"/>
<circle cx="186.511" cy="148.511" r="1.5" transform="rotate(89.5805 186.511 148.511)" fill="#2A9519"/>
<circle cx="189.511" cy="180.511" r="1.5" transform="rotate(89.5805 189.511 180.511)" fill="#2A9519"/>
<circle cx="187.511" cy="188.511" r="1.5" transform="rotate(89.5805 187.511 188.511)" fill="#2A9519"/>
<path d="M191.433 197.511C190.604 197.517 189.928 196.85 189.922 196.022C189.916 195.194 190.582 194.517 191.411 194.511C192.239 194.505 192.916 195.172 192.922 196C192.928 196.828 192.261 197.505 191.433 197.511Z" fill="#2A9519"/>
<circle cx="187.511" cy="159.511" r="1.5" transform="rotate(89.5805 187.511 159.511)" fill="#2A9519"/>
<circle cx="199.511" cy="185.511" r="1.5" transform="rotate(89.5805 199.511 185.511)" fill="#2A9519"/>
<circle cx="202.511" cy="169.511" r="1.5" transform="rotate(89.5805 202.511 169.511)" fill="#2A9519"/>
<circle cx="195.511" cy="151.511" r="1.5" transform="rotate(89.5805 195.511 151.511)" fill="#2A9519"/>
<path d="M191.345 163.73C190.516 163.736 189.84 163.069 189.834 162.241C189.828 161.412 190.494 160.736 191.323 160.73C192.151 160.724 192.828 161.39 192.834 162.219C192.84 163.047 192.173 163.724 191.345 163.73Z" fill="#2A9519"/>
<circle cx="127.5" cy="189.5" r="1.5" fill="#2A9519"/>
<circle cx="128.5" cy="156.5" r="1.5" fill="#2A9519"/>
<circle cx="128.5" cy="170.5" r="1.5" fill="#2A9519"/>
<circle cx="123.5" cy="149.5" r="1.5" fill="#2A9519"/>
<circle cx="123.5" cy="183.5" r="1.5" fill="#2A9519"/>
<path d="M122.706 164.324C122.706 165.152 122.035 165.824 121.206 165.824C120.378 165.824 119.706 165.152 119.706 164.324C119.706 163.495 120.378 162.824 121.206 162.824C122.035 162.824 122.706 163.495 122.706 164.324Z" fill="#2A9519"/>
<circle cx="108.5" cy="177.5" r="1.5" fill="#2A9519"/>
<circle cx="112.5" cy="174.5" r="1.5" fill="#2A9519"/>
<circle cx="116.5" cy="170.5" r="1.5" fill="#2A9519"/>
<path d="M103.961 196.843C103.961 197.672 103.289 198.343 102.461 198.343C101.632 198.343 100.961 197.672 100.961 196.843C100.961 196.015 101.632 195.343 102.461 195.343C103.289 195.343 103.961 196.015 103.961 196.843Z" fill="#2A9519"/>
<path d="M103.268 168.524C103.268 169.352 102.596 170.024 101.768 170.024C100.94 170.024 100.268 169.352 100.268 168.524C100.268 167.695 100.94 167.024 101.768 167.024C102.596 167.024 103.268 167.695 103.268 168.524Z" fill="#2A9519"/>
<path d="M114.5 191.415C114.5 192.243 113.828 192.915 113 192.915C112.172 192.915 111.5 192.243 111.5 191.415C111.5 190.586 112.172 189.915 113 189.915C113.828 189.915 114.5 190.586 114.5 191.415Z" fill="#2A9519"/>
<circle cx="101" cy="165" r="2" fill="#2A9519"/>
<circle cx="119" cy="151" r="2" fill="#2A9519"/>
<circle cx="100" cy="156" r="2" fill="#2A9519"/>
<circle cx="115" cy="163" r="2" fill="#2A9519"/>
<circle cx="101" cy="148" r="2" fill="#38B923"/>
<circle cx="105" cy="162" r="2" fill="#38B923"/>
<circle cx="118" cy="167" r="2" fill="#38B923"/>
<circle cx="119" cy="161" r="2" fill="#38B923"/>
<circle cx="116" cy="154" r="2" fill="#38B923"/>
<circle cx="139" cy="135" r="2" fill="#38B923"/>
<circle cx="140" cy="132" r="2" fill="#38B923"/>
<circle cx="143" cy="136" r="2" fill="#38B923"/>
<circle cx="142" cy="135" r="2" fill="#38B923"/>
<circle cx="144" cy="134" r="2" fill="#2A9519"/>
<circle cx="147" cy="134" r="2" fill="#38B923"/>
<circle cx="147" cy="132" r="2" fill="#38B923"/>
<circle cx="151" cy="133" r="2" fill="#38B923"/>
<circle cx="149" cy="134" r="2" fill="#38B923"/>
<circle cx="152" cy="135" r="2" fill="#38B923"/>
<circle cx="157" cy="135" r="2" fill="#38B923"/>
<circle cx="155" cy="132" r="2" fill="#38B923"/>
<circle cx="159" cy="132" r="2" fill="#38B923"/>
<circle cx="161" cy="134" r="2" fill="#2A9519"/>
<circle cx="164" cy="135" r="2" fill="#38B923"/>
<circle cx="156" cy="136" r="2" fill="#38B923"/>
<circle cx="167" cy="132" r="2" fill="#38B923"/>
<circle cx="167" cy="135" r="2" fill="#38B923"/>
<circle cx="170" cy="135" r="2" fill="#38B923"/>
<circle cx="170" cy="133" r="2" fill="#2A9519"/>
<circle cx="173" cy="134" r="2" fill="#38B923"/>
<circle cx="177" cy="136" r="2" fill="#38B923"/>
<circle cx="180" cy="134" r="2" fill="#38B923"/>
<circle cx="181" cy="136" r="2" fill="#38B923"/>
<circle cx="174" cy="136" r="2" fill="#2A9519"/>
<circle cx="149" cy="130" r="2" fill="#38B923"/>
<circle cx="136" cy="135" r="2" fill="#2A9519"/>
<path d="M119.5 138C119.5 138 120.734 152.966 119.5 162.424C118.05 173.543 126.225 183.831 121.5 194" stroke="#38B923"/>
<path d="M195 190C189 204.5 186 177.5 188.985 166.671C191.97 155.841 180.775 148.169 185.5 138" stroke="#38B923"/>
<path d="M126.355 138.057C120.809 152.472 136.355 166.066 127.355 194.057" stroke="#38B923"/>
<path d="M188.191 137.057C193.737 151.472 178.191 165.066 187.191 193.057" stroke="#38B923"/>
<path d="M117 138.5C108.5 135.277 113.041 141.5 107.04 145C94.5993 152.257 109.541 168.277 100.541 179.777" stroke="#38B923"/>
<path d="M119.784 138.912C114.5 131.5 117.108 147.602 109.5 153.5C100.515 160.466 113 189.5 104.5 187.5" stroke="#38B923"/>
<path d="M188.289 138.437C193.573 131.025 190.966 147.128 198.573 153.025C207.559 159.992 195.073 189.025 203.573 187.025" stroke="#38B923"/>
<path d="M119.07 138.21C117.34 136.06 119.565 157.166 115.392 168.567C110.759 181.228 116.565 203.696 95.5652 197.696" stroke="#38B923"/>
<circle cx="185" cy="136" r="2" fill="#2A9519"/>
<circle cx="154" cy="133" r="2" fill="#2A9519"/>
<circle cx="102.5" cy="146.5" r="1.5" fill="#2A9519"/>
<circle cx="95.5" cy="197.5" r="1.5" fill="#2A9519"/>
<path d="M97.8662 199.5C97.8662 200.052 97.4185 200.5 96.8662 200.5C96.3139 200.5 95.8662 200.052 95.8662 199.5C95.8662 198.948 96.3139 198.5 96.8662 198.5C97.4185 198.5 97.8662 198.948 97.8662 199.5Z" fill="#2A9519"/>
<circle cx="108" cy="197" r="2" fill="#2A9519"/>
<circle cx="117" cy="146" r="2" fill="#2A9519"/>
<circle cx="117" cy="150" r="1" fill="#38B923"/>
<circle cx="116" cy="139" r="2" fill="#2A9519"/>
<circle cx="113" cy="143" r="2" fill="#2A9519"/>
<circle cx="114" cy="151" r="2" fill="#2A9519"/>
<circle cx="107.5" cy="153.5" r="1.5" fill="#2A9519"/>
<circle cx="107.5" cy="160.5" r="1.5" fill="#2A9519"/>
<circle cx="104.5" cy="165.5" r="1.5" fill="#2A9519"/>
<path d="M106.5 172.415C106.5 173.243 105.828 173.915 105 173.915C104.172 173.915 103.5 173.243 103.5 172.415C103.5 171.586 104.172 170.915 105 170.915C105.828 170.915 106.5 171.586 106.5 172.415Z" fill="#2A9519"/>
<circle cx="120" cy="154" r="2" fill="#2A9519"/>
<circle cx="119" cy="173" r="2" fill="#2A9519"/>
<circle cx="128" cy="140" r="2" fill="#2A9519"/>
<path d="M122.5 194C122.5 194.552 122.052 195 121.5 195C120.948 195 120.5 194.552 120.5 194C120.5 193.448 120.948 193 121.5 193C122.052 193 122.5 193.448 122.5 194Z" fill="#2A9519"/>
<circle cx="121.5" cy="185.5" r="1.5" fill="#2A9519"/>
<circle cx="123" cy="179" r="1" fill="#2A9519"/>
<path d="M130 193C130 193.552 129.552 194 129 194C128.448 194 128 193.552 128 193C128 192.448 128.448 192 129 192C129.552 192 130 192.448 130 193Z" fill="#2A9519"/>
<circle cx="126" cy="159" r="2" fill="#2A9519"/>
<path d="M131.5 181.415C131.5 182.243 130.828 182.915 130 182.915C129.172 182.915 128.5 182.243 128.5 181.415C128.5 180.586 129.172 179.915 130 179.915C130.828 179.915 131.5 180.586 131.5 181.415Z" fill="#2A9519"/>
<circle cx="130" cy="186" r="1" fill="#2A9519"/>
<circle cx="203.007" cy="186.007" r="1" transform="rotate(89.5805 203.007 186.007)" fill="#2A9519"/>
<circle cx="201.007" cy="174.007" r="1" transform="rotate(89.5805 201.007 174.007)" fill="#2A9519"/>
<circle cx="190.015" cy="138.015" r="2" transform="rotate(89.5805 190.015 138.015)" fill="#2A9519"/>
<circle cx="191.015" cy="146.015" r="2" transform="rotate(89.5805 191.015 146.015)" fill="#2A9519"/>
<circle cx="188.015" cy="150.015" r="2" transform="rotate(89.5805 188.015 150.015)" fill="#2A9519"/>
<circle cx="185.511" cy="168.511" r="1.5" transform="rotate(89.5805 185.511 168.511)" fill="#2A9519"/>
<circle cx="195.007" cy="191.007" r="1" transform="rotate(89.5805 195.007 191.007)" fill="#2A9519"/>
<circle cx="187.007" cy="184.007" r="1" transform="rotate(89.5805 187.007 184.007)" fill="#2A9519"/>
<circle cx="184.511" cy="143.511" r="1.5" transform="rotate(89.5805 184.511 143.511)" fill="#2A9519"/>
<circle cx="187.511" cy="192.511" r="1.5" transform="rotate(89.5805 187.511 192.511)" fill="#2A9519"/>
<circle cx="189.007" cy="166.007" r="1" transform="rotate(89.5805 189.007 166.007)" fill="#2A9519"/>
<defs>
<filter id="filter0_f_209_118990" x="89" y="185" width="126" height="24.5" filterUnits="userSpaceOnUse" color-interpolation-filters="sRGB">
<feFlood flood-opacity="0" result="BackgroundImageFix"/>
<feBlend mode="normal" in="SourceGraphic" in2="BackgroundImageFix" result="shape"/>
<feGaussianBlur stdDeviation="2" result="effect1_foregroundBlur_209_118990"/>
</filter>
<filter id="filter1_d_209_118990" x="108.145" y="138" width="86.6566" height="19" filterUnits="userSpaceOnUse" color-interpolation-filters="sRGB">
<feFlood flood-opacity="0" result="BackgroundImageFix"/>
<feColorMatrix in="SourceAlpha" type="matrix" values="0 0 0 0 0 0 0 0 0 0 0 0 0 0 0 0 0 0 127 0" result="hardAlpha"/>
<feOffset dy="4"/>
<feGaussianBlur stdDeviation="2"/>
<feComposite in2="hardAlpha" operator="out"/>
<feColorMatrix type="matrix" values="0 0 0 0 0 0 0 0 0 0 0 0 0 0 0 0 0 0 0.25 0"/>
<feBlend mode="normal" in2="BackgroundImageFix" result="effect1_dropShadow_209_118990"/>
<feBlend mode="normal" in="SourceGraphic" in2="effect1_dropShadow_209_118990" result="shape"/>
</filter>
<linearGradient id="paint0_linear_209_118990" x1="152" y1="176" x2="174" y2="183.5" gradientUnits="userSpaceOnUse">
<stop stop-color="#A8690A" stop-opacity="0.81"/>
<stop offset="0.939762" stop-color="#6D4303"/>
</linearGradient>
<linearGradient id="paint1_linear_209_118990" x1="154.5" y1="176" x2="128" y2="185.5" gradientUnits="userSpaceOnUse">
<stop stop-color="#C28427" stop-opacity="0.4"/>
<stop offset="1" stop-color="#885508"/>
</linearGradient>
<linearGradient id="paint2_linear_209_118990" x1="112" y1="138" x2="191" y2="138" gradientUnits="userSpaceOnUse">
<stop offset="0.00865841" stop-color="#744704"/>
<stop offset="0.510756" stop-color="#CD851A"/>
<stop offset="1" stop-color="#724603"/>
</linearGradient>
</defs>
</svg>
