<svg width="303" height="271" viewBox="0 0 303 271" fill="none" xmlns="http://www.w3.org/2000/svg">
<circle cx="187" cy="107" r="2" fill="#38B923"/>
<circle cx="119" cy="107" r="2" fill="#38B923"/>
<ellipse cx="153" cy="107.5" rx="34" ry="3.5" fill="#38B923"/>
<circle cx="141" cy="107" r="2" fill="#2A9519"/>
<circle cx="154" cy="108" r="2" fill="#2A9519"/>
<circle cx="168" cy="108" r="2" fill="#2A9519"/>
<g filter="url(#filter0_f_61_69617)">
<path d="M211 167C211 171.971 184.585 174.5 152 174.5C119.415 174.5 93 171.971 93 167C93 162.029 119.415 158 152 158C184.585 158 211 162.029 211 167Z" fill="#D9D9D9"/>
</g>
<path d="M116.242 114.198C116.117 113.579 116.59 113 117.222 113H186.245C186.887 113 187.363 113.597 187.219 114.224L175.178 166.724C175.074 167.178 174.67 167.5 174.203 167.5H127.818C127.342 167.5 126.932 167.164 126.838 166.698L116.242 114.198Z" fill="#B4771A"/>
<path d="M116.377 114.869C116.254 114.256 116.192 113.95 116.266 113.708C116.342 113.456 116.515 113.245 116.746 113.12C116.969 113 117.281 113 117.906 113H185.542C186.182 113 186.502 113 186.727 113.124C186.961 113.253 187.133 113.469 187.206 113.726C187.277 113.973 187.205 114.285 187.062 114.909L175.278 166.289C175.183 166.702 175.135 166.909 175.028 167.066C174.915 167.23 174.756 167.357 174.571 167.43C174.394 167.5 174.182 167.5 173.757 167.5H128.277C127.841 167.5 127.624 167.5 127.444 167.427C127.256 167.351 127.095 167.22 126.984 167.051C126.877 166.888 126.834 166.675 126.747 166.249L116.377 114.869Z" fill="url(#paint0_linear_61_69617)"/>
<path d="M116.377 114.869C116.254 114.256 116.192 113.95 116.266 113.708C116.342 113.456 116.515 113.245 116.746 113.12C116.969 113 117.281 113 117.906 113H185.542C186.182 113 186.502 113 186.727 113.124C186.961 113.253 187.133 113.469 187.206 113.726C187.277 113.973 187.205 114.285 187.062 114.909L175.278 166.289C175.183 166.702 175.135 166.909 175.028 167.066C174.915 167.23 174.756 167.357 174.571 167.43C174.394 167.5 174.182 167.5 173.757 167.5H128.277C127.841 167.5 127.624 167.5 127.444 167.427C127.256 167.351 127.095 167.22 126.984 167.051C126.877 166.888 126.834 166.675 126.747 166.249L116.377 114.869Z" fill="url(#paint1_linear_61_69617)"/>
<g filter="url(#filter1_d_61_69617)">
<path d="M112.155 108.135C112.073 107.535 112.54 107 113.146 107H189.802C190.426 107 190.897 107.565 190.786 108.179L189.149 117.179C189.063 117.654 188.649 118 188.165 118H114.373C113.873 118 113.45 117.631 113.382 117.135L112.155 108.135Z" fill="url(#paint2_linear_61_69617)"/>
</g>
<circle cx="123" cy="106" r="2" fill="#38B923"/>
<circle cx="125" cy="104" r="2" fill="#38B923"/>
<circle cx="128" cy="105" r="2" fill="#2A9519"/>
<circle cx="130" cy="104" r="2" fill="#38B923"/>
<circle cx="133" cy="104" r="2" fill="#38B923"/>
<circle cx="134" cy="102" r="2" fill="#38B923"/>
<circle cx="110" cy="107" r="2" fill="#2A9519"/>
<circle cx="118" cy="108" r="2" fill="#2A9519"/>
<circle cx="182.015" cy="143.015" r="2" transform="rotate(89.5805 182.015 143.015)" fill="#2A9519"/>
<path d="M190.515 142.515C189.41 142.523 188.508 141.634 188.5 140.529C188.492 139.425 189.381 138.523 190.485 138.515C191.59 138.507 192.492 139.395 192.5 140.5C192.508 141.605 191.619 142.507 190.515 142.515Z" fill="#2A9519"/>
<circle cx="201.015" cy="134.015" r="2" transform="rotate(89.5805 201.015 134.015)" fill="#2A9519"/>
<circle cx="200.015" cy="121.015" r="2" transform="rotate(89.5805 200.015 121.015)" fill="#2A9519"/>
<circle cx="195.015" cy="111.015" r="2" transform="rotate(89.5805 195.015 111.015)" fill="#2A9519"/>
<circle cx="191.015" cy="107.015" r="2" transform="rotate(89.5805 191.015 107.015)" fill="#2A9519"/>
<circle cx="127" cy="134" r="2" fill="#2A9519"/>
<circle cx="128" cy="122" r="2" fill="#2A9519"/>
<circle cx="125" cy="114" r="2" fill="#2A9519"/>
<circle cx="122" cy="138" r="2" fill="#2A9519"/>
<circle cx="121" cy="110" r="2" fill="#2A9519"/>
<circle cx="122" cy="116" r="2" fill="#2A9519"/>
<circle cx="118" cy="123" r="2" fill="#2A9519"/>
<circle cx="122" cy="126" r="2" fill="#2A9519"/>
<circle cx="114" cy="105" r="2" fill="#2A9519"/>
<circle cx="111" cy="150" r="2" fill="#2A9519"/>
<circle cx="121" cy="105" r="2" fill="#2A9519"/>
<path d="M188.022 132.007C187.47 132.011 187.019 131.567 187.015 131.015C187.011 130.462 187.455 130.011 188.007 130.007C188.56 130.003 189.011 130.448 189.015 131C189.019 131.552 188.574 132.003 188.022 132.007Z" fill="#38B923"/>
<circle cx="186.007" cy="150.007" r="1" transform="rotate(89.5805 186.007 150.007)" fill="#38B923"/>
<path d="M185.198 161.023C184.646 161.027 184.195 160.582 184.191 160.03C184.187 159.478 184.631 159.027 185.184 159.023C185.736 159.019 186.187 159.463 186.191 160.015C186.195 160.568 185.751 161.019 185.198 161.023Z" fill="#38B923"/>
<circle cx="193.007" cy="161.007" r="1" transform="rotate(89.5805 193.007 161.007)" fill="#38B923"/>
<circle cx="190.007" cy="160.007" r="1" transform="rotate(89.5805 190.007 160.007)" fill="#38B923"/>
<path d="M185.515 142.145C184.962 142.149 184.511 141.705 184.507 141.153C184.503 140.6 184.948 140.149 185.5 140.145C186.052 140.141 186.503 140.586 186.507 141.138C186.511 141.69 186.067 142.141 185.515 142.145Z" fill="#38B923"/>
<path d="M200.515 129.137C199.962 129.141 199.511 128.696 199.507 128.144C199.503 127.592 199.948 127.141 200.5 127.137C201.052 127.133 201.503 127.577 201.507 128.13C201.511 128.682 201.067 129.133 200.515 129.137Z" fill="#38B923"/>
<circle cx="202.007" cy="148.007" r="1" transform="rotate(89.5805 202.007 148.007)" fill="#38B923"/>
<circle cx="204.007" cy="156.007" r="1" transform="rotate(89.5805 204.007 156.007)" fill="#38B923"/>
<circle cx="130" cy="158" r="1" fill="#38B923"/>
<circle cx="129" cy="147" r="1" fill="#38B923"/>
<circle cx="121" cy="150" r="1" fill="#38B923"/>
<circle cx="124" cy="159" r="1" fill="#38B923"/>
<circle cx="122" cy="158" r="1" fill="#38B923"/>
<path d="M122.134 160.5C122.134 161.052 121.686 161.5 121.134 161.5C120.582 161.5 120.134 161.052 120.134 160.5C120.134 159.948 120.582 159.5 121.134 159.5C121.686 159.5 122.134 159.948 122.134 160.5Z" fill="#38B923"/>
<circle cx="107" cy="133" r="1" fill="#38B923"/>
<circle cx="107" cy="141" r="1" fill="#38B923"/>
<circle cx="106" cy="144" r="1" fill="#38B923"/>
<circle cx="114" cy="149" r="1" fill="#38B923"/>
<circle cx="114" cy="140" r="1" fill="#38B923"/>
<circle cx="99" cy="166" r="1" fill="#38B923"/>
<circle cx="108" cy="112" r="1" fill="#38B923"/>
<circle cx="103" cy="127" r="1" fill="#38B923"/>
<circle cx="104" cy="136" r="1" fill="#38B923"/>
<circle cx="102" cy="143" r="1" fill="#38B923"/>
<circle cx="101" cy="129" r="1" fill="#38B923"/>
<circle cx="106" cy="116" r="1" fill="#2A9519"/>
<circle cx="108" cy="115" r="1" fill="#2A9519"/>
<circle cx="185.007" cy="129.007" r="1" transform="rotate(89.5805 185.007 129.007)" fill="#2A9519"/>
<path d="M184.5 158C183.948 158.004 183.497 157.56 183.493 157.007C183.489 156.455 183.933 156.004 184.485 156C185.038 155.996 185.489 156.44 185.493 156.993C185.497 157.545 185.052 157.996 184.5 158Z" fill="#2A9519"/>
<circle cx="194.007" cy="163.007" r="1" transform="rotate(89.5805 194.007 163.007)" fill="#2A9519"/>
<circle cx="186.007" cy="123.007" r="1" transform="rotate(89.5805 186.007 123.007)" fill="#2A9519"/>
<circle cx="186.007" cy="109.007" r="1" transform="rotate(89.5805 186.007 109.007)" fill="#2A9519"/>
<circle cx="189.007" cy="162.007" r="1" transform="rotate(89.5805 189.007 162.007)" fill="#2A9519"/>
<circle cx="183.007" cy="140.007" r="1" transform="rotate(89.5805 183.007 140.007)" fill="#2A9519"/>
<circle cx="184.007" cy="135.007" r="1" transform="rotate(89.5805 184.007 135.007)" fill="#2A9519"/>
<path d="M199.5 147.869C198.948 147.873 198.497 147.429 198.493 146.877C198.489 146.324 198.933 145.873 199.485 145.869C200.038 145.865 200.489 146.31 200.493 146.862C200.497 147.414 200.052 147.865 199.5 147.869Z" fill="#2A9519"/>
<circle cx="200.007" cy="151.007" r="1" transform="rotate(89.5805 200.007 151.007)" fill="#2A9519"/>
<circle cx="131" cy="145" r="1" fill="#2A9519"/>
<circle cx="131" cy="138" r="1" fill="#2A9519"/>
<path d="M124.5 161.5C124.5 162.052 124.052 162.5 123.5 162.5C122.948 162.5 122.5 162.052 122.5 161.5C122.5 160.948 122.948 160.5 123.5 160.5C124.052 160.5 124.5 160.948 124.5 161.5Z" fill="#2A9519"/>
<circle cx="107" cy="136" r="1" fill="#2A9519"/>
<path d="M115.5 136.134C115.5 136.686 115.052 137.134 114.5 137.134C113.948 137.134 113.5 136.686 113.5 136.134C113.5 135.581 113.948 135.134 114.5 135.134C115.052 135.134 115.5 135.581 115.5 136.134Z" fill="#2A9519"/>
<circle cx="118" cy="133" r="1" fill="#2A9519"/>
<circle cx="101" cy="146" r="1" fill="#2A9519"/>
<circle cx="105" cy="138" r="1" fill="#2A9519"/>
<circle cx="116" cy="128" r="1" fill="#2A9519"/>
<circle cx="103" cy="141" r="1" fill="#2A9519"/>
<circle cx="104.5" cy="156.5" r="1.5" fill="#38B923"/>
<circle cx="108.5" cy="163.5" r="1.5" fill="#38B923"/>
<circle cx="100" cy="149" r="1" fill="#38B923"/>
<circle cx="106" cy="155" r="1" fill="#2A9519"/>
<circle cx="108" cy="155" r="1" fill="#38B923"/>
<circle cx="113" cy="157" r="1" fill="#38B923"/>
<circle cx="111" cy="163" r="1" fill="#38B923"/>
<circle cx="100" cy="169" r="1" fill="#38B923"/>
<circle cx="107" cy="151" r="1" fill="#38B923"/>
<circle cx="109" cy="152" r="1" fill="#2A9519"/>
<circle cx="111" cy="158" r="1" fill="#2A9519"/>
<circle cx="111" cy="112" r="2" fill="#38B923"/>
<circle cx="120" cy="111" r="2" fill="#38B923"/>
<circle cx="182.015" cy="148.015" r="2" transform="rotate(89.5805 182.015 148.015)" fill="#38B923"/>
<circle cx="184.015" cy="120.015" r="2" transform="rotate(89.5805 184.015 120.015)" fill="#38B923"/>
<circle cx="183.015" cy="109.015" r="2" transform="rotate(89.5805 183.015 109.015)" fill="#38B923"/>
<circle cx="187.015" cy="146.015" r="2" transform="rotate(89.5805 187.015 146.015)" fill="#38B923"/>
<circle cx="187.015" cy="134.015" r="2" transform="rotate(89.5805 187.015 134.015)" fill="#38B923"/>
<path d="M191.529 131.081C190.425 131.089 189.523 130.201 189.515 129.096C189.507 127.991 190.396 127.09 191.5 127.081C192.605 127.073 193.507 127.962 193.515 129.067C193.523 130.171 192.634 131.073 191.529 131.081Z" fill="#38B923"/>
<circle cx="189.015" cy="123.015" r="2" transform="rotate(89.5805 189.015 123.015)" fill="#38B923"/>
<circle cx="188.015" cy="111.015" r="2" transform="rotate(89.5805 188.015 111.015)" fill="#38B923"/>
<circle cx="200.015" cy="125.015" r="2" transform="rotate(89.5805 200.015 125.015)" fill="#38B923"/>
<circle cx="193.015" cy="115.015" r="2" transform="rotate(89.5805 193.015 115.015)" fill="#38B923"/>
<path d="M190.97 105.515C189.865 105.523 188.964 104.634 188.955 103.529C188.947 102.425 189.836 101.523 190.941 101.515C192.045 101.507 192.947 102.395 192.955 103.5C192.963 104.605 192.075 105.507 190.97 105.515Z" fill="#38B923"/>
<circle cx="130" cy="130" r="2" fill="#38B923"/>
<circle cx="127" cy="118" r="2" fill="#38B923"/>
<circle cx="124" cy="110" r="2" fill="#38B923"/>
<circle cx="123" cy="143" r="2" fill="#38B923"/>
<circle cx="112" cy="116" r="2" fill="#38B923"/>
<circle cx="111" cy="123" r="2" fill="#38B923"/>
<circle cx="109" cy="120" r="2" fill="#38B923"/>
<circle cx="106" cy="126" r="2" fill="#38B923"/>
<circle cx="117" cy="104" r="2" fill="#38B923"/>
<circle cx="114" cy="154" r="2" fill="#38B923"/>
<circle cx="105" cy="113" r="2" fill="#38B923"/>
<path d="M183.022 117.1C182.194 117.106 181.517 116.44 181.511 115.611C181.505 114.783 182.172 114.106 183 114.1C183.828 114.094 184.505 114.761 184.511 115.589C184.517 116.418 183.85 117.094 183.022 117.1Z" fill="#38B923"/>
<circle cx="189.511" cy="154.511" r="1.5" transform="rotate(89.5805 189.511 154.511)" fill="#38B923"/>
<circle cx="195.511" cy="158.511" r="1.5" transform="rotate(89.5805 195.511 158.511)" fill="#38B923"/>
<circle cx="184.511" cy="131.511" r="1.5" transform="rotate(89.5805 184.511 131.511)" fill="#38B923"/>
<circle cx="186.511" cy="125.511" r="1.5" transform="rotate(89.5805 186.511 125.511)" fill="#38B923"/>
<circle cx="202.511" cy="143.511" r="1.5" transform="rotate(89.5805 202.511 143.511)" fill="#38B923"/>
<circle cx="201.511" cy="151.511" r="1.5" transform="rotate(89.5805 201.511 151.511)" fill="#38B923"/>
<circle cx="200.511" cy="140.511" r="1.5" transform="rotate(89.5805 200.511 140.511)" fill="#38B923"/>
<circle cx="187.511" cy="137.511" r="1.5" transform="rotate(89.5805 187.511 137.511)" fill="#38B923"/>
<circle cx="190.511" cy="135.511" r="1.5" transform="rotate(89.5805 190.511 135.511)" fill="#38B923"/>
<circle cx="186.511" cy="142.511" r="1.5" transform="rotate(89.5805 186.511 142.511)" fill="#38B923"/>
<circle cx="196.511" cy="117.511" r="1.5" transform="rotate(89.5805 196.511 117.511)" fill="#38B923"/>
<circle cx="202.511" cy="129.511" r="1.5" transform="rotate(89.5805 202.511 129.511)" fill="#38B923"/>
<circle cx="128.5" cy="154.5" r="1.5" fill="#38B923"/>
<circle cx="131.5" cy="142.5" r="1.5" fill="#38B923"/>
<circle cx="129.5" cy="134.5" r="1.5" fill="#38B923"/>
<circle cx="125.5" cy="122.5" r="1.5" fill="#38B923"/>
<circle cx="120.5" cy="147.5" r="1.5" fill="#38B923"/>
<circle cx="124.5" cy="155.5" r="1.5" fill="#38B923"/>
<circle cx="126.5" cy="163.5" r="1.5" fill="#38B923"/>
<circle cx="108.5" cy="125.5" r="1.5" fill="#38B923"/>
<circle cx="112.5" cy="146.5" r="1.5" fill="#38B923"/>
<circle cx="115.5" cy="143.5" r="1.5" fill="#38B923"/>
<circle cx="105.5" cy="148.5" r="1.5" fill="#38B923"/>
<circle cx="118.5" cy="126.5" r="1.5" fill="#38B923"/>
<circle cx="103.5" cy="169.5" r="1.5" fill="#38B923"/>
<circle cx="103.5" cy="145.5" r="1.5" fill="#38B923"/>
<circle cx="103.5" cy="123.5" r="1.5" fill="#38B923"/>
<circle cx="104" cy="120" r="2" fill="#2A9519"/>
<circle cx="185.511" cy="146.511" r="1.5" transform="rotate(89.5805 185.511 146.511)" fill="#2A9519"/>
<circle cx="184.511" cy="153.511" r="1.5" transform="rotate(89.5805 184.511 153.511)" fill="#2A9519"/>
<circle cx="186.511" cy="117.511" r="1.5" transform="rotate(89.5805 186.511 117.511)" fill="#2A9519"/>
<circle cx="189.511" cy="149.511" r="1.5" transform="rotate(89.5805 189.511 149.511)" fill="#2A9519"/>
<circle cx="187.511" cy="157.511" r="1.5" transform="rotate(89.5805 187.511 157.511)" fill="#2A9519"/>
<path d="M191.433 166.511C190.604 166.517 189.928 165.85 189.922 165.022C189.916 164.194 190.582 163.517 191.411 163.511C192.239 163.505 192.916 164.172 192.922 165C192.928 165.828 192.261 166.505 191.433 166.511Z" fill="#2A9519"/>
<circle cx="187.511" cy="128.511" r="1.5" transform="rotate(89.5805 187.511 128.511)" fill="#2A9519"/>
<circle cx="199.511" cy="154.511" r="1.5" transform="rotate(89.5805 199.511 154.511)" fill="#2A9519"/>
<circle cx="202.511" cy="138.511" r="1.5" transform="rotate(89.5805 202.511 138.511)" fill="#2A9519"/>
<circle cx="195.511" cy="120.511" r="1.5" transform="rotate(89.5805 195.511 120.511)" fill="#2A9519"/>
<path d="M191.345 132.73C190.516 132.736 189.84 132.069 189.834 131.241C189.828 130.412 190.495 129.736 191.323 129.73C192.151 129.724 192.828 130.39 192.834 131.219C192.84 132.047 192.173 132.724 191.345 132.73Z" fill="#2A9519"/>
<circle cx="127.5" cy="158.5" r="1.5" fill="#2A9519"/>
<circle cx="128.5" cy="125.5" r="1.5" fill="#2A9519"/>
<circle cx="128.5" cy="139.5" r="1.5" fill="#2A9519"/>
<circle cx="123.5" cy="118.5" r="1.5" fill="#2A9519"/>
<circle cx="123.5" cy="152.5" r="1.5" fill="#2A9519"/>
<path d="M122.706 133.324C122.706 134.152 122.035 134.824 121.206 134.824C120.378 134.824 119.706 134.152 119.706 133.324C119.706 132.495 120.378 131.824 121.206 131.824C122.035 131.824 122.706 132.495 122.706 133.324Z" fill="#2A9519"/>
<circle cx="108.5" cy="146.5" r="1.5" fill="#2A9519"/>
<circle cx="112.5" cy="143.5" r="1.5" fill="#2A9519"/>
<circle cx="116.5" cy="139.5" r="1.5" fill="#2A9519"/>
<path d="M103.961 165.843C103.961 166.672 103.289 167.343 102.461 167.343C101.632 167.343 100.961 166.672 100.961 165.843C100.961 165.015 101.632 164.343 102.461 164.343C103.289 164.343 103.961 165.015 103.961 165.843Z" fill="#2A9519"/>
<path d="M103.268 137.524C103.268 138.352 102.596 139.024 101.768 139.024C100.94 139.024 100.268 138.352 100.268 137.524C100.268 136.695 100.94 136.024 101.768 136.024C102.596 136.024 103.268 136.695 103.268 137.524Z" fill="#2A9519"/>
<path d="M114.5 160.415C114.5 161.243 113.828 161.915 113 161.915C112.172 161.915 111.5 161.243 111.5 160.415C111.5 159.586 112.172 158.915 113 158.915C113.828 158.915 114.5 159.586 114.5 160.415Z" fill="#2A9519"/>
<circle cx="101" cy="134" r="2" fill="#2A9519"/>
<circle cx="119" cy="120" r="2" fill="#2A9519"/>
<circle cx="100" cy="125" r="2" fill="#2A9519"/>
<circle cx="115" cy="132" r="2" fill="#2A9519"/>
<circle cx="101" cy="117" r="2" fill="#38B923"/>
<circle cx="105" cy="131" r="2" fill="#38B923"/>
<circle cx="118" cy="136" r="2" fill="#38B923"/>
<circle cx="119" cy="130" r="2" fill="#38B923"/>
<circle cx="116" cy="123" r="2" fill="#38B923"/>
<circle cx="139" cy="104" r="2" fill="#38B923"/>
<circle cx="140" cy="101" r="2" fill="#38B923"/>
<circle cx="143" cy="105" r="2" fill="#38B923"/>
<circle cx="142" cy="104" r="2" fill="#38B923"/>
<circle cx="144" cy="103" r="2" fill="#2A9519"/>
<circle cx="147" cy="103" r="2" fill="#38B923"/>
<circle cx="147" cy="101" r="2" fill="#38B923"/>
<circle cx="151" cy="102" r="2" fill="#38B923"/>
<circle cx="149" cy="103" r="2" fill="#38B923"/>
<circle cx="152" cy="104" r="2" fill="#38B923"/>
<circle cx="157" cy="104" r="2" fill="#38B923"/>
<circle cx="155" cy="101" r="2" fill="#38B923"/>
<circle cx="159" cy="101" r="2" fill="#38B923"/>
<circle cx="161" cy="103" r="2" fill="#2A9519"/>
<circle cx="164" cy="104" r="2" fill="#38B923"/>
<circle cx="156" cy="105" r="2" fill="#38B923"/>
<circle cx="167" cy="101" r="2" fill="#38B923"/>
<circle cx="167" cy="104" r="2" fill="#38B923"/>
<circle cx="170" cy="104" r="2" fill="#38B923"/>
<circle cx="170" cy="102" r="2" fill="#2A9519"/>
<circle cx="173" cy="103" r="2" fill="#38B923"/>
<circle cx="177" cy="105" r="2" fill="#38B923"/>
<circle cx="180" cy="103" r="2" fill="#38B923"/>
<circle cx="181" cy="105" r="2" fill="#38B923"/>
<circle cx="174" cy="105" r="2" fill="#2A9519"/>
<circle cx="149" cy="99" r="2" fill="#38B923"/>
<circle cx="136" cy="104" r="2" fill="#2A9519"/>
<path d="M119.5 107C119.5 107 120.734 121.966 119.5 131.424C118.05 142.543 126.225 152.831 121.5 163" stroke="#38B923"/>
<path d="M195 159C189 173.5 186 146.5 188.985 135.671C191.97 124.841 180.775 117.169 185.5 107" stroke="#38B923"/>
<path d="M126.355 107.057C120.809 121.472 136.355 135.066 127.355 163.057" stroke="#38B923"/>
<path d="M188.191 106.057C193.737 120.472 178.191 134.066 187.191 162.057" stroke="#38B923"/>
<path d="M117 107.5C108.5 104.277 113.041 110.5 107.04 114C94.5993 121.257 109.541 137.277 100.541 148.777" stroke="#38B923"/>
<path d="M119.784 107.912C114.5 100.5 117.108 116.602 109.5 122.5C100.515 129.466 113 158.5 104.5 156.5" stroke="#38B923"/>
<path d="M188.289 107.437C193.573 100.025 190.966 116.128 198.573 122.025C207.559 128.992 195.073 158.025 203.573 156.025" stroke="#38B923"/>
<path d="M119.07 107.21C117.34 105.06 119.565 126.166 115.392 137.567C110.759 150.228 116.565 172.696 95.5652 166.696" stroke="#38B923"/>
<circle cx="185" cy="105" r="2" fill="#2A9519"/>
<circle cx="154" cy="102" r="2" fill="#2A9519"/>
<circle cx="102.5" cy="115.5" r="1.5" fill="#2A9519"/>
<circle cx="95.5" cy="166.5" r="1.5" fill="#2A9519"/>
<path d="M97.8662 168.5C97.8662 169.052 97.4185 169.5 96.8662 169.5C96.3139 169.5 95.8662 169.052 95.8662 168.5C95.8662 167.948 96.3139 167.5 96.8662 167.5C97.4185 167.5 97.8662 167.948 97.8662 168.5Z" fill="#2A9519"/>
<circle cx="108" cy="166" r="2" fill="#2A9519"/>
<circle cx="117" cy="115" r="2" fill="#2A9519"/>
<circle cx="117" cy="119" r="1" fill="#38B923"/>
<circle cx="116" cy="108" r="2" fill="#2A9519"/>
<circle cx="113" cy="112" r="2" fill="#2A9519"/>
<circle cx="114" cy="120" r="2" fill="#2A9519"/>
<circle cx="107.5" cy="122.5" r="1.5" fill="#2A9519"/>
<circle cx="107.5" cy="129.5" r="1.5" fill="#2A9519"/>
<circle cx="104.5" cy="134.5" r="1.5" fill="#2A9519"/>
<path d="M106.5 141.415C106.5 142.243 105.828 142.915 105 142.915C104.172 142.915 103.5 142.243 103.5 141.415C103.5 140.586 104.172 139.915 105 139.915C105.828 139.915 106.5 140.586 106.5 141.415Z" fill="#2A9519"/>
<circle cx="120" cy="123" r="2" fill="#2A9519"/>
<circle cx="119" cy="142" r="2" fill="#2A9519"/>
<circle cx="128" cy="109" r="2" fill="#2A9519"/>
<path d="M122.5 163C122.5 163.552 122.052 164 121.5 164C120.948 164 120.5 163.552 120.5 163C120.5 162.448 120.948 162 121.5 162C122.052 162 122.5 162.448 122.5 163Z" fill="#2A9519"/>
<circle cx="121.5" cy="154.5" r="1.5" fill="#2A9519"/>
<circle cx="123" cy="148" r="1" fill="#2A9519"/>
<path d="M130 162C130 162.552 129.552 163 129 163C128.448 163 128 162.552 128 162C128 161.448 128.448 161 129 161C129.552 161 130 161.448 130 162Z" fill="#2A9519"/>
<circle cx="126" cy="128" r="2" fill="#2A9519"/>
<path d="M131.5 150.415C131.5 151.243 130.828 151.915 130 151.915C129.172 151.915 128.5 151.243 128.5 150.415C128.5 149.586 129.172 148.915 130 148.915C130.828 148.915 131.5 149.586 131.5 150.415Z" fill="#2A9519"/>
<circle cx="130" cy="155" r="1" fill="#2A9519"/>
<circle cx="203.007" cy="155.007" r="1" transform="rotate(89.5805 203.007 155.007)" fill="#2A9519"/>
<circle cx="201.007" cy="143.007" r="1" transform="rotate(89.5805 201.007 143.007)" fill="#2A9519"/>
<circle cx="190.015" cy="107.015" r="2" transform="rotate(89.5805 190.015 107.015)" fill="#2A9519"/>
<circle cx="191.015" cy="115.015" r="2" transform="rotate(89.5805 191.015 115.015)" fill="#2A9519"/>
<circle cx="188.015" cy="119.015" r="2" transform="rotate(89.5805 188.015 119.015)" fill="#2A9519"/>
<circle cx="185.511" cy="137.511" r="1.5" transform="rotate(89.5805 185.511 137.511)" fill="#2A9519"/>
<circle cx="195.007" cy="160.007" r="1" transform="rotate(89.5805 195.007 160.007)" fill="#2A9519"/>
<circle cx="187.007" cy="153.007" r="1" transform="rotate(89.5805 187.007 153.007)" fill="#2A9519"/>
<circle cx="184.511" cy="112.511" r="1.5" transform="rotate(89.5805 184.511 112.511)" fill="#2A9519"/>
<circle cx="187.511" cy="161.511" r="1.5" transform="rotate(89.5805 187.511 161.511)" fill="#2A9519"/>
<circle cx="189.007" cy="135.007" r="1" transform="rotate(89.5805 189.007 135.007)" fill="#2A9519"/>
<defs>
<filter id="filter0_f_61_69617" x="89" y="154" width="126" height="24.5" filterUnits="userSpaceOnUse" color-interpolation-filters="sRGB">
<feFlood flood-opacity="0" result="BackgroundImageFix"/>
<feBlend mode="normal" in="SourceGraphic" in2="BackgroundImageFix" result="shape"/>
<feGaussianBlur stdDeviation="2" result="effect1_foregroundBlur_61_69617"/>
</filter>
<filter id="filter1_d_61_69617" x="108.145" y="107" width="86.6567" height="19" filterUnits="userSpaceOnUse" color-interpolation-filters="sRGB">
<feFlood flood-opacity="0" result="BackgroundImageFix"/>
<feColorMatrix in="SourceAlpha" type="matrix" values="0 0 0 0 0 0 0 0 0 0 0 0 0 0 0 0 0 0 127 0" result="hardAlpha"/>
<feOffset dy="4"/>
<feGaussianBlur stdDeviation="2"/>
<feComposite in2="hardAlpha" operator="out"/>
<feColorMatrix type="matrix" values="0 0 0 0 0 0 0 0 0 0 0 0 0 0 0 0 0 0 0.25 0"/>
<feBlend mode="normal" in2="BackgroundImageFix" result="effect1_dropShadow_61_69617"/>
<feBlend mode="normal" in="SourceGraphic" in2="effect1_dropShadow_61_69617" result="shape"/>
</filter>
<linearGradient id="paint0_linear_61_69617" x1="152" y1="145" x2="174" y2="152.5" gradientUnits="userSpaceOnUse">
<stop stop-color="#A8690A" stop-opacity="0.81"/>
<stop offset="0.939762" stop-color="#6D4303"/>
</linearGradient>
<linearGradient id="paint1_linear_61_69617" x1="154.5" y1="145" x2="128" y2="154.5" gradientUnits="userSpaceOnUse">
<stop stop-color="#C28427" stop-opacity="0.4"/>
<stop offset="1" stop-color="#885508"/>
</linearGradient>
<linearGradient id="paint2_linear_61_69617" x1="112" y1="107" x2="191" y2="107" gradientUnits="userSpaceOnUse">
<stop offset="0.00865841" stop-color="#744704"/>
<stop offset="0.510756" stop-color="#CD851A"/>
<stop offset="1" stop-color="#724603"/>
</linearGradient>
</defs>
</svg>
