<svg width="303" height="271" viewBox="0 0 303 271" fill="none" xmlns="http://www.w3.org/2000/svg">
<line x1="0.5" y1="-0.5" x2="54.4612" y2="-0.5" transform="matrix(0.118789 0.99292 0.99292 -0.118789 134.037 84.0635)" stroke="#326B2D" stroke-linecap="round"/>
<path d="M134.209 90.8273C134.793 92.3131 136.502 93.0318 138.028 92.4327C139.553 91.8336 146.781 88.0482 146.197 86.5625C145.613 85.0767 137.44 86.4531 135.914 87.0523C134.389 87.6514 133.625 89.3415 134.209 90.8273Z" fill="#254E22"/>
<path d="M137.687 117.951C137.86 119.75 136.374 121.366 134.367 121.56C132.36 121.754 122.331 121.72 122.157 119.92C121.983 118.121 131.731 115.237 133.738 115.043C135.745 114.85 137.513 116.151 137.687 117.951Z" fill="#254E22"/>
<path d="M120.201 94.8399C120.208 96.4159 128.383 97.6597 130.618 97.6504C132.853 97.6412 134.659 96.3561 134.653 94.7801C134.646 93.2041 132.829 91.934 130.594 91.9433C128.36 91.9525 120.195 93.2639 120.201 94.8399Z" fill="#254E22"/>
<path d="M152.66 106.562C153.311 108.296 144.848 113.074 142.39 113.996C139.931 114.919 137.41 114.261 136.76 112.527C136.109 110.793 137.575 108.639 140.034 107.717C142.493 106.794 152.01 104.828 152.66 106.562Z" fill="#254E22"/>
<path d="M122.63 83.6075C122.52 85.005 129.009 86.6571 130.809 86.7992C132.608 86.9412 134.157 85.9235 134.267 84.526C134.377 83.1285 133.008 81.8805 131.208 81.7384C129.409 81.5964 122.74 82.21 122.63 83.6075Z" fill="#254E22"/>
<path d="M128.888 75.2228C127.651 75.8829 129.756 82.2399 130.606 83.8323C131.456 85.4248 133.148 86.1806 134.384 85.5204C135.621 84.8603 135.934 83.0343 135.084 81.4418C134.234 79.8494 130.124 74.5627 128.888 75.2228Z" fill="#254E22"/>
<path d="M139.665 76.7248C138.546 75.8805 133.664 80.4644 132.577 81.9054C131.49 83.3464 131.516 85.199 132.635 86.0432C133.754 86.8875 135.543 86.4037 136.63 84.9627C137.717 83.5217 140.784 77.569 139.665 76.7248Z" fill="#254E22"/>
<path d="M135.438 100.281C136.022 101.767 138.334 102.249 140.603 101.358C142.873 100.467 148.633 95.9267 148.049 94.4409C147.466 92.9551 140.759 95.0861 138.49 95.9773C136.221 96.8686 134.855 98.7955 135.438 100.281Z" fill="#254E22"/>
<path d="M137.857 125.415C138.674 127.495 141.789 128.218 144.815 127.03C147.84 125.842 155.469 119.657 154.652 117.577C153.835 115.497 144.882 118.309 141.856 119.497C138.831 120.686 137.04 123.335 137.857 125.415Z" fill="#254E22"/>
<path d="M139.364 129.51C139.498 131.741 136.977 133.707 133.732 133.903C130.487 134.098 120.964 131.697 120.83 129.467C120.696 127.236 130.001 126.019 133.246 125.824C136.491 125.629 139.23 127.279 139.364 129.51Z" fill="#254E22"/>
<path d="M123.069 107.543C123.3 109.122 130.73 109.342 133.037 109.004C135.344 108.666 137.027 107.111 136.796 105.532C136.565 103.952 134.507 102.946 132.199 103.284C129.892 103.622 122.838 105.963 123.069 107.543Z" fill="#254E22"/>
<line x1="0.5" y1="-0.5" x2="54.4612" y2="-0.5" transform="matrix(0.118789 0.99292 0.99292 -0.118789 134.267 81.4886)" stroke="#326B2D" stroke-linecap="round"/>
<path d="M134.44 88.2525C135.023 89.7382 136.733 90.457 138.258 89.8579C139.784 89.2588 147.011 85.4734 146.428 83.9876C145.844 82.5019 137.67 83.8783 136.145 84.4774C134.62 85.0766 133.856 86.7667 134.44 88.2525Z" fill="#326B2D"/>
<path d="M137.917 115.376C138.091 117.175 136.605 118.791 134.598 118.985C132.591 119.179 122.562 119.145 122.388 117.346C122.214 115.546 131.962 112.662 133.969 112.469C135.976 112.275 137.744 113.576 137.917 115.376Z" fill="#326B2D"/>
<path d="M120.432 92.2651C120.438 93.8411 128.614 95.0848 130.849 95.0756C133.083 95.0663 134.89 93.7812 134.883 92.2053C134.877 90.6293 133.06 89.3592 130.825 89.3684C128.59 89.3777 120.425 90.6891 120.432 92.2651Z" fill="#326B2D"/>
<path d="M152.891 103.987C153.541 105.721 145.079 110.499 142.62 111.421C140.161 112.344 137.641 111.686 136.99 109.952C136.34 108.218 137.806 106.064 140.265 105.142C142.724 104.22 152.24 102.253 152.891 103.987Z" fill="#326B2D"/>
<path d="M122.861 81.0326C122.751 82.4301 129.24 84.0823 131.04 84.2243C132.839 84.3664 134.387 83.3486 134.498 81.9512C134.608 80.5537 133.238 79.3056 131.439 79.1636C129.64 79.0216 122.971 79.6351 122.861 81.0326Z" fill="#326B2D"/>
<path d="M129.118 72.6479C127.882 73.3081 129.987 79.6651 130.837 81.2575C131.687 82.8499 133.378 83.6057 134.615 82.9456C135.852 82.2855 136.165 80.4594 135.315 78.867C134.465 77.2746 130.355 71.9878 129.118 72.6479Z" fill="#326B2D"/>
<path d="M139.896 74.1499C138.777 73.3057 133.895 77.8895 132.808 79.3306C131.721 80.7716 131.747 82.6241 132.866 83.4684C133.985 84.3127 135.773 83.8289 136.86 82.3879C137.948 80.9469 141.015 74.9942 139.896 74.1499Z" fill="#326B2D"/>
<path d="M135.669 97.7065C136.252 99.1923 138.565 99.6742 140.834 98.783C143.103 97.8917 148.864 93.3518 148.28 91.8661C147.696 90.3803 140.99 92.5113 138.721 93.4025C136.452 94.2938 135.085 96.2207 135.669 97.7065Z" fill="#326B2D"/>
<path d="M138.088 122.84C138.905 124.92 142.02 125.643 145.045 124.455C148.071 123.267 155.7 117.082 154.883 115.002C154.066 112.922 145.112 115.734 142.087 116.922C139.061 118.111 137.271 120.76 138.088 122.84Z" fill="#326B2D"/>
<path d="M139.595 126.935C139.729 129.166 137.207 131.133 133.963 131.328C130.718 131.523 121.195 129.122 121.061 126.892C120.927 124.661 130.232 123.445 133.477 123.25C136.721 123.054 139.461 124.705 139.595 126.935Z" fill="#326B2D"/>
<path d="M123.3 104.968C123.531 106.547 130.961 106.767 133.268 106.429C135.575 106.091 137.258 104.536 137.027 102.957C136.795 101.378 134.737 100.371 132.43 100.709C130.123 101.047 123.068 103.388 123.3 104.968Z" fill="#326B2D"/>
<line x1="179.357" y1="85.3471" x2="165.824" y2="137.584" stroke="#326B2D" stroke-linecap="round"/>
<path d="M177.921 91.4174C177.143 92.8116 175.353 93.2947 173.921 92.4966C172.49 91.6984 165.835 86.9786 166.612 85.5844C167.39 84.1903 175.305 86.6497 176.737 87.4479C178.168 88.246 178.698 90.0232 177.921 91.4174Z" fill="#254E22"/>
<path d="M170.839 117.83C170.426 119.59 171.682 121.391 173.645 121.852C175.608 122.313 185.551 123.623 185.965 121.863C186.378 120.103 177.105 115.939 175.142 115.478C173.179 115.017 171.253 116.07 170.839 117.83Z" fill="#254E22"/>
<path d="M191.264 97.2711C191.047 98.832 182.778 98.9689 180.565 98.6602C178.351 98.3516 176.734 96.836 176.951 95.2751C177.169 93.7142 179.14 92.6991 181.353 93.0077C183.566 93.3164 191.482 95.7102 191.264 97.2711Z" fill="#254E22"/>
<path d="M157.527 104.538C156.65 106.169 164.396 112.037 166.709 113.281C169.022 114.525 171.608 114.21 172.485 112.579C173.362 110.948 172.198 108.617 169.884 107.374C167.571 106.13 158.404 102.906 157.527 104.538Z" fill="#254E22"/>
<path d="M190.363 85.8143C190.285 87.214 183.632 87.9816 181.83 87.8812C180.028 87.7808 178.63 86.5647 178.708 85.1651C178.786 83.7654 180.31 82.7121 182.112 82.8125C183.915 82.9129 190.441 84.4147 190.363 85.8143Z" fill="#254E22"/>
<path d="M185.285 76.6667C186.422 77.4866 183.484 83.5042 182.428 84.9683C181.373 86.4325 179.595 86.9547 178.458 86.1348C177.321 85.3149 177.255 83.4633 178.311 81.9992C179.367 80.535 184.148 75.8468 185.285 76.6667Z" fill="#254E22"/>
<path d="M174.404 76.7109C175.626 76.0242 179.849 81.221 180.733 82.7947C181.618 84.3684 181.344 86.2007 180.121 86.8874C178.899 87.5741 177.192 86.855 176.308 85.2813C175.423 83.7076 173.182 77.3975 174.404 76.7109Z" fill="#254E22"/>
<path d="M175.436 100.621C174.658 102.016 172.302 102.183 170.173 100.996C168.043 99.8086 162.943 94.5377 163.721 93.1436C164.498 91.7494 170.859 94.7599 172.988 95.9472C175.117 97.1346 176.213 99.2273 175.436 100.621Z" fill="#254E22"/>
<path d="M169.67 125.204C168.582 127.156 165.398 127.455 162.559 125.872C159.72 124.289 152.989 117.138 154.077 115.186C155.165 113.234 163.661 117.221 166.5 118.804C169.339 120.387 170.758 123.252 169.67 125.204Z" fill="#254E22"/>
<path d="M167.628 129.06C167.196 131.253 169.431 133.54 172.62 134.168C175.81 134.796 185.568 133.694 186 131.501C186.432 129.308 177.374 126.856 174.185 126.228C170.995 125.6 168.06 126.868 167.628 129.06Z" fill="#254E22"/>
<path d="M186.72 109.475C186.279 111.009 178.887 110.231 176.646 109.587C174.405 108.943 172.945 107.177 173.386 105.643C173.827 104.108 176.002 103.387 178.243 104.031C180.484 104.675 187.161 107.941 186.72 109.475Z" fill="#254E22"/>
<line x1="179.473" y1="82.7646" x2="165.94" y2="135.001" stroke="#326B2D" stroke-linecap="round"/>
<path d="M178.037 88.8349C177.26 90.229 175.469 90.7122 174.038 89.9141C172.606 89.1159 165.951 84.3961 166.729 83.0019C167.506 81.6078 175.422 84.0672 176.853 84.8654C178.284 85.6635 178.814 87.4407 178.037 88.8349Z" fill="#326B2D"/>
<path d="M170.956 115.248C170.542 117.008 171.798 118.808 173.761 119.269C175.724 119.73 185.668 121.041 186.081 119.281C186.495 117.521 177.221 113.357 175.258 112.896C173.295 112.435 171.369 113.488 170.956 115.248Z" fill="#326B2D"/>
<path d="M191.381 94.6886C191.163 96.2495 182.894 96.3864 180.681 96.0777C178.468 95.769 176.85 94.2535 177.068 92.6926C177.285 91.1317 179.256 90.1166 181.469 90.4252C183.683 90.7339 191.598 93.1277 191.381 94.6886Z" fill="#326B2D"/>
<path d="M157.643 101.955C156.766 103.586 164.512 109.455 166.825 110.698C169.138 111.942 171.724 111.628 172.601 109.997C173.478 108.365 172.314 106.035 170.001 104.791C167.688 103.548 158.52 100.324 157.643 101.955Z" fill="#326B2D"/>
<path d="M190.479 83.2318C190.401 84.6315 183.749 85.3991 181.946 85.2987C180.144 85.1982 178.746 83.9822 178.824 82.5825C178.902 81.1829 180.426 80.1296 182.229 80.23C184.031 80.3304 190.557 81.8322 190.479 83.2318Z" fill="#326B2D"/>
<path d="M185.401 74.0842C186.539 74.9041 183.601 80.9216 182.545 82.3858C181.489 83.8499 179.711 84.3722 178.574 83.5523C177.437 82.7324 177.371 80.8808 178.427 79.4167C179.483 77.9525 184.264 73.2643 185.401 74.0842Z" fill="#326B2D"/>
<path d="M174.52 74.1283C175.742 73.4417 179.965 78.6384 180.85 80.2121C181.734 81.7858 181.46 83.6182 180.238 84.3049C179.016 84.9916 177.308 84.2725 176.424 82.6988C175.54 81.1251 173.298 74.815 174.52 74.1283Z" fill="#326B2D"/>
<path d="M175.552 98.0389C174.775 99.4331 172.418 99.6008 170.289 98.4134C168.16 97.2261 163.06 91.9552 163.837 90.5611C164.615 89.1669 170.975 92.1774 173.104 93.3647C175.233 94.5521 176.329 96.6448 175.552 98.0389Z" fill="#326B2D"/>
<path d="M169.786 122.622C168.698 124.574 165.514 124.873 162.675 123.289C159.836 121.706 153.105 114.555 154.193 112.603C155.282 110.651 163.777 114.638 166.616 116.221C169.455 117.804 170.875 120.67 169.786 122.622Z" fill="#326B2D"/>
<path d="M167.744 126.478C167.312 128.671 169.548 130.957 172.737 131.586C175.926 132.214 185.685 131.111 186.117 128.919C186.549 126.726 177.49 124.273 174.301 123.645C171.112 123.017 168.176 124.285 167.744 126.478Z" fill="#326B2D"/>
<path d="M186.836 106.892C186.395 108.427 179.003 107.648 176.762 107.004C174.521 106.36 173.062 104.594 173.503 103.06C173.944 101.526 176.118 100.804 178.359 101.449C180.6 102.093 187.277 105.358 186.836 106.892Z" fill="#326B2D"/>
<line x1="114.61" y1="94.3576" x2="126.358" y2="139.39" stroke="#408B3A" stroke-linecap="round"/>
<path d="M116 99.5C116 100.881 114.851 102 113.433 102C112.016 102 105 101.238 105 99.8571C105 98.4764 112.016 97 113.433 97C114.851 97 116 98.1193 116 99.5Z" fill="#316A2C"/>
<path d="M121.777 122.437C122.206 123.94 123.914 124.771 125.591 124.293C127.268 123.814 135.332 120.615 134.903 119.112C134.473 117.608 125.714 118.369 124.037 118.847C122.36 119.326 121.348 120.933 121.777 122.437Z" fill="#316A2C"/>
<path d="M128.546 98.3011C129.039 99.572 122.851 103.159 121.049 103.858C119.247 104.557 117.386 104.093 116.893 102.823C116.4 101.552 117.461 99.9547 119.263 99.2555C121.065 98.5563 128.053 97.0302 128.546 98.3011Z" fill="#316A2C"/>
<path d="M106.121 118.003C106.145 119.604 114.469 120.775 116.74 120.74C119.011 120.705 120.833 119.378 120.808 117.777C120.783 116.175 118.922 114.905 116.651 114.94C114.38 114.975 106.096 116.401 106.121 118.003Z" fill="#316A2C"/>
<path d="M123.039 90.026C123.57 91.1162 118.868 94.4984 117.464 95.1818C116.06 95.8651 114.492 95.5353 113.961 94.4451C113.43 93.3549 114.138 91.9171 115.542 91.2337C116.946 90.5503 122.508 88.9357 123.039 90.026Z" fill="#316A2C"/>
<path d="M115.35 85.2542C116.554 85.3946 116.87 91.1783 116.689 92.7291C116.508 94.2799 115.385 95.4233 114.181 95.2829C112.976 95.1425 112.147 93.7715 112.327 92.2207C112.508 90.6698 114.145 85.1138 115.35 85.2542Z" fill="#316A2C"/>
<path d="M107.148 89.8715C107.782 88.8379 113.162 90.9847 114.493 91.8011C115.823 92.6175 116.388 94.1172 115.754 95.1508C115.12 96.1843 113.528 96.3604 112.197 95.544C110.866 94.7276 106.514 90.9051 107.148 89.8715Z" fill="#316A2C"/>
<path d="M118 107.5C118 108.881 116.291 110 114.182 110C112.073 110 106 108.166 106 106.786C106 105.405 112.073 105 114.182 105C116.291 105 118 106.119 118 107.5Z" fill="#316A2C"/>
<path d="M124 128.5C124 130.433 121.721 132 118.909 132C116.097 132 108 129.433 108 127.5C108 125.567 116.097 125 118.909 125C121.721 125 124 126.567 124 128.5Z" fill="#316A2C"/>
<path d="M124.082 132.273C124.679 134.112 127.331 134.898 130.005 134.029C132.679 133.16 139.587 128.216 138.989 126.378C138.392 124.539 130.516 126.502 127.842 127.371C125.168 128.24 123.484 130.435 124.082 132.273Z" fill="#316A2C"/>
<path d="M130.254 109.435C130.567 110.78 124.656 113.306 122.691 113.763C120.727 114.221 118.88 113.501 118.567 112.157C118.254 110.812 119.593 109.351 121.557 108.893C123.521 108.436 129.941 108.09 130.254 109.435Z" fill="#316A2C"/>
<line x1="113.61" y1="92.3576" x2="125.358" y2="137.39" stroke="#408B3A" stroke-linecap="round"/>
<path d="M115 97.5C115 98.8807 113.851 100 112.433 100C111.016 100 104 99.2379 104 97.8571C104 96.4764 111.016 95 112.433 95C113.851 95 115 96.1193 115 97.5Z" fill="#408B3A"/>
<path d="M120.777 120.437C121.206 121.94 122.914 122.771 124.591 122.293C126.268 121.814 134.332 118.615 133.903 117.112C133.473 115.608 124.714 116.369 123.037 116.847C121.36 117.326 120.348 118.933 120.777 120.437Z" fill="#408B3A"/>
<path d="M127.546 96.3011C128.039 97.572 121.851 101.159 120.049 101.858C118.247 102.557 116.386 102.093 115.893 100.823C115.4 99.5517 116.461 97.9547 118.263 97.2555C120.065 96.5563 127.053 95.0302 127.546 96.3011Z" fill="#408B3A"/>
<path d="M105.121 116.003C105.145 117.604 113.469 118.775 115.74 118.74C118.011 118.705 119.833 117.378 119.808 115.777C119.783 114.175 117.922 112.905 115.651 112.94C113.38 112.975 105.096 114.401 105.121 116.003Z" fill="#408B3A"/>
<path d="M122.039 88.026C122.57 89.1162 117.868 92.4984 116.464 93.1818C115.06 93.8651 113.492 93.5353 112.961 92.4451C112.43 91.3549 113.138 89.9171 114.542 89.2337C115.946 88.5503 121.508 86.9357 122.039 88.026Z" fill="#408B3A"/>
<path d="M114.35 83.2542C115.554 83.3946 115.87 89.1783 115.689 90.7291C115.508 92.2799 114.385 93.4233 113.181 93.2829C111.976 93.1425 111.147 91.7715 111.327 90.2207C111.508 88.6698 113.145 83.1138 114.35 83.2542Z" fill="#408B3A"/>
<path d="M106.148 87.8715C106.782 86.8379 112.162 88.9847 113.493 89.8011C114.823 90.6175 115.388 92.1172 114.754 93.1508C114.12 94.1843 112.528 94.3604 111.197 93.544C109.866 92.7276 105.514 88.9051 106.148 87.8715Z" fill="#408B3A"/>
<path d="M117 105.5C117 106.881 115.291 108 113.182 108C111.073 108 105 106.166 105 104.786C105 103.405 111.073 103 113.182 103C115.291 103 117 104.119 117 105.5Z" fill="#408B3A"/>
<path d="M123 126.5C123 128.433 120.721 130 117.909 130C115.097 130 107 127.433 107 125.5C107 123.567 115.097 123 117.909 123C120.721 123 123 124.567 123 126.5Z" fill="#408B3A"/>
<path d="M123.082 130.273C123.679 132.112 126.331 132.898 129.005 132.029C131.679 131.16 138.587 126.216 137.989 124.378C137.392 122.539 129.516 124.502 126.842 125.371C124.168 126.24 122.484 128.435 123.082 130.273Z" fill="#408B3A"/>
<path d="M129.254 107.435C129.567 108.78 123.656 111.306 121.691 111.763C119.727 112.221 117.88 111.501 117.567 110.157C117.254 108.812 118.593 107.351 120.557 106.893C122.521 106.436 128.941 106.09 129.254 107.435Z" fill="#408B3A"/>
<line x1="0.5" y1="-0.5" x2="47.0395" y2="-0.5" transform="matrix(-0.252422 0.967617 0.967617 0.252422 159.38 95)" stroke="#408B3A" stroke-linecap="round"/>
<path d="M157.38 100.5C157.38 101.881 158.529 103 159.947 103C161.364 103 168.38 102.238 168.38 100.857C168.38 99.4764 161.364 98 159.947 98C158.529 98 157.38 99.1193 157.38 100.5Z" fill="#316A2C"/>
<path d="M151.603 123.437C151.174 124.94 149.467 125.771 147.789 125.293C146.112 124.814 138.048 121.615 138.478 120.112C138.907 118.608 147.666 119.369 149.343 119.847C151.02 120.326 152.032 121.933 151.603 123.437Z" fill="#316A2C"/>
<path d="M144.834 99.3011C144.341 100.572 150.529 104.159 152.331 104.858C154.133 105.557 155.994 105.093 156.487 103.823C156.98 102.552 155.919 100.955 154.117 100.255C152.315 99.5563 145.327 98.0302 144.834 99.3011Z" fill="#316A2C"/>
<path d="M167.259 119.003C167.235 120.604 158.911 121.775 156.64 121.74C154.369 121.705 152.547 120.378 152.572 118.777C152.597 117.175 154.458 115.905 156.729 115.94C159 115.975 167.284 117.401 167.259 119.003Z" fill="#316A2C"/>
<path d="M150.341 91.026C149.81 92.1162 154.512 95.4984 155.916 96.1818C157.32 96.8651 158.888 96.5353 159.419 95.4451C159.95 94.3549 159.242 92.9171 157.838 92.2337C156.434 91.5503 150.872 89.9357 150.341 91.026Z" fill="#316A2C"/>
<path d="M158.03 86.2542C156.826 86.3946 156.51 92.1783 156.691 93.7291C156.872 95.2799 157.995 96.4233 159.199 96.2829C160.404 96.1425 161.233 94.7715 161.053 93.2207C160.872 91.6698 159.235 86.1138 158.03 86.2542Z" fill="#316A2C"/>
<path d="M166.232 90.8715C165.598 89.8379 160.218 91.9847 158.887 92.8011C157.557 93.6175 156.992 95.1172 157.626 96.1508C158.26 97.1843 159.852 97.3604 161.183 96.544C162.514 95.7276 166.866 91.9051 166.232 90.8715Z" fill="#316A2C"/>
<path d="M155.38 108.5C155.38 109.881 157.089 111 159.198 111C161.307 111 167.38 109.166 167.38 107.786C167.38 106.405 161.307 106 159.198 106C157.089 106 155.38 107.119 155.38 108.5Z" fill="#316A2C"/>
<path d="M149.38 129.5C149.38 131.433 151.659 133 154.471 133C157.283 133 165.38 130.433 165.38 128.5C165.38 126.567 157.283 126 154.471 126C151.659 126 149.38 127.567 149.38 129.5Z" fill="#316A2C"/>
<path d="M149.298 133.273C148.701 135.112 146.049 135.898 143.375 135.029C140.701 134.16 133.793 129.216 134.391 127.378C134.988 125.539 142.864 127.502 145.538 128.371C148.212 129.24 149.896 131.435 149.298 133.273Z" fill="#316A2C"/>
<path d="M143.126 110.435C142.813 111.78 148.724 114.306 150.689 114.763C152.653 115.221 154.5 114.501 154.813 113.157C155.126 111.812 153.787 110.351 151.823 109.893C149.859 109.436 143.439 109.09 143.126 110.435Z" fill="#316A2C"/>
<line x1="0.5" y1="-0.5" x2="47.0395" y2="-0.5" transform="matrix(-0.252422 0.967617 0.967617 0.252422 160.38 93)" stroke="#408B3A" stroke-linecap="round"/>
<path d="M158.38 98.5C158.38 99.8807 159.529 101 160.947 101C162.364 101 169.38 100.238 169.38 98.8571C169.38 97.4764 162.364 96 160.947 96C159.529 96 158.38 97.1193 158.38 98.5Z" fill="#408B3A"/>
<path d="M152.603 121.437C152.174 122.94 150.467 123.771 148.789 123.293C147.112 122.814 139.048 119.615 139.478 118.112C139.907 116.608 148.666 117.369 150.343 117.847C152.02 118.326 153.032 119.933 152.603 121.437Z" fill="#408B3A"/>
<path d="M145.834 97.3011C145.341 98.572 151.529 102.159 153.331 102.858C155.133 103.557 156.994 103.093 157.487 101.823C157.98 100.552 156.919 98.9547 155.117 98.2555C153.315 97.5563 146.327 96.0302 145.834 97.3011Z" fill="#408B3A"/>
<path d="M168.259 117.003C168.235 118.604 159.911 119.775 157.64 119.74C155.369 119.705 153.547 118.378 153.572 116.777C153.597 115.175 155.458 113.905 157.729 113.94C160 113.975 168.284 115.401 168.259 117.003Z" fill="#408B3A"/>
<path d="M151.341 89.026C150.81 90.1162 155.512 93.4984 156.916 94.1818C158.32 94.8651 159.888 94.5353 160.419 93.4451C160.95 92.3549 160.242 90.9171 158.838 90.2337C157.434 89.5503 151.872 87.9357 151.341 89.026Z" fill="#408B3A"/>
<path d="M159.03 84.2542C157.826 84.3946 157.51 90.1783 157.691 91.7291C157.872 93.2799 158.995 94.4233 160.199 94.2829C161.404 94.1425 162.233 92.7715 162.053 91.2207C161.872 89.6698 160.235 84.1138 159.03 84.2542Z" fill="#408B3A"/>
<path d="M167.232 88.8715C166.598 87.8379 161.218 89.9847 159.887 90.8011C158.557 91.6175 157.992 93.1172 158.626 94.1508C159.26 95.1843 160.852 95.3604 162.183 94.544C163.514 93.7276 167.866 89.9051 167.232 88.8715Z" fill="#408B3A"/>
<path d="M156.38 106.5C156.38 107.881 158.089 109 160.198 109C162.307 109 168.38 107.166 168.38 105.786C168.38 104.405 162.307 104 160.198 104C158.089 104 156.38 105.119 156.38 106.5Z" fill="#408B3A"/>
<path d="M150.38 127.5C150.38 129.433 152.659 131 155.471 131C158.283 131 166.38 128.433 166.38 126.5C166.38 124.567 158.283 124 155.471 124C152.659 124 150.38 125.567 150.38 127.5Z" fill="#408B3A"/>
<path d="M150.298 131.273C149.701 133.112 147.049 133.898 144.375 133.029C141.701 132.16 134.793 127.216 135.391 125.378C135.988 123.539 143.864 125.502 146.538 126.371C149.212 127.24 150.896 129.435 150.298 131.273Z" fill="#408B3A"/>
<path d="M144.126 108.435C143.813 109.78 149.724 112.306 151.689 112.763C153.653 113.221 155.5 112.501 155.813 111.157C156.126 109.812 154.787 108.351 152.823 107.893C150.859 107.436 144.439 107.09 144.126 108.435Z" fill="#408B3A"/>
<g filter="url(#filter0_f_61_62815)">
<path d="M210 195C210 199.971 183.585 202.5 151 202.5C118.415 202.5 92 199.971 92 195C92 190.029 118.415 186 151 186C183.585 186 210 190.029 210 195Z" fill="#D9D9D9"/>
</g>
<path d="M115.242 142.198C115.117 141.579 115.59 141 116.222 141H185.245C185.887 141 186.363 141.597 186.219 142.224L174.178 194.724C174.074 195.178 173.67 195.5 173.203 195.5H126.818C126.342 195.5 125.932 195.164 125.838 194.698L115.242 142.198Z" fill="#B4771A"/>
<path d="M115.377 142.869C115.254 142.256 115.192 141.95 115.266 141.708C115.342 141.456 115.515 141.245 115.746 141.12C115.969 141 116.281 141 116.906 141H184.542C185.182 141 185.502 141 185.727 141.124C185.961 141.253 186.133 141.469 186.206 141.726C186.277 141.973 186.205 142.285 186.062 142.909L174.278 194.289C174.183 194.702 174.135 194.909 174.028 195.066C173.915 195.23 173.756 195.357 173.571 195.43C173.394 195.5 173.182 195.5 172.757 195.5H127.277C126.841 195.5 126.624 195.5 126.444 195.427C126.256 195.351 126.095 195.22 125.984 195.051C125.877 194.888 125.834 194.675 125.747 194.249L115.377 142.869Z" fill="url(#paint0_linear_61_62815)"/>
<path d="M115.377 142.869C115.254 142.256 115.192 141.95 115.266 141.708C115.342 141.456 115.515 141.245 115.746 141.12C115.969 141 116.281 141 116.906 141H184.542C185.182 141 185.502 141 185.727 141.124C185.961 141.253 186.133 141.469 186.206 141.726C186.277 141.973 186.205 142.285 186.062 142.909L174.278 194.289C174.183 194.702 174.135 194.909 174.028 195.066C173.915 195.23 173.756 195.357 173.571 195.43C173.394 195.5 173.182 195.5 172.757 195.5H127.277C126.841 195.5 126.624 195.5 126.444 195.427C126.256 195.351 126.095 195.22 125.984 195.051C125.877 194.888 125.834 194.675 125.747 194.249L115.377 142.869Z" fill="url(#paint1_linear_61_62815)"/>
<g filter="url(#filter1_d_61_62815)">
<path d="M111.155 136.135C111.073 135.535 111.54 135 112.146 135H188.802C189.426 135 189.897 135.565 189.786 136.179L188.149 145.179C188.063 145.654 187.649 146 187.165 146H113.373C112.873 146 112.45 145.631 112.382 145.135L111.155 136.135Z" fill="url(#paint2_linear_61_62815)"/>
</g>
<defs>
<filter id="filter0_f_61_62815" x="88" y="182" width="126" height="24.5" filterUnits="userSpaceOnUse" color-interpolation-filters="sRGB">
<feFlood flood-opacity="0" result="BackgroundImageFix"/>
<feBlend mode="normal" in="SourceGraphic" in2="BackgroundImageFix" result="shape"/>
<feGaussianBlur stdDeviation="2" result="effect1_foregroundBlur_61_62815"/>
</filter>
<filter id="filter1_d_61_62815" x="107.145" y="135" width="86.6567" height="19" filterUnits="userSpaceOnUse" color-interpolation-filters="sRGB">
<feFlood flood-opacity="0" result="BackgroundImageFix"/>
<feColorMatrix in="SourceAlpha" type="matrix" values="0 0 0 0 0 0 0 0 0 0 0 0 0 0 0 0 0 0 127 0" result="hardAlpha"/>
<feOffset dy="4"/>
<feGaussianBlur stdDeviation="2"/>
<feComposite in2="hardAlpha" operator="out"/>
<feColorMatrix type="matrix" values="0 0 0 0 0 0 0 0 0 0 0 0 0 0 0 0 0 0 0.25 0"/>
<feBlend mode="normal" in2="BackgroundImageFix" result="effect1_dropShadow_61_62815"/>
<feBlend mode="normal" in="SourceGraphic" in2="effect1_dropShadow_61_62815" result="shape"/>
</filter>
<linearGradient id="paint0_linear_61_62815" x1="151" y1="173" x2="173" y2="180.5" gradientUnits="userSpaceOnUse">
<stop stop-color="#A8690A" stop-opacity="0.81"/>
<stop offset="0.939762" stop-color="#6D4303"/>
</linearGradient>
<linearGradient id="paint1_linear_61_62815" x1="153.5" y1="173" x2="127" y2="182.5" gradientUnits="userSpaceOnUse">
<stop stop-color="#C28427" stop-opacity="0.4"/>
<stop offset="1" stop-color="#885508"/>
</linearGradient>
<linearGradient id="paint2_linear_61_62815" x1="111" y1="135" x2="190" y2="135" gradientUnits="userSpaceOnUse">
<stop offset="0.00865841" stop-color="#744704"/>
<stop offset="0.510756" stop-color="#CD851A"/>
<stop offset="1" stop-color="#724603"/>
</linearGradient>
</defs>
</svg>
