<svg width="303" height="211" viewBox="0 0 303 211" fill="none" xmlns="http://www.w3.org/2000/svg">
<line x1="0.5" y1="-0.5" x2="54.4612" y2="-0.5" transform="matrix(0.118789 0.99292 0.99292 -0.118789 134.037 88.0635)" stroke="#326B2D" stroke-linecap="round"/>
<path d="M134.209 94.8273C134.793 96.3131 136.502 97.0318 138.028 96.4327C139.553 95.8336 146.781 92.0482 146.197 90.5625C145.613 89.0767 137.44 90.4531 135.914 91.0523C134.389 91.6514 133.625 93.3415 134.209 94.8273Z" fill="#254E22"/>
<path d="M137.687 121.951C137.86 123.75 136.374 125.366 134.367 125.56C132.36 125.754 122.331 125.72 122.157 123.92C121.983 122.121 131.731 119.237 133.738 119.043C135.745 118.85 137.513 120.151 137.687 121.951Z" fill="#254E22"/>
<path d="M120.201 98.8399C120.208 100.416 128.383 101.66 130.618 101.65C132.853 101.641 134.659 100.356 134.653 98.7801C134.646 97.2041 132.829 95.934 130.594 95.9433C128.36 95.9525 120.195 97.2639 120.201 98.8399Z" fill="#254E22"/>
<path d="M152.66 110.562C153.311 112.296 144.848 117.074 142.39 117.996C139.931 118.919 137.41 118.261 136.76 116.527C136.109 114.793 137.575 112.639 140.034 111.717C142.493 110.794 152.01 108.828 152.66 110.562Z" fill="#254E22"/>
<path d="M122.63 87.6075C122.52 89.005 129.009 90.6571 130.809 90.7992C132.608 90.9412 134.157 89.9235 134.267 88.526C134.377 87.1285 133.008 85.8805 131.208 85.7384C129.409 85.5964 122.74 86.21 122.63 87.6075Z" fill="#254E22"/>
<path d="M128.888 79.2228C127.651 79.8829 129.756 86.2399 130.606 87.8323C131.456 89.4248 133.148 90.1806 134.384 89.5204C135.621 88.8603 135.934 87.0343 135.084 85.4418C134.234 83.8494 130.124 78.5627 128.888 79.2228Z" fill="#254E22"/>
<path d="M139.665 80.7248C138.546 79.8805 133.664 84.4644 132.577 85.9054C131.49 87.3464 131.516 89.199 132.635 90.0432C133.754 90.8875 135.543 90.4037 136.63 88.9627C137.717 87.5217 140.784 81.569 139.665 80.7248Z" fill="#254E22"/>
<path d="M135.438 104.281C136.022 105.767 138.334 106.249 140.603 105.358C142.873 104.467 148.633 99.9267 148.049 98.4409C147.466 96.9551 140.759 99.0861 138.49 99.9773C136.221 100.869 134.855 102.796 135.438 104.281Z" fill="#254E22"/>
<path d="M137.857 129.415C138.674 131.495 141.789 132.218 144.815 131.03C147.84 129.842 155.469 123.657 154.652 121.577C153.835 119.497 144.882 122.309 141.856 123.497C138.831 124.686 137.04 127.335 137.857 129.415Z" fill="#254E22"/>
<path d="M139.364 133.51C139.498 135.741 136.977 137.707 133.732 137.903C130.487 138.098 120.964 135.697 120.83 133.467C120.696 131.236 130.001 130.019 133.246 129.824C136.491 129.629 139.23 131.279 139.364 133.51Z" fill="#254E22"/>
<path d="M123.069 111.543C123.3 113.122 130.73 113.342 133.037 113.004C135.344 112.666 137.027 111.111 136.796 109.532C136.565 107.952 134.507 106.946 132.199 107.284C129.892 107.622 122.838 109.963 123.069 111.543Z" fill="#254E22"/>
<line x1="0.5" y1="-0.5" x2="54.4612" y2="-0.5" transform="matrix(0.118789 0.99292 0.99292 -0.118789 134.267 85.4886)" stroke="#326B2D" stroke-linecap="round"/>
<path d="M134.44 92.2525C135.023 93.7382 136.733 94.457 138.258 93.8579C139.784 93.2588 147.011 89.4734 146.428 87.9876C145.844 86.5019 137.67 87.8783 136.145 88.4774C134.62 89.0766 133.856 90.7667 134.44 92.2525Z" fill="#326B2D"/>
<path d="M137.917 119.376C138.091 121.175 136.605 122.791 134.598 122.985C132.591 123.179 122.562 123.145 122.388 121.346C122.214 119.546 131.962 116.662 133.969 116.469C135.976 116.275 137.744 117.576 137.917 119.376Z" fill="#326B2D"/>
<path d="M120.432 96.2651C120.438 97.8411 128.614 99.0848 130.849 99.0756C133.083 99.0663 134.89 97.7812 134.883 96.2053C134.877 94.6293 133.06 93.3592 130.825 93.3684C128.59 93.3777 120.425 94.6891 120.432 96.2651Z" fill="#326B2D"/>
<path d="M152.891 107.987C153.541 109.721 145.079 114.499 142.62 115.421C140.161 116.344 137.641 115.686 136.99 113.952C136.34 112.218 137.806 110.064 140.265 109.142C142.724 108.22 152.24 106.253 152.891 107.987Z" fill="#326B2D"/>
<path d="M122.861 85.0326C122.751 86.4301 129.24 88.0823 131.04 88.2243C132.839 88.3664 134.387 87.3486 134.498 85.9512C134.608 84.5537 133.238 83.3056 131.439 83.1636C129.64 83.0216 122.971 83.6351 122.861 85.0326Z" fill="#326B2D"/>
<path d="M129.118 76.6479C127.882 77.3081 129.987 83.6651 130.837 85.2575C131.687 86.8499 133.378 87.6057 134.615 86.9456C135.852 86.2855 136.165 84.4594 135.315 82.867C134.465 81.2746 130.355 75.9878 129.118 76.6479Z" fill="#326B2D"/>
<path d="M139.896 78.1499C138.777 77.3057 133.895 81.8895 132.808 83.3306C131.721 84.7716 131.747 86.6241 132.866 87.4684C133.985 88.3127 135.773 87.8289 136.86 86.3879C137.948 84.9469 141.015 78.9942 139.896 78.1499Z" fill="#326B2D"/>
<path d="M135.669 101.706C136.252 103.192 138.565 103.674 140.834 102.783C143.103 101.892 148.864 97.3518 148.28 95.8661C147.696 94.3803 140.99 96.5113 138.721 97.4025C136.452 98.2938 135.085 100.221 135.669 101.706Z" fill="#326B2D"/>
<path d="M138.088 126.84C138.905 128.92 142.02 129.643 145.045 128.455C148.071 127.267 155.7 121.082 154.883 119.002C154.066 116.922 145.112 119.734 142.087 120.922C139.061 122.111 137.271 124.76 138.088 126.84Z" fill="#326B2D"/>
<path d="M139.595 130.935C139.729 133.166 137.207 135.133 133.963 135.328C130.718 135.523 121.195 133.122 121.061 130.892C120.927 128.661 130.232 127.445 133.477 127.25C136.721 127.054 139.461 128.705 139.595 130.935Z" fill="#326B2D"/>
<path d="M123.3 108.968C123.531 110.547 130.961 110.767 133.268 110.429C135.575 110.091 137.258 108.536 137.027 106.957C136.795 105.378 134.737 104.371 132.43 104.709C130.123 105.047 123.068 107.388 123.3 108.968Z" fill="#326B2D"/>
<line x1="179.356" y1="89.3471" x2="165.824" y2="141.584" stroke="#326B2D" stroke-linecap="round"/>
<path d="M177.92 95.4174C177.143 96.8116 175.353 97.2947 173.921 96.4966C172.49 95.6984 165.835 90.9786 166.612 89.5844C167.39 88.1903 175.305 90.6497 176.736 91.4479C178.168 92.246 178.698 94.0232 177.92 95.4174Z" fill="#254E22"/>
<path d="M170.839 121.83C170.426 123.59 171.682 125.391 173.645 125.852C175.608 126.313 185.551 127.623 185.965 125.863C186.378 124.103 177.105 119.939 175.142 119.478C173.179 119.017 171.252 120.07 170.839 121.83Z" fill="#254E22"/>
<path d="M191.264 101.271C191.046 102.832 182.778 102.969 180.565 102.66C178.351 102.352 176.733 100.836 176.951 99.2751C177.169 97.7142 179.139 96.6991 181.353 97.0077C183.566 97.3164 191.482 99.7102 191.264 101.271Z" fill="#254E22"/>
<path d="M157.527 108.538C156.65 110.169 164.395 116.037 166.709 117.281C169.022 118.525 171.608 118.21 172.485 116.579C173.362 114.948 172.197 112.617 169.884 111.374C167.571 110.13 158.404 106.906 157.527 108.538Z" fill="#254E22"/>
<path d="M190.362 89.8143C190.284 91.214 183.632 91.9816 181.83 91.8812C180.028 91.7808 178.63 90.5647 178.708 89.1651C178.786 87.7654 180.31 86.7121 182.112 86.8125C183.915 86.9129 190.44 88.4147 190.362 89.8143Z" fill="#254E22"/>
<path d="M185.285 80.6667C186.422 81.4866 183.484 87.5042 182.428 88.9683C181.373 90.4325 179.595 90.9547 178.458 90.1348C177.321 89.3149 177.255 87.4633 178.311 85.9992C179.367 84.535 184.148 79.8468 185.285 80.6667Z" fill="#254E22"/>
<path d="M174.404 80.7109C175.626 80.0242 179.849 85.221 180.733 86.7947C181.617 88.3684 181.343 90.2007 180.121 90.8874C178.899 91.5741 177.192 90.855 176.307 89.2813C175.423 87.7076 173.181 81.3975 174.404 80.7109Z" fill="#254E22"/>
<path d="M175.435 104.621C174.658 106.016 172.302 106.183 170.172 104.996C168.043 103.809 162.943 98.5377 163.721 97.1436C164.498 95.7494 170.858 98.7599 172.988 99.9472C175.117 101.135 176.213 103.227 175.435 104.621Z" fill="#254E22"/>
<path d="M169.67 129.204C168.581 131.156 165.398 131.455 162.559 129.872C159.72 128.289 152.989 121.138 154.077 119.186C155.165 117.234 163.661 121.221 166.5 122.804C169.339 124.387 170.758 127.252 169.67 129.204Z" fill="#254E22"/>
<path d="M167.628 133.06C167.196 135.253 169.431 137.54 172.62 138.168C175.81 138.796 185.568 137.694 186 135.501C186.432 133.308 177.374 130.856 174.184 130.228C170.995 129.6 168.06 130.868 167.628 133.06Z" fill="#254E22"/>
<path d="M186.72 113.475C186.279 115.009 178.887 114.231 176.646 113.587C174.405 112.943 172.945 111.177 173.386 109.643C173.827 108.108 176.001 107.387 178.243 108.031C180.484 108.675 187.161 111.941 186.72 113.475Z" fill="#254E22"/>
<line x1="179.473" y1="86.7646" x2="165.94" y2="139.001" stroke="#326B2D" stroke-linecap="round"/>
<path d="M178.037 92.8349C177.26 94.229 175.469 94.7122 174.038 93.9141C172.606 93.1159 165.951 88.3961 166.729 87.0019C167.506 85.6078 175.422 88.0672 176.853 88.8654C178.284 89.6635 178.814 91.4407 178.037 92.8349Z" fill="#326B2D"/>
<path d="M170.956 119.248C170.542 121.008 171.798 122.808 173.761 123.269C175.724 123.73 185.668 125.041 186.081 123.281C186.494 121.521 177.221 117.357 175.258 116.896C173.295 116.435 171.369 117.488 170.956 119.248Z" fill="#326B2D"/>
<path d="M191.38 98.6886C191.163 100.25 182.894 100.386 180.681 100.078C178.468 99.769 176.85 98.2535 177.068 96.6926C177.285 95.1317 179.256 94.1166 181.469 94.4252C183.683 94.7339 191.598 97.1277 191.38 98.6886Z" fill="#326B2D"/>
<path d="M157.643 105.955C156.766 107.586 164.512 113.455 166.825 114.698C169.138 115.942 171.724 115.628 172.601 113.997C173.478 112.365 172.314 110.035 170.001 108.791C167.688 107.548 158.52 104.324 157.643 105.955Z" fill="#326B2D"/>
<path d="M190.479 87.2318C190.401 88.6315 183.749 89.3991 181.946 89.2987C180.144 89.1982 178.746 87.9822 178.824 86.5825C178.902 85.1829 180.426 84.1296 182.229 84.23C184.031 84.3304 190.557 85.8322 190.479 87.2318Z" fill="#326B2D"/>
<path d="M185.401 78.0842C186.538 78.9041 183.6 84.9216 182.545 86.3858C181.489 87.8499 179.711 88.3722 178.574 87.5523C177.437 86.7324 177.371 84.8808 178.427 83.4167C179.483 81.9525 184.264 77.2643 185.401 78.0842Z" fill="#326B2D"/>
<path d="M174.52 78.1283C175.742 77.4417 179.965 82.6384 180.85 84.2121C181.734 85.7858 181.46 87.6182 180.238 88.3049C179.016 88.9916 177.308 88.2725 176.424 86.6988C175.54 85.1251 173.298 78.815 174.52 78.1283Z" fill="#326B2D"/>
<path d="M175.552 102.039C174.775 103.433 172.418 103.601 170.289 102.413C168.16 101.226 163.06 95.9552 163.837 94.5611C164.615 93.1669 170.975 96.1774 173.104 97.3647C175.233 98.5521 176.329 100.645 175.552 102.039Z" fill="#326B2D"/>
<path d="M169.786 126.622C168.698 128.574 165.514 128.873 162.675 127.289C159.836 125.706 153.105 118.555 154.193 116.603C155.282 114.651 163.777 118.638 166.616 120.221C169.455 121.804 170.875 124.67 169.786 126.622Z" fill="#326B2D"/>
<path d="M167.744 130.478C167.312 132.671 169.548 134.957 172.737 135.586C175.926 136.214 185.685 135.111 186.117 132.919C186.549 130.726 177.49 128.273 174.301 127.645C171.112 127.017 168.176 128.285 167.744 130.478Z" fill="#326B2D"/>
<path d="M186.836 110.892C186.395 112.427 179.003 111.648 176.762 111.004C174.521 110.36 173.062 108.594 173.503 107.06C173.944 105.526 176.118 104.804 178.359 105.449C180.6 106.093 187.277 109.358 186.836 110.892Z" fill="#326B2D"/>
<line x1="114.61" y1="98.3576" x2="126.358" y2="143.39" stroke="#408B3A" stroke-linecap="round"/>
<path d="M116 103.5C116 104.881 114.851 106 113.433 106C112.016 106 105 105.238 105 103.857C105 102.476 112.016 101 113.433 101C114.851 101 116 102.119 116 103.5Z" fill="#316A2C"/>
<path d="M121.777 126.437C122.206 127.94 123.914 128.771 125.591 128.293C127.268 127.814 135.332 124.615 134.903 123.112C134.473 121.608 125.714 122.369 124.037 122.847C122.36 123.326 121.348 124.933 121.777 126.437Z" fill="#316A2C"/>
<path d="M128.546 102.301C129.039 103.572 122.851 107.159 121.049 107.858C119.247 108.557 117.386 108.093 116.893 106.823C116.4 105.552 117.461 103.955 119.263 103.255C121.065 102.556 128.053 101.03 128.546 102.301Z" fill="#316A2C"/>
<path d="M106.121 122.003C106.145 123.604 114.469 124.775 116.74 124.74C119.011 124.705 120.833 123.378 120.808 121.777C120.783 120.175 118.922 118.905 116.651 118.94C114.38 118.975 106.096 120.401 106.121 122.003Z" fill="#316A2C"/>
<path d="M123.039 94.026C123.57 95.1162 118.868 98.4984 117.464 99.1818C116.06 99.8651 114.492 99.5353 113.961 98.4451C113.43 97.3549 114.138 95.9171 115.542 95.2337C116.946 94.5503 122.508 92.9357 123.039 94.026Z" fill="#316A2C"/>
<path d="M115.35 89.2542C116.554 89.3946 116.87 95.1783 116.689 96.7291C116.508 98.2799 115.385 99.4233 114.181 99.2829C112.976 99.1425 112.147 97.7715 112.327 96.2207C112.508 94.6698 114.145 89.1138 115.35 89.2542Z" fill="#316A2C"/>
<path d="M107.148 93.8715C107.782 92.8379 113.162 94.9847 114.493 95.8011C115.823 96.6175 116.388 98.1172 115.754 99.1508C115.12 100.184 113.528 100.36 112.197 99.544C110.866 98.7276 106.514 94.9051 107.148 93.8715Z" fill="#316A2C"/>
<path d="M118 111.5C118 112.881 116.291 114 114.182 114C112.073 114 106 112.166 106 110.786C106 109.405 112.073 109 114.182 109C116.291 109 118 110.119 118 111.5Z" fill="#316A2C"/>
<path d="M124 132.5C124 134.433 121.721 136 118.909 136C116.097 136 108 133.433 108 131.5C108 129.567 116.097 129 118.909 129C121.721 129 124 130.567 124 132.5Z" fill="#316A2C"/>
<path d="M124.082 136.273C124.679 138.112 127.331 138.898 130.005 138.029C132.679 137.16 139.587 132.216 138.989 130.378C138.392 128.539 130.516 130.502 127.842 131.371C125.168 132.24 123.484 134.435 124.082 136.273Z" fill="#316A2C"/>
<path d="M130.254 113.435C130.567 114.78 124.656 117.306 122.691 117.763C120.727 118.221 118.88 117.501 118.567 116.157C118.254 114.812 119.593 113.351 121.557 112.893C123.521 112.436 129.941 112.09 130.254 113.435Z" fill="#316A2C"/>
<line x1="113.61" y1="96.3576" x2="125.358" y2="141.39" stroke="#408B3A" stroke-linecap="round"/>
<path d="M115 101.5C115 102.881 113.851 104 112.433 104C111.016 104 104 103.238 104 101.857C104 100.476 111.016 99 112.433 99C113.851 99 115 100.119 115 101.5Z" fill="#408B3A"/>
<path d="M120.777 124.437C121.206 125.94 122.914 126.771 124.591 126.293C126.268 125.814 134.332 122.615 133.903 121.112C133.473 119.608 124.714 120.369 123.037 120.847C121.36 121.326 120.348 122.933 120.777 124.437Z" fill="#408B3A"/>
<path d="M127.546 100.301C128.039 101.572 121.851 105.159 120.049 105.858C118.247 106.557 116.386 106.093 115.893 104.823C115.4 103.552 116.461 101.955 118.263 101.255C120.065 100.556 127.053 99.0302 127.546 100.301Z" fill="#408B3A"/>
<path d="M105.121 120.003C105.145 121.604 113.469 122.775 115.74 122.74C118.011 122.705 119.833 121.378 119.808 119.777C119.783 118.175 117.922 116.905 115.651 116.94C113.38 116.975 105.096 118.401 105.121 120.003Z" fill="#408B3A"/>
<path d="M122.039 92.026C122.57 93.1162 117.868 96.4984 116.464 97.1818C115.06 97.8651 113.492 97.5353 112.961 96.4451C112.43 95.3549 113.138 93.9171 114.542 93.2337C115.946 92.5503 121.508 90.9357 122.039 92.026Z" fill="#408B3A"/>
<path d="M114.35 87.2542C115.554 87.3946 115.87 93.1783 115.689 94.7291C115.508 96.2799 114.385 97.4233 113.181 97.2829C111.976 97.1425 111.147 95.7715 111.327 94.2207C111.508 92.6698 113.145 87.1138 114.35 87.2542Z" fill="#408B3A"/>
<path d="M106.148 91.8715C106.782 90.8379 112.162 92.9847 113.493 93.8011C114.823 94.6175 115.388 96.1172 114.754 97.1508C114.12 98.1843 112.528 98.3604 111.197 97.544C109.866 96.7276 105.514 92.9051 106.148 91.8715Z" fill="#408B3A"/>
<path d="M117 109.5C117 110.881 115.291 112 113.182 112C111.073 112 105 110.166 105 108.786C105 107.405 111.073 107 113.182 107C115.291 107 117 108.119 117 109.5Z" fill="#408B3A"/>
<path d="M123 130.5C123 132.433 120.721 134 117.909 134C115.097 134 107 131.433 107 129.5C107 127.567 115.097 127 117.909 127C120.721 127 123 128.567 123 130.5Z" fill="#408B3A"/>
<path d="M123.082 134.273C123.679 136.112 126.331 136.898 129.005 136.029C131.679 135.16 138.587 130.216 137.989 128.378C137.392 126.539 129.516 128.502 126.842 129.371C124.168 130.24 122.484 132.435 123.082 134.273Z" fill="#408B3A"/>
<path d="M129.254 111.435C129.567 112.78 123.656 115.306 121.691 115.763C119.727 116.221 117.88 115.501 117.567 114.157C117.254 112.812 118.593 111.351 120.557 110.893C122.521 110.436 128.941 110.09 129.254 111.435Z" fill="#408B3A"/>
<line x1="0.5" y1="-0.5" x2="47.0395" y2="-0.5" transform="matrix(-0.252422 0.967617 0.967617 0.252422 159.38 99)" stroke="#408B3A" stroke-linecap="round"/>
<path d="M157.38 104.5C157.38 105.881 158.529 107 159.947 107C161.364 107 168.38 106.238 168.38 104.857C168.38 103.476 161.364 102 159.947 102C158.529 102 157.38 103.119 157.38 104.5Z" fill="#316A2C"/>
<path d="M151.603 127.437C151.174 128.94 149.467 129.771 147.789 129.293C146.112 128.814 138.048 125.615 138.478 124.112C138.907 122.608 147.666 123.369 149.343 123.847C151.02 124.326 152.032 125.933 151.603 127.437Z" fill="#316A2C"/>
<path d="M144.834 103.301C144.341 104.572 150.529 108.159 152.331 108.858C154.133 109.557 155.994 109.093 156.487 107.823C156.98 106.552 155.919 104.955 154.117 104.255C152.315 103.556 145.327 102.03 144.834 103.301Z" fill="#316A2C"/>
<path d="M167.259 123.003C167.235 124.604 158.911 125.775 156.64 125.74C154.369 125.705 152.547 124.378 152.572 122.777C152.597 121.175 154.458 119.905 156.729 119.94C159 119.975 167.284 121.401 167.259 123.003Z" fill="#316A2C"/>
<path d="M150.341 95.026C149.81 96.1162 154.512 99.4984 155.916 100.182C157.32 100.865 158.888 100.535 159.419 99.4451C159.95 98.3549 159.242 96.9171 157.838 96.2337C156.434 95.5503 150.872 93.9357 150.341 95.026Z" fill="#316A2C"/>
<path d="M158.03 90.2542C156.826 90.3946 156.51 96.1783 156.691 97.7291C156.872 99.2799 157.995 100.423 159.199 100.283C160.404 100.143 161.233 98.7715 161.053 97.2207C160.872 95.6698 159.235 90.1138 158.03 90.2542Z" fill="#316A2C"/>
<path d="M166.232 94.8715C165.598 93.8379 160.218 95.9847 158.887 96.8011C157.557 97.6175 156.992 99.1172 157.626 100.151C158.26 101.184 159.852 101.36 161.183 100.544C162.514 99.7276 166.866 95.9051 166.232 94.8715Z" fill="#316A2C"/>
<path d="M155.38 112.5C155.38 113.881 157.089 115 159.198 115C161.307 115 167.38 113.166 167.38 111.786C167.38 110.405 161.307 110 159.198 110C157.089 110 155.38 111.119 155.38 112.5Z" fill="#316A2C"/>
<path d="M149.38 133.5C149.38 135.433 151.659 137 154.471 137C157.283 137 165.38 134.433 165.38 132.5C165.38 130.567 157.283 130 154.471 130C151.659 130 149.38 131.567 149.38 133.5Z" fill="#316A2C"/>
<path d="M149.298 137.273C148.701 139.112 146.049 139.898 143.375 139.029C140.701 138.16 133.793 133.216 134.391 131.378C134.988 129.539 142.864 131.502 145.538 132.371C148.212 133.24 149.896 135.435 149.298 137.273Z" fill="#316A2C"/>
<path d="M143.126 114.435C142.813 115.78 148.724 118.306 150.689 118.763C152.653 119.221 154.5 118.501 154.813 117.157C155.126 115.812 153.787 114.351 151.823 113.893C149.859 113.436 143.439 113.09 143.126 114.435Z" fill="#316A2C"/>
<line x1="0.5" y1="-0.5" x2="47.0395" y2="-0.5" transform="matrix(-0.252422 0.967617 0.967617 0.252422 160.38 97)" stroke="#408B3A" stroke-linecap="round"/>
<path d="M158.38 102.5C158.38 103.881 159.529 105 160.947 105C162.364 105 169.38 104.238 169.38 102.857C169.38 101.476 162.364 100 160.947 100C159.529 100 158.38 101.119 158.38 102.5Z" fill="#408B3A"/>
<path d="M152.603 125.437C152.174 126.94 150.467 127.771 148.789 127.293C147.112 126.814 139.048 123.615 139.478 122.112C139.907 120.608 148.666 121.369 150.343 121.847C152.02 122.326 153.032 123.933 152.603 125.437Z" fill="#408B3A"/>
<path d="M145.834 101.301C145.341 102.572 151.529 106.159 153.331 106.858C155.133 107.557 156.994 107.093 157.487 105.823C157.98 104.552 156.919 102.955 155.117 102.255C153.315 101.556 146.327 100.03 145.834 101.301Z" fill="#408B3A"/>
<path d="M168.259 121.003C168.235 122.604 159.911 123.775 157.64 123.74C155.369 123.705 153.547 122.378 153.572 120.777C153.597 119.175 155.458 117.905 157.729 117.94C160 117.975 168.284 119.401 168.259 121.003Z" fill="#408B3A"/>
<path d="M151.341 93.026C150.81 94.1162 155.512 97.4984 156.916 98.1818C158.32 98.8651 159.888 98.5353 160.419 97.4451C160.95 96.3549 160.242 94.9171 158.838 94.2337C157.434 93.5503 151.872 91.9357 151.341 93.026Z" fill="#408B3A"/>
<path d="M159.03 88.2542C157.826 88.3946 157.51 94.1783 157.691 95.7291C157.872 97.2799 158.995 98.4233 160.199 98.2829C161.404 98.1425 162.233 96.7715 162.053 95.2207C161.872 93.6698 160.235 88.1138 159.03 88.2542Z" fill="#408B3A"/>
<path d="M167.232 92.8715C166.598 91.8379 161.218 93.9847 159.887 94.8011C158.557 95.6175 157.992 97.1172 158.626 98.1508C159.26 99.1843 160.852 99.3604 162.183 98.544C163.514 97.7276 167.866 93.9051 167.232 92.8715Z" fill="#408B3A"/>
<path d="M156.38 110.5C156.38 111.881 158.089 113 160.198 113C162.307 113 168.38 111.166 168.38 109.786C168.38 108.405 162.307 108 160.198 108C158.089 108 156.38 109.119 156.38 110.5Z" fill="#408B3A"/>
<path d="M150.38 131.5C150.38 133.433 152.659 135 155.471 135C158.283 135 166.38 132.433 166.38 130.5C166.38 128.567 158.283 128 155.471 128C152.659 128 150.38 129.567 150.38 131.5Z" fill="#408B3A"/>
<path d="M150.298 135.273C149.701 137.112 147.049 137.898 144.375 137.029C141.701 136.16 134.793 131.216 135.391 129.378C135.988 127.539 143.864 129.502 146.538 130.371C149.212 131.24 150.896 133.435 150.298 135.273Z" fill="#408B3A"/>
<path d="M144.126 112.435C143.813 113.78 149.724 116.306 151.689 116.763C153.653 117.221 155.5 116.501 155.813 115.157C156.126 113.812 154.787 112.351 152.823 111.893C150.859 111.436 144.439 111.09 144.126 112.435Z" fill="#408B3A"/>
<g filter="url(#filter0_f_209_117829)">
<path d="M210 199C210 203.971 183.585 206.5 151 206.5C118.415 206.5 92 203.971 92 199C92 194.029 118.415 190 151 190C183.585 190 210 194.029 210 199Z" fill="#D9D9D9"/>
</g>
<path d="M115.242 146.198C115.117 145.579 115.59 145 116.222 145H185.245C185.887 145 186.363 145.597 186.219 146.224L174.178 198.724C174.074 199.178 173.67 199.5 173.203 199.5H126.818C126.342 199.5 125.932 199.164 125.838 198.698L115.242 146.198Z" fill="#B4771A"/>
<path d="M115.377 146.869C115.254 146.256 115.192 145.95 115.266 145.708C115.342 145.456 115.515 145.245 115.746 145.12C115.969 145 116.281 145 116.906 145H184.542C185.182 145 185.502 145 185.727 145.124C185.961 145.253 186.133 145.469 186.206 145.726C186.277 145.973 186.205 146.285 186.062 146.909L174.278 198.289C174.183 198.702 174.135 198.909 174.028 199.066C173.915 199.23 173.756 199.357 173.571 199.43C173.394 199.5 173.182 199.5 172.757 199.5H127.277C126.841 199.5 126.624 199.5 126.444 199.427C126.256 199.351 126.095 199.22 125.984 199.051C125.877 198.888 125.834 198.675 125.747 198.249L115.377 146.869Z" fill="url(#paint0_linear_209_117829)"/>
<path d="M115.377 146.869C115.254 146.256 115.192 145.95 115.266 145.708C115.342 145.456 115.515 145.245 115.746 145.12C115.969 145 116.281 145 116.906 145H184.542C185.182 145 185.502 145 185.727 145.124C185.961 145.253 186.133 145.469 186.206 145.726C186.277 145.973 186.205 146.285 186.062 146.909L174.278 198.289C174.183 198.702 174.135 198.909 174.028 199.066C173.915 199.23 173.756 199.357 173.571 199.43C173.394 199.5 173.182 199.5 172.757 199.5H127.277C126.841 199.5 126.624 199.5 126.444 199.427C126.256 199.351 126.095 199.22 125.984 199.051C125.877 198.888 125.834 198.675 125.747 198.249L115.377 146.869Z" fill="url(#paint1_linear_209_117829)"/>
<g filter="url(#filter1_d_209_117829)">
<path d="M111.155 140.135C111.073 139.535 111.54 139 112.146 139H188.802C189.426 139 189.897 139.565 189.786 140.179L188.149 149.179C188.063 149.654 187.649 150 187.165 150H113.373C112.873 150 112.45 149.631 112.382 149.135L111.155 140.135Z" fill="url(#paint2_linear_209_117829)"/>
</g>
<defs>
<filter id="filter0_f_209_117829" x="88" y="186" width="126" height="24.5" filterUnits="userSpaceOnUse" color-interpolation-filters="sRGB">
<feFlood flood-opacity="0" result="BackgroundImageFix"/>
<feBlend mode="normal" in="SourceGraphic" in2="BackgroundImageFix" result="shape"/>
<feGaussianBlur stdDeviation="2" result="effect1_foregroundBlur_209_117829"/>
</filter>
<filter id="filter1_d_209_117829" x="107.145" y="139" width="86.6566" height="19" filterUnits="userSpaceOnUse" color-interpolation-filters="sRGB">
<feFlood flood-opacity="0" result="BackgroundImageFix"/>
<feColorMatrix in="SourceAlpha" type="matrix" values="0 0 0 0 0 0 0 0 0 0 0 0 0 0 0 0 0 0 127 0" result="hardAlpha"/>
<feOffset dy="4"/>
<feGaussianBlur stdDeviation="2"/>
<feComposite in2="hardAlpha" operator="out"/>
<feColorMatrix type="matrix" values="0 0 0 0 0 0 0 0 0 0 0 0 0 0 0 0 0 0 0.25 0"/>
<feBlend mode="normal" in2="BackgroundImageFix" result="effect1_dropShadow_209_117829"/>
<feBlend mode="normal" in="SourceGraphic" in2="effect1_dropShadow_209_117829" result="shape"/>
</filter>
<linearGradient id="paint0_linear_209_117829" x1="151" y1="177" x2="173" y2="184.5" gradientUnits="userSpaceOnUse">
<stop stop-color="#A8690A" stop-opacity="0.81"/>
<stop offset="0.939762" stop-color="#6D4303"/>
</linearGradient>
<linearGradient id="paint1_linear_209_117829" x1="153.5" y1="177" x2="127" y2="186.5" gradientUnits="userSpaceOnUse">
<stop stop-color="#C28427" stop-opacity="0.4"/>
<stop offset="1" stop-color="#885508"/>
</linearGradient>
<linearGradient id="paint2_linear_209_117829" x1="111" y1="139" x2="190" y2="139" gradientUnits="userSpaceOnUse">
<stop offset="0.00865841" stop-color="#744704"/>
<stop offset="0.510756" stop-color="#CD851A"/>
<stop offset="1" stop-color="#724603"/>
</linearGradient>
</defs>
</svg>
