<svg width="28" height="50" viewBox="0 0 28 50" fill="none" xmlns="http://www.w3.org/2000/svg">
<path d="M27.1686 45C27.1622 47.7615 24.9184 49.9948 22.157 49.9884L4.99997 49.9486C2.23856 49.9422 0.00520959 47.6984 0.0116496 44.937L0.0946176 9.36122C0.101015 6.61802 2.31645 4.39219 5.05959 4.37295L14.6395 4.30575L20.9513 4.38823L22.317 4.40608C25.0572 4.44189 27.258 6.6768 27.2516 9.41726L27.1686 45Z" fill="white"/>
<ellipse cx="13.7784" cy="0.341471" rx="6.88919" ry="0.341471" fill="white"/>
<rect x="6.88919" y="0.341507" width="13.7784" height="4.21147" fill="white"/>
<path d="M27.1686 45C27.1622 47.7615 24.9184 49.9948 22.157 49.9884L4.99997 49.9486C2.23856 49.9422 0.00520959 47.6984 0.0116496 44.937L0.0946176 9.36122C0.101015 6.61802 2.31645 4.39219 5.05959 4.37295L14.6395 4.30575L20.9513 4.38823L22.317 4.40608C25.0572 4.44189 27.258 6.6768 27.2516 9.41726L27.1686 45Z" fill="#56C1CF" fill-opacity="0.38"/>
<ellipse cx="13.7784" cy="0.341471" rx="6.88919" ry="0.341471" fill="#99BDC9"/>
<rect x="6.88919" y="0.341507" width="13.7784" height="4.21147" fill="#56C1CF" fill-opacity="0.38"/>
<path d="M26.2943 44.1641C26.2806 46.9193 24.0396 49.1381 21.2843 49.1317L6.18201 49.0967C3.48847 49.0904 1.2854 46.9639 1.2102 44.2714C0.936752 34.4808 0.444425 13.2817 1.35348 14.6647C2.53286 16.4589 12.8553 14.6384 14.7671 14.6646C16.6789 14.6909 26.2503 12.9216 26.3486 14.7939C26.4227 16.2044 26.3397 34.9864 26.2943 44.1641Z" fill="#56C1CF" fill-opacity="0.38"/>
<ellipse cx="6.09345" cy="28.9147" rx="0.516518" ry="0.515243" fill="#F0FDFF" fill-opacity="0.38"/>
<ellipse cx="7.15351" cy="31.2333" rx="0.516518" ry="0.515243" fill="#F0FDFF" fill-opacity="0.38"/>
<ellipse cx="5.06043" cy="32.5214" rx="0.516518" ry="0.515243" fill="#F0FDFF" fill-opacity="0.38"/>
<path d="M4.65353 28.273C4.4802 28.273 4.32853 28.013 4.19853 27.493C4.08587 27.0337 3.99053 26.466 3.91253 25.79C3.8432 25.1053 3.76953 24.243 3.69153 23.203C3.6482 22.527 3.58753 21.8033 3.50953 21.032C3.44887 20.3907 3.3752 19.979 3.28853 19.797C3.36653 19.641 3.4922 19.563 3.66553 19.563C3.94287 19.563 4.08153 19.849 4.08153 20.421C4.08153 21.097 4.17253 22.085 4.35453 23.385C4.53653 24.6763 4.64053 25.6167 4.66653 26.206L4.73153 25.764C4.8182 25.1833 4.89187 24.6373 4.95253 24.126C5.02187 23.606 5.0782 23.047 5.12153 22.449C5.1822 21.7817 5.21253 21.123 5.21253 20.473L5.56353 20.317C5.6762 20.317 5.7672 20.3473 5.83653 20.408C5.91453 20.46 5.95353 20.538 5.95353 20.642V20.746C6.0922 21.2313 6.20487 21.7643 6.29153 22.345C6.38687 22.917 6.4692 23.593 6.53853 24.373C6.59053 24.971 6.6512 25.53 6.72053 26.05C6.8852 24.8887 6.96753 23.4587 6.96753 21.76C6.96753 21.4913 7.0022 21.162 7.07153 20.772C7.1322 20.3733 7.16253 20.0483 7.16253 19.797C7.13653 19.719 7.12353 19.6453 7.12353 19.576C7.12353 19.368 7.25353 19.264 7.51353 19.264C7.61753 19.264 7.69987 19.29 7.76053 19.342C7.8212 19.394 7.85153 19.4677 7.85153 19.563V19.758C7.85153 19.888 7.83853 20.0007 7.81253 20.096V20.161C7.69987 20.5077 7.64353 20.9063 7.64353 21.357V22.306C7.64353 22.852 7.57853 23.6667 7.44853 24.75C7.30987 25.8073 7.24053 26.596 7.24053 27.116V27.35C7.24053 27.5493 7.21887 27.7183 7.17553 27.857C7.12353 28.0303 6.99787 28.117 6.79853 28.117C6.65987 28.117 6.55153 28.0737 6.47353 27.987C6.4042 27.8917 6.36953 27.7747 6.36953 27.636C6.36953 26.934 6.29587 26.024 6.14853 24.906C6.07053 24.4033 5.9882 23.8963 5.90153 23.385L5.69353 22.02C5.65887 22.2713 5.64153 22.5183 5.64153 22.761C5.64153 23.2463 5.60687 23.8877 5.53753 24.685C5.4682 25.4823 5.35987 26.258 5.21253 27.012C5.04787 27.8527 4.86153 28.273 4.65353 28.273ZM11.8388 28C11.7001 28 11.5961 27.974 11.5268 27.922C11.4661 27.87 11.4358 27.7833 11.4358 27.662V25.959C11.3231 25.881 11.1108 25.8117 10.7988 25.751C10.4868 25.6903 10.1921 25.6513 9.91478 25.634C9.81944 25.816 9.75011 26.037 9.70678 26.297L9.65478 26.557C9.64611 26.6177 9.62011 26.752 9.57678 26.96C9.53344 27.168 9.48578 27.35 9.43378 27.506C9.38178 27.6533 9.32978 27.7703 9.27778 27.857C8.94844 27.857 8.75778 27.7703 8.70578 27.597C8.80111 27.4583 8.90944 27.051 9.03078 26.375L9.45978 23.996C9.65044 22.8693 9.82378 21.9073 9.97978 21.11C10.1444 20.3127 10.3178 19.6453 10.4998 19.108C10.6991 18.51 10.8898 18.211 11.0718 18.211C11.2538 18.211 11.3924 18.2457 11.4878 18.315C11.4878 18.6617 11.5701 19.498 11.7348 20.824C11.9081 22.124 11.9948 23.0123 11.9948 23.489C11.9948 23.9483 12.0424 24.607 12.1378 25.465C12.2244 26.3403 12.2678 27.038 12.2678 27.558C12.2678 27.8527 12.1248 28 11.8388 28ZM11.1628 25.205C11.2321 25.205 11.3188 25.192 11.4228 25.166C11.3968 24.7847 11.3534 24.3123 11.2928 23.749C11.0934 21.7903 10.9938 20.59 10.9938 20.148V20.044C10.9071 20.1307 10.7858 20.525 10.6298 21.227C10.4824 21.9203 10.3438 22.6657 10.2138 23.463C10.0838 24.2603 10.0144 24.789 10.0058 25.049C10.3698 25.153 10.7554 25.205 11.1628 25.205ZM14.7847 28.091C14.6547 28.091 14.5507 28.0303 14.4727 27.909C14.4034 27.779 14.3687 27.623 14.3687 27.441C14.3687 27.155 14.386 26.804 14.4207 26.388L14.4467 26.05L14.4727 25.361C14.4727 25.0577 14.4424 24.3817 14.3817 23.333C14.321 22.2843 14.2907 21.6083 14.2907 21.305C14.2907 21.279 14.2907 21.2313 14.2907 21.162C14.2994 21.084 14.3037 20.967 14.3037 20.811C14.3124 20.6377 14.3167 20.4253 14.3167 20.174C14.3167 19.5413 14.2734 19.1383 14.1867 18.965C14.1347 18.965 14.022 18.978 13.8487 19.004L13.4847 19.03C13.372 19.03 13.2724 18.9997 13.1857 18.939C13.099 18.8697 13.0557 18.783 13.0557 18.679C13.0557 18.575 13.1597 18.484 13.3677 18.406C13.671 18.302 14.1867 18.2283 14.9147 18.185C15.2094 18.1677 15.387 18.159 15.4477 18.159C15.5517 18.159 15.647 18.1937 15.7337 18.263C15.8204 18.3323 15.8637 18.419 15.8637 18.523C15.8637 18.627 15.8247 18.7137 15.7467 18.783C15.6774 18.8437 15.5864 18.874 15.4737 18.874L15.2397 18.861C15.1704 18.8523 15.0924 18.848 15.0057 18.848H14.8757C14.9364 19.4373 14.9667 19.9703 14.9667 20.447L14.9537 21.279C14.945 21.5303 14.9407 21.812 14.9407 22.124C14.9407 22.54 14.958 23.0383 14.9927 23.619C15.036 24.3383 15.0577 24.8367 15.0577 25.114C15.0577 25.4433 15.075 25.8333 15.1097 26.284C15.1444 26.7433 15.1617 27.1333 15.1617 27.454C15.1617 27.8787 15.036 28.091 14.7847 28.091ZM17.953 28.078C17.7884 28.078 17.6454 28.0563 17.524 28.013C17.3767 27.9697 17.303 27.8483 17.303 27.649V20.096C17.303 19.9487 17.277 19.7277 17.225 19.433C17.1644 19.1643 17.134 18.9433 17.134 18.77V18.731C17.2814 18.4883 17.3897 18.3323 17.459 18.263C17.5804 18.263 17.7407 18.2457 17.94 18.211C18.122 18.1763 18.2824 18.159 18.421 18.159C18.5597 18.159 18.694 18.2023 18.824 18.289C18.954 18.367 19.019 18.4623 19.019 18.575C19.019 18.835 18.8197 18.965 18.421 18.965H18.239C18.187 18.9563 18.1264 18.952 18.057 18.952C17.979 18.952 17.9314 18.9563 17.914 18.965C17.914 19.2597 17.9314 19.615 17.966 20.031L17.992 20.395L18.018 21.11C18.018 21.2747 18.005 21.526 17.979 21.864L17.953 22.592L18.135 22.553C18.3084 22.501 18.4514 22.475 18.564 22.475C18.6594 22.475 18.746 22.514 18.824 22.592C18.902 22.6613 18.941 22.7437 18.941 22.839C18.941 22.943 18.9064 23.0383 18.837 23.125C18.7764 23.203 18.6984 23.242 18.603 23.242L18.447 23.229H18.278C18.148 23.229 18.057 23.2593 18.005 23.32V27.337L18.733 27.298C19.227 27.298 19.474 27.4107 19.474 27.636V27.688C19.422 27.792 19.3267 27.8787 19.188 27.948C19.0494 28.0087 18.915 28.0477 18.785 28.065L18.356 28.078H17.953ZM23.2352 28.13C23.0705 28.13 22.9102 28.013 22.7542 27.779V27.74C22.7282 27.2807 22.6502 26.7693 22.5202 26.206C22.3902 25.6427 22.1995 24.9623 21.9482 24.165C21.7575 23.567 21.5972 23.0297 21.4672 22.553V27.675C21.4672 27.8137 21.4412 27.9177 21.3892 27.987C21.3459 28.0477 21.2549 28.078 21.1162 28.078C21.0122 28.078 20.9299 28.0477 20.8692 27.987C20.8085 27.9177 20.7782 27.831 20.7782 27.727V27.623L20.8042 23.801C20.8215 22.6743 20.8302 21.4047 20.8302 19.992V18.393C20.8302 18.289 20.8519 18.2197 20.8952 18.185C20.9385 18.1417 21.0295 18.12 21.1682 18.12C21.3849 18.12 21.5842 18.1633 21.7662 18.25C21.9482 18.328 22.1042 18.4407 22.2342 18.588C22.5029 18.8913 22.6762 19.2553 22.7542 19.68C22.7889 19.8533 22.8062 20.0527 22.8062 20.278C22.8062 20.408 22.7932 20.551 22.7672 20.707C22.7499 20.863 22.7369 20.9627 22.7282 21.006C22.7109 21.0927 22.6719 21.2227 22.6112 21.396C22.5505 21.5693 22.5115 21.682 22.4942 21.734L22.3382 22.098L22.2082 22.436C22.2169 22.748 22.2689 23.1423 22.3642 23.619C22.4682 24.0957 22.5809 24.5377 22.7022 24.945C22.7889 25.231 22.9449 25.7077 23.1702 26.375L23.5472 27.519V27.545C23.5472 27.6923 23.5342 27.818 23.5082 27.922C23.4822 28.0607 23.3912 28.13 23.2352 28.13ZM21.4412 21.968C21.5625 21.8467 21.7099 21.6777 21.8832 21.461L22.0782 20.343C22.0869 20.2997 22.0912 20.239 22.0912 20.161C22.0912 19.9097 22.0435 19.6193 21.9482 19.29C21.8962 19.134 21.8269 19.004 21.7402 18.9C21.6622 18.7873 21.5799 18.7267 21.4932 18.718L21.4672 20.018C21.4412 20.5987 21.4282 21.0493 21.4282 21.37C21.4282 21.6733 21.4325 21.8727 21.4412 21.968ZM6.89989 44.208C6.58789 44.104 6.20223 44.052 5.74289 44.052C5.60423 44.1387 5.45689 44.182 5.30089 44.182C5.19689 44.182 5.10589 44.1343 5.02789 44.039C4.95856 43.9523 4.92389 43.857 4.92389 43.753C4.92389 43.025 4.95423 42.0543 5.01489 40.841C5.06689 39.5497 5.09289 38.5833 5.09289 37.942V37.851C5.04089 37.305 5.01489 36.8977 5.01489 36.629C5.01489 35.8057 5.16656 35.394 5.46989 35.394C5.55656 35.394 5.63023 35.4287 5.69089 35.498C5.76023 35.5587 5.79489 35.6323 5.79489 35.719C5.79489 35.823 5.78189 35.9877 5.75589 36.213C5.72989 36.4297 5.71689 36.5943 5.71689 36.707C5.71689 37.2877 5.72123 37.812 5.72989 38.28C5.73856 38.7393 5.74289 39.2593 5.74289 39.84C5.69956 39.97 5.67789 40.152 5.67789 40.386V40.542L5.65189 41.569C5.63456 41.8723 5.62589 42.219 5.62589 42.609C5.62589 43.207 5.76889 43.506 6.05489 43.506C6.07223 43.506 6.09823 43.506 6.13289 43.506C6.17623 43.4973 6.23256 43.493 6.30189 43.493C6.37989 43.4843 6.47956 43.48 6.60089 43.48C7.06889 43.48 7.30289 43.61 7.30289 43.87C7.30289 43.9567 7.26389 44.0303 7.18589 44.091C7.10789 44.1517 7.01256 44.1907 6.89989 44.208ZM9.10441 44.078C8.93974 44.078 8.79674 44.0563 8.67541 44.013C8.52808 43.9697 8.45441 43.8483 8.45441 43.649V36.096C8.45441 35.9487 8.42841 35.7277 8.37641 35.433C8.31574 35.1643 8.28541 34.9433 8.28541 34.77V34.731C8.43274 34.4883 8.54108 34.3323 8.61041 34.263C8.73174 34.263 8.89208 34.2457 9.09141 34.211C9.27341 34.1763 9.43374 34.159 9.57241 34.159C9.71108 34.159 9.84541 34.2023 9.97541 34.289C10.1054 34.367 10.1704 34.4623 10.1704 34.575C10.1704 34.835 9.97108 34.965 9.57241 34.965H9.39041C9.33841 34.9563 9.27774 34.952 9.20841 34.952C9.13041 34.952 9.08274 34.9563 9.06541 34.965C9.06541 35.2597 9.08274 35.615 9.11741 36.031L9.14341 36.395L9.16941 37.11C9.16941 37.2747 9.15641 37.526 9.13041 37.864L9.10441 38.592L9.28641 38.553C9.45974 38.501 9.60274 38.475 9.71541 38.475C9.81074 38.475 9.89741 38.514 9.97541 38.592C10.0534 38.6613 10.0924 38.7437 10.0924 38.839C10.0924 38.943 10.0577 39.0383 9.98841 39.125C9.92774 39.203 9.84974 39.242 9.75441 39.242L9.59841 39.229H9.42941C9.29941 39.229 9.20841 39.2593 9.15641 39.32V43.337L9.88441 43.298C10.3784 43.298 10.6254 43.4107 10.6254 43.636V43.688C10.5734 43.792 10.4781 43.8787 10.3394 43.948C10.2007 44.0087 10.0664 44.0477 9.93641 44.065L9.50741 44.078H9.10441ZM13.4766 44.221C13.3552 44.221 13.2556 44.1733 13.1776 44.078C12.9522 43.142 12.6446 41.4477 12.2546 38.995C11.8212 36.3777 11.5569 34.822 11.4616 34.328C11.4962 34.1633 11.6132 34.081 11.8126 34.081C11.9599 34.081 12.1419 34.6357 12.3586 35.745C12.5839 36.863 12.8049 38.1283 13.0216 39.541L13.3726 41.842C13.5112 40.802 13.6196 40.022 13.6976 39.502C13.8622 38.306 13.9836 37.318 14.0616 36.538C14.1396 35.7493 14.1786 35.004 14.1786 34.302C14.3086 34.1287 14.4646 34.042 14.6466 34.042L14.9196 34.185L14.7246 35.94C14.6812 36.4773 14.5729 37.4523 14.3996 38.865L14.2826 39.723C14.1872 40.4857 14.0919 41.205 13.9966 41.881C13.8666 42.8603 13.7452 43.5407 13.6326 43.922C13.5806 44.1213 13.5286 44.221 13.4766 44.221ZM17.2675 44.078C17.1028 44.078 16.9598 44.0563 16.8385 44.013C16.6912 43.9697 16.6175 43.8483 16.6175 43.649V36.096C16.6175 35.9487 16.5915 35.7277 16.5395 35.433C16.4788 35.1643 16.4485 34.9433 16.4485 34.77V34.731C16.5958 34.4883 16.7042 34.3323 16.7735 34.263C16.8948 34.263 17.0552 34.2457 17.2545 34.211C17.4365 34.1763 17.5968 34.159 17.7355 34.159C17.8742 34.159 18.0085 34.2023 18.1385 34.289C18.2685 34.367 18.3335 34.4623 18.3335 34.575C18.3335 34.835 18.1342 34.965 17.7355 34.965H17.5535C17.5015 34.9563 17.4408 34.952 17.3715 34.952C17.2935 34.952 17.2458 34.9563 17.2285 34.965C17.2285 35.2597 17.2458 35.615 17.2805 36.031L17.3065 36.395L17.3325 37.11C17.3325 37.2747 17.3195 37.526 17.2935 37.864L17.2675 38.592L17.4495 38.553C17.6228 38.501 17.7658 38.475 17.8785 38.475C17.9738 38.475 18.0605 38.514 18.1385 38.592C18.2165 38.6613 18.2555 38.7437 18.2555 38.839C18.2555 38.943 18.2208 39.0383 18.1515 39.125C18.0908 39.203 18.0128 39.242 17.9175 39.242L17.7615 39.229H17.5925C17.4625 39.229 17.3715 39.2593 17.3195 39.32V43.337L18.0475 43.298C18.5415 43.298 18.7885 43.4107 18.7885 43.636V43.688C18.7365 43.792 18.6412 43.8787 18.5025 43.948C18.3638 44.0087 18.2295 44.0477 18.0995 44.065L17.6705 44.078H17.2675ZM20.7427 44.143C20.63 44.143 20.526 44.0997 20.4307 44.013C20.344 43.935 20.3007 43.8397 20.3007 43.727C20.3007 43.649 20.318 43.5537 20.3527 43.441C20.3787 43.3197 20.3917 43.2287 20.3917 43.168C20.3917 42.3967 20.3483 40.9147 20.2617 38.722C20.175 36.85 20.1317 35.3723 20.1317 34.289C20.1317 34.211 20.162 34.1503 20.2227 34.107C20.2833 34.055 20.357 34.029 20.4437 34.029C20.5477 34.029 20.6387 34.068 20.7167 34.146C20.7947 34.2153 20.8337 34.302 20.8337 34.406C20.8337 34.926 20.8597 35.706 20.9117 36.746C20.955 37.8987 20.9767 38.6787 20.9767 39.086L20.9897 39.242V39.398V39.489V39.554C21.0157 40.308 21.0287 41.4347 21.0287 42.934V43.272H22.0297C22.2117 43.402 22.3027 43.532 22.3027 43.662C22.3027 43.7573 22.268 43.844 22.1987 43.922C22.138 43.9913 22.0643 44.026 21.9777 44.026C21.9517 44.026 21.904 44.0173 21.8347 44L21.7827 43.987C21.7307 43.9957 21.6483 44 21.5357 44H21.3147C21.254 43.9913 21.1847 43.987 21.1067 43.987C21.02 44.091 20.8987 44.143 20.7427 44.143Z" fill="#498D97"/>
</svg>
