<svg width="16" height="35" viewBox="0 0 16 35" fill="none" xmlns="http://www.w3.org/2000/svg">
<path d="M16 25.3448C16 29.7701 14.0952 35 8.03321 35C3.84273 35 1.60365e-05 33.3908 0 25.3448C-1.04237e-05 20.1149 3.08082 16.092 8.03321 0C12.9856 16.092 16 21.2846 16 25.3448Z" fill="#95ECFF"/>
<path d="M8.2 26.02C8.06667 26.02 7.94 25.8533 7.82 25.52C7.7 25.1733 7.64 24.66 7.64 23.98C7.64 23.74 7.65333 23.2867 7.68 22.62C7.70667 22.1267 7.72 21.58 7.72 20.98L7.68 17.7L7.64 14.42C7.64 14.2067 7.72667 14.0267 7.9 13.88C8.07333 13.72 8.26667 13.64 8.48 13.64C8.61333 13.64 8.72667 13.6867 8.82 13.78C8.91333 13.8733 8.96 13.9933 8.96 14.14C8.96 15.3133 8.89333 16.9067 8.76 18.92C8.61333 21.1467 8.54 22.74 8.54 23.7C8.54 24.4067 8.52667 24.92 8.5 25.24C8.48667 25.5467 8.45333 25.7533 8.4 25.86C8.36 25.9667 8.29333 26.02 8.2 26.02ZM7.84 29.44C7.68 29.44 7.52667 29.3667 7.38 29.22C7.24667 29.0733 7.18 28.8933 7.18 28.68C7.18 28.44 7.26 28.2333 7.42 28.06C7.58 27.8733 7.77333 27.78 8 27.78C8.24 27.78 8.43333 27.8733 8.58 28.06C8.74 28.2333 8.82 28.46 8.82 28.74C8.82 29.2067 8.49333 29.44 7.84 29.44Z" fill="#56C1CF"/>
</svg>
